<?xml version="1.0" encoding="UTF-8" standalone="no"?>
<!-- Created with Inkscape (http://www.inkscape.org/) -->

<svg
   xmlns:dc="http://purl.org/dc/elements/1.1/"
   xmlns:cc="http://creativecommons.org/ns#"
   xmlns:rdf="http://www.w3.org/1999/02/22-rdf-syntax-ns#"
   xmlns:svg="http://www.w3.org/2000/svg"
   xmlns="http://www.w3.org/2000/svg"
   xmlns:sodipodi="http://sodipodi.sourceforge.net/DTD/sodipodi-0.dtd"
   xmlns:inkscape="http://www.inkscape.org/namespaces/inkscape"
   width="500"
   height="500"
   viewBox="0 0 500.00001 500.00001"
   id="svg2"
   version="1.1"
   inkscape:version="0.91 r13725"
   sodipodi:docname="WE_logo.svg">
  <defs
     id="defs4" />
  <sodipodi:namedview
     id="base"
     pagecolor="#ffffff"
     bordercolor="#666666"
     borderopacity="1.0"
     inkscape:pageopacity="0.0"
     inkscape:pageshadow="2"
     inkscape:zoom="0.49497475"
     inkscape:cx="312.27307"
     inkscape:cy="202.55721"
     inkscape:document-units="px"
     inkscape:current-layer="layer2"
     showgrid="false"
     units="px"
     inkscape:window-width="1536"
     inkscape:window-height="811"
     inkscape:window-x="-8"
     inkscape:window-y="-8"
     inkscape:window-maximized="1" />
  <metadata
     id="metadata7">
    <rdf:RDF>
      <cc:Work
         rdf:about="">
        <dc:format>image/svg+xml</dc:format>
        <dc:type
           rdf:resource="http://purl.org/dc/dcmitype/StillImage" />
        <dc:title></dc:title>
      </cc:Work>
    </rdf:RDF>
  </metadata>
  <g
     inkscape:groupmode="layer"
     id="layer2"
     inkscape:label="Layer 2">
    <path
       style="fill:#000000;fill-rule:evenodd;stroke:#000000;stroke-width:1px;stroke-linecap:butt;stroke-linejoin:miter;stroke-opacity:1;fill-opacity:1"
       d="m 17.172593,64.624253 68.493531,255.621337 -46.693009,12.51135 0,40.97399 62.364125,16.71042 10.31756,38.50567 41.88839,0 6.31367,-23.56296 240.59089,64.46613 0,-37.53041 -43.7035,-11.71032 93.14112,-347.607375 -37.74313,0 0,-29.591035 -156.94434,42.053108 -4.32846,-16.154026 -35.70695,0 L 206.93566,100.0131 68.868055,137.0082 49.289614,63.940466 Z"
       id="path3372"
       inkscape:connector-curvature="0" />
    <path
       style="fill:#ffffff;fill-rule:evenodd;stroke:#000000;stroke-width:1px;stroke-linecap:butt;stroke-linejoin:miter;stroke-opacity:1;fill-opacity:1"
       d="m 82.832509,193.92378 31.915321,119.1096 33.04493,-8.85437 22.80404,-85.10582 z"
       id="path3374"
       inkscape:connector-curvature="0" />
    <path
       style="fill:#ffffff;fill-rule:evenodd;stroke:#000000;stroke-width:1px;stroke-linecap:butt;stroke-linejoin:miter;stroke-opacity:1;fill-opacity:1"
       d="m 103.03556,160.58874 91.57453,-24.53732 -12.79898,47.76645 z"
       id="path3376"
       inkscape:connector-curvature="0" />
    <path
       style="fill:#ffffff;fill-rule:evenodd;stroke:#000000;stroke-width:1px;stroke-linecap:butt;stroke-linejoin:miter;stroke-opacity:1;fill-opacity:1"
       d="m 234.35539,134.32478 -15.02181,56.06216 31.67961,8.48853 z"
       id="path3378"
       inkscape:connector-curvature="0" />
    <path
       style="fill:#ffffff;fill-rule:evenodd;stroke:#000000;stroke-width:1px;stroke-linecap:butt;stroke-linejoin:miter;stroke-opacity:1;fill-opacity:1"
       d="m 264.65997,117.15219 24.74032,92.33214 81.76909,21.90996 40.83397,-152.394448 z"
       id="path3380"
       inkscape:connector-curvature="0" />
    <path
       style="fill:#ffffff;fill-rule:evenodd;stroke:#000000;stroke-width:1px;stroke-linecap:butt;stroke-linejoin:miter;stroke-opacity:1;fill-opacity:1"
       d="m 300.01531,252.51263 0,9.09137 20.61747,-5.52444 z"
       id="path3382"
       inkscape:connector-curvature="0" />
    <path
       style="fill:#ffffff;fill-rule:evenodd;stroke:#000000;stroke-width:1px;stroke-linecap:butt;stroke-linejoin:miter;stroke-opacity:1;fill-opacity:1"
       d="m 263.64981,241.40095 7.03967,26.27238 -80.48584,21.56611 17.08128,-63.74822 z"
       id="path3384"
       inkscape:connector-curvature="0" />
    <path
       style="fill:#ffffff;fill-rule:evenodd;stroke:#000000;stroke-width:1px;stroke-linecap:butt;stroke-linejoin:miter;stroke-opacity:1;fill-opacity:1"
       d="m 181.82746,330.29437 -10.08825,37.64987 133.16593,35.68171 -26.53025,-99.01226 z"
       id="path3388"
       inkscape:connector-curvature="0" />
    <path
       style="fill:#ffffff;fill-rule:evenodd;stroke:#000000;stroke-width:1px;stroke-linecap:butt;stroke-linejoin:miter;stroke-opacity:1;fill-opacity:1"
       d="m 125.00638,344.18397 4.04182,15.0843 4.98083,1.3346 c 0,0 6.1319,-20.72528 5.50857,-20.55826 -0.62333,0.16702 -14.53122,4.13936 -14.53122,4.13936 z"
       id="path3390"
       inkscape:connector-curvature="0" />
    <path
       style="fill:#ffffff;fill-rule:evenodd;stroke:#000000;stroke-width:1px;stroke-linecap:butt;stroke-linejoin:miter;stroke-opacity:1;fill-opacity:1"
       d="m 310.11683,293.92888 22.23065,82.96589 25.52172,-95.24839 z"
       id="path3392"
       inkscape:connector-curvature="0" />
    <path
       style="opacity:0;fill:#000000;fill-opacity:0.89215686;stroke:#000000;stroke-width:2.85714293;stroke-miterlimit:4;stroke-dasharray:none;stroke-opacity:0.39215686"
       d="M 409.41929,45.330392 C 359.4773,57.531614 310.28053,72.80488 260.08336,83.89624 c -3.84559,1.599323 -9.35111,-0.198898 -6.29464,-5.131138 0.83754,-2.698612 -3.33062,0.270115 -1.84153,-3.203125 1.33187,-2.879147 -0.11509,-3.696803 -1.49832,-4.05134 0.75075,-4.584528 -8.03884,-1.407368 -10.66318,-2.2558 -7.81127,1.165436 -18.49553,-1.146157 -24.51207,2.310885 -2.99163,9.495087 -4.43005,20.119145 -8.59429,28.926498 -45.53481,12.52158 -91.09033,25.4127 -136.961488,36.43973 -2.523058,-0.968 -0.555905,-5.55079 -3.479352,-5.45758 -0.0064,-2.37282 1.223602,-5.65961 -1.434153,-5.68639 0.387845,-3.14686 0.792148,-5.35222 -1.637835,-6.91964 -1.736097,-2.56294 -0.435015,-7.40544 -0.62221,-9.08761 -4.601581,2.91396 0.470019,-6.08554 -3.454241,-5.42132 0.387846,-3.14686 0.792149,-5.352217 -1.637834,-6.919643 -1.736097,-2.562934 -0.435016,-7.405435 -0.62221,-9.087611 -4.671817,2.947013 0.577998,-5.710386 -3.13337,-5.605469 -2.256275,-2.725285 -1.083,-8.097727 -1.152345,-10.108817 -4.647874,2.86922 0.535742,-6.254947 -3.59375,-5.650111 -6.76636,-3.394479 -16.43783,-1.205702 -24.190848,-1.579242 -7.993356,-1.66661 -5.512307,5.091817 -3.720754,9.786157 20.681757,80.691516 43.996167,160.723496 63.221312,241.776346 2.934975,7.08258 -8.177097,5.24874 -11.905105,7.67671 -10.635392,2.90844 -21.333935,5.5787 -32.001145,8.36682 0,13.43191 0,26.86384 0,40.29575 20.459176,6.01306 42.000562,9.82915 61.609938,17.93247 4.00777,12.08208 6.81769,24.52248 10.15346,36.79968 13.58249,-0.69393 27.9475,1.48467 41.09375,-1.51228 0.83901,-1.22672 3.09858,-0.7153 1.72991,-3.74442 -1.96126,-4.07655 3.38977,-1.63606 1.42857,-5.71429 -2.06295,-4.08291 3.00212,-1.52363 1.60156,-5.1423 -2.69846,-7.9023 8.7363,-4.18354 12.53907,-3.59654 76.4273,18.30258 151.83763,41.11801 228.16406,59.53963 3.60761,-6.95083 0.3719,-16.53749 1.20205,-24.34519 1.84703,-8.23146 -1.56184,-11.6524 -8.79971,-13.80493 -0.57356,-2.37974 -7.03276,1.56039 -6.20536,-2.35211 -9.52345,-0.0937 -19.8371,-2.93385 -27.94643,-7.68695 -0.0408,-2.81894 0.0446,-6.53461 2.44699,-7.3326 0.0595,-2.1952 -1.43507,-6.01514 1.54017,-5.35434 -0.3148,-2.34117 -1.05423,-4.60684 1.3086,-4.56753 0.0144,-2.37497 -1.24467,-5.69711 1.42579,-5.72265 -0.51847,-3.02376 -1.00663,-6.59478 2.16238,-4.95536 -2.17657,-3.88023 0.0824,-8.95413 2.19866,-11.2779 -0.41836,-2.35266 -1.0403,-5.15192 1.35324,-5.19532 -0.51847,-3.02375 -1.00663,-6.59477 2.16239,-4.95535 -2.17657,-3.88023 0.0824,-8.95413 2.19866,-11.2779 -0.41836,-2.35266 -1.0403,-5.15192 1.35324,-5.19532 -0.51847,-3.02375 -1.00663,-6.59477 2.16238,-4.95535 -2.17657,-3.88023 0.0824,-8.95413 2.19866,-11.2779 -0.41836,-2.35266 -1.0403,-5.15192 1.35324,-5.19532 0.1211,-2.19683 -1.46242,-6.08827 1.55133,-5.4241 -0.3148,-2.34117 -1.05423,-4.60684 1.3086,-4.56753 0.0144,-2.37497 -1.24467,-5.69711 1.42579,-5.72265 -0.51847,-3.02376 -1.00663,-6.59478 2.16238,-4.95536 -2.00108,-3.06834 -0.60262,-10.42667 2.84599,-10.01953 -1.8008,-3.38573 -0.66183,-11.30313 2.8404,-11.45926 -2.13103,-3.88183 0.12096,-8.91173 2.22656,-11.22768 -0.59325,-2.48402 -1.19252,-6.39865 2.11774,-4.24945 -1.42153,-6.98685 1.14923,-15.6824 4.90514,-21.49552 1.74975,0.22021 -1.45407,-5.0801 0.35435,-6.68249 1.17264,-3.71687 3.9046,-4.53366 2.27678,-9.1769 3.12166,0.0525 0.58694,-4.13981 1.71317,-6.16629 4.27067,2.91635 0.12397,-4.16737 2.29075,-5.98492 1.9016,-8.68179 3.66478,-18.98448 7.7846,-26.23606 -0.43798,-2.35116 -1.05572,-5.16093 1.33928,-5.20369 -0.51847,-3.02375 -1.00663,-6.59477 2.16239,-4.95535 -2.17657,-3.88023 0.0824,-8.95413 2.19865,-11.2779 -0.57161,-2.45142 -1.21955,-6.42453 2.12055,-4.23549 -2.16615,-3.93475 -0.0287,-9.11318 2.16517,-11.4788 -0.41836,-2.35265 -1.0403,-5.15191 1.35324,-5.19531 -0.51847,-3.02375 -1.00663,-6.59478 2.16239,-4.95536 -2.17657,-3.88023 0.0824,-8.95413 2.19865,-11.2779 -0.41835,-2.35265 -1.0403,-5.15191 1.35325,-5.19531 -0.51847,-3.02376 -1.00663,-6.59478 2.16238,-4.95536 -2.17657,-3.88023 0.0824,-8.95413 2.19866,-11.2779 -0.41836,-2.35265 -1.0403,-5.15191 1.35324,-5.19531 0.1211,-2.19684 -1.46243,-6.08828 1.55133,-5.42411 -0.3148,-2.34117 -1.05423,-4.60684 1.3086,-4.56752 0.0144,-2.37498 -1.24467,-5.697118 1.42579,-5.722658 -0.51847,-3.023755 -1.00663,-6.594776 2.16238,-4.955358 -2.17657,-3.880234 0.0824,-8.954131 2.19866,-11.277901 -0.34764,-2.166166 -1.31487,-5.983326 1.71317,-4.631697 -2.26503,-6.073043 -12.14376,-2.208682 -17.17631,-3.504033 -6.78346,-2.061977 -22.75405,5.100081 -20.76175,-5.723087 -0.85937,-7.318967 1.74173,-16.382368 -1.78571,-22.820871 l -0.57757,0.108817 z m 3.1557,33.164062 C 399.47725,129.582 385.42787,181.22728 371.53146,232.16912 c -4.07024,1.42014 0.61899,-4.36933 -3.54631,-1.91965 -8.44166,-1.0056 -18.40425,-2.98242 -25.19253,-7.0173 -2.4565,0.59786 -6.4287,1.22665 -4.24945,-2.10378 -5.63144,1.94581 -13.15391,-0.75083 -17.18471,-3.59934 -2.48309,0.59632 -6.40259,1.19654 -4.25223,-2.11495 -7.04476,1.28107 -15.69257,-1.26655 -21.72154,-4.56474 -2.8564,-0.74756 -8.01774,1.36677 -6.03514,-3.66629 -4.05508,1.97386 0.71261,-6.35102 -3.11665,-5.6808 0.38786,-3.14687 0.79216,-5.35222 -1.63783,-6.91965 -1.7361,-2.56293 -0.43501,-7.40543 -0.62221,-9.0876 -4.60157,2.91395 0.47003,-6.08554 -3.45424,-5.42132 -0.14766,-2.14678 1.41483,-5.93498 -1.43415,-5.51619 0.38612,-2.43667 1.06325,-4.68076 -1.42578,-4.44475 -0.0334,-2.37737 1.26441,-5.72607 -1.42579,-5.75335 0.38786,-3.14686 0.79216,-5.35222 -1.63783,-6.91964 -1.7361,-2.56294 -0.43501,-7.40544 -0.62221,-9.08761 -4.60157,2.91396 0.47003,-6.08554 -3.45424,-5.42132 0.38785,-3.14687 0.79215,-5.35222 -1.63783,-6.91964 -1.7361,-2.56294 -0.43502,-7.40544 -0.62222,-9.08762 -4.59068,2.90689 0.44572,-5.82481 -3.32588,-5.48828 -0.65822,-8.33287 11.5209,-7.85706 17.20981,-8.53515 3.11726,1.06073 0.10685,-3.9383 4.38337,-1.69922 4.07823,1.9612 1.63775,-3.38983 5.71429,-1.42857 3.93626,1.38118 2.3132,-3.81231 7.12054,-1.23047 27.43947,-9.07111 57.22607,-15.83732 85.81782,-22.915693 6.62977,-1.2175 14.40757,-4.04248 20.66377,-3.80864 -1.7116,-3.157768 5.30777,-2.927358 6.7327,-3.323103 z M 234.34117,134.35941 c 7.0805,20.803 11.5322,42.80204 17.07868,64.10994 -3.57785,1.97238 -10.537,-0.9771 -13.28683,-3.45146 -1.79355,-0.9271 -7.7245,1.56818 -5.49945,-2.43024 -3.17124,1.7632 -9.73468,0.81868 -10.39061,-2.48605 -3.80781,2.29197 -3.99747,-3.15898 -1.44253,-3.46541 -0.57593,-3.02335 -0.97033,-6.50699 2.15123,-4.8856 -2.17657,-3.88023 0.0824,-8.95413 2.19866,-11.2779 -0.41836,-2.35265 -1.0403,-5.15191 1.35324,-5.19531 -0.51847,-3.02376 -1.00663,-6.59478 2.16239,-4.95536 -2.17658,-3.88023 0.0824,-8.95413 2.19865,-11.2779 -0.60054,-2.62053 -0.9652,-5.2855 1.56809,-5.0558 -0.45947,-3.0265 -0.4195,-7.5717 1.90848,-9.62891 z m -40.48271,1.3365 c 1.33984,5.098 -2.67793,12.38302 -3.30836,18.05686 -3.47094,9.67088 -3.63331,21.53889 -9.92265,29.7361 -2.97709,0.22133 -7.99229,-0.19081 -8.53238,-3.16685 -3.21447,1.06232 -5.00541,0.57539 -3.74441,-2.02009 -3.10616,2.04259 -10.40472,0.52586 -10.04744,-2.83203 -3.60012,1.96404 -9.17494,0.26395 -10.86216,-2.31585 -2.63142,0.96353 -5.0409,0.82637 -3.17802,-2.02846 -3.6579,1.99394 -9.37087,0.41112 -11.1077,-2.25725 -2.366,0.72995 -4.09277,0.803 -4.12946,-1.26395 -2.19732,-0.11933 -6.09701,1.46802 -5.43248,-1.54855 -2.54056,0.497 -5.70631,1.19881 -3.61607,-2.0731 -3.17735,1.70941 -9.97284,1.01022 -10.55246,-2.46652 -2.16853,1.47378 -8.8919,-0.54631 -3.24497,-2.0452 12.74719,-3.69142 26.08531,-8.94215 39.28013,-8.84766 0.63768,-0.435 -1.68136,-3.67599 1.54018,-2.4442 4.43812,2.13808 4.6561,-3.31184 9.36105,-2.51953 2.18806,-1.20707 6.87524,2.70019 4.41406,-1.57645 3.01413,-0.35772 5.82643,0.95926 7.65067,-1.75223 4.15327,-2.01865 11.07998,-2.35214 14.47824,-2.09542 -2.84106,-4.67744 5.62933,0.56262 5.80636,-3.19755 1.51963,-0.90499 3.36717,-1.4955 5.14787,-1.34207 z M 84.196078,193.80975 c 28.400832,7.88528 57.121342,15.31632 85.053012,24.47824 2.93518,6.06861 -2.94032,13.57187 -3.17989,20.02533 -5.71921,22.22523 -11.76673,44.36413 -17.66274,66.54274 -10.95801,2.34609 -21.93907,6.8098 -32.86831,8.13337 -4.29475,-2.27616 -2.73851,-8.27063 -3.64676,-11.35603 -3.5364,1.16219 0.93502,-6.4761 -2.80134,-5.84541 0.38785,-3.14687 0.79215,-5.35223 -1.63783,-6.91966 -1.7361,-2.56293 -0.43502,-7.40543 -0.62221,-9.0876 -4.60158,2.91396 0.47002,-6.08554 -3.45424,-5.42131 -0.14766,-2.14679 1.41482,-5.93499 -1.43416,-5.51619 0.38612,-2.43668 1.06325,-4.68076 -1.42578,-4.44476 -0.0334,-2.37737 1.26442,-5.72607 -1.425779,-5.75334 0.387846,-3.14687 0.792149,-5.35223 -1.637834,-6.91966 -1.736097,-2.56292 -0.435016,-7.40542 -0.62221,-9.0876 -4.601582,2.91396 0.470018,-6.08554 -3.454242,-5.42131 0.387846,-3.14687 0.792149,-5.35223 -1.637834,-6.91966 -1.736097,-2.56293 -0.435016,-7.40543 -0.62221,-9.0876 -4.601581,2.91396 0.470019,-6.08554 -3.454241,-5.42131 0.387845,-3.14687 0.792148,-5.35223 -1.637835,-6.91966 -1.859307,-2.50894 -0.239567,-7.60843 -0.705915,-9.08203 -2.472479,1.64153 -3.993742,-6.43375 -1.121652,-5.97655 z m 123.052452,31.89731 c 18.85583,4.45154 38.29984,8.5806 56.22489,15.60827 3.49967,8.55946 6.8579,18.26987 6.44531,27.44977 -26.49977,6.85722 -53.03596,15.02783 -79.67354,20.49107 -2.41907,-4.16641 4.29457,-4.52634 1.70758,-8.69977 -1.13794,-3.32134 3.58492,-0.93097 1.55972,-4.91351 -1.66336,-3.48036 1.15241,-2.6088 2.29631,-2.46373 -2.17657,-3.88023 0.0824,-8.95413 2.19866,-11.2779 -0.41836,-2.35266 -1.0403,-5.15191 1.35324,-5.19531 -0.51847,-3.02376 -1.00663,-6.59478 2.16239,-4.95536 -2.17657,-3.88023 0.0824,-8.95413 2.19866,-11.2779 -1.03182,-3.20376 -0.12845,-4.59657 1.45927,-6.41742 1.00234,-2.0376 -0.77615,-7.91475 2.06751,-8.34821 z m 99.76563,27.3019 c 3.82846,1.018 10.61324,0.54824 12.7567,3.58817 -6.42321,1.78956 -13.79754,6.0908 -20.35994,4.88003 -1.36203,-7.65014 -1.88616,-11.38963 7.60324,-8.4682 z m 50.94587,28.06641 c -6.08214,28.81576 -15.09968,58.26112 -22.67857,87.20425 -0.7567,1.44775 -2.69086,13.12464 -4.10367,6.89643 -2.33356,-2.15878 2.78784,-8.87292 -1.9259,-6.12635 -0.76003,-2.43688 1.42681,-5.86068 -1.54297,-6.74944 -1.9633,-2.68417 -0.76703,-7.79609 -0.87892,-9.66239 -4.60157,2.91396 0.47003,-6.08554 -3.45424,-5.42131 0.38786,-3.14687 0.79216,-5.35223 -1.63783,-6.91966 -1.7361,-2.56293 -0.43501,-7.40543 -0.62221,-9.0876 -4.67182,2.94702 0.578,-5.71038 -3.13337,-5.60547 -2.25628,-2.72528 -1.083,-8.09773 -1.15235,-10.10881 -4.60157,2.91395 0.47003,-6.08555 -3.45424,-5.42132 0.56139,-3.37111 0.56854,-5.45778 -1.72433,-7.59765 -3.3703,-4.81612 -1.82241,-13.4086 5.22602,-9.45035 -2.0422,-4.48127 5.7589,0.50389 6.09652,-3.00223 3.14658,-2.11827 9.01319,-1.14352 11.35046,-1.23047 -2.89181,-4.5861 6.09234,0.47922 5.42689,-3.44308 5.8553,1.96075 8.98321,-3.57507 14.98884,-3.84207 1.05509,-0.20588 2.13393,-0.51882 3.21987,-0.43248 z m -79.97488,22.61998 c 9.25215,26.7509 15.03737,55.11081 23.00544,82.45924 0.49696,5.57591 4.97774,11.98017 3.83886,17.2171 -3.90045,2.27834 -3.31548,-3.01424 -6.875,-1.34487 -3.50866,1.68837 -2.5759,-1.19247 -2.47489,-2.28795 -5.56786,1.86496 -13.00327,-0.82597 -16.97824,-3.6384 -2.4505,0.57472 -6.42845,1.22359 -4.23827,-2.11774 -3.93476,2.16614 -9.11319,0.0287 -11.4788,-2.16517 -2.4596,0.5777 -6.41688,1.21114 -4.24108,-2.11774 -4.88635,1.72817 -12.60205,0.2157 -15.8231,-3.44867 0.35986,-1.73923 -5.19784,0.9738 -6.74944,-0.68918 -5.44947,-0.86851 -12.07873,-2.32381 -16.04074,-5.17857 -2.45026,0.58092 -6.42854,1.22485 -4.23827,-2.11495 -3.93476,2.16614 -9.11319,0.0287 -11.4788,-2.16518 -2.47529,0.58836 -6.4056,1.19828 -4.24665,-2.11774 -9.11928,1.00883 -19.31418,-2.2529 -27.5307,-6.23047 -1.929,-2.57779 0.23532,-4.52249 1.26675,-5.86774 -0.54156,-2.45496 -1.19839,-6.40537 2.14007,-4.22155 -2.16614,-3.93475 -0.0287,-9.11318 2.16517,-11.4788 -1.0801,-3.26001 -0.0513,-4.58881 1.46484,-6.51227 -1.00471,-6.82518 4.36197,-13.18468 11.33929,-11.31697 -0.62426,-3.83866 6.09041,0.74387 6.80246,-2.80413 4.34995,-2.3126 11.60805,-2.74908 15.29018,-2.46093 -2.72347,-4.63548 5.57952,0.43238 6.13839,-3.25335 4.34995,-2.3126 11.60805,-2.74909 15.29018,-2.46093 -2.72347,-4.63549 5.57952,0.43237 6.13839,-3.25336 4.34996,-2.3126 11.60806,-2.74908 15.29018,-2.46093 -2.72347,-4.63548 5.57952,0.43237 6.13839,-3.25335 4.48236,-2.16078 11.26969,-2.96973 15.33483,-2.37723 -0.74767,-1.01166 -1.07907,-2.6041 0.75056,-2.33817 z M 138.61851,339.4738 c 4.33601,1.33527 -1.44138,8.53159 -1.18303,11.62947 0.1533,4.82853 -5.83826,14.54552 -9.64844,6.83036 -0.55111,-2.58807 1.88542,-5.75496 -1.56529,-4.90793 0.0782,-2.55091 1.121,-5.56893 -1.38672,-5.96818 -1.09843,-5.67157 7.38274,-2.3013 7.62277,-5.99052 2.18649,0.19525 4.62199,1.17592 4.56194,-1.37277 0.49289,-0.25396 1.06214,-0.22768 1.59877,-0.22043 z"
       id="path3396"
       inkscape:connector-curvature="0" />
    <path
       style="opacity:0;fill:#000000;fill-opacity:0.89215686;stroke:#000000;stroke-width:2.85714293;stroke-miterlimit:4;stroke-dasharray:none;stroke-opacity:0.39215686"
       d="M 409.41929,45.330392 C 359.4773,57.531614 310.28053,72.80488 260.08336,83.89624 c -3.84559,1.599323 -9.35111,-0.198898 -6.29464,-5.131138 0.83754,-2.698612 -3.33062,0.270115 -1.84153,-3.203125 1.33187,-2.879147 -0.11509,-3.696803 -1.49832,-4.05134 0.75075,-4.584528 -8.03884,-1.407368 -10.66318,-2.2558 -7.81127,1.165436 -18.49553,-1.146157 -24.51207,2.310885 -2.99163,9.495087 -4.43005,20.119145 -8.59429,28.926498 -45.53481,12.52158 -91.09033,25.4127 -136.961488,36.43973 -2.523058,-0.968 -0.555905,-5.55079 -3.479352,-5.45758 -0.0064,-2.37282 1.223602,-5.65961 -1.434153,-5.68639 0.387845,-3.14686 0.792148,-5.35222 -1.637835,-6.91964 -1.736097,-2.56294 -0.435015,-7.40544 -0.62221,-9.08761 -4.601581,2.91396 0.470019,-6.08554 -3.454241,-5.42132 0.387846,-3.14686 0.792149,-5.352217 -1.637834,-6.919643 -1.736097,-2.562934 -0.435016,-7.405435 -0.62221,-9.087611 -4.671817,2.947013 0.577998,-5.710386 -3.13337,-5.605469 -2.256275,-2.725285 -1.083,-8.097727 -1.152345,-10.108817 -4.647874,2.86922 0.535742,-6.254947 -3.59375,-5.650111 -6.76636,-3.394479 -16.43783,-1.205702 -24.190848,-1.579242 -7.993356,-1.66661 -5.512307,5.091817 -3.720754,9.786157 20.681757,80.691516 43.996167,160.723496 63.221312,241.776346 2.934975,7.08258 -8.177097,5.24874 -11.905105,7.67671 -10.635392,2.90844 -21.333935,5.5787 -32.001145,8.36682 0,13.43191 0,26.86384 0,40.29575 20.459176,6.01306 42.000562,9.82915 61.609938,17.93247 4.00777,12.08208 6.81769,24.52248 10.15346,36.79968 13.58249,-0.69393 27.9475,1.48467 41.09375,-1.51228 0.83901,-1.22672 3.09858,-0.7153 1.72991,-3.74442 -1.96126,-4.07655 3.38977,-1.63606 1.42857,-5.71429 -2.06295,-4.08291 3.00212,-1.52363 1.60156,-5.1423 -2.69846,-7.9023 8.7363,-4.18354 12.53907,-3.59654 76.4273,18.30258 151.83763,41.11801 228.16406,59.53963 3.60761,-6.95083 0.3719,-16.53749 1.20205,-24.34519 1.84703,-8.23146 -1.56184,-11.6524 -8.79971,-13.80493 -0.57356,-2.37974 -7.03276,1.56039 -6.20536,-2.35211 -9.52345,-0.0937 -19.8371,-2.93385 -27.94643,-7.68695 -0.0408,-2.81894 0.0446,-6.53461 2.44699,-7.3326 0.0595,-2.1952 -1.43507,-6.01514 1.54017,-5.35434 -0.3148,-2.34117 -1.05423,-4.60684 1.3086,-4.56753 0.0144,-2.37497 -1.24467,-5.69711 1.42579,-5.72265 -0.51847,-3.02376 -1.00663,-6.59478 2.16238,-4.95536 -2.17657,-3.88023 0.0824,-8.95413 2.19866,-11.2779 -0.41836,-2.35266 -1.0403,-5.15192 1.35324,-5.19532 -0.51847,-3.02375 -1.00663,-6.59477 2.16239,-4.95535 -2.17657,-3.88023 0.0824,-8.95413 2.19866,-11.2779 -0.41836,-2.35266 -1.0403,-5.15192 1.35324,-5.19532 -0.51847,-3.02375 -1.00663,-6.59477 2.16238,-4.95535 -2.17657,-3.88023 0.0824,-8.95413 2.19866,-11.2779 -0.41836,-2.35266 -1.0403,-5.15192 1.35324,-5.19532 0.1211,-2.19683 -1.46242,-6.08827 1.55133,-5.4241 -0.3148,-2.34117 -1.05423,-4.60684 1.3086,-4.56753 0.0144,-2.37497 -1.24467,-5.69711 1.42579,-5.72265 -0.51847,-3.02376 -1.00663,-6.59478 2.16238,-4.95536 -2.00108,-3.06834 -0.60262,-10.42667 2.84599,-10.01953 -1.8008,-3.38573 -0.66183,-11.30313 2.8404,-11.45926 -2.13103,-3.88183 0.12096,-8.91173 2.22656,-11.22768 -0.59325,-2.48402 -1.19252,-6.39865 2.11774,-4.24945 -1.42153,-6.98685 1.14923,-15.6824 4.90514,-21.49552 1.74975,0.22021 -1.45407,-5.0801 0.35435,-6.68249 1.17264,-3.71687 3.9046,-4.53366 2.27678,-9.1769 3.12166,0.0525 0.58694,-4.13981 1.71317,-6.16629 4.27067,2.91635 0.12397,-4.16737 2.29075,-5.98492 1.9016,-8.68179 3.66478,-18.98448 7.7846,-26.23606 -0.43798,-2.35116 -1.05572,-5.16093 1.33928,-5.20369 -0.51847,-3.02375 -1.00663,-6.59477 2.16239,-4.95535 -2.17657,-3.88023 0.0824,-8.95413 2.19865,-11.2779 -0.57161,-2.45142 -1.21955,-6.42453 2.12055,-4.23549 -2.16615,-3.93475 -0.0287,-9.11318 2.16517,-11.4788 -0.41836,-2.35265 -1.0403,-5.15191 1.35324,-5.19531 -0.51847,-3.02375 -1.00663,-6.59478 2.16239,-4.95536 -2.17657,-3.88023 0.0824,-8.95413 2.19865,-11.2779 -0.41835,-2.35265 -1.0403,-5.15191 1.35325,-5.19531 -0.51847,-3.02376 -1.00663,-6.59478 2.16238,-4.95536 -2.17657,-3.88023 0.0824,-8.95413 2.19866,-11.2779 -0.41836,-2.35265 -1.0403,-5.15191 1.35324,-5.19531 0.1211,-2.19684 -1.46243,-6.08828 1.55133,-5.42411 -0.3148,-2.34117 -1.05423,-4.60684 1.3086,-4.56752 0.0144,-2.37498 -1.24467,-5.697118 1.42579,-5.722658 -0.51847,-3.023755 -1.00663,-6.594776 2.16238,-4.955358 -2.17657,-3.880234 0.0824,-8.954131 2.19866,-11.277901 -0.34764,-2.166166 -1.31487,-5.983326 1.71317,-4.631697 -2.26503,-6.073043 -12.14376,-2.208682 -17.17631,-3.504033 -6.78346,-2.061977 -22.75405,5.100081 -20.76175,-5.723087 -0.85937,-7.318967 1.74173,-16.382368 -1.78571,-22.820871 l -0.57757,0.108817 z m 3.1557,33.164062 c -13.07962,51.103816 -27.1879,102.717746 -41.01842,153.705366 -5.61687,-1.47592 -13.36914,-2.04343 -17.35491,-6.21095 0.328,-1.16864 -5.17489,1.48612 -6.69364,-0.11718 -3.79633,0.002 -3.45976,-4.41349 -7.65067,-2.25167 -4.15395,1.44801 0.9438,-4.39022 -3.08593,-1.85269 -5.35579,0.25942 -11.7944,-1.45317 -15.41296,-4.23828 -2.45869,0.58078 -6.4208,1.21517 -4.24386,-2.11495 -5.63144,1.94582 -13.15391,-0.75083 -17.18471,-3.59934 -2.36079,0.42753 -5.14822,1.03657 -5.20367,-1.35044 -3.65982,0.8138 -6.913,0.90308 -5.26507,-3.28405 -4.28683,2.22979 0.77355,-6.44548 -3.17243,-5.5078 0.16981,-3.14508 0.85063,-5.5208 -1.69365,-7.08985 -1.7361,-2.56293 -0.43501,-7.40543 -0.62221,-9.0876 -4.60157,2.91395 0.47003,-6.08554 -3.45424,-5.42132 -0.14766,-2.14678 1.41483,-5.93498 -1.43415,-5.51619 0.38612,-2.43667 1.06325,-4.68076 -1.42578,-4.44475 -0.0334,-2.37737 1.26441,-5.72607 -1.42579,-5.75335 0.38786,-3.14686 0.79216,-5.35222 -1.63783,-6.91964 -1.7361,-2.56294 -0.43501,-7.40544 -0.62221,-9.08761 -4.60157,2.91396 0.47003,-6.08554 -3.45424,-5.42132 0.38785,-3.14687 0.79215,-5.35222 -1.63783,-6.91964 -1.7361,-2.56294 -0.43502,-7.40544 -0.62222,-9.08762 -4.59068,2.90689 0.44572,-5.82481 -3.32588,-5.48828 -0.65822,-8.33287 11.5209,-7.85706 17.20981,-8.53515 3.11726,1.06073 0.10685,-3.9383 4.38337,-1.69922 4.07823,1.9612 1.63775,-3.38983 5.71429,-1.42857 3.93664,1.3828 2.31139,-3.81265 7.11774,-1.23047 19.32765,-6.97788 41.2518,-11.755353 61.85527,-16.56226 3.44773,-1.044417 9.07992,-1.658223 11.69663,-1.732943 -2.57574,-4.583264 5.45063,0.208876 6.57087,-3.261718 8.28286,-2.68347 18.13826,-5.820343 26.36162,-5.170202 -1.71079,-3.154258 5.31084,-2.925181 6.7327,-3.320313 z M 234.34117,134.35941 c 7.0805,20.803 11.5322,42.80204 17.07868,64.10994 -3.57785,1.97238 -10.537,-0.9771 -13.28683,-3.45146 -1.79355,-0.9271 -7.7245,1.56818 -5.49945,-2.43024 -3.17124,1.7632 -9.73468,0.81868 -10.39061,-2.48605 -3.80781,2.29197 -3.99747,-3.15898 -1.44253,-3.46541 -0.57593,-3.02335 -0.97033,-6.50699 2.15123,-4.8856 -2.17657,-3.88023 0.0824,-8.95413 2.19866,-11.2779 -0.41836,-2.35265 -1.0403,-5.15191 1.35324,-5.19531 -0.51847,-3.02376 -1.00663,-6.59478 2.16239,-4.95536 -2.17658,-3.88023 0.0824,-8.95413 2.19865,-11.2779 -0.60054,-2.62053 -0.9652,-5.2855 1.56809,-5.0558 -0.45947,-3.0265 -0.4195,-7.5717 1.90848,-9.62891 z m -40.48271,1.3365 c 1.33984,5.098 -2.67793,12.38302 -3.30836,18.05686 -3.47094,9.67088 -3.63331,21.53889 -9.92265,29.7361 -2.97709,0.22133 -7.99229,-0.19081 -8.53238,-3.16685 -3.21447,1.06232 -5.00541,0.57539 -3.74441,-2.02009 -3.10616,2.04259 -10.40472,0.52586 -10.04744,-2.83203 -3.60012,1.96404 -9.17494,0.26395 -10.86216,-2.31585 -2.63142,0.96353 -5.0409,0.82637 -3.17802,-2.02846 -3.6579,1.99394 -9.37087,0.41112 -11.1077,-2.25725 -2.366,0.72995 -4.09277,0.803 -4.12946,-1.26395 -2.19732,-0.11933 -6.09701,1.46802 -5.43248,-1.54855 -2.54056,0.497 -5.70631,1.19881 -3.61607,-2.0731 -3.17735,1.70941 -9.97284,1.01022 -10.55246,-2.46652 -2.16853,1.47378 -8.8919,-0.54631 -3.24497,-2.0452 12.74719,-3.69142 26.08531,-8.94215 39.28013,-8.84766 0.63768,-0.435 -1.68136,-3.67599 1.54018,-2.4442 4.43812,2.13808 4.6561,-3.31184 9.36105,-2.51953 2.18806,-1.20707 6.87524,2.70019 4.41406,-1.57645 3.01413,-0.35772 5.82643,0.95926 7.65067,-1.75223 4.15327,-2.01865 11.07998,-2.35214 14.47824,-2.09542 -2.84106,-4.67744 5.62933,0.56262 5.80636,-3.19755 1.51963,-0.90499 3.36717,-1.4955 5.14787,-1.34207 z M 84.196078,193.80975 c 28.400832,7.88528 57.121342,15.31632 85.053012,24.47824 2.93518,6.06861 -2.94032,13.57187 -3.17989,20.02533 -5.71921,22.22523 -11.76673,44.36413 -17.66274,66.54274 -10.95801,2.34609 -21.93907,6.8098 -32.86831,8.13337 -4.29475,-2.27616 -2.73851,-8.27063 -3.64676,-11.35603 -3.5364,1.16219 0.93502,-6.4761 -2.80134,-5.84541 0.38785,-3.14687 0.79215,-5.35223 -1.63783,-6.91966 -1.7361,-2.56293 -0.43502,-7.40543 -0.62221,-9.0876 -4.60158,2.91396 0.47002,-6.08554 -3.45424,-5.42131 -0.14766,-2.14679 1.41482,-5.93499 -1.43416,-5.51619 0.38612,-2.43668 1.06325,-4.68076 -1.42578,-4.44476 -0.0334,-2.37737 1.26442,-5.72607 -1.425779,-5.75334 0.387846,-3.14687 0.792149,-5.35223 -1.637834,-6.91966 -1.736097,-2.56292 -0.435016,-7.40542 -0.62221,-9.0876 -4.601582,2.91396 0.470018,-6.08554 -3.454242,-5.42131 0.387846,-3.14687 0.792149,-5.35223 -1.637834,-6.91966 -1.736097,-2.56293 -0.435016,-7.40543 -0.62221,-9.0876 -4.601581,2.91396 0.470019,-6.08554 -3.454241,-5.42131 0.387845,-3.14687 0.792148,-5.35223 -1.637835,-6.91966 -1.859307,-2.50894 -0.239567,-7.60843 -0.705915,-9.08203 -2.472479,1.64153 -3.993742,-6.43375 -1.121652,-5.97655 z m 123.052452,31.89731 c 18.85583,4.45154 38.29984,8.5806 56.22489,15.60827 3.49967,8.55946 6.8579,18.26987 6.44531,27.44977 -26.49977,6.85722 -53.03596,15.02783 -79.67354,20.49107 -2.41907,-4.16641 4.29457,-4.52634 1.70758,-8.69977 -1.13794,-3.32134 3.58492,-0.93097 1.55972,-4.91351 -1.66336,-3.48036 1.15241,-2.6088 2.29631,-2.46373 -2.17657,-3.88023 0.0824,-8.95413 2.19866,-11.2779 -0.41836,-2.35266 -1.0403,-5.15191 1.35324,-5.19531 -0.51847,-3.02376 -1.00663,-6.59478 2.16239,-4.95536 -2.17657,-3.88023 0.0824,-8.95413 2.19866,-11.2779 -1.03182,-3.20376 -0.12845,-4.59657 1.45927,-6.41742 1.00234,-2.0376 -0.77615,-7.91475 2.06751,-8.34821 z m 99.76563,27.3019 c 3.82846,1.018 10.61324,0.54824 12.7567,3.58817 -6.42321,1.78956 -13.79754,6.0908 -20.35994,4.88003 -1.36203,-7.65014 -1.88616,-11.38963 7.60324,-8.4682 z m 50.94587,28.06641 c -6.08214,28.81576 -15.09968,58.26112 -22.67857,87.20425 -0.7567,1.44775 -2.69086,13.12464 -4.10367,6.89643 -2.33356,-2.15878 2.78784,-8.87292 -1.9259,-6.12635 -0.76003,-2.43688 1.42681,-5.86068 -1.54297,-6.74944 -1.9633,-2.68417 -0.76703,-7.79609 -0.87892,-9.66239 -4.60157,2.91396 0.47003,-6.08554 -3.45424,-5.42131 0.38786,-3.14687 0.79216,-5.35223 -1.63783,-6.91966 -1.7361,-2.56293 -0.43501,-7.40543 -0.62221,-9.0876 -4.67182,2.94702 0.578,-5.71038 -3.13337,-5.60547 -2.25628,-2.72528 -1.083,-8.09773 -1.15235,-10.10881 -4.60157,2.91395 0.47003,-6.08555 -3.45424,-5.42132 0.56139,-3.37111 0.56854,-5.45778 -1.72433,-7.59765 -3.3703,-4.81612 -1.82241,-13.4086 5.22602,-9.45035 -2.2289,-4.501 6.41532,0.63197 5.56081,-3.33425 2.36887,-0.22229 5.86229,1.28497 5.88449,-1.48439 2.37564,-0.0107 5.68714,1.24069 5.71428,-1.42857 2.37564,-0.0107 5.68714,1.24068 5.71429,-1.42857 5.8553,1.96075 8.98321,-3.57507 14.98884,-3.84207 1.05509,-0.20588 2.13393,-0.51882 3.21987,-0.43248 z m -79.97488,22.61998 c 9.25215,26.7509 15.03737,55.11081 23.00544,82.45924 0.49696,5.57591 4.97774,11.98017 3.83886,17.2171 -3.90045,2.27834 -3.31548,-3.01424 -6.875,-1.34487 -3.50866,1.68837 -2.5759,-1.19247 -2.47489,-2.28795 -5.56786,1.86496 -13.00327,-0.82597 -16.97824,-3.6384 -2.4505,0.57472 -6.42845,1.22359 -4.23827,-2.11774 -3.93476,2.16614 -9.11319,0.0287 -11.4788,-2.16517 -2.4596,0.5777 -6.41688,1.21114 -4.24108,-2.11774 -4.88635,1.72817 -12.60205,0.2157 -15.8231,-3.44867 0.35986,-1.73923 -5.19784,0.9738 -6.74944,-0.68918 -5.44947,-0.86851 -12.07873,-2.32381 -16.04074,-5.17857 -2.45026,0.58092 -6.42854,1.22485 -4.23827,-2.11495 -3.93476,2.16614 -9.11319,0.0287 -11.4788,-2.16518 -2.47529,0.58836 -6.4056,1.19828 -4.24665,-2.11774 -9.11928,1.00883 -19.31418,-2.2529 -27.5307,-6.23047 -1.929,-2.57779 0.23532,-4.52249 1.26675,-5.86774 -0.54156,-2.45496 -1.19839,-6.40537 2.14007,-4.22155 -2.16614,-3.93475 -0.0287,-9.11318 2.16517,-11.4788 -1.0801,-3.26001 -0.0513,-4.58881 1.46484,-6.51227 -1.00471,-6.82518 4.36197,-13.18468 11.33929,-11.31697 -0.62426,-3.83866 6.09041,0.74387 6.80246,-2.80413 4.34995,-2.3126 11.60805,-2.74908 15.29018,-2.46093 -2.72347,-4.63548 5.57952,0.43238 6.13839,-3.25335 4.34995,-2.3126 11.60805,-2.74909 15.29018,-2.46093 -2.72347,-4.63549 5.57952,0.43237 6.13839,-3.25336 4.34996,-2.3126 11.60806,-2.74908 15.29018,-2.46093 -2.72347,-4.63548 5.57952,0.43237 6.13839,-3.25335 4.48236,-2.16078 11.26969,-2.96973 15.33483,-2.37723 -0.74767,-1.01166 -1.07907,-2.6041 0.75056,-2.33817 z M 138.61851,339.4738 c 4.33601,1.33527 -1.44138,8.53159 -1.18303,11.62947 0.1533,4.82853 -5.83826,14.54552 -9.64844,6.83036 -0.55111,-2.58807 1.88542,-5.75496 -1.56529,-4.90793 0.0782,-2.55091 1.121,-5.56893 -1.38672,-5.96818 -1.09843,-5.67157 7.38274,-2.3013 7.62277,-5.99052 2.18649,0.19525 4.62199,1.17592 4.56194,-1.37277 0.49289,-0.25396 1.06214,-0.22768 1.59877,-0.22043 z"
       id="path3398"
       inkscape:connector-curvature="0" />
    <path
       style="opacity:0;fill:#000000;fill-opacity:0.89215686;stroke:#000000;stroke-width:1.42857146;stroke-miterlimit:4;stroke-dasharray:none;stroke-opacity:0.39215686"
       d="m 410.53226,44.586234 c -51.91597,13.447332 -103.57385,27.900811 -155.54968,41.104911 -1.876,-5.289646 -3.09742,-10.80366 -4.601,-16.212332 -11.51305,0.354645 -23.25312,-0.777044 -34.63309,0.78683 -3.19379,9.966738 -5.69271,20.147266 -8.52678,30.221817 -46.19101,12.2436 -92.25282,25.01172 -138.579803,36.72015 C 61.811876,112.96189 55.376585,88.603027 48.894418,64.261178 38.827194,64.835945 28.079684,64.437194 18.400556,65.770665 40.325945,150.54013 63.608748,234.99833 85.886605,319.64762 c -4.810168,3.28213 -11.327699,3.64491 -16.829995,5.5857 -9.776535,2.63451 -19.561848,5.23654 -29.334904,7.88389 0.0012,13.43005 0.0017,26.86012 0.0014,40.29017 20.546522,5.6695 41.447994,10.61024 61.724334,16.92663 4.2181,12.39884 6.63433,25.5901 10.99051,37.79436 13.06342,0.99208 26.2977,0.86396 39.37918,0.18415 3.10073,-1.11331 2.21129,-5.90934 3.64676,-8.39426 1.70729,-4.79871 1.93418,-10.63163 4.96792,-14.70284 79.51002,20.78143 158.72689,42.77106 238.24497,63.4654 1.93627,-3.22226 0.5241,-7.95413 1.03481,-11.67404 0.0199,-8.1408 0.006,-16.28167 0.0101,-24.4225 -14.16575,-4.01094 -29.11077,-7.24965 -42.77204,-11.86942 18.93597,-74.77453 39.37479,-149.16523 59.20475,-223.70805 11.00242,-41.0808 22.03688,-82.15315 33.00787,-123.242283 -12.43257,0 -24.86515,0 -37.29772,0 -0.39333,-9.712187 0.82925,-19.747443 -0.78684,-29.274554 l -0.0572,-0.01116 -0.48827,0.107422 z m 1.63782,34.370815 C 399.10694,129.8626 385.24473,180.68226 371.6553,231.37613 c -7.07002,-0.55946 -14.07849,-3.51524 -21.10813,-4.99614 -20.47972,-5.46426 -40.99794,-10.80148 -61.39745,-16.55519 -8.44317,-30.90501 -17.08636,-62.10402 -24.79353,-92.99666 49.1953,-12.96247 98.46777,-25.659149 147.82506,-37.985488 l -0.0112,0.114397 z M 234.62266,133.07396 c 5.42406,22.06141 11.49245,44.11683 16.84849,66.11607 -8.92399,-1.4381 -17.98662,-4.70598 -26.93007,-6.95461 -2.27032,-0.73865 -6.5057,-0.7234 -4.68078,-4.28025 4.36482,-18.41209 9.1642,-36.78878 14.70097,-54.86586 l 0.0433,-0.0223 0.0181,0.007 z m -40.11859,3.09291 c -3.39388,16.04684 -7.80193,32.08491 -12.59347,47.70089 -26.82294,-7.00935 -53.35374,-15.2833 -79.9135,-23.15429 14.62741,-4.69912 30.29974,-8.33836 45.36128,-12.49214 15.70164,-4.05773 31.34909,-8.40312 47.14569,-12.05446 z m -111.363,57.82924 c 29.27421,7.77712 58.51394,15.903 87.46234,24.7433 -6.83598,28.64592 -14.50765,57.1265 -22.673,85.4269 -8.19961,3.45542 -17.57699,4.893 -26.22793,7.54625 -2.35155,0.3757 -5.12585,1.75891 -7.35466,1.26235 -10.92225,-39.55217 -21.4735,-79.22323 -31.492743,-119.01088 l 0.08231,-0.001 0.203683,0.0335 z m 124.13923,31.46066 c 18.97197,4.79112 37.94066,9.89904 56.57645,15.78962 2.76373,8.74362 5.17872,17.66937 6.96708,26.65458 -26.73985,7.48036 -53.60001,14.93901 -80.52456,21.50949 -0.52064,-3.93784 2.0137,-8.24391 2.59931,-12.27101 4.78246,-17.24364 8.94121,-34.54162 14.38172,-51.68268 z m 93.61328,26.87221 c 6.42866,0.92395 13.66033,1.70762 19.46568,3.8058 -6.53036,2.92153 -13.80266,3.97405 -20.63755,6.10073 0.46475,-3.14076 -0.95205,-7.26117 0.89285,-9.91211 l 0.27902,0.006 z m 57.22238,29.22293 c -8.08967,31.87917 -16.61195,63.76924 -25.47154,95.37807 -6.65556,-19.33431 -11.14571,-39.44203 -16.64596,-59.16066 -1.83202,-7.7756 -4.52169,-15.56535 -5.7257,-23.36724 8.24009,-3.99767 17.72896,-5.15047 26.50248,-7.82516 7.09447,-1.72126 14.16111,-3.75699 21.34072,-5.02501 z m -79.93164,22.93248 c 2.33558,1.13269 1.47077,5.57899 2.78629,7.76117 8.06921,30.62247 16.54616,61.14225 24.32447,91.83845 -43.52839,-11.53675 -87.1517,-22.79051 -130.38643,-35.39203 -3.67578,-0.12713 -3.74717,-2.6878 -2.38421,-5.4841 2.98576,-11.0634 5.68077,-22.33725 9.30246,-33.14732 32.01441,-8.87683 64.12833,-17.56708 96.35742,-25.57617 z m -138.58399,35.01535 c -0.34569,6.75283 -2.83029,13.61946 -5.03767,20.06836 -2.08608,3.02408 -7.00769,-0.17171 -6.81919,-3.40123 -0.84963,-3.95236 -2.89634,-8.38477 -2.60184,-12.24191 4.76781,-1.61516 9.58155,-3.20625 14.4587,-4.42522 z"
       id="path3400"
       inkscape:connector-curvature="0" />
    <path
       style="opacity:0;fill:#000000;fill-opacity:0.89215686;stroke:#000000;stroke-width:1.42857146;stroke-miterlimit:4;stroke-dasharray:none;stroke-opacity:0.39215686"
       d="m 411.02751,44.508109 c -52.00748,13.458895 -103.78128,27.953284 -155.77428,41.376954 -2.34102,-4.936854 -3.15882,-10.49878 -4.8577,-15.691965 -11.63504,0 -23.27009,0 -34.90513,0 -2.83739,10.026348 -4.97381,20.448819 -8.58259,30.143692 -45.90023,12.83757 -91.96806,25.13132 -138.168247,36.84292 C 61.392312,113.37027 55.732431,88.46719 48.52472,64.562518 38.453185,64.519159 28.2847,64.85337 18.293135,65.961793 40.666788,150.88403 63.902141,235.5816 86.009373,320.57256 c -15.366413,4.39762 -30.825361,8.48128 -46.287667,12.53209 0.338614,13.49011 -0.726926,27.12814 0.700335,40.53013 20.342674,5.27607 40.883609,10.52536 61.015619,16.61133 4.13016,12.40963 7.06831,25.20387 10.58315,37.80413 13.73512,0 27.47024,0 41.20536,0 2.49291,-7.49728 3.16612,-15.86001 6.90151,-22.79716 38.62625,9.56696 77.08088,20.38393 115.60871,30.55162 41.07587,10.90811 82.08704,22.31969 123.21662,32.86496 1.57377,-11.27545 0.38679,-22.94695 0.76337,-34.36942 -0.68847,-3.81618 -7.79552,-2.69522 -11.04588,-4.5408 -10.54836,-3.04245 -21.98617,-5.32985 -31.92871,-9.06411 29.68628,-113.5069 59.96437,-226.86097 90.4466,-340.15705 -0.2443,-1.913388 3.69449,-6.535131 -0.11456,-6.517057 -11.72491,-0.517355 -23.47471,-0.137372 -35.20927,-0.256696 -0.24938,-9.73833 0.57611,-19.660733 -0.67243,-29.285715 l -0.16462,0.0293 z m 1.34487,34.377791 c -13.27699,50.49172 -26.51967,101.00798 -40.4004,151.33091 -1.67997,3.19086 -5.92613,-0.4148 -8.50327,-0.31428 -24.82675,-6.61449 -49.82463,-12.99196 -74.42502,-20.20608 -8.56833,-30.86421 -16.87023,-61.81406 -24.78516,-92.85017 49.32616,-13.0718 98.73214,-25.86666 148.20313,-38.378907 l -0.0893,0.418527 z m -177.96457,54.60798 c 3.93601,11.86828 6.39366,24.48144 9.76599,36.63215 2.34038,9.69213 5.24511,19.39953 7.30293,29.07098 -7.16388,-0.79207 -14.46359,-3.694 -21.6375,-5.4026 -3.44248,-1.18033 -7.57746,-1.7594 -10.63231,-3.36135 4.57647,-19.06257 9.26657,-38.22159 15.0558,-56.90988 l 0.0725,-0.0307 0.0726,0.001 z m -39.21178,2.1038 c -4.34941,16.30588 -8.10763,32.88504 -13.67466,48.79464 -26.4555,-7.79191 -52.98202,-15.46277 -79.29966,-23.65653 1.36245,-1.24553 5.73833,-1.62185 8.03416,-2.55823 28.29139,-7.6766 56.56889,-15.42598 84.9597,-22.72079 l -0.0195,0.14091 z M 82.804853,194.04494 c 29.414237,7.50392 58.688877,15.6821 87.705077,24.59961 -3.92431,18.84369 -9.48829,37.76066 -14.28013,56.56808 -2.82585,9.52897 -4.68288,19.5545 -8.28683,28.73884 -10.41788,4.40435 -21.84408,6.34803 -32.67021,9.45731 -5.40807,-13.99393 -8.40073,-28.91184 -12.61934,-43.33084 -6.695893,-25.3205 -13.759085,-50.74126 -20.036904,-76.05253 l 0.188337,0.0195 z m 124.824217,31.34347 c 18.69159,4.82213 37.45002,9.78717 55.79939,15.66546 3.31835,8.64916 6.04607,17.82404 7.23354,26.98521 -26.73303,7.6581 -53.72765,14.65728 -80.58873,21.71457 -0.75379,-2.75194 1.49978,-6.32969 1.80341,-9.29968 5.02788,-18.38551 9.71023,-37.05289 15.60312,-55.08509 l 0.14927,0.0195 z m 101.91406,28.15709 c 3.69573,0.98408 8.38278,0.77831 11.50949,2.67438 -6.75019,2.31403 -14.03309,4.34103 -20.93052,5.75195 -0.87625,-3.23649 -0.16124,-6.78712 -0.40039,-10.13252 3.2738,0.56872 6.54762,1.13746 9.82142,1.70619 z m 48.67328,27.76646 c -8.11427,32.16806 -16.6609,64.27747 -25.75475,96.16908 -1.63315,0.14921 -1.25,-4.81282 -2.21528,-6.11991 -6.82766,-25.93873 -14.13155,-51.76638 -20.47027,-77.8254 16.04708,-4.41155 32.22055,-8.50447 48.4403,-12.22377 z m -66.02958,72.58929 c 4.3354,16.66694 9.21921,33.62329 13.03153,50.16322 -44.70278,-11.6832 -89.43518,-23.5038 -133.9509,-35.74498 3.08517,-12.82991 6.41506,-25.74612 10.49387,-38.24218 32.21,-9.20557 64.69626,-17.42603 97.0424,-26.14119 4.46104,16.65504 8.92207,33.31009 13.3831,49.96513 z M 139.64637,339.82619 c 0.28406,5.00229 -2.40985,10.38088 -3.48866,15.43202 -0.60947,2.41097 -1.4906,6.99185 -5.05208,5.19159 -4.24446,-1.29753 -3.64292,-7.21444 -5.18415,-10.62919 -0.30335,-2.26568 -2.65157,-6.15273 1.22908,-6.53181 4.04423,-1.43735 8.19694,-3.09673 12.49581,-3.46261 z"
       id="path3406"
       inkscape:connector-curvature="0" />
    <path
       style="opacity:0;fill:#000000;fill-opacity:1;stroke:#000000;stroke-width:1.42857146;stroke-miterlimit:4;stroke-dasharray:none;stroke-opacity:0.39215686"
       d="m 393.22809,49.118109 c -46.15338,12.225089 -92.17841,24.968563 -138.42216,36.831752 -1.61012,-5.25333 -2.88799,-10.604894 -4.32477,-15.908203 -11.6369,0 -23.27381,0 -34.91071,0 -3.09441,10.122908 -4.76202,21.017531 -9.17829,30.562222 C 160.51928,113.2559 114.54474,125.58295 68.461071,137.43563 61.776289,113.35667 55.467048,89.173511 48.974464,65.041658 38.898285,65.327324 28.159599,64.614734 18.455491,65.676424 40.358834,150.37531 63.743129,234.69344 85.794258,319.34921 c -0.249297,3.61848 -7.72394,2.59924 -10.792825,4.40791 -11.56439,3.27743 -23.598818,5.86895 -34.86486,9.62996 -1.142777,12.72566 -0.723206,25.64446 -0.30971,38.41797 0.404813,3.46967 5.631899,2.10999 7.862492,3.62812 17.963428,4.99176 36.251174,9.37804 53.987395,14.85402 3.73711,12.45046 6.87933,25.07194 10.30134,37.61161 13.75977,0 27.51953,0 41.2793,0 2.20217,-7.53365 3.75172,-15.65285 6.46763,-22.82366 69.37839,17.81048 138.41456,36.95864 207.63843,55.36913 10.6944,2.66904 21.56553,6.14492 32.17323,8.27345 1.18694,-11.67905 0.71245,-23.60009 0.13812,-35.33761 -3.61411,-2.18347 -8.84647,-2.61584 -13.03842,-4.12739 -10.14354,-2.79755 -20.32752,-5.45243 -30.44233,-8.35169 30.63655,-115.65953 62.05718,-231.12784 92.55023,-346.815008 -9.51165,-1.639342 -19.55739,-0.451847 -29.26619,-0.830078 -4.99194,0.468135 -9.73839,0.69077 -7.85714,-5.714286 0,-7.782273 0,-15.564546 0,-23.346819 -6.13095,1.64109 -12.26191,3.28218 -18.39286,4.92327 z m 18.7779,29.202009 c 0.5526,3.800664 -1.96829,8.160559 -2.54683,12.108867 -12.3839,46.378615 -24.55473,92.823395 -37.29692,139.100675 -0.77913,4.43182 -5.53139,0.59312 -8.18411,0.57573 -24.94507,-6.70954 -50.08253,-13.13181 -74.77905,-20.50179 -8.91307,-30.14743 -16.74264,-60.63623 -24.15812,-91.18891 -1.10703,-3.68033 5.71413,-2.31404 7.82837,-3.87683 46.33734,-12.22435 92.7954,-24.042906 139.13666,-36.217742 z M 234.51576,133.77771 c 5.93375,21.80505 11.9652,43.76019 17.01311,65.70312 -10.86141,-2.32646 -21.88801,-5.72193 -32.62695,-8.77371 4.86269,-19.04065 9.53143,-38.28323 15.61384,-56.92941 z m -39.50475,1.95591 c -3.88026,16.31852 -8.42825,32.47947 -12.88504,48.64955 -26.36012,-7.78278 -52.96284,-14.90573 -78.9495,-23.8616 0.38095,-1.34005 5.77272,-1.63191 7.67422,-2.58729 28.002,-7.51516 56.0932,-15.28379 84.16032,-22.20066 z M 82.596115,193.55449 c 29.547195,7.80518 58.914765,16.40768 88.065015,25.59152 -0.38191,5.06448 -2.67622,10.77066 -3.7868,16.03661 -6.23422,23.06066 -12.13093,46.2757 -18.94758,69.14057 -10.98893,3.71353 -22.41016,6.83266 -33.82673,8.6635 C 103.31066,273.25887 92.67787,233.40038 82.534732,193.5531 l 0.06138,0.001 z m 124.447545,31.38812 c 19.07565,5.13089 38.05423,10.61688 57.07729,15.93889 2.15779,8.85054 5.2561,17.61755 6.66713,26.57227 -2.72918,2.75216 -7.67994,2.22239 -11.16285,3.81725 -23.24065,6.06816 -46.46127,12.85821 -69.7593,18.31445 1.01335,-7.35819 3.90943,-14.80558 5.57695,-22.19975 3.9048,-14.08372 7.41917,-28.69352 11.60078,-42.44311 z m 93.51981,27.02567 c 6.68976,1.38994 13.87153,2.05536 20.30134,3.81138 -2.97915,2.36345 -8.04543,2.65484 -11.80084,4.01551 -2.93403,-0.25196 -9.92769,4.9608 -9.58588,0.50458 0.68879,-1.79254 -1.33544,-8.54698 1.08538,-8.33147 z m 57.79855,29.26339 c -8.33258,32.13391 -16.7226,64.58332 -26.0505,96.25697 -8.04371,-27.54437 -15.32272,-55.42583 -22.56976,-83.1236 9.81048,-4.27571 20.71922,-5.88889 31.01297,-8.88908 5.86125,-1.43559 11.69811,-3.03547 17.60729,-4.24429 z m -79.68611,23.1264 c 9.11289,32.8786 18.09802,65.84425 26.4774,98.89648 -2.44148,1.69038 -6.08386,-1.25728 -8.88671,-1.30441 -40.48801,-10.89227 -81.06902,-21.47988 -121.41786,-32.86568 -2.38073,-0.36386 -4.57896,-1.93532 -2.76881,-4.52969 3.06973,-11.48823 5.90027,-23.167 9.59822,-34.41127 32.17961,-9.11272 64.53383,-17.76449 96.99776,-25.78543 z m -138.84347,35.49107 c -0.73663,6.70921 -3.03943,13.67879 -5.40457,20.13393 -1.03607,2.1743 -5.03153,0.51347 -5.89984,-1.20118 -1.49445,-4.79712 -3.50524,-10.0083 -3.41378,-14.94838 4.7204,-1.79829 9.72733,-3.21708 14.71819,-3.98437 z"
       id="path4212"
       inkscape:connector-curvature="0" />
    <path
       style="opacity:0;fill:#000000;fill-opacity:1;stroke:#000000;stroke-width:1.42857146;stroke-miterlimit:4;stroke-dasharray:none;stroke-opacity:0.39215686"
       d="m 393.22809,49.118109 c -46.15338,12.225089 -92.17841,24.968563 -138.42216,36.831752 -1.61012,-5.25333 -2.88799,-10.604894 -4.32477,-15.908203 -11.6369,0 -23.27381,0 -34.91071,0 -3.09441,10.122908 -4.76202,21.017531 -9.17829,30.562222 C 160.51928,113.2559 114.54474,125.58295 68.461071,137.43563 61.776289,113.35667 55.467048,89.173511 48.974464,65.041658 38.898285,65.327324 28.159599,64.614734 18.455491,65.676424 40.358834,150.37531 63.743129,234.69344 85.794258,319.34921 c -0.249297,3.61848 -7.72394,2.59924 -10.792825,4.40791 -11.56439,3.27743 -23.598818,5.86895 -34.86486,9.62996 -1.142777,12.72566 -0.723206,25.64446 -0.30971,38.41797 0.404813,3.46967 5.631899,2.10999 7.862492,3.62812 17.963428,4.99176 36.251174,9.37804 53.987395,14.85402 3.73711,12.45046 6.87933,25.07194 10.30134,37.61161 13.75977,0 27.51953,0 41.2793,0 2.20217,-7.53365 3.75172,-15.65285 6.46763,-22.82366 69.37839,17.81048 138.41456,36.95864 207.63843,55.36913 10.6944,2.66904 21.56553,6.14492 32.17323,8.27345 1.18694,-11.67905 0.71245,-23.60009 0.13812,-35.33761 -3.61411,-2.18347 -8.84647,-2.61584 -13.03842,-4.12739 -10.14354,-2.79755 -20.32752,-5.45243 -30.44233,-8.35169 30.63655,-115.65953 62.05718,-231.12784 92.55023,-346.815008 -9.51165,-1.639342 -19.55739,-0.451847 -29.26619,-0.830078 -4.99194,0.468135 -9.73839,0.69077 -7.85714,-5.714286 0,-7.782273 0,-15.564546 0,-23.346819 -6.13095,1.64109 -12.26191,3.28218 -18.39286,4.92327 z m 18.7779,29.202009 c 0.5526,3.800664 -1.96829,8.160559 -2.54683,12.108867 -12.3839,46.378615 -24.55473,92.823395 -37.29692,139.100675 -0.77913,4.43182 -5.53139,0.59312 -8.18411,0.57573 -24.94507,-6.70954 -50.08253,-13.13181 -74.77905,-20.50179 -8.91307,-30.14743 -16.74264,-60.63623 -24.15812,-91.18891 -1.10703,-3.68033 5.71413,-2.31404 7.82837,-3.87683 46.33734,-12.22435 92.7954,-24.042906 139.13666,-36.217742 z M 234.51576,133.77771 c 5.93375,21.80505 11.9652,43.76019 17.01311,65.70312 -10.86141,-2.32646 -21.88801,-5.72193 -32.62695,-8.77371 4.86269,-19.04065 9.53143,-38.28323 15.61384,-56.92941 z m -39.50475,1.95591 c -3.88026,16.31852 -8.42825,32.47947 -12.88504,48.64955 -26.36012,-7.78278 -52.96284,-14.90573 -78.9495,-23.8616 0.38095,-1.34005 5.77272,-1.63191 7.67422,-2.58729 28.002,-7.51516 56.0932,-15.28379 84.16032,-22.20066 z M 82.596115,193.55449 c 29.547195,7.80518 58.914765,16.40768 88.065015,25.59152 -0.38191,5.06448 -2.67622,10.77066 -3.7868,16.03661 -6.23422,23.06066 -12.13093,46.2757 -18.94758,69.14057 -10.98893,3.71353 -22.41016,6.83266 -33.82673,8.6635 C 103.31066,273.25887 92.67787,233.40038 82.534732,193.5531 l 0.06138,0.001 z m 124.447545,31.38812 c 19.07565,5.13089 38.05423,10.61688 57.07729,15.93889 2.15779,8.85054 5.2561,17.61755 6.66713,26.57227 -2.72918,2.75216 -7.67994,2.22239 -11.16285,3.81725 -23.24065,6.06816 -46.46127,12.85821 -69.7593,18.31445 1.01335,-7.35819 3.90943,-14.80558 5.57695,-22.19975 3.9048,-14.08372 7.41917,-28.69352 11.60078,-42.44311 z m 93.51981,27.02567 c 6.68976,1.38994 13.87153,2.05536 20.30134,3.81138 -2.97915,2.36345 -8.04543,2.65484 -11.80084,4.01551 -2.93403,-0.25196 -9.92769,4.9608 -9.58588,0.50458 0.68879,-1.79254 -1.33544,-8.54698 1.08538,-8.33147 z m 57.79855,29.26339 c -8.33258,32.13391 -16.7226,64.58332 -26.0505,96.25697 -8.04371,-27.54437 -15.32272,-55.42583 -22.56976,-83.1236 9.81048,-4.27571 20.71922,-5.88889 31.01297,-8.88908 5.86125,-1.43559 11.69811,-3.03547 17.60729,-4.24429 z m -79.68611,23.1264 c 9.11289,32.8786 18.09802,65.84425 26.4774,98.89648 -2.44148,1.69038 -6.08386,-1.25728 -8.88671,-1.30441 -40.48801,-10.89227 -81.06902,-21.47988 -121.41786,-32.86568 -2.38073,-0.36386 -4.57896,-1.93532 -2.76881,-4.52969 3.06973,-11.48823 5.90027,-23.167 9.59822,-34.41127 32.17961,-9.11272 64.53383,-17.76449 96.99776,-25.78543 z m -138.84347,35.49107 c -0.73663,6.70921 -3.03943,13.67879 -5.40457,20.13393 -1.03607,2.1743 -5.03153,0.51347 -5.89984,-1.20118 -1.49445,-4.79712 -3.50524,-10.0083 -3.41378,-14.94838 4.7204,-1.79829 9.72733,-3.21708 14.71819,-3.98437 z"
       id="path4226"
       inkscape:connector-curvature="0" />
    <path
       style="opacity:0;fill:#000000;fill-opacity:1;stroke:#000000;stroke-width:1.42857146;stroke-miterlimit:4;stroke-dasharray:none;stroke-opacity:0.39215686"
       d="m 234.38741,139.73753 c -2.54183,3.77068 -2.80222,9.19055 -4.45097,13.55442 -3.28768,12.20421 -6.83983,24.36553 -9.61571,36.68972 9.77192,2.6345 20.11662,5.79591 29.64564,7.75809 -4.81617,-19.37713 -9.68192,-38.83535 -15.20089,-57.97851 -0.11661,-0.0598 -0.2545,-0.0531 -0.37807,-0.0237 z"
       id="path4228"
       inkscape:connector-curvature="0" />
    <path
       style="opacity:0;fill:#000000;fill-opacity:1;stroke:#000000;stroke-width:1.42857146;stroke-miterlimit:4;stroke-dasharray:none;stroke-opacity:0.39215686"
       d="M 410.56626,44.222741 C 358.76305,58.209209 306.90428,71.990702 255.09053,85.9387 c -1.8066,-2.404426 -0.72897,-6.610736 -2.387,-8.544921 -0.80171,-0.970755 0.5603,-2.983336 -0.98074,-3.51423 0.33297,-5.67729 -4.78251,-4.076429 -8.83231,-4.195034 -9.1476,0 -18.2952,0 -27.4428,0 -2.85601,10.147466 -5.1687,20.611891 -8.48354,30.537105 -45.75276,12.51551 -91.54871,24.95745 -137.472098,36.79548 -1.968003,-0.20128 -0.378772,-3.16681 -1.9601,-3.82951 -1.148467,-3.26227 -2.285302,-7.3395 -1.887557,-10.53014 -2.259942,-0.45006 -2.467969,-5.22006 -2.19029,-7.33538 0.77583,-1.2786 -1.896204,0.8703 -1.050502,-1.10351 0.984234,-2.26003 -1.724378,-2.80031 -1.481585,-5.24554 -1.027343,-1.1083 0.223123,-4.61427 -0.544084,-4.76004 -1.983468,-2.6674 -3.007209,-7.078333 -2.540458,-10.491076 -0.07715,-0.377407 -1.662754,-0.731571 -1.495536,-2.112166 -0.903223,-2.782974 -1.92963,-6.302669 -1.41183,-8.952288 -2.259943,-0.450056 -2.46797,-5.220063 -2.19029,-7.335379 0.775829,-1.278602 -1.896205,0.870293 -1.050503,-1.103516 0.879426,-2.323967 -1.837145,-3.313023 -1.63923,-5.874721 0.03976,-2.813172 -0.289116,-4.566557 -3.619906,-3.751432 -9.514992,-0.245133 -19.032594,0.07669 -28.548062,0.145127 22.107182,85.055221 45.710842,169.733991 67.536272,254.868861 -0.527784,2.27043 -5.507036,1.74055 -7.511049,3.0001 -12.659232,3.55913 -25.379397,6.89605 -38.072098,10.33277 0,13.52725 0,27.0545 0,40.58175 20.578943,5.73265 41.602373,10.59923 61.847096,17.10101 3.62748,12.46282 6.77798,25.05961 10.14928,37.59347 14.12713,0.13327 28.25427,0.2658 42.38142,0.3976 -0.31505,-1.13812 -1.09488,-3.9589 0.86495,-2.69113 -0.97302,-2.81576 0.37562,-6.57702 1.79967,-8.59236 -0.29047,-1.22931 -0.60745,-3.21031 1.05747,-2.12193 -0.86346,-2.63425 0.0868,-6.73581 1.86245,-8.34681 -1.42449,-3.31346 3.05968,-0.94095 4.42522,-0.77986 78.25324,20.8871 156.37987,42.26127 234.71959,62.81669 2.16645,-1.57368 0.65945,-5.71485 1.21791,-8.13895 0.0607,-9.36091 0.0202,-18.72212 0.0321,-28.08315 -3.68099,-1.37345 -8.78223,-1.48664 -11.67411,-3.91323 -5.97314,-0.67722 -12.90919,-2.28529 -18.68861,-4.75864 -0.84463,-0.72879 -3.92088,0.73657 -2.78879,-1.32813 -2.60702,0.82973 -6.65221,-0.13814 -8.25335,-1.87919 -3.66795,1.47405 -1.41954,-3.52257 -1.15392,-5.19851 0.43268,-1.53279 0.92046,-4.66949 2.4109,-4.80707 -0.89839,-2.7824 0.42684,-6.48005 1.83315,-8.46122 -0.29817,-1.24154 -0.59827,-3.20129 1.05747,-2.12611 -0.71076,-3.49343 0.57461,-7.8412 2.45257,-10.74777 0.89834,0.12792 -0.78373,-2.7312 0.23717,-3.46261 0.27657,-1.51303 0.84277,-4.48038 2.27678,-4.488 -0.63227,-3.45862 0.50862,-7.80998 2.43164,-10.6543 0.96608,0.16773 -0.59224,-3.16783 0.44364,-4.04855 -0.13587,-2.04945 1.47269,-3.30784 1.80524,-4.76004 -0.73256,-1.6613 -0.0645,-2.47238 1.04772,-1.93778 -0.93248,-2.78393 0.41298,-6.50164 1.8192,-8.48912 -0.2904,-1.22935 -0.60759,-3.2104 1.05747,-2.12193 -0.86409,-2.44318 -0.10785,-6.30103 1.72433,-7.91155 0.88125,0.16693 -0.56563,-2.65358 0.30692,-3.45285 0.73033,-2.16723 0.67803,-6.1344 2.70648,-7.17495 0.16609,-0.9925 -0.25734,-3.99046 0.55385,-5.51757 0.32055,-2.2428 2.35679,-2.7826 1.27929,-5.23717 0.34459,-0.85216 1.96716,0.91434 0.9668,-0.87751 -0.12971,-2.67789 0.72659,-5.8972 2.11914,-7.70647 -0.29572,-1.23719 -0.60115,-3.20477 1.05747,-2.12472 -0.37573,-5.9359 2.1904,-11.99336 3.9495,-17.67299 0.84565,-1.17727 1.17993,-0.75544 0.72405,-2.46094 0.52701,-3.03513 0.80475,-6.87502 2.82227,-9.16713 0.65168,-0.20305 -0.67676,-3.19249 0.33064,-4.16155 0.22282,-1.38543 0.91244,-3.8557 2.14007,-3.8086 -0.63228,-3.45862 0.50862,-7.80997 2.43164,-10.6543 0.89425,0.2498 -0.23877,-2.62042 0.58596,-3.4223 2.06959,-8.65942 3.80261,-17.72575 7.35628,-25.81877 0.75434,0.0108 -0.56193,-2.64822 0.26227,-3.48074 0.72992,-2.16535 0.67887,-6.13853 2.70648,-7.17355 0.16581,-1.17484 0.213,-4.25225 0.85072,-5.97111 0.91546,-4.58844 2.39336,-9.68 4.06139,-13.65501 -0.73668,-1.66024 -0.0678,-2.4749 1.04492,-1.93917 -0.82935,-2.40295 -0.0678,-6.23372 1.74386,-7.80832 0.88125,0.16694 -0.56563,-2.65358 0.30692,-3.45284 0.73033,-2.16724 0.67803,-6.1344 2.70648,-7.17495 0.16609,-0.99251 -0.25734,-3.99046 0.55385,-5.51758 0.32055,-2.2428 2.35679,-2.7826 1.27929,-5.23716 0.34459,-0.85217 1.96716,0.91433 0.9668,-0.87751 -0.12971,-2.67789 0.72659,-5.8972 2.11914,-7.70648 -0.29039,-1.22934 -0.60758,-3.2104 1.05747,-2.12193 -0.86408,-2.44318 -0.10785,-6.30103 1.72434,-7.91155 0.88125,0.16694 -0.56564,-2.65358 0.30691,-3.45284 0.73033,-2.16724 0.67803,-6.1344 2.70648,-7.17495 0.1661,-0.99251 -0.25733,-3.99046 0.55385,-5.51758 0.32056,-2.2428 2.3568,-2.7826 1.2793,-5.23716 0.37573,-0.83171 1.98389,0.90879 0.94029,-0.92076 0.1614,-2.04427 0.12121,-6.21486 2.22377,-6.89732 0.12847,-0.98654 -0.18631,-3.84166 0.52316,-5.37667 0.54433,-1.69028 0.93315,-5.22385 2.56557,-5.49805 -0.89824,-2.78303 0.42644,-6.48104 1.83315,-8.46261 -0.29039,-1.22935 -0.60759,-3.21041 1.05747,-2.12193 -0.97291,-2.81573 0.37541,-6.576961 1.79967,-8.59236 -0.29039,-1.229348 -0.60758,-3.210402 1.05747,-2.121931 -0.82362,-2.478615 -0.0555,-6.191913 1.60575,-7.984095 0.77928,-0.41551 -0.24435,-2.981337 0.52037,-4.030414 2.47717,-5.184509 0.41687,-6.649411 -5.00418,-5.651506 -10.43109,0 -20.86217,0 -31.29325,0 -0.36863,-9.604122 0.75291,-19.455651 -0.63616,-28.918806 -0.10619,-0.112283 -0.27151,-0.143465 -0.41853,-0.114397 z m 1.30999,34.386161 c 0.71468,2.869978 -1.65592,6.591643 -2.00876,9.711797 -12.69793,47.224991 -25.06883,94.549371 -38.04844,141.691661 -0.25445,1.66984 -1.60478,2.32553 -1.363,0.69615 -6.23197,-0.18065 -12.64688,-2.23683 -18.34403,-4.71959 0.19176,-1.04262 -2.6538,0.56972 -3.47516,-0.36411 -2.16724,-0.73033 -6.1344,-0.67803 -7.17495,-2.70648 -0.99839,-0.11854 -3.83962,0.18417 -5.37807,-0.52036 -1.69028,-0.54433 -5.22385,-0.93316 -5.49805,-2.56558 -2.78302,0.89825 -6.48104,-0.42644 -8.46261,-1.83315 -1.22935,0.2904 -3.2104,0.60759 -2.12193,-1.05747 -2.44318,0.86409 -6.30103,0.10785 -7.91155,-1.72433 0.16693,-0.88125 -2.65358,0.56563 -3.45284,-0.30692 -2.16724,-0.73033 -6.1344,-0.67803 -7.17495,-2.70648 -0.9875,-0.13447 -3.81176,0.13443 -5.33901,-0.53431 -1.89779,-0.48998 -4.92729,-0.94439 -5.80078,-2.39258 -2.58461,0.33859 -2.16796,-4.15043 -2.70508,-5.86775 -0.37863,-1.21565 0.93908,-2.25958 -0.50781,-2.28097 -1.51925,-3.17166 -2.66579,-7.38044 -2.17913,-10.61384 -2.25994,-0.45005 -2.46797,-5.22006 -2.19029,-7.33537 0.77583,-1.27861 -1.8962,0.87029 -1.0505,-1.10352 0.98423,-2.26003 -1.72438,-2.80031 -1.48159,-5.24553 -1.00317,-1.13056 0.17979,-4.52207 -0.51199,-4.7726 -2.08377,1.04331 0.35559,-2.89253 -1.46206,-3.14593 -1.23244,-2.127 -1.26259,-5.9452 -1.27511,-7.63951 -2.02713,-1.03254 -1.97249,-5.02099 -2.70648,-7.17495 -0.86404,-0.80129 0.57262,-3.61958 -0.30691,-3.45284 -2.16128,-1.48645 -2.08145,-6.05109 -1.94196,-7.94922 -2.31775,1.36173 0.21618,-2.78976 -1.62668,-3.0692 -1.1563,-2.17498 -1.37455,-5.80403 -1.23047,-7.64509 -2.31774,1.36174 0.21619,-2.78976 -1.62668,-3.06919 -1.04094,-2.27642 -1.54268,-5.5466 -1.16629,-7.67997 -2.39269,0.44539 -2.44135,-5.69255 0.61384,-4.9707 1.2224,0.36962 2.15131,0.21402 2.20982,-0.77986 2.65676,0.94233 3.87352,-1.33391 6.51088,-1.60993 3.08056,-0.86383 7.36007,-1.82643 10.06697,-1.66016 -1.46617,-2.30423 3.04017,0.23259 2.70786,-1.72991 3.33032,0.79105 5.93335,-1.94546 9.367,-2.26626 9.59997,-2.34471 19.28065,-5.61238 29.04121,-6.59814 0.86637,0.30824 -0.91884,-1.925681 0.93052,-1.14955 2.43537,0.74597 3.98566,-1.841215 6.6476,-1.821986 3.76245,-0.969117 8.62767,-2.24662 12.02009,-2.147043 -1.46708,-2.306384 3.03979,0.231486 2.70787,-1.731306 2.65676,0.942324 3.87352,-1.33391 6.51088,-1.609933 3.08056,-0.863826 7.36007,-1.826428 10.06697,-1.660156 -1.46617,-2.304235 3.04017,0.232583 2.70786,-1.729911 2.8618,0.913731 4.47599,-1.630893 7.4149,-1.835937 3.76245,-0.969117 8.62767,-2.246619 12.0201,-2.147043 -1.40435,-2.275413 2.55042,0.12571 2.90178,-1.41183 5.19502,-1.711991 11.09852,-3.677296 16.41602,-3.469587 -1.5177,-2.514726 2.83139,0.187514 2.99107,-1.851284 0.50828,-0.26287 1.09308,-0.45495 1.66992,-0.442242 z m -177.2726,55.904018 c 5.95771,21.4846 11.41286,43.17852 16.80524,64.83538 -1.28803,0.5175 -2.37541,-1.01078 -2.25028,-1.66016 -3.45893,0.63614 -7.81201,-0.50772 -10.65708,-2.43025 0.31513,-1.03915 -2.70715,0.7339 -3.38588,-0.3111 -1.71455,-0.21927 -4.18019,-0.84065 -4.78934,-2.09961 -3.63047,0.0279 -7.9476,-0.71829 -11.03098,-2.42745 0.43576,-2.6154 0.48167,-6.34534 2.52093,-8.11384 0.73678,-0.18795 -0.47885,-3.64675 0.53432,-4.76702 -0.0246,-2.57699 2.6104,-3.21149 1.43555,-5.77846 0.0918,-1.17902 2.07243,0.88189 0.97238,-1.01004 -0.12971,-2.6779 0.72658,-5.8972 2.11914,-7.70648 -0.29039,-1.22935 -0.60759,-3.2104 1.05747,-2.12193 -0.86409,-2.44318 -0.10785,-6.30103 1.72434,-7.91155 0.87084,0.17771 -0.49788,-2.60762 0.339,-3.38728 0.49155,-2.62426 1.07834,-6.18046 2.68136,-7.87249 -0.30793,-2.26142 0.28564,-5.75178 1.92383,-7.23772 z m -40.10463,1.46066 c 1.34842,1.26001 -1.28784,4.37981 -1.09907,6.14351 -3.85496,13.86561 -7.31412,28.05424 -11.30327,41.75548 -2.05027,-0.0648 -5.58076,-0.35454 -6.41044,-2.3563 0.16276,-0.59863 -2.61953,0.82612 -3.38867,-0.0642 -1.33248,0.15438 -1.68269,-1.15918 -1.71736,-1.6169 -2.16821,0.8181 -5.79034,0.023 -7.05078,-1.77875 0.11224,-0.86102 -2.53875,0.73678 -3.34124,-0.17438 -1.97041,0.0484 -1.54506,-2.30672 -3.65932,-1.09096 -1.21811,0.0561 0.93434,-2.1376 -0.94029,-0.92494 -1.54572,0.43923 -4.49972,-0.31301 -4.29408,-1.74526 -2.16822,0.81811 -5.79034,0.023 -7.05078,-1.77874 0.10535,-0.87248 -2.56454,0.81003 -3.37612,-0.17578 -1.32566,0.14866 -1.67966,-1.16054 -1.71596,-1.61691 -2.16821,0.81811 -5.79034,0.023 -7.05078,-1.77874 0.10535,-0.87248 -2.56454,0.81003 -3.37612,-0.17578 -1.32566,0.14866 -1.67966,-1.16054 -1.71596,-1.61691 -2.16821,0.81811 -5.79034,0.023 -7.05077,-1.77874 0.10535,-0.87248 -2.56455,0.81003 -3.37613,-0.17578 -1.32565,0.14866 -1.67965,-1.16054 -1.71595,-1.6169 -2.34895,0.81398 -6.17599,-0.15365 -7.43025,-1.91825 -1.05095,0.29846 -4.94082,0.21777 -4.35826,-1.11747 4.59767,-2.28286 9.94869,-1.61133 14.25781,-3.99135 5.29224,-1.30876 11.01565,-3.46864 16.3086,-3.33426 -1.5134,-2.4838 2.71763,0.10894 3.03571,-1.74805 2.12699,-1.23245 5.9452,-1.26259 7.63951,-1.27511 1.03253,-2.02714 5.02099,-1.97249 7.17495,-2.70648 1.0268,-1.03666 3.81078,0.95298 3.54911,-0.60128 3.02927,-1.81833 7.85796,-2.52751 10.70312,-2.40932 0.7976,-2.10463 5.07467,-2.26166 7.24888,-2.13728 1.53325,1.02889 -0.79324,-1.83226 1.23465,-0.98633 2.26004,0.98424 2.80032,-1.72437 5.24554,-1.48158 1.12028,-1.01317 4.57907,0.20246 4.76702,-0.53432 2.4168,-2.13432 7.06889,-2.5134 10.2567,-3.19196 z M 82.653314,193.52519 c 29.302336,8.19529 58.737446,16.51303 87.730196,25.44504 -6.89723,28.59518 -14.34618,57.09411 -22.46094,85.36412 -10.96745,3.20889 -22.10683,6.45389 -33.21289,8.82812 -2.01291,-1.67768 -0.24702,-5.69813 -2.28935,-6.7871 0.21933,-1.57389 0.34295,-2.66523 -0.79799,-3.58399 -1.00932,-2.07664 -1.17606,-5.53999 -1.04771,-7.23912 -2.31774,1.36173 0.21619,-2.78976 -1.62667,-3.06919 -1.23245,-2.127 -1.26259,-5.9452 -1.27511,-7.63951 -2.02714,-1.03254 -1.97249,-5.02099 -2.70648,-7.17495 -0.86404,-0.80129 0.57261,-3.61958 -0.30691,-3.45284 -2.16128,-1.48645 -2.08145,-6.05109 -1.94197,-7.94923 -2.31774,1.36174 0.21619,-2.78975 -1.62668,-3.06919 -1.156298,-2.17498 -1.37454,-5.80403 -1.230462,-7.64509 -2.317743,1.36173 0.216182,-2.78976 -1.626678,-3.06919 -1.232443,-2.127 -1.262586,-5.9452 -1.275108,-7.63951 -2.027135,-1.03254 -1.972492,-5.02099 -2.706478,-7.17495 -0.864043,-0.80129 0.572614,-3.61958 -0.306914,-3.45284 -2.161279,-1.48645 -2.08145,-6.05109 -1.941965,-7.94923 -2.317743,1.36174 0.216186,-2.78975 -1.626678,-3.06919 -1.232443,-2.12699 -1.262586,-5.9452 -1.275107,-7.63951 -2.027138,-1.03253 -1.972495,-5.02099 -2.706476,-7.17495 -0.864049,-0.80128 0.572608,-3.61957 -0.30692,-3.45284 -2.221891,-1.45579 -1.985967,-6.16742 -1.983817,-7.94643 -1.377195,0.71382 -1.528849,-2.96428 -1.450893,-3.45843 z m 125.051616,31.875 c 18.73645,4.87653 37.46483,10.0848 55.85938,16.05051 2.90817,8.61469 5.63771,17.59749 7.17355,26.46066 -26.86894,7.49427 -53.95623,14.7503 -80.8803,21.71456 0.15527,-1.75233 0.62353,-5.20893 2.3284,-5.26646 -0.62839,-3.45842 0.50952,-7.80792 2.43304,-10.65151 0.96607,0.16773 -0.59224,-3.16783 0.44363,-4.04855 -0.13587,-2.04945 1.4727,-3.30783 1.80525,-4.76004 -0.73257,-1.66129 -0.0646,-2.47238 1.04771,-1.93778 -0.93248,-2.78393 0.41299,-6.50164 1.8192,-8.48912 -0.29039,-1.22934 -0.60758,-3.2104 1.05747,-2.12193 -0.86408,-2.44318 -0.10785,-6.30103 1.72434,-7.91155 0.88125,0.16694 -0.56564,-2.65358 0.30691,-3.45284 0.73033,-2.16724 0.67803,-6.1344 2.70648,-7.17495 0.18452,-0.82368 -0.42047,-3.55155 0.40597,-4.8856 0.46682,-1.01934 0.50682,-3.1602 1.76897,-3.5254 z m 101.59459,28.31474 c 3.44681,1.00511 7.87059,0.57716 10.8817,2.17494 -6.13652,2.90902 -13.62292,4.36345 -20.27484,5.84822 -0.72659,-3.1651 -0.31052,-6.46817 -0.42829,-9.6903 3.27381,0.55572 6.54762,1.11143 9.82143,1.66714 z m 48.30776,27.60324 c 0.41925,2.83565 -1.58875,6.69558 -2.04088,9.85422 -7.54442,28.60589 -14.85344,57.3058 -23.28697,85.65498 -1.7269,-2.11936 -1.76075,-6.33283 -1.7048,-8.41797 -2.31774,1.36174 0.21619,-2.78976 -1.62667,-3.06919 -1.1563,-2.17498 -1.37455,-5.80403 -1.23047,-7.64509 -2.31774,1.36173 0.21619,-2.78976 -1.62668,-3.0692 -1.23244,-2.12699 -1.26258,-5.9452 -1.2751,-7.6395 -2.02714,-1.03254 -1.9725,-5.021 -2.70648,-7.17495 -0.86405,-0.80129 0.57261,-3.61958 -0.30692,-3.45285 -2.16128,-1.48645 -2.08145,-6.05108 -1.94196,-7.94922 -2.31774,1.36174 0.21618,-2.78976 -1.62668,-3.06919 -1.23244,-2.12699 -1.26259,-5.9452 -1.27511,-7.63951 -2.02713,-1.03253 -1.97249,-5.02099 -2.70648,-7.17495 -1.03666,-1.0268 0.95298,-3.81078 -0.60127,-3.54911 -1.8088,-3.03839 -2.54108,-7.83079 -2.40235,-10.7073 -2.09528,0.49573 -1.79227,-4.16459 0.7938,-3.28405 4.81458,-1.31194 10.33747,-2.6235 15.00698,-3.09988 -0.97282,-2.00976 3.17831,0.36456 2.84179,-1.54716 3.01748,0.85069 5.00805,-1.74789 8.12799,-1.99088 5.53509,-1.26303 11.62039,-3.38224 17.06036,-3.34813 -0.74667,-1.18231 1.80583,-1.76458 2.5279,-1.68107 z m -78.8658,22.99246 c 8.67472,33.03166 17.91965,65.99525 26.29744,99.08622 -0.89426,1.39133 -4.28762,-0.15956 -3.73466,-1.42439 -2.78268,0.90523 -6.48438,-0.42407 -8.4668,-1.83036 -1.22934,0.29039 -3.2104,0.60759 -2.12193,-1.05747 -2.44317,0.86409 -6.30102,0.10785 -7.91155,-1.72434 0.16694,-0.88125 -2.65357,0.56564 -3.45284,-0.30691 -2.16723,-0.73033 -6.1344,-0.67803 -7.17495,-2.70648 -0.99838,-0.11853 -3.83961,0.18417 -5.37806,-0.52036 -1.69028,-0.54433 -5.22385,-0.93316 -5.49805,-2.56557 -2.78302,0.89824 -6.48105,-0.42645 -8.46262,-1.83315 -1.22934,0.29039 -3.2104,0.60758 -2.12193,-1.05748 -2.44317,0.86409 -6.30102,0.10785 -7.91155,-1.72433 0.16694,-0.88125 -2.65357,0.56563 -3.45284,-0.30692 -2.16723,-0.73032 -6.1344,-0.67802 -7.17495,-2.70647 -0.99838,-0.11854 -3.83961,0.18417 -5.37806,-0.52037 -1.69821,-0.53521 -5.21993,-0.94907 -5.50363,-2.56278 -6.11607,0.14903 -12.40648,-2.21762 -18.17941,-4.30525 -0.17917,-1.50835 -2.3545,0.34279 -3.62883,-0.5988 -2.40147,-0.65925 -5.6849,-0.75566 -7.39377,-2.57503 -0.0619,-0.76541 -3.36991,0.14374 -4.37576,-0.70446 -5.22638,-1.37907 -11.24441,-1.85617 -15.82653,-4.54246 0.10218,-2.02739 0.13212,-6.19943 2.20843,-6.87082 0.12847,-0.98654 -0.18631,-3.84166 0.52315,-5.37667 0.54433,-1.69028 0.93316,-5.22385 2.56558,-5.49805 -0.89825,-2.78302 0.42644,-6.48104 1.83315,-8.46261 -0.2904,-1.22935 -0.60759,-3.2104 1.05747,-2.12193 -0.82362,-2.47862 -0.0556,-6.19192 1.60575,-7.9841 0.69676,-0.0456 -0.21167,-2.13347 1.47042,-1.95591 2.00482,-0.92714 5.28336,-1.03251 6.88477,-0.91518 -1.32769,-2.29198 2.68438,0.15398 3.09849,-1.57924 3.24739,-1.18687 7.31312,-2.34556 10.512,-1.91964 0.0856,-1.8707 3.87296,-1.72603 5.29157,-2.45397 1.68468,-0.49516 3.97174,-0.71716 5.42271,-0.40318 0.0856,-1.8707 3.87297,-1.72602 5.29158,-2.45396 1.68468,-0.49517 3.97174,-0.71716 5.42271,-0.40318 0.0856,-1.8707 3.87296,-1.72602 5.29158,-2.45396 1.68467,-0.49517 3.97173,-0.71716 5.4227,-0.40318 0.0856,-1.8707 3.87297,-1.72602 5.29158,-2.45397 1.57832,-0.63668 4.23548,-0.52217 5.38504,-0.47433 -1.43083,-2.32163 2.74611,0.23423 2.90877,-1.53738 2.19983,-1.24744 5.90728,-1.46503 7.80413,-1.32115 -1.32769,-2.29198 2.68438,0.15398 3.09849,-1.57924 3.25032,-1.1835 7.30452,-2.35061 10.51339,-1.91686 0.2543,-2.12504 4.38707,-1.83737 6.05173,-2.63497 0.62701,-0.12397 1.25459,-0.31207 1.89609,-0.33936 z m -139.16852,35.43248 c 0.85479,1.93695 -1.18313,5.18386 -1.38915,7.49473 -1.35072,4.61948 -2.4155,9.40751 -4.32933,13.81108 -1.9706,-0.17533 -5.19447,-1.11876 -4.90512,-3.24778 -2.06523,-1.87277 -2.12281,-6.08517 -2.73718,-8.91322 -0.10112,-1.39973 0.76161,-2.02205 -0.77147,-1.98242 -2.01128,-2.42471 0.59357,-4.53961 3.17382,-3.89509 2.6045,0.28918 3.68691,-2.36038 6.54018,-1.68527 1.32162,0.43059 1.15881,0.42498 1.50949,-0.625 0.83353,-0.58357 1.87923,-1.00145 2.90876,-0.95703 z"
       id="path4238"
       inkscape:connector-curvature="0" />
    <path
       style="opacity:0;fill:#000000;fill-opacity:1;stroke:#000000;stroke-width:0.17857143;stroke-miterlimit:4;stroke-dasharray:none;stroke-opacity:0.39215686"
       d="m 300.54613,257.01604 c 0,1.30156 0,2.60312 0,3.90468 5.81184,-1.52961 11.62077,-3.07925 17.41315,-4.67721 0.32288,-0.20137 -0.98163,-0.16359 -0.64005,-0.22089 -5.5874,-0.9912 -11.18495,-1.92498 -16.7731,-2.91144 0,1.30162 0,2.60324 0,3.90486 z"
       id="path4248"
       inkscape:connector-curvature="0" />
    <path
       style="opacity:0;fill:#000000;fill-opacity:1;stroke:#000000;stroke-width:0.17857143;stroke-miterlimit:4;stroke-dasharray:none;stroke-opacity:0.39215686"
       d="m 300.54613,257.01604 c 0,1.30156 0,2.60312 0,3.90468 5.81184,-1.52961 11.62077,-3.07925 17.41315,-4.67721 0.32288,-0.20137 -0.98163,-0.16359 -0.64005,-0.22089 -5.5874,-0.9912 -11.18495,-1.92498 -16.7731,-2.91144 0,1.30162 0,2.60324 0,3.90486 z"
       id="path4250"
       inkscape:connector-curvature="0" />
    <path
       style="opacity:0;fill:#000000;fill-opacity:1;stroke:#000000;stroke-width:0.17857143;stroke-miterlimit:4;stroke-dasharray:none;stroke-opacity:0.39215686"
       d="m 300.54613,257.01604 c 0,1.30156 0,2.60312 0,3.90468 5.81184,-1.52961 11.62077,-3.07925 17.41315,-4.67721 0.32288,-0.20137 -0.98163,-0.16359 -0.64005,-0.22089 -5.5874,-0.9912 -11.18495,-1.92498 -16.7731,-2.91144 0,1.30162 0,2.60324 0,3.90486 z"
       id="path4252"
       inkscape:connector-curvature="0" />
    <path
       style="opacity:0;fill:#000000;fill-opacity:1;stroke:#000000;stroke-width:0.17857143;stroke-miterlimit:4;stroke-dasharray:none;stroke-opacity:0.39215686"
       d="m 300.54613,257.01604 c 0,1.30156 0,2.60312 0,3.90468 5.81184,-1.52961 11.62077,-3.07925 17.41315,-4.67721 0.32288,-0.20137 -0.98163,-0.16359 -0.64005,-0.22089 -5.5874,-0.9912 -11.18495,-1.92498 -16.7731,-2.91144 0,1.30162 0,2.60324 0,3.90486 z"
       id="path4262"
       inkscape:connector-curvature="0" />
  </g>
</svg>
