G04 #@! TF.GenerationSoftware,KiCad,Pcbnew,(5.0.2)-1*
G04 #@! TF.CreationDate,2019-02-16T16:56:10-07:00*
G04 #@! TF.ProjectId,Receiver,52656365-6976-4657-922e-6b696361645f,rev?*
G04 #@! TF.SameCoordinates,Original*
G04 #@! TF.FileFunction,Soldermask,Bot*
G04 #@! TF.FilePolarity,Negative*
%FSLAX46Y46*%
G04 Gerber Fmt 4.6, Leading zero omitted, Abs format (unit mm)*
G04 Created by KiCad (PCBNEW (5.0.2)-1) date 2/16/2019 4:56:10 PM*
%MOMM*%
%LPD*%
G01*
G04 APERTURE LIST*
%ADD10C,0.100000*%
G04 APERTURE END LIST*
D10*
G36*
X160186821Y-126161313D02*
X160186824Y-126161314D01*
X160186825Y-126161314D01*
X160347239Y-126209975D01*
X160347241Y-126209976D01*
X160347244Y-126209977D01*
X160495078Y-126288995D01*
X160624659Y-126395341D01*
X160731005Y-126524922D01*
X160810023Y-126672756D01*
X160810024Y-126672759D01*
X160810025Y-126672761D01*
X160857620Y-126829662D01*
X160858687Y-126833179D01*
X160875117Y-127000000D01*
X160858687Y-127166821D01*
X160858686Y-127166824D01*
X160858686Y-127166825D01*
X160837356Y-127237142D01*
X160810023Y-127327244D01*
X160731005Y-127475078D01*
X160624659Y-127604659D01*
X160495078Y-127711005D01*
X160347244Y-127790023D01*
X160347241Y-127790024D01*
X160347239Y-127790025D01*
X160186825Y-127838686D01*
X160186824Y-127838686D01*
X160186821Y-127838687D01*
X160061804Y-127851000D01*
X159978196Y-127851000D01*
X159853179Y-127838687D01*
X159853176Y-127838686D01*
X159853175Y-127838686D01*
X159692761Y-127790025D01*
X159692759Y-127790024D01*
X159692756Y-127790023D01*
X159544922Y-127711005D01*
X159415341Y-127604659D01*
X159308995Y-127475078D01*
X159229977Y-127327244D01*
X159202645Y-127237142D01*
X159181314Y-127166825D01*
X159181314Y-127166824D01*
X159181313Y-127166821D01*
X159164883Y-127000000D01*
X159181313Y-126833179D01*
X159182380Y-126829662D01*
X159229975Y-126672761D01*
X159229976Y-126672759D01*
X159229977Y-126672756D01*
X159308995Y-126524922D01*
X159415341Y-126395341D01*
X159544922Y-126288995D01*
X159692756Y-126209977D01*
X159692759Y-126209976D01*
X159692761Y-126209975D01*
X159853175Y-126161314D01*
X159853176Y-126161314D01*
X159853179Y-126161313D01*
X159978196Y-126149000D01*
X160061804Y-126149000D01*
X160186821Y-126161313D01*
X160186821Y-126161313D01*
G37*
G36*
X144382142Y-126218242D02*
X144530102Y-126279530D01*
X144663258Y-126368502D01*
X144776498Y-126481742D01*
X144865470Y-126614898D01*
X144926758Y-126762858D01*
X144958000Y-126919925D01*
X144958000Y-127080075D01*
X144926758Y-127237142D01*
X144889438Y-127327239D01*
X144865471Y-127385100D01*
X144781522Y-127510740D01*
X144776498Y-127518258D01*
X144663258Y-127631498D01*
X144530102Y-127720470D01*
X144382142Y-127781758D01*
X144225075Y-127813000D01*
X144064925Y-127813000D01*
X143907858Y-127781758D01*
X143759898Y-127720470D01*
X143626742Y-127631498D01*
X143513502Y-127518258D01*
X143508479Y-127510740D01*
X143424529Y-127385100D01*
X143400562Y-127327239D01*
X143363242Y-127237142D01*
X143332000Y-127080075D01*
X143332000Y-126919925D01*
X143363242Y-126762858D01*
X143424530Y-126614898D01*
X143513502Y-126481742D01*
X143626742Y-126368502D01*
X143759898Y-126279530D01*
X143907858Y-126218242D01*
X144064925Y-126187000D01*
X144225075Y-126187000D01*
X144382142Y-126218242D01*
X144382142Y-126218242D01*
G37*
G36*
X152002142Y-126218242D02*
X152150102Y-126279530D01*
X152283258Y-126368502D01*
X152396498Y-126481742D01*
X152485470Y-126614898D01*
X152546758Y-126762858D01*
X152578000Y-126919925D01*
X152578000Y-127080075D01*
X152546758Y-127237142D01*
X152509438Y-127327239D01*
X152485471Y-127385100D01*
X152401522Y-127510740D01*
X152396498Y-127518258D01*
X152283258Y-127631498D01*
X152150102Y-127720470D01*
X152002142Y-127781758D01*
X151845075Y-127813000D01*
X151684925Y-127813000D01*
X151527858Y-127781758D01*
X151379898Y-127720470D01*
X151246742Y-127631498D01*
X151133502Y-127518258D01*
X151128479Y-127510740D01*
X151044529Y-127385100D01*
X151020562Y-127327239D01*
X150983242Y-127237142D01*
X150952000Y-127080075D01*
X150952000Y-126919925D01*
X150983242Y-126762858D01*
X151044530Y-126614898D01*
X151133502Y-126481742D01*
X151246742Y-126368502D01*
X151379898Y-126279530D01*
X151527858Y-126218242D01*
X151684925Y-126187000D01*
X151845075Y-126187000D01*
X152002142Y-126218242D01*
X152002142Y-126218242D01*
G37*
G36*
X146922142Y-126218242D02*
X147070102Y-126279530D01*
X147203258Y-126368502D01*
X147316498Y-126481742D01*
X147405470Y-126614898D01*
X147466758Y-126762858D01*
X147498000Y-126919925D01*
X147498000Y-127080075D01*
X147466758Y-127237142D01*
X147429438Y-127327239D01*
X147405471Y-127385100D01*
X147321522Y-127510740D01*
X147316498Y-127518258D01*
X147203258Y-127631498D01*
X147070102Y-127720470D01*
X146922142Y-127781758D01*
X146765075Y-127813000D01*
X146604925Y-127813000D01*
X146447858Y-127781758D01*
X146299898Y-127720470D01*
X146166742Y-127631498D01*
X146053502Y-127518258D01*
X146048479Y-127510740D01*
X145964529Y-127385100D01*
X145940562Y-127327239D01*
X145903242Y-127237142D01*
X145872000Y-127080075D01*
X145872000Y-126919925D01*
X145903242Y-126762858D01*
X145964530Y-126614898D01*
X146053502Y-126481742D01*
X146166742Y-126368502D01*
X146299898Y-126279530D01*
X146447858Y-126218242D01*
X146604925Y-126187000D01*
X146765075Y-126187000D01*
X146922142Y-126218242D01*
X146922142Y-126218242D01*
G37*
G36*
X149462142Y-126218242D02*
X149610102Y-126279530D01*
X149743258Y-126368502D01*
X149856498Y-126481742D01*
X149945470Y-126614898D01*
X150006758Y-126762858D01*
X150038000Y-126919925D01*
X150038000Y-127080075D01*
X150006758Y-127237142D01*
X149969438Y-127327239D01*
X149945471Y-127385100D01*
X149861522Y-127510740D01*
X149856498Y-127518258D01*
X149743258Y-127631498D01*
X149610102Y-127720470D01*
X149462142Y-127781758D01*
X149305075Y-127813000D01*
X149144925Y-127813000D01*
X148987858Y-127781758D01*
X148839898Y-127720470D01*
X148706742Y-127631498D01*
X148593502Y-127518258D01*
X148588479Y-127510740D01*
X148504529Y-127385100D01*
X148480562Y-127327239D01*
X148443242Y-127237142D01*
X148412000Y-127080075D01*
X148412000Y-126919925D01*
X148443242Y-126762858D01*
X148504530Y-126614898D01*
X148593502Y-126481742D01*
X148706742Y-126368502D01*
X148839898Y-126279530D01*
X148987858Y-126218242D01*
X149144925Y-126187000D01*
X149305075Y-126187000D01*
X149462142Y-126218242D01*
X149462142Y-126218242D01*
G37*
G36*
X107190740Y-127510740D02*
X101089260Y-127510740D01*
X101089260Y-121409260D01*
X107190740Y-121409260D01*
X107190740Y-127510740D01*
X107190740Y-127510740D01*
G37*
G36*
X193550740Y-127510740D02*
X187449260Y-127510740D01*
X187449260Y-121409260D01*
X193550740Y-121409260D01*
X193550740Y-127510740D01*
X193550740Y-127510740D01*
G37*
G36*
X183475170Y-121467879D02*
X183769868Y-121526498D01*
X184325067Y-121756469D01*
X184821363Y-122088084D01*
X184824736Y-122090338D01*
X185249662Y-122515264D01*
X185249664Y-122515267D01*
X185583531Y-123014933D01*
X185813502Y-123570132D01*
X185847197Y-123739529D01*
X185930740Y-124159527D01*
X185930740Y-124760473D01*
X185913906Y-124845102D01*
X185813502Y-125349868D01*
X185583531Y-125905067D01*
X185273873Y-126368502D01*
X185249662Y-126404736D01*
X184824736Y-126829662D01*
X184824733Y-126829664D01*
X184325067Y-127163531D01*
X183769868Y-127393502D01*
X183475170Y-127452121D01*
X183180473Y-127510740D01*
X182579527Y-127510740D01*
X182284830Y-127452121D01*
X181990132Y-127393502D01*
X181434933Y-127163531D01*
X180935267Y-126829664D01*
X180935264Y-126829662D01*
X180510338Y-126404736D01*
X180486127Y-126368502D01*
X180176469Y-125905067D01*
X179946498Y-125349868D01*
X179846094Y-124845102D01*
X179829260Y-124760473D01*
X179829260Y-124159527D01*
X179912803Y-123739529D01*
X179946498Y-123570132D01*
X180176469Y-123014933D01*
X180510336Y-122515267D01*
X180510338Y-122515264D01*
X180935264Y-122090338D01*
X180938637Y-122088084D01*
X181434933Y-121756469D01*
X181990132Y-121526498D01*
X182284830Y-121467879D01*
X182579527Y-121409260D01*
X183180473Y-121409260D01*
X183475170Y-121467879D01*
X183475170Y-121467879D01*
G37*
G36*
X112355170Y-121467879D02*
X112649868Y-121526498D01*
X113205067Y-121756469D01*
X113701363Y-122088084D01*
X113704736Y-122090338D01*
X114129662Y-122515264D01*
X114129664Y-122515267D01*
X114463531Y-123014933D01*
X114693502Y-123570132D01*
X114727197Y-123739529D01*
X114810740Y-124159527D01*
X114810740Y-124760473D01*
X114793906Y-124845102D01*
X114693502Y-125349868D01*
X114463531Y-125905067D01*
X114153873Y-126368502D01*
X114129662Y-126404736D01*
X113704736Y-126829662D01*
X113704733Y-126829664D01*
X113205067Y-127163531D01*
X112649868Y-127393502D01*
X112355170Y-127452121D01*
X112060473Y-127510740D01*
X111459527Y-127510740D01*
X111164830Y-127452121D01*
X110870132Y-127393502D01*
X110314933Y-127163531D01*
X109815267Y-126829664D01*
X109815264Y-126829662D01*
X109390338Y-126404736D01*
X109366127Y-126368502D01*
X109056469Y-125905067D01*
X108826498Y-125349868D01*
X108726094Y-124845102D01*
X108709260Y-124760473D01*
X108709260Y-124159527D01*
X108792803Y-123739529D01*
X108826498Y-123570132D01*
X109056469Y-123014933D01*
X109390336Y-122515267D01*
X109390338Y-122515264D01*
X109815264Y-122090338D01*
X109818637Y-122088084D01*
X110314933Y-121756469D01*
X110870132Y-121526498D01*
X111164830Y-121467879D01*
X111459527Y-121409260D01*
X112060473Y-121409260D01*
X112355170Y-121467879D01*
X112355170Y-121467879D01*
G37*
G36*
X144382142Y-123678242D02*
X144530102Y-123739530D01*
X144663258Y-123828502D01*
X144776498Y-123941742D01*
X144865470Y-124074898D01*
X144926758Y-124222858D01*
X144958000Y-124379925D01*
X144958000Y-124540075D01*
X144926758Y-124697142D01*
X144865470Y-124845102D01*
X144776498Y-124978258D01*
X144663258Y-125091498D01*
X144530102Y-125180470D01*
X144382142Y-125241758D01*
X144225075Y-125273000D01*
X144064925Y-125273000D01*
X143907858Y-125241758D01*
X143759898Y-125180470D01*
X143626742Y-125091498D01*
X143513502Y-124978258D01*
X143424530Y-124845102D01*
X143363242Y-124697142D01*
X143332000Y-124540075D01*
X143332000Y-124379925D01*
X143363242Y-124222858D01*
X143424530Y-124074898D01*
X143513502Y-123941742D01*
X143626742Y-123828502D01*
X143759898Y-123739530D01*
X143907858Y-123678242D01*
X144064925Y-123647000D01*
X144225075Y-123647000D01*
X144382142Y-123678242D01*
X144382142Y-123678242D01*
G37*
G36*
X146922142Y-123678242D02*
X147070102Y-123739530D01*
X147203258Y-123828502D01*
X147316498Y-123941742D01*
X147405470Y-124074898D01*
X147466758Y-124222858D01*
X147498000Y-124379925D01*
X147498000Y-124540075D01*
X147466758Y-124697142D01*
X147405470Y-124845102D01*
X147316498Y-124978258D01*
X147203258Y-125091498D01*
X147070102Y-125180470D01*
X146922142Y-125241758D01*
X146765075Y-125273000D01*
X146604925Y-125273000D01*
X146447858Y-125241758D01*
X146299898Y-125180470D01*
X146166742Y-125091498D01*
X146053502Y-124978258D01*
X145964530Y-124845102D01*
X145903242Y-124697142D01*
X145872000Y-124540075D01*
X145872000Y-124379925D01*
X145903242Y-124222858D01*
X145964530Y-124074898D01*
X146053502Y-123941742D01*
X146166742Y-123828502D01*
X146299898Y-123739530D01*
X146447858Y-123678242D01*
X146604925Y-123647000D01*
X146765075Y-123647000D01*
X146922142Y-123678242D01*
X146922142Y-123678242D01*
G37*
G36*
X149462142Y-123678242D02*
X149610102Y-123739530D01*
X149743258Y-123828502D01*
X149856498Y-123941742D01*
X149945470Y-124074898D01*
X150006758Y-124222858D01*
X150038000Y-124379925D01*
X150038000Y-124540075D01*
X150006758Y-124697142D01*
X149945470Y-124845102D01*
X149856498Y-124978258D01*
X149743258Y-125091498D01*
X149610102Y-125180470D01*
X149462142Y-125241758D01*
X149305075Y-125273000D01*
X149144925Y-125273000D01*
X148987858Y-125241758D01*
X148839898Y-125180470D01*
X148706742Y-125091498D01*
X148593502Y-124978258D01*
X148504530Y-124845102D01*
X148443242Y-124697142D01*
X148412000Y-124540075D01*
X148412000Y-124379925D01*
X148443242Y-124222858D01*
X148504530Y-124074898D01*
X148593502Y-123941742D01*
X148706742Y-123828502D01*
X148839898Y-123739530D01*
X148987858Y-123678242D01*
X149144925Y-123647000D01*
X149305075Y-123647000D01*
X149462142Y-123678242D01*
X149462142Y-123678242D01*
G37*
G36*
X152578000Y-125273000D02*
X150952000Y-125273000D01*
X150952000Y-123647000D01*
X152578000Y-123647000D01*
X152578000Y-125273000D01*
X152578000Y-125273000D01*
G37*
G36*
X152677396Y-118465546D02*
X152850466Y-118537234D01*
X153006230Y-118641312D01*
X153138688Y-118773770D01*
X153242766Y-118929534D01*
X153314454Y-119102604D01*
X153351000Y-119286333D01*
X153351000Y-119473667D01*
X153314454Y-119657396D01*
X153242766Y-119830466D01*
X153138688Y-119986230D01*
X153006230Y-120118688D01*
X152850466Y-120222766D01*
X152677396Y-120294454D01*
X152493667Y-120331000D01*
X152306333Y-120331000D01*
X152122604Y-120294454D01*
X151949534Y-120222766D01*
X151793770Y-120118688D01*
X151661312Y-119986230D01*
X151557234Y-119830466D01*
X151485546Y-119657396D01*
X151449000Y-119473667D01*
X151449000Y-119286333D01*
X151485546Y-119102604D01*
X151557234Y-118929534D01*
X151661312Y-118773770D01*
X151793770Y-118641312D01*
X151949534Y-118537234D01*
X152122604Y-118465546D01*
X152306333Y-118429000D01*
X152493667Y-118429000D01*
X152677396Y-118465546D01*
X152677396Y-118465546D01*
G37*
G36*
X153351000Y-117791000D02*
X151449000Y-117791000D01*
X151449000Y-115889000D01*
X153351000Y-115889000D01*
X153351000Y-117791000D01*
X153351000Y-117791000D01*
G37*
G36*
X122030442Y-115945518D02*
X122096627Y-115952037D01*
X122209853Y-115986384D01*
X122266467Y-116003557D01*
X122405087Y-116077652D01*
X122422991Y-116087222D01*
X122458729Y-116116552D01*
X122560186Y-116199814D01*
X122640369Y-116297519D01*
X122672778Y-116337009D01*
X122672779Y-116337011D01*
X122756443Y-116493533D01*
X122756443Y-116493534D01*
X122807963Y-116663373D01*
X122825359Y-116840000D01*
X122807963Y-117016627D01*
X122786243Y-117088228D01*
X122756443Y-117186467D01*
X122682348Y-117325087D01*
X122672778Y-117342991D01*
X122643448Y-117378729D01*
X122560186Y-117480186D01*
X122458729Y-117563448D01*
X122422991Y-117592778D01*
X122422989Y-117592779D01*
X122266467Y-117676443D01*
X122218478Y-117691000D01*
X122096627Y-117727963D01*
X122030442Y-117734482D01*
X121964260Y-117741000D01*
X121875740Y-117741000D01*
X121809558Y-117734482D01*
X121743373Y-117727963D01*
X121621522Y-117691000D01*
X121573533Y-117676443D01*
X121417011Y-117592779D01*
X121417009Y-117592778D01*
X121381271Y-117563448D01*
X121279814Y-117480186D01*
X121196552Y-117378729D01*
X121167222Y-117342991D01*
X121157652Y-117325087D01*
X121083557Y-117186467D01*
X121053757Y-117088228D01*
X121032037Y-117016627D01*
X121014641Y-116840000D01*
X121032037Y-116663373D01*
X121083557Y-116493534D01*
X121083557Y-116493533D01*
X121167221Y-116337011D01*
X121167222Y-116337009D01*
X121199631Y-116297519D01*
X121279814Y-116199814D01*
X121381271Y-116116552D01*
X121417009Y-116087222D01*
X121434913Y-116077652D01*
X121573533Y-116003557D01*
X121630147Y-115986384D01*
X121743373Y-115952037D01*
X121809558Y-115945518D01*
X121875740Y-115939000D01*
X121964260Y-115939000D01*
X122030442Y-115945518D01*
X122030442Y-115945518D01*
G37*
G36*
X125361000Y-117741000D02*
X123559000Y-117741000D01*
X123559000Y-115939000D01*
X125361000Y-115939000D01*
X125361000Y-117741000D01*
X125361000Y-117741000D01*
G37*
G36*
X176161000Y-117741000D02*
X174359000Y-117741000D01*
X174359000Y-115939000D01*
X176161000Y-115939000D01*
X176161000Y-117741000D01*
X176161000Y-117741000D01*
G37*
G36*
X119490442Y-115945518D02*
X119556627Y-115952037D01*
X119669853Y-115986384D01*
X119726467Y-116003557D01*
X119865087Y-116077652D01*
X119882991Y-116087222D01*
X119918729Y-116116552D01*
X120020186Y-116199814D01*
X120100369Y-116297519D01*
X120132778Y-116337009D01*
X120132779Y-116337011D01*
X120216443Y-116493533D01*
X120216443Y-116493534D01*
X120267963Y-116663373D01*
X120285359Y-116840000D01*
X120267963Y-117016627D01*
X120246243Y-117088228D01*
X120216443Y-117186467D01*
X120142348Y-117325087D01*
X120132778Y-117342991D01*
X120103448Y-117378729D01*
X120020186Y-117480186D01*
X119918729Y-117563448D01*
X119882991Y-117592778D01*
X119882989Y-117592779D01*
X119726467Y-117676443D01*
X119678478Y-117691000D01*
X119556627Y-117727963D01*
X119490442Y-117734482D01*
X119424260Y-117741000D01*
X119335740Y-117741000D01*
X119269558Y-117734482D01*
X119203373Y-117727963D01*
X119081522Y-117691000D01*
X119033533Y-117676443D01*
X118877011Y-117592779D01*
X118877009Y-117592778D01*
X118841271Y-117563448D01*
X118739814Y-117480186D01*
X118656552Y-117378729D01*
X118627222Y-117342991D01*
X118617652Y-117325087D01*
X118543557Y-117186467D01*
X118513757Y-117088228D01*
X118492037Y-117016627D01*
X118474641Y-116840000D01*
X118492037Y-116663373D01*
X118543557Y-116493534D01*
X118543557Y-116493533D01*
X118627221Y-116337011D01*
X118627222Y-116337009D01*
X118659631Y-116297519D01*
X118739814Y-116199814D01*
X118841271Y-116116552D01*
X118877009Y-116087222D01*
X118894913Y-116077652D01*
X119033533Y-116003557D01*
X119090147Y-115986384D01*
X119203373Y-115952037D01*
X119269558Y-115945518D01*
X119335740Y-115939000D01*
X119424260Y-115939000D01*
X119490442Y-115945518D01*
X119490442Y-115945518D01*
G37*
G36*
X170290442Y-115945518D02*
X170356627Y-115952037D01*
X170469853Y-115986384D01*
X170526467Y-116003557D01*
X170665087Y-116077652D01*
X170682991Y-116087222D01*
X170718729Y-116116552D01*
X170820186Y-116199814D01*
X170900369Y-116297519D01*
X170932778Y-116337009D01*
X170932779Y-116337011D01*
X171016443Y-116493533D01*
X171016443Y-116493534D01*
X171067963Y-116663373D01*
X171085359Y-116840000D01*
X171067963Y-117016627D01*
X171046243Y-117088228D01*
X171016443Y-117186467D01*
X170942348Y-117325087D01*
X170932778Y-117342991D01*
X170903448Y-117378729D01*
X170820186Y-117480186D01*
X170718729Y-117563448D01*
X170682991Y-117592778D01*
X170682989Y-117592779D01*
X170526467Y-117676443D01*
X170478478Y-117691000D01*
X170356627Y-117727963D01*
X170290442Y-117734482D01*
X170224260Y-117741000D01*
X170135740Y-117741000D01*
X170069558Y-117734482D01*
X170003373Y-117727963D01*
X169881522Y-117691000D01*
X169833533Y-117676443D01*
X169677011Y-117592779D01*
X169677009Y-117592778D01*
X169641271Y-117563448D01*
X169539814Y-117480186D01*
X169456552Y-117378729D01*
X169427222Y-117342991D01*
X169417652Y-117325087D01*
X169343557Y-117186467D01*
X169313757Y-117088228D01*
X169292037Y-117016627D01*
X169274641Y-116840000D01*
X169292037Y-116663373D01*
X169343557Y-116493534D01*
X169343557Y-116493533D01*
X169427221Y-116337011D01*
X169427222Y-116337009D01*
X169459631Y-116297519D01*
X169539814Y-116199814D01*
X169641271Y-116116552D01*
X169677009Y-116087222D01*
X169694913Y-116077652D01*
X169833533Y-116003557D01*
X169890147Y-115986384D01*
X170003373Y-115952037D01*
X170069558Y-115945518D01*
X170135740Y-115939000D01*
X170224260Y-115939000D01*
X170290442Y-115945518D01*
X170290442Y-115945518D01*
G37*
G36*
X172830442Y-115945518D02*
X172896627Y-115952037D01*
X173009853Y-115986384D01*
X173066467Y-116003557D01*
X173205087Y-116077652D01*
X173222991Y-116087222D01*
X173258729Y-116116552D01*
X173360186Y-116199814D01*
X173440369Y-116297519D01*
X173472778Y-116337009D01*
X173472779Y-116337011D01*
X173556443Y-116493533D01*
X173556443Y-116493534D01*
X173607963Y-116663373D01*
X173625359Y-116840000D01*
X173607963Y-117016627D01*
X173586243Y-117088228D01*
X173556443Y-117186467D01*
X173482348Y-117325087D01*
X173472778Y-117342991D01*
X173443448Y-117378729D01*
X173360186Y-117480186D01*
X173258729Y-117563448D01*
X173222991Y-117592778D01*
X173222989Y-117592779D01*
X173066467Y-117676443D01*
X173018478Y-117691000D01*
X172896627Y-117727963D01*
X172830442Y-117734482D01*
X172764260Y-117741000D01*
X172675740Y-117741000D01*
X172609558Y-117734482D01*
X172543373Y-117727963D01*
X172421522Y-117691000D01*
X172373533Y-117676443D01*
X172217011Y-117592779D01*
X172217009Y-117592778D01*
X172181271Y-117563448D01*
X172079814Y-117480186D01*
X171996552Y-117378729D01*
X171967222Y-117342991D01*
X171957652Y-117325087D01*
X171883557Y-117186467D01*
X171853757Y-117088228D01*
X171832037Y-117016627D01*
X171814641Y-116840000D01*
X171832037Y-116663373D01*
X171883557Y-116493534D01*
X171883557Y-116493533D01*
X171967221Y-116337011D01*
X171967222Y-116337009D01*
X171999631Y-116297519D01*
X172079814Y-116199814D01*
X172181271Y-116116552D01*
X172217009Y-116087222D01*
X172234913Y-116077652D01*
X172373533Y-116003557D01*
X172430147Y-115986384D01*
X172543373Y-115952037D01*
X172609558Y-115945518D01*
X172675740Y-115939000D01*
X172764260Y-115939000D01*
X172830442Y-115945518D01*
X172830442Y-115945518D01*
G37*
G36*
X160268228Y-116021703D02*
X160423100Y-116085853D01*
X160562481Y-116178985D01*
X160681015Y-116297519D01*
X160774147Y-116436900D01*
X160838297Y-116591772D01*
X160871000Y-116756184D01*
X160871000Y-116923816D01*
X160838297Y-117088228D01*
X160774147Y-117243100D01*
X160681015Y-117382481D01*
X160562481Y-117501015D01*
X160423100Y-117594147D01*
X160268228Y-117658297D01*
X160103816Y-117691000D01*
X159936184Y-117691000D01*
X159771772Y-117658297D01*
X159616900Y-117594147D01*
X159477519Y-117501015D01*
X159358985Y-117382481D01*
X159265853Y-117243100D01*
X159201703Y-117088228D01*
X159169000Y-116923816D01*
X159169000Y-116756184D01*
X159201703Y-116591772D01*
X159265853Y-116436900D01*
X159358985Y-116297519D01*
X159477519Y-116178985D01*
X159616900Y-116085853D01*
X159771772Y-116021703D01*
X159936184Y-115989000D01*
X160103816Y-115989000D01*
X160268228Y-116021703D01*
X160268228Y-116021703D01*
G37*
G36*
X160297396Y-110845546D02*
X160470466Y-110917234D01*
X160626230Y-111021312D01*
X160758688Y-111153770D01*
X160862766Y-111309534D01*
X160934454Y-111482604D01*
X160971000Y-111666333D01*
X160971000Y-111853667D01*
X160934454Y-112037396D01*
X160862766Y-112210466D01*
X160758688Y-112366230D01*
X160626230Y-112498688D01*
X160470466Y-112602766D01*
X160297396Y-112674454D01*
X160113667Y-112711000D01*
X159926333Y-112711000D01*
X159742604Y-112674454D01*
X159569534Y-112602766D01*
X159413770Y-112498688D01*
X159281312Y-112366230D01*
X159177234Y-112210466D01*
X159105546Y-112037396D01*
X159069000Y-111853667D01*
X159069000Y-111666333D01*
X159105546Y-111482604D01*
X159177234Y-111309534D01*
X159281312Y-111153770D01*
X159413770Y-111021312D01*
X159569534Y-110917234D01*
X159742604Y-110845546D01*
X159926333Y-110809000D01*
X160113667Y-110809000D01*
X160297396Y-110845546D01*
X160297396Y-110845546D01*
G37*
G36*
X133031000Y-112711000D02*
X131129000Y-112711000D01*
X131129000Y-110809000D01*
X133031000Y-110809000D01*
X133031000Y-112711000D01*
X133031000Y-112711000D01*
G37*
G36*
X134897396Y-110845546D02*
X135070466Y-110917234D01*
X135226230Y-111021312D01*
X135358688Y-111153770D01*
X135462766Y-111309534D01*
X135534454Y-111482604D01*
X135571000Y-111666333D01*
X135571000Y-111853667D01*
X135534454Y-112037396D01*
X135462766Y-112210466D01*
X135358688Y-112366230D01*
X135226230Y-112498688D01*
X135070466Y-112602766D01*
X134897396Y-112674454D01*
X134713667Y-112711000D01*
X134526333Y-112711000D01*
X134342604Y-112674454D01*
X134169534Y-112602766D01*
X134013770Y-112498688D01*
X133881312Y-112366230D01*
X133777234Y-112210466D01*
X133705546Y-112037396D01*
X133669000Y-111853667D01*
X133669000Y-111666333D01*
X133705546Y-111482604D01*
X133777234Y-111309534D01*
X133881312Y-111153770D01*
X134013770Y-111021312D01*
X134169534Y-110917234D01*
X134342604Y-110845546D01*
X134526333Y-110809000D01*
X134713667Y-110809000D01*
X134897396Y-110845546D01*
X134897396Y-110845546D01*
G37*
G36*
X163511000Y-112711000D02*
X161609000Y-112711000D01*
X161609000Y-110809000D01*
X163511000Y-110809000D01*
X163511000Y-112711000D01*
X163511000Y-112711000D01*
G37*
G36*
X127248228Y-110941703D02*
X127403100Y-111005853D01*
X127542481Y-111098985D01*
X127661015Y-111217519D01*
X127754147Y-111356900D01*
X127818297Y-111511772D01*
X127851000Y-111676184D01*
X127851000Y-111843816D01*
X127818297Y-112008228D01*
X127754147Y-112163100D01*
X127661015Y-112302481D01*
X127542481Y-112421015D01*
X127403100Y-112514147D01*
X127248228Y-112578297D01*
X127083816Y-112611000D01*
X126916184Y-112611000D01*
X126751772Y-112578297D01*
X126596900Y-112514147D01*
X126457519Y-112421015D01*
X126338985Y-112302481D01*
X126245853Y-112163100D01*
X126181703Y-112008228D01*
X126149000Y-111843816D01*
X126149000Y-111676184D01*
X126181703Y-111511772D01*
X126245853Y-111356900D01*
X126338985Y-111217519D01*
X126457519Y-111098985D01*
X126596900Y-111005853D01*
X126751772Y-110941703D01*
X126916184Y-110909000D01*
X127083816Y-110909000D01*
X127248228Y-110941703D01*
X127248228Y-110941703D01*
G37*
G36*
X117006821Y-110921313D02*
X117006824Y-110921314D01*
X117006825Y-110921314D01*
X117167239Y-110969975D01*
X117167241Y-110969976D01*
X117167244Y-110969977D01*
X117315078Y-111048995D01*
X117444659Y-111155341D01*
X117551005Y-111284922D01*
X117630023Y-111432756D01*
X117630024Y-111432759D01*
X117630025Y-111432761D01*
X117678686Y-111593175D01*
X117678687Y-111593179D01*
X117695117Y-111760000D01*
X117678687Y-111926821D01*
X117678686Y-111926824D01*
X117678686Y-111926825D01*
X117645145Y-112037396D01*
X117630023Y-112087244D01*
X117551005Y-112235078D01*
X117444659Y-112364659D01*
X117315078Y-112471005D01*
X117167244Y-112550023D01*
X117167241Y-112550024D01*
X117167239Y-112550025D01*
X117006825Y-112598686D01*
X117006824Y-112598686D01*
X117006821Y-112598687D01*
X116881804Y-112611000D01*
X116798196Y-112611000D01*
X116673179Y-112598687D01*
X116673176Y-112598686D01*
X116673175Y-112598686D01*
X116512761Y-112550025D01*
X116512759Y-112550024D01*
X116512756Y-112550023D01*
X116364922Y-112471005D01*
X116235341Y-112364659D01*
X116128995Y-112235078D01*
X116049977Y-112087244D01*
X116034856Y-112037396D01*
X116001314Y-111926825D01*
X116001314Y-111926824D01*
X116001313Y-111926821D01*
X115984883Y-111760000D01*
X116001313Y-111593179D01*
X116001314Y-111593175D01*
X116049975Y-111432761D01*
X116049976Y-111432759D01*
X116049977Y-111432756D01*
X116128995Y-111284922D01*
X116235341Y-111155341D01*
X116364922Y-111048995D01*
X116512756Y-110969977D01*
X116512759Y-110969976D01*
X116512761Y-110969975D01*
X116673175Y-110921314D01*
X116673176Y-110921314D01*
X116673179Y-110921313D01*
X116798196Y-110909000D01*
X116881804Y-110909000D01*
X117006821Y-110921313D01*
X117006821Y-110921313D01*
G37*
G36*
X177966821Y-110921313D02*
X177966824Y-110921314D01*
X177966825Y-110921314D01*
X178127239Y-110969975D01*
X178127241Y-110969976D01*
X178127244Y-110969977D01*
X178275078Y-111048995D01*
X178404659Y-111155341D01*
X178511005Y-111284922D01*
X178590023Y-111432756D01*
X178590024Y-111432759D01*
X178590025Y-111432761D01*
X178638686Y-111593175D01*
X178638687Y-111593179D01*
X178655117Y-111760000D01*
X178638687Y-111926821D01*
X178638686Y-111926824D01*
X178638686Y-111926825D01*
X178605145Y-112037396D01*
X178590023Y-112087244D01*
X178511005Y-112235078D01*
X178404659Y-112364659D01*
X178275078Y-112471005D01*
X178127244Y-112550023D01*
X178127241Y-112550024D01*
X178127239Y-112550025D01*
X177966825Y-112598686D01*
X177966824Y-112598686D01*
X177966821Y-112598687D01*
X177841804Y-112611000D01*
X177758196Y-112611000D01*
X177633179Y-112598687D01*
X177633176Y-112598686D01*
X177633175Y-112598686D01*
X177472761Y-112550025D01*
X177472759Y-112550024D01*
X177472756Y-112550023D01*
X177324922Y-112471005D01*
X177195341Y-112364659D01*
X177088995Y-112235078D01*
X177009977Y-112087244D01*
X176994856Y-112037396D01*
X176961314Y-111926825D01*
X176961314Y-111926824D01*
X176961313Y-111926821D01*
X176944883Y-111760000D01*
X176961313Y-111593179D01*
X176961314Y-111593175D01*
X177009975Y-111432761D01*
X177009976Y-111432759D01*
X177009977Y-111432756D01*
X177088995Y-111284922D01*
X177195341Y-111155341D01*
X177324922Y-111048995D01*
X177472756Y-110969977D01*
X177472759Y-110969976D01*
X177472761Y-110969975D01*
X177633175Y-110921314D01*
X177633176Y-110921314D01*
X177633179Y-110921313D01*
X177758196Y-110909000D01*
X177841804Y-110909000D01*
X177966821Y-110921313D01*
X177966821Y-110921313D01*
G37*
G36*
X167888228Y-110941703D02*
X168043100Y-111005853D01*
X168182481Y-111098985D01*
X168301015Y-111217519D01*
X168394147Y-111356900D01*
X168458297Y-111511772D01*
X168491000Y-111676184D01*
X168491000Y-111843816D01*
X168458297Y-112008228D01*
X168394147Y-112163100D01*
X168301015Y-112302481D01*
X168182481Y-112421015D01*
X168043100Y-112514147D01*
X167888228Y-112578297D01*
X167723816Y-112611000D01*
X167556184Y-112611000D01*
X167391772Y-112578297D01*
X167236900Y-112514147D01*
X167097519Y-112421015D01*
X166978985Y-112302481D01*
X166885853Y-112163100D01*
X166821703Y-112008228D01*
X166789000Y-111843816D01*
X166789000Y-111676184D01*
X166821703Y-111511772D01*
X166885853Y-111356900D01*
X166978985Y-111217519D01*
X167097519Y-111098985D01*
X167236900Y-111005853D01*
X167391772Y-110941703D01*
X167556184Y-110909000D01*
X167723816Y-110909000D01*
X167888228Y-110941703D01*
X167888228Y-110941703D01*
G37*
G36*
X144946821Y-108381313D02*
X144946824Y-108381314D01*
X144946825Y-108381314D01*
X145107239Y-108429975D01*
X145107241Y-108429976D01*
X145107244Y-108429977D01*
X145255078Y-108508995D01*
X145384659Y-108615341D01*
X145491005Y-108744922D01*
X145570023Y-108892756D01*
X145618687Y-109053179D01*
X145635117Y-109220000D01*
X145618687Y-109386821D01*
X145570023Y-109547244D01*
X145491005Y-109695078D01*
X145384659Y-109824659D01*
X145255078Y-109931005D01*
X145107244Y-110010023D01*
X145107241Y-110010024D01*
X145107239Y-110010025D01*
X144946825Y-110058686D01*
X144946824Y-110058686D01*
X144946821Y-110058687D01*
X144821804Y-110071000D01*
X144738196Y-110071000D01*
X144613179Y-110058687D01*
X144613176Y-110058686D01*
X144613175Y-110058686D01*
X144452761Y-110010025D01*
X144452759Y-110010024D01*
X144452756Y-110010023D01*
X144304922Y-109931005D01*
X144175341Y-109824659D01*
X144068995Y-109695078D01*
X143989977Y-109547244D01*
X143941313Y-109386821D01*
X143924883Y-109220000D01*
X143941313Y-109053179D01*
X143989977Y-108892756D01*
X144068995Y-108744922D01*
X144175341Y-108615341D01*
X144304922Y-108508995D01*
X144452756Y-108429977D01*
X144452759Y-108429976D01*
X144452761Y-108429975D01*
X144613175Y-108381314D01*
X144613176Y-108381314D01*
X144613179Y-108381313D01*
X144738196Y-108369000D01*
X144821804Y-108369000D01*
X144946821Y-108381313D01*
X144946821Y-108381313D01*
G37*
G36*
X152566821Y-108381313D02*
X152566824Y-108381314D01*
X152566825Y-108381314D01*
X152727239Y-108429975D01*
X152727241Y-108429976D01*
X152727244Y-108429977D01*
X152875078Y-108508995D01*
X153004659Y-108615341D01*
X153111005Y-108744922D01*
X153190023Y-108892756D01*
X153238687Y-109053179D01*
X153255117Y-109220000D01*
X153238687Y-109386821D01*
X153190023Y-109547244D01*
X153111005Y-109695078D01*
X153004659Y-109824659D01*
X152875078Y-109931005D01*
X152727244Y-110010023D01*
X152727241Y-110010024D01*
X152727239Y-110010025D01*
X152566825Y-110058686D01*
X152566824Y-110058686D01*
X152566821Y-110058687D01*
X152441804Y-110071000D01*
X152358196Y-110071000D01*
X152233179Y-110058687D01*
X152233176Y-110058686D01*
X152233175Y-110058686D01*
X152072761Y-110010025D01*
X152072759Y-110010024D01*
X152072756Y-110010023D01*
X151924922Y-109931005D01*
X151795341Y-109824659D01*
X151688995Y-109695078D01*
X151609977Y-109547244D01*
X151561313Y-109386821D01*
X151544883Y-109220000D01*
X151561313Y-109053179D01*
X151609977Y-108892756D01*
X151688995Y-108744922D01*
X151795341Y-108615341D01*
X151924922Y-108508995D01*
X152072756Y-108429977D01*
X152072759Y-108429976D01*
X152072761Y-108429975D01*
X152233175Y-108381314D01*
X152233176Y-108381314D01*
X152233179Y-108381313D01*
X152358196Y-108369000D01*
X152441804Y-108369000D01*
X152566821Y-108381313D01*
X152566821Y-108381313D01*
G37*
G36*
X134897396Y-105765546D02*
X135070466Y-105837234D01*
X135226230Y-105941312D01*
X135358688Y-106073770D01*
X135462766Y-106229534D01*
X135534454Y-106402604D01*
X135571000Y-106586333D01*
X135571000Y-106773667D01*
X135534454Y-106957396D01*
X135462766Y-107130466D01*
X135358688Y-107286230D01*
X135226230Y-107418688D01*
X135070466Y-107522766D01*
X134897396Y-107594454D01*
X134713667Y-107631000D01*
X134526333Y-107631000D01*
X134342604Y-107594454D01*
X134169534Y-107522766D01*
X134013770Y-107418688D01*
X133881312Y-107286230D01*
X133777234Y-107130466D01*
X133705546Y-106957396D01*
X133669000Y-106773667D01*
X133669000Y-106586333D01*
X133705546Y-106402604D01*
X133777234Y-106229534D01*
X133881312Y-106073770D01*
X134013770Y-105941312D01*
X134169534Y-105837234D01*
X134342604Y-105765546D01*
X134526333Y-105729000D01*
X134713667Y-105729000D01*
X134897396Y-105765546D01*
X134897396Y-105765546D01*
G37*
G36*
X160297396Y-105765546D02*
X160470466Y-105837234D01*
X160626230Y-105941312D01*
X160758688Y-106073770D01*
X160862766Y-106229534D01*
X160934454Y-106402604D01*
X160971000Y-106586333D01*
X160971000Y-106773667D01*
X160934454Y-106957396D01*
X160862766Y-107130466D01*
X160758688Y-107286230D01*
X160626230Y-107418688D01*
X160470466Y-107522766D01*
X160297396Y-107594454D01*
X160113667Y-107631000D01*
X159926333Y-107631000D01*
X159742604Y-107594454D01*
X159569534Y-107522766D01*
X159413770Y-107418688D01*
X159281312Y-107286230D01*
X159177234Y-107130466D01*
X159105546Y-106957396D01*
X159069000Y-106773667D01*
X159069000Y-106586333D01*
X159105546Y-106402604D01*
X159177234Y-106229534D01*
X159281312Y-106073770D01*
X159413770Y-105941312D01*
X159569534Y-105837234D01*
X159742604Y-105765546D01*
X159926333Y-105729000D01*
X160113667Y-105729000D01*
X160297396Y-105765546D01*
X160297396Y-105765546D01*
G37*
G36*
X163511000Y-107631000D02*
X161609000Y-107631000D01*
X161609000Y-105729000D01*
X163511000Y-105729000D01*
X163511000Y-107631000D01*
X163511000Y-107631000D01*
G37*
G36*
X133031000Y-107631000D02*
X131129000Y-107631000D01*
X131129000Y-105729000D01*
X133031000Y-105729000D01*
X133031000Y-107631000D01*
X133031000Y-107631000D01*
G37*
G36*
X152566821Y-105841313D02*
X152566824Y-105841314D01*
X152566825Y-105841314D01*
X152727239Y-105889975D01*
X152727241Y-105889976D01*
X152727244Y-105889977D01*
X152875078Y-105968995D01*
X153004659Y-106075341D01*
X153111005Y-106204922D01*
X153190023Y-106352756D01*
X153190024Y-106352759D01*
X153190025Y-106352761D01*
X153238686Y-106513175D01*
X153238687Y-106513179D01*
X153255117Y-106680000D01*
X153238687Y-106846821D01*
X153238686Y-106846824D01*
X153238686Y-106846825D01*
X153205145Y-106957396D01*
X153190023Y-107007244D01*
X153111005Y-107155078D01*
X153004659Y-107284659D01*
X152875078Y-107391005D01*
X152727244Y-107470023D01*
X152727241Y-107470024D01*
X152727239Y-107470025D01*
X152566825Y-107518686D01*
X152566824Y-107518686D01*
X152566821Y-107518687D01*
X152441804Y-107531000D01*
X152358196Y-107531000D01*
X152233179Y-107518687D01*
X152233176Y-107518686D01*
X152233175Y-107518686D01*
X152072761Y-107470025D01*
X152072759Y-107470024D01*
X152072756Y-107470023D01*
X151924922Y-107391005D01*
X151795341Y-107284659D01*
X151688995Y-107155078D01*
X151609977Y-107007244D01*
X151594856Y-106957396D01*
X151561314Y-106846825D01*
X151561314Y-106846824D01*
X151561313Y-106846821D01*
X151544883Y-106680000D01*
X151561313Y-106513179D01*
X151561314Y-106513175D01*
X151609975Y-106352761D01*
X151609976Y-106352759D01*
X151609977Y-106352756D01*
X151688995Y-106204922D01*
X151795341Y-106075341D01*
X151924922Y-105968995D01*
X152072756Y-105889977D01*
X152072759Y-105889976D01*
X152072761Y-105889975D01*
X152233175Y-105841314D01*
X152233176Y-105841314D01*
X152233179Y-105841313D01*
X152358196Y-105829000D01*
X152441804Y-105829000D01*
X152566821Y-105841313D01*
X152566821Y-105841313D01*
G37*
G36*
X144946821Y-105841313D02*
X144946824Y-105841314D01*
X144946825Y-105841314D01*
X145107239Y-105889975D01*
X145107241Y-105889976D01*
X145107244Y-105889977D01*
X145255078Y-105968995D01*
X145384659Y-106075341D01*
X145491005Y-106204922D01*
X145570023Y-106352756D01*
X145570024Y-106352759D01*
X145570025Y-106352761D01*
X145618686Y-106513175D01*
X145618687Y-106513179D01*
X145635117Y-106680000D01*
X145618687Y-106846821D01*
X145618686Y-106846824D01*
X145618686Y-106846825D01*
X145585145Y-106957396D01*
X145570023Y-107007244D01*
X145491005Y-107155078D01*
X145384659Y-107284659D01*
X145255078Y-107391005D01*
X145107244Y-107470023D01*
X145107241Y-107470024D01*
X145107239Y-107470025D01*
X144946825Y-107518686D01*
X144946824Y-107518686D01*
X144946821Y-107518687D01*
X144821804Y-107531000D01*
X144738196Y-107531000D01*
X144613179Y-107518687D01*
X144613176Y-107518686D01*
X144613175Y-107518686D01*
X144452761Y-107470025D01*
X144452759Y-107470024D01*
X144452756Y-107470023D01*
X144304922Y-107391005D01*
X144175341Y-107284659D01*
X144068995Y-107155078D01*
X143989977Y-107007244D01*
X143974856Y-106957396D01*
X143941314Y-106846825D01*
X143941314Y-106846824D01*
X143941313Y-106846821D01*
X143924883Y-106680000D01*
X143941313Y-106513179D01*
X143941314Y-106513175D01*
X143989975Y-106352761D01*
X143989976Y-106352759D01*
X143989977Y-106352756D01*
X144068995Y-106204922D01*
X144175341Y-106075341D01*
X144304922Y-105968995D01*
X144452756Y-105889977D01*
X144452759Y-105889976D01*
X144452761Y-105889975D01*
X144613175Y-105841314D01*
X144613176Y-105841314D01*
X144613179Y-105841313D01*
X144738196Y-105829000D01*
X144821804Y-105829000D01*
X144946821Y-105841313D01*
X144946821Y-105841313D01*
G37*
G36*
X127248228Y-105861703D02*
X127403100Y-105925853D01*
X127542481Y-106018985D01*
X127661015Y-106137519D01*
X127754147Y-106276900D01*
X127818297Y-106431772D01*
X127851000Y-106596184D01*
X127851000Y-106763816D01*
X127818297Y-106928228D01*
X127754147Y-107083100D01*
X127661015Y-107222481D01*
X127542481Y-107341015D01*
X127403100Y-107434147D01*
X127248228Y-107498297D01*
X127083816Y-107531000D01*
X126916184Y-107531000D01*
X126751772Y-107498297D01*
X126596900Y-107434147D01*
X126457519Y-107341015D01*
X126338985Y-107222481D01*
X126245853Y-107083100D01*
X126181703Y-106928228D01*
X126149000Y-106763816D01*
X126149000Y-106596184D01*
X126181703Y-106431772D01*
X126245853Y-106276900D01*
X126338985Y-106137519D01*
X126457519Y-106018985D01*
X126596900Y-105925853D01*
X126751772Y-105861703D01*
X126916184Y-105829000D01*
X127083816Y-105829000D01*
X127248228Y-105861703D01*
X127248228Y-105861703D01*
G37*
G36*
X177966821Y-105841313D02*
X177966824Y-105841314D01*
X177966825Y-105841314D01*
X178127239Y-105889975D01*
X178127241Y-105889976D01*
X178127244Y-105889977D01*
X178275078Y-105968995D01*
X178404659Y-106075341D01*
X178511005Y-106204922D01*
X178590023Y-106352756D01*
X178590024Y-106352759D01*
X178590025Y-106352761D01*
X178638686Y-106513175D01*
X178638687Y-106513179D01*
X178655117Y-106680000D01*
X178638687Y-106846821D01*
X178638686Y-106846824D01*
X178638686Y-106846825D01*
X178605145Y-106957396D01*
X178590023Y-107007244D01*
X178511005Y-107155078D01*
X178404659Y-107284659D01*
X178275078Y-107391005D01*
X178127244Y-107470023D01*
X178127241Y-107470024D01*
X178127239Y-107470025D01*
X177966825Y-107518686D01*
X177966824Y-107518686D01*
X177966821Y-107518687D01*
X177841804Y-107531000D01*
X177758196Y-107531000D01*
X177633179Y-107518687D01*
X177633176Y-107518686D01*
X177633175Y-107518686D01*
X177472761Y-107470025D01*
X177472759Y-107470024D01*
X177472756Y-107470023D01*
X177324922Y-107391005D01*
X177195341Y-107284659D01*
X177088995Y-107155078D01*
X177009977Y-107007244D01*
X176994856Y-106957396D01*
X176961314Y-106846825D01*
X176961314Y-106846824D01*
X176961313Y-106846821D01*
X176944883Y-106680000D01*
X176961313Y-106513179D01*
X176961314Y-106513175D01*
X177009975Y-106352761D01*
X177009976Y-106352759D01*
X177009977Y-106352756D01*
X177088995Y-106204922D01*
X177195341Y-106075341D01*
X177324922Y-105968995D01*
X177472756Y-105889977D01*
X177472759Y-105889976D01*
X177472761Y-105889975D01*
X177633175Y-105841314D01*
X177633176Y-105841314D01*
X177633179Y-105841313D01*
X177758196Y-105829000D01*
X177841804Y-105829000D01*
X177966821Y-105841313D01*
X177966821Y-105841313D01*
G37*
G36*
X117006821Y-105841313D02*
X117006824Y-105841314D01*
X117006825Y-105841314D01*
X117167239Y-105889975D01*
X117167241Y-105889976D01*
X117167244Y-105889977D01*
X117315078Y-105968995D01*
X117444659Y-106075341D01*
X117551005Y-106204922D01*
X117630023Y-106352756D01*
X117630024Y-106352759D01*
X117630025Y-106352761D01*
X117678686Y-106513175D01*
X117678687Y-106513179D01*
X117695117Y-106680000D01*
X117678687Y-106846821D01*
X117678686Y-106846824D01*
X117678686Y-106846825D01*
X117645145Y-106957396D01*
X117630023Y-107007244D01*
X117551005Y-107155078D01*
X117444659Y-107284659D01*
X117315078Y-107391005D01*
X117167244Y-107470023D01*
X117167241Y-107470024D01*
X117167239Y-107470025D01*
X117006825Y-107518686D01*
X117006824Y-107518686D01*
X117006821Y-107518687D01*
X116881804Y-107531000D01*
X116798196Y-107531000D01*
X116673179Y-107518687D01*
X116673176Y-107518686D01*
X116673175Y-107518686D01*
X116512761Y-107470025D01*
X116512759Y-107470024D01*
X116512756Y-107470023D01*
X116364922Y-107391005D01*
X116235341Y-107284659D01*
X116128995Y-107155078D01*
X116049977Y-107007244D01*
X116034856Y-106957396D01*
X116001314Y-106846825D01*
X116001314Y-106846824D01*
X116001313Y-106846821D01*
X115984883Y-106680000D01*
X116001313Y-106513179D01*
X116001314Y-106513175D01*
X116049975Y-106352761D01*
X116049976Y-106352759D01*
X116049977Y-106352756D01*
X116128995Y-106204922D01*
X116235341Y-106075341D01*
X116364922Y-105968995D01*
X116512756Y-105889977D01*
X116512759Y-105889976D01*
X116512761Y-105889975D01*
X116673175Y-105841314D01*
X116673176Y-105841314D01*
X116673179Y-105841313D01*
X116798196Y-105829000D01*
X116881804Y-105829000D01*
X117006821Y-105841313D01*
X117006821Y-105841313D01*
G37*
G36*
X167888228Y-105861703D02*
X168043100Y-105925853D01*
X168182481Y-106018985D01*
X168301015Y-106137519D01*
X168394147Y-106276900D01*
X168458297Y-106431772D01*
X168491000Y-106596184D01*
X168491000Y-106763816D01*
X168458297Y-106928228D01*
X168394147Y-107083100D01*
X168301015Y-107222481D01*
X168182481Y-107341015D01*
X168043100Y-107434147D01*
X167888228Y-107498297D01*
X167723816Y-107531000D01*
X167556184Y-107531000D01*
X167391772Y-107498297D01*
X167236900Y-107434147D01*
X167097519Y-107341015D01*
X166978985Y-107222481D01*
X166885853Y-107083100D01*
X166821703Y-106928228D01*
X166789000Y-106763816D01*
X166789000Y-106596184D01*
X166821703Y-106431772D01*
X166885853Y-106276900D01*
X166978985Y-106137519D01*
X167097519Y-106018985D01*
X167236900Y-105925853D01*
X167391772Y-105861703D01*
X167556184Y-105829000D01*
X167723816Y-105829000D01*
X167888228Y-105861703D01*
X167888228Y-105861703D01*
G37*
G36*
X156828443Y-104515519D02*
X156894627Y-104522037D01*
X157007853Y-104556384D01*
X157064467Y-104573557D01*
X157142146Y-104615078D01*
X157220991Y-104657222D01*
X157256729Y-104686552D01*
X157358186Y-104769814D01*
X157441448Y-104871271D01*
X157470778Y-104907009D01*
X157470779Y-104907011D01*
X157554443Y-105063533D01*
X157554443Y-105063534D01*
X157605963Y-105233373D01*
X157623359Y-105410000D01*
X157605963Y-105586627D01*
X157571616Y-105699853D01*
X157554443Y-105756467D01*
X157498192Y-105861703D01*
X157470778Y-105912991D01*
X157447537Y-105941310D01*
X157358186Y-106050186D01*
X157256729Y-106133448D01*
X157220991Y-106162778D01*
X157220989Y-106162779D01*
X157064467Y-106246443D01*
X157007853Y-106263616D01*
X156894627Y-106297963D01*
X156828442Y-106304482D01*
X156762260Y-106311000D01*
X156673740Y-106311000D01*
X156607558Y-106304482D01*
X156541373Y-106297963D01*
X156428147Y-106263616D01*
X156371533Y-106246443D01*
X156215011Y-106162779D01*
X156215009Y-106162778D01*
X156179271Y-106133448D01*
X156077814Y-106050186D01*
X155988463Y-105941310D01*
X155965222Y-105912991D01*
X155937808Y-105861703D01*
X155881557Y-105756467D01*
X155864384Y-105699853D01*
X155830037Y-105586627D01*
X155812641Y-105410000D01*
X155830037Y-105233373D01*
X155881557Y-105063534D01*
X155881557Y-105063533D01*
X155965221Y-104907011D01*
X155965222Y-104907009D01*
X155994552Y-104871271D01*
X156077814Y-104769814D01*
X156179271Y-104686552D01*
X156215009Y-104657222D01*
X156293854Y-104615078D01*
X156371533Y-104573557D01*
X156428147Y-104556384D01*
X156541373Y-104522037D01*
X156607557Y-104515519D01*
X156673740Y-104509000D01*
X156762260Y-104509000D01*
X156828443Y-104515519D01*
X156828443Y-104515519D01*
G37*
G36*
X152566821Y-103301313D02*
X152566824Y-103301314D01*
X152566825Y-103301314D01*
X152727239Y-103349975D01*
X152727241Y-103349976D01*
X152727244Y-103349977D01*
X152875078Y-103428995D01*
X153004659Y-103535341D01*
X153111005Y-103664922D01*
X153190023Y-103812756D01*
X153238687Y-103973179D01*
X153255117Y-104140000D01*
X153238687Y-104306821D01*
X153190023Y-104467244D01*
X153111005Y-104615078D01*
X153004659Y-104744659D01*
X152875078Y-104851005D01*
X152727244Y-104930023D01*
X152727241Y-104930024D01*
X152727239Y-104930025D01*
X152566825Y-104978686D01*
X152566824Y-104978686D01*
X152566821Y-104978687D01*
X152441804Y-104991000D01*
X152358196Y-104991000D01*
X152233179Y-104978687D01*
X152233176Y-104978686D01*
X152233175Y-104978686D01*
X152072761Y-104930025D01*
X152072759Y-104930024D01*
X152072756Y-104930023D01*
X151924922Y-104851005D01*
X151795341Y-104744659D01*
X151688995Y-104615078D01*
X151609977Y-104467244D01*
X151561313Y-104306821D01*
X151544883Y-104140000D01*
X151561313Y-103973179D01*
X151609977Y-103812756D01*
X151688995Y-103664922D01*
X151795341Y-103535341D01*
X151924922Y-103428995D01*
X152072756Y-103349977D01*
X152072759Y-103349976D01*
X152072761Y-103349975D01*
X152233175Y-103301314D01*
X152233176Y-103301314D01*
X152233179Y-103301313D01*
X152358196Y-103289000D01*
X152441804Y-103289000D01*
X152566821Y-103301313D01*
X152566821Y-103301313D01*
G37*
G36*
X144946821Y-103301313D02*
X144946824Y-103301314D01*
X144946825Y-103301314D01*
X145107239Y-103349975D01*
X145107241Y-103349976D01*
X145107244Y-103349977D01*
X145255078Y-103428995D01*
X145384659Y-103535341D01*
X145491005Y-103664922D01*
X145570023Y-103812756D01*
X145618687Y-103973179D01*
X145635117Y-104140000D01*
X145618687Y-104306821D01*
X145570023Y-104467244D01*
X145491005Y-104615078D01*
X145384659Y-104744659D01*
X145255078Y-104851005D01*
X145107244Y-104930023D01*
X145107241Y-104930024D01*
X145107239Y-104930025D01*
X144946825Y-104978686D01*
X144946824Y-104978686D01*
X144946821Y-104978687D01*
X144821804Y-104991000D01*
X144738196Y-104991000D01*
X144613179Y-104978687D01*
X144613176Y-104978686D01*
X144613175Y-104978686D01*
X144452761Y-104930025D01*
X144452759Y-104930024D01*
X144452756Y-104930023D01*
X144304922Y-104851005D01*
X144175341Y-104744659D01*
X144068995Y-104615078D01*
X143989977Y-104467244D01*
X143941313Y-104306821D01*
X143924883Y-104140000D01*
X143941313Y-103973179D01*
X143989977Y-103812756D01*
X144068995Y-103664922D01*
X144175341Y-103535341D01*
X144304922Y-103428995D01*
X144452756Y-103349977D01*
X144452759Y-103349976D01*
X144452761Y-103349975D01*
X144613175Y-103301314D01*
X144613176Y-103301314D01*
X144613179Y-103301313D01*
X144738196Y-103289000D01*
X144821804Y-103289000D01*
X144946821Y-103301313D01*
X144946821Y-103301313D01*
G37*
G36*
X156828442Y-101975518D02*
X156894627Y-101982037D01*
X157007853Y-102016384D01*
X157064467Y-102033557D01*
X157142146Y-102075078D01*
X157220991Y-102117222D01*
X157251769Y-102142481D01*
X157358186Y-102229814D01*
X157441448Y-102331271D01*
X157470778Y-102367009D01*
X157470779Y-102367011D01*
X157554443Y-102523533D01*
X157554443Y-102523534D01*
X157605963Y-102693373D01*
X157623359Y-102870000D01*
X157605963Y-103046627D01*
X157572331Y-103157496D01*
X157554443Y-103216467D01*
X157507832Y-103303668D01*
X157470778Y-103372991D01*
X157441448Y-103408729D01*
X157358186Y-103510186D01*
X157256729Y-103593448D01*
X157220991Y-103622778D01*
X157220989Y-103622779D01*
X157064467Y-103706443D01*
X157007853Y-103723616D01*
X156894627Y-103757963D01*
X156828443Y-103764481D01*
X156762260Y-103771000D01*
X156673740Y-103771000D01*
X156607557Y-103764481D01*
X156541373Y-103757963D01*
X156428147Y-103723616D01*
X156371533Y-103706443D01*
X156215011Y-103622779D01*
X156215009Y-103622778D01*
X156179271Y-103593448D01*
X156077814Y-103510186D01*
X155994552Y-103408729D01*
X155965222Y-103372991D01*
X155928168Y-103303668D01*
X155881557Y-103216467D01*
X155863669Y-103157496D01*
X155830037Y-103046627D01*
X155812641Y-102870000D01*
X155830037Y-102693373D01*
X155881557Y-102523534D01*
X155881557Y-102523533D01*
X155965221Y-102367011D01*
X155965222Y-102367009D01*
X155994552Y-102331271D01*
X156077814Y-102229814D01*
X156184231Y-102142481D01*
X156215009Y-102117222D01*
X156293854Y-102075078D01*
X156371533Y-102033557D01*
X156428147Y-102016384D01*
X156541373Y-101982037D01*
X156607558Y-101975518D01*
X156673740Y-101969000D01*
X156762260Y-101969000D01*
X156828442Y-101975518D01*
X156828442Y-101975518D01*
G37*
G36*
X154436552Y-102436331D02*
X154518625Y-102470327D01*
X154518626Y-102470328D01*
X154518629Y-102470329D01*
X154592496Y-102519686D01*
X154592500Y-102519689D01*
X154655311Y-102582500D01*
X154655313Y-102582503D01*
X154655314Y-102582504D01*
X154704671Y-102656371D01*
X154704672Y-102656374D01*
X154704673Y-102656375D01*
X154738669Y-102738448D01*
X154756000Y-102825579D01*
X154756000Y-102914421D01*
X154738669Y-103001552D01*
X154719998Y-103046627D01*
X154704671Y-103083629D01*
X154655314Y-103157496D01*
X154655311Y-103157500D01*
X154592500Y-103220311D01*
X154592497Y-103220313D01*
X154592496Y-103220314D01*
X154518629Y-103269671D01*
X154518626Y-103269672D01*
X154518625Y-103269673D01*
X154436552Y-103303669D01*
X154349421Y-103321000D01*
X154260579Y-103321000D01*
X154173448Y-103303669D01*
X154091375Y-103269673D01*
X154091374Y-103269672D01*
X154091371Y-103269671D01*
X154017504Y-103220314D01*
X154017503Y-103220313D01*
X154017500Y-103220311D01*
X153954689Y-103157500D01*
X153954686Y-103157496D01*
X153905329Y-103083629D01*
X153890002Y-103046627D01*
X153871331Y-103001552D01*
X153854000Y-102914421D01*
X153854000Y-102825579D01*
X153871331Y-102738448D01*
X153905327Y-102656375D01*
X153905328Y-102656374D01*
X153905329Y-102656371D01*
X153954686Y-102582504D01*
X153954687Y-102582503D01*
X153954689Y-102582500D01*
X154017500Y-102519689D01*
X154017504Y-102519686D01*
X154091371Y-102470329D01*
X154091374Y-102470328D01*
X154091375Y-102470327D01*
X154173448Y-102436331D01*
X154260579Y-102419000D01*
X154349421Y-102419000D01*
X154436552Y-102436331D01*
X154436552Y-102436331D01*
G37*
G36*
X160297396Y-100685546D02*
X160470466Y-100757234D01*
X160626230Y-100861312D01*
X160758688Y-100993770D01*
X160862766Y-101149534D01*
X160934454Y-101322604D01*
X160971000Y-101506333D01*
X160971000Y-101693667D01*
X160934454Y-101877396D01*
X160862766Y-102050466D01*
X160758688Y-102206230D01*
X160626230Y-102338688D01*
X160470466Y-102442766D01*
X160297396Y-102514454D01*
X160113667Y-102551000D01*
X159926333Y-102551000D01*
X159742604Y-102514454D01*
X159569534Y-102442766D01*
X159413770Y-102338688D01*
X159281312Y-102206230D01*
X159177234Y-102050466D01*
X159105546Y-101877396D01*
X159069000Y-101693667D01*
X159069000Y-101506333D01*
X159105546Y-101322604D01*
X159177234Y-101149534D01*
X159281312Y-100993770D01*
X159413770Y-100861312D01*
X159569534Y-100757234D01*
X159742604Y-100685546D01*
X159926333Y-100649000D01*
X160113667Y-100649000D01*
X160297396Y-100685546D01*
X160297396Y-100685546D01*
G37*
G36*
X163511000Y-102551000D02*
X161609000Y-102551000D01*
X161609000Y-100649000D01*
X163511000Y-100649000D01*
X163511000Y-102551000D01*
X163511000Y-102551000D01*
G37*
G36*
X133031000Y-102551000D02*
X131129000Y-102551000D01*
X131129000Y-100649000D01*
X133031000Y-100649000D01*
X133031000Y-102551000D01*
X133031000Y-102551000D01*
G37*
G36*
X134897396Y-100685546D02*
X135070466Y-100757234D01*
X135226230Y-100861312D01*
X135358688Y-100993770D01*
X135462766Y-101149534D01*
X135534454Y-101322604D01*
X135571000Y-101506333D01*
X135571000Y-101693667D01*
X135534454Y-101877396D01*
X135462766Y-102050466D01*
X135358688Y-102206230D01*
X135226230Y-102338688D01*
X135070466Y-102442766D01*
X134897396Y-102514454D01*
X134713667Y-102551000D01*
X134526333Y-102551000D01*
X134342604Y-102514454D01*
X134169534Y-102442766D01*
X134013770Y-102338688D01*
X133881312Y-102206230D01*
X133777234Y-102050466D01*
X133705546Y-101877396D01*
X133669000Y-101693667D01*
X133669000Y-101506333D01*
X133705546Y-101322604D01*
X133777234Y-101149534D01*
X133881312Y-100993770D01*
X134013770Y-100861312D01*
X134169534Y-100757234D01*
X134342604Y-100685546D01*
X134526333Y-100649000D01*
X134713667Y-100649000D01*
X134897396Y-100685546D01*
X134897396Y-100685546D01*
G37*
G36*
X152566821Y-100761313D02*
X152566824Y-100761314D01*
X152566825Y-100761314D01*
X152727239Y-100809975D01*
X152727241Y-100809976D01*
X152727244Y-100809977D01*
X152875078Y-100888995D01*
X153004659Y-100995341D01*
X153111005Y-101124922D01*
X153190023Y-101272756D01*
X153190024Y-101272759D01*
X153190025Y-101272761D01*
X153238686Y-101433175D01*
X153238687Y-101433179D01*
X153255117Y-101600000D01*
X153238687Y-101766821D01*
X153238686Y-101766824D01*
X153238686Y-101766825D01*
X153205145Y-101877396D01*
X153190023Y-101927244D01*
X153111005Y-102075078D01*
X153004659Y-102204659D01*
X152875078Y-102311005D01*
X152727244Y-102390023D01*
X152727241Y-102390024D01*
X152727239Y-102390025D01*
X152566825Y-102438686D01*
X152566824Y-102438686D01*
X152566821Y-102438687D01*
X152441804Y-102451000D01*
X152358196Y-102451000D01*
X152233179Y-102438687D01*
X152233176Y-102438686D01*
X152233175Y-102438686D01*
X152072761Y-102390025D01*
X152072759Y-102390024D01*
X152072756Y-102390023D01*
X151924922Y-102311005D01*
X151795341Y-102204659D01*
X151688995Y-102075078D01*
X151609977Y-101927244D01*
X151594856Y-101877396D01*
X151561314Y-101766825D01*
X151561314Y-101766824D01*
X151561313Y-101766821D01*
X151544883Y-101600000D01*
X151561313Y-101433179D01*
X151561314Y-101433175D01*
X151609975Y-101272761D01*
X151609976Y-101272759D01*
X151609977Y-101272756D01*
X151688995Y-101124922D01*
X151795341Y-100995341D01*
X151924922Y-100888995D01*
X152072756Y-100809977D01*
X152072759Y-100809976D01*
X152072761Y-100809975D01*
X152233175Y-100761314D01*
X152233176Y-100761314D01*
X152233179Y-100761313D01*
X152358196Y-100749000D01*
X152441804Y-100749000D01*
X152566821Y-100761313D01*
X152566821Y-100761313D01*
G37*
G36*
X144946821Y-100761313D02*
X144946824Y-100761314D01*
X144946825Y-100761314D01*
X145107239Y-100809975D01*
X145107241Y-100809976D01*
X145107244Y-100809977D01*
X145255078Y-100888995D01*
X145384659Y-100995341D01*
X145491005Y-101124922D01*
X145570023Y-101272756D01*
X145570024Y-101272759D01*
X145570025Y-101272761D01*
X145618686Y-101433175D01*
X145618687Y-101433179D01*
X145635117Y-101600000D01*
X145618687Y-101766821D01*
X145618686Y-101766824D01*
X145618686Y-101766825D01*
X145585145Y-101877396D01*
X145570023Y-101927244D01*
X145491005Y-102075078D01*
X145384659Y-102204659D01*
X145255078Y-102311005D01*
X145107244Y-102390023D01*
X145107241Y-102390024D01*
X145107239Y-102390025D01*
X144946825Y-102438686D01*
X144946824Y-102438686D01*
X144946821Y-102438687D01*
X144821804Y-102451000D01*
X144738196Y-102451000D01*
X144613179Y-102438687D01*
X144613176Y-102438686D01*
X144613175Y-102438686D01*
X144452761Y-102390025D01*
X144452759Y-102390024D01*
X144452756Y-102390023D01*
X144304922Y-102311005D01*
X144175341Y-102204659D01*
X144068995Y-102075078D01*
X143989977Y-101927244D01*
X143974856Y-101877396D01*
X143941314Y-101766825D01*
X143941314Y-101766824D01*
X143941313Y-101766821D01*
X143924883Y-101600000D01*
X143941313Y-101433179D01*
X143941314Y-101433175D01*
X143989975Y-101272761D01*
X143989976Y-101272759D01*
X143989977Y-101272756D01*
X144068995Y-101124922D01*
X144175341Y-100995341D01*
X144304922Y-100888995D01*
X144452756Y-100809977D01*
X144452759Y-100809976D01*
X144452761Y-100809975D01*
X144613175Y-100761314D01*
X144613176Y-100761314D01*
X144613179Y-100761313D01*
X144738196Y-100749000D01*
X144821804Y-100749000D01*
X144946821Y-100761313D01*
X144946821Y-100761313D01*
G37*
G36*
X117006821Y-100761313D02*
X117006824Y-100761314D01*
X117006825Y-100761314D01*
X117167239Y-100809975D01*
X117167241Y-100809976D01*
X117167244Y-100809977D01*
X117315078Y-100888995D01*
X117444659Y-100995341D01*
X117551005Y-101124922D01*
X117630023Y-101272756D01*
X117630024Y-101272759D01*
X117630025Y-101272761D01*
X117678686Y-101433175D01*
X117678687Y-101433179D01*
X117695117Y-101600000D01*
X117678687Y-101766821D01*
X117678686Y-101766824D01*
X117678686Y-101766825D01*
X117645145Y-101877396D01*
X117630023Y-101927244D01*
X117551005Y-102075078D01*
X117444659Y-102204659D01*
X117315078Y-102311005D01*
X117167244Y-102390023D01*
X117167241Y-102390024D01*
X117167239Y-102390025D01*
X117006825Y-102438686D01*
X117006824Y-102438686D01*
X117006821Y-102438687D01*
X116881804Y-102451000D01*
X116798196Y-102451000D01*
X116673179Y-102438687D01*
X116673176Y-102438686D01*
X116673175Y-102438686D01*
X116512761Y-102390025D01*
X116512759Y-102390024D01*
X116512756Y-102390023D01*
X116364922Y-102311005D01*
X116235341Y-102204659D01*
X116128995Y-102075078D01*
X116049977Y-101927244D01*
X116034856Y-101877396D01*
X116001314Y-101766825D01*
X116001314Y-101766824D01*
X116001313Y-101766821D01*
X115984883Y-101600000D01*
X116001313Y-101433179D01*
X116001314Y-101433175D01*
X116049975Y-101272761D01*
X116049976Y-101272759D01*
X116049977Y-101272756D01*
X116128995Y-101124922D01*
X116235341Y-100995341D01*
X116364922Y-100888995D01*
X116512756Y-100809977D01*
X116512759Y-100809976D01*
X116512761Y-100809975D01*
X116673175Y-100761314D01*
X116673176Y-100761314D01*
X116673179Y-100761313D01*
X116798196Y-100749000D01*
X116881804Y-100749000D01*
X117006821Y-100761313D01*
X117006821Y-100761313D01*
G37*
G36*
X177966821Y-100761313D02*
X177966824Y-100761314D01*
X177966825Y-100761314D01*
X178127239Y-100809975D01*
X178127241Y-100809976D01*
X178127244Y-100809977D01*
X178275078Y-100888995D01*
X178404659Y-100995341D01*
X178511005Y-101124922D01*
X178590023Y-101272756D01*
X178590024Y-101272759D01*
X178590025Y-101272761D01*
X178638686Y-101433175D01*
X178638687Y-101433179D01*
X178655117Y-101600000D01*
X178638687Y-101766821D01*
X178638686Y-101766824D01*
X178638686Y-101766825D01*
X178605145Y-101877396D01*
X178590023Y-101927244D01*
X178511005Y-102075078D01*
X178404659Y-102204659D01*
X178275078Y-102311005D01*
X178127244Y-102390023D01*
X178127241Y-102390024D01*
X178127239Y-102390025D01*
X177966825Y-102438686D01*
X177966824Y-102438686D01*
X177966821Y-102438687D01*
X177841804Y-102451000D01*
X177758196Y-102451000D01*
X177633179Y-102438687D01*
X177633176Y-102438686D01*
X177633175Y-102438686D01*
X177472761Y-102390025D01*
X177472759Y-102390024D01*
X177472756Y-102390023D01*
X177324922Y-102311005D01*
X177195341Y-102204659D01*
X177088995Y-102075078D01*
X177009977Y-101927244D01*
X176994856Y-101877396D01*
X176961314Y-101766825D01*
X176961314Y-101766824D01*
X176961313Y-101766821D01*
X176944883Y-101600000D01*
X176961313Y-101433179D01*
X176961314Y-101433175D01*
X177009975Y-101272761D01*
X177009976Y-101272759D01*
X177009977Y-101272756D01*
X177088995Y-101124922D01*
X177195341Y-100995341D01*
X177324922Y-100888995D01*
X177472756Y-100809977D01*
X177472759Y-100809976D01*
X177472761Y-100809975D01*
X177633175Y-100761314D01*
X177633176Y-100761314D01*
X177633179Y-100761313D01*
X177758196Y-100749000D01*
X177841804Y-100749000D01*
X177966821Y-100761313D01*
X177966821Y-100761313D01*
G37*
G36*
X167888228Y-100781703D02*
X168043100Y-100845853D01*
X168182481Y-100938985D01*
X168301015Y-101057519D01*
X168394147Y-101196900D01*
X168458297Y-101351772D01*
X168491000Y-101516184D01*
X168491000Y-101683816D01*
X168458297Y-101848228D01*
X168394147Y-102003100D01*
X168301015Y-102142481D01*
X168182481Y-102261015D01*
X168043100Y-102354147D01*
X167888228Y-102418297D01*
X167723816Y-102451000D01*
X167556184Y-102451000D01*
X167391772Y-102418297D01*
X167236900Y-102354147D01*
X167097519Y-102261015D01*
X166978985Y-102142481D01*
X166885853Y-102003100D01*
X166821703Y-101848228D01*
X166789000Y-101683816D01*
X166789000Y-101516184D01*
X166821703Y-101351772D01*
X166885853Y-101196900D01*
X166978985Y-101057519D01*
X167097519Y-100938985D01*
X167236900Y-100845853D01*
X167391772Y-100781703D01*
X167556184Y-100749000D01*
X167723816Y-100749000D01*
X167888228Y-100781703D01*
X167888228Y-100781703D01*
G37*
G36*
X127248228Y-100781703D02*
X127403100Y-100845853D01*
X127542481Y-100938985D01*
X127661015Y-101057519D01*
X127754147Y-101196900D01*
X127818297Y-101351772D01*
X127851000Y-101516184D01*
X127851000Y-101683816D01*
X127818297Y-101848228D01*
X127754147Y-102003100D01*
X127661015Y-102142481D01*
X127542481Y-102261015D01*
X127403100Y-102354147D01*
X127248228Y-102418297D01*
X127083816Y-102451000D01*
X126916184Y-102451000D01*
X126751772Y-102418297D01*
X126596900Y-102354147D01*
X126457519Y-102261015D01*
X126338985Y-102142481D01*
X126245853Y-102003100D01*
X126181703Y-101848228D01*
X126149000Y-101683816D01*
X126149000Y-101516184D01*
X126181703Y-101351772D01*
X126245853Y-101196900D01*
X126338985Y-101057519D01*
X126457519Y-100938985D01*
X126596900Y-100845853D01*
X126751772Y-100781703D01*
X126916184Y-100749000D01*
X127083816Y-100749000D01*
X127248228Y-100781703D01*
X127248228Y-100781703D01*
G37*
G36*
X157619000Y-101231000D02*
X155817000Y-101231000D01*
X155817000Y-99429000D01*
X157619000Y-99429000D01*
X157619000Y-101231000D01*
X157619000Y-101231000D01*
G37*
G36*
X152566821Y-98221313D02*
X152566824Y-98221314D01*
X152566825Y-98221314D01*
X152727239Y-98269975D01*
X152727241Y-98269976D01*
X152727244Y-98269977D01*
X152875078Y-98348995D01*
X153004659Y-98455341D01*
X153111005Y-98584922D01*
X153190023Y-98732756D01*
X153238687Y-98893179D01*
X153255117Y-99060000D01*
X153238687Y-99226821D01*
X153190023Y-99387244D01*
X153111005Y-99535078D01*
X153004659Y-99664659D01*
X152875078Y-99771005D01*
X152727244Y-99850023D01*
X152727241Y-99850024D01*
X152727239Y-99850025D01*
X152566825Y-99898686D01*
X152566824Y-99898686D01*
X152566821Y-99898687D01*
X152441804Y-99911000D01*
X152358196Y-99911000D01*
X152233179Y-99898687D01*
X152233176Y-99898686D01*
X152233175Y-99898686D01*
X152072761Y-99850025D01*
X152072759Y-99850024D01*
X152072756Y-99850023D01*
X151924922Y-99771005D01*
X151795341Y-99664659D01*
X151688995Y-99535078D01*
X151609977Y-99387244D01*
X151561313Y-99226821D01*
X151544883Y-99060000D01*
X151561313Y-98893179D01*
X151609977Y-98732756D01*
X151688995Y-98584922D01*
X151795341Y-98455341D01*
X151924922Y-98348995D01*
X152072756Y-98269977D01*
X152072759Y-98269976D01*
X152072761Y-98269975D01*
X152233175Y-98221314D01*
X152233176Y-98221314D01*
X152233179Y-98221313D01*
X152358196Y-98209000D01*
X152441804Y-98209000D01*
X152566821Y-98221313D01*
X152566821Y-98221313D01*
G37*
G36*
X144946821Y-98221313D02*
X144946824Y-98221314D01*
X144946825Y-98221314D01*
X145107239Y-98269975D01*
X145107241Y-98269976D01*
X145107244Y-98269977D01*
X145255078Y-98348995D01*
X145384659Y-98455341D01*
X145491005Y-98584922D01*
X145570023Y-98732756D01*
X145618687Y-98893179D01*
X145635117Y-99060000D01*
X145618687Y-99226821D01*
X145570023Y-99387244D01*
X145491005Y-99535078D01*
X145384659Y-99664659D01*
X145255078Y-99771005D01*
X145107244Y-99850023D01*
X145107241Y-99850024D01*
X145107239Y-99850025D01*
X144946825Y-99898686D01*
X144946824Y-99898686D01*
X144946821Y-99898687D01*
X144821804Y-99911000D01*
X144738196Y-99911000D01*
X144613179Y-99898687D01*
X144613176Y-99898686D01*
X144613175Y-99898686D01*
X144452761Y-99850025D01*
X144452759Y-99850024D01*
X144452756Y-99850023D01*
X144304922Y-99771005D01*
X144175341Y-99664659D01*
X144068995Y-99535078D01*
X143989977Y-99387244D01*
X143941313Y-99226821D01*
X143924883Y-99060000D01*
X143941313Y-98893179D01*
X143989977Y-98732756D01*
X144068995Y-98584922D01*
X144175341Y-98455341D01*
X144304922Y-98348995D01*
X144452756Y-98269977D01*
X144452759Y-98269976D01*
X144452761Y-98269975D01*
X144613175Y-98221314D01*
X144613176Y-98221314D01*
X144613179Y-98221313D01*
X144738196Y-98209000D01*
X144821804Y-98209000D01*
X144946821Y-98221313D01*
X144946821Y-98221313D01*
G37*
G36*
X154436552Y-97356331D02*
X154518625Y-97390327D01*
X154518626Y-97390328D01*
X154518629Y-97390329D01*
X154592496Y-97439686D01*
X154592500Y-97439689D01*
X154655311Y-97502500D01*
X154655313Y-97502503D01*
X154655314Y-97502504D01*
X154704671Y-97576371D01*
X154704672Y-97576374D01*
X154704673Y-97576375D01*
X154738669Y-97658448D01*
X154756000Y-97745579D01*
X154756000Y-97834421D01*
X154738669Y-97921552D01*
X154704673Y-98003625D01*
X154704671Y-98003629D01*
X154655314Y-98077496D01*
X154655311Y-98077500D01*
X154592500Y-98140311D01*
X154592497Y-98140313D01*
X154592496Y-98140314D01*
X154518629Y-98189671D01*
X154518626Y-98189672D01*
X154518625Y-98189673D01*
X154436552Y-98223669D01*
X154349421Y-98241000D01*
X154260579Y-98241000D01*
X154173448Y-98223669D01*
X154091375Y-98189673D01*
X154091374Y-98189672D01*
X154091371Y-98189671D01*
X154017504Y-98140314D01*
X154017503Y-98140313D01*
X154017500Y-98140311D01*
X153954689Y-98077500D01*
X153954686Y-98077496D01*
X153905329Y-98003629D01*
X153905327Y-98003625D01*
X153871331Y-97921552D01*
X153854000Y-97834421D01*
X153854000Y-97745579D01*
X153871331Y-97658448D01*
X153905327Y-97576375D01*
X153905328Y-97576374D01*
X153905329Y-97576371D01*
X153954686Y-97502504D01*
X153954687Y-97502503D01*
X153954689Y-97502500D01*
X154017500Y-97439689D01*
X154017504Y-97439686D01*
X154091371Y-97390329D01*
X154091374Y-97390328D01*
X154091375Y-97390327D01*
X154173448Y-97356331D01*
X154260579Y-97339000D01*
X154349421Y-97339000D01*
X154436552Y-97356331D01*
X154436552Y-97356331D01*
G37*
G36*
X163511000Y-97471000D02*
X161609000Y-97471000D01*
X161609000Y-95569000D01*
X163511000Y-95569000D01*
X163511000Y-97471000D01*
X163511000Y-97471000D01*
G37*
G36*
X160297396Y-95605546D02*
X160470466Y-95677234D01*
X160626230Y-95781312D01*
X160758688Y-95913770D01*
X160862766Y-96069534D01*
X160934454Y-96242604D01*
X160971000Y-96426333D01*
X160971000Y-96613667D01*
X160934454Y-96797396D01*
X160862766Y-96970466D01*
X160758688Y-97126230D01*
X160626230Y-97258688D01*
X160470466Y-97362766D01*
X160297396Y-97434454D01*
X160113667Y-97471000D01*
X159926333Y-97471000D01*
X159742604Y-97434454D01*
X159569534Y-97362766D01*
X159413770Y-97258688D01*
X159281312Y-97126230D01*
X159177234Y-96970466D01*
X159105546Y-96797396D01*
X159069000Y-96613667D01*
X159069000Y-96426333D01*
X159105546Y-96242604D01*
X159177234Y-96069534D01*
X159281312Y-95913770D01*
X159413770Y-95781312D01*
X159569534Y-95677234D01*
X159742604Y-95605546D01*
X159926333Y-95569000D01*
X160113667Y-95569000D01*
X160297396Y-95605546D01*
X160297396Y-95605546D01*
G37*
G36*
X152566821Y-95681313D02*
X152566824Y-95681314D01*
X152566825Y-95681314D01*
X152727239Y-95729975D01*
X152727241Y-95729976D01*
X152727244Y-95729977D01*
X152875078Y-95808995D01*
X153004659Y-95915341D01*
X153111005Y-96044922D01*
X153190023Y-96192756D01*
X153190024Y-96192759D01*
X153190025Y-96192761D01*
X153238686Y-96353175D01*
X153238687Y-96353179D01*
X153255117Y-96520000D01*
X153238687Y-96686821D01*
X153238686Y-96686824D01*
X153238686Y-96686825D01*
X153205145Y-96797396D01*
X153190023Y-96847244D01*
X153111005Y-96995078D01*
X153004659Y-97124659D01*
X152875078Y-97231005D01*
X152727244Y-97310023D01*
X152727241Y-97310024D01*
X152727239Y-97310025D01*
X152566825Y-97358686D01*
X152566824Y-97358686D01*
X152566821Y-97358687D01*
X152441804Y-97371000D01*
X152358196Y-97371000D01*
X152233179Y-97358687D01*
X152233176Y-97358686D01*
X152233175Y-97358686D01*
X152072761Y-97310025D01*
X152072759Y-97310024D01*
X152072756Y-97310023D01*
X151924922Y-97231005D01*
X151795341Y-97124659D01*
X151688995Y-96995078D01*
X151609977Y-96847244D01*
X151594856Y-96797396D01*
X151561314Y-96686825D01*
X151561314Y-96686824D01*
X151561313Y-96686821D01*
X151544883Y-96520000D01*
X151561313Y-96353179D01*
X151561314Y-96353175D01*
X151609975Y-96192761D01*
X151609976Y-96192759D01*
X151609977Y-96192756D01*
X151688995Y-96044922D01*
X151795341Y-95915341D01*
X151924922Y-95808995D01*
X152072756Y-95729977D01*
X152072759Y-95729976D01*
X152072761Y-95729975D01*
X152233175Y-95681314D01*
X152233176Y-95681314D01*
X152233179Y-95681313D01*
X152358196Y-95669000D01*
X152441804Y-95669000D01*
X152566821Y-95681313D01*
X152566821Y-95681313D01*
G37*
G36*
X144946821Y-95681313D02*
X144946824Y-95681314D01*
X144946825Y-95681314D01*
X145107239Y-95729975D01*
X145107241Y-95729976D01*
X145107244Y-95729977D01*
X145255078Y-95808995D01*
X145384659Y-95915341D01*
X145491005Y-96044922D01*
X145570023Y-96192756D01*
X145570024Y-96192759D01*
X145570025Y-96192761D01*
X145618686Y-96353175D01*
X145618687Y-96353179D01*
X145635117Y-96520000D01*
X145618687Y-96686821D01*
X145618686Y-96686824D01*
X145618686Y-96686825D01*
X145585145Y-96797396D01*
X145570023Y-96847244D01*
X145491005Y-96995078D01*
X145384659Y-97124659D01*
X145255078Y-97231005D01*
X145107244Y-97310023D01*
X145107241Y-97310024D01*
X145107239Y-97310025D01*
X144946825Y-97358686D01*
X144946824Y-97358686D01*
X144946821Y-97358687D01*
X144821804Y-97371000D01*
X144738196Y-97371000D01*
X144613179Y-97358687D01*
X144613176Y-97358686D01*
X144613175Y-97358686D01*
X144452761Y-97310025D01*
X144452759Y-97310024D01*
X144452756Y-97310023D01*
X144304922Y-97231005D01*
X144175341Y-97124659D01*
X144068995Y-96995078D01*
X143989977Y-96847244D01*
X143974856Y-96797396D01*
X143941314Y-96686825D01*
X143941314Y-96686824D01*
X143941313Y-96686821D01*
X143924883Y-96520000D01*
X143941313Y-96353179D01*
X143941314Y-96353175D01*
X143989975Y-96192761D01*
X143989976Y-96192759D01*
X143989977Y-96192756D01*
X144068995Y-96044922D01*
X144175341Y-95915341D01*
X144304922Y-95808995D01*
X144452756Y-95729977D01*
X144452759Y-95729976D01*
X144452761Y-95729975D01*
X144613175Y-95681314D01*
X144613176Y-95681314D01*
X144613179Y-95681313D01*
X144738196Y-95669000D01*
X144821804Y-95669000D01*
X144946821Y-95681313D01*
X144946821Y-95681313D01*
G37*
G36*
X177966821Y-95681313D02*
X177966824Y-95681314D01*
X177966825Y-95681314D01*
X178127239Y-95729975D01*
X178127241Y-95729976D01*
X178127244Y-95729977D01*
X178275078Y-95808995D01*
X178404659Y-95915341D01*
X178511005Y-96044922D01*
X178590023Y-96192756D01*
X178590024Y-96192759D01*
X178590025Y-96192761D01*
X178638686Y-96353175D01*
X178638687Y-96353179D01*
X178655117Y-96520000D01*
X178638687Y-96686821D01*
X178638686Y-96686824D01*
X178638686Y-96686825D01*
X178605145Y-96797396D01*
X178590023Y-96847244D01*
X178511005Y-96995078D01*
X178404659Y-97124659D01*
X178275078Y-97231005D01*
X178127244Y-97310023D01*
X178127241Y-97310024D01*
X178127239Y-97310025D01*
X177966825Y-97358686D01*
X177966824Y-97358686D01*
X177966821Y-97358687D01*
X177841804Y-97371000D01*
X177758196Y-97371000D01*
X177633179Y-97358687D01*
X177633176Y-97358686D01*
X177633175Y-97358686D01*
X177472761Y-97310025D01*
X177472759Y-97310024D01*
X177472756Y-97310023D01*
X177324922Y-97231005D01*
X177195341Y-97124659D01*
X177088995Y-96995078D01*
X177009977Y-96847244D01*
X176994856Y-96797396D01*
X176961314Y-96686825D01*
X176961314Y-96686824D01*
X176961313Y-96686821D01*
X176944883Y-96520000D01*
X176961313Y-96353179D01*
X176961314Y-96353175D01*
X177009975Y-96192761D01*
X177009976Y-96192759D01*
X177009977Y-96192756D01*
X177088995Y-96044922D01*
X177195341Y-95915341D01*
X177324922Y-95808995D01*
X177472756Y-95729977D01*
X177472759Y-95729976D01*
X177472761Y-95729975D01*
X177633175Y-95681314D01*
X177633176Y-95681314D01*
X177633179Y-95681313D01*
X177758196Y-95669000D01*
X177841804Y-95669000D01*
X177966821Y-95681313D01*
X177966821Y-95681313D01*
G37*
G36*
X167888228Y-95701703D02*
X168043100Y-95765853D01*
X168182481Y-95858985D01*
X168301015Y-95977519D01*
X168394147Y-96116900D01*
X168458297Y-96271772D01*
X168491000Y-96436184D01*
X168491000Y-96603816D01*
X168458297Y-96768228D01*
X168394147Y-96923100D01*
X168301015Y-97062481D01*
X168182481Y-97181015D01*
X168043100Y-97274147D01*
X167888228Y-97338297D01*
X167723816Y-97371000D01*
X167556184Y-97371000D01*
X167391772Y-97338297D01*
X167236900Y-97274147D01*
X167097519Y-97181015D01*
X166978985Y-97062481D01*
X166885853Y-96923100D01*
X166821703Y-96768228D01*
X166789000Y-96603816D01*
X166789000Y-96436184D01*
X166821703Y-96271772D01*
X166885853Y-96116900D01*
X166978985Y-95977519D01*
X167097519Y-95858985D01*
X167236900Y-95765853D01*
X167391772Y-95701703D01*
X167556184Y-95669000D01*
X167723816Y-95669000D01*
X167888228Y-95701703D01*
X167888228Y-95701703D01*
G37*
G36*
X115736821Y-94291313D02*
X115736824Y-94291314D01*
X115736825Y-94291314D01*
X115897239Y-94339975D01*
X115897241Y-94339976D01*
X115897244Y-94339977D01*
X116045078Y-94418995D01*
X116174659Y-94525341D01*
X116281005Y-94654922D01*
X116360023Y-94802756D01*
X116360024Y-94802759D01*
X116360025Y-94802761D01*
X116364856Y-94818687D01*
X116408687Y-94963179D01*
X116425117Y-95130000D01*
X116408687Y-95296821D01*
X116360023Y-95457244D01*
X116281005Y-95605078D01*
X116174659Y-95734659D01*
X116045078Y-95841005D01*
X115897244Y-95920023D01*
X115897241Y-95920024D01*
X115897239Y-95920025D01*
X115736825Y-95968686D01*
X115736824Y-95968686D01*
X115736821Y-95968687D01*
X115611804Y-95981000D01*
X115528196Y-95981000D01*
X115403179Y-95968687D01*
X115403176Y-95968686D01*
X115403175Y-95968686D01*
X115242761Y-95920025D01*
X115242759Y-95920024D01*
X115242756Y-95920023D01*
X115094922Y-95841005D01*
X114965341Y-95734659D01*
X114858995Y-95605078D01*
X114779977Y-95457244D01*
X114731313Y-95296821D01*
X114714883Y-95130000D01*
X114731313Y-94963179D01*
X114775144Y-94818687D01*
X114779975Y-94802761D01*
X114779976Y-94802759D01*
X114779977Y-94802756D01*
X114858995Y-94654922D01*
X114965341Y-94525341D01*
X115094922Y-94418995D01*
X115242756Y-94339977D01*
X115242759Y-94339976D01*
X115242761Y-94339975D01*
X115403175Y-94291314D01*
X115403176Y-94291314D01*
X115403179Y-94291313D01*
X115528196Y-94279000D01*
X115611804Y-94279000D01*
X115736821Y-94291313D01*
X115736821Y-94291313D01*
G37*
G36*
X144946821Y-93141313D02*
X144946824Y-93141314D01*
X144946825Y-93141314D01*
X145107239Y-93189975D01*
X145107241Y-93189976D01*
X145107244Y-93189977D01*
X145255078Y-93268995D01*
X145384659Y-93375341D01*
X145491005Y-93504922D01*
X145570023Y-93652756D01*
X145570024Y-93652759D01*
X145570025Y-93652761D01*
X145598417Y-93746357D01*
X145618687Y-93813179D01*
X145635117Y-93980000D01*
X145618687Y-94146821D01*
X145618686Y-94146824D01*
X145618686Y-94146825D01*
X145574856Y-94291314D01*
X145570023Y-94307244D01*
X145491005Y-94455078D01*
X145384659Y-94584659D01*
X145255078Y-94691005D01*
X145107244Y-94770023D01*
X145107241Y-94770024D01*
X145107239Y-94770025D01*
X144946825Y-94818686D01*
X144946824Y-94818686D01*
X144946821Y-94818687D01*
X144821804Y-94831000D01*
X144738196Y-94831000D01*
X144613179Y-94818687D01*
X144613176Y-94818686D01*
X144613175Y-94818686D01*
X144452761Y-94770025D01*
X144452759Y-94770024D01*
X144452756Y-94770023D01*
X144304922Y-94691005D01*
X144175341Y-94584659D01*
X144068995Y-94455078D01*
X143989977Y-94307244D01*
X143985145Y-94291314D01*
X143941314Y-94146825D01*
X143941314Y-94146824D01*
X143941313Y-94146821D01*
X143924883Y-93980000D01*
X143941313Y-93813179D01*
X143961583Y-93746357D01*
X143989975Y-93652761D01*
X143989976Y-93652759D01*
X143989977Y-93652756D01*
X144068995Y-93504922D01*
X144175341Y-93375341D01*
X144304922Y-93268995D01*
X144452756Y-93189977D01*
X144452759Y-93189976D01*
X144452761Y-93189975D01*
X144613175Y-93141314D01*
X144613176Y-93141314D01*
X144613179Y-93141313D01*
X144738196Y-93129000D01*
X144821804Y-93129000D01*
X144946821Y-93141313D01*
X144946821Y-93141313D01*
G37*
G36*
X127046821Y-93141313D02*
X127046824Y-93141314D01*
X127046825Y-93141314D01*
X127207239Y-93189975D01*
X127207241Y-93189976D01*
X127207244Y-93189977D01*
X127355078Y-93268995D01*
X127484659Y-93375341D01*
X127591005Y-93504922D01*
X127670023Y-93652756D01*
X127670024Y-93652759D01*
X127670025Y-93652761D01*
X127698417Y-93746357D01*
X127718687Y-93813179D01*
X127735117Y-93980000D01*
X127718687Y-94146821D01*
X127718686Y-94146824D01*
X127718686Y-94146825D01*
X127674856Y-94291314D01*
X127670023Y-94307244D01*
X127591005Y-94455078D01*
X127484659Y-94584659D01*
X127355078Y-94691005D01*
X127207244Y-94770023D01*
X127207241Y-94770024D01*
X127207239Y-94770025D01*
X127046825Y-94818686D01*
X127046824Y-94818686D01*
X127046821Y-94818687D01*
X126921804Y-94831000D01*
X126838196Y-94831000D01*
X126713179Y-94818687D01*
X126713176Y-94818686D01*
X126713175Y-94818686D01*
X126552761Y-94770025D01*
X126552759Y-94770024D01*
X126552756Y-94770023D01*
X126404922Y-94691005D01*
X126275341Y-94584659D01*
X126168995Y-94455078D01*
X126089977Y-94307244D01*
X126085145Y-94291314D01*
X126041314Y-94146825D01*
X126041314Y-94146824D01*
X126041313Y-94146821D01*
X126024883Y-93980000D01*
X126041313Y-93813179D01*
X126061583Y-93746357D01*
X126089975Y-93652761D01*
X126089976Y-93652759D01*
X126089977Y-93652756D01*
X126168995Y-93504922D01*
X126275341Y-93375341D01*
X126404922Y-93268995D01*
X126552756Y-93189977D01*
X126552759Y-93189976D01*
X126552761Y-93189975D01*
X126713175Y-93141314D01*
X126713176Y-93141314D01*
X126713179Y-93141313D01*
X126838196Y-93129000D01*
X126921804Y-93129000D01*
X127046821Y-93141313D01*
X127046821Y-93141313D01*
G37*
G36*
X119628228Y-93161703D02*
X119783100Y-93225853D01*
X119922481Y-93318985D01*
X120041015Y-93437519D01*
X120134147Y-93576900D01*
X120198297Y-93731772D01*
X120231000Y-93896184D01*
X120231000Y-94063816D01*
X120198297Y-94228228D01*
X120134147Y-94383100D01*
X120041015Y-94522481D01*
X119922481Y-94641015D01*
X119783100Y-94734147D01*
X119628228Y-94798297D01*
X119463816Y-94831000D01*
X119296184Y-94831000D01*
X119131772Y-94798297D01*
X118976900Y-94734147D01*
X118837519Y-94641015D01*
X118718985Y-94522481D01*
X118625853Y-94383100D01*
X118561703Y-94228228D01*
X118529000Y-94063816D01*
X118529000Y-93896184D01*
X118561703Y-93731772D01*
X118625853Y-93576900D01*
X118718985Y-93437519D01*
X118837519Y-93318985D01*
X118976900Y-93225853D01*
X119131772Y-93161703D01*
X119296184Y-93129000D01*
X119463816Y-93129000D01*
X119628228Y-93161703D01*
X119628228Y-93161703D01*
G37*
G36*
X152566821Y-93141313D02*
X152566824Y-93141314D01*
X152566825Y-93141314D01*
X152727239Y-93189975D01*
X152727241Y-93189976D01*
X152727244Y-93189977D01*
X152875078Y-93268995D01*
X153004659Y-93375341D01*
X153111005Y-93504922D01*
X153190023Y-93652756D01*
X153190024Y-93652759D01*
X153190025Y-93652761D01*
X153218417Y-93746357D01*
X153238687Y-93813179D01*
X153255117Y-93980000D01*
X153238687Y-94146821D01*
X153238686Y-94146824D01*
X153238686Y-94146825D01*
X153194856Y-94291314D01*
X153190023Y-94307244D01*
X153111005Y-94455078D01*
X153004659Y-94584659D01*
X152875078Y-94691005D01*
X152727244Y-94770023D01*
X152727241Y-94770024D01*
X152727239Y-94770025D01*
X152566825Y-94818686D01*
X152566824Y-94818686D01*
X152566821Y-94818687D01*
X152441804Y-94831000D01*
X152358196Y-94831000D01*
X152233179Y-94818687D01*
X152233176Y-94818686D01*
X152233175Y-94818686D01*
X152072761Y-94770025D01*
X152072759Y-94770024D01*
X152072756Y-94770023D01*
X151924922Y-94691005D01*
X151795341Y-94584659D01*
X151688995Y-94455078D01*
X151609977Y-94307244D01*
X151605145Y-94291314D01*
X151561314Y-94146825D01*
X151561314Y-94146824D01*
X151561313Y-94146821D01*
X151544883Y-93980000D01*
X151561313Y-93813179D01*
X151581583Y-93746357D01*
X151609975Y-93652761D01*
X151609976Y-93652759D01*
X151609977Y-93652756D01*
X151688995Y-93504922D01*
X151795341Y-93375341D01*
X151924922Y-93268995D01*
X152072756Y-93189977D01*
X152072759Y-93189976D01*
X152072761Y-93189975D01*
X152233175Y-93141314D01*
X152233176Y-93141314D01*
X152233179Y-93141313D01*
X152358196Y-93129000D01*
X152441804Y-93129000D01*
X152566821Y-93141313D01*
X152566821Y-93141313D01*
G37*
G36*
X132313643Y-93209781D02*
X132459415Y-93270162D01*
X132590611Y-93357824D01*
X132702176Y-93469389D01*
X132789838Y-93600585D01*
X132850219Y-93746357D01*
X132881000Y-93901107D01*
X132881000Y-94058893D01*
X132850219Y-94213643D01*
X132789838Y-94359415D01*
X132702176Y-94490611D01*
X132590611Y-94602176D01*
X132459415Y-94689838D01*
X132313643Y-94750219D01*
X132158893Y-94781000D01*
X132001107Y-94781000D01*
X131846357Y-94750219D01*
X131700585Y-94689838D01*
X131569389Y-94602176D01*
X131457824Y-94490611D01*
X131370162Y-94359415D01*
X131309781Y-94213643D01*
X131279000Y-94058893D01*
X131279000Y-93901107D01*
X131309781Y-93746357D01*
X131370162Y-93600585D01*
X131457824Y-93469389D01*
X131569389Y-93357824D01*
X131700585Y-93270162D01*
X131846357Y-93209781D01*
X132001107Y-93179000D01*
X132158893Y-93179000D01*
X132313643Y-93209781D01*
X132313643Y-93209781D01*
G37*
G36*
X161400443Y-90545519D02*
X161466627Y-90552037D01*
X161579853Y-90586384D01*
X161636467Y-90603557D01*
X161723311Y-90649977D01*
X161792991Y-90687222D01*
X161828729Y-90716552D01*
X161930186Y-90799814D01*
X162013448Y-90901271D01*
X162042778Y-90937009D01*
X162042779Y-90937011D01*
X162126443Y-91093533D01*
X162143616Y-91150147D01*
X162177963Y-91263373D01*
X162195359Y-91440000D01*
X162177963Y-91616627D01*
X162143616Y-91729853D01*
X162126443Y-91786467D01*
X162057698Y-91915078D01*
X162042778Y-91942991D01*
X162013448Y-91978729D01*
X161930186Y-92080186D01*
X161828729Y-92163448D01*
X161792991Y-92192778D01*
X161792989Y-92192779D01*
X161636467Y-92276443D01*
X161629069Y-92278687D01*
X161466627Y-92327963D01*
X161400443Y-92334481D01*
X161334260Y-92341000D01*
X161245740Y-92341000D01*
X161179557Y-92334481D01*
X161113373Y-92327963D01*
X160950931Y-92278687D01*
X160943533Y-92276443D01*
X160787011Y-92192779D01*
X160787009Y-92192778D01*
X160751271Y-92163448D01*
X160649814Y-92080186D01*
X160566552Y-91978729D01*
X160537222Y-91942991D01*
X160522302Y-91915078D01*
X160453557Y-91786467D01*
X160436384Y-91729853D01*
X160402037Y-91616627D01*
X160384641Y-91440000D01*
X160402037Y-91263373D01*
X160436384Y-91150147D01*
X160453557Y-91093533D01*
X160537221Y-90937011D01*
X160537222Y-90937009D01*
X160566552Y-90901271D01*
X160649814Y-90799814D01*
X160751271Y-90716552D01*
X160787009Y-90687222D01*
X160856689Y-90649977D01*
X160943533Y-90603557D01*
X161000147Y-90586384D01*
X161113373Y-90552037D01*
X161179558Y-90545518D01*
X161245740Y-90539000D01*
X161334260Y-90539000D01*
X161400443Y-90545519D01*
X161400443Y-90545519D01*
G37*
G36*
X139810443Y-90545519D02*
X139876627Y-90552037D01*
X139989853Y-90586384D01*
X140046467Y-90603557D01*
X140133311Y-90649977D01*
X140202991Y-90687222D01*
X140238729Y-90716552D01*
X140340186Y-90799814D01*
X140423448Y-90901271D01*
X140452778Y-90937009D01*
X140452779Y-90937011D01*
X140536443Y-91093533D01*
X140553616Y-91150147D01*
X140587963Y-91263373D01*
X140605359Y-91440000D01*
X140587963Y-91616627D01*
X140553616Y-91729853D01*
X140536443Y-91786467D01*
X140467698Y-91915078D01*
X140452778Y-91942991D01*
X140423448Y-91978729D01*
X140340186Y-92080186D01*
X140238729Y-92163448D01*
X140202991Y-92192778D01*
X140202989Y-92192779D01*
X140046467Y-92276443D01*
X140039069Y-92278687D01*
X139876627Y-92327963D01*
X139810443Y-92334481D01*
X139744260Y-92341000D01*
X139655740Y-92341000D01*
X139589557Y-92334481D01*
X139523373Y-92327963D01*
X139360931Y-92278687D01*
X139353533Y-92276443D01*
X139197011Y-92192779D01*
X139197009Y-92192778D01*
X139161271Y-92163448D01*
X139059814Y-92080186D01*
X138976552Y-91978729D01*
X138947222Y-91942991D01*
X138932302Y-91915078D01*
X138863557Y-91786467D01*
X138846384Y-91729853D01*
X138812037Y-91616627D01*
X138794641Y-91440000D01*
X138812037Y-91263373D01*
X138846384Y-91150147D01*
X138863557Y-91093533D01*
X138947221Y-90937011D01*
X138947222Y-90937009D01*
X138976552Y-90901271D01*
X139059814Y-90799814D01*
X139161271Y-90716552D01*
X139197009Y-90687222D01*
X139266689Y-90649977D01*
X139353533Y-90603557D01*
X139410147Y-90586384D01*
X139523373Y-90552037D01*
X139589557Y-90545519D01*
X139655740Y-90539000D01*
X139744260Y-90539000D01*
X139810443Y-90545519D01*
X139810443Y-90545519D01*
G37*
G36*
X144946821Y-90601313D02*
X144946824Y-90601314D01*
X144946825Y-90601314D01*
X145107239Y-90649975D01*
X145107241Y-90649976D01*
X145107244Y-90649977D01*
X145255078Y-90728995D01*
X145384659Y-90835341D01*
X145491005Y-90964922D01*
X145570023Y-91112756D01*
X145570024Y-91112759D01*
X145570025Y-91112761D01*
X145615713Y-91263375D01*
X145618687Y-91273179D01*
X145635117Y-91440000D01*
X145618687Y-91606821D01*
X145618686Y-91606824D01*
X145618686Y-91606825D01*
X145615713Y-91616627D01*
X145570023Y-91767244D01*
X145491005Y-91915078D01*
X145384659Y-92044659D01*
X145255078Y-92151005D01*
X145107244Y-92230023D01*
X145107241Y-92230024D01*
X145107239Y-92230025D01*
X144946825Y-92278686D01*
X144946824Y-92278686D01*
X144946821Y-92278687D01*
X144821804Y-92291000D01*
X144738196Y-92291000D01*
X144613179Y-92278687D01*
X144613176Y-92278686D01*
X144613175Y-92278686D01*
X144452761Y-92230025D01*
X144452759Y-92230024D01*
X144452756Y-92230023D01*
X144304922Y-92151005D01*
X144175341Y-92044659D01*
X144068995Y-91915078D01*
X143989977Y-91767244D01*
X143944288Y-91616627D01*
X143941314Y-91606825D01*
X143941314Y-91606824D01*
X143941313Y-91606821D01*
X143924883Y-91440000D01*
X143941313Y-91273179D01*
X143944287Y-91263375D01*
X143989975Y-91112761D01*
X143989976Y-91112759D01*
X143989977Y-91112756D01*
X144068995Y-90964922D01*
X144175341Y-90835341D01*
X144304922Y-90728995D01*
X144452756Y-90649977D01*
X144452759Y-90649976D01*
X144452761Y-90649975D01*
X144613175Y-90601314D01*
X144613176Y-90601314D01*
X144613179Y-90601313D01*
X144738196Y-90589000D01*
X144821804Y-90589000D01*
X144946821Y-90601313D01*
X144946821Y-90601313D01*
G37*
G36*
X152566821Y-90601313D02*
X152566824Y-90601314D01*
X152566825Y-90601314D01*
X152727239Y-90649975D01*
X152727241Y-90649976D01*
X152727244Y-90649977D01*
X152875078Y-90728995D01*
X153004659Y-90835341D01*
X153111005Y-90964922D01*
X153190023Y-91112756D01*
X153190024Y-91112759D01*
X153190025Y-91112761D01*
X153235713Y-91263375D01*
X153238687Y-91273179D01*
X153255117Y-91440000D01*
X153238687Y-91606821D01*
X153238686Y-91606824D01*
X153238686Y-91606825D01*
X153235713Y-91616627D01*
X153190023Y-91767244D01*
X153111005Y-91915078D01*
X153004659Y-92044659D01*
X152875078Y-92151005D01*
X152727244Y-92230023D01*
X152727241Y-92230024D01*
X152727239Y-92230025D01*
X152566825Y-92278686D01*
X152566824Y-92278686D01*
X152566821Y-92278687D01*
X152441804Y-92291000D01*
X152358196Y-92291000D01*
X152233179Y-92278687D01*
X152233176Y-92278686D01*
X152233175Y-92278686D01*
X152072761Y-92230025D01*
X152072759Y-92230024D01*
X152072756Y-92230023D01*
X151924922Y-92151005D01*
X151795341Y-92044659D01*
X151688995Y-91915078D01*
X151609977Y-91767244D01*
X151564288Y-91616627D01*
X151561314Y-91606825D01*
X151561314Y-91606824D01*
X151561313Y-91606821D01*
X151544883Y-91440000D01*
X151561313Y-91273179D01*
X151564287Y-91263375D01*
X151609975Y-91112761D01*
X151609976Y-91112759D01*
X151609977Y-91112756D01*
X151688995Y-90964922D01*
X151795341Y-90835341D01*
X151924922Y-90728995D01*
X152072756Y-90649977D01*
X152072759Y-90649976D01*
X152072761Y-90649975D01*
X152233175Y-90601314D01*
X152233176Y-90601314D01*
X152233179Y-90601313D01*
X152358196Y-90589000D01*
X152441804Y-90589000D01*
X152566821Y-90601313D01*
X152566821Y-90601313D01*
G37*
G36*
X132313643Y-88329781D02*
X132459415Y-88390162D01*
X132590611Y-88477824D01*
X132702176Y-88589389D01*
X132789838Y-88720585D01*
X132850219Y-88866357D01*
X132881000Y-89021107D01*
X132881000Y-89178893D01*
X132850219Y-89333643D01*
X132789838Y-89479415D01*
X132702176Y-89610611D01*
X132590611Y-89722176D01*
X132459415Y-89809838D01*
X132313643Y-89870219D01*
X132158893Y-89901000D01*
X132001107Y-89901000D01*
X131846357Y-89870219D01*
X131700585Y-89809838D01*
X131569389Y-89722176D01*
X131457824Y-89610611D01*
X131370162Y-89479415D01*
X131309781Y-89333643D01*
X131279000Y-89178893D01*
X131279000Y-89021107D01*
X131309781Y-88866357D01*
X131370162Y-88720585D01*
X131457824Y-88589389D01*
X131569389Y-88477824D01*
X131700585Y-88390162D01*
X131846357Y-88329781D01*
X132001107Y-88299000D01*
X132158893Y-88299000D01*
X132313643Y-88329781D01*
X132313643Y-88329781D01*
G37*
G36*
X139810443Y-88005519D02*
X139876627Y-88012037D01*
X139989853Y-88046384D01*
X140046467Y-88063557D01*
X140133311Y-88109977D01*
X140202991Y-88147222D01*
X140233769Y-88172481D01*
X140340186Y-88259814D01*
X140397606Y-88329782D01*
X140452778Y-88397009D01*
X140452779Y-88397011D01*
X140536443Y-88553533D01*
X140547320Y-88589392D01*
X140587963Y-88723373D01*
X140605359Y-88900000D01*
X140587963Y-89076627D01*
X140566243Y-89148228D01*
X140536443Y-89246467D01*
X140489846Y-89333643D01*
X140452778Y-89402991D01*
X140423448Y-89438729D01*
X140340186Y-89540186D01*
X140238729Y-89623448D01*
X140202991Y-89652778D01*
X140202989Y-89652779D01*
X140046467Y-89736443D01*
X140039069Y-89738687D01*
X139876627Y-89787963D01*
X139810443Y-89794481D01*
X139744260Y-89801000D01*
X139655740Y-89801000D01*
X139589557Y-89794481D01*
X139523373Y-89787963D01*
X139360931Y-89738687D01*
X139353533Y-89736443D01*
X139197011Y-89652779D01*
X139197009Y-89652778D01*
X139161271Y-89623448D01*
X139059814Y-89540186D01*
X138976552Y-89438729D01*
X138947222Y-89402991D01*
X138910154Y-89333643D01*
X138863557Y-89246467D01*
X138833757Y-89148228D01*
X138812037Y-89076627D01*
X138794641Y-88900000D01*
X138812037Y-88723373D01*
X138852680Y-88589392D01*
X138863557Y-88553533D01*
X138947221Y-88397011D01*
X138947222Y-88397009D01*
X139002394Y-88329782D01*
X139059814Y-88259814D01*
X139166231Y-88172481D01*
X139197009Y-88147222D01*
X139266689Y-88109977D01*
X139353533Y-88063557D01*
X139410147Y-88046384D01*
X139523373Y-88012037D01*
X139589557Y-88005519D01*
X139655740Y-87999000D01*
X139744260Y-87999000D01*
X139810443Y-88005519D01*
X139810443Y-88005519D01*
G37*
G36*
X161400443Y-88005519D02*
X161466627Y-88012037D01*
X161579853Y-88046384D01*
X161636467Y-88063557D01*
X161723311Y-88109977D01*
X161792991Y-88147222D01*
X161823769Y-88172481D01*
X161930186Y-88259814D01*
X161987606Y-88329782D01*
X162042778Y-88397009D01*
X162042779Y-88397011D01*
X162126443Y-88553533D01*
X162137320Y-88589392D01*
X162177963Y-88723373D01*
X162195359Y-88900000D01*
X162177963Y-89076627D01*
X162156243Y-89148228D01*
X162126443Y-89246467D01*
X162079846Y-89333643D01*
X162042778Y-89402991D01*
X162013448Y-89438729D01*
X161930186Y-89540186D01*
X161828729Y-89623448D01*
X161792991Y-89652778D01*
X161792989Y-89652779D01*
X161636467Y-89736443D01*
X161629069Y-89738687D01*
X161466627Y-89787963D01*
X161400443Y-89794481D01*
X161334260Y-89801000D01*
X161245740Y-89801000D01*
X161179557Y-89794481D01*
X161113373Y-89787963D01*
X160950931Y-89738687D01*
X160943533Y-89736443D01*
X160787011Y-89652779D01*
X160787009Y-89652778D01*
X160751271Y-89623448D01*
X160649814Y-89540186D01*
X160566552Y-89438729D01*
X160537222Y-89402991D01*
X160500154Y-89333643D01*
X160453557Y-89246467D01*
X160423757Y-89148228D01*
X160402037Y-89076627D01*
X160384641Y-88900000D01*
X160402037Y-88723373D01*
X160442680Y-88589392D01*
X160453557Y-88553533D01*
X160537221Y-88397011D01*
X160537222Y-88397009D01*
X160592394Y-88329782D01*
X160649814Y-88259814D01*
X160756231Y-88172481D01*
X160787009Y-88147222D01*
X160856689Y-88109977D01*
X160943533Y-88063557D01*
X161000147Y-88046384D01*
X161113373Y-88012037D01*
X161179557Y-88005519D01*
X161245740Y-87999000D01*
X161334260Y-87999000D01*
X161400443Y-88005519D01*
X161400443Y-88005519D01*
G37*
G36*
X152566821Y-88061313D02*
X152566824Y-88061314D01*
X152566825Y-88061314D01*
X152727239Y-88109975D01*
X152727241Y-88109976D01*
X152727244Y-88109977D01*
X152875078Y-88188995D01*
X153004659Y-88295341D01*
X153111005Y-88424922D01*
X153190023Y-88572756D01*
X153190024Y-88572759D01*
X153190025Y-88572761D01*
X153235713Y-88723375D01*
X153238687Y-88733179D01*
X153255117Y-88900000D01*
X153238687Y-89066821D01*
X153238686Y-89066824D01*
X153238686Y-89066825D01*
X153204691Y-89178893D01*
X153190023Y-89227244D01*
X153111005Y-89375078D01*
X153004659Y-89504659D01*
X152875078Y-89611005D01*
X152727244Y-89690023D01*
X152727241Y-89690024D01*
X152727239Y-89690025D01*
X152566825Y-89738686D01*
X152566824Y-89738686D01*
X152566821Y-89738687D01*
X152441804Y-89751000D01*
X152358196Y-89751000D01*
X152233179Y-89738687D01*
X152233176Y-89738686D01*
X152233175Y-89738686D01*
X152072761Y-89690025D01*
X152072759Y-89690024D01*
X152072756Y-89690023D01*
X151924922Y-89611005D01*
X151795341Y-89504659D01*
X151688995Y-89375078D01*
X151609977Y-89227244D01*
X151595310Y-89178893D01*
X151561314Y-89066825D01*
X151561314Y-89066824D01*
X151561313Y-89066821D01*
X151544883Y-88900000D01*
X151561313Y-88733179D01*
X151564287Y-88723375D01*
X151609975Y-88572761D01*
X151609976Y-88572759D01*
X151609977Y-88572756D01*
X151688995Y-88424922D01*
X151795341Y-88295341D01*
X151924922Y-88188995D01*
X152072756Y-88109977D01*
X152072759Y-88109976D01*
X152072761Y-88109975D01*
X152233175Y-88061314D01*
X152233176Y-88061314D01*
X152233179Y-88061313D01*
X152358196Y-88049000D01*
X152441804Y-88049000D01*
X152566821Y-88061313D01*
X152566821Y-88061313D01*
G37*
G36*
X144946821Y-88061313D02*
X144946824Y-88061314D01*
X144946825Y-88061314D01*
X145107239Y-88109975D01*
X145107241Y-88109976D01*
X145107244Y-88109977D01*
X145255078Y-88188995D01*
X145384659Y-88295341D01*
X145491005Y-88424922D01*
X145570023Y-88572756D01*
X145570024Y-88572759D01*
X145570025Y-88572761D01*
X145615713Y-88723375D01*
X145618687Y-88733179D01*
X145635117Y-88900000D01*
X145618687Y-89066821D01*
X145618686Y-89066824D01*
X145618686Y-89066825D01*
X145584691Y-89178893D01*
X145570023Y-89227244D01*
X145491005Y-89375078D01*
X145384659Y-89504659D01*
X145255078Y-89611005D01*
X145107244Y-89690023D01*
X145107241Y-89690024D01*
X145107239Y-89690025D01*
X144946825Y-89738686D01*
X144946824Y-89738686D01*
X144946821Y-89738687D01*
X144821804Y-89751000D01*
X144738196Y-89751000D01*
X144613179Y-89738687D01*
X144613176Y-89738686D01*
X144613175Y-89738686D01*
X144452761Y-89690025D01*
X144452759Y-89690024D01*
X144452756Y-89690023D01*
X144304922Y-89611005D01*
X144175341Y-89504659D01*
X144068995Y-89375078D01*
X143989977Y-89227244D01*
X143975310Y-89178893D01*
X143941314Y-89066825D01*
X143941314Y-89066824D01*
X143941313Y-89066821D01*
X143924883Y-88900000D01*
X143941313Y-88733179D01*
X143944287Y-88723375D01*
X143989975Y-88572761D01*
X143989976Y-88572759D01*
X143989977Y-88572756D01*
X144068995Y-88424922D01*
X144175341Y-88295341D01*
X144304922Y-88188995D01*
X144452756Y-88109977D01*
X144452759Y-88109976D01*
X144452761Y-88109975D01*
X144613175Y-88061314D01*
X144613176Y-88061314D01*
X144613179Y-88061313D01*
X144738196Y-88049000D01*
X144821804Y-88049000D01*
X144946821Y-88061313D01*
X144946821Y-88061313D01*
G37*
G36*
X119628228Y-88081703D02*
X119783100Y-88145853D01*
X119922481Y-88238985D01*
X120041015Y-88357519D01*
X120134147Y-88496900D01*
X120198297Y-88651772D01*
X120231000Y-88816184D01*
X120231000Y-88983816D01*
X120198297Y-89148228D01*
X120134147Y-89303100D01*
X120041015Y-89442481D01*
X119922481Y-89561015D01*
X119783100Y-89654147D01*
X119628228Y-89718297D01*
X119463816Y-89751000D01*
X119296184Y-89751000D01*
X119131772Y-89718297D01*
X118976900Y-89654147D01*
X118837519Y-89561015D01*
X118718985Y-89442481D01*
X118625853Y-89303100D01*
X118561703Y-89148228D01*
X118529000Y-88983816D01*
X118529000Y-88816184D01*
X118561703Y-88651772D01*
X118625853Y-88496900D01*
X118718985Y-88357519D01*
X118837519Y-88238985D01*
X118976900Y-88145853D01*
X119131772Y-88081703D01*
X119296184Y-88049000D01*
X119463816Y-88049000D01*
X119628228Y-88081703D01*
X119628228Y-88081703D01*
G37*
G36*
X127046821Y-88061313D02*
X127046824Y-88061314D01*
X127046825Y-88061314D01*
X127207239Y-88109975D01*
X127207241Y-88109976D01*
X127207244Y-88109977D01*
X127355078Y-88188995D01*
X127484659Y-88295341D01*
X127591005Y-88424922D01*
X127670023Y-88572756D01*
X127670024Y-88572759D01*
X127670025Y-88572761D01*
X127715713Y-88723375D01*
X127718687Y-88733179D01*
X127735117Y-88900000D01*
X127718687Y-89066821D01*
X127718686Y-89066824D01*
X127718686Y-89066825D01*
X127684691Y-89178893D01*
X127670023Y-89227244D01*
X127591005Y-89375078D01*
X127484659Y-89504659D01*
X127355078Y-89611005D01*
X127207244Y-89690023D01*
X127207241Y-89690024D01*
X127207239Y-89690025D01*
X127046825Y-89738686D01*
X127046824Y-89738686D01*
X127046821Y-89738687D01*
X126921804Y-89751000D01*
X126838196Y-89751000D01*
X126713179Y-89738687D01*
X126713176Y-89738686D01*
X126713175Y-89738686D01*
X126552761Y-89690025D01*
X126552759Y-89690024D01*
X126552756Y-89690023D01*
X126404922Y-89611005D01*
X126275341Y-89504659D01*
X126168995Y-89375078D01*
X126089977Y-89227244D01*
X126075310Y-89178893D01*
X126041314Y-89066825D01*
X126041314Y-89066824D01*
X126041313Y-89066821D01*
X126024883Y-88900000D01*
X126041313Y-88733179D01*
X126044287Y-88723375D01*
X126089975Y-88572761D01*
X126089976Y-88572759D01*
X126089977Y-88572756D01*
X126168995Y-88424922D01*
X126275341Y-88295341D01*
X126404922Y-88188995D01*
X126552756Y-88109977D01*
X126552759Y-88109976D01*
X126552761Y-88109975D01*
X126713175Y-88061314D01*
X126713176Y-88061314D01*
X126713179Y-88061313D01*
X126838196Y-88049000D01*
X126921804Y-88049000D01*
X127046821Y-88061313D01*
X127046821Y-88061313D01*
G37*
G36*
X115818228Y-86811703D02*
X115973100Y-86875853D01*
X116112481Y-86968985D01*
X116231015Y-87087519D01*
X116324147Y-87226900D01*
X116388297Y-87381772D01*
X116421000Y-87546184D01*
X116421000Y-87713816D01*
X116388297Y-87878228D01*
X116324147Y-88033100D01*
X116231015Y-88172481D01*
X116112481Y-88291015D01*
X115973100Y-88384147D01*
X115818228Y-88448297D01*
X115653816Y-88481000D01*
X115486184Y-88481000D01*
X115321772Y-88448297D01*
X115166900Y-88384147D01*
X115027519Y-88291015D01*
X114908985Y-88172481D01*
X114815853Y-88033100D01*
X114751703Y-87878228D01*
X114719000Y-87713816D01*
X114719000Y-87546184D01*
X114751703Y-87381772D01*
X114815853Y-87226900D01*
X114908985Y-87087519D01*
X115027519Y-86968985D01*
X115166900Y-86875853D01*
X115321772Y-86811703D01*
X115486184Y-86779000D01*
X115653816Y-86779000D01*
X115818228Y-86811703D01*
X115818228Y-86811703D01*
G37*
G36*
X161400442Y-85465518D02*
X161466627Y-85472037D01*
X161579853Y-85506384D01*
X161636467Y-85523557D01*
X161723311Y-85569977D01*
X161792991Y-85607222D01*
X161828729Y-85636552D01*
X161930186Y-85719814D01*
X162013448Y-85821271D01*
X162042778Y-85857009D01*
X162042779Y-85857011D01*
X162126443Y-86013533D01*
X162143616Y-86070147D01*
X162177963Y-86183373D01*
X162195359Y-86360000D01*
X162177963Y-86536627D01*
X162143616Y-86649853D01*
X162126443Y-86706467D01*
X162070192Y-86811703D01*
X162042778Y-86862991D01*
X162013448Y-86898729D01*
X161930186Y-87000186D01*
X161828729Y-87083448D01*
X161792991Y-87112778D01*
X161792989Y-87112779D01*
X161636467Y-87196443D01*
X161629069Y-87198687D01*
X161466627Y-87247963D01*
X161400442Y-87254482D01*
X161334260Y-87261000D01*
X161245740Y-87261000D01*
X161179558Y-87254482D01*
X161113373Y-87247963D01*
X160950931Y-87198687D01*
X160943533Y-87196443D01*
X160787011Y-87112779D01*
X160787009Y-87112778D01*
X160751271Y-87083448D01*
X160649814Y-87000186D01*
X160566552Y-86898729D01*
X160537222Y-86862991D01*
X160509808Y-86811703D01*
X160453557Y-86706467D01*
X160436384Y-86649853D01*
X160402037Y-86536627D01*
X160384641Y-86360000D01*
X160402037Y-86183373D01*
X160436384Y-86070147D01*
X160453557Y-86013533D01*
X160537221Y-85857011D01*
X160537222Y-85857009D01*
X160566552Y-85821271D01*
X160649814Y-85719814D01*
X160751271Y-85636552D01*
X160787009Y-85607222D01*
X160856689Y-85569977D01*
X160943533Y-85523557D01*
X161000147Y-85506384D01*
X161113373Y-85472037D01*
X161179558Y-85465518D01*
X161245740Y-85459000D01*
X161334260Y-85459000D01*
X161400442Y-85465518D01*
X161400442Y-85465518D01*
G37*
G36*
X139810442Y-85465518D02*
X139876627Y-85472037D01*
X139989853Y-85506384D01*
X140046467Y-85523557D01*
X140133311Y-85569977D01*
X140202991Y-85607222D01*
X140238729Y-85636552D01*
X140340186Y-85719814D01*
X140423448Y-85821271D01*
X140452778Y-85857009D01*
X140452779Y-85857011D01*
X140536443Y-86013533D01*
X140553616Y-86070147D01*
X140587963Y-86183373D01*
X140605359Y-86360000D01*
X140587963Y-86536627D01*
X140553616Y-86649853D01*
X140536443Y-86706467D01*
X140480192Y-86811703D01*
X140452778Y-86862991D01*
X140423448Y-86898729D01*
X140340186Y-87000186D01*
X140238729Y-87083448D01*
X140202991Y-87112778D01*
X140202989Y-87112779D01*
X140046467Y-87196443D01*
X140039069Y-87198687D01*
X139876627Y-87247963D01*
X139810442Y-87254482D01*
X139744260Y-87261000D01*
X139655740Y-87261000D01*
X139589558Y-87254482D01*
X139523373Y-87247963D01*
X139360931Y-87198687D01*
X139353533Y-87196443D01*
X139197011Y-87112779D01*
X139197009Y-87112778D01*
X139161271Y-87083448D01*
X139059814Y-87000186D01*
X138976552Y-86898729D01*
X138947222Y-86862991D01*
X138919808Y-86811703D01*
X138863557Y-86706467D01*
X138846384Y-86649853D01*
X138812037Y-86536627D01*
X138794641Y-86360000D01*
X138812037Y-86183373D01*
X138846384Y-86070147D01*
X138863557Y-86013533D01*
X138947221Y-85857011D01*
X138947222Y-85857009D01*
X138976552Y-85821271D01*
X139059814Y-85719814D01*
X139161271Y-85636552D01*
X139197009Y-85607222D01*
X139266689Y-85569977D01*
X139353533Y-85523557D01*
X139410147Y-85506384D01*
X139523373Y-85472037D01*
X139589558Y-85465518D01*
X139655740Y-85459000D01*
X139744260Y-85459000D01*
X139810442Y-85465518D01*
X139810442Y-85465518D01*
G37*
G36*
X144946821Y-85521313D02*
X144946824Y-85521314D01*
X144946825Y-85521314D01*
X145107239Y-85569975D01*
X145107241Y-85569976D01*
X145107244Y-85569977D01*
X145255078Y-85648995D01*
X145384659Y-85755341D01*
X145491005Y-85884922D01*
X145570023Y-86032756D01*
X145570024Y-86032759D01*
X145570025Y-86032761D01*
X145615713Y-86183375D01*
X145618687Y-86193179D01*
X145635117Y-86360000D01*
X145618687Y-86526821D01*
X145618686Y-86526824D01*
X145618686Y-86526825D01*
X145615713Y-86536627D01*
X145570023Y-86687244D01*
X145491005Y-86835078D01*
X145384659Y-86964659D01*
X145255078Y-87071005D01*
X145107244Y-87150023D01*
X145107241Y-87150024D01*
X145107239Y-87150025D01*
X144946825Y-87198686D01*
X144946824Y-87198686D01*
X144946821Y-87198687D01*
X144821804Y-87211000D01*
X144738196Y-87211000D01*
X144613179Y-87198687D01*
X144613176Y-87198686D01*
X144613175Y-87198686D01*
X144452761Y-87150025D01*
X144452759Y-87150024D01*
X144452756Y-87150023D01*
X144304922Y-87071005D01*
X144175341Y-86964659D01*
X144068995Y-86835078D01*
X143989977Y-86687244D01*
X143944288Y-86536627D01*
X143941314Y-86526825D01*
X143941314Y-86526824D01*
X143941313Y-86526821D01*
X143924883Y-86360000D01*
X143941313Y-86193179D01*
X143944287Y-86183375D01*
X143989975Y-86032761D01*
X143989976Y-86032759D01*
X143989977Y-86032756D01*
X144068995Y-85884922D01*
X144175341Y-85755341D01*
X144304922Y-85648995D01*
X144452756Y-85569977D01*
X144452759Y-85569976D01*
X144452761Y-85569975D01*
X144613175Y-85521314D01*
X144613176Y-85521314D01*
X144613179Y-85521313D01*
X144738196Y-85509000D01*
X144821804Y-85509000D01*
X144946821Y-85521313D01*
X144946821Y-85521313D01*
G37*
G36*
X152566821Y-85521313D02*
X152566824Y-85521314D01*
X152566825Y-85521314D01*
X152727239Y-85569975D01*
X152727241Y-85569976D01*
X152727244Y-85569977D01*
X152875078Y-85648995D01*
X153004659Y-85755341D01*
X153111005Y-85884922D01*
X153190023Y-86032756D01*
X153190024Y-86032759D01*
X153190025Y-86032761D01*
X153235713Y-86183375D01*
X153238687Y-86193179D01*
X153255117Y-86360000D01*
X153238687Y-86526821D01*
X153238686Y-86526824D01*
X153238686Y-86526825D01*
X153235713Y-86536627D01*
X153190023Y-86687244D01*
X153111005Y-86835078D01*
X153004659Y-86964659D01*
X152875078Y-87071005D01*
X152727244Y-87150023D01*
X152727241Y-87150024D01*
X152727239Y-87150025D01*
X152566825Y-87198686D01*
X152566824Y-87198686D01*
X152566821Y-87198687D01*
X152441804Y-87211000D01*
X152358196Y-87211000D01*
X152233179Y-87198687D01*
X152233176Y-87198686D01*
X152233175Y-87198686D01*
X152072761Y-87150025D01*
X152072759Y-87150024D01*
X152072756Y-87150023D01*
X151924922Y-87071005D01*
X151795341Y-86964659D01*
X151688995Y-86835078D01*
X151609977Y-86687244D01*
X151564288Y-86536627D01*
X151561314Y-86526825D01*
X151561314Y-86526824D01*
X151561313Y-86526821D01*
X151544883Y-86360000D01*
X151561313Y-86193179D01*
X151564287Y-86183375D01*
X151609975Y-86032761D01*
X151609976Y-86032759D01*
X151609977Y-86032756D01*
X151688995Y-85884922D01*
X151795341Y-85755341D01*
X151924922Y-85648995D01*
X152072756Y-85569977D01*
X152072759Y-85569976D01*
X152072761Y-85569975D01*
X152233175Y-85521314D01*
X152233176Y-85521314D01*
X152233179Y-85521313D01*
X152358196Y-85509000D01*
X152441804Y-85509000D01*
X152566821Y-85521313D01*
X152566821Y-85521313D01*
G37*
G36*
X115426443Y-83433519D02*
X115492627Y-83440037D01*
X115603049Y-83473533D01*
X115662467Y-83491557D01*
X115664719Y-83492761D01*
X115818991Y-83575222D01*
X115854729Y-83604552D01*
X115956186Y-83687814D01*
X116039448Y-83789271D01*
X116068778Y-83825009D01*
X116068779Y-83825011D01*
X116152443Y-83981533D01*
X116169616Y-84038147D01*
X116203963Y-84151373D01*
X116221359Y-84328000D01*
X116203963Y-84504627D01*
X116171991Y-84610025D01*
X116152443Y-84674467D01*
X116127570Y-84721000D01*
X116068778Y-84830991D01*
X116039448Y-84866729D01*
X115956186Y-84968186D01*
X115854729Y-85051448D01*
X115818991Y-85080778D01*
X115818989Y-85080779D01*
X115662467Y-85164443D01*
X115605853Y-85181616D01*
X115492627Y-85215963D01*
X115426443Y-85222481D01*
X115360260Y-85229000D01*
X115271740Y-85229000D01*
X115205557Y-85222481D01*
X115139373Y-85215963D01*
X115026147Y-85181616D01*
X114969533Y-85164443D01*
X114813011Y-85080779D01*
X114813009Y-85080778D01*
X114777271Y-85051448D01*
X114675814Y-84968186D01*
X114592552Y-84866729D01*
X114563222Y-84830991D01*
X114504430Y-84721000D01*
X114479557Y-84674467D01*
X114460009Y-84610025D01*
X114428037Y-84504627D01*
X114410641Y-84328000D01*
X114428037Y-84151373D01*
X114462384Y-84038147D01*
X114479557Y-83981533D01*
X114563221Y-83825011D01*
X114563222Y-83825009D01*
X114592552Y-83789271D01*
X114675814Y-83687814D01*
X114777271Y-83604552D01*
X114813009Y-83575222D01*
X114967281Y-83492761D01*
X114969533Y-83491557D01*
X115028951Y-83473533D01*
X115139373Y-83440037D01*
X115205557Y-83433519D01*
X115271740Y-83427000D01*
X115360260Y-83427000D01*
X115426443Y-83433519D01*
X115426443Y-83433519D01*
G37*
G36*
X140601000Y-84721000D02*
X138799000Y-84721000D01*
X138799000Y-82919000D01*
X140601000Y-82919000D01*
X140601000Y-84721000D01*
X140601000Y-84721000D01*
G37*
G36*
X161400443Y-82925519D02*
X161466627Y-82932037D01*
X161579853Y-82966384D01*
X161636467Y-82983557D01*
X161723311Y-83029977D01*
X161792991Y-83067222D01*
X161828729Y-83096552D01*
X161930186Y-83179814D01*
X162010369Y-83277519D01*
X162042778Y-83317009D01*
X162042779Y-83317011D01*
X162126443Y-83473533D01*
X162143616Y-83530147D01*
X162177963Y-83643373D01*
X162195359Y-83820000D01*
X162177963Y-83996627D01*
X162156243Y-84068228D01*
X162126443Y-84166467D01*
X162057698Y-84295078D01*
X162042778Y-84322991D01*
X162038667Y-84328000D01*
X161930186Y-84460186D01*
X161828729Y-84543448D01*
X161792991Y-84572778D01*
X161792989Y-84572779D01*
X161636467Y-84656443D01*
X161629069Y-84658687D01*
X161466627Y-84707963D01*
X161400443Y-84714481D01*
X161334260Y-84721000D01*
X161245740Y-84721000D01*
X161179557Y-84714481D01*
X161113373Y-84707963D01*
X160950931Y-84658687D01*
X160943533Y-84656443D01*
X160787011Y-84572779D01*
X160787009Y-84572778D01*
X160751271Y-84543448D01*
X160649814Y-84460186D01*
X160541333Y-84328000D01*
X160537222Y-84322991D01*
X160522302Y-84295078D01*
X160453557Y-84166467D01*
X160423757Y-84068228D01*
X160402037Y-83996627D01*
X160384641Y-83820000D01*
X160402037Y-83643373D01*
X160436384Y-83530147D01*
X160453557Y-83473533D01*
X160537221Y-83317011D01*
X160537222Y-83317009D01*
X160569631Y-83277519D01*
X160649814Y-83179814D01*
X160751271Y-83096552D01*
X160787009Y-83067222D01*
X160856689Y-83029977D01*
X160943533Y-82983557D01*
X161000147Y-82966384D01*
X161113373Y-82932037D01*
X161179557Y-82925519D01*
X161245740Y-82919000D01*
X161334260Y-82919000D01*
X161400443Y-82925519D01*
X161400443Y-82925519D01*
G37*
G36*
X119546821Y-82981313D02*
X119546824Y-82981314D01*
X119546825Y-82981314D01*
X119707239Y-83029975D01*
X119707241Y-83029976D01*
X119707244Y-83029977D01*
X119855078Y-83108995D01*
X119984659Y-83215341D01*
X120091005Y-83344922D01*
X120170023Y-83492756D01*
X120170024Y-83492759D01*
X120170025Y-83492761D01*
X120215713Y-83643375D01*
X120218687Y-83653179D01*
X120235117Y-83820000D01*
X120218687Y-83986821D01*
X120218686Y-83986824D01*
X120218686Y-83986825D01*
X120193993Y-84068228D01*
X120170023Y-84147244D01*
X120091005Y-84295078D01*
X119984659Y-84424659D01*
X119855078Y-84531005D01*
X119707244Y-84610023D01*
X119707241Y-84610024D01*
X119707239Y-84610025D01*
X119546825Y-84658686D01*
X119546824Y-84658686D01*
X119546821Y-84658687D01*
X119421804Y-84671000D01*
X119338196Y-84671000D01*
X119213179Y-84658687D01*
X119213176Y-84658686D01*
X119213175Y-84658686D01*
X119052761Y-84610025D01*
X119052759Y-84610024D01*
X119052756Y-84610023D01*
X118904922Y-84531005D01*
X118775341Y-84424659D01*
X118668995Y-84295078D01*
X118589977Y-84147244D01*
X118566008Y-84068228D01*
X118541314Y-83986825D01*
X118541314Y-83986824D01*
X118541313Y-83986821D01*
X118524883Y-83820000D01*
X118541313Y-83653179D01*
X118544287Y-83643375D01*
X118589975Y-83492761D01*
X118589976Y-83492759D01*
X118589977Y-83492756D01*
X118668995Y-83344922D01*
X118775341Y-83215341D01*
X118904922Y-83108995D01*
X119052756Y-83029977D01*
X119052759Y-83029976D01*
X119052761Y-83029975D01*
X119213175Y-82981314D01*
X119213176Y-82981314D01*
X119213179Y-82981313D01*
X119338196Y-82969000D01*
X119421804Y-82969000D01*
X119546821Y-82981313D01*
X119546821Y-82981313D01*
G37*
G36*
X144946821Y-82981313D02*
X144946824Y-82981314D01*
X144946825Y-82981314D01*
X145107239Y-83029975D01*
X145107241Y-83029976D01*
X145107244Y-83029977D01*
X145255078Y-83108995D01*
X145384659Y-83215341D01*
X145491005Y-83344922D01*
X145570023Y-83492756D01*
X145570024Y-83492759D01*
X145570025Y-83492761D01*
X145615713Y-83643375D01*
X145618687Y-83653179D01*
X145635117Y-83820000D01*
X145618687Y-83986821D01*
X145618686Y-83986824D01*
X145618686Y-83986825D01*
X145593993Y-84068228D01*
X145570023Y-84147244D01*
X145491005Y-84295078D01*
X145384659Y-84424659D01*
X145255078Y-84531005D01*
X145107244Y-84610023D01*
X145107241Y-84610024D01*
X145107239Y-84610025D01*
X144946825Y-84658686D01*
X144946824Y-84658686D01*
X144946821Y-84658687D01*
X144821804Y-84671000D01*
X144738196Y-84671000D01*
X144613179Y-84658687D01*
X144613176Y-84658686D01*
X144613175Y-84658686D01*
X144452761Y-84610025D01*
X144452759Y-84610024D01*
X144452756Y-84610023D01*
X144304922Y-84531005D01*
X144175341Y-84424659D01*
X144068995Y-84295078D01*
X143989977Y-84147244D01*
X143966008Y-84068228D01*
X143941314Y-83986825D01*
X143941314Y-83986824D01*
X143941313Y-83986821D01*
X143924883Y-83820000D01*
X143941313Y-83653179D01*
X143944287Y-83643375D01*
X143989975Y-83492761D01*
X143989976Y-83492759D01*
X143989977Y-83492756D01*
X144068995Y-83344922D01*
X144175341Y-83215341D01*
X144304922Y-83108995D01*
X144452756Y-83029977D01*
X144452759Y-83029976D01*
X144452761Y-83029975D01*
X144613175Y-82981314D01*
X144613176Y-82981314D01*
X144613179Y-82981313D01*
X144738196Y-82969000D01*
X144821804Y-82969000D01*
X144946821Y-82981313D01*
X144946821Y-82981313D01*
G37*
G36*
X129788228Y-83001703D02*
X129943100Y-83065853D01*
X130082481Y-83158985D01*
X130201015Y-83277519D01*
X130294147Y-83416900D01*
X130358297Y-83571772D01*
X130391000Y-83736184D01*
X130391000Y-83903816D01*
X130358297Y-84068228D01*
X130294147Y-84223100D01*
X130201015Y-84362481D01*
X130082481Y-84481015D01*
X129943100Y-84574147D01*
X129788228Y-84638297D01*
X129623816Y-84671000D01*
X129456184Y-84671000D01*
X129291772Y-84638297D01*
X129136900Y-84574147D01*
X128997519Y-84481015D01*
X128878985Y-84362481D01*
X128785853Y-84223100D01*
X128721703Y-84068228D01*
X128689000Y-83903816D01*
X128689000Y-83736184D01*
X128721703Y-83571772D01*
X128785853Y-83416900D01*
X128878985Y-83277519D01*
X128997519Y-83158985D01*
X129136900Y-83065853D01*
X129291772Y-83001703D01*
X129456184Y-82969000D01*
X129623816Y-82969000D01*
X129788228Y-83001703D01*
X129788228Y-83001703D01*
G37*
G36*
X152566821Y-82981313D02*
X152566824Y-82981314D01*
X152566825Y-82981314D01*
X152727239Y-83029975D01*
X152727241Y-83029976D01*
X152727244Y-83029977D01*
X152875078Y-83108995D01*
X153004659Y-83215341D01*
X153111005Y-83344922D01*
X153190023Y-83492756D01*
X153190024Y-83492759D01*
X153190025Y-83492761D01*
X153235713Y-83643375D01*
X153238687Y-83653179D01*
X153255117Y-83820000D01*
X153238687Y-83986821D01*
X153238686Y-83986824D01*
X153238686Y-83986825D01*
X153213993Y-84068228D01*
X153190023Y-84147244D01*
X153111005Y-84295078D01*
X153004659Y-84424659D01*
X152875078Y-84531005D01*
X152727244Y-84610023D01*
X152727241Y-84610024D01*
X152727239Y-84610025D01*
X152566825Y-84658686D01*
X152566824Y-84658686D01*
X152566821Y-84658687D01*
X152441804Y-84671000D01*
X152358196Y-84671000D01*
X152233179Y-84658687D01*
X152233176Y-84658686D01*
X152233175Y-84658686D01*
X152072761Y-84610025D01*
X152072759Y-84610024D01*
X152072756Y-84610023D01*
X151924922Y-84531005D01*
X151795341Y-84424659D01*
X151688995Y-84295078D01*
X151609977Y-84147244D01*
X151586008Y-84068228D01*
X151561314Y-83986825D01*
X151561314Y-83986824D01*
X151561313Y-83986821D01*
X151544883Y-83820000D01*
X151561313Y-83653179D01*
X151564287Y-83643375D01*
X151609975Y-83492761D01*
X151609976Y-83492759D01*
X151609977Y-83492756D01*
X151688995Y-83344922D01*
X151795341Y-83215341D01*
X151924922Y-83108995D01*
X152072756Y-83029977D01*
X152072759Y-83029976D01*
X152072761Y-83029975D01*
X152233175Y-82981314D01*
X152233176Y-82981314D01*
X152233179Y-82981313D01*
X152358196Y-82969000D01*
X152441804Y-82969000D01*
X152566821Y-82981313D01*
X152566821Y-82981313D01*
G37*
G36*
X115426442Y-80893518D02*
X115492627Y-80900037D01*
X115605853Y-80934384D01*
X115662467Y-80951557D01*
X115801087Y-81025652D01*
X115818991Y-81035222D01*
X115854729Y-81064552D01*
X115956186Y-81147814D01*
X116039448Y-81249271D01*
X116068778Y-81285009D01*
X116068779Y-81285011D01*
X116152443Y-81441533D01*
X116152443Y-81441534D01*
X116203963Y-81611373D01*
X116221359Y-81788000D01*
X116203963Y-81964627D01*
X116171991Y-82070025D01*
X116152443Y-82134467D01*
X116100844Y-82231000D01*
X116068778Y-82290991D01*
X116039448Y-82326729D01*
X115956186Y-82428186D01*
X115854729Y-82511448D01*
X115818991Y-82540778D01*
X115818989Y-82540779D01*
X115662467Y-82624443D01*
X115605853Y-82641616D01*
X115492627Y-82675963D01*
X115426442Y-82682482D01*
X115360260Y-82689000D01*
X115271740Y-82689000D01*
X115205558Y-82682482D01*
X115139373Y-82675963D01*
X115026147Y-82641616D01*
X114969533Y-82624443D01*
X114813011Y-82540779D01*
X114813009Y-82540778D01*
X114777271Y-82511448D01*
X114675814Y-82428186D01*
X114592552Y-82326729D01*
X114563222Y-82290991D01*
X114531156Y-82231000D01*
X114479557Y-82134467D01*
X114460009Y-82070025D01*
X114428037Y-81964627D01*
X114410641Y-81788000D01*
X114428037Y-81611373D01*
X114479557Y-81441534D01*
X114479557Y-81441533D01*
X114563221Y-81285011D01*
X114563222Y-81285009D01*
X114592552Y-81249271D01*
X114675814Y-81147814D01*
X114777271Y-81064552D01*
X114813009Y-81035222D01*
X114830913Y-81025652D01*
X114969533Y-80951557D01*
X115026147Y-80934384D01*
X115139373Y-80900037D01*
X115205558Y-80893518D01*
X115271740Y-80887000D01*
X115360260Y-80887000D01*
X115426442Y-80893518D01*
X115426442Y-80893518D01*
G37*
G36*
X134897396Y-80365546D02*
X135070466Y-80437234D01*
X135226230Y-80541312D01*
X135358688Y-80673770D01*
X135462766Y-80829534D01*
X135534454Y-81002604D01*
X135571000Y-81186333D01*
X135571000Y-81373667D01*
X135534454Y-81557396D01*
X135462766Y-81730466D01*
X135358688Y-81886230D01*
X135226230Y-82018688D01*
X135070466Y-82122766D01*
X134897396Y-82194454D01*
X134713667Y-82231000D01*
X134526333Y-82231000D01*
X134342604Y-82194454D01*
X134169534Y-82122766D01*
X134013770Y-82018688D01*
X133881312Y-81886230D01*
X133777234Y-81730466D01*
X133705546Y-81557396D01*
X133669000Y-81373667D01*
X133669000Y-81186333D01*
X133705546Y-81002604D01*
X133777234Y-80829534D01*
X133881312Y-80673770D01*
X134013770Y-80541312D01*
X134169534Y-80437234D01*
X134342604Y-80365546D01*
X134526333Y-80329000D01*
X134713667Y-80329000D01*
X134897396Y-80365546D01*
X134897396Y-80365546D01*
G37*
G36*
X133031000Y-82231000D02*
X131129000Y-82231000D01*
X131129000Y-80329000D01*
X133031000Y-80329000D01*
X133031000Y-82231000D01*
X133031000Y-82231000D01*
G37*
G36*
X162191000Y-82181000D02*
X160389000Y-82181000D01*
X160389000Y-80379000D01*
X162191000Y-80379000D01*
X162191000Y-82181000D01*
X162191000Y-82181000D01*
G37*
G36*
X144946821Y-80441313D02*
X144946824Y-80441314D01*
X144946825Y-80441314D01*
X145107239Y-80489975D01*
X145107241Y-80489976D01*
X145107244Y-80489977D01*
X145255078Y-80568995D01*
X145384659Y-80675341D01*
X145491005Y-80804922D01*
X145570023Y-80952756D01*
X145570024Y-80952759D01*
X145570025Y-80952761D01*
X145595039Y-81035221D01*
X145618687Y-81113179D01*
X145635117Y-81280000D01*
X145618687Y-81446821D01*
X145618686Y-81446824D01*
X145618686Y-81446825D01*
X145585145Y-81557396D01*
X145570023Y-81607244D01*
X145491005Y-81755078D01*
X145384659Y-81884659D01*
X145255078Y-81991005D01*
X145107244Y-82070023D01*
X145107241Y-82070024D01*
X145107239Y-82070025D01*
X144946825Y-82118686D01*
X144946824Y-82118686D01*
X144946821Y-82118687D01*
X144821804Y-82131000D01*
X144738196Y-82131000D01*
X144613179Y-82118687D01*
X144613176Y-82118686D01*
X144613175Y-82118686D01*
X144452761Y-82070025D01*
X144452759Y-82070024D01*
X144452756Y-82070023D01*
X144304922Y-81991005D01*
X144175341Y-81884659D01*
X144068995Y-81755078D01*
X143989977Y-81607244D01*
X143974856Y-81557396D01*
X143941314Y-81446825D01*
X143941314Y-81446824D01*
X143941313Y-81446821D01*
X143924883Y-81280000D01*
X143941313Y-81113179D01*
X143964961Y-81035221D01*
X143989975Y-80952761D01*
X143989976Y-80952759D01*
X143989977Y-80952756D01*
X144068995Y-80804922D01*
X144175341Y-80675341D01*
X144304922Y-80568995D01*
X144452756Y-80489977D01*
X144452759Y-80489976D01*
X144452761Y-80489975D01*
X144613175Y-80441314D01*
X144613176Y-80441314D01*
X144613179Y-80441313D01*
X144738196Y-80429000D01*
X144821804Y-80429000D01*
X144946821Y-80441313D01*
X144946821Y-80441313D01*
G37*
G36*
X152566821Y-80441313D02*
X152566824Y-80441314D01*
X152566825Y-80441314D01*
X152727239Y-80489975D01*
X152727241Y-80489976D01*
X152727244Y-80489977D01*
X152875078Y-80568995D01*
X153004659Y-80675341D01*
X153111005Y-80804922D01*
X153190023Y-80952756D01*
X153190024Y-80952759D01*
X153190025Y-80952761D01*
X153215039Y-81035221D01*
X153238687Y-81113179D01*
X153255117Y-81280000D01*
X153238687Y-81446821D01*
X153238686Y-81446824D01*
X153238686Y-81446825D01*
X153205145Y-81557396D01*
X153190023Y-81607244D01*
X153111005Y-81755078D01*
X153004659Y-81884659D01*
X152875078Y-81991005D01*
X152727244Y-82070023D01*
X152727241Y-82070024D01*
X152727239Y-82070025D01*
X152566825Y-82118686D01*
X152566824Y-82118686D01*
X152566821Y-82118687D01*
X152441804Y-82131000D01*
X152358196Y-82131000D01*
X152233179Y-82118687D01*
X152233176Y-82118686D01*
X152233175Y-82118686D01*
X152072761Y-82070025D01*
X152072759Y-82070024D01*
X152072756Y-82070023D01*
X151924922Y-81991005D01*
X151795341Y-81884659D01*
X151688995Y-81755078D01*
X151609977Y-81607244D01*
X151594856Y-81557396D01*
X151561314Y-81446825D01*
X151561314Y-81446824D01*
X151561313Y-81446821D01*
X151544883Y-81280000D01*
X151561313Y-81113179D01*
X151584961Y-81035221D01*
X151609975Y-80952761D01*
X151609976Y-80952759D01*
X151609977Y-80952756D01*
X151688995Y-80804922D01*
X151795341Y-80675341D01*
X151924922Y-80568995D01*
X152072756Y-80489977D01*
X152072759Y-80489976D01*
X152072761Y-80489975D01*
X152233175Y-80441314D01*
X152233176Y-80441314D01*
X152233179Y-80441313D01*
X152358196Y-80429000D01*
X152441804Y-80429000D01*
X152566821Y-80441313D01*
X152566821Y-80441313D01*
G37*
G36*
X129706821Y-79171313D02*
X129706824Y-79171314D01*
X129706825Y-79171314D01*
X129867239Y-79219975D01*
X129867241Y-79219976D01*
X129867244Y-79219977D01*
X130015078Y-79298995D01*
X130144659Y-79405341D01*
X130251005Y-79534922D01*
X130330023Y-79682756D01*
X130330024Y-79682759D01*
X130330025Y-79682761D01*
X130378686Y-79843175D01*
X130378687Y-79843179D01*
X130395117Y-80010000D01*
X130378687Y-80176821D01*
X130378686Y-80176824D01*
X130378686Y-80176825D01*
X130353993Y-80258228D01*
X130330023Y-80337244D01*
X130251005Y-80485078D01*
X130144659Y-80614659D01*
X130015078Y-80721005D01*
X129867244Y-80800023D01*
X129867241Y-80800024D01*
X129867239Y-80800025D01*
X129706825Y-80848686D01*
X129706824Y-80848686D01*
X129706821Y-80848687D01*
X129581804Y-80861000D01*
X129498196Y-80861000D01*
X129373179Y-80848687D01*
X129373176Y-80848686D01*
X129373175Y-80848686D01*
X129212761Y-80800025D01*
X129212759Y-80800024D01*
X129212756Y-80800023D01*
X129064922Y-80721005D01*
X128935341Y-80614659D01*
X128828995Y-80485078D01*
X128749977Y-80337244D01*
X128726008Y-80258228D01*
X128701314Y-80176825D01*
X128701314Y-80176824D01*
X128701313Y-80176821D01*
X128684883Y-80010000D01*
X128701313Y-79843179D01*
X128701314Y-79843175D01*
X128749975Y-79682761D01*
X128749976Y-79682759D01*
X128749977Y-79682756D01*
X128828995Y-79534922D01*
X128935341Y-79405341D01*
X129064922Y-79298995D01*
X129212756Y-79219977D01*
X129212759Y-79219976D01*
X129212761Y-79219975D01*
X129373175Y-79171314D01*
X129373176Y-79171314D01*
X129373179Y-79171313D01*
X129498196Y-79159000D01*
X129581804Y-79159000D01*
X129706821Y-79171313D01*
X129706821Y-79171313D01*
G37*
G36*
X119628228Y-79191703D02*
X119783100Y-79255853D01*
X119922481Y-79348985D01*
X120041015Y-79467519D01*
X120134147Y-79606900D01*
X120198297Y-79761772D01*
X120231000Y-79926184D01*
X120231000Y-80093816D01*
X120198297Y-80258228D01*
X120134147Y-80413100D01*
X120041015Y-80552481D01*
X119922481Y-80671015D01*
X119783100Y-80764147D01*
X119628228Y-80828297D01*
X119463816Y-80861000D01*
X119296184Y-80861000D01*
X119131772Y-80828297D01*
X118976900Y-80764147D01*
X118837519Y-80671015D01*
X118718985Y-80552481D01*
X118625853Y-80413100D01*
X118561703Y-80258228D01*
X118529000Y-80093816D01*
X118529000Y-79926184D01*
X118561703Y-79761772D01*
X118625853Y-79606900D01*
X118718985Y-79467519D01*
X118837519Y-79348985D01*
X118976900Y-79255853D01*
X119131772Y-79191703D01*
X119296184Y-79159000D01*
X119463816Y-79159000D01*
X119628228Y-79191703D01*
X119628228Y-79191703D01*
G37*
G36*
X115426443Y-78353519D02*
X115492627Y-78360037D01*
X115603049Y-78393533D01*
X115662467Y-78411557D01*
X115664719Y-78412761D01*
X115818991Y-78495222D01*
X115854729Y-78524552D01*
X115956186Y-78607814D01*
X116039448Y-78709271D01*
X116068778Y-78745009D01*
X116068779Y-78745011D01*
X116152443Y-78901533D01*
X116169616Y-78958147D01*
X116203963Y-79071373D01*
X116221359Y-79248000D01*
X116203963Y-79424627D01*
X116171991Y-79530025D01*
X116152443Y-79594467D01*
X116127570Y-79641000D01*
X116068778Y-79750991D01*
X116059930Y-79761772D01*
X115956186Y-79888186D01*
X115854729Y-79971448D01*
X115818991Y-80000778D01*
X115818989Y-80000779D01*
X115662467Y-80084443D01*
X115605853Y-80101616D01*
X115492627Y-80135963D01*
X115426443Y-80142481D01*
X115360260Y-80149000D01*
X115271740Y-80149000D01*
X115205557Y-80142481D01*
X115139373Y-80135963D01*
X115026147Y-80101616D01*
X114969533Y-80084443D01*
X114813011Y-80000779D01*
X114813009Y-80000778D01*
X114777271Y-79971448D01*
X114675814Y-79888186D01*
X114572070Y-79761772D01*
X114563222Y-79750991D01*
X114504430Y-79641000D01*
X114479557Y-79594467D01*
X114460009Y-79530025D01*
X114428037Y-79424627D01*
X114410641Y-79248000D01*
X114428037Y-79071373D01*
X114462384Y-78958147D01*
X114479557Y-78901533D01*
X114563221Y-78745011D01*
X114563222Y-78745009D01*
X114592552Y-78709271D01*
X114675814Y-78607814D01*
X114777271Y-78524552D01*
X114813009Y-78495222D01*
X114967281Y-78412761D01*
X114969533Y-78411557D01*
X115028951Y-78393533D01*
X115139373Y-78360037D01*
X115205557Y-78353519D01*
X115271740Y-78347000D01*
X115360260Y-78347000D01*
X115426443Y-78353519D01*
X115426443Y-78353519D01*
G37*
G36*
X139810443Y-77845519D02*
X139876627Y-77852037D01*
X139989853Y-77886384D01*
X140046467Y-77903557D01*
X140133311Y-77949977D01*
X140202991Y-77987222D01*
X140233769Y-78012481D01*
X140340186Y-78099814D01*
X140423448Y-78201271D01*
X140452778Y-78237009D01*
X140452779Y-78237011D01*
X140536443Y-78393533D01*
X140553616Y-78450147D01*
X140587963Y-78563373D01*
X140605359Y-78740000D01*
X140587963Y-78916627D01*
X140553616Y-79029853D01*
X140536443Y-79086467D01*
X140480192Y-79191703D01*
X140452778Y-79242991D01*
X140423448Y-79278729D01*
X140340186Y-79380186D01*
X140238729Y-79463448D01*
X140202991Y-79492778D01*
X140202989Y-79492779D01*
X140046467Y-79576443D01*
X140039069Y-79578687D01*
X139876627Y-79627963D01*
X139810442Y-79634482D01*
X139744260Y-79641000D01*
X139655740Y-79641000D01*
X139589558Y-79634482D01*
X139523373Y-79627963D01*
X139360931Y-79578687D01*
X139353533Y-79576443D01*
X139197011Y-79492779D01*
X139197009Y-79492778D01*
X139161271Y-79463448D01*
X139059814Y-79380186D01*
X138976552Y-79278729D01*
X138947222Y-79242991D01*
X138919808Y-79191703D01*
X138863557Y-79086467D01*
X138846384Y-79029853D01*
X138812037Y-78916627D01*
X138794641Y-78740000D01*
X138812037Y-78563373D01*
X138846384Y-78450147D01*
X138863557Y-78393533D01*
X138947221Y-78237011D01*
X138947222Y-78237009D01*
X138976552Y-78201271D01*
X139059814Y-78099814D01*
X139166231Y-78012481D01*
X139197009Y-77987222D01*
X139266689Y-77949977D01*
X139353533Y-77903557D01*
X139410147Y-77886384D01*
X139523373Y-77852037D01*
X139589557Y-77845519D01*
X139655740Y-77839000D01*
X139744260Y-77839000D01*
X139810443Y-77845519D01*
X139810443Y-77845519D01*
G37*
G36*
X156320443Y-77845519D02*
X156386627Y-77852037D01*
X156499853Y-77886384D01*
X156556467Y-77903557D01*
X156643311Y-77949977D01*
X156712991Y-77987222D01*
X156743769Y-78012481D01*
X156850186Y-78099814D01*
X156933448Y-78201271D01*
X156962778Y-78237009D01*
X156962779Y-78237011D01*
X157046443Y-78393533D01*
X157063616Y-78450147D01*
X157097963Y-78563373D01*
X157115359Y-78740000D01*
X157097963Y-78916627D01*
X157063616Y-79029853D01*
X157046443Y-79086467D01*
X156990192Y-79191703D01*
X156962778Y-79242991D01*
X156933448Y-79278729D01*
X156850186Y-79380186D01*
X156748729Y-79463448D01*
X156712991Y-79492778D01*
X156712989Y-79492779D01*
X156556467Y-79576443D01*
X156549069Y-79578687D01*
X156386627Y-79627963D01*
X156320442Y-79634482D01*
X156254260Y-79641000D01*
X156165740Y-79641000D01*
X156099558Y-79634482D01*
X156033373Y-79627963D01*
X155870931Y-79578687D01*
X155863533Y-79576443D01*
X155707011Y-79492779D01*
X155707009Y-79492778D01*
X155671271Y-79463448D01*
X155569814Y-79380186D01*
X155486552Y-79278729D01*
X155457222Y-79242991D01*
X155429808Y-79191703D01*
X155373557Y-79086467D01*
X155356384Y-79029853D01*
X155322037Y-78916627D01*
X155304641Y-78740000D01*
X155322037Y-78563373D01*
X155356384Y-78450147D01*
X155373557Y-78393533D01*
X155457221Y-78237011D01*
X155457222Y-78237009D01*
X155486552Y-78201271D01*
X155569814Y-78099814D01*
X155676231Y-78012481D01*
X155707009Y-77987222D01*
X155776689Y-77949977D01*
X155863533Y-77903557D01*
X155920147Y-77886384D01*
X156033373Y-77852037D01*
X156099557Y-77845519D01*
X156165740Y-77839000D01*
X156254260Y-77839000D01*
X156320443Y-77845519D01*
X156320443Y-77845519D01*
G37*
G36*
X144946821Y-77901313D02*
X144946824Y-77901314D01*
X144946825Y-77901314D01*
X145107239Y-77949975D01*
X145107241Y-77949976D01*
X145107244Y-77949977D01*
X145255078Y-78028995D01*
X145384659Y-78135341D01*
X145491005Y-78264922D01*
X145570023Y-78412756D01*
X145570024Y-78412759D01*
X145570025Y-78412761D01*
X145615713Y-78563375D01*
X145618687Y-78573179D01*
X145635117Y-78740000D01*
X145618687Y-78906821D01*
X145618686Y-78906824D01*
X145618686Y-78906825D01*
X145615713Y-78916627D01*
X145570023Y-79067244D01*
X145491005Y-79215078D01*
X145384659Y-79344659D01*
X145255078Y-79451005D01*
X145107244Y-79530023D01*
X145107241Y-79530024D01*
X145107239Y-79530025D01*
X144946825Y-79578686D01*
X144946824Y-79578686D01*
X144946821Y-79578687D01*
X144821804Y-79591000D01*
X144738196Y-79591000D01*
X144613179Y-79578687D01*
X144613176Y-79578686D01*
X144613175Y-79578686D01*
X144452761Y-79530025D01*
X144452759Y-79530024D01*
X144452756Y-79530023D01*
X144304922Y-79451005D01*
X144175341Y-79344659D01*
X144068995Y-79215078D01*
X143989977Y-79067244D01*
X143944288Y-78916627D01*
X143941314Y-78906825D01*
X143941314Y-78906824D01*
X143941313Y-78906821D01*
X143924883Y-78740000D01*
X143941313Y-78573179D01*
X143944287Y-78563375D01*
X143989975Y-78412761D01*
X143989976Y-78412759D01*
X143989977Y-78412756D01*
X144068995Y-78264922D01*
X144175341Y-78135341D01*
X144304922Y-78028995D01*
X144452756Y-77949977D01*
X144452759Y-77949976D01*
X144452761Y-77949975D01*
X144613175Y-77901314D01*
X144613176Y-77901314D01*
X144613179Y-77901313D01*
X144738196Y-77889000D01*
X144821804Y-77889000D01*
X144946821Y-77901313D01*
X144946821Y-77901313D01*
G37*
G36*
X152566821Y-77901313D02*
X152566824Y-77901314D01*
X152566825Y-77901314D01*
X152727239Y-77949975D01*
X152727241Y-77949976D01*
X152727244Y-77949977D01*
X152875078Y-78028995D01*
X153004659Y-78135341D01*
X153111005Y-78264922D01*
X153190023Y-78412756D01*
X153190024Y-78412759D01*
X153190025Y-78412761D01*
X153235713Y-78563375D01*
X153238687Y-78573179D01*
X153255117Y-78740000D01*
X153238687Y-78906821D01*
X153238686Y-78906824D01*
X153238686Y-78906825D01*
X153235713Y-78916627D01*
X153190023Y-79067244D01*
X153111005Y-79215078D01*
X153004659Y-79344659D01*
X152875078Y-79451005D01*
X152727244Y-79530023D01*
X152727241Y-79530024D01*
X152727239Y-79530025D01*
X152566825Y-79578686D01*
X152566824Y-79578686D01*
X152566821Y-79578687D01*
X152441804Y-79591000D01*
X152358196Y-79591000D01*
X152233179Y-79578687D01*
X152233176Y-79578686D01*
X152233175Y-79578686D01*
X152072761Y-79530025D01*
X152072759Y-79530024D01*
X152072756Y-79530023D01*
X151924922Y-79451005D01*
X151795341Y-79344659D01*
X151688995Y-79215078D01*
X151609977Y-79067244D01*
X151564288Y-78916627D01*
X151561314Y-78906825D01*
X151561314Y-78906824D01*
X151561313Y-78906821D01*
X151544883Y-78740000D01*
X151561313Y-78573179D01*
X151564287Y-78563375D01*
X151609975Y-78412761D01*
X151609976Y-78412759D01*
X151609977Y-78412756D01*
X151688995Y-78264922D01*
X151795341Y-78135341D01*
X151924922Y-78028995D01*
X152072756Y-77949977D01*
X152072759Y-77949976D01*
X152072761Y-77949975D01*
X152233175Y-77901314D01*
X152233176Y-77901314D01*
X152233179Y-77901313D01*
X152358196Y-77889000D01*
X152441804Y-77889000D01*
X152566821Y-77901313D01*
X152566821Y-77901313D01*
G37*
G36*
X179318228Y-76651703D02*
X179473100Y-76715853D01*
X179612481Y-76808985D01*
X179731015Y-76927519D01*
X179824147Y-77066900D01*
X179888297Y-77221772D01*
X179921000Y-77386184D01*
X179921000Y-77553816D01*
X179888297Y-77718228D01*
X179824147Y-77873100D01*
X179731015Y-78012481D01*
X179612481Y-78131015D01*
X179473100Y-78224147D01*
X179318228Y-78288297D01*
X179153816Y-78321000D01*
X178986184Y-78321000D01*
X178821772Y-78288297D01*
X178666900Y-78224147D01*
X178527519Y-78131015D01*
X178408985Y-78012481D01*
X178315853Y-77873100D01*
X178251703Y-77718228D01*
X178219000Y-77553816D01*
X178219000Y-77386184D01*
X178251703Y-77221772D01*
X178315853Y-77066900D01*
X178408985Y-76927519D01*
X178527519Y-76808985D01*
X178666900Y-76715853D01*
X178821772Y-76651703D01*
X178986184Y-76619000D01*
X179153816Y-76619000D01*
X179318228Y-76651703D01*
X179318228Y-76651703D01*
G37*
G36*
X119292821Y-76003313D02*
X119292824Y-76003314D01*
X119292825Y-76003314D01*
X119453239Y-76051975D01*
X119453241Y-76051976D01*
X119453244Y-76051977D01*
X119601078Y-76130995D01*
X119730659Y-76237341D01*
X119837005Y-76366922D01*
X119916023Y-76514756D01*
X119916024Y-76514759D01*
X119916025Y-76514761D01*
X119964686Y-76675175D01*
X119964687Y-76675179D01*
X119981117Y-76842000D01*
X119964687Y-77008821D01*
X119964686Y-77008824D01*
X119964686Y-77008825D01*
X119940680Y-77087963D01*
X119916023Y-77169244D01*
X119837005Y-77317078D01*
X119730659Y-77446659D01*
X119601078Y-77553005D01*
X119453244Y-77632023D01*
X119453241Y-77632024D01*
X119453239Y-77632025D01*
X119292825Y-77680686D01*
X119292824Y-77680686D01*
X119292821Y-77680687D01*
X119167804Y-77693000D01*
X119084196Y-77693000D01*
X118959179Y-77680687D01*
X118959176Y-77680686D01*
X118959175Y-77680686D01*
X118798761Y-77632025D01*
X118798759Y-77632024D01*
X118798756Y-77632023D01*
X118650922Y-77553005D01*
X118521341Y-77446659D01*
X118414995Y-77317078D01*
X118335977Y-77169244D01*
X118311321Y-77087963D01*
X118287314Y-77008825D01*
X118287314Y-77008824D01*
X118287313Y-77008821D01*
X118270883Y-76842000D01*
X118287313Y-76675179D01*
X118287314Y-76675175D01*
X118335975Y-76514761D01*
X118335976Y-76514759D01*
X118335977Y-76514756D01*
X118414995Y-76366922D01*
X118521341Y-76237341D01*
X118650922Y-76130995D01*
X118798756Y-76051977D01*
X118798759Y-76051976D01*
X118798761Y-76051975D01*
X118959175Y-76003314D01*
X118959176Y-76003314D01*
X118959179Y-76003313D01*
X119084196Y-75991000D01*
X119167804Y-75991000D01*
X119292821Y-76003313D01*
X119292821Y-76003313D01*
G37*
G36*
X115426442Y-75813518D02*
X115492627Y-75820037D01*
X115603049Y-75853533D01*
X115662467Y-75871557D01*
X115664719Y-75872761D01*
X115818991Y-75955222D01*
X115854729Y-75984552D01*
X115956186Y-76067814D01*
X116008037Y-76130996D01*
X116068778Y-76205009D01*
X116068779Y-76205011D01*
X116152443Y-76361533D01*
X116159258Y-76384000D01*
X116203963Y-76531373D01*
X116221359Y-76708000D01*
X116203963Y-76884627D01*
X116171991Y-76990025D01*
X116152443Y-77054467D01*
X116082504Y-77185311D01*
X116068778Y-77210991D01*
X116039448Y-77246729D01*
X115956186Y-77348186D01*
X115854729Y-77431448D01*
X115818991Y-77460778D01*
X115818989Y-77460779D01*
X115662467Y-77544443D01*
X115605853Y-77561616D01*
X115492627Y-77595963D01*
X115426443Y-77602481D01*
X115360260Y-77609000D01*
X115271740Y-77609000D01*
X115205557Y-77602481D01*
X115139373Y-77595963D01*
X115026147Y-77561616D01*
X114969533Y-77544443D01*
X114813011Y-77460779D01*
X114813009Y-77460778D01*
X114777271Y-77431448D01*
X114675814Y-77348186D01*
X114592552Y-77246729D01*
X114563222Y-77210991D01*
X114549496Y-77185311D01*
X114479557Y-77054467D01*
X114460009Y-76990025D01*
X114428037Y-76884627D01*
X114410641Y-76708000D01*
X114428037Y-76531373D01*
X114472742Y-76384000D01*
X114479557Y-76361533D01*
X114563221Y-76205011D01*
X114563222Y-76205009D01*
X114623963Y-76130996D01*
X114675814Y-76067814D01*
X114777271Y-75984552D01*
X114813009Y-75955222D01*
X114967281Y-75872761D01*
X114969533Y-75871557D01*
X115028951Y-75853533D01*
X115139373Y-75820037D01*
X115205558Y-75813518D01*
X115271740Y-75807000D01*
X115360260Y-75807000D01*
X115426442Y-75813518D01*
X115426442Y-75813518D01*
G37*
G36*
X132211552Y-76401331D02*
X132293625Y-76435327D01*
X132293626Y-76435328D01*
X132293629Y-76435329D01*
X132367496Y-76484686D01*
X132367500Y-76484689D01*
X132430311Y-76547500D01*
X132430313Y-76547503D01*
X132430314Y-76547504D01*
X132479671Y-76621371D01*
X132479672Y-76621374D01*
X132479673Y-76621375D01*
X132513669Y-76703448D01*
X132531000Y-76790579D01*
X132531000Y-76879421D01*
X132513669Y-76966552D01*
X132483789Y-77038687D01*
X132479671Y-77048629D01*
X132444677Y-77101000D01*
X132430311Y-77122500D01*
X132367500Y-77185311D01*
X132367497Y-77185313D01*
X132367496Y-77185314D01*
X132293629Y-77234671D01*
X132293626Y-77234672D01*
X132293625Y-77234673D01*
X132211552Y-77268669D01*
X132124421Y-77286000D01*
X132035579Y-77286000D01*
X131948448Y-77268669D01*
X131866375Y-77234673D01*
X131866374Y-77234672D01*
X131866371Y-77234671D01*
X131792504Y-77185314D01*
X131792503Y-77185313D01*
X131792500Y-77185311D01*
X131729689Y-77122500D01*
X131715323Y-77101000D01*
X131680329Y-77048629D01*
X131676211Y-77038687D01*
X131646331Y-76966552D01*
X131629000Y-76879421D01*
X131629000Y-76790579D01*
X131646331Y-76703448D01*
X131680327Y-76621375D01*
X131680328Y-76621374D01*
X131680329Y-76621371D01*
X131729686Y-76547504D01*
X131729687Y-76547503D01*
X131729689Y-76547500D01*
X131792500Y-76484689D01*
X131792504Y-76484686D01*
X131866371Y-76435329D01*
X131866374Y-76435328D01*
X131866375Y-76435327D01*
X131948448Y-76401331D01*
X132035579Y-76384000D01*
X132124421Y-76384000D01*
X132211552Y-76401331D01*
X132211552Y-76401331D01*
G37*
G36*
X156320442Y-75305518D02*
X156386627Y-75312037D01*
X156499853Y-75346384D01*
X156556467Y-75363557D01*
X156643311Y-75409977D01*
X156712991Y-75447222D01*
X156748729Y-75476552D01*
X156850186Y-75559814D01*
X156933448Y-75661271D01*
X156962778Y-75697009D01*
X156962779Y-75697011D01*
X157046443Y-75853533D01*
X157063616Y-75910147D01*
X157097963Y-76023373D01*
X157115359Y-76200000D01*
X157097963Y-76376627D01*
X157080156Y-76435329D01*
X157046443Y-76546467D01*
X157006405Y-76621371D01*
X156962778Y-76702991D01*
X156933448Y-76738729D01*
X156850186Y-76840186D01*
X156748729Y-76923448D01*
X156712991Y-76952778D01*
X156712989Y-76952779D01*
X156556467Y-77036443D01*
X156516294Y-77048629D01*
X156386627Y-77087963D01*
X156320442Y-77094482D01*
X156254260Y-77101000D01*
X156165740Y-77101000D01*
X156099558Y-77094482D01*
X156033373Y-77087963D01*
X155903706Y-77048629D01*
X155863533Y-77036443D01*
X155707011Y-76952779D01*
X155707009Y-76952778D01*
X155671271Y-76923448D01*
X155569814Y-76840186D01*
X155486552Y-76738729D01*
X155457222Y-76702991D01*
X155413595Y-76621371D01*
X155373557Y-76546467D01*
X155339844Y-76435329D01*
X155322037Y-76376627D01*
X155304641Y-76200000D01*
X155322037Y-76023373D01*
X155356384Y-75910147D01*
X155373557Y-75853533D01*
X155457221Y-75697011D01*
X155457222Y-75697009D01*
X155486552Y-75661271D01*
X155569814Y-75559814D01*
X155671271Y-75476552D01*
X155707009Y-75447222D01*
X155776689Y-75409977D01*
X155863533Y-75363557D01*
X155920147Y-75346384D01*
X156033373Y-75312037D01*
X156099558Y-75305518D01*
X156165740Y-75299000D01*
X156254260Y-75299000D01*
X156320442Y-75305518D01*
X156320442Y-75305518D01*
G37*
G36*
X139810442Y-75305518D02*
X139876627Y-75312037D01*
X139989853Y-75346384D01*
X140046467Y-75363557D01*
X140133311Y-75409977D01*
X140202991Y-75447222D01*
X140238729Y-75476552D01*
X140340186Y-75559814D01*
X140423448Y-75661271D01*
X140452778Y-75697009D01*
X140452779Y-75697011D01*
X140536443Y-75853533D01*
X140553616Y-75910147D01*
X140587963Y-76023373D01*
X140605359Y-76200000D01*
X140587963Y-76376627D01*
X140570156Y-76435329D01*
X140536443Y-76546467D01*
X140496405Y-76621371D01*
X140452778Y-76702991D01*
X140423448Y-76738729D01*
X140340186Y-76840186D01*
X140238729Y-76923448D01*
X140202991Y-76952778D01*
X140202989Y-76952779D01*
X140046467Y-77036443D01*
X140006294Y-77048629D01*
X139876627Y-77087963D01*
X139810442Y-77094482D01*
X139744260Y-77101000D01*
X139655740Y-77101000D01*
X139589558Y-77094482D01*
X139523373Y-77087963D01*
X139393706Y-77048629D01*
X139353533Y-77036443D01*
X139197011Y-76952779D01*
X139197009Y-76952778D01*
X139161271Y-76923448D01*
X139059814Y-76840186D01*
X138976552Y-76738729D01*
X138947222Y-76702991D01*
X138903595Y-76621371D01*
X138863557Y-76546467D01*
X138829844Y-76435329D01*
X138812037Y-76376627D01*
X138794641Y-76200000D01*
X138812037Y-76023373D01*
X138846384Y-75910147D01*
X138863557Y-75853533D01*
X138947221Y-75697011D01*
X138947222Y-75697009D01*
X138976552Y-75661271D01*
X139059814Y-75559814D01*
X139161271Y-75476552D01*
X139197009Y-75447222D01*
X139266689Y-75409977D01*
X139353533Y-75363557D01*
X139410147Y-75346384D01*
X139523373Y-75312037D01*
X139589558Y-75305518D01*
X139655740Y-75299000D01*
X139744260Y-75299000D01*
X139810442Y-75305518D01*
X139810442Y-75305518D01*
G37*
G36*
X145631000Y-77051000D02*
X143929000Y-77051000D01*
X143929000Y-75349000D01*
X145631000Y-75349000D01*
X145631000Y-77051000D01*
X145631000Y-77051000D01*
G37*
G36*
X152566821Y-75361313D02*
X152566824Y-75361314D01*
X152566825Y-75361314D01*
X152727239Y-75409975D01*
X152727241Y-75409976D01*
X152727244Y-75409977D01*
X152875078Y-75488995D01*
X153004659Y-75595341D01*
X153111005Y-75724922D01*
X153190023Y-75872756D01*
X153190024Y-75872759D01*
X153190025Y-75872761D01*
X153235713Y-76023375D01*
X153238687Y-76033179D01*
X153255117Y-76200000D01*
X153238687Y-76366821D01*
X153238686Y-76366824D01*
X153238686Y-76366825D01*
X153193812Y-76514756D01*
X153190023Y-76527244D01*
X153111005Y-76675078D01*
X153004659Y-76804659D01*
X152875078Y-76911005D01*
X152727244Y-76990023D01*
X152727241Y-76990024D01*
X152727239Y-76990025D01*
X152566825Y-77038686D01*
X152566824Y-77038686D01*
X152566821Y-77038687D01*
X152441804Y-77051000D01*
X152358196Y-77051000D01*
X152233179Y-77038687D01*
X152233176Y-77038686D01*
X152233175Y-77038686D01*
X152072761Y-76990025D01*
X152072759Y-76990024D01*
X152072756Y-76990023D01*
X151924922Y-76911005D01*
X151795341Y-76804659D01*
X151688995Y-76675078D01*
X151609977Y-76527244D01*
X151606189Y-76514756D01*
X151561314Y-76366825D01*
X151561314Y-76366824D01*
X151561313Y-76366821D01*
X151544883Y-76200000D01*
X151561313Y-76033179D01*
X151564287Y-76023375D01*
X151609975Y-75872761D01*
X151609976Y-75872759D01*
X151609977Y-75872756D01*
X151688995Y-75724922D01*
X151795341Y-75595341D01*
X151924922Y-75488995D01*
X152072756Y-75409977D01*
X152072759Y-75409976D01*
X152072761Y-75409975D01*
X152233175Y-75361314D01*
X152233176Y-75361314D01*
X152233179Y-75361313D01*
X152358196Y-75349000D01*
X152441804Y-75349000D01*
X152566821Y-75361313D01*
X152566821Y-75361313D01*
G37*
G36*
X115426443Y-73273519D02*
X115492627Y-73280037D01*
X115605853Y-73314384D01*
X115662467Y-73331557D01*
X115739072Y-73372504D01*
X115818991Y-73415222D01*
X115854729Y-73444552D01*
X115956186Y-73527814D01*
X116039448Y-73629271D01*
X116068778Y-73665009D01*
X116068779Y-73665011D01*
X116152443Y-73821533D01*
X116152443Y-73821534D01*
X116203963Y-73991373D01*
X116221359Y-74168000D01*
X116203963Y-74344627D01*
X116169616Y-74457853D01*
X116152443Y-74514467D01*
X116135632Y-74545917D01*
X116068778Y-74670991D01*
X116039448Y-74706729D01*
X115956186Y-74808186D01*
X115854729Y-74891448D01*
X115818991Y-74920778D01*
X115818989Y-74920779D01*
X115662467Y-75004443D01*
X115605853Y-75021616D01*
X115492627Y-75055963D01*
X115426443Y-75062481D01*
X115360260Y-75069000D01*
X115271740Y-75069000D01*
X115205557Y-75062481D01*
X115139373Y-75055963D01*
X115026147Y-75021616D01*
X114969533Y-75004443D01*
X114813011Y-74920779D01*
X114813009Y-74920778D01*
X114777271Y-74891448D01*
X114675814Y-74808186D01*
X114592552Y-74706729D01*
X114563222Y-74670991D01*
X114496368Y-74545917D01*
X114479557Y-74514467D01*
X114462384Y-74457853D01*
X114428037Y-74344627D01*
X114410641Y-74168000D01*
X114428037Y-73991373D01*
X114479557Y-73821534D01*
X114479557Y-73821533D01*
X114563221Y-73665011D01*
X114563222Y-73665009D01*
X114592552Y-73629271D01*
X114675814Y-73527814D01*
X114777271Y-73444552D01*
X114813009Y-73415222D01*
X114892928Y-73372504D01*
X114969533Y-73331557D01*
X115026147Y-73314384D01*
X115139373Y-73280037D01*
X115205557Y-73273519D01*
X115271740Y-73267000D01*
X115360260Y-73267000D01*
X115426443Y-73273519D01*
X115426443Y-73273519D01*
G37*
G36*
X132276719Y-72623520D02*
X132465880Y-72680901D01*
X132640212Y-72774083D01*
X132793015Y-72899485D01*
X132918417Y-73052288D01*
X133011599Y-73226619D01*
X133068980Y-73415780D01*
X133083500Y-73563206D01*
X133083500Y-73756793D01*
X133068980Y-73904219D01*
X133011599Y-74093380D01*
X132918417Y-74267712D01*
X132793015Y-74420515D01*
X132640212Y-74545917D01*
X132465881Y-74639099D01*
X132276720Y-74696480D01*
X132080000Y-74715855D01*
X131883281Y-74696480D01*
X131694120Y-74639099D01*
X131519788Y-74545917D01*
X131366985Y-74420515D01*
X131241583Y-74267712D01*
X131148401Y-74093381D01*
X131091020Y-73904220D01*
X131076500Y-73756794D01*
X131076500Y-73563207D01*
X131091020Y-73415781D01*
X131148401Y-73226620D01*
X131241583Y-73052288D01*
X131366985Y-72899485D01*
X131519788Y-72774083D01*
X131694119Y-72680901D01*
X131883280Y-72623520D01*
X132080000Y-72604145D01*
X132276719Y-72623520D01*
X132276719Y-72623520D01*
G37*
G36*
X134816719Y-72623520D02*
X135005880Y-72680901D01*
X135180212Y-72774083D01*
X135333015Y-72899485D01*
X135458417Y-73052288D01*
X135551599Y-73226619D01*
X135608980Y-73415780D01*
X135623500Y-73563206D01*
X135623500Y-73756793D01*
X135608980Y-73904219D01*
X135551599Y-74093380D01*
X135458417Y-74267712D01*
X135333015Y-74420515D01*
X135180212Y-74545917D01*
X135005881Y-74639099D01*
X134816720Y-74696480D01*
X134620000Y-74715855D01*
X134423281Y-74696480D01*
X134234120Y-74639099D01*
X134059788Y-74545917D01*
X133906985Y-74420515D01*
X133781583Y-74267712D01*
X133688401Y-74093381D01*
X133631020Y-73904220D01*
X133616500Y-73756794D01*
X133616500Y-73563207D01*
X133631020Y-73415781D01*
X133688401Y-73226620D01*
X133781583Y-73052288D01*
X133906985Y-72899485D01*
X134059788Y-72774083D01*
X134234119Y-72680901D01*
X134423280Y-72623520D01*
X134620000Y-72604145D01*
X134816719Y-72623520D01*
X134816719Y-72623520D01*
G37*
G36*
X164026719Y-72623520D02*
X164215880Y-72680901D01*
X164390212Y-72774083D01*
X164543015Y-72899485D01*
X164668417Y-73052288D01*
X164761599Y-73226619D01*
X164818980Y-73415780D01*
X164833500Y-73563206D01*
X164833500Y-73756793D01*
X164818980Y-73904219D01*
X164761599Y-74093380D01*
X164668417Y-74267712D01*
X164543015Y-74420515D01*
X164390212Y-74545917D01*
X164215881Y-74639099D01*
X164026720Y-74696480D01*
X163830000Y-74715855D01*
X163633281Y-74696480D01*
X163444120Y-74639099D01*
X163269788Y-74545917D01*
X163116985Y-74420515D01*
X162991583Y-74267712D01*
X162898401Y-74093381D01*
X162841020Y-73904220D01*
X162826500Y-73756794D01*
X162826500Y-73563207D01*
X162841020Y-73415781D01*
X162898401Y-73226620D01*
X162991583Y-73052288D01*
X163116985Y-72899485D01*
X163269788Y-72774083D01*
X163444119Y-72680901D01*
X163633280Y-72623520D01*
X163830000Y-72604145D01*
X164026719Y-72623520D01*
X164026719Y-72623520D01*
G37*
G36*
X166566719Y-72623520D02*
X166755880Y-72680901D01*
X166930212Y-72774083D01*
X167083015Y-72899485D01*
X167208417Y-73052288D01*
X167301599Y-73226619D01*
X167358980Y-73415780D01*
X167373500Y-73563206D01*
X167373500Y-73756793D01*
X167358980Y-73904219D01*
X167301599Y-74093380D01*
X167208417Y-74267712D01*
X167083015Y-74420515D01*
X166930212Y-74545917D01*
X166755881Y-74639099D01*
X166566720Y-74696480D01*
X166370000Y-74715855D01*
X166173281Y-74696480D01*
X165984120Y-74639099D01*
X165809788Y-74545917D01*
X165656985Y-74420515D01*
X165531583Y-74267712D01*
X165438401Y-74093381D01*
X165381020Y-73904220D01*
X165366500Y-73756794D01*
X165366500Y-73563207D01*
X165381020Y-73415781D01*
X165438401Y-73226620D01*
X165531583Y-73052288D01*
X165656985Y-72899485D01*
X165809788Y-72774083D01*
X165984119Y-72680901D01*
X166173280Y-72623520D01*
X166370000Y-72604145D01*
X166566719Y-72623520D01*
X166566719Y-72623520D01*
G37*
G36*
X130543500Y-74711000D02*
X128536500Y-74711000D01*
X128536500Y-72609000D01*
X130543500Y-72609000D01*
X130543500Y-74711000D01*
X130543500Y-74711000D01*
G37*
G36*
X162293500Y-74711000D02*
X160286500Y-74711000D01*
X160286500Y-72609000D01*
X162293500Y-72609000D01*
X162293500Y-74711000D01*
X162293500Y-74711000D01*
G37*
G36*
X157111000Y-74561000D02*
X155309000Y-74561000D01*
X155309000Y-72759000D01*
X157111000Y-72759000D01*
X157111000Y-74561000D01*
X157111000Y-74561000D01*
G37*
G36*
X140601000Y-74561000D02*
X138799000Y-74561000D01*
X138799000Y-72759000D01*
X140601000Y-72759000D01*
X140601000Y-74561000D01*
X140601000Y-74561000D01*
G37*
G36*
X122708228Y-72841703D02*
X122863100Y-72905853D01*
X123002481Y-72998985D01*
X123121015Y-73117519D01*
X123214147Y-73256900D01*
X123278297Y-73411772D01*
X123311000Y-73576184D01*
X123311000Y-73743816D01*
X123278297Y-73908228D01*
X123214147Y-74063100D01*
X123121015Y-74202481D01*
X123002481Y-74321015D01*
X122863100Y-74414147D01*
X122708228Y-74478297D01*
X122543816Y-74511000D01*
X122376184Y-74511000D01*
X122211772Y-74478297D01*
X122056900Y-74414147D01*
X121917519Y-74321015D01*
X121798985Y-74202481D01*
X121705853Y-74063100D01*
X121641703Y-73908228D01*
X121609000Y-73743816D01*
X121609000Y-73576184D01*
X121641703Y-73411772D01*
X121705853Y-73256900D01*
X121798985Y-73117519D01*
X121917519Y-72998985D01*
X122056900Y-72905853D01*
X122211772Y-72841703D01*
X122376184Y-72809000D01*
X122543816Y-72809000D01*
X122708228Y-72841703D01*
X122708228Y-72841703D01*
G37*
G36*
X172301000Y-74511000D02*
X170599000Y-74511000D01*
X170599000Y-72809000D01*
X172301000Y-72809000D01*
X172301000Y-74511000D01*
X172301000Y-74511000D01*
G37*
G36*
X125311000Y-74511000D02*
X123609000Y-74511000D01*
X123609000Y-72809000D01*
X125311000Y-72809000D01*
X125311000Y-74511000D01*
X125311000Y-74511000D01*
G37*
G36*
X173698228Y-72841703D02*
X173853100Y-72905853D01*
X173992481Y-72998985D01*
X174111015Y-73117519D01*
X174204147Y-73256900D01*
X174268297Y-73411772D01*
X174301000Y-73576184D01*
X174301000Y-73743816D01*
X174268297Y-73908228D01*
X174204147Y-74063100D01*
X174111015Y-74202481D01*
X173992481Y-74321015D01*
X173853100Y-74414147D01*
X173698228Y-74478297D01*
X173533816Y-74511000D01*
X173366184Y-74511000D01*
X173201772Y-74478297D01*
X173046900Y-74414147D01*
X172907519Y-74321015D01*
X172788985Y-74202481D01*
X172695853Y-74063100D01*
X172631703Y-73908228D01*
X172599000Y-73743816D01*
X172599000Y-73576184D01*
X172631703Y-73411772D01*
X172695853Y-73256900D01*
X172788985Y-73117519D01*
X172907519Y-72998985D01*
X173046900Y-72905853D01*
X173201772Y-72841703D01*
X173366184Y-72809000D01*
X173533816Y-72809000D01*
X173698228Y-72841703D01*
X173698228Y-72841703D01*
G37*
G36*
X151261552Y-73226331D02*
X151343625Y-73260327D01*
X151343626Y-73260328D01*
X151343629Y-73260329D01*
X151417496Y-73309686D01*
X151417500Y-73309689D01*
X151480311Y-73372500D01*
X151480313Y-73372503D01*
X151480314Y-73372504D01*
X151529671Y-73446371D01*
X151529672Y-73446374D01*
X151529673Y-73446375D01*
X151563669Y-73528448D01*
X151581000Y-73615579D01*
X151581000Y-73704421D01*
X151563669Y-73791552D01*
X151529673Y-73873625D01*
X151529671Y-73873629D01*
X151509233Y-73904216D01*
X151480311Y-73947500D01*
X151417500Y-74010311D01*
X151417497Y-74010313D01*
X151417496Y-74010314D01*
X151343629Y-74059671D01*
X151343626Y-74059672D01*
X151343625Y-74059673D01*
X151261552Y-74093669D01*
X151174421Y-74111000D01*
X151085579Y-74111000D01*
X150998448Y-74093669D01*
X150916375Y-74059673D01*
X150916374Y-74059672D01*
X150916371Y-74059671D01*
X150842504Y-74010314D01*
X150842503Y-74010313D01*
X150842500Y-74010311D01*
X150779689Y-73947500D01*
X150750767Y-73904216D01*
X150730329Y-73873629D01*
X150730327Y-73873625D01*
X150696331Y-73791552D01*
X150679000Y-73704421D01*
X150679000Y-73615579D01*
X150696331Y-73528448D01*
X150730327Y-73446375D01*
X150730328Y-73446374D01*
X150730329Y-73446371D01*
X150779686Y-73372504D01*
X150779687Y-73372503D01*
X150779689Y-73372500D01*
X150842500Y-73309689D01*
X150842504Y-73309686D01*
X150916371Y-73260329D01*
X150916374Y-73260328D01*
X150916375Y-73260327D01*
X150998448Y-73226331D01*
X151085579Y-73209000D01*
X151174421Y-73209000D01*
X151261552Y-73226331D01*
X151261552Y-73226331D01*
G37*
G36*
X116217000Y-72529000D02*
X114415000Y-72529000D01*
X114415000Y-70727000D01*
X116217000Y-70727000D01*
X116217000Y-72529000D01*
X116217000Y-72529000D01*
G37*
G36*
X179236821Y-69131313D02*
X179236824Y-69131314D01*
X179236825Y-69131314D01*
X179397239Y-69179975D01*
X179397241Y-69179976D01*
X179397244Y-69179977D01*
X179545078Y-69258995D01*
X179674659Y-69365341D01*
X179781005Y-69494922D01*
X179860023Y-69642756D01*
X179908687Y-69803179D01*
X179925117Y-69970000D01*
X179908687Y-70136821D01*
X179908686Y-70136824D01*
X179908686Y-70136825D01*
X179891646Y-70193000D01*
X179860023Y-70297244D01*
X179781005Y-70445078D01*
X179674659Y-70574659D01*
X179545078Y-70681005D01*
X179397244Y-70760023D01*
X179397241Y-70760024D01*
X179397239Y-70760025D01*
X179236825Y-70808686D01*
X179236824Y-70808686D01*
X179236821Y-70808687D01*
X179111804Y-70821000D01*
X179028196Y-70821000D01*
X178903179Y-70808687D01*
X178903176Y-70808686D01*
X178903175Y-70808686D01*
X178742761Y-70760025D01*
X178742759Y-70760024D01*
X178742756Y-70760023D01*
X178594922Y-70681005D01*
X178465341Y-70574659D01*
X178358995Y-70445078D01*
X178279977Y-70297244D01*
X178248355Y-70193000D01*
X178231314Y-70136825D01*
X178231314Y-70136824D01*
X178231313Y-70136821D01*
X178214883Y-69970000D01*
X178231313Y-69803179D01*
X178279977Y-69642756D01*
X178358995Y-69494922D01*
X178465341Y-69365341D01*
X178594922Y-69258995D01*
X178742756Y-69179977D01*
X178742759Y-69179976D01*
X178742761Y-69179975D01*
X178903175Y-69131314D01*
X178903176Y-69131314D01*
X178903179Y-69131313D01*
X179028196Y-69119000D01*
X179111804Y-69119000D01*
X179236821Y-69131313D01*
X179236821Y-69131313D01*
G37*
G36*
X119374228Y-68523703D02*
X119529100Y-68587853D01*
X119668481Y-68680985D01*
X119787015Y-68799519D01*
X119880147Y-68938900D01*
X119944297Y-69093772D01*
X119977000Y-69258184D01*
X119977000Y-69425816D01*
X119944297Y-69590228D01*
X119880147Y-69745100D01*
X119787015Y-69884481D01*
X119668481Y-70003015D01*
X119529100Y-70096147D01*
X119374228Y-70160297D01*
X119209816Y-70193000D01*
X119042184Y-70193000D01*
X118877772Y-70160297D01*
X118722900Y-70096147D01*
X118583519Y-70003015D01*
X118464985Y-69884481D01*
X118371853Y-69745100D01*
X118307703Y-69590228D01*
X118275000Y-69425816D01*
X118275000Y-69258184D01*
X118307703Y-69093772D01*
X118371853Y-68938900D01*
X118464985Y-68799519D01*
X118583519Y-68680985D01*
X118722900Y-68587853D01*
X118877772Y-68523703D01*
X119042184Y-68491000D01*
X119209816Y-68491000D01*
X119374228Y-68523703D01*
X119374228Y-68523703D01*
G37*
G36*
X166618228Y-48711703D02*
X166773100Y-48775853D01*
X166912481Y-48868985D01*
X167031015Y-48987519D01*
X167124147Y-49126900D01*
X167188297Y-49281772D01*
X167221000Y-49446184D01*
X167221000Y-49613816D01*
X167188297Y-49778228D01*
X167124147Y-49933100D01*
X167031015Y-50072481D01*
X166912481Y-50191015D01*
X166773100Y-50284147D01*
X166618228Y-50348297D01*
X166453816Y-50381000D01*
X166286184Y-50381000D01*
X166121772Y-50348297D01*
X165966900Y-50284147D01*
X165827519Y-50191015D01*
X165708985Y-50072481D01*
X165615853Y-49933100D01*
X165551703Y-49778228D01*
X165519000Y-49613816D01*
X165519000Y-49446184D01*
X165551703Y-49281772D01*
X165615853Y-49126900D01*
X165708985Y-48987519D01*
X165827519Y-48868985D01*
X165966900Y-48775853D01*
X166121772Y-48711703D01*
X166286184Y-48679000D01*
X166453816Y-48679000D01*
X166618228Y-48711703D01*
X166618228Y-48711703D01*
G37*
G36*
X163411000Y-49111000D02*
X161709000Y-49111000D01*
X161709000Y-47409000D01*
X163411000Y-47409000D01*
X163411000Y-49111000D01*
X163411000Y-49111000D01*
G37*
G36*
X120281000Y-46621000D02*
X118479000Y-46621000D01*
X118479000Y-44819000D01*
X120281000Y-44819000D01*
X120281000Y-46621000D01*
X120281000Y-46621000D01*
G37*
G36*
X122030442Y-44825518D02*
X122096627Y-44832037D01*
X122209853Y-44866384D01*
X122266467Y-44883557D01*
X122405087Y-44957652D01*
X122422991Y-44967222D01*
X122458729Y-44996552D01*
X122560186Y-45079814D01*
X122643448Y-45181271D01*
X122672778Y-45217009D01*
X122672779Y-45217011D01*
X122756443Y-45373533D01*
X122756443Y-45373534D01*
X122807963Y-45543373D01*
X122825359Y-45720000D01*
X122807963Y-45896627D01*
X122773616Y-46009853D01*
X122756443Y-46066467D01*
X122682348Y-46205087D01*
X122672778Y-46222991D01*
X122643448Y-46258729D01*
X122560186Y-46360186D01*
X122458729Y-46443448D01*
X122422991Y-46472778D01*
X122422989Y-46472779D01*
X122266467Y-46556443D01*
X122209853Y-46573616D01*
X122096627Y-46607963D01*
X122030443Y-46614481D01*
X121964260Y-46621000D01*
X121875740Y-46621000D01*
X121809558Y-46614482D01*
X121743373Y-46607963D01*
X121630147Y-46573616D01*
X121573533Y-46556443D01*
X121417011Y-46472779D01*
X121417009Y-46472778D01*
X121381271Y-46443448D01*
X121279814Y-46360186D01*
X121196552Y-46258729D01*
X121167222Y-46222991D01*
X121157652Y-46205087D01*
X121083557Y-46066467D01*
X121066384Y-46009853D01*
X121032037Y-45896627D01*
X121014641Y-45720000D01*
X121032037Y-45543373D01*
X121083557Y-45373534D01*
X121083557Y-45373533D01*
X121167221Y-45217011D01*
X121167222Y-45217009D01*
X121196552Y-45181271D01*
X121279814Y-45079814D01*
X121381271Y-44996552D01*
X121417009Y-44967222D01*
X121434913Y-44957652D01*
X121573533Y-44883557D01*
X121630147Y-44866384D01*
X121743373Y-44832037D01*
X121809558Y-44825518D01*
X121875740Y-44819000D01*
X121964260Y-44819000D01*
X122030442Y-44825518D01*
X122030442Y-44825518D01*
G37*
G36*
X171716000Y-46621000D02*
X169914000Y-46621000D01*
X169914000Y-44819000D01*
X171716000Y-44819000D01*
X171716000Y-46621000D01*
X171716000Y-46621000D01*
G37*
G36*
X173465442Y-44825518D02*
X173531627Y-44832037D01*
X173644853Y-44866384D01*
X173701467Y-44883557D01*
X173840087Y-44957652D01*
X173857991Y-44967222D01*
X173893729Y-44996552D01*
X173995186Y-45079814D01*
X174078448Y-45181271D01*
X174107778Y-45217009D01*
X174107779Y-45217011D01*
X174191443Y-45373533D01*
X174191443Y-45373534D01*
X174242963Y-45543373D01*
X174260359Y-45720000D01*
X174242963Y-45896627D01*
X174208616Y-46009853D01*
X174191443Y-46066467D01*
X174117348Y-46205087D01*
X174107778Y-46222991D01*
X174078448Y-46258729D01*
X173995186Y-46360186D01*
X173893729Y-46443448D01*
X173857991Y-46472778D01*
X173857989Y-46472779D01*
X173701467Y-46556443D01*
X173644853Y-46573616D01*
X173531627Y-46607963D01*
X173465443Y-46614481D01*
X173399260Y-46621000D01*
X173310740Y-46621000D01*
X173244558Y-46614482D01*
X173178373Y-46607963D01*
X173065147Y-46573616D01*
X173008533Y-46556443D01*
X172852011Y-46472779D01*
X172852009Y-46472778D01*
X172816271Y-46443448D01*
X172714814Y-46360186D01*
X172631552Y-46258729D01*
X172602222Y-46222991D01*
X172592652Y-46205087D01*
X172518557Y-46066467D01*
X172501384Y-46009853D01*
X172467037Y-45896627D01*
X172449641Y-45720000D01*
X172467037Y-45543373D01*
X172518557Y-45373534D01*
X172518557Y-45373533D01*
X172602221Y-45217011D01*
X172602222Y-45217009D01*
X172631552Y-45181271D01*
X172714814Y-45079814D01*
X172816271Y-44996552D01*
X172852009Y-44967222D01*
X172869913Y-44957652D01*
X173008533Y-44883557D01*
X173065147Y-44866384D01*
X173178373Y-44832037D01*
X173244558Y-44825518D01*
X173310740Y-44819000D01*
X173399260Y-44819000D01*
X173465442Y-44825518D01*
X173465442Y-44825518D01*
G37*
G36*
X176005442Y-44825518D02*
X176071627Y-44832037D01*
X176184853Y-44866384D01*
X176241467Y-44883557D01*
X176380087Y-44957652D01*
X176397991Y-44967222D01*
X176433729Y-44996552D01*
X176535186Y-45079814D01*
X176618448Y-45181271D01*
X176647778Y-45217009D01*
X176647779Y-45217011D01*
X176731443Y-45373533D01*
X176731443Y-45373534D01*
X176782963Y-45543373D01*
X176800359Y-45720000D01*
X176782963Y-45896627D01*
X176748616Y-46009853D01*
X176731443Y-46066467D01*
X176657348Y-46205087D01*
X176647778Y-46222991D01*
X176618448Y-46258729D01*
X176535186Y-46360186D01*
X176433729Y-46443448D01*
X176397991Y-46472778D01*
X176397989Y-46472779D01*
X176241467Y-46556443D01*
X176184853Y-46573616D01*
X176071627Y-46607963D01*
X176005443Y-46614481D01*
X175939260Y-46621000D01*
X175850740Y-46621000D01*
X175784558Y-46614482D01*
X175718373Y-46607963D01*
X175605147Y-46573616D01*
X175548533Y-46556443D01*
X175392011Y-46472779D01*
X175392009Y-46472778D01*
X175356271Y-46443448D01*
X175254814Y-46360186D01*
X175171552Y-46258729D01*
X175142222Y-46222991D01*
X175132652Y-46205087D01*
X175058557Y-46066467D01*
X175041384Y-46009853D01*
X175007037Y-45896627D01*
X174989641Y-45720000D01*
X175007037Y-45543373D01*
X175058557Y-45373534D01*
X175058557Y-45373533D01*
X175142221Y-45217011D01*
X175142222Y-45217009D01*
X175171552Y-45181271D01*
X175254814Y-45079814D01*
X175356271Y-44996552D01*
X175392009Y-44967222D01*
X175409913Y-44957652D01*
X175548533Y-44883557D01*
X175605147Y-44866384D01*
X175718373Y-44832037D01*
X175784558Y-44825518D01*
X175850740Y-44819000D01*
X175939260Y-44819000D01*
X176005442Y-44825518D01*
X176005442Y-44825518D01*
G37*
G36*
X124570442Y-44825518D02*
X124636627Y-44832037D01*
X124749853Y-44866384D01*
X124806467Y-44883557D01*
X124945087Y-44957652D01*
X124962991Y-44967222D01*
X124998729Y-44996552D01*
X125100186Y-45079814D01*
X125183448Y-45181271D01*
X125212778Y-45217009D01*
X125212779Y-45217011D01*
X125296443Y-45373533D01*
X125296443Y-45373534D01*
X125347963Y-45543373D01*
X125365359Y-45720000D01*
X125347963Y-45896627D01*
X125313616Y-46009853D01*
X125296443Y-46066467D01*
X125222348Y-46205087D01*
X125212778Y-46222991D01*
X125183448Y-46258729D01*
X125100186Y-46360186D01*
X124998729Y-46443448D01*
X124962991Y-46472778D01*
X124962989Y-46472779D01*
X124806467Y-46556443D01*
X124749853Y-46573616D01*
X124636627Y-46607963D01*
X124570443Y-46614481D01*
X124504260Y-46621000D01*
X124415740Y-46621000D01*
X124349558Y-46614482D01*
X124283373Y-46607963D01*
X124170147Y-46573616D01*
X124113533Y-46556443D01*
X123957011Y-46472779D01*
X123957009Y-46472778D01*
X123921271Y-46443448D01*
X123819814Y-46360186D01*
X123736552Y-46258729D01*
X123707222Y-46222991D01*
X123697652Y-46205087D01*
X123623557Y-46066467D01*
X123606384Y-46009853D01*
X123572037Y-45896627D01*
X123554641Y-45720000D01*
X123572037Y-45543373D01*
X123623557Y-45373534D01*
X123623557Y-45373533D01*
X123707221Y-45217011D01*
X123707222Y-45217009D01*
X123736552Y-45181271D01*
X123819814Y-45079814D01*
X123921271Y-44996552D01*
X123957009Y-44967222D01*
X123974913Y-44957652D01*
X124113533Y-44883557D01*
X124170147Y-44866384D01*
X124283373Y-44832037D01*
X124349558Y-44825518D01*
X124415740Y-44819000D01*
X124504260Y-44819000D01*
X124570442Y-44825518D01*
X124570442Y-44825518D01*
G37*
G36*
X152531552Y-42746331D02*
X152613625Y-42780327D01*
X152613626Y-42780328D01*
X152613629Y-42780329D01*
X152687496Y-42829686D01*
X152687500Y-42829689D01*
X152750311Y-42892500D01*
X152750313Y-42892503D01*
X152750314Y-42892504D01*
X152799671Y-42966371D01*
X152799672Y-42966374D01*
X152799673Y-42966375D01*
X152833669Y-43048448D01*
X152851000Y-43135579D01*
X152851000Y-43224421D01*
X152833669Y-43311552D01*
X152799673Y-43393625D01*
X152799671Y-43393629D01*
X152750314Y-43467496D01*
X152750311Y-43467500D01*
X152687500Y-43530311D01*
X152687497Y-43530313D01*
X152687496Y-43530314D01*
X152613629Y-43579671D01*
X152613626Y-43579672D01*
X152613625Y-43579673D01*
X152531552Y-43613669D01*
X152444421Y-43631000D01*
X152355579Y-43631000D01*
X152268448Y-43613669D01*
X152186375Y-43579673D01*
X152186374Y-43579672D01*
X152186371Y-43579671D01*
X152112504Y-43530314D01*
X152112503Y-43530313D01*
X152112500Y-43530311D01*
X152049689Y-43467500D01*
X152049686Y-43467496D01*
X152000329Y-43393629D01*
X152000327Y-43393625D01*
X151966331Y-43311552D01*
X151949000Y-43224421D01*
X151949000Y-43135579D01*
X151966331Y-43048448D01*
X152000327Y-42966375D01*
X152000328Y-42966374D01*
X152000329Y-42966371D01*
X152049686Y-42892504D01*
X152049687Y-42892503D01*
X152049689Y-42892500D01*
X152112500Y-42829689D01*
X152112504Y-42829686D01*
X152186371Y-42780329D01*
X152186374Y-42780328D01*
X152186375Y-42780327D01*
X152268448Y-42746331D01*
X152355579Y-42729000D01*
X152444421Y-42729000D01*
X152531552Y-42746331D01*
X152531552Y-42746331D01*
G37*
G36*
X140466552Y-42746331D02*
X140548625Y-42780327D01*
X140548626Y-42780328D01*
X140548629Y-42780329D01*
X140622496Y-42829686D01*
X140622500Y-42829689D01*
X140685311Y-42892500D01*
X140685313Y-42892503D01*
X140685314Y-42892504D01*
X140734671Y-42966371D01*
X140734672Y-42966374D01*
X140734673Y-42966375D01*
X140768669Y-43048448D01*
X140786000Y-43135579D01*
X140786000Y-43224421D01*
X140768669Y-43311552D01*
X140734673Y-43393625D01*
X140734671Y-43393629D01*
X140685314Y-43467496D01*
X140685311Y-43467500D01*
X140622500Y-43530311D01*
X140622497Y-43530313D01*
X140622496Y-43530314D01*
X140548629Y-43579671D01*
X140548626Y-43579672D01*
X140548625Y-43579673D01*
X140466552Y-43613669D01*
X140379421Y-43631000D01*
X140290579Y-43631000D01*
X140203448Y-43613669D01*
X140121375Y-43579673D01*
X140121374Y-43579672D01*
X140121371Y-43579671D01*
X140047504Y-43530314D01*
X140047503Y-43530313D01*
X140047500Y-43530311D01*
X139984689Y-43467500D01*
X139984686Y-43467496D01*
X139935329Y-43393629D01*
X139935327Y-43393625D01*
X139901331Y-43311552D01*
X139884000Y-43224421D01*
X139884000Y-43135579D01*
X139901331Y-43048448D01*
X139935327Y-42966375D01*
X139935328Y-42966374D01*
X139935329Y-42966371D01*
X139984686Y-42892504D01*
X139984687Y-42892503D01*
X139984689Y-42892500D01*
X140047500Y-42829689D01*
X140047504Y-42829686D01*
X140121371Y-42780329D01*
X140121374Y-42780328D01*
X140121375Y-42780327D01*
X140203448Y-42746331D01*
X140290579Y-42729000D01*
X140379421Y-42729000D01*
X140466552Y-42746331D01*
X140466552Y-42746331D01*
G37*
G36*
X162726821Y-39801313D02*
X162726824Y-39801314D01*
X162726825Y-39801314D01*
X162887239Y-39849975D01*
X162887241Y-39849976D01*
X162887244Y-39849977D01*
X163035078Y-39928995D01*
X163164659Y-40035341D01*
X163271005Y-40164922D01*
X163350023Y-40312756D01*
X163350024Y-40312759D01*
X163350025Y-40312761D01*
X163397620Y-40469662D01*
X163398687Y-40473179D01*
X163415117Y-40640000D01*
X163398687Y-40806821D01*
X163398686Y-40806824D01*
X163398686Y-40806825D01*
X163373993Y-40888228D01*
X163350023Y-40967244D01*
X163271005Y-41115078D01*
X163164659Y-41244659D01*
X163035078Y-41351005D01*
X162887244Y-41430023D01*
X162887241Y-41430024D01*
X162887239Y-41430025D01*
X162726825Y-41478686D01*
X162726824Y-41478686D01*
X162726821Y-41478687D01*
X162601804Y-41491000D01*
X162518196Y-41491000D01*
X162393179Y-41478687D01*
X162393176Y-41478686D01*
X162393175Y-41478686D01*
X162232761Y-41430025D01*
X162232759Y-41430024D01*
X162232756Y-41430023D01*
X162084922Y-41351005D01*
X161955341Y-41244659D01*
X161848995Y-41115078D01*
X161769977Y-40967244D01*
X161746008Y-40888228D01*
X161721314Y-40806825D01*
X161721314Y-40806824D01*
X161721313Y-40806821D01*
X161704883Y-40640000D01*
X161721313Y-40473179D01*
X161722380Y-40469662D01*
X161769975Y-40312761D01*
X161769976Y-40312759D01*
X161769977Y-40312756D01*
X161848995Y-40164922D01*
X161955341Y-40035341D01*
X162084922Y-39928995D01*
X162232756Y-39849977D01*
X162232759Y-39849976D01*
X162232761Y-39849975D01*
X162393175Y-39801314D01*
X162393176Y-39801314D01*
X162393179Y-39801313D01*
X162518196Y-39789000D01*
X162601804Y-39789000D01*
X162726821Y-39801313D01*
X162726821Y-39801313D01*
G37*
G36*
X129788228Y-39821703D02*
X129943100Y-39885853D01*
X130082481Y-39978985D01*
X130201015Y-40097519D01*
X130294147Y-40236900D01*
X130358297Y-40391772D01*
X130391000Y-40556184D01*
X130391000Y-40723816D01*
X130358297Y-40888228D01*
X130294147Y-41043100D01*
X130201015Y-41182481D01*
X130082481Y-41301015D01*
X129943100Y-41394147D01*
X129788228Y-41458297D01*
X129623816Y-41491000D01*
X129456184Y-41491000D01*
X129291772Y-41458297D01*
X129136900Y-41394147D01*
X128997519Y-41301015D01*
X128878985Y-41182481D01*
X128785853Y-41043100D01*
X128721703Y-40888228D01*
X128689000Y-40723816D01*
X128689000Y-40556184D01*
X128721703Y-40391772D01*
X128785853Y-40236900D01*
X128878985Y-40097519D01*
X128997519Y-39978985D01*
X129136900Y-39885853D01*
X129291772Y-39821703D01*
X129456184Y-39789000D01*
X129623816Y-39789000D01*
X129788228Y-39821703D01*
X129788228Y-39821703D01*
G37*
G36*
X139866821Y-39801313D02*
X139866824Y-39801314D01*
X139866825Y-39801314D01*
X140027239Y-39849975D01*
X140027241Y-39849976D01*
X140027244Y-39849977D01*
X140175078Y-39928995D01*
X140304659Y-40035341D01*
X140411005Y-40164922D01*
X140490023Y-40312756D01*
X140490024Y-40312759D01*
X140490025Y-40312761D01*
X140537620Y-40469662D01*
X140538687Y-40473179D01*
X140555117Y-40640000D01*
X140538687Y-40806821D01*
X140538686Y-40806824D01*
X140538686Y-40806825D01*
X140513993Y-40888228D01*
X140490023Y-40967244D01*
X140411005Y-41115078D01*
X140304659Y-41244659D01*
X140175078Y-41351005D01*
X140027244Y-41430023D01*
X140027241Y-41430024D01*
X140027239Y-41430025D01*
X139866825Y-41478686D01*
X139866824Y-41478686D01*
X139866821Y-41478687D01*
X139741804Y-41491000D01*
X139658196Y-41491000D01*
X139533179Y-41478687D01*
X139533176Y-41478686D01*
X139533175Y-41478686D01*
X139372761Y-41430025D01*
X139372759Y-41430024D01*
X139372756Y-41430023D01*
X139224922Y-41351005D01*
X139095341Y-41244659D01*
X138988995Y-41115078D01*
X138909977Y-40967244D01*
X138886008Y-40888228D01*
X138861314Y-40806825D01*
X138861314Y-40806824D01*
X138861313Y-40806821D01*
X138844883Y-40640000D01*
X138861313Y-40473179D01*
X138862380Y-40469662D01*
X138909975Y-40312761D01*
X138909976Y-40312759D01*
X138909977Y-40312756D01*
X138988995Y-40164922D01*
X139095341Y-40035341D01*
X139224922Y-39928995D01*
X139372756Y-39849977D01*
X139372759Y-39849976D01*
X139372761Y-39849975D01*
X139533175Y-39801314D01*
X139533176Y-39801314D01*
X139533179Y-39801313D01*
X139658196Y-39789000D01*
X139741804Y-39789000D01*
X139866821Y-39801313D01*
X139866821Y-39801313D01*
G37*
G36*
X183475170Y-35107879D02*
X183769868Y-35166498D01*
X184325067Y-35396469D01*
X184821363Y-35728084D01*
X184824736Y-35730338D01*
X185249662Y-36155264D01*
X185249664Y-36155267D01*
X185583531Y-36654933D01*
X185813502Y-37210132D01*
X185930740Y-37799528D01*
X185930740Y-38400472D01*
X185813502Y-38989868D01*
X185583531Y-39545067D01*
X185293595Y-39978986D01*
X185249662Y-40044736D01*
X184824736Y-40469662D01*
X184824733Y-40469664D01*
X184325067Y-40803531D01*
X183769868Y-41033502D01*
X183475170Y-41092121D01*
X183180473Y-41150740D01*
X182579527Y-41150740D01*
X182284830Y-41092121D01*
X181990132Y-41033502D01*
X181434933Y-40803531D01*
X180935267Y-40469664D01*
X180935264Y-40469662D01*
X180510338Y-40044736D01*
X180466405Y-39978986D01*
X180176469Y-39545067D01*
X179946498Y-38989868D01*
X179829260Y-38400472D01*
X179829260Y-37799528D01*
X179946498Y-37210132D01*
X180176469Y-36654933D01*
X180510336Y-36155267D01*
X180510338Y-36155264D01*
X180935264Y-35730338D01*
X180938637Y-35728084D01*
X181434933Y-35396469D01*
X181990132Y-35166498D01*
X182284830Y-35107879D01*
X182579527Y-35049260D01*
X183180473Y-35049260D01*
X183475170Y-35107879D01*
X183475170Y-35107879D01*
G37*
G36*
X112101170Y-35107879D02*
X112395868Y-35166498D01*
X112951067Y-35396469D01*
X113447363Y-35728084D01*
X113450736Y-35730338D01*
X113875662Y-36155264D01*
X113875664Y-36155267D01*
X114209531Y-36654933D01*
X114439502Y-37210132D01*
X114556740Y-37799528D01*
X114556740Y-38400472D01*
X114439502Y-38989868D01*
X114209531Y-39545067D01*
X113919595Y-39978986D01*
X113875662Y-40044736D01*
X113450736Y-40469662D01*
X113450733Y-40469664D01*
X112951067Y-40803531D01*
X112395868Y-41033502D01*
X112101170Y-41092121D01*
X111806473Y-41150740D01*
X111205527Y-41150740D01*
X110910830Y-41092121D01*
X110616132Y-41033502D01*
X110060933Y-40803531D01*
X109561267Y-40469664D01*
X109561264Y-40469662D01*
X109136338Y-40044736D01*
X109092405Y-39978986D01*
X108802469Y-39545067D01*
X108572498Y-38989868D01*
X108455260Y-38400472D01*
X108455260Y-37799528D01*
X108572498Y-37210132D01*
X108802469Y-36654933D01*
X109136336Y-36155267D01*
X109136338Y-36155264D01*
X109561264Y-35730338D01*
X109564637Y-35728084D01*
X110060933Y-35396469D01*
X110616132Y-35166498D01*
X110910830Y-35107879D01*
X111205527Y-35049260D01*
X111806473Y-35049260D01*
X112101170Y-35107879D01*
X112101170Y-35107879D01*
G37*
G36*
X106936740Y-41150740D02*
X100835260Y-41150740D01*
X100835260Y-35049260D01*
X106936740Y-35049260D01*
X106936740Y-41150740D01*
X106936740Y-41150740D01*
G37*
G36*
X193550740Y-41150740D02*
X187449260Y-41150740D01*
X187449260Y-35049260D01*
X193550740Y-35049260D01*
X193550740Y-41150740D01*
X193550740Y-41150740D01*
G37*
G36*
X152995170Y-35107879D02*
X153289868Y-35166498D01*
X153845067Y-35396469D01*
X154341363Y-35728084D01*
X154344736Y-35730338D01*
X154769662Y-36155264D01*
X154769664Y-36155267D01*
X155103531Y-36654933D01*
X155333502Y-37210132D01*
X155450740Y-37799528D01*
X155450740Y-38400472D01*
X155333502Y-38989868D01*
X155103531Y-39545067D01*
X154813595Y-39978986D01*
X154769662Y-40044736D01*
X154344736Y-40469662D01*
X154344733Y-40469664D01*
X153845067Y-40803531D01*
X153289868Y-41033502D01*
X152995170Y-41092121D01*
X152700473Y-41150740D01*
X152099527Y-41150740D01*
X151804830Y-41092121D01*
X151510132Y-41033502D01*
X150954933Y-40803531D01*
X150455267Y-40469664D01*
X150455264Y-40469662D01*
X150030338Y-40044736D01*
X149986405Y-39978986D01*
X149696469Y-39545067D01*
X149466498Y-38989868D01*
X149349260Y-38400472D01*
X149349260Y-37799528D01*
X149466498Y-37210132D01*
X149696469Y-36654933D01*
X150030336Y-36155267D01*
X150030338Y-36155264D01*
X150455264Y-35730338D01*
X150458637Y-35728084D01*
X150954933Y-35396469D01*
X151510132Y-35166498D01*
X151804830Y-35107879D01*
X152099527Y-35049260D01*
X152700473Y-35049260D01*
X152995170Y-35107879D01*
X152995170Y-35107879D01*
G37*
G36*
X147830740Y-41150740D02*
X141729260Y-41150740D01*
X141729260Y-35049260D01*
X147830740Y-35049260D01*
X147830740Y-41150740D01*
X147830740Y-41150740D01*
G37*
G36*
X166536821Y-38531313D02*
X166536824Y-38531314D01*
X166536825Y-38531314D01*
X166697239Y-38579975D01*
X166697241Y-38579976D01*
X166697244Y-38579977D01*
X166845078Y-38658995D01*
X166974659Y-38765341D01*
X167081005Y-38894922D01*
X167160023Y-39042756D01*
X167208687Y-39203179D01*
X167225117Y-39370000D01*
X167208687Y-39536821D01*
X167160023Y-39697244D01*
X167081005Y-39845078D01*
X166974659Y-39974659D01*
X166845078Y-40081005D01*
X166697244Y-40160023D01*
X166697241Y-40160024D01*
X166697239Y-40160025D01*
X166536825Y-40208686D01*
X166536824Y-40208686D01*
X166536821Y-40208687D01*
X166411804Y-40221000D01*
X166328196Y-40221000D01*
X166203179Y-40208687D01*
X166203176Y-40208686D01*
X166203175Y-40208686D01*
X166042761Y-40160025D01*
X166042759Y-40160024D01*
X166042756Y-40160023D01*
X165894922Y-40081005D01*
X165765341Y-39974659D01*
X165658995Y-39845078D01*
X165579977Y-39697244D01*
X165531313Y-39536821D01*
X165514883Y-39370000D01*
X165531313Y-39203179D01*
X165579977Y-39042756D01*
X165658995Y-38894922D01*
X165765341Y-38765341D01*
X165894922Y-38658995D01*
X166042756Y-38579977D01*
X166042759Y-38579976D01*
X166042761Y-38579975D01*
X166203175Y-38531314D01*
X166203176Y-38531314D01*
X166203179Y-38531313D01*
X166328196Y-38519000D01*
X166411804Y-38519000D01*
X166536821Y-38531313D01*
X166536821Y-38531313D01*
G37*
G36*
X134730443Y-34665519D02*
X134796627Y-34672037D01*
X134909853Y-34706384D01*
X134966467Y-34723557D01*
X135105087Y-34797652D01*
X135122991Y-34807222D01*
X135158729Y-34836552D01*
X135260186Y-34919814D01*
X135343448Y-35021271D01*
X135372778Y-35057009D01*
X135372779Y-35057011D01*
X135456443Y-35213533D01*
X135456443Y-35213534D01*
X135507963Y-35383373D01*
X135525359Y-35560000D01*
X135507963Y-35736627D01*
X135473616Y-35849853D01*
X135456443Y-35906467D01*
X135382348Y-36045087D01*
X135372778Y-36062991D01*
X135343448Y-36098729D01*
X135260186Y-36200186D01*
X135158729Y-36283448D01*
X135122991Y-36312778D01*
X135122989Y-36312779D01*
X134966467Y-36396443D01*
X134909853Y-36413616D01*
X134796627Y-36447963D01*
X134730442Y-36454482D01*
X134664260Y-36461000D01*
X134575740Y-36461000D01*
X134509558Y-36454482D01*
X134443373Y-36447963D01*
X134330147Y-36413616D01*
X134273533Y-36396443D01*
X134117011Y-36312779D01*
X134117009Y-36312778D01*
X134081271Y-36283448D01*
X133979814Y-36200186D01*
X133896552Y-36098729D01*
X133867222Y-36062991D01*
X133857652Y-36045087D01*
X133783557Y-35906467D01*
X133766384Y-35849853D01*
X133732037Y-35736627D01*
X133714641Y-35560000D01*
X133732037Y-35383373D01*
X133783557Y-35213534D01*
X133783557Y-35213533D01*
X133867221Y-35057011D01*
X133867222Y-35057009D01*
X133896552Y-35021271D01*
X133979814Y-34919814D01*
X134081271Y-34836552D01*
X134117009Y-34807222D01*
X134134913Y-34797652D01*
X134273533Y-34723557D01*
X134330147Y-34706384D01*
X134443373Y-34672037D01*
X134509557Y-34665519D01*
X134575740Y-34659000D01*
X134664260Y-34659000D01*
X134730443Y-34665519D01*
X134730443Y-34665519D01*
G37*
G36*
X132190443Y-34665519D02*
X132256627Y-34672037D01*
X132369853Y-34706384D01*
X132426467Y-34723557D01*
X132565087Y-34797652D01*
X132582991Y-34807222D01*
X132618729Y-34836552D01*
X132720186Y-34919814D01*
X132803448Y-35021271D01*
X132832778Y-35057009D01*
X132832779Y-35057011D01*
X132916443Y-35213533D01*
X132916443Y-35213534D01*
X132967963Y-35383373D01*
X132985359Y-35560000D01*
X132967963Y-35736627D01*
X132933616Y-35849853D01*
X132916443Y-35906467D01*
X132842348Y-36045087D01*
X132832778Y-36062991D01*
X132803448Y-36098729D01*
X132720186Y-36200186D01*
X132618729Y-36283448D01*
X132582991Y-36312778D01*
X132582989Y-36312779D01*
X132426467Y-36396443D01*
X132369853Y-36413616D01*
X132256627Y-36447963D01*
X132190442Y-36454482D01*
X132124260Y-36461000D01*
X132035740Y-36461000D01*
X131969558Y-36454482D01*
X131903373Y-36447963D01*
X131790147Y-36413616D01*
X131733533Y-36396443D01*
X131577011Y-36312779D01*
X131577009Y-36312778D01*
X131541271Y-36283448D01*
X131439814Y-36200186D01*
X131356552Y-36098729D01*
X131327222Y-36062991D01*
X131317652Y-36045087D01*
X131243557Y-35906467D01*
X131226384Y-35849853D01*
X131192037Y-35736627D01*
X131174641Y-35560000D01*
X131192037Y-35383373D01*
X131243557Y-35213534D01*
X131243557Y-35213533D01*
X131327221Y-35057011D01*
X131327222Y-35057009D01*
X131356552Y-35021271D01*
X131439814Y-34919814D01*
X131541271Y-34836552D01*
X131577009Y-34807222D01*
X131594913Y-34797652D01*
X131733533Y-34723557D01*
X131790147Y-34706384D01*
X131903373Y-34672037D01*
X131969557Y-34665519D01*
X132035740Y-34659000D01*
X132124260Y-34659000D01*
X132190443Y-34665519D01*
X132190443Y-34665519D01*
G37*
G36*
X130441000Y-36461000D02*
X128639000Y-36461000D01*
X128639000Y-34659000D01*
X130441000Y-34659000D01*
X130441000Y-36461000D01*
X130441000Y-36461000D01*
G37*
M02*
