M48
;DRILL file {KiCad (5.0.2)-1} date 2/13/2019 10:33:43 PM
;FORMAT={-:-/ absolute / inch / decimal}
FMAT,2
INCH,TZ
T1C0.0157
T2C0.0300
T3C0.0315
T4C0.0354
T5C0.0394
T6C0.0433
T7C0.0984
%
G90
G05
T1
X5.2Y-3.025
X5.95Y-2.9
X6.Y-1.7
T2
X5.675Y-4.9
X5.675Y-5.
X5.775Y-4.9
X5.775Y-5.
X5.875Y-4.9
X5.875Y-5.
X5.975Y-4.9
X5.975Y-5.
T3
X6.6Y-4.2
X7.Y-4.2
X4.6Y-4.
X5.Y-4.
X4.55Y-3.45
X4.55Y-3.7453
X4.7Y-3.5
X4.9953Y-3.5
X4.7Y-3.7
X4.9953Y-3.7
X4.6Y-2.75
X4.6Y-3.0453
X7.05Y-2.7547
X7.05Y-3.05
X6.4Y-1.6
X6.4Y-1.9
X4.8213Y-2.9
X4.9Y-2.9
X6.75Y-2.9
X6.8287Y-2.9
X5.2Y-3.5079
X5.2Y-3.7
X5.1Y-1.6
X5.5Y-1.6
X4.6Y-3.3
X5.Y-3.3
X5.7Y-3.
X5.7Y-3.1
X5.7Y-3.2
X5.7Y-3.3
X5.7Y-3.4
X5.7Y-3.5
X5.7Y-3.6
X5.7Y-3.7
X5.7Y-3.8
X5.7Y-3.9
X5.7Y-4.
X5.7Y-4.1
X5.7Y-4.2
X5.7Y-4.3
X6.Y-3.
X6.Y-3.1
X6.Y-3.2
X6.Y-3.3
X6.Y-3.4
X6.Y-3.5
X6.Y-3.6
X6.Y-3.7
X6.Y-3.8
X6.Y-3.9
X6.Y-4.
X6.Y-4.1
X6.Y-4.2
X6.Y-4.3
X6.6Y-4.4
X7.Y-4.4
X6.55Y-1.55
X6.55Y-1.95
X6.3Y-4.6
X6.3Y-5.
X4.6Y-4.2
X5.Y-4.2
X6.6Y-3.8
X7.Y-3.8
X4.6Y-3.15
X5.Y-3.15
X4.6Y-4.4
X5.Y-4.4
X6.6Y-4.
X7.Y-4.
T4
X5.2Y-3.2
X5.3Y-3.2
X6.3Y-4.
X6.4Y-4.
X6.3Y-3.8
X6.4Y-3.8
X5.2Y-4.
X5.3Y-4.
X6.3Y-4.4
X6.4Y-4.4
X6.Y-4.6
X6.Y-4.7
X5.2Y-4.4
X5.3Y-4.4
X6.3Y-4.2
X6.4Y-4.2
X5.2Y-4.2
X5.3Y-4.2
T5
X5.1Y-1.4
X5.2Y-1.4
X5.3Y-1.4
X5.5Y-3.3
X5.5Y-3.4
X5.5Y-3.5
X5.5Y-3.6
X6.7Y-4.6
X6.8Y-4.6
X6.9Y-4.6
X4.7Y-1.8
X4.8Y-1.8
X4.9Y-1.8
X4.4Y-2.95
X4.4Y-3.05
X4.4Y-3.15
X4.4Y-3.25
X4.4Y-3.35
X4.4Y-3.45
X7.15Y-3.9
X7.15Y-4.
X7.15Y-4.1
X6.35Y-3.2
X6.35Y-3.3
X6.35Y-3.4
X6.35Y-3.5
X6.35Y-3.6
X6.15Y-2.9
X6.15Y-3.
X6.15Y-3.1
X5.5Y-2.9
X5.5Y-3.
X5.5Y-3.1
X4.7Y-4.6
X4.8Y-4.6
X4.9Y-4.6
X6.725Y-1.8
X6.825Y-1.8
X6.925Y-1.8
T6
X5.1Y-2.9
X5.2Y-2.9
X5.3Y-2.9
X6.35Y-2.9
X6.45Y-2.9
X6.55Y-2.9
T7
X4.1Y-1.5
X4.4Y-1.5
X7.2Y-1.5
X7.5Y-1.5
X5.7Y-1.5
X6.Y-1.5
X7.2Y-4.9
X7.5Y-4.9
X4.1Y-4.9
X4.4Y-4.9
T0
M30
