G04 #@! TF.GenerationSoftware,KiCad,Pcbnew,(5.0.2)-1*
G04 #@! TF.CreationDate,2019-02-13T22:33:29-07:00*
G04 #@! TF.ProjectId,Receiver,52656365-6976-4657-922e-6b696361645f,rev?*
G04 #@! TF.SameCoordinates,Original*
G04 #@! TF.FileFunction,Legend,Top*
G04 #@! TF.FilePolarity,Positive*
%FSLAX46Y46*%
G04 Gerber Fmt 4.6, Leading zero omitted, Abs format (unit mm)*
G04 Created by KiCad (PCBNEW (5.0.2)-1) date 2/13/2019 10:33:29 PM*
%MOMM*%
%LPD*%
G01*
G04 APERTURE LIST*
%ADD10C,0.120000*%
%ADD11C,0.150000*%
%ADD12C,1.702000*%
%ADD13R,1.702000X1.702000*%
%ADD14O,1.702000X1.702000*%
%ADD15R,1.902000X1.902000*%
%ADD16C,1.902000*%
%ADD17O,1.802000X1.802000*%
%ADD18R,1.802000X1.802000*%
%ADD19C,6.101480*%
%ADD20R,6.101480X6.101480*%
%ADD21R,0.902000X4.702000*%
%ADD22R,10.902000X9.502000*%
%ADD23R,2.007000X2.102000*%
%ADD24O,2.007000X2.102000*%
%ADD25R,1.626000X1.626000*%
%ADD26C,1.626000*%
%ADD27C,1.602000*%
%ADD28C,0.902000*%
G04 APERTURE END LIST*
D10*
G04 #@! TO.C,C1*
X126014775Y-75385000D02*
X126014775Y-74885000D01*
X126264775Y-75135000D02*
X125764775Y-75135000D01*
X120859000Y-73944000D02*
X120859000Y-73376000D01*
X120899000Y-74178000D02*
X120899000Y-73142000D01*
X120939000Y-74337000D02*
X120939000Y-72983000D01*
X120979000Y-74465000D02*
X120979000Y-72855000D01*
X121019000Y-74575000D02*
X121019000Y-72745000D01*
X121059000Y-74671000D02*
X121059000Y-72649000D01*
X121099000Y-74758000D02*
X121099000Y-72562000D01*
X121139000Y-74838000D02*
X121139000Y-72482000D01*
X121179000Y-74911000D02*
X121179000Y-72409000D01*
X121219000Y-74979000D02*
X121219000Y-72341000D01*
X121259000Y-75043000D02*
X121259000Y-72277000D01*
X121299000Y-75103000D02*
X121299000Y-72217000D01*
X121339000Y-75160000D02*
X121339000Y-72160000D01*
X121379000Y-75214000D02*
X121379000Y-72106000D01*
X121419000Y-75265000D02*
X121419000Y-72055000D01*
X121459000Y-72620000D02*
X121459000Y-72007000D01*
X121459000Y-75313000D02*
X121459000Y-74700000D01*
X121499000Y-72620000D02*
X121499000Y-71961000D01*
X121499000Y-75359000D02*
X121499000Y-74700000D01*
X121539000Y-72620000D02*
X121539000Y-71917000D01*
X121539000Y-75403000D02*
X121539000Y-74700000D01*
X121579000Y-72620000D02*
X121579000Y-71875000D01*
X121579000Y-75445000D02*
X121579000Y-74700000D01*
X121619000Y-72620000D02*
X121619000Y-71834000D01*
X121619000Y-75486000D02*
X121619000Y-74700000D01*
X121659000Y-72620000D02*
X121659000Y-71796000D01*
X121659000Y-75524000D02*
X121659000Y-74700000D01*
X121699000Y-72620000D02*
X121699000Y-71759000D01*
X121699000Y-75561000D02*
X121699000Y-74700000D01*
X121739000Y-72620000D02*
X121739000Y-71723000D01*
X121739000Y-75597000D02*
X121739000Y-74700000D01*
X121779000Y-72620000D02*
X121779000Y-71689000D01*
X121779000Y-75631000D02*
X121779000Y-74700000D01*
X121819000Y-72620000D02*
X121819000Y-71656000D01*
X121819000Y-75664000D02*
X121819000Y-74700000D01*
X121859000Y-72620000D02*
X121859000Y-71625000D01*
X121859000Y-75695000D02*
X121859000Y-74700000D01*
X121899000Y-72620000D02*
X121899000Y-71595000D01*
X121899000Y-75725000D02*
X121899000Y-74700000D01*
X121939000Y-72620000D02*
X121939000Y-71565000D01*
X121939000Y-75755000D02*
X121939000Y-74700000D01*
X121979000Y-72620000D02*
X121979000Y-71538000D01*
X121979000Y-75782000D02*
X121979000Y-74700000D01*
X122019000Y-72620000D02*
X122019000Y-71511000D01*
X122019000Y-75809000D02*
X122019000Y-74700000D01*
X122059000Y-72620000D02*
X122059000Y-71485000D01*
X122059000Y-75835000D02*
X122059000Y-74700000D01*
X122099000Y-72620000D02*
X122099000Y-71460000D01*
X122099000Y-75860000D02*
X122099000Y-74700000D01*
X122139000Y-72620000D02*
X122139000Y-71436000D01*
X122139000Y-75884000D02*
X122139000Y-74700000D01*
X122179000Y-72620000D02*
X122179000Y-71413000D01*
X122179000Y-75907000D02*
X122179000Y-74700000D01*
X122219000Y-72620000D02*
X122219000Y-71392000D01*
X122219000Y-75928000D02*
X122219000Y-74700000D01*
X122259000Y-72620000D02*
X122259000Y-71370000D01*
X122259000Y-75950000D02*
X122259000Y-74700000D01*
X122299000Y-72620000D02*
X122299000Y-71350000D01*
X122299000Y-75970000D02*
X122299000Y-74700000D01*
X122339000Y-72620000D02*
X122339000Y-71331000D01*
X122339000Y-75989000D02*
X122339000Y-74700000D01*
X122379000Y-72620000D02*
X122379000Y-71312000D01*
X122379000Y-76008000D02*
X122379000Y-74700000D01*
X122419000Y-72620000D02*
X122419000Y-71295000D01*
X122419000Y-76025000D02*
X122419000Y-74700000D01*
X122459000Y-72620000D02*
X122459000Y-71278000D01*
X122459000Y-76042000D02*
X122459000Y-74700000D01*
X122499000Y-72620000D02*
X122499000Y-71262000D01*
X122499000Y-76058000D02*
X122499000Y-74700000D01*
X122539000Y-72620000D02*
X122539000Y-71246000D01*
X122539000Y-76074000D02*
X122539000Y-74700000D01*
X122579000Y-72620000D02*
X122579000Y-71232000D01*
X122579000Y-76088000D02*
X122579000Y-74700000D01*
X122619000Y-72620000D02*
X122619000Y-71218000D01*
X122619000Y-76102000D02*
X122619000Y-74700000D01*
X122659000Y-72620000D02*
X122659000Y-71205000D01*
X122659000Y-76115000D02*
X122659000Y-74700000D01*
X122699000Y-72620000D02*
X122699000Y-71192000D01*
X122699000Y-76128000D02*
X122699000Y-74700000D01*
X122739000Y-72620000D02*
X122739000Y-71180000D01*
X122739000Y-76140000D02*
X122739000Y-74700000D01*
X122780000Y-72620000D02*
X122780000Y-71169000D01*
X122780000Y-76151000D02*
X122780000Y-74700000D01*
X122820000Y-72620000D02*
X122820000Y-71159000D01*
X122820000Y-76161000D02*
X122820000Y-74700000D01*
X122860000Y-72620000D02*
X122860000Y-71149000D01*
X122860000Y-76171000D02*
X122860000Y-74700000D01*
X122900000Y-72620000D02*
X122900000Y-71140000D01*
X122900000Y-76180000D02*
X122900000Y-74700000D01*
X122940000Y-72620000D02*
X122940000Y-71132000D01*
X122940000Y-76188000D02*
X122940000Y-74700000D01*
X122980000Y-72620000D02*
X122980000Y-71124000D01*
X122980000Y-76196000D02*
X122980000Y-74700000D01*
X123020000Y-72620000D02*
X123020000Y-71117000D01*
X123020000Y-76203000D02*
X123020000Y-74700000D01*
X123060000Y-72620000D02*
X123060000Y-71110000D01*
X123060000Y-76210000D02*
X123060000Y-74700000D01*
X123100000Y-72620000D02*
X123100000Y-71104000D01*
X123100000Y-76216000D02*
X123100000Y-74700000D01*
X123140000Y-72620000D02*
X123140000Y-71099000D01*
X123140000Y-76221000D02*
X123140000Y-74700000D01*
X123180000Y-72620000D02*
X123180000Y-71095000D01*
X123180000Y-76225000D02*
X123180000Y-74700000D01*
X123220000Y-72620000D02*
X123220000Y-71091000D01*
X123220000Y-76229000D02*
X123220000Y-74700000D01*
X123260000Y-72620000D02*
X123260000Y-71087000D01*
X123260000Y-76233000D02*
X123260000Y-74700000D01*
X123300000Y-72620000D02*
X123300000Y-71084000D01*
X123300000Y-76236000D02*
X123300000Y-74700000D01*
X123340000Y-72620000D02*
X123340000Y-71082000D01*
X123340000Y-76238000D02*
X123340000Y-74700000D01*
X123380000Y-72620000D02*
X123380000Y-71081000D01*
X123380000Y-76239000D02*
X123380000Y-74700000D01*
X123420000Y-76240000D02*
X123420000Y-74700000D01*
X123420000Y-72620000D02*
X123420000Y-71080000D01*
X123460000Y-76240000D02*
X123460000Y-74700000D01*
X123460000Y-72620000D02*
X123460000Y-71080000D01*
X126080000Y-73660000D02*
G75*
G03X126080000Y-73660000I-2620000J0D01*
G01*
G04 #@! TO.C,C2*
X175070000Y-73660000D02*
G75*
G03X175070000Y-73660000I-2620000J0D01*
G01*
X172450000Y-74700000D02*
X172450000Y-76240000D01*
X172450000Y-71080000D02*
X172450000Y-72620000D01*
X172490000Y-74700000D02*
X172490000Y-76240000D01*
X172490000Y-71080000D02*
X172490000Y-72620000D01*
X172530000Y-71081000D02*
X172530000Y-72620000D01*
X172530000Y-74700000D02*
X172530000Y-76239000D01*
X172570000Y-71082000D02*
X172570000Y-72620000D01*
X172570000Y-74700000D02*
X172570000Y-76238000D01*
X172610000Y-71084000D02*
X172610000Y-72620000D01*
X172610000Y-74700000D02*
X172610000Y-76236000D01*
X172650000Y-71087000D02*
X172650000Y-72620000D01*
X172650000Y-74700000D02*
X172650000Y-76233000D01*
X172690000Y-71091000D02*
X172690000Y-72620000D01*
X172690000Y-74700000D02*
X172690000Y-76229000D01*
X172730000Y-71095000D02*
X172730000Y-72620000D01*
X172730000Y-74700000D02*
X172730000Y-76225000D01*
X172770000Y-71099000D02*
X172770000Y-72620000D01*
X172770000Y-74700000D02*
X172770000Y-76221000D01*
X172810000Y-71104000D02*
X172810000Y-72620000D01*
X172810000Y-74700000D02*
X172810000Y-76216000D01*
X172850000Y-71110000D02*
X172850000Y-72620000D01*
X172850000Y-74700000D02*
X172850000Y-76210000D01*
X172890000Y-71117000D02*
X172890000Y-72620000D01*
X172890000Y-74700000D02*
X172890000Y-76203000D01*
X172930000Y-71124000D02*
X172930000Y-72620000D01*
X172930000Y-74700000D02*
X172930000Y-76196000D01*
X172970000Y-71132000D02*
X172970000Y-72620000D01*
X172970000Y-74700000D02*
X172970000Y-76188000D01*
X173010000Y-71140000D02*
X173010000Y-72620000D01*
X173010000Y-74700000D02*
X173010000Y-76180000D01*
X173050000Y-71149000D02*
X173050000Y-72620000D01*
X173050000Y-74700000D02*
X173050000Y-76171000D01*
X173090000Y-71159000D02*
X173090000Y-72620000D01*
X173090000Y-74700000D02*
X173090000Y-76161000D01*
X173130000Y-71169000D02*
X173130000Y-72620000D01*
X173130000Y-74700000D02*
X173130000Y-76151000D01*
X173171000Y-71180000D02*
X173171000Y-72620000D01*
X173171000Y-74700000D02*
X173171000Y-76140000D01*
X173211000Y-71192000D02*
X173211000Y-72620000D01*
X173211000Y-74700000D02*
X173211000Y-76128000D01*
X173251000Y-71205000D02*
X173251000Y-72620000D01*
X173251000Y-74700000D02*
X173251000Y-76115000D01*
X173291000Y-71218000D02*
X173291000Y-72620000D01*
X173291000Y-74700000D02*
X173291000Y-76102000D01*
X173331000Y-71232000D02*
X173331000Y-72620000D01*
X173331000Y-74700000D02*
X173331000Y-76088000D01*
X173371000Y-71246000D02*
X173371000Y-72620000D01*
X173371000Y-74700000D02*
X173371000Y-76074000D01*
X173411000Y-71262000D02*
X173411000Y-72620000D01*
X173411000Y-74700000D02*
X173411000Y-76058000D01*
X173451000Y-71278000D02*
X173451000Y-72620000D01*
X173451000Y-74700000D02*
X173451000Y-76042000D01*
X173491000Y-71295000D02*
X173491000Y-72620000D01*
X173491000Y-74700000D02*
X173491000Y-76025000D01*
X173531000Y-71312000D02*
X173531000Y-72620000D01*
X173531000Y-74700000D02*
X173531000Y-76008000D01*
X173571000Y-71331000D02*
X173571000Y-72620000D01*
X173571000Y-74700000D02*
X173571000Y-75989000D01*
X173611000Y-71350000D02*
X173611000Y-72620000D01*
X173611000Y-74700000D02*
X173611000Y-75970000D01*
X173651000Y-71370000D02*
X173651000Y-72620000D01*
X173651000Y-74700000D02*
X173651000Y-75950000D01*
X173691000Y-71392000D02*
X173691000Y-72620000D01*
X173691000Y-74700000D02*
X173691000Y-75928000D01*
X173731000Y-71413000D02*
X173731000Y-72620000D01*
X173731000Y-74700000D02*
X173731000Y-75907000D01*
X173771000Y-71436000D02*
X173771000Y-72620000D01*
X173771000Y-74700000D02*
X173771000Y-75884000D01*
X173811000Y-71460000D02*
X173811000Y-72620000D01*
X173811000Y-74700000D02*
X173811000Y-75860000D01*
X173851000Y-71485000D02*
X173851000Y-72620000D01*
X173851000Y-74700000D02*
X173851000Y-75835000D01*
X173891000Y-71511000D02*
X173891000Y-72620000D01*
X173891000Y-74700000D02*
X173891000Y-75809000D01*
X173931000Y-71538000D02*
X173931000Y-72620000D01*
X173931000Y-74700000D02*
X173931000Y-75782000D01*
X173971000Y-71565000D02*
X173971000Y-72620000D01*
X173971000Y-74700000D02*
X173971000Y-75755000D01*
X174011000Y-71595000D02*
X174011000Y-72620000D01*
X174011000Y-74700000D02*
X174011000Y-75725000D01*
X174051000Y-71625000D02*
X174051000Y-72620000D01*
X174051000Y-74700000D02*
X174051000Y-75695000D01*
X174091000Y-71656000D02*
X174091000Y-72620000D01*
X174091000Y-74700000D02*
X174091000Y-75664000D01*
X174131000Y-71689000D02*
X174131000Y-72620000D01*
X174131000Y-74700000D02*
X174131000Y-75631000D01*
X174171000Y-71723000D02*
X174171000Y-72620000D01*
X174171000Y-74700000D02*
X174171000Y-75597000D01*
X174211000Y-71759000D02*
X174211000Y-72620000D01*
X174211000Y-74700000D02*
X174211000Y-75561000D01*
X174251000Y-71796000D02*
X174251000Y-72620000D01*
X174251000Y-74700000D02*
X174251000Y-75524000D01*
X174291000Y-71834000D02*
X174291000Y-72620000D01*
X174291000Y-74700000D02*
X174291000Y-75486000D01*
X174331000Y-71875000D02*
X174331000Y-72620000D01*
X174331000Y-74700000D02*
X174331000Y-75445000D01*
X174371000Y-71917000D02*
X174371000Y-72620000D01*
X174371000Y-74700000D02*
X174371000Y-75403000D01*
X174411000Y-71961000D02*
X174411000Y-72620000D01*
X174411000Y-74700000D02*
X174411000Y-75359000D01*
X174451000Y-72007000D02*
X174451000Y-72620000D01*
X174451000Y-74700000D02*
X174451000Y-75313000D01*
X174491000Y-72055000D02*
X174491000Y-75265000D01*
X174531000Y-72106000D02*
X174531000Y-75214000D01*
X174571000Y-72160000D02*
X174571000Y-75160000D01*
X174611000Y-72217000D02*
X174611000Y-75103000D01*
X174651000Y-72277000D02*
X174651000Y-75043000D01*
X174691000Y-72341000D02*
X174691000Y-74979000D01*
X174731000Y-72409000D02*
X174731000Y-74911000D01*
X174771000Y-72482000D02*
X174771000Y-74838000D01*
X174811000Y-72562000D02*
X174811000Y-74758000D01*
X174851000Y-72649000D02*
X174851000Y-74671000D01*
X174891000Y-72745000D02*
X174891000Y-74575000D01*
X174931000Y-72855000D02*
X174931000Y-74465000D01*
X174971000Y-72983000D02*
X174971000Y-74337000D01*
X175011000Y-73142000D02*
X175011000Y-74178000D01*
X175051000Y-73376000D02*
X175051000Y-73944000D01*
X169645225Y-72185000D02*
X170145225Y-72185000D01*
X169895225Y-71935000D02*
X169895225Y-72435000D01*
G04 #@! TO.C,C3*
X116840000Y-76310000D02*
X116840000Y-76270000D01*
X116840000Y-70890000D02*
X116840000Y-70930000D01*
X118510000Y-76270000D02*
X118510000Y-70930000D01*
X115170000Y-76270000D02*
X118510000Y-76270000D01*
X115170000Y-70930000D02*
X115170000Y-76270000D01*
X118510000Y-70930000D02*
X115170000Y-70930000D01*
G04 #@! TO.C,C4*
X177400000Y-76390000D02*
X180740000Y-76390000D01*
X180740000Y-76390000D02*
X180740000Y-71050000D01*
X180740000Y-71050000D02*
X177400000Y-71050000D01*
X177400000Y-71050000D02*
X177400000Y-76390000D01*
X179070000Y-76430000D02*
X179070000Y-76390000D01*
X179070000Y-71010000D02*
X179070000Y-71050000D01*
G04 #@! TO.C,C5*
X121110000Y-87480000D02*
X121110000Y-90320000D01*
X121110000Y-90320000D02*
X125150000Y-90320000D01*
X125150000Y-90320000D02*
X125150000Y-87480000D01*
X125150000Y-87480000D02*
X121110000Y-87480000D01*
X120420000Y-88900000D02*
X121110000Y-88900000D01*
X125840000Y-88900000D02*
X125150000Y-88900000D01*
G04 #@! TO.C,C6*
X125840000Y-93980000D02*
X125150000Y-93980000D01*
X120420000Y-93980000D02*
X121110000Y-93980000D01*
X125150000Y-92560000D02*
X121110000Y-92560000D01*
X125150000Y-95400000D02*
X125150000Y-92560000D01*
X121110000Y-95400000D02*
X125150000Y-95400000D01*
X121110000Y-92560000D02*
X121110000Y-95400000D01*
G04 #@! TO.C,C7*
X117240000Y-88710000D02*
X113900000Y-88710000D01*
X113900000Y-88710000D02*
X113900000Y-94050000D01*
X113900000Y-94050000D02*
X117240000Y-94050000D01*
X117240000Y-94050000D02*
X117240000Y-88710000D01*
X115570000Y-88670000D02*
X115570000Y-88710000D01*
X115570000Y-94090000D02*
X115570000Y-94050000D01*
G04 #@! TO.C,D1*
X153478608Y-119782335D02*
G75*
G03X153635516Y-116550000I-1078608J1672335D01*
G01*
X151321392Y-119782335D02*
G75*
G02X151164484Y-116550000I1078608J1672335D01*
G01*
X153479837Y-119151130D02*
G75*
G03X153480000Y-117069039I-1079837J1041130D01*
G01*
X151320163Y-119151130D02*
G75*
G02X151320000Y-117069039I1079837J1041130D01*
G01*
X153636000Y-116550000D02*
X153480000Y-116550000D01*
X151320000Y-116550000D02*
X151164000Y-116550000D01*
G04 #@! TO.C,D2*
X162850000Y-95440000D02*
X162850000Y-95284000D01*
X162850000Y-97756000D02*
X162850000Y-97600000D01*
X160248870Y-95440163D02*
G75*
G02X162330961Y-95440000I1041130J-1079837D01*
G01*
X160248870Y-97599837D02*
G75*
G03X162330961Y-97600000I1041130J1079837D01*
G01*
X159617665Y-95441392D02*
G75*
G02X162850000Y-95284484I1672335J-1078608D01*
G01*
X159617665Y-97598608D02*
G75*
G03X162850000Y-97755516I1672335J1078608D01*
G01*
G04 #@! TO.C,D3*
X162850000Y-105600000D02*
X162850000Y-105444000D01*
X162850000Y-107916000D02*
X162850000Y-107760000D01*
X160248870Y-105600163D02*
G75*
G02X162330961Y-105600000I1041130J-1079837D01*
G01*
X160248870Y-107759837D02*
G75*
G03X162330961Y-107760000I1041130J1079837D01*
G01*
X159617665Y-105601392D02*
G75*
G02X162850000Y-105444484I1672335J-1078608D01*
G01*
X159617665Y-107758608D02*
G75*
G03X162850000Y-107915516I1672335J1078608D01*
G01*
G04 #@! TO.C,D4*
X159617665Y-102678608D02*
G75*
G03X162850000Y-102835516I1672335J1078608D01*
G01*
X159617665Y-100521392D02*
G75*
G02X162850000Y-100364484I1672335J-1078608D01*
G01*
X160248870Y-102679837D02*
G75*
G03X162330961Y-102680000I1041130J1079837D01*
G01*
X160248870Y-100520163D02*
G75*
G02X162330961Y-100520000I1041130J-1079837D01*
G01*
X162850000Y-102836000D02*
X162850000Y-102680000D01*
X162850000Y-100520000D02*
X162850000Y-100364000D01*
G04 #@! TO.C,D5*
X135022335Y-80201392D02*
G75*
G03X131790000Y-80044484I-1672335J-1078608D01*
G01*
X135022335Y-82358608D02*
G75*
G02X131790000Y-82515516I-1672335J1078608D01*
G01*
X134391130Y-80200163D02*
G75*
G03X132309039Y-80200000I-1041130J-1079837D01*
G01*
X134391130Y-82359837D02*
G75*
G02X132309039Y-82360000I-1041130J1079837D01*
G01*
X131790000Y-80044000D02*
X131790000Y-80200000D01*
X131790000Y-82360000D02*
X131790000Y-82516000D01*
G04 #@! TO.C,D6*
X135022335Y-100521392D02*
G75*
G03X131790000Y-100364484I-1672335J-1078608D01*
G01*
X135022335Y-102678608D02*
G75*
G02X131790000Y-102835516I-1672335J1078608D01*
G01*
X134391130Y-100520163D02*
G75*
G03X132309039Y-100520000I-1041130J-1079837D01*
G01*
X134391130Y-102679837D02*
G75*
G02X132309039Y-102680000I-1041130J1079837D01*
G01*
X131790000Y-100364000D02*
X131790000Y-100520000D01*
X131790000Y-102680000D02*
X131790000Y-102836000D01*
G04 #@! TO.C,D7*
X135022335Y-105601392D02*
G75*
G03X131790000Y-105444484I-1672335J-1078608D01*
G01*
X135022335Y-107758608D02*
G75*
G02X131790000Y-107915516I-1672335J1078608D01*
G01*
X134391130Y-105600163D02*
G75*
G03X132309039Y-105600000I-1041130J-1079837D01*
G01*
X134391130Y-107759837D02*
G75*
G02X132309039Y-107760000I-1041130J1079837D01*
G01*
X131790000Y-105444000D02*
X131790000Y-105600000D01*
X131790000Y-107760000D02*
X131790000Y-107916000D01*
G04 #@! TO.C,D8*
X131790000Y-112840000D02*
X131790000Y-112996000D01*
X131790000Y-110524000D02*
X131790000Y-110680000D01*
X134391130Y-112839837D02*
G75*
G02X132309039Y-112840000I-1041130J1079837D01*
G01*
X134391130Y-110680163D02*
G75*
G03X132309039Y-110680000I-1041130J-1079837D01*
G01*
X135022335Y-112838608D02*
G75*
G02X131790000Y-112995516I-1672335J1078608D01*
G01*
X135022335Y-110681392D02*
G75*
G03X131790000Y-110524484I-1672335J-1078608D01*
G01*
G04 #@! TO.C,D9*
X162850000Y-110680000D02*
X162850000Y-110524000D01*
X162850000Y-112996000D02*
X162850000Y-112840000D01*
X160248870Y-110680163D02*
G75*
G02X162330961Y-110680000I1041130J-1079837D01*
G01*
X160248870Y-112839837D02*
G75*
G03X162330961Y-112840000I1041130J1079837D01*
G01*
X159617665Y-110681392D02*
G75*
G02X162850000Y-110524484I1672335J-1078608D01*
G01*
X159617665Y-112838608D02*
G75*
G03X162850000Y-112995516I1672335J1078608D01*
G01*
G04 #@! TO.C,D10*
X161440000Y-46570000D02*
X163680000Y-46570000D01*
X163680000Y-46570000D02*
X163680000Y-42330000D01*
X163680000Y-42330000D02*
X161440000Y-42330000D01*
X161440000Y-42330000D02*
X161440000Y-46570000D01*
X162560000Y-47220000D02*
X162560000Y-46570000D01*
X162560000Y-41680000D02*
X162560000Y-42330000D01*
X161440000Y-45850000D02*
X163680000Y-45850000D01*
X161440000Y-45730000D02*
X163680000Y-45730000D01*
X161440000Y-45970000D02*
X163680000Y-45970000D01*
G04 #@! TO.C,J1*
X118110000Y-46990000D02*
X118110000Y-45720000D01*
X119380000Y-46990000D02*
X118110000Y-46990000D01*
X124840000Y-44677071D02*
X124840000Y-44280000D01*
X124080000Y-44677071D02*
X124080000Y-44280000D01*
X124840000Y-35620000D02*
X124840000Y-41620000D01*
X124080000Y-35620000D02*
X124840000Y-35620000D01*
X124080000Y-41620000D02*
X124080000Y-35620000D01*
X123190000Y-44280000D02*
X123190000Y-41620000D01*
X122300000Y-44677071D02*
X122300000Y-44280000D01*
X121540000Y-44677071D02*
X121540000Y-44280000D01*
X122300000Y-35620000D02*
X122300000Y-41620000D01*
X121540000Y-35620000D02*
X122300000Y-35620000D01*
X121540000Y-41620000D02*
X121540000Y-35620000D01*
X120650000Y-44280000D02*
X120650000Y-41620000D01*
X119760000Y-44610000D02*
X119760000Y-44280000D01*
X119000000Y-44610000D02*
X119000000Y-44280000D01*
X119660000Y-41620000D02*
X119660000Y-35620000D01*
X119540000Y-41620000D02*
X119540000Y-35620000D01*
X119420000Y-41620000D02*
X119420000Y-35620000D01*
X119300000Y-41620000D02*
X119300000Y-35620000D01*
X119180000Y-41620000D02*
X119180000Y-35620000D01*
X119060000Y-41620000D02*
X119060000Y-35620000D01*
X119760000Y-35620000D02*
X119760000Y-41620000D01*
X119000000Y-35620000D02*
X119760000Y-35620000D01*
X119000000Y-41620000D02*
X119000000Y-35620000D01*
X118050000Y-41620000D02*
X118050000Y-44280000D01*
X125790000Y-41620000D02*
X118050000Y-41620000D01*
X125790000Y-44280000D02*
X125790000Y-41620000D01*
X118050000Y-44280000D02*
X125790000Y-44280000D01*
G04 #@! TO.C,J2*
X169485000Y-44280000D02*
X177225000Y-44280000D01*
X177225000Y-44280000D02*
X177225000Y-41620000D01*
X177225000Y-41620000D02*
X169485000Y-41620000D01*
X169485000Y-41620000D02*
X169485000Y-44280000D01*
X170435000Y-41620000D02*
X170435000Y-35620000D01*
X170435000Y-35620000D02*
X171195000Y-35620000D01*
X171195000Y-35620000D02*
X171195000Y-41620000D01*
X170495000Y-41620000D02*
X170495000Y-35620000D01*
X170615000Y-41620000D02*
X170615000Y-35620000D01*
X170735000Y-41620000D02*
X170735000Y-35620000D01*
X170855000Y-41620000D02*
X170855000Y-35620000D01*
X170975000Y-41620000D02*
X170975000Y-35620000D01*
X171095000Y-41620000D02*
X171095000Y-35620000D01*
X170435000Y-44610000D02*
X170435000Y-44280000D01*
X171195000Y-44610000D02*
X171195000Y-44280000D01*
X172085000Y-44280000D02*
X172085000Y-41620000D01*
X172975000Y-41620000D02*
X172975000Y-35620000D01*
X172975000Y-35620000D02*
X173735000Y-35620000D01*
X173735000Y-35620000D02*
X173735000Y-41620000D01*
X172975000Y-44677071D02*
X172975000Y-44280000D01*
X173735000Y-44677071D02*
X173735000Y-44280000D01*
X174625000Y-44280000D02*
X174625000Y-41620000D01*
X175515000Y-41620000D02*
X175515000Y-35620000D01*
X175515000Y-35620000D02*
X176275000Y-35620000D01*
X176275000Y-35620000D02*
X176275000Y-41620000D01*
X175515000Y-44677071D02*
X175515000Y-44280000D01*
X176275000Y-44677071D02*
X176275000Y-44280000D01*
X170815000Y-46990000D02*
X169545000Y-46990000D01*
X169545000Y-46990000D02*
X169545000Y-45720000D01*
G04 #@! TO.C,J3*
X125730000Y-115570000D02*
X125730000Y-116840000D01*
X124460000Y-115570000D02*
X125730000Y-115570000D01*
X119000000Y-117882929D02*
X119000000Y-118280000D01*
X119760000Y-117882929D02*
X119760000Y-118280000D01*
X119000000Y-126940000D02*
X119000000Y-120940000D01*
X119760000Y-126940000D02*
X119000000Y-126940000D01*
X119760000Y-120940000D02*
X119760000Y-126940000D01*
X120650000Y-118280000D02*
X120650000Y-120940000D01*
X121540000Y-117882929D02*
X121540000Y-118280000D01*
X122300000Y-117882929D02*
X122300000Y-118280000D01*
X121540000Y-126940000D02*
X121540000Y-120940000D01*
X122300000Y-126940000D02*
X121540000Y-126940000D01*
X122300000Y-120940000D02*
X122300000Y-126940000D01*
X123190000Y-118280000D02*
X123190000Y-120940000D01*
X124080000Y-117950000D02*
X124080000Y-118280000D01*
X124840000Y-117950000D02*
X124840000Y-118280000D01*
X124180000Y-120940000D02*
X124180000Y-126940000D01*
X124300000Y-120940000D02*
X124300000Y-126940000D01*
X124420000Y-120940000D02*
X124420000Y-126940000D01*
X124540000Y-120940000D02*
X124540000Y-126940000D01*
X124660000Y-120940000D02*
X124660000Y-126940000D01*
X124780000Y-120940000D02*
X124780000Y-126940000D01*
X124080000Y-126940000D02*
X124080000Y-120940000D01*
X124840000Y-126940000D02*
X124080000Y-126940000D01*
X124840000Y-120940000D02*
X124840000Y-126940000D01*
X125790000Y-120940000D02*
X125790000Y-118280000D01*
X118050000Y-120940000D02*
X125790000Y-120940000D01*
X118050000Y-118280000D02*
X118050000Y-120940000D01*
X125790000Y-118280000D02*
X118050000Y-118280000D01*
G04 #@! TO.C,J4*
X176590000Y-118280000D02*
X168850000Y-118280000D01*
X168850000Y-118280000D02*
X168850000Y-120940000D01*
X168850000Y-120940000D02*
X176590000Y-120940000D01*
X176590000Y-120940000D02*
X176590000Y-118280000D01*
X175640000Y-120940000D02*
X175640000Y-126940000D01*
X175640000Y-126940000D02*
X174880000Y-126940000D01*
X174880000Y-126940000D02*
X174880000Y-120940000D01*
X175580000Y-120940000D02*
X175580000Y-126940000D01*
X175460000Y-120940000D02*
X175460000Y-126940000D01*
X175340000Y-120940000D02*
X175340000Y-126940000D01*
X175220000Y-120940000D02*
X175220000Y-126940000D01*
X175100000Y-120940000D02*
X175100000Y-126940000D01*
X174980000Y-120940000D02*
X174980000Y-126940000D01*
X175640000Y-117950000D02*
X175640000Y-118280000D01*
X174880000Y-117950000D02*
X174880000Y-118280000D01*
X173990000Y-118280000D02*
X173990000Y-120940000D01*
X173100000Y-120940000D02*
X173100000Y-126940000D01*
X173100000Y-126940000D02*
X172340000Y-126940000D01*
X172340000Y-126940000D02*
X172340000Y-120940000D01*
X173100000Y-117882929D02*
X173100000Y-118280000D01*
X172340000Y-117882929D02*
X172340000Y-118280000D01*
X171450000Y-118280000D02*
X171450000Y-120940000D01*
X170560000Y-120940000D02*
X170560000Y-126940000D01*
X170560000Y-126940000D02*
X169800000Y-126940000D01*
X169800000Y-126940000D02*
X169800000Y-120940000D01*
X170560000Y-117882929D02*
X170560000Y-118280000D01*
X169800000Y-117882929D02*
X169800000Y-118280000D01*
X175260000Y-115570000D02*
X176530000Y-115570000D01*
X176530000Y-115570000D02*
X176530000Y-116840000D01*
G04 #@! TO.C,J9*
X138370000Y-80070000D02*
X141030000Y-80070000D01*
X138370000Y-74930000D02*
X138370000Y-80070000D01*
X141030000Y-74930000D02*
X141030000Y-80070000D01*
X138370000Y-74930000D02*
X141030000Y-74930000D01*
X138370000Y-73660000D02*
X138370000Y-72330000D01*
X138370000Y-72330000D02*
X139700000Y-72330000D01*
G04 #@! TO.C,J10*
X154880000Y-72330000D02*
X156210000Y-72330000D01*
X154880000Y-73660000D02*
X154880000Y-72330000D01*
X154880000Y-74930000D02*
X157540000Y-74930000D01*
X157540000Y-74930000D02*
X157540000Y-80070000D01*
X154880000Y-74930000D02*
X154880000Y-80070000D01*
X154880000Y-80070000D02*
X157540000Y-80070000D01*
G04 #@! TO.C,J11*
X110430000Y-88960000D02*
X113090000Y-88960000D01*
X110430000Y-76200000D02*
X110430000Y-88960000D01*
X113090000Y-76200000D02*
X113090000Y-88960000D01*
X110430000Y-76200000D02*
X113090000Y-76200000D01*
X110430000Y-74930000D02*
X110430000Y-73600000D01*
X110430000Y-73600000D02*
X111760000Y-73600000D01*
G04 #@! TO.C,J12*
X138370000Y-85090000D02*
X141030000Y-85090000D01*
X138370000Y-85090000D02*
X138370000Y-92770000D01*
X138370000Y-92770000D02*
X141030000Y-92770000D01*
X141030000Y-85090000D02*
X141030000Y-92770000D01*
X141030000Y-82490000D02*
X141030000Y-83820000D01*
X139700000Y-82490000D02*
X141030000Y-82490000D01*
G04 #@! TO.C,J14*
X180280000Y-100330000D02*
X182940000Y-100330000D01*
X180280000Y-100330000D02*
X180280000Y-105470000D01*
X180280000Y-105470000D02*
X182940000Y-105470000D01*
X182940000Y-100330000D02*
X182940000Y-105470000D01*
X182940000Y-97730000D02*
X182940000Y-99060000D01*
X181610000Y-97730000D02*
X182940000Y-97730000D01*
G04 #@! TO.C,J15*
X159960000Y-82550000D02*
X162620000Y-82550000D01*
X159960000Y-82550000D02*
X159960000Y-92770000D01*
X159960000Y-92770000D02*
X162620000Y-92770000D01*
X162620000Y-82550000D02*
X162620000Y-92770000D01*
X162620000Y-79950000D02*
X162620000Y-81280000D01*
X161290000Y-79950000D02*
X162620000Y-79950000D01*
G04 #@! TO.C,Q1*
X153790000Y-51890000D02*
X153790000Y-50390000D01*
X153790000Y-50390000D02*
X153100000Y-50390000D01*
X153100000Y-50390000D02*
X153100000Y-45265000D01*
X143390000Y-51890000D02*
X143390000Y-50390000D01*
X143390000Y-50390000D02*
X144080000Y-50390000D01*
X144080000Y-50390000D02*
X144080000Y-49290000D01*
G04 #@! TO.C,R1*
X160020000Y-125960000D02*
X160020000Y-125190000D01*
X160020000Y-117880000D02*
X160020000Y-118650000D01*
X161390000Y-125190000D02*
X161390000Y-118650000D01*
X158650000Y-125190000D02*
X161390000Y-125190000D01*
X158650000Y-118650000D02*
X158650000Y-125190000D01*
X161390000Y-118650000D02*
X158650000Y-118650000D01*
G04 #@! TO.C,R2*
X169450000Y-95150000D02*
X169450000Y-97890000D01*
X169450000Y-97890000D02*
X175990000Y-97890000D01*
X175990000Y-97890000D02*
X175990000Y-95150000D01*
X175990000Y-95150000D02*
X169450000Y-95150000D01*
X168680000Y-96520000D02*
X169450000Y-96520000D01*
X176760000Y-96520000D02*
X175990000Y-96520000D01*
G04 #@! TO.C,R3*
X169450000Y-105310000D02*
X169450000Y-108050000D01*
X169450000Y-108050000D02*
X175990000Y-108050000D01*
X175990000Y-108050000D02*
X175990000Y-105310000D01*
X175990000Y-105310000D02*
X169450000Y-105310000D01*
X168680000Y-106680000D02*
X169450000Y-106680000D01*
X176760000Y-106680000D02*
X175990000Y-106680000D01*
G04 #@! TO.C,R4*
X169450000Y-100230000D02*
X169450000Y-102970000D01*
X169450000Y-102970000D02*
X175990000Y-102970000D01*
X175990000Y-102970000D02*
X175990000Y-100230000D01*
X175990000Y-100230000D02*
X169450000Y-100230000D01*
X168680000Y-101600000D02*
X169450000Y-101600000D01*
X176760000Y-101600000D02*
X175990000Y-101600000D01*
G04 #@! TO.C,R5*
X117880000Y-83820000D02*
X118650000Y-83820000D01*
X125960000Y-83820000D02*
X125190000Y-83820000D01*
X118650000Y-85190000D02*
X125190000Y-85190000D01*
X118650000Y-82450000D02*
X118650000Y-85190000D01*
X125190000Y-82450000D02*
X118650000Y-82450000D01*
X125190000Y-85190000D02*
X125190000Y-82450000D01*
G04 #@! TO.C,R6*
X125190000Y-102970000D02*
X125190000Y-100230000D01*
X125190000Y-100230000D02*
X118650000Y-100230000D01*
X118650000Y-100230000D02*
X118650000Y-102970000D01*
X118650000Y-102970000D02*
X125190000Y-102970000D01*
X125960000Y-101600000D02*
X125190000Y-101600000D01*
X117880000Y-101600000D02*
X118650000Y-101600000D01*
G04 #@! TO.C,R7*
X125190000Y-108050000D02*
X125190000Y-105310000D01*
X125190000Y-105310000D02*
X118650000Y-105310000D01*
X118650000Y-105310000D02*
X118650000Y-108050000D01*
X118650000Y-108050000D02*
X125190000Y-108050000D01*
X125960000Y-106680000D02*
X125190000Y-106680000D01*
X117880000Y-106680000D02*
X118650000Y-106680000D01*
G04 #@! TO.C,R8*
X117880000Y-111760000D02*
X118650000Y-111760000D01*
X125960000Y-111760000D02*
X125190000Y-111760000D01*
X118650000Y-113130000D02*
X125190000Y-113130000D01*
X118650000Y-110390000D02*
X118650000Y-113130000D01*
X125190000Y-110390000D02*
X118650000Y-110390000D01*
X125190000Y-113130000D02*
X125190000Y-110390000D01*
G04 #@! TO.C,R9*
X176760000Y-111760000D02*
X175990000Y-111760000D01*
X168680000Y-111760000D02*
X169450000Y-111760000D01*
X175990000Y-110390000D02*
X169450000Y-110390000D01*
X175990000Y-113130000D02*
X175990000Y-110390000D01*
X169450000Y-113130000D02*
X175990000Y-113130000D01*
X169450000Y-110390000D02*
X169450000Y-113130000D01*
G04 #@! TO.C,R10*
X118650000Y-78640000D02*
X118650000Y-81380000D01*
X118650000Y-81380000D02*
X125190000Y-81380000D01*
X125190000Y-81380000D02*
X125190000Y-78640000D01*
X125190000Y-78640000D02*
X118650000Y-78640000D01*
X117880000Y-80010000D02*
X118650000Y-80010000D01*
X125960000Y-80010000D02*
X125190000Y-80010000D01*
G04 #@! TO.C,R11*
X138660000Y-40640000D02*
X137890000Y-40640000D01*
X130580000Y-40640000D02*
X131350000Y-40640000D01*
X137890000Y-39270000D02*
X131350000Y-39270000D01*
X137890000Y-42010000D02*
X137890000Y-39270000D01*
X131350000Y-42010000D02*
X137890000Y-42010000D01*
X131350000Y-39270000D02*
X131350000Y-42010000D01*
G04 #@! TO.C,R12*
X166370000Y-40410000D02*
X166370000Y-41180000D01*
X166370000Y-48490000D02*
X166370000Y-47720000D01*
X165000000Y-41180000D02*
X165000000Y-47720000D01*
X167740000Y-41180000D02*
X165000000Y-41180000D01*
X167740000Y-47720000D02*
X167740000Y-41180000D01*
X165000000Y-47720000D02*
X167740000Y-47720000D01*
G04 #@! TO.C,SW1*
X128210000Y-35560000D02*
X128210000Y-34230000D01*
X128210000Y-34230000D02*
X129540000Y-34230000D01*
X130810000Y-34230000D02*
X135950000Y-34230000D01*
X135950000Y-36890000D02*
X135950000Y-34230000D01*
X130810000Y-36890000D02*
X135950000Y-36890000D01*
X130810000Y-36890000D02*
X130810000Y-34230000D01*
G04 #@! TO.C,U1*
X126960000Y-70390000D02*
X137200000Y-70390000D01*
X126960000Y-75031000D02*
X137200000Y-75031000D01*
X126960000Y-70390000D02*
X126960000Y-75031000D01*
X137200000Y-70390000D02*
X137200000Y-75031000D01*
X126960000Y-71900000D02*
X137200000Y-71900000D01*
X130230000Y-70390000D02*
X130230000Y-71900000D01*
X133931000Y-70390000D02*
X133931000Y-71900000D01*
G04 #@! TO.C,U2*
X165681000Y-70390000D02*
X165681000Y-71900000D01*
X161980000Y-70390000D02*
X161980000Y-71900000D01*
X158710000Y-71900000D02*
X168950000Y-71900000D01*
X168950000Y-70390000D02*
X168950000Y-75031000D01*
X158710000Y-70390000D02*
X158710000Y-75031000D01*
X158710000Y-75031000D02*
X168950000Y-75031000D01*
X158710000Y-70390000D02*
X168950000Y-70390000D01*
G04 #@! TO.C,U3*
X149590000Y-74870000D02*
G75*
G02X147590000Y-74870000I-1000000J0D01*
G01*
X147590000Y-74870000D02*
X145940000Y-74870000D01*
X145940000Y-74870000D02*
X145940000Y-110550000D01*
X145940000Y-110550000D02*
X151240000Y-110550000D01*
X151240000Y-110550000D02*
X151240000Y-74870000D01*
X151240000Y-74870000D02*
X149590000Y-74870000D01*
X143450000Y-74810000D02*
X143450000Y-110610000D01*
X143450000Y-110610000D02*
X153730000Y-110610000D01*
X153730000Y-110610000D02*
X153730000Y-74810000D01*
X153730000Y-74810000D02*
X143450000Y-74810000D01*
G04 #@! TO.C,U4*
X153289000Y-123190000D02*
X153289000Y-128524000D01*
X153289000Y-128524000D02*
X142621000Y-128524000D01*
X142621000Y-128524000D02*
X142621000Y-123190000D01*
X142621000Y-123190000D02*
X142621000Y-123190000D01*
X152781000Y-125730000D02*
X150495000Y-125730000D01*
X150495000Y-125730000D02*
X150495000Y-123444000D01*
X150495000Y-123444000D02*
X150495000Y-123444000D01*
X153865000Y-122860000D02*
X153865000Y-152060000D01*
X153865000Y-152060000D02*
X138415000Y-152060000D01*
X138415000Y-152060000D02*
X138415000Y-122860000D01*
X138415000Y-122860000D02*
X153865000Y-122860000D01*
X153865000Y-122860000D02*
X153865000Y-122860000D01*
X142621000Y-123190000D02*
X153289000Y-123190000D01*
X153289000Y-123190000D02*
X153289000Y-123190000D01*
G04 #@! TO.C,Y1*
X129555000Y-94665000D02*
X129555000Y-88415000D01*
X134605000Y-94665000D02*
X134605000Y-88415000D01*
X134605000Y-94665000D02*
G75*
G02X129555000Y-94665000I-2525000J0D01*
G01*
X134605000Y-88415000D02*
G75*
G03X129555000Y-88415000I-2525000J0D01*
G01*
G04 #@! TO.C,C1*
D11*
X123293333Y-77767142D02*
X123245714Y-77814761D01*
X123102857Y-77862380D01*
X123007619Y-77862380D01*
X122864761Y-77814761D01*
X122769523Y-77719523D01*
X122721904Y-77624285D01*
X122674285Y-77433809D01*
X122674285Y-77290952D01*
X122721904Y-77100476D01*
X122769523Y-77005238D01*
X122864761Y-76910000D01*
X123007619Y-76862380D01*
X123102857Y-76862380D01*
X123245714Y-76910000D01*
X123293333Y-76957619D01*
X124245714Y-77862380D02*
X123674285Y-77862380D01*
X123960000Y-77862380D02*
X123960000Y-76862380D01*
X123864761Y-77005238D01*
X123769523Y-77100476D01*
X123674285Y-77148095D01*
G04 #@! TO.C,C2*
X172283333Y-70267142D02*
X172235714Y-70314761D01*
X172092857Y-70362380D01*
X171997619Y-70362380D01*
X171854761Y-70314761D01*
X171759523Y-70219523D01*
X171711904Y-70124285D01*
X171664285Y-69933809D01*
X171664285Y-69790952D01*
X171711904Y-69600476D01*
X171759523Y-69505238D01*
X171854761Y-69410000D01*
X171997619Y-69362380D01*
X172092857Y-69362380D01*
X172235714Y-69410000D01*
X172283333Y-69457619D01*
X172664285Y-69457619D02*
X172711904Y-69410000D01*
X172807142Y-69362380D01*
X173045238Y-69362380D01*
X173140476Y-69410000D01*
X173188095Y-69457619D01*
X173235714Y-69552857D01*
X173235714Y-69648095D01*
X173188095Y-69790952D01*
X172616666Y-70362380D01*
X173235714Y-70362380D01*
G04 #@! TO.C,C3*
X119867142Y-73766666D02*
X119914761Y-73814285D01*
X119962380Y-73957142D01*
X119962380Y-74052380D01*
X119914761Y-74195238D01*
X119819523Y-74290476D01*
X119724285Y-74338095D01*
X119533809Y-74385714D01*
X119390952Y-74385714D01*
X119200476Y-74338095D01*
X119105238Y-74290476D01*
X119010000Y-74195238D01*
X118962380Y-74052380D01*
X118962380Y-73957142D01*
X119010000Y-73814285D01*
X119057619Y-73766666D01*
X118962380Y-73433333D02*
X118962380Y-72814285D01*
X119343333Y-73147619D01*
X119343333Y-73004761D01*
X119390952Y-72909523D01*
X119438571Y-72861904D01*
X119533809Y-72814285D01*
X119771904Y-72814285D01*
X119867142Y-72861904D01*
X119914761Y-72909523D01*
X119962380Y-73004761D01*
X119962380Y-73290476D01*
X119914761Y-73385714D01*
X119867142Y-73433333D01*
G04 #@! TO.C,C4*
X176757142Y-73886666D02*
X176804761Y-73934285D01*
X176852380Y-74077142D01*
X176852380Y-74172380D01*
X176804761Y-74315238D01*
X176709523Y-74410476D01*
X176614285Y-74458095D01*
X176423809Y-74505714D01*
X176280952Y-74505714D01*
X176090476Y-74458095D01*
X175995238Y-74410476D01*
X175900000Y-74315238D01*
X175852380Y-74172380D01*
X175852380Y-74077142D01*
X175900000Y-73934285D01*
X175947619Y-73886666D01*
X176185714Y-73029523D02*
X176852380Y-73029523D01*
X175804761Y-73267619D02*
X176519047Y-73505714D01*
X176519047Y-72886666D01*
G04 #@! TO.C,C5*
X122963333Y-86837142D02*
X122915714Y-86884761D01*
X122772857Y-86932380D01*
X122677619Y-86932380D01*
X122534761Y-86884761D01*
X122439523Y-86789523D01*
X122391904Y-86694285D01*
X122344285Y-86503809D01*
X122344285Y-86360952D01*
X122391904Y-86170476D01*
X122439523Y-86075238D01*
X122534761Y-85980000D01*
X122677619Y-85932380D01*
X122772857Y-85932380D01*
X122915714Y-85980000D01*
X122963333Y-86027619D01*
X123868095Y-85932380D02*
X123391904Y-85932380D01*
X123344285Y-86408571D01*
X123391904Y-86360952D01*
X123487142Y-86313333D01*
X123725238Y-86313333D01*
X123820476Y-86360952D01*
X123868095Y-86408571D01*
X123915714Y-86503809D01*
X123915714Y-86741904D01*
X123868095Y-86837142D01*
X123820476Y-86884761D01*
X123725238Y-86932380D01*
X123487142Y-86932380D01*
X123391904Y-86884761D01*
X123344285Y-86837142D01*
G04 #@! TO.C,C6*
X122963333Y-91917142D02*
X122915714Y-91964761D01*
X122772857Y-92012380D01*
X122677619Y-92012380D01*
X122534761Y-91964761D01*
X122439523Y-91869523D01*
X122391904Y-91774285D01*
X122344285Y-91583809D01*
X122344285Y-91440952D01*
X122391904Y-91250476D01*
X122439523Y-91155238D01*
X122534761Y-91060000D01*
X122677619Y-91012380D01*
X122772857Y-91012380D01*
X122915714Y-91060000D01*
X122963333Y-91107619D01*
X123820476Y-91012380D02*
X123630000Y-91012380D01*
X123534761Y-91060000D01*
X123487142Y-91107619D01*
X123391904Y-91250476D01*
X123344285Y-91440952D01*
X123344285Y-91821904D01*
X123391904Y-91917142D01*
X123439523Y-91964761D01*
X123534761Y-92012380D01*
X123725238Y-92012380D01*
X123820476Y-91964761D01*
X123868095Y-91917142D01*
X123915714Y-91821904D01*
X123915714Y-91583809D01*
X123868095Y-91488571D01*
X123820476Y-91440952D01*
X123725238Y-91393333D01*
X123534761Y-91393333D01*
X123439523Y-91440952D01*
X123391904Y-91488571D01*
X123344285Y-91583809D01*
G04 #@! TO.C,C7*
X118597142Y-91546666D02*
X118644761Y-91594285D01*
X118692380Y-91737142D01*
X118692380Y-91832380D01*
X118644761Y-91975238D01*
X118549523Y-92070476D01*
X118454285Y-92118095D01*
X118263809Y-92165714D01*
X118120952Y-92165714D01*
X117930476Y-92118095D01*
X117835238Y-92070476D01*
X117740000Y-91975238D01*
X117692380Y-91832380D01*
X117692380Y-91737142D01*
X117740000Y-91594285D01*
X117787619Y-91546666D01*
X117692380Y-91213333D02*
X117692380Y-90546666D01*
X118692380Y-90975238D01*
G04 #@! TO.C,D1*
X155812380Y-118848095D02*
X154812380Y-118848095D01*
X154812380Y-118610000D01*
X154860000Y-118467142D01*
X154955238Y-118371904D01*
X155050476Y-118324285D01*
X155240952Y-118276666D01*
X155383809Y-118276666D01*
X155574285Y-118324285D01*
X155669523Y-118371904D01*
X155764761Y-118467142D01*
X155812380Y-118610000D01*
X155812380Y-118848095D01*
X155812380Y-117324285D02*
X155812380Y-117895714D01*
X155812380Y-117610000D02*
X154812380Y-117610000D01*
X154955238Y-117705238D01*
X155050476Y-117800476D01*
X155098095Y-117895714D01*
G04 #@! TO.C,D2*
X160551904Y-99932380D02*
X160551904Y-98932380D01*
X160790000Y-98932380D01*
X160932857Y-98980000D01*
X161028095Y-99075238D01*
X161075714Y-99170476D01*
X161123333Y-99360952D01*
X161123333Y-99503809D01*
X161075714Y-99694285D01*
X161028095Y-99789523D01*
X160932857Y-99884761D01*
X160790000Y-99932380D01*
X160551904Y-99932380D01*
X161504285Y-99027619D02*
X161551904Y-98980000D01*
X161647142Y-98932380D01*
X161885238Y-98932380D01*
X161980476Y-98980000D01*
X162028095Y-99027619D01*
X162075714Y-99122857D01*
X162075714Y-99218095D01*
X162028095Y-99360952D01*
X161456666Y-99932380D01*
X162075714Y-99932380D01*
G04 #@! TO.C,D3*
X160551904Y-110092380D02*
X160551904Y-109092380D01*
X160790000Y-109092380D01*
X160932857Y-109140000D01*
X161028095Y-109235238D01*
X161075714Y-109330476D01*
X161123333Y-109520952D01*
X161123333Y-109663809D01*
X161075714Y-109854285D01*
X161028095Y-109949523D01*
X160932857Y-110044761D01*
X160790000Y-110092380D01*
X160551904Y-110092380D01*
X161456666Y-109092380D02*
X162075714Y-109092380D01*
X161742380Y-109473333D01*
X161885238Y-109473333D01*
X161980476Y-109520952D01*
X162028095Y-109568571D01*
X162075714Y-109663809D01*
X162075714Y-109901904D01*
X162028095Y-109997142D01*
X161980476Y-110044761D01*
X161885238Y-110092380D01*
X161599523Y-110092380D01*
X161504285Y-110044761D01*
X161456666Y-109997142D01*
G04 #@! TO.C,D4*
X160551904Y-105012380D02*
X160551904Y-104012380D01*
X160790000Y-104012380D01*
X160932857Y-104060000D01*
X161028095Y-104155238D01*
X161075714Y-104250476D01*
X161123333Y-104440952D01*
X161123333Y-104583809D01*
X161075714Y-104774285D01*
X161028095Y-104869523D01*
X160932857Y-104964761D01*
X160790000Y-105012380D01*
X160551904Y-105012380D01*
X161980476Y-104345714D02*
X161980476Y-105012380D01*
X161742380Y-103964761D02*
X161504285Y-104679047D01*
X162123333Y-104679047D01*
G04 #@! TO.C,D5*
X132611904Y-78772380D02*
X132611904Y-77772380D01*
X132850000Y-77772380D01*
X132992857Y-77820000D01*
X133088095Y-77915238D01*
X133135714Y-78010476D01*
X133183333Y-78200952D01*
X133183333Y-78343809D01*
X133135714Y-78534285D01*
X133088095Y-78629523D01*
X132992857Y-78724761D01*
X132850000Y-78772380D01*
X132611904Y-78772380D01*
X134088095Y-77772380D02*
X133611904Y-77772380D01*
X133564285Y-78248571D01*
X133611904Y-78200952D01*
X133707142Y-78153333D01*
X133945238Y-78153333D01*
X134040476Y-78200952D01*
X134088095Y-78248571D01*
X134135714Y-78343809D01*
X134135714Y-78581904D01*
X134088095Y-78677142D01*
X134040476Y-78724761D01*
X133945238Y-78772380D01*
X133707142Y-78772380D01*
X133611904Y-78724761D01*
X133564285Y-78677142D01*
G04 #@! TO.C,D6*
X132611904Y-99092380D02*
X132611904Y-98092380D01*
X132850000Y-98092380D01*
X132992857Y-98140000D01*
X133088095Y-98235238D01*
X133135714Y-98330476D01*
X133183333Y-98520952D01*
X133183333Y-98663809D01*
X133135714Y-98854285D01*
X133088095Y-98949523D01*
X132992857Y-99044761D01*
X132850000Y-99092380D01*
X132611904Y-99092380D01*
X134040476Y-98092380D02*
X133850000Y-98092380D01*
X133754761Y-98140000D01*
X133707142Y-98187619D01*
X133611904Y-98330476D01*
X133564285Y-98520952D01*
X133564285Y-98901904D01*
X133611904Y-98997142D01*
X133659523Y-99044761D01*
X133754761Y-99092380D01*
X133945238Y-99092380D01*
X134040476Y-99044761D01*
X134088095Y-98997142D01*
X134135714Y-98901904D01*
X134135714Y-98663809D01*
X134088095Y-98568571D01*
X134040476Y-98520952D01*
X133945238Y-98473333D01*
X133754761Y-98473333D01*
X133659523Y-98520952D01*
X133611904Y-98568571D01*
X133564285Y-98663809D01*
G04 #@! TO.C,D7*
X132611904Y-104172380D02*
X132611904Y-103172380D01*
X132850000Y-103172380D01*
X132992857Y-103220000D01*
X133088095Y-103315238D01*
X133135714Y-103410476D01*
X133183333Y-103600952D01*
X133183333Y-103743809D01*
X133135714Y-103934285D01*
X133088095Y-104029523D01*
X132992857Y-104124761D01*
X132850000Y-104172380D01*
X132611904Y-104172380D01*
X133516666Y-103172380D02*
X134183333Y-103172380D01*
X133754761Y-104172380D01*
G04 #@! TO.C,D8*
X132611904Y-109252380D02*
X132611904Y-108252380D01*
X132850000Y-108252380D01*
X132992857Y-108300000D01*
X133088095Y-108395238D01*
X133135714Y-108490476D01*
X133183333Y-108680952D01*
X133183333Y-108823809D01*
X133135714Y-109014285D01*
X133088095Y-109109523D01*
X132992857Y-109204761D01*
X132850000Y-109252380D01*
X132611904Y-109252380D01*
X133754761Y-108680952D02*
X133659523Y-108633333D01*
X133611904Y-108585714D01*
X133564285Y-108490476D01*
X133564285Y-108442857D01*
X133611904Y-108347619D01*
X133659523Y-108300000D01*
X133754761Y-108252380D01*
X133945238Y-108252380D01*
X134040476Y-108300000D01*
X134088095Y-108347619D01*
X134135714Y-108442857D01*
X134135714Y-108490476D01*
X134088095Y-108585714D01*
X134040476Y-108633333D01*
X133945238Y-108680952D01*
X133754761Y-108680952D01*
X133659523Y-108728571D01*
X133611904Y-108776190D01*
X133564285Y-108871428D01*
X133564285Y-109061904D01*
X133611904Y-109157142D01*
X133659523Y-109204761D01*
X133754761Y-109252380D01*
X133945238Y-109252380D01*
X134040476Y-109204761D01*
X134088095Y-109157142D01*
X134135714Y-109061904D01*
X134135714Y-108871428D01*
X134088095Y-108776190D01*
X134040476Y-108728571D01*
X133945238Y-108680952D01*
G04 #@! TO.C,D9*
X160551904Y-115172380D02*
X160551904Y-114172380D01*
X160790000Y-114172380D01*
X160932857Y-114220000D01*
X161028095Y-114315238D01*
X161075714Y-114410476D01*
X161123333Y-114600952D01*
X161123333Y-114743809D01*
X161075714Y-114934285D01*
X161028095Y-115029523D01*
X160932857Y-115124761D01*
X160790000Y-115172380D01*
X160551904Y-115172380D01*
X161599523Y-115172380D02*
X161790000Y-115172380D01*
X161885238Y-115124761D01*
X161932857Y-115077142D01*
X162028095Y-114934285D01*
X162075714Y-114743809D01*
X162075714Y-114362857D01*
X162028095Y-114267619D01*
X161980476Y-114220000D01*
X161885238Y-114172380D01*
X161694761Y-114172380D01*
X161599523Y-114220000D01*
X161551904Y-114267619D01*
X161504285Y-114362857D01*
X161504285Y-114600952D01*
X161551904Y-114696190D01*
X161599523Y-114743809D01*
X161694761Y-114791428D01*
X161885238Y-114791428D01*
X161980476Y-114743809D01*
X162028095Y-114696190D01*
X162075714Y-114600952D01*
G04 #@! TO.C,D10*
X160892380Y-45664285D02*
X159892380Y-45664285D01*
X159892380Y-45426190D01*
X159940000Y-45283333D01*
X160035238Y-45188095D01*
X160130476Y-45140476D01*
X160320952Y-45092857D01*
X160463809Y-45092857D01*
X160654285Y-45140476D01*
X160749523Y-45188095D01*
X160844761Y-45283333D01*
X160892380Y-45426190D01*
X160892380Y-45664285D01*
X160892380Y-44140476D02*
X160892380Y-44711904D01*
X160892380Y-44426190D02*
X159892380Y-44426190D01*
X160035238Y-44521428D01*
X160130476Y-44616666D01*
X160178095Y-44711904D01*
X159892380Y-43521428D02*
X159892380Y-43426190D01*
X159940000Y-43330952D01*
X159987619Y-43283333D01*
X160082857Y-43235714D01*
X160273333Y-43188095D01*
X160511428Y-43188095D01*
X160701904Y-43235714D01*
X160797142Y-43283333D01*
X160844761Y-43330952D01*
X160892380Y-43426190D01*
X160892380Y-43521428D01*
X160844761Y-43616666D01*
X160797142Y-43664285D01*
X160701904Y-43711904D01*
X160511428Y-43759523D01*
X160273333Y-43759523D01*
X160082857Y-43711904D01*
X159987619Y-43664285D01*
X159940000Y-43616666D01*
X159892380Y-43521428D01*
X161212380Y-48521904D02*
X160212380Y-48521904D01*
X161212380Y-47950476D02*
X160640952Y-48379047D01*
X160212380Y-47950476D02*
X160783809Y-48521904D01*
G04 #@! TO.C,J1*
X116562380Y-41668333D02*
X117276666Y-41668333D01*
X117419523Y-41715952D01*
X117514761Y-41811190D01*
X117562380Y-41954047D01*
X117562380Y-42049285D01*
X117562380Y-40668333D02*
X117562380Y-41239761D01*
X117562380Y-40954047D02*
X116562380Y-40954047D01*
X116705238Y-41049285D01*
X116800476Y-41144523D01*
X116848095Y-41239761D01*
G04 #@! TO.C,J2*
X167997380Y-41668333D02*
X168711666Y-41668333D01*
X168854523Y-41715952D01*
X168949761Y-41811190D01*
X168997380Y-41954047D01*
X168997380Y-42049285D01*
X168092619Y-41239761D02*
X168045000Y-41192142D01*
X167997380Y-41096904D01*
X167997380Y-40858809D01*
X168045000Y-40763571D01*
X168092619Y-40715952D01*
X168187857Y-40668333D01*
X168283095Y-40668333D01*
X168425952Y-40715952D01*
X168997380Y-41287380D01*
X168997380Y-40668333D01*
G04 #@! TO.C,J3*
X126182380Y-121558333D02*
X126896666Y-121558333D01*
X127039523Y-121605952D01*
X127134761Y-121701190D01*
X127182380Y-121844047D01*
X127182380Y-121939285D01*
X126182380Y-121177380D02*
X126182380Y-120558333D01*
X126563333Y-120891666D01*
X126563333Y-120748809D01*
X126610952Y-120653571D01*
X126658571Y-120605952D01*
X126753809Y-120558333D01*
X126991904Y-120558333D01*
X127087142Y-120605952D01*
X127134761Y-120653571D01*
X127182380Y-120748809D01*
X127182380Y-121034523D01*
X127134761Y-121129761D01*
X127087142Y-121177380D01*
G04 #@! TO.C,J4*
X176982380Y-121558333D02*
X177696666Y-121558333D01*
X177839523Y-121605952D01*
X177934761Y-121701190D01*
X177982380Y-121844047D01*
X177982380Y-121939285D01*
X177315714Y-120653571D02*
X177982380Y-120653571D01*
X176934761Y-120891666D02*
X177649047Y-121129761D01*
X177649047Y-120510714D01*
G04 #@! TO.C,J5*
X107616666Y-42632380D02*
X107616666Y-43346666D01*
X107569047Y-43489523D01*
X107473809Y-43584761D01*
X107330952Y-43632380D01*
X107235714Y-43632380D01*
X108569047Y-42632380D02*
X108092857Y-42632380D01*
X108045238Y-43108571D01*
X108092857Y-43060952D01*
X108188095Y-43013333D01*
X108426190Y-43013333D01*
X108521428Y-43060952D01*
X108569047Y-43108571D01*
X108616666Y-43203809D01*
X108616666Y-43441904D01*
X108569047Y-43537142D01*
X108521428Y-43584761D01*
X108426190Y-43632380D01*
X108188095Y-43632380D01*
X108092857Y-43584761D01*
X108045238Y-43537142D01*
G04 #@! TO.C,J6*
X186356666Y-42632380D02*
X186356666Y-43346666D01*
X186309047Y-43489523D01*
X186213809Y-43584761D01*
X186070952Y-43632380D01*
X185975714Y-43632380D01*
X187261428Y-42632380D02*
X187070952Y-42632380D01*
X186975714Y-42680000D01*
X186928095Y-42727619D01*
X186832857Y-42870476D01*
X186785238Y-43060952D01*
X186785238Y-43441904D01*
X186832857Y-43537142D01*
X186880476Y-43584761D01*
X186975714Y-43632380D01*
X187166190Y-43632380D01*
X187261428Y-43584761D01*
X187309047Y-43537142D01*
X187356666Y-43441904D01*
X187356666Y-43203809D01*
X187309047Y-43108571D01*
X187261428Y-43060952D01*
X187166190Y-43013333D01*
X186975714Y-43013333D01*
X186880476Y-43060952D01*
X186832857Y-43108571D01*
X186785238Y-43203809D01*
G04 #@! TO.C,J7*
X107616666Y-118832380D02*
X107616666Y-119546666D01*
X107569047Y-119689523D01*
X107473809Y-119784761D01*
X107330952Y-119832380D01*
X107235714Y-119832380D01*
X107997619Y-118832380D02*
X108664285Y-118832380D01*
X108235714Y-119832380D01*
G04 #@! TO.C,J8*
X186356666Y-118832380D02*
X186356666Y-119546666D01*
X186309047Y-119689523D01*
X186213809Y-119784761D01*
X186070952Y-119832380D01*
X185975714Y-119832380D01*
X186975714Y-119260952D02*
X186880476Y-119213333D01*
X186832857Y-119165714D01*
X186785238Y-119070476D01*
X186785238Y-119022857D01*
X186832857Y-118927619D01*
X186880476Y-118880000D01*
X186975714Y-118832380D01*
X187166190Y-118832380D01*
X187261428Y-118880000D01*
X187309047Y-118927619D01*
X187356666Y-119022857D01*
X187356666Y-119070476D01*
X187309047Y-119165714D01*
X187261428Y-119213333D01*
X187166190Y-119260952D01*
X186975714Y-119260952D01*
X186880476Y-119308571D01*
X186832857Y-119356190D01*
X186785238Y-119451428D01*
X186785238Y-119641904D01*
X186832857Y-119737142D01*
X186880476Y-119784761D01*
X186975714Y-119832380D01*
X187166190Y-119832380D01*
X187261428Y-119784761D01*
X187309047Y-119737142D01*
X187356666Y-119641904D01*
X187356666Y-119451428D01*
X187309047Y-119356190D01*
X187261428Y-119308571D01*
X187166190Y-119260952D01*
G04 #@! TO.C,J9*
X139366666Y-70782380D02*
X139366666Y-71496666D01*
X139319047Y-71639523D01*
X139223809Y-71734761D01*
X139080952Y-71782380D01*
X138985714Y-71782380D01*
X139890476Y-71782380D02*
X140080952Y-71782380D01*
X140176190Y-71734761D01*
X140223809Y-71687142D01*
X140319047Y-71544285D01*
X140366666Y-71353809D01*
X140366666Y-70972857D01*
X140319047Y-70877619D01*
X140271428Y-70830000D01*
X140176190Y-70782380D01*
X139985714Y-70782380D01*
X139890476Y-70830000D01*
X139842857Y-70877619D01*
X139795238Y-70972857D01*
X139795238Y-71210952D01*
X139842857Y-71306190D01*
X139890476Y-71353809D01*
X139985714Y-71401428D01*
X140176190Y-71401428D01*
X140271428Y-71353809D01*
X140319047Y-71306190D01*
X140366666Y-71210952D01*
G04 #@! TO.C,J10*
X155400476Y-70782380D02*
X155400476Y-71496666D01*
X155352857Y-71639523D01*
X155257619Y-71734761D01*
X155114761Y-71782380D01*
X155019523Y-71782380D01*
X156400476Y-71782380D02*
X155829047Y-71782380D01*
X156114761Y-71782380D02*
X156114761Y-70782380D01*
X156019523Y-70925238D01*
X155924285Y-71020476D01*
X155829047Y-71068095D01*
X157019523Y-70782380D02*
X157114761Y-70782380D01*
X157210000Y-70830000D01*
X157257619Y-70877619D01*
X157305238Y-70972857D01*
X157352857Y-71163333D01*
X157352857Y-71401428D01*
X157305238Y-71591904D01*
X157257619Y-71687142D01*
X157210000Y-71734761D01*
X157114761Y-71782380D01*
X157019523Y-71782380D01*
X156924285Y-71734761D01*
X156876666Y-71687142D01*
X156829047Y-71591904D01*
X156781428Y-71401428D01*
X156781428Y-71163333D01*
X156829047Y-70972857D01*
X156876666Y-70877619D01*
X156924285Y-70830000D01*
X157019523Y-70782380D01*
G04 #@! TO.C,J11*
X110950476Y-72052380D02*
X110950476Y-72766666D01*
X110902857Y-72909523D01*
X110807619Y-73004761D01*
X110664761Y-73052380D01*
X110569523Y-73052380D01*
X111950476Y-73052380D02*
X111379047Y-73052380D01*
X111664761Y-73052380D02*
X111664761Y-72052380D01*
X111569523Y-72195238D01*
X111474285Y-72290476D01*
X111379047Y-72338095D01*
X112902857Y-73052380D02*
X112331428Y-73052380D01*
X112617142Y-73052380D02*
X112617142Y-72052380D01*
X112521904Y-72195238D01*
X112426666Y-72290476D01*
X112331428Y-72338095D01*
G04 #@! TO.C,J12*
X138890476Y-80502380D02*
X138890476Y-81216666D01*
X138842857Y-81359523D01*
X138747619Y-81454761D01*
X138604761Y-81502380D01*
X138509523Y-81502380D01*
X139890476Y-81502380D02*
X139319047Y-81502380D01*
X139604761Y-81502380D02*
X139604761Y-80502380D01*
X139509523Y-80645238D01*
X139414285Y-80740476D01*
X139319047Y-80788095D01*
X140271428Y-80597619D02*
X140319047Y-80550000D01*
X140414285Y-80502380D01*
X140652380Y-80502380D01*
X140747619Y-80550000D01*
X140795238Y-80597619D01*
X140842857Y-80692857D01*
X140842857Y-80788095D01*
X140795238Y-80930952D01*
X140223809Y-81502380D01*
X140842857Y-81502380D01*
G04 #@! TO.C,J13*
X147780476Y-32472380D02*
X147780476Y-33186666D01*
X147732857Y-33329523D01*
X147637619Y-33424761D01*
X147494761Y-33472380D01*
X147399523Y-33472380D01*
X148780476Y-33472380D02*
X148209047Y-33472380D01*
X148494761Y-33472380D02*
X148494761Y-32472380D01*
X148399523Y-32615238D01*
X148304285Y-32710476D01*
X148209047Y-32758095D01*
X149113809Y-32472380D02*
X149732857Y-32472380D01*
X149399523Y-32853333D01*
X149542380Y-32853333D01*
X149637619Y-32900952D01*
X149685238Y-32948571D01*
X149732857Y-33043809D01*
X149732857Y-33281904D01*
X149685238Y-33377142D01*
X149637619Y-33424761D01*
X149542380Y-33472380D01*
X149256666Y-33472380D01*
X149161428Y-33424761D01*
X149113809Y-33377142D01*
G04 #@! TO.C,J14*
X180800476Y-95742380D02*
X180800476Y-96456666D01*
X180752857Y-96599523D01*
X180657619Y-96694761D01*
X180514761Y-96742380D01*
X180419523Y-96742380D01*
X181800476Y-96742380D02*
X181229047Y-96742380D01*
X181514761Y-96742380D02*
X181514761Y-95742380D01*
X181419523Y-95885238D01*
X181324285Y-95980476D01*
X181229047Y-96028095D01*
X182657619Y-96075714D02*
X182657619Y-96742380D01*
X182419523Y-95694761D02*
X182181428Y-96409047D01*
X182800476Y-96409047D01*
G04 #@! TO.C,J15*
X160480476Y-77962380D02*
X160480476Y-78676666D01*
X160432857Y-78819523D01*
X160337619Y-78914761D01*
X160194761Y-78962380D01*
X160099523Y-78962380D01*
X161480476Y-78962380D02*
X160909047Y-78962380D01*
X161194761Y-78962380D02*
X161194761Y-77962380D01*
X161099523Y-78105238D01*
X161004285Y-78200476D01*
X160909047Y-78248095D01*
X162385238Y-77962380D02*
X161909047Y-77962380D01*
X161861428Y-78438571D01*
X161909047Y-78390952D01*
X162004285Y-78343333D01*
X162242380Y-78343333D01*
X162337619Y-78390952D01*
X162385238Y-78438571D01*
X162432857Y-78533809D01*
X162432857Y-78771904D01*
X162385238Y-78867142D01*
X162337619Y-78914761D01*
X162242380Y-78962380D01*
X162004285Y-78962380D01*
X161909047Y-78914761D01*
X161861428Y-78867142D01*
G04 #@! TO.C,Q1*
X155787619Y-53435238D02*
X155740000Y-53530476D01*
X155644761Y-53625714D01*
X155501904Y-53768571D01*
X155454285Y-53863809D01*
X155454285Y-53959047D01*
X155692380Y-53911428D02*
X155644761Y-54006666D01*
X155549523Y-54101904D01*
X155359047Y-54149523D01*
X155025714Y-54149523D01*
X154835238Y-54101904D01*
X154740000Y-54006666D01*
X154692380Y-53911428D01*
X154692380Y-53720952D01*
X154740000Y-53625714D01*
X154835238Y-53530476D01*
X155025714Y-53482857D01*
X155359047Y-53482857D01*
X155549523Y-53530476D01*
X155644761Y-53625714D01*
X155692380Y-53720952D01*
X155692380Y-53911428D01*
X155692380Y-52530476D02*
X155692380Y-53101904D01*
X155692380Y-52816190D02*
X154692380Y-52816190D01*
X154835238Y-52911428D01*
X154930476Y-53006666D01*
X154978095Y-53101904D01*
G04 #@! TO.C,R1*
X162842380Y-122086666D02*
X162366190Y-122420000D01*
X162842380Y-122658095D02*
X161842380Y-122658095D01*
X161842380Y-122277142D01*
X161890000Y-122181904D01*
X161937619Y-122134285D01*
X162032857Y-122086666D01*
X162175714Y-122086666D01*
X162270952Y-122134285D01*
X162318571Y-122181904D01*
X162366190Y-122277142D01*
X162366190Y-122658095D01*
X162842380Y-121134285D02*
X162842380Y-121705714D01*
X162842380Y-121420000D02*
X161842380Y-121420000D01*
X161985238Y-121515238D01*
X162080476Y-121610476D01*
X162128095Y-121705714D01*
G04 #@! TO.C,R2*
X172553333Y-94602380D02*
X172220000Y-94126190D01*
X171981904Y-94602380D02*
X171981904Y-93602380D01*
X172362857Y-93602380D01*
X172458095Y-93650000D01*
X172505714Y-93697619D01*
X172553333Y-93792857D01*
X172553333Y-93935714D01*
X172505714Y-94030952D01*
X172458095Y-94078571D01*
X172362857Y-94126190D01*
X171981904Y-94126190D01*
X172934285Y-93697619D02*
X172981904Y-93650000D01*
X173077142Y-93602380D01*
X173315238Y-93602380D01*
X173410476Y-93650000D01*
X173458095Y-93697619D01*
X173505714Y-93792857D01*
X173505714Y-93888095D01*
X173458095Y-94030952D01*
X172886666Y-94602380D01*
X173505714Y-94602380D01*
G04 #@! TO.C,R3*
X172553333Y-104762380D02*
X172220000Y-104286190D01*
X171981904Y-104762380D02*
X171981904Y-103762380D01*
X172362857Y-103762380D01*
X172458095Y-103810000D01*
X172505714Y-103857619D01*
X172553333Y-103952857D01*
X172553333Y-104095714D01*
X172505714Y-104190952D01*
X172458095Y-104238571D01*
X172362857Y-104286190D01*
X171981904Y-104286190D01*
X172886666Y-103762380D02*
X173505714Y-103762380D01*
X173172380Y-104143333D01*
X173315238Y-104143333D01*
X173410476Y-104190952D01*
X173458095Y-104238571D01*
X173505714Y-104333809D01*
X173505714Y-104571904D01*
X173458095Y-104667142D01*
X173410476Y-104714761D01*
X173315238Y-104762380D01*
X173029523Y-104762380D01*
X172934285Y-104714761D01*
X172886666Y-104667142D01*
G04 #@! TO.C,R4*
X172553333Y-99682380D02*
X172220000Y-99206190D01*
X171981904Y-99682380D02*
X171981904Y-98682380D01*
X172362857Y-98682380D01*
X172458095Y-98730000D01*
X172505714Y-98777619D01*
X172553333Y-98872857D01*
X172553333Y-99015714D01*
X172505714Y-99110952D01*
X172458095Y-99158571D01*
X172362857Y-99206190D01*
X171981904Y-99206190D01*
X173410476Y-99015714D02*
X173410476Y-99682380D01*
X173172380Y-98634761D02*
X172934285Y-99349047D01*
X173553333Y-99349047D01*
G04 #@! TO.C,R5*
X121753333Y-86642380D02*
X121420000Y-86166190D01*
X121181904Y-86642380D02*
X121181904Y-85642380D01*
X121562857Y-85642380D01*
X121658095Y-85690000D01*
X121705714Y-85737619D01*
X121753333Y-85832857D01*
X121753333Y-85975714D01*
X121705714Y-86070952D01*
X121658095Y-86118571D01*
X121562857Y-86166190D01*
X121181904Y-86166190D01*
X122658095Y-85642380D02*
X122181904Y-85642380D01*
X122134285Y-86118571D01*
X122181904Y-86070952D01*
X122277142Y-86023333D01*
X122515238Y-86023333D01*
X122610476Y-86070952D01*
X122658095Y-86118571D01*
X122705714Y-86213809D01*
X122705714Y-86451904D01*
X122658095Y-86547142D01*
X122610476Y-86594761D01*
X122515238Y-86642380D01*
X122277142Y-86642380D01*
X122181904Y-86594761D01*
X122134285Y-86547142D01*
G04 #@! TO.C,R6*
X121753333Y-104422380D02*
X121420000Y-103946190D01*
X121181904Y-104422380D02*
X121181904Y-103422380D01*
X121562857Y-103422380D01*
X121658095Y-103470000D01*
X121705714Y-103517619D01*
X121753333Y-103612857D01*
X121753333Y-103755714D01*
X121705714Y-103850952D01*
X121658095Y-103898571D01*
X121562857Y-103946190D01*
X121181904Y-103946190D01*
X122610476Y-103422380D02*
X122420000Y-103422380D01*
X122324761Y-103470000D01*
X122277142Y-103517619D01*
X122181904Y-103660476D01*
X122134285Y-103850952D01*
X122134285Y-104231904D01*
X122181904Y-104327142D01*
X122229523Y-104374761D01*
X122324761Y-104422380D01*
X122515238Y-104422380D01*
X122610476Y-104374761D01*
X122658095Y-104327142D01*
X122705714Y-104231904D01*
X122705714Y-103993809D01*
X122658095Y-103898571D01*
X122610476Y-103850952D01*
X122515238Y-103803333D01*
X122324761Y-103803333D01*
X122229523Y-103850952D01*
X122181904Y-103898571D01*
X122134285Y-103993809D01*
G04 #@! TO.C,R7*
X121753333Y-109502380D02*
X121420000Y-109026190D01*
X121181904Y-109502380D02*
X121181904Y-108502380D01*
X121562857Y-108502380D01*
X121658095Y-108550000D01*
X121705714Y-108597619D01*
X121753333Y-108692857D01*
X121753333Y-108835714D01*
X121705714Y-108930952D01*
X121658095Y-108978571D01*
X121562857Y-109026190D01*
X121181904Y-109026190D01*
X122086666Y-108502380D02*
X122753333Y-108502380D01*
X122324761Y-109502380D01*
G04 #@! TO.C,R8*
X121753333Y-114582380D02*
X121420000Y-114106190D01*
X121181904Y-114582380D02*
X121181904Y-113582380D01*
X121562857Y-113582380D01*
X121658095Y-113630000D01*
X121705714Y-113677619D01*
X121753333Y-113772857D01*
X121753333Y-113915714D01*
X121705714Y-114010952D01*
X121658095Y-114058571D01*
X121562857Y-114106190D01*
X121181904Y-114106190D01*
X122324761Y-114010952D02*
X122229523Y-113963333D01*
X122181904Y-113915714D01*
X122134285Y-113820476D01*
X122134285Y-113772857D01*
X122181904Y-113677619D01*
X122229523Y-113630000D01*
X122324761Y-113582380D01*
X122515238Y-113582380D01*
X122610476Y-113630000D01*
X122658095Y-113677619D01*
X122705714Y-113772857D01*
X122705714Y-113820476D01*
X122658095Y-113915714D01*
X122610476Y-113963333D01*
X122515238Y-114010952D01*
X122324761Y-114010952D01*
X122229523Y-114058571D01*
X122181904Y-114106190D01*
X122134285Y-114201428D01*
X122134285Y-114391904D01*
X122181904Y-114487142D01*
X122229523Y-114534761D01*
X122324761Y-114582380D01*
X122515238Y-114582380D01*
X122610476Y-114534761D01*
X122658095Y-114487142D01*
X122705714Y-114391904D01*
X122705714Y-114201428D01*
X122658095Y-114106190D01*
X122610476Y-114058571D01*
X122515238Y-114010952D01*
G04 #@! TO.C,R9*
X172553333Y-109842380D02*
X172220000Y-109366190D01*
X171981904Y-109842380D02*
X171981904Y-108842380D01*
X172362857Y-108842380D01*
X172458095Y-108890000D01*
X172505714Y-108937619D01*
X172553333Y-109032857D01*
X172553333Y-109175714D01*
X172505714Y-109270952D01*
X172458095Y-109318571D01*
X172362857Y-109366190D01*
X171981904Y-109366190D01*
X173029523Y-109842380D02*
X173220000Y-109842380D01*
X173315238Y-109794761D01*
X173362857Y-109747142D01*
X173458095Y-109604285D01*
X173505714Y-109413809D01*
X173505714Y-109032857D01*
X173458095Y-108937619D01*
X173410476Y-108890000D01*
X173315238Y-108842380D01*
X173124761Y-108842380D01*
X173029523Y-108890000D01*
X172981904Y-108937619D01*
X172934285Y-109032857D01*
X172934285Y-109270952D01*
X172981904Y-109366190D01*
X173029523Y-109413809D01*
X173124761Y-109461428D01*
X173315238Y-109461428D01*
X173410476Y-109413809D01*
X173458095Y-109366190D01*
X173505714Y-109270952D01*
G04 #@! TO.C,R10*
X121277142Y-78092380D02*
X120943809Y-77616190D01*
X120705714Y-78092380D02*
X120705714Y-77092380D01*
X121086666Y-77092380D01*
X121181904Y-77140000D01*
X121229523Y-77187619D01*
X121277142Y-77282857D01*
X121277142Y-77425714D01*
X121229523Y-77520952D01*
X121181904Y-77568571D01*
X121086666Y-77616190D01*
X120705714Y-77616190D01*
X122229523Y-78092380D02*
X121658095Y-78092380D01*
X121943809Y-78092380D02*
X121943809Y-77092380D01*
X121848571Y-77235238D01*
X121753333Y-77330476D01*
X121658095Y-77378095D01*
X122848571Y-77092380D02*
X122943809Y-77092380D01*
X123039047Y-77140000D01*
X123086666Y-77187619D01*
X123134285Y-77282857D01*
X123181904Y-77473333D01*
X123181904Y-77711428D01*
X123134285Y-77901904D01*
X123086666Y-77997142D01*
X123039047Y-78044761D01*
X122943809Y-78092380D01*
X122848571Y-78092380D01*
X122753333Y-78044761D01*
X122705714Y-77997142D01*
X122658095Y-77901904D01*
X122610476Y-77711428D01*
X122610476Y-77473333D01*
X122658095Y-77282857D01*
X122705714Y-77187619D01*
X122753333Y-77140000D01*
X122848571Y-77092380D01*
G04 #@! TO.C,R11*
X133977142Y-38722380D02*
X133643809Y-38246190D01*
X133405714Y-38722380D02*
X133405714Y-37722380D01*
X133786666Y-37722380D01*
X133881904Y-37770000D01*
X133929523Y-37817619D01*
X133977142Y-37912857D01*
X133977142Y-38055714D01*
X133929523Y-38150952D01*
X133881904Y-38198571D01*
X133786666Y-38246190D01*
X133405714Y-38246190D01*
X134929523Y-38722380D02*
X134358095Y-38722380D01*
X134643809Y-38722380D02*
X134643809Y-37722380D01*
X134548571Y-37865238D01*
X134453333Y-37960476D01*
X134358095Y-38008095D01*
X135881904Y-38722380D02*
X135310476Y-38722380D01*
X135596190Y-38722380D02*
X135596190Y-37722380D01*
X135500952Y-37865238D01*
X135405714Y-37960476D01*
X135310476Y-38008095D01*
G04 #@! TO.C,R12*
X164452380Y-45092857D02*
X163976190Y-45426190D01*
X164452380Y-45664285D02*
X163452380Y-45664285D01*
X163452380Y-45283333D01*
X163500000Y-45188095D01*
X163547619Y-45140476D01*
X163642857Y-45092857D01*
X163785714Y-45092857D01*
X163880952Y-45140476D01*
X163928571Y-45188095D01*
X163976190Y-45283333D01*
X163976190Y-45664285D01*
X164452380Y-44140476D02*
X164452380Y-44711904D01*
X164452380Y-44426190D02*
X163452380Y-44426190D01*
X163595238Y-44521428D01*
X163690476Y-44616666D01*
X163738095Y-44711904D01*
X163547619Y-43759523D02*
X163500000Y-43711904D01*
X163452380Y-43616666D01*
X163452380Y-43378571D01*
X163500000Y-43283333D01*
X163547619Y-43235714D01*
X163642857Y-43188095D01*
X163738095Y-43188095D01*
X163880952Y-43235714D01*
X164452380Y-43807142D01*
X164452380Y-43188095D01*
G04 #@! TO.C,SW1*
X127174761Y-36893333D02*
X127222380Y-36750476D01*
X127222380Y-36512380D01*
X127174761Y-36417142D01*
X127127142Y-36369523D01*
X127031904Y-36321904D01*
X126936666Y-36321904D01*
X126841428Y-36369523D01*
X126793809Y-36417142D01*
X126746190Y-36512380D01*
X126698571Y-36702857D01*
X126650952Y-36798095D01*
X126603333Y-36845714D01*
X126508095Y-36893333D01*
X126412857Y-36893333D01*
X126317619Y-36845714D01*
X126270000Y-36798095D01*
X126222380Y-36702857D01*
X126222380Y-36464761D01*
X126270000Y-36321904D01*
X126222380Y-35988571D02*
X127222380Y-35750476D01*
X126508095Y-35560000D01*
X127222380Y-35369523D01*
X126222380Y-35131428D01*
X127222380Y-34226666D02*
X127222380Y-34798095D01*
X127222380Y-34512380D02*
X126222380Y-34512380D01*
X126365238Y-34607619D01*
X126460476Y-34702857D01*
X126508095Y-34798095D01*
G04 #@! TO.C,U1*
X131318095Y-68842380D02*
X131318095Y-69651904D01*
X131365714Y-69747142D01*
X131413333Y-69794761D01*
X131508571Y-69842380D01*
X131699047Y-69842380D01*
X131794285Y-69794761D01*
X131841904Y-69747142D01*
X131889523Y-69651904D01*
X131889523Y-68842380D01*
X132889523Y-69842380D02*
X132318095Y-69842380D01*
X132603809Y-69842380D02*
X132603809Y-68842380D01*
X132508571Y-68985238D01*
X132413333Y-69080476D01*
X132318095Y-69128095D01*
G04 #@! TO.C,U2*
X163068095Y-68842380D02*
X163068095Y-69651904D01*
X163115714Y-69747142D01*
X163163333Y-69794761D01*
X163258571Y-69842380D01*
X163449047Y-69842380D01*
X163544285Y-69794761D01*
X163591904Y-69747142D01*
X163639523Y-69651904D01*
X163639523Y-68842380D01*
X164068095Y-68937619D02*
X164115714Y-68890000D01*
X164210952Y-68842380D01*
X164449047Y-68842380D01*
X164544285Y-68890000D01*
X164591904Y-68937619D01*
X164639523Y-69032857D01*
X164639523Y-69128095D01*
X164591904Y-69270952D01*
X164020476Y-69842380D01*
X164639523Y-69842380D01*
G04 #@! TO.C,U3*
X147828095Y-73322380D02*
X147828095Y-74131904D01*
X147875714Y-74227142D01*
X147923333Y-74274761D01*
X148018571Y-74322380D01*
X148209047Y-74322380D01*
X148304285Y-74274761D01*
X148351904Y-74227142D01*
X148399523Y-74131904D01*
X148399523Y-73322380D01*
X148780476Y-73322380D02*
X149399523Y-73322380D01*
X149066190Y-73703333D01*
X149209047Y-73703333D01*
X149304285Y-73750952D01*
X149351904Y-73798571D01*
X149399523Y-73893809D01*
X149399523Y-74131904D01*
X149351904Y-74227142D01*
X149304285Y-74274761D01*
X149209047Y-74322380D01*
X148923333Y-74322380D01*
X148828095Y-74274761D01*
X148780476Y-74227142D01*
G04 #@! TO.C,U4*
X154217380Y-125221904D02*
X155026904Y-125221904D01*
X155122142Y-125174285D01*
X155169761Y-125126666D01*
X155217380Y-125031428D01*
X155217380Y-124840952D01*
X155169761Y-124745714D01*
X155122142Y-124698095D01*
X155026904Y-124650476D01*
X154217380Y-124650476D01*
X154550714Y-123745714D02*
X155217380Y-123745714D01*
X154169761Y-123983809D02*
X154884047Y-124221904D01*
X154884047Y-123602857D01*
G04 #@! TO.C,Y1*
X128531190Y-92016190D02*
X129007380Y-92016190D01*
X128007380Y-92349523D02*
X128531190Y-92016190D01*
X128007380Y-91682857D01*
X129007380Y-90825714D02*
X129007380Y-91397142D01*
X129007380Y-91111428D02*
X128007380Y-91111428D01*
X128150238Y-91206666D01*
X128245476Y-91301904D01*
X128293095Y-91397142D01*
G04 #@! TD*
%LPC*%
D12*
G04 #@! TO.C,C1*
X122460000Y-73660000D03*
D13*
X124460000Y-73660000D03*
G04 #@! TD*
G04 #@! TO.C,C2*
X171450000Y-73660000D03*
D12*
X173450000Y-73660000D03*
G04 #@! TD*
D14*
G04 #@! TO.C,C3*
X116840000Y-77350000D03*
D12*
X116840000Y-69850000D03*
G04 #@! TD*
G04 #@! TO.C,C4*
X179070000Y-77470000D03*
D14*
X179070000Y-69970000D03*
G04 #@! TD*
D12*
G04 #@! TO.C,C5*
X119380000Y-88900000D03*
D14*
X126880000Y-88900000D03*
G04 #@! TD*
G04 #@! TO.C,C6*
X126880000Y-93980000D03*
D12*
X119380000Y-93980000D03*
G04 #@! TD*
G04 #@! TO.C,C7*
X115570000Y-87630000D03*
D14*
X115570000Y-95130000D03*
G04 #@! TD*
D15*
G04 #@! TO.C,D1*
X152400000Y-116840000D03*
D16*
X152400000Y-119380000D03*
G04 #@! TD*
G04 #@! TO.C,D2*
X160020000Y-96520000D03*
D15*
X162560000Y-96520000D03*
G04 #@! TD*
D16*
G04 #@! TO.C,D3*
X160020000Y-106680000D03*
D15*
X162560000Y-106680000D03*
G04 #@! TD*
G04 #@! TO.C,D4*
X162560000Y-101600000D03*
D16*
X160020000Y-101600000D03*
G04 #@! TD*
D15*
G04 #@! TO.C,D5*
X132080000Y-81280000D03*
D16*
X134620000Y-81280000D03*
G04 #@! TD*
D15*
G04 #@! TO.C,D6*
X132080000Y-101600000D03*
D16*
X134620000Y-101600000D03*
G04 #@! TD*
D15*
G04 #@! TO.C,D7*
X132080000Y-106680000D03*
D16*
X134620000Y-106680000D03*
G04 #@! TD*
G04 #@! TO.C,D8*
X134620000Y-111760000D03*
D15*
X132080000Y-111760000D03*
G04 #@! TD*
D16*
G04 #@! TO.C,D9*
X160020000Y-111760000D03*
D15*
X162560000Y-111760000D03*
G04 #@! TD*
D13*
G04 #@! TO.C,D10*
X162560000Y-48260000D03*
D14*
X162560000Y-40640000D03*
G04 #@! TD*
D17*
G04 #@! TO.C,J1*
X124460000Y-45720000D03*
X121920000Y-45720000D03*
D18*
X119380000Y-45720000D03*
G04 #@! TD*
G04 #@! TO.C,J2*
X170815000Y-45720000D03*
D17*
X173355000Y-45720000D03*
X175895000Y-45720000D03*
G04 #@! TD*
G04 #@! TO.C,J3*
X119380000Y-116840000D03*
X121920000Y-116840000D03*
D18*
X124460000Y-116840000D03*
G04 #@! TD*
G04 #@! TO.C,J4*
X175260000Y-116840000D03*
D17*
X172720000Y-116840000D03*
X170180000Y-116840000D03*
G04 #@! TD*
D19*
G04 #@! TO.C,J5*
X104140000Y-38100000D03*
D20*
X111760000Y-38100000D03*
G04 #@! TD*
G04 #@! TO.C,J6*
X190500000Y-38100000D03*
D19*
X182880000Y-38100000D03*
G04 #@! TD*
G04 #@! TO.C,J7*
X111760000Y-124460000D03*
D20*
X104140000Y-124460000D03*
G04 #@! TD*
G04 #@! TO.C,J8*
X182880000Y-124460000D03*
D19*
X190500000Y-124460000D03*
G04 #@! TD*
D18*
G04 #@! TO.C,J9*
X139700000Y-73660000D03*
D17*
X139700000Y-76200000D03*
X139700000Y-78740000D03*
G04 #@! TD*
G04 #@! TO.C,J10*
X156210000Y-78740000D03*
X156210000Y-76200000D03*
D18*
X156210000Y-73660000D03*
G04 #@! TD*
G04 #@! TO.C,J11*
X111760000Y-74930000D03*
D17*
X111760000Y-77470000D03*
X111760000Y-80010000D03*
X111760000Y-82550000D03*
X111760000Y-85090000D03*
X111760000Y-87630000D03*
G04 #@! TD*
D18*
G04 #@! TO.C,J12*
X139700000Y-83820000D03*
D17*
X139700000Y-86360000D03*
X139700000Y-88900000D03*
X139700000Y-91440000D03*
G04 #@! TD*
D20*
G04 #@! TO.C,J13*
X144780000Y-38100000D03*
D19*
X152400000Y-38100000D03*
G04 #@! TD*
D18*
G04 #@! TO.C,J14*
X181610000Y-99060000D03*
D17*
X181610000Y-101600000D03*
X181610000Y-104140000D03*
G04 #@! TD*
D18*
G04 #@! TO.C,J15*
X161290000Y-81280000D03*
D17*
X161290000Y-83820000D03*
X161290000Y-86360000D03*
X161290000Y-88900000D03*
X161290000Y-91440000D03*
G04 #@! TD*
D21*
G04 #@! TO.C,Q1*
X152400000Y-47565000D03*
X151130000Y-47565000D03*
X149860000Y-47565000D03*
X148590000Y-47565000D03*
X147320000Y-47565000D03*
X146050000Y-47565000D03*
X144780000Y-47565000D03*
D22*
X148590000Y-56715000D03*
G04 #@! TD*
D14*
G04 #@! TO.C,R1*
X160020000Y-127000000D03*
D12*
X160020000Y-116840000D03*
G04 #@! TD*
G04 #@! TO.C,R2*
X167640000Y-96520000D03*
D14*
X177800000Y-96520000D03*
G04 #@! TD*
D12*
G04 #@! TO.C,R3*
X167640000Y-106680000D03*
D14*
X177800000Y-106680000D03*
G04 #@! TD*
D12*
G04 #@! TO.C,R4*
X167640000Y-101600000D03*
D14*
X177800000Y-101600000D03*
G04 #@! TD*
G04 #@! TO.C,R5*
X116840000Y-83820000D03*
D12*
X127000000Y-83820000D03*
G04 #@! TD*
G04 #@! TO.C,R6*
X127000000Y-101600000D03*
D14*
X116840000Y-101600000D03*
G04 #@! TD*
D12*
G04 #@! TO.C,R7*
X127000000Y-106680000D03*
D14*
X116840000Y-106680000D03*
G04 #@! TD*
G04 #@! TO.C,R8*
X116840000Y-111760000D03*
D12*
X127000000Y-111760000D03*
G04 #@! TD*
D14*
G04 #@! TO.C,R9*
X177800000Y-111760000D03*
D12*
X167640000Y-111760000D03*
G04 #@! TD*
G04 #@! TO.C,R10*
X116840000Y-80010000D03*
D14*
X127000000Y-80010000D03*
G04 #@! TD*
G04 #@! TO.C,R11*
X139700000Y-40640000D03*
D12*
X129540000Y-40640000D03*
G04 #@! TD*
D14*
G04 #@! TO.C,R12*
X166370000Y-39370000D03*
D12*
X166370000Y-49530000D03*
G04 #@! TD*
D17*
G04 #@! TO.C,SW1*
X134620000Y-35560000D03*
X132080000Y-35560000D03*
D18*
X129540000Y-35560000D03*
G04 #@! TD*
D23*
G04 #@! TO.C,U1*
X129540000Y-73660000D03*
D24*
X132080000Y-73660000D03*
X134620000Y-73660000D03*
G04 #@! TD*
G04 #@! TO.C,U2*
X166370000Y-73660000D03*
X163830000Y-73660000D03*
D23*
X161290000Y-73660000D03*
G04 #@! TD*
D13*
G04 #@! TO.C,U3*
X144780000Y-76200000D03*
D14*
X152400000Y-109220000D03*
X144780000Y-78740000D03*
X152400000Y-106680000D03*
X144780000Y-81280000D03*
X152400000Y-104140000D03*
X144780000Y-83820000D03*
X152400000Y-101600000D03*
X144780000Y-86360000D03*
X152400000Y-99060000D03*
X144780000Y-88900000D03*
X152400000Y-96520000D03*
X144780000Y-91440000D03*
X152400000Y-93980000D03*
X144780000Y-93980000D03*
X152400000Y-91440000D03*
X144780000Y-96520000D03*
X152400000Y-88900000D03*
X144780000Y-99060000D03*
X152400000Y-86360000D03*
X144780000Y-101600000D03*
X152400000Y-83820000D03*
X144780000Y-104140000D03*
X152400000Y-81280000D03*
X144780000Y-106680000D03*
X152400000Y-78740000D03*
X144780000Y-109220000D03*
X152400000Y-76200000D03*
G04 #@! TD*
D25*
G04 #@! TO.C,U4*
X151765000Y-124460000D03*
D26*
X151765000Y-127000000D03*
X149225000Y-124460000D03*
X149225000Y-127000000D03*
X146685000Y-124460000D03*
X146685000Y-127000000D03*
X144145000Y-124460000D03*
X144145000Y-127000000D03*
G04 #@! TD*
D27*
G04 #@! TO.C,Y1*
X132080000Y-93980000D03*
X132080000Y-89100000D03*
G04 #@! TD*
D28*
X132080000Y-76835000D03*
X151130000Y-73660000D03*
X152400000Y-43180000D03*
M02*
