G04 #@! TF.GenerationSoftware,KiCad,Pcbnew,(5.0.2)-1*
G04 #@! TF.CreationDate,2019-02-13T22:33:29-07:00*
G04 #@! TF.ProjectId,Receiver,52656365-6976-4657-922e-6b696361645f,rev?*
G04 #@! TF.SameCoordinates,Original*
G04 #@! TF.FileFunction,Legend,Bot*
G04 #@! TF.FilePolarity,Positive*
%FSLAX46Y46*%
G04 Gerber Fmt 4.6, Leading zero omitted, Abs format (unit mm)*
G04 Created by KiCad (PCBNEW (5.0.2)-1) date 2/13/2019 10:33:29 PM*
%MOMM*%
%LPD*%
G01*
G04 APERTURE LIST*
%ADD10C,1.702000*%
%ADD11R,1.702000X1.702000*%
%ADD12O,1.702000X1.702000*%
%ADD13R,1.902000X1.902000*%
%ADD14C,1.902000*%
%ADD15O,1.802000X1.802000*%
%ADD16R,1.802000X1.802000*%
%ADD17C,6.101480*%
%ADD18R,6.101480X6.101480*%
%ADD19R,2.007000X2.102000*%
%ADD20O,2.007000X2.102000*%
%ADD21R,1.626000X1.626000*%
%ADD22C,1.626000*%
%ADD23C,1.602000*%
%ADD24C,0.902000*%
G04 APERTURE END LIST*
%LPC*%
D10*
G04 #@! TO.C,C1*
X122460000Y-73660000D03*
D11*
X124460000Y-73660000D03*
G04 #@! TD*
G04 #@! TO.C,C2*
X171450000Y-73660000D03*
D10*
X173450000Y-73660000D03*
G04 #@! TD*
D12*
G04 #@! TO.C,C3*
X116840000Y-77350000D03*
D10*
X116840000Y-69850000D03*
G04 #@! TD*
G04 #@! TO.C,C4*
X179070000Y-77470000D03*
D12*
X179070000Y-69970000D03*
G04 #@! TD*
D10*
G04 #@! TO.C,C5*
X119380000Y-88900000D03*
D12*
X126880000Y-88900000D03*
G04 #@! TD*
G04 #@! TO.C,C6*
X126880000Y-93980000D03*
D10*
X119380000Y-93980000D03*
G04 #@! TD*
G04 #@! TO.C,C7*
X115570000Y-87630000D03*
D12*
X115570000Y-95130000D03*
G04 #@! TD*
D13*
G04 #@! TO.C,D1*
X152400000Y-116840000D03*
D14*
X152400000Y-119380000D03*
G04 #@! TD*
G04 #@! TO.C,D2*
X160020000Y-96520000D03*
D13*
X162560000Y-96520000D03*
G04 #@! TD*
D14*
G04 #@! TO.C,D3*
X160020000Y-106680000D03*
D13*
X162560000Y-106680000D03*
G04 #@! TD*
G04 #@! TO.C,D4*
X162560000Y-101600000D03*
D14*
X160020000Y-101600000D03*
G04 #@! TD*
D13*
G04 #@! TO.C,D5*
X132080000Y-81280000D03*
D14*
X134620000Y-81280000D03*
G04 #@! TD*
D13*
G04 #@! TO.C,D6*
X132080000Y-101600000D03*
D14*
X134620000Y-101600000D03*
G04 #@! TD*
D13*
G04 #@! TO.C,D7*
X132080000Y-106680000D03*
D14*
X134620000Y-106680000D03*
G04 #@! TD*
G04 #@! TO.C,D8*
X134620000Y-111760000D03*
D13*
X132080000Y-111760000D03*
G04 #@! TD*
D14*
G04 #@! TO.C,D9*
X160020000Y-111760000D03*
D13*
X162560000Y-111760000D03*
G04 #@! TD*
D11*
G04 #@! TO.C,D10*
X162560000Y-48260000D03*
D12*
X162560000Y-40640000D03*
G04 #@! TD*
D15*
G04 #@! TO.C,J1*
X124460000Y-45720000D03*
X121920000Y-45720000D03*
D16*
X119380000Y-45720000D03*
G04 #@! TD*
G04 #@! TO.C,J2*
X170815000Y-45720000D03*
D15*
X173355000Y-45720000D03*
X175895000Y-45720000D03*
G04 #@! TD*
G04 #@! TO.C,J3*
X119380000Y-116840000D03*
X121920000Y-116840000D03*
D16*
X124460000Y-116840000D03*
G04 #@! TD*
G04 #@! TO.C,J4*
X175260000Y-116840000D03*
D15*
X172720000Y-116840000D03*
X170180000Y-116840000D03*
G04 #@! TD*
D17*
G04 #@! TO.C,J5*
X104140000Y-38100000D03*
D18*
X111760000Y-38100000D03*
G04 #@! TD*
G04 #@! TO.C,J6*
X190500000Y-38100000D03*
D17*
X182880000Y-38100000D03*
G04 #@! TD*
G04 #@! TO.C,J7*
X111760000Y-124460000D03*
D18*
X104140000Y-124460000D03*
G04 #@! TD*
G04 #@! TO.C,J8*
X182880000Y-124460000D03*
D17*
X190500000Y-124460000D03*
G04 #@! TD*
D16*
G04 #@! TO.C,J9*
X139700000Y-73660000D03*
D15*
X139700000Y-76200000D03*
X139700000Y-78740000D03*
G04 #@! TD*
G04 #@! TO.C,J10*
X156210000Y-78740000D03*
X156210000Y-76200000D03*
D16*
X156210000Y-73660000D03*
G04 #@! TD*
G04 #@! TO.C,J11*
X111760000Y-74930000D03*
D15*
X111760000Y-77470000D03*
X111760000Y-80010000D03*
X111760000Y-82550000D03*
X111760000Y-85090000D03*
X111760000Y-87630000D03*
G04 #@! TD*
D16*
G04 #@! TO.C,J12*
X139700000Y-83820000D03*
D15*
X139700000Y-86360000D03*
X139700000Y-88900000D03*
X139700000Y-91440000D03*
G04 #@! TD*
D18*
G04 #@! TO.C,J13*
X144780000Y-38100000D03*
D17*
X152400000Y-38100000D03*
G04 #@! TD*
D16*
G04 #@! TO.C,J14*
X181610000Y-99060000D03*
D15*
X181610000Y-101600000D03*
X181610000Y-104140000D03*
G04 #@! TD*
D16*
G04 #@! TO.C,J15*
X161290000Y-81280000D03*
D15*
X161290000Y-83820000D03*
X161290000Y-86360000D03*
X161290000Y-88900000D03*
X161290000Y-91440000D03*
G04 #@! TD*
D12*
G04 #@! TO.C,R1*
X160020000Y-127000000D03*
D10*
X160020000Y-116840000D03*
G04 #@! TD*
G04 #@! TO.C,R2*
X167640000Y-96520000D03*
D12*
X177800000Y-96520000D03*
G04 #@! TD*
D10*
G04 #@! TO.C,R3*
X167640000Y-106680000D03*
D12*
X177800000Y-106680000D03*
G04 #@! TD*
D10*
G04 #@! TO.C,R4*
X167640000Y-101600000D03*
D12*
X177800000Y-101600000D03*
G04 #@! TD*
G04 #@! TO.C,R5*
X116840000Y-83820000D03*
D10*
X127000000Y-83820000D03*
G04 #@! TD*
G04 #@! TO.C,R6*
X127000000Y-101600000D03*
D12*
X116840000Y-101600000D03*
G04 #@! TD*
D10*
G04 #@! TO.C,R7*
X127000000Y-106680000D03*
D12*
X116840000Y-106680000D03*
G04 #@! TD*
G04 #@! TO.C,R8*
X116840000Y-111760000D03*
D10*
X127000000Y-111760000D03*
G04 #@! TD*
D12*
G04 #@! TO.C,R9*
X177800000Y-111760000D03*
D10*
X167640000Y-111760000D03*
G04 #@! TD*
G04 #@! TO.C,R10*
X116840000Y-80010000D03*
D12*
X127000000Y-80010000D03*
G04 #@! TD*
G04 #@! TO.C,R11*
X139700000Y-40640000D03*
D10*
X129540000Y-40640000D03*
G04 #@! TD*
D12*
G04 #@! TO.C,R12*
X166370000Y-39370000D03*
D10*
X166370000Y-49530000D03*
G04 #@! TD*
D15*
G04 #@! TO.C,SW1*
X134620000Y-35560000D03*
X132080000Y-35560000D03*
D16*
X129540000Y-35560000D03*
G04 #@! TD*
D19*
G04 #@! TO.C,U1*
X129540000Y-73660000D03*
D20*
X132080000Y-73660000D03*
X134620000Y-73660000D03*
G04 #@! TD*
G04 #@! TO.C,U2*
X166370000Y-73660000D03*
X163830000Y-73660000D03*
D19*
X161290000Y-73660000D03*
G04 #@! TD*
D11*
G04 #@! TO.C,U3*
X144780000Y-76200000D03*
D12*
X152400000Y-109220000D03*
X144780000Y-78740000D03*
X152400000Y-106680000D03*
X144780000Y-81280000D03*
X152400000Y-104140000D03*
X144780000Y-83820000D03*
X152400000Y-101600000D03*
X144780000Y-86360000D03*
X152400000Y-99060000D03*
X144780000Y-88900000D03*
X152400000Y-96520000D03*
X144780000Y-91440000D03*
X152400000Y-93980000D03*
X144780000Y-93980000D03*
X152400000Y-91440000D03*
X144780000Y-96520000D03*
X152400000Y-88900000D03*
X144780000Y-99060000D03*
X152400000Y-86360000D03*
X144780000Y-101600000D03*
X152400000Y-83820000D03*
X144780000Y-104140000D03*
X152400000Y-81280000D03*
X144780000Y-106680000D03*
X152400000Y-78740000D03*
X144780000Y-109220000D03*
X152400000Y-76200000D03*
G04 #@! TD*
D21*
G04 #@! TO.C,U4*
X151765000Y-124460000D03*
D22*
X151765000Y-127000000D03*
X149225000Y-124460000D03*
X149225000Y-127000000D03*
X146685000Y-124460000D03*
X146685000Y-127000000D03*
X144145000Y-124460000D03*
X144145000Y-127000000D03*
G04 #@! TD*
D23*
G04 #@! TO.C,Y1*
X132080000Y-93980000D03*
X132080000Y-89100000D03*
G04 #@! TD*
D24*
X132080000Y-76835000D03*
X151130000Y-73660000D03*
X152400000Y-43180000D03*
M02*
