M48
;DRILL file {KiCad (5.0.2)-1} date 2/16/2019 5:11:10 PM
;FORMAT={-:-/ absolute / metric / decimal}
FMAT,2
METRIC,TZ
T1C0.400
T2C0.762
T3C0.800
T4C0.900
T5C1.000
T6C1.100
T7C2.499
T8C3.900
%
G90
G05
T1
X132.08Y-76.835
X140.335Y-43.18
X151.13Y-73.66
X152.4Y-43.18
X154.305Y-97.79
X154.305Y-102.87
T2
X144.145Y-124.46
X144.145Y-127.
X146.685Y-124.46
X146.685Y-127.
X149.225Y-124.46
X149.225Y-127.
X151.765Y-124.46
X151.765Y-127.
T3
X160.02Y-116.84
X160.02Y-127.
X167.64Y-101.6
X177.8Y-101.6
X179.07Y-69.97
X179.07Y-77.47
X119.38Y-80.01
X129.54Y-80.01
X119.126Y-69.342
X119.126Y-76.842
X167.64Y-96.52
X177.8Y-96.52
X162.56Y-40.64
X162.56Y-48.26
X144.78Y-76.2
X144.78Y-78.74
X144.78Y-81.28
X144.78Y-83.82
X144.78Y-86.36
X144.78Y-88.9
X144.78Y-91.44
X144.78Y-93.98
X144.78Y-96.52
X144.78Y-99.06
X144.78Y-101.6
X144.78Y-104.14
X144.78Y-106.68
X144.78Y-109.22
X152.4Y-76.2
X152.4Y-78.74
X152.4Y-81.28
X152.4Y-83.82
X152.4Y-86.36
X152.4Y-88.9
X152.4Y-91.44
X152.4Y-93.98
X152.4Y-96.52
X152.4Y-99.06
X152.4Y-101.6
X152.4Y-104.14
X152.4Y-106.68
X152.4Y-109.22
X171.45Y-73.66
X173.45Y-73.66
X166.37Y-39.37
X166.37Y-49.53
X167.64Y-111.76
X177.8Y-111.76
X132.08Y-89.1
X132.08Y-93.98
X119.38Y-83.82
X129.54Y-83.82
X116.84Y-111.76
X127.Y-111.76
X119.38Y-93.98
X126.88Y-93.98
X122.46Y-73.66
X124.46Y-73.66
X115.57Y-87.63
X115.57Y-95.13
X116.84Y-106.68
X127.Y-106.68
X129.54Y-40.64
X139.7Y-40.64
X119.38Y-88.9
X126.88Y-88.9
X116.84Y-101.6
X127.Y-101.6
X167.64Y-106.68
X177.8Y-106.68
T4
X152.4Y-116.84
X152.4Y-119.38
X160.02Y-101.6
X162.56Y-101.6
X160.02Y-106.68
X162.56Y-106.68
X160.02Y-111.76
X162.56Y-111.76
X132.08Y-106.68
X134.62Y-106.68
X132.08Y-111.76
X134.62Y-111.76
X160.02Y-96.52
X162.56Y-96.52
X132.08Y-81.28
X134.62Y-81.28
X132.08Y-101.6
X134.62Y-101.6
T5
X129.54Y-35.56
X132.08Y-35.56
X134.62Y-35.56
X156.21Y-73.66
X156.21Y-76.2
X156.21Y-78.74
X139.7Y-83.82
X139.7Y-86.36
X139.7Y-88.9
X139.7Y-91.44
X139.7Y-73.66
X139.7Y-76.2
X139.7Y-78.74
X115.316Y-71.628
X115.316Y-74.168
X115.316Y-76.708
X115.316Y-79.248
X115.316Y-81.788
X115.316Y-84.328
X119.38Y-45.72
X121.92Y-45.72
X124.46Y-45.72
X170.18Y-116.84
X172.72Y-116.84
X175.26Y-116.84
X161.29Y-81.28
X161.29Y-83.82
X161.29Y-86.36
X161.29Y-88.9
X161.29Y-91.44
X170.815Y-45.72
X173.355Y-45.72
X175.895Y-45.72
X119.38Y-116.84
X121.92Y-116.84
X124.46Y-116.84
X156.718Y-100.33
X156.718Y-102.87
X156.718Y-105.41
T6
X161.29Y-73.66
X163.83Y-73.66
X166.37Y-73.66
X129.54Y-73.66
X132.08Y-73.66
X134.62Y-73.66
T7
X103.886Y-38.1
X111.506Y-38.1
X182.88Y-124.46
X190.5Y-124.46
X182.88Y-38.1
X190.5Y-38.1
X144.78Y-38.1
X152.4Y-38.1
X104.14Y-124.46
X111.76Y-124.46
T8
X114.3Y-59.055
X134.62Y-122.555
X180.34Y-59.055
T0
M30
