G04 #@! TF.GenerationSoftware,KiCad,Pcbnew,(5.0.2)-1*
G04 #@! TF.CreationDate,2019-02-13T22:33:29-07:00*
G04 #@! TF.ProjectId,Receiver,52656365-6976-4657-922e-6b696361645f,rev?*
G04 #@! TF.SameCoordinates,Original*
G04 #@! TF.FileFunction,Copper,L1,Top*
G04 #@! TF.FilePolarity,Positive*
%FSLAX46Y46*%
G04 Gerber Fmt 4.6, Leading zero omitted, Abs format (unit mm)*
G04 Created by KiCad (PCBNEW (5.0.2)-1) date 2/13/2019 10:33:29 PM*
%MOMM*%
%LPD*%
G01*
G04 APERTURE LIST*
G04 #@! TA.AperFunction,ComponentPad*
%ADD10C,1.600000*%
G04 #@! TD*
G04 #@! TA.AperFunction,ComponentPad*
%ADD11R,1.600000X1.600000*%
G04 #@! TD*
G04 #@! TA.AperFunction,ComponentPad*
%ADD12O,1.600000X1.600000*%
G04 #@! TD*
G04 #@! TA.AperFunction,ComponentPad*
%ADD13R,1.800000X1.800000*%
G04 #@! TD*
G04 #@! TA.AperFunction,ComponentPad*
%ADD14C,1.800000*%
G04 #@! TD*
G04 #@! TA.AperFunction,ComponentPad*
%ADD15O,1.700000X1.700000*%
G04 #@! TD*
G04 #@! TA.AperFunction,ComponentPad*
%ADD16R,1.700000X1.700000*%
G04 #@! TD*
G04 #@! TA.AperFunction,ComponentPad*
%ADD17C,5.999480*%
G04 #@! TD*
G04 #@! TA.AperFunction,ComponentPad*
%ADD18R,5.999480X5.999480*%
G04 #@! TD*
G04 #@! TA.AperFunction,SMDPad,CuDef*
%ADD19R,0.800000X4.600000*%
G04 #@! TD*
G04 #@! TA.AperFunction,SMDPad,CuDef*
%ADD20R,10.800000X9.400000*%
G04 #@! TD*
G04 #@! TA.AperFunction,ComponentPad*
%ADD21R,1.905000X2.000000*%
G04 #@! TD*
G04 #@! TA.AperFunction,ComponentPad*
%ADD22O,1.905000X2.000000*%
G04 #@! TD*
G04 #@! TA.AperFunction,ComponentPad*
%ADD23R,1.524000X1.524000*%
G04 #@! TD*
G04 #@! TA.AperFunction,ComponentPad*
%ADD24C,1.524000*%
G04 #@! TD*
G04 #@! TA.AperFunction,ComponentPad*
%ADD25C,1.500000*%
G04 #@! TD*
G04 #@! TA.AperFunction,ViaPad*
%ADD26C,0.800000*%
G04 #@! TD*
G04 #@! TA.AperFunction,Conductor*
%ADD27C,0.250000*%
G04 #@! TD*
G04 #@! TA.AperFunction,Conductor*
%ADD28C,0.900000*%
G04 #@! TD*
G04 #@! TA.AperFunction,Conductor*
%ADD29C,0.254000*%
G04 #@! TD*
G04 APERTURE END LIST*
D10*
G04 #@! TO.P,C1,2*
G04 #@! TO.N,GND*
X122460000Y-73660000D03*
D11*
G04 #@! TO.P,C1,1*
G04 #@! TO.N,3V3*
X124460000Y-73660000D03*
G04 #@! TD*
G04 #@! TO.P,C2,1*
G04 #@! TO.N,5V*
X171450000Y-73660000D03*
D10*
G04 #@! TO.P,C2,2*
G04 #@! TO.N,GND*
X173450000Y-73660000D03*
G04 #@! TD*
D12*
G04 #@! TO.P,C3,2*
G04 #@! TO.N,GND*
X116840000Y-77350000D03*
D10*
G04 #@! TO.P,C3,1*
G04 #@! TO.N,3V3*
X116840000Y-69850000D03*
G04 #@! TD*
G04 #@! TO.P,C4,1*
G04 #@! TO.N,5V*
X179070000Y-77470000D03*
D12*
G04 #@! TO.P,C4,2*
G04 #@! TO.N,GND*
X179070000Y-69970000D03*
G04 #@! TD*
D10*
G04 #@! TO.P,C5,1*
G04 #@! TO.N,GND*
X119380000Y-88900000D03*
D12*
G04 #@! TO.P,C5,2*
G04 #@! TO.N,Net-(C5-Pad2)*
X126880000Y-88900000D03*
G04 #@! TD*
G04 #@! TO.P,C6,2*
G04 #@! TO.N,Net-(C6-Pad2)*
X126880000Y-93980000D03*
D10*
G04 #@! TO.P,C6,1*
G04 #@! TO.N,GND*
X119380000Y-93980000D03*
G04 #@! TD*
G04 #@! TO.P,C7,1*
G04 #@! TO.N,DTR*
X115570000Y-87630000D03*
D12*
G04 #@! TO.P,C7,2*
G04 #@! TO.N,RST*
X115570000Y-95130000D03*
G04 #@! TD*
D13*
G04 #@! TO.P,D1,1*
G04 #@! TO.N,Net-(D1-Pad1)*
X152400000Y-116840000D03*
D14*
G04 #@! TO.P,D1,2*
G04 #@! TO.N,3V3*
X152400000Y-119380000D03*
G04 #@! TD*
G04 #@! TO.P,D2,2*
G04 #@! TO.N,5V*
X160020000Y-96520000D03*
D13*
G04 #@! TO.P,D2,1*
G04 #@! TO.N,Net-(D2-Pad1)*
X162560000Y-96520000D03*
G04 #@! TD*
D14*
G04 #@! TO.P,D3,2*
G04 #@! TO.N,D10*
X160020000Y-106680000D03*
D13*
G04 #@! TO.P,D3,1*
G04 #@! TO.N,Net-(D3-Pad1)*
X162560000Y-106680000D03*
G04 #@! TD*
G04 #@! TO.P,D4,1*
G04 #@! TO.N,Net-(D4-Pad1)*
X162560000Y-101600000D03*
D14*
G04 #@! TO.P,D4,2*
G04 #@! TO.N,D13*
X160020000Y-101600000D03*
G04 #@! TD*
D13*
G04 #@! TO.P,D5,1*
G04 #@! TO.N,Net-(D5-Pad1)*
X132080000Y-81280000D03*
D14*
G04 #@! TO.P,D5,2*
G04 #@! TO.N,D2*
X134620000Y-81280000D03*
G04 #@! TD*
D13*
G04 #@! TO.P,D6,1*
G04 #@! TO.N,Net-(D6-Pad1)*
X132080000Y-101600000D03*
D14*
G04 #@! TO.P,D6,2*
G04 #@! TO.N,D3*
X134620000Y-101600000D03*
G04 #@! TD*
D13*
G04 #@! TO.P,D7,1*
G04 #@! TO.N,Net-(D7-Pad1)*
X132080000Y-106680000D03*
D14*
G04 #@! TO.P,D7,2*
G04 #@! TO.N,D5*
X134620000Y-106680000D03*
G04 #@! TD*
G04 #@! TO.P,D8,2*
G04 #@! TO.N,D6*
X134620000Y-111760000D03*
D13*
G04 #@! TO.P,D8,1*
G04 #@! TO.N,Net-(D8-Pad1)*
X132080000Y-111760000D03*
G04 #@! TD*
D14*
G04 #@! TO.P,D9,2*
G04 #@! TO.N,D9*
X160020000Y-111760000D03*
D13*
G04 #@! TO.P,D9,1*
G04 #@! TO.N,Net-(D9-Pad1)*
X162560000Y-111760000D03*
G04 #@! TD*
D11*
G04 #@! TO.P,D10,1*
G04 #@! TO.N,Net-(D10-Pad1)*
X162560000Y-48260000D03*
D12*
G04 #@! TO.P,D10,2*
G04 #@! TO.N,Net-(D10-Pad2)*
X162560000Y-40640000D03*
G04 #@! TD*
D15*
G04 #@! TO.P,J1,3*
G04 #@! TO.N,GND*
X124460000Y-45720000D03*
G04 #@! TO.P,J1,2*
G04 #@! TO.N,Net-(J1-Pad2)*
X121920000Y-45720000D03*
D16*
G04 #@! TO.P,J1,1*
G04 #@! TO.N,D3*
X119380000Y-45720000D03*
G04 #@! TD*
G04 #@! TO.P,J2,1*
G04 #@! TO.N,D5*
X170815000Y-45720000D03*
D15*
G04 #@! TO.P,J2,2*
G04 #@! TO.N,Net-(J2-Pad2)*
X173355000Y-45720000D03*
G04 #@! TO.P,J2,3*
G04 #@! TO.N,GND*
X175895000Y-45720000D03*
G04 #@! TD*
G04 #@! TO.P,J3,3*
G04 #@! TO.N,GND*
X119380000Y-116840000D03*
G04 #@! TO.P,J3,2*
G04 #@! TO.N,Net-(J3-Pad2)*
X121920000Y-116840000D03*
D16*
G04 #@! TO.P,J3,1*
G04 #@! TO.N,D6*
X124460000Y-116840000D03*
G04 #@! TD*
G04 #@! TO.P,J4,1*
G04 #@! TO.N,D9*
X175260000Y-116840000D03*
D15*
G04 #@! TO.P,J4,2*
G04 #@! TO.N,Net-(J4-Pad2)*
X172720000Y-116840000D03*
G04 #@! TO.P,J4,3*
G04 #@! TO.N,GND*
X170180000Y-116840000D03*
G04 #@! TD*
D17*
G04 #@! TO.P,J5,2*
G04 #@! TO.N,GND*
X104140000Y-38100000D03*
D18*
G04 #@! TO.P,J5,1*
G04 #@! TO.N,VDD*
X111760000Y-38100000D03*
G04 #@! TD*
G04 #@! TO.P,J6,1*
G04 #@! TO.N,VDD*
X190500000Y-38100000D03*
D17*
G04 #@! TO.P,J6,2*
G04 #@! TO.N,GND*
X182880000Y-38100000D03*
G04 #@! TD*
G04 #@! TO.P,J7,2*
G04 #@! TO.N,GND*
X111760000Y-124460000D03*
D18*
G04 #@! TO.P,J7,1*
G04 #@! TO.N,VDD*
X104140000Y-124460000D03*
G04 #@! TD*
G04 #@! TO.P,J8,1*
G04 #@! TO.N,VDD*
X182880000Y-124460000D03*
D17*
G04 #@! TO.P,J8,2*
G04 #@! TO.N,GND*
X190500000Y-124460000D03*
G04 #@! TD*
D16*
G04 #@! TO.P,J9,1*
G04 #@! TO.N,D2*
X139700000Y-73660000D03*
D15*
G04 #@! TO.P,J9,2*
G04 #@! TO.N,A5*
X139700000Y-76200000D03*
G04 #@! TO.P,J9,3*
G04 #@! TO.N,GND*
X139700000Y-78740000D03*
G04 #@! TD*
G04 #@! TO.P,J10,3*
G04 #@! TO.N,GND*
X156210000Y-78740000D03*
G04 #@! TO.P,J10,2*
G04 #@! TO.N,A4*
X156210000Y-76200000D03*
D16*
G04 #@! TO.P,J10,1*
G04 #@! TO.N,D2*
X156210000Y-73660000D03*
G04 #@! TD*
G04 #@! TO.P,J11,1*
G04 #@! TO.N,GND*
X111760000Y-74930000D03*
D15*
G04 #@! TO.P,J11,2*
G04 #@! TO.N,Net-(J11-Pad2)*
X111760000Y-77470000D03*
G04 #@! TO.P,J11,3*
G04 #@! TO.N,5V*
X111760000Y-80010000D03*
G04 #@! TO.P,J11,4*
G04 #@! TO.N,RX*
X111760000Y-82550000D03*
G04 #@! TO.P,J11,5*
G04 #@! TO.N,TX*
X111760000Y-85090000D03*
G04 #@! TO.P,J11,6*
G04 #@! TO.N,DTR*
X111760000Y-87630000D03*
G04 #@! TD*
D16*
G04 #@! TO.P,J12,1*
G04 #@! TO.N,5V*
X139700000Y-83820000D03*
D15*
G04 #@! TO.P,J12,2*
G04 #@! TO.N,D2*
X139700000Y-86360000D03*
G04 #@! TO.P,J12,3*
G04 #@! TO.N,D4*
X139700000Y-88900000D03*
G04 #@! TO.P,J12,4*
G04 #@! TO.N,GND*
X139700000Y-91440000D03*
G04 #@! TD*
D18*
G04 #@! TO.P,J13,1*
G04 #@! TO.N,VDD*
X144780000Y-38100000D03*
D17*
G04 #@! TO.P,J13,2*
G04 #@! TO.N,Net-(D10-Pad2)*
X152400000Y-38100000D03*
G04 #@! TD*
D16*
G04 #@! TO.P,J14,1*
G04 #@! TO.N,5V*
X181610000Y-99060000D03*
D15*
G04 #@! TO.P,J14,2*
G04 #@! TO.N,D10*
X181610000Y-101600000D03*
G04 #@! TO.P,J14,3*
G04 #@! TO.N,GND*
X181610000Y-104140000D03*
G04 #@! TD*
D16*
G04 #@! TO.P,J15,1*
G04 #@! TO.N,GND*
X161290000Y-81280000D03*
D15*
G04 #@! TO.P,J15,2*
G04 #@! TO.N,A2*
X161290000Y-83820000D03*
G04 #@! TO.P,J15,3*
G04 #@! TO.N,A1*
X161290000Y-86360000D03*
G04 #@! TO.P,J15,4*
G04 #@! TO.N,A0*
X161290000Y-88900000D03*
G04 #@! TO.P,J15,5*
G04 #@! TO.N,5V*
X161290000Y-91440000D03*
G04 #@! TD*
D19*
G04 #@! TO.P,Q1,1*
G04 #@! TO.N,Net-(D10-Pad1)*
X152400000Y-47565000D03*
G04 #@! TO.P,Q1,2*
G04 #@! TO.N,Net-(D10-Pad2)*
X151130000Y-47565000D03*
G04 #@! TO.P,Q1,3*
X149860000Y-47565000D03*
G04 #@! TO.P,Q1,4*
G04 #@! TO.N,GND*
X148590000Y-47565000D03*
G04 #@! TO.P,Q1,5*
G04 #@! TO.N,Net-(D10-Pad2)*
X147320000Y-47565000D03*
G04 #@! TO.P,Q1,6*
X146050000Y-47565000D03*
G04 #@! TO.P,Q1,7*
X144780000Y-47565000D03*
D20*
G04 #@! TO.P,Q1,4*
G04 #@! TO.N,GND*
X148590000Y-56715000D03*
G04 #@! TD*
D12*
G04 #@! TO.P,R1,2*
G04 #@! TO.N,GND*
X160020000Y-127000000D03*
D10*
G04 #@! TO.P,R1,1*
G04 #@! TO.N,Net-(D1-Pad1)*
X160020000Y-116840000D03*
G04 #@! TD*
G04 #@! TO.P,R2,1*
G04 #@! TO.N,Net-(D2-Pad1)*
X167640000Y-96520000D03*
D12*
G04 #@! TO.P,R2,2*
G04 #@! TO.N,GND*
X177800000Y-96520000D03*
G04 #@! TD*
D10*
G04 #@! TO.P,R3,1*
G04 #@! TO.N,Net-(D3-Pad1)*
X167640000Y-106680000D03*
D12*
G04 #@! TO.P,R3,2*
G04 #@! TO.N,GND*
X177800000Y-106680000D03*
G04 #@! TD*
D10*
G04 #@! TO.P,R4,1*
G04 #@! TO.N,Net-(D4-Pad1)*
X167640000Y-101600000D03*
D12*
G04 #@! TO.P,R4,2*
G04 #@! TO.N,GND*
X177800000Y-101600000D03*
G04 #@! TD*
G04 #@! TO.P,R5,2*
G04 #@! TO.N,GND*
X116840000Y-83820000D03*
D10*
G04 #@! TO.P,R5,1*
G04 #@! TO.N,Net-(D5-Pad1)*
X127000000Y-83820000D03*
G04 #@! TD*
G04 #@! TO.P,R6,1*
G04 #@! TO.N,Net-(D6-Pad1)*
X127000000Y-101600000D03*
D12*
G04 #@! TO.P,R6,2*
G04 #@! TO.N,GND*
X116840000Y-101600000D03*
G04 #@! TD*
D10*
G04 #@! TO.P,R7,1*
G04 #@! TO.N,Net-(D7-Pad1)*
X127000000Y-106680000D03*
D12*
G04 #@! TO.P,R7,2*
G04 #@! TO.N,GND*
X116840000Y-106680000D03*
G04 #@! TD*
G04 #@! TO.P,R8,2*
G04 #@! TO.N,GND*
X116840000Y-111760000D03*
D10*
G04 #@! TO.P,R8,1*
G04 #@! TO.N,Net-(D8-Pad1)*
X127000000Y-111760000D03*
G04 #@! TD*
D12*
G04 #@! TO.P,R9,2*
G04 #@! TO.N,GND*
X177800000Y-111760000D03*
D10*
G04 #@! TO.P,R9,1*
G04 #@! TO.N,Net-(D9-Pad1)*
X167640000Y-111760000D03*
G04 #@! TD*
G04 #@! TO.P,R10,1*
G04 #@! TO.N,5V*
X116840000Y-80010000D03*
D12*
G04 #@! TO.P,R10,2*
G04 #@! TO.N,RST*
X127000000Y-80010000D03*
G04 #@! TD*
G04 #@! TO.P,R11,2*
G04 #@! TO.N,VDD*
X139700000Y-40640000D03*
D10*
G04 #@! TO.P,R11,1*
G04 #@! TO.N,Net-(R11-Pad1)*
X129540000Y-40640000D03*
G04 #@! TD*
D12*
G04 #@! TO.P,R12,2*
G04 #@! TO.N,Net-(D10-Pad2)*
X166370000Y-39370000D03*
D10*
G04 #@! TO.P,R12,1*
G04 #@! TO.N,Net-(D10-Pad1)*
X166370000Y-49530000D03*
G04 #@! TD*
D15*
G04 #@! TO.P,SW1,3*
G04 #@! TO.N,Net-(D10-Pad1)*
X134620000Y-35560000D03*
G04 #@! TO.P,SW1,2*
G04 #@! TO.N,Net-(R11-Pad1)*
X132080000Y-35560000D03*
D16*
G04 #@! TO.P,SW1,1*
G04 #@! TO.N,Net-(SW1-Pad1)*
X129540000Y-35560000D03*
G04 #@! TD*
D21*
G04 #@! TO.P,U1,1*
G04 #@! TO.N,VDD*
X129540000Y-73660000D03*
D22*
G04 #@! TO.P,U1,2*
G04 #@! TO.N,GND*
X132080000Y-73660000D03*
G04 #@! TO.P,U1,3*
G04 #@! TO.N,3V3*
X134620000Y-73660000D03*
G04 #@! TD*
G04 #@! TO.P,U2,3*
G04 #@! TO.N,5V*
X166370000Y-73660000D03*
G04 #@! TO.P,U2,2*
G04 #@! TO.N,GND*
X163830000Y-73660000D03*
D21*
G04 #@! TO.P,U2,1*
G04 #@! TO.N,VDD*
X161290000Y-73660000D03*
G04 #@! TD*
D11*
G04 #@! TO.P,U3,1*
G04 #@! TO.N,RST*
X144780000Y-76200000D03*
D12*
G04 #@! TO.P,U3,15*
G04 #@! TO.N,D9*
X152400000Y-109220000D03*
G04 #@! TO.P,U3,2*
G04 #@! TO.N,RX*
X144780000Y-78740000D03*
G04 #@! TO.P,U3,16*
G04 #@! TO.N,D10*
X152400000Y-106680000D03*
G04 #@! TO.P,U3,3*
G04 #@! TO.N,TX*
X144780000Y-81280000D03*
G04 #@! TO.P,U3,17*
G04 #@! TO.N,D11*
X152400000Y-104140000D03*
G04 #@! TO.P,U3,4*
G04 #@! TO.N,D2*
X144780000Y-83820000D03*
G04 #@! TO.P,U3,18*
G04 #@! TO.N,D12*
X152400000Y-101600000D03*
G04 #@! TO.P,U3,5*
G04 #@! TO.N,D3*
X144780000Y-86360000D03*
G04 #@! TO.P,U3,19*
G04 #@! TO.N,D13*
X152400000Y-99060000D03*
G04 #@! TO.P,U3,6*
G04 #@! TO.N,D4*
X144780000Y-88900000D03*
G04 #@! TO.P,U3,20*
G04 #@! TO.N,AVCC*
X152400000Y-96520000D03*
G04 #@! TO.P,U3,7*
G04 #@! TO.N,5V*
X144780000Y-91440000D03*
G04 #@! TO.P,U3,21*
G04 #@! TO.N,AREF*
X152400000Y-93980000D03*
G04 #@! TO.P,U3,8*
G04 #@! TO.N,GND*
X144780000Y-93980000D03*
G04 #@! TO.P,U3,22*
X152400000Y-91440000D03*
G04 #@! TO.P,U3,9*
G04 #@! TO.N,Net-(C5-Pad2)*
X144780000Y-96520000D03*
G04 #@! TO.P,U3,23*
G04 #@! TO.N,A0*
X152400000Y-88900000D03*
G04 #@! TO.P,U3,10*
G04 #@! TO.N,Net-(C6-Pad2)*
X144780000Y-99060000D03*
G04 #@! TO.P,U3,24*
G04 #@! TO.N,A1*
X152400000Y-86360000D03*
G04 #@! TO.P,U3,11*
G04 #@! TO.N,D5*
X144780000Y-101600000D03*
G04 #@! TO.P,U3,25*
G04 #@! TO.N,A2*
X152400000Y-83820000D03*
G04 #@! TO.P,U3,12*
G04 #@! TO.N,D6*
X144780000Y-104140000D03*
G04 #@! TO.P,U3,26*
G04 #@! TO.N,A3*
X152400000Y-81280000D03*
G04 #@! TO.P,U3,13*
G04 #@! TO.N,D7*
X144780000Y-106680000D03*
G04 #@! TO.P,U3,27*
G04 #@! TO.N,A4*
X152400000Y-78740000D03*
G04 #@! TO.P,U3,14*
G04 #@! TO.N,D8*
X144780000Y-109220000D03*
G04 #@! TO.P,U3,28*
G04 #@! TO.N,A5*
X152400000Y-76200000D03*
G04 #@! TD*
D23*
G04 #@! TO.P,U4,1*
G04 #@! TO.N,GND*
X151765000Y-124460000D03*
D24*
G04 #@! TO.P,U4,2*
G04 #@! TO.N,3V3*
X151765000Y-127000000D03*
G04 #@! TO.P,U4,3*
G04 #@! TO.N,D7*
X149225000Y-124460000D03*
G04 #@! TO.P,U4,4*
G04 #@! TO.N,Net-(U4-Pad4)*
X149225000Y-127000000D03*
G04 #@! TO.P,U4,5*
G04 #@! TO.N,D13*
X146685000Y-124460000D03*
G04 #@! TO.P,U4,6*
G04 #@! TO.N,D11*
X146685000Y-127000000D03*
G04 #@! TO.P,U4,7*
G04 #@! TO.N,D12*
X144145000Y-124460000D03*
G04 #@! TO.P,U4,8*
G04 #@! TO.N,D8*
X144145000Y-127000000D03*
G04 #@! TD*
D25*
G04 #@! TO.P,Y1,1*
G04 #@! TO.N,Net-(C6-Pad2)*
X132080000Y-93980000D03*
G04 #@! TO.P,Y1,2*
G04 #@! TO.N,Net-(C5-Pad2)*
X132080000Y-89100000D03*
G04 #@! TD*
D26*
G04 #@! TO.N,GND*
X132080000Y-76835000D03*
G04 #@! TO.N,3V3*
X151130000Y-73660000D03*
G04 #@! TO.N,Net-(D10-Pad1)*
X152400000Y-43180000D03*
G04 #@! TD*
D27*
G04 #@! TO.N,GND*
X148590000Y-47565000D02*
X148590000Y-56715000D01*
X132080000Y-76835000D02*
X132080000Y-73660000D01*
G04 #@! TO.N,3V3*
X152400000Y-119380000D02*
X153670000Y-120650000D01*
X153670000Y-120650000D02*
X153670000Y-125744002D01*
X153176001Y-126238001D02*
X153161999Y-126238001D01*
X153670000Y-125744002D02*
X153176001Y-126238001D01*
X153161999Y-126238001D02*
X152400000Y-127000000D01*
X152400000Y-127000000D02*
X151765000Y-127000000D01*
X152400000Y-119380000D02*
X153625001Y-118154999D01*
X153625001Y-118154999D02*
X153625001Y-112110003D01*
X149860000Y-108345002D02*
X150099998Y-108585000D01*
X153625001Y-112110003D02*
X150099998Y-108585000D01*
X151130000Y-73660000D02*
X150495000Y-74295000D01*
X149860000Y-108345002D02*
X149860000Y-74930000D01*
X149860000Y-74930000D02*
X150495000Y-74295000D01*
G04 #@! TO.N,5V*
X160020000Y-92710000D02*
X160020000Y-96520000D01*
X161290000Y-91440000D02*
X160020000Y-92710000D01*
G04 #@! TO.N,Net-(C5-Pad2)*
X139500000Y-96520000D02*
X144780000Y-96520000D01*
X132080000Y-89100000D02*
X139500000Y-96520000D01*
X131880000Y-88900000D02*
X132080000Y-89100000D01*
X126880000Y-88900000D02*
X131880000Y-88900000D01*
G04 #@! TO.N,Net-(C6-Pad2)*
X137160000Y-99060000D02*
X144780000Y-99060000D01*
X132080000Y-93980000D02*
X137160000Y-99060000D01*
X132080000Y-93980000D02*
X126880000Y-93980000D01*
G04 #@! TO.N,DTR*
X115570000Y-87630000D02*
X111760000Y-87630000D01*
G04 #@! TO.N,Net-(D2-Pad1)*
X162560000Y-96520000D02*
X167640000Y-96520000D01*
G04 #@! TO.N,D10*
X160020000Y-106680000D02*
X152400000Y-106680000D01*
X160020000Y-106680000D02*
X162560000Y-104140000D01*
X179070000Y-104140000D02*
X181610000Y-101600000D01*
X162560000Y-104140000D02*
X179070000Y-104140000D01*
G04 #@! TO.N,Net-(D3-Pad1)*
X162560000Y-106680000D02*
X167640000Y-106680000D01*
G04 #@! TO.N,Net-(D4-Pad1)*
X162560000Y-101600000D02*
X167640000Y-101600000D01*
G04 #@! TO.N,D13*
X154940000Y-101600000D02*
X152400000Y-99060000D01*
X160020000Y-101600000D02*
X154940000Y-101600000D01*
G04 #@! TO.N,Net-(D5-Pad1)*
X132080000Y-82430000D02*
X132080000Y-81280000D01*
X130690000Y-83820000D02*
X132080000Y-82430000D01*
X127000000Y-83820000D02*
X130690000Y-83820000D01*
G04 #@! TO.N,D2*
X134620000Y-80007208D02*
X134620000Y-81280000D01*
X134620000Y-77640000D02*
X134620000Y-80007208D01*
X138600000Y-73660000D02*
X134620000Y-77640000D01*
X139700000Y-73660000D02*
X138600000Y-73660000D01*
X134620000Y-81280000D02*
X139700000Y-86360000D01*
X142240000Y-83820000D02*
X139700000Y-86360000D01*
X144780000Y-83820000D02*
X142240000Y-83820000D01*
G04 #@! TO.N,Net-(D6-Pad1)*
X127000000Y-101600000D02*
X132080000Y-101600000D01*
G04 #@! TO.N,D3*
X119380000Y-46820000D02*
X147490000Y-74930000D01*
X119380000Y-45720000D02*
X119380000Y-46820000D01*
X147490000Y-83650000D02*
X144780000Y-86360000D01*
X147490000Y-74930000D02*
X147490000Y-83650000D01*
G04 #@! TO.N,Net-(D7-Pad1)*
X127000000Y-106680000D02*
X132080000Y-106680000D01*
G04 #@! TO.N,D5*
X139700000Y-106680000D02*
X144780000Y-101600000D01*
X134620000Y-106680000D02*
X139700000Y-106680000D01*
X170815000Y-52070000D02*
X170815000Y-45720000D01*
X147955000Y-74930000D02*
X170815000Y-52070000D01*
X147940009Y-74930000D02*
X147955000Y-74930000D01*
X144780000Y-101600000D02*
X147940009Y-98439991D01*
X147940009Y-98439991D02*
X147940009Y-74930000D01*
G04 #@! TO.N,D6*
X129540000Y-116840000D02*
X134620000Y-111760000D01*
X124460000Y-116840000D02*
X129540000Y-116840000D01*
X137160000Y-111760000D02*
X144780000Y-104140000D01*
X134620000Y-111760000D02*
X137160000Y-111760000D01*
G04 #@! TO.N,Net-(D8-Pad1)*
X127000000Y-111760000D02*
X132080000Y-111760000D01*
G04 #@! TO.N,D9*
X154940000Y-111760000D02*
X152400000Y-109220000D01*
X160020000Y-111760000D02*
X154940000Y-111760000D01*
X160020000Y-111760000D02*
X162560000Y-114300000D01*
X175260000Y-115740000D02*
X175260000Y-116840000D01*
X173820000Y-114300000D02*
X175260000Y-115740000D01*
X162560000Y-114300000D02*
X173820000Y-114300000D01*
G04 #@! TO.N,Net-(D9-Pad1)*
X162560000Y-111760000D02*
X167640000Y-111760000D01*
G04 #@! TO.N,Net-(D10-Pad1)*
X152400000Y-47565000D02*
X152400000Y-45665000D01*
X152400000Y-47565000D02*
X152400000Y-43180000D01*
X152400000Y-43180000D02*
X152400000Y-43180000D01*
D28*
G04 #@! TO.N,Net-(D10-Pad2)*
X144780000Y-47565000D02*
X144780000Y-43180000D01*
X151130000Y-43180000D02*
X151130000Y-47565000D01*
X149860000Y-47565000D02*
X149860000Y-43180000D01*
X149860000Y-43180000D02*
X151130000Y-43180000D01*
X147320000Y-47565000D02*
X147320000Y-43180000D01*
X147320000Y-43180000D02*
X149860000Y-43180000D01*
X146050000Y-47565000D02*
X146050000Y-43180000D01*
X144780000Y-43180000D02*
X146050000Y-43180000D01*
X146050000Y-43180000D02*
X147320000Y-43180000D01*
X151130000Y-39370000D02*
X152400000Y-38100000D01*
X151130000Y-43180000D02*
X151130000Y-39370000D01*
X149860000Y-40640000D02*
X152400000Y-38100000D01*
X149820259Y-41949741D02*
X149860000Y-41910000D01*
X149860000Y-43180000D02*
X149860000Y-41910000D01*
X149860000Y-41910000D02*
X149860000Y-40640000D01*
D27*
G04 #@! TO.N,A4*
X153670000Y-78740000D02*
X156210000Y-76200000D01*
X152400000Y-78740000D02*
X153670000Y-78740000D01*
G04 #@! TO.N,D4*
X139700000Y-88900000D02*
X144780000Y-88900000D01*
G04 #@! TO.N,A2*
X152400000Y-83820000D02*
X161290000Y-83820000D01*
G04 #@! TO.N,A1*
X152400000Y-86360000D02*
X161290000Y-86360000D01*
G04 #@! TO.N,A0*
X152400000Y-88900000D02*
X161290000Y-88900000D01*
G04 #@! TO.N,RST*
X144780000Y-75150000D02*
X144780000Y-76200000D01*
X142114999Y-72484999D02*
X144780000Y-75150000D01*
X138589999Y-72484999D02*
X142114999Y-72484999D01*
X131064998Y-80010000D02*
X138589999Y-72484999D01*
X127000000Y-80010000D02*
X131064998Y-80010000D01*
X115570000Y-93998630D02*
X115570000Y-95130000D01*
X115570000Y-90170000D02*
X115570000Y-93998630D01*
X125730000Y-80010000D02*
X115570000Y-90170000D01*
X127000000Y-80010000D02*
X125730000Y-80010000D01*
G04 #@! TO.N,D7*
X149225000Y-111125000D02*
X149225000Y-124460000D01*
X144780000Y-106680000D02*
X149225000Y-111125000D01*
G04 #@! TO.N,D8*
X144780000Y-109220000D02*
X142240000Y-111760000D01*
X142240000Y-125095000D02*
X144145000Y-127000000D01*
X142240000Y-111760000D02*
X142240000Y-125095000D01*
G04 #@! TD*
D29*
G04 #@! TO.N,GND*
G36*
X137033000Y-52070000D02*
X137042667Y-52118601D01*
X137070197Y-52159803D01*
X137111399Y-52187333D01*
X137160000Y-52197000D01*
X142555000Y-52197000D01*
X142555000Y-54206250D01*
X142713750Y-54365000D01*
X145890000Y-54365000D01*
X145890000Y-52822000D01*
X151290000Y-52822000D01*
X151290000Y-54365000D01*
X154466250Y-54365000D01*
X154625000Y-54206250D01*
X154625000Y-52197000D01*
X160020000Y-52197000D01*
X160068601Y-52187333D01*
X160109803Y-52159803D01*
X160137333Y-52118601D01*
X160147000Y-52070000D01*
X160147000Y-47460000D01*
X160814839Y-47460000D01*
X160814839Y-49060000D01*
X160886785Y-49421697D01*
X161091670Y-49728330D01*
X161398303Y-49933215D01*
X161760000Y-50005161D01*
X163360000Y-50005161D01*
X163721697Y-49933215D01*
X164028330Y-49728330D01*
X164233215Y-49421697D01*
X164280002Y-49186478D01*
X164643000Y-49186478D01*
X164643000Y-49873522D01*
X164905920Y-50508267D01*
X165391733Y-50994080D01*
X166026478Y-51257000D01*
X166713522Y-51257000D01*
X167348267Y-50994080D01*
X167834080Y-50508267D01*
X168097000Y-49873522D01*
X168097000Y-49186478D01*
X167834080Y-48551733D01*
X167348267Y-48065920D01*
X166713522Y-47803000D01*
X166026478Y-47803000D01*
X165391733Y-48065920D01*
X164905920Y-48551733D01*
X164643000Y-49186478D01*
X164280002Y-49186478D01*
X164305161Y-49060000D01*
X164305161Y-47460000D01*
X164233215Y-47098303D01*
X164028330Y-46791670D01*
X163721697Y-46586785D01*
X163360000Y-46514839D01*
X161760000Y-46514839D01*
X161398303Y-46586785D01*
X161091670Y-46791670D01*
X160886785Y-47098303D01*
X160814839Y-47460000D01*
X160147000Y-47460000D01*
X160147000Y-40640000D01*
X160799167Y-40640000D01*
X160933202Y-41313842D01*
X161314903Y-41885097D01*
X161886158Y-42266798D01*
X162389909Y-42367000D01*
X162730091Y-42367000D01*
X163233842Y-42266798D01*
X163805097Y-41885097D01*
X164186798Y-41313842D01*
X164320833Y-40640000D01*
X164186798Y-39966158D01*
X163805097Y-39394903D01*
X163767828Y-39370000D01*
X164609167Y-39370000D01*
X164743202Y-40043842D01*
X165124903Y-40615097D01*
X165696158Y-40996798D01*
X166199909Y-41097000D01*
X166540091Y-41097000D01*
X167043842Y-40996798D01*
X167493354Y-40696443D01*
X180463162Y-40696443D01*
X180805723Y-41171063D01*
X182138863Y-41731084D01*
X183584834Y-41738305D01*
X184923501Y-41191627D01*
X184954277Y-41171063D01*
X185296838Y-40696443D01*
X182880000Y-38279605D01*
X180463162Y-40696443D01*
X167493354Y-40696443D01*
X167615097Y-40615097D01*
X167996798Y-40043842D01*
X168130833Y-39370000D01*
X168018415Y-38804834D01*
X179241695Y-38804834D01*
X179788373Y-40143501D01*
X179808937Y-40174277D01*
X180283557Y-40516838D01*
X182700395Y-38100000D01*
X183059605Y-38100000D01*
X185476443Y-40516838D01*
X185951063Y-40174277D01*
X186511084Y-38841137D01*
X186518305Y-37395166D01*
X185971627Y-36056499D01*
X185951063Y-36025723D01*
X185476443Y-35683162D01*
X183059605Y-38100000D01*
X182700395Y-38100000D01*
X180283557Y-35683162D01*
X179808937Y-36025723D01*
X179248916Y-37358863D01*
X179241695Y-38804834D01*
X168018415Y-38804834D01*
X167996798Y-38696158D01*
X167615097Y-38124903D01*
X167043842Y-37743202D01*
X166540091Y-37643000D01*
X166199909Y-37643000D01*
X165696158Y-37743202D01*
X165124903Y-38124903D01*
X164743202Y-38696158D01*
X164609167Y-39370000D01*
X163767828Y-39370000D01*
X163233842Y-39013202D01*
X162730091Y-38913000D01*
X162389909Y-38913000D01*
X161886158Y-39013202D01*
X161314903Y-39394903D01*
X160933202Y-39966158D01*
X160799167Y-40640000D01*
X160147000Y-40640000D01*
X160147000Y-35503557D01*
X180463162Y-35503557D01*
X182880000Y-37920395D01*
X185296838Y-35503557D01*
X185005755Y-35100260D01*
X186555099Y-35100260D01*
X186555099Y-41099740D01*
X186627045Y-41461437D01*
X186831930Y-41768070D01*
X187138563Y-41972955D01*
X187500260Y-42044901D01*
X193499740Y-42044901D01*
X193861437Y-41972955D01*
X194168070Y-41768070D01*
X194372955Y-41461437D01*
X194444901Y-41099740D01*
X194444901Y-35100260D01*
X194372955Y-34738563D01*
X194168070Y-34431930D01*
X193861437Y-34227045D01*
X193499740Y-34155099D01*
X187500260Y-34155099D01*
X187138563Y-34227045D01*
X186831930Y-34431930D01*
X186627045Y-34738563D01*
X186555099Y-35100260D01*
X185005755Y-35100260D01*
X184954277Y-35028937D01*
X183621137Y-34468916D01*
X182175166Y-34461695D01*
X180836499Y-35008373D01*
X180805723Y-35028937D01*
X180463162Y-35503557D01*
X160147000Y-35503557D01*
X160147000Y-33730000D01*
X194870000Y-33730000D01*
X194870001Y-128830000D01*
X99770000Y-128830000D01*
X99770000Y-121460260D01*
X100195099Y-121460260D01*
X100195099Y-127459740D01*
X100267045Y-127821437D01*
X100471930Y-128128070D01*
X100778563Y-128332955D01*
X101140260Y-128404901D01*
X107139740Y-128404901D01*
X107501437Y-128332955D01*
X107808070Y-128128070D01*
X108012955Y-127821437D01*
X108084901Y-127459740D01*
X108084901Y-127056443D01*
X109343162Y-127056443D01*
X109685723Y-127531063D01*
X111018863Y-128091084D01*
X112464834Y-128098305D01*
X113803501Y-127551627D01*
X113834277Y-127531063D01*
X114176838Y-127056443D01*
X111760000Y-124639605D01*
X109343162Y-127056443D01*
X108084901Y-127056443D01*
X108084901Y-125164834D01*
X108121695Y-125164834D01*
X108668373Y-126503501D01*
X108688937Y-126534277D01*
X109163557Y-126876838D01*
X111580395Y-124460000D01*
X111939605Y-124460000D01*
X114356443Y-126876838D01*
X114831063Y-126534277D01*
X115391084Y-125201137D01*
X115398305Y-123755166D01*
X114851627Y-122416499D01*
X114831063Y-122385723D01*
X114356443Y-122043162D01*
X111939605Y-124460000D01*
X111580395Y-124460000D01*
X109163557Y-122043162D01*
X108688937Y-122385723D01*
X108128916Y-123718863D01*
X108121695Y-125164834D01*
X108084901Y-125164834D01*
X108084901Y-121863557D01*
X109343162Y-121863557D01*
X111760000Y-124280395D01*
X114176838Y-121863557D01*
X113834277Y-121388937D01*
X112501137Y-120828916D01*
X111055166Y-120821695D01*
X109716499Y-121368373D01*
X109685723Y-121388937D01*
X109343162Y-121863557D01*
X108084901Y-121863557D01*
X108084901Y-121460260D01*
X108012955Y-121098563D01*
X107808070Y-120791930D01*
X107501437Y-120587045D01*
X107139740Y-120515099D01*
X101140260Y-120515099D01*
X100778563Y-120587045D01*
X100471930Y-120791930D01*
X100267045Y-121098563D01*
X100195099Y-121460260D01*
X99770000Y-121460260D01*
X99770000Y-117196892D01*
X117938514Y-117196892D01*
X118184817Y-117721358D01*
X118613076Y-118111645D01*
X119023110Y-118281476D01*
X119253000Y-118160155D01*
X119253000Y-116967000D01*
X118059181Y-116967000D01*
X117938514Y-117196892D01*
X99770000Y-117196892D01*
X99770000Y-116483108D01*
X117938514Y-116483108D01*
X118059181Y-116713000D01*
X119253000Y-116713000D01*
X119253000Y-115519845D01*
X119023110Y-115398524D01*
X118613076Y-115568355D01*
X118184817Y-115958642D01*
X117938514Y-116483108D01*
X99770000Y-116483108D01*
X99770000Y-112109039D01*
X115448096Y-112109039D01*
X115608959Y-112497423D01*
X115984866Y-112912389D01*
X116490959Y-113151914D01*
X116713000Y-113030629D01*
X116713000Y-111887000D01*
X116967000Y-111887000D01*
X116967000Y-113030629D01*
X117189041Y-113151914D01*
X117695134Y-112912389D01*
X118071041Y-112497423D01*
X118231904Y-112109039D01*
X118109915Y-111887000D01*
X116967000Y-111887000D01*
X116713000Y-111887000D01*
X115570085Y-111887000D01*
X115448096Y-112109039D01*
X99770000Y-112109039D01*
X99770000Y-111410961D01*
X115448096Y-111410961D01*
X115570085Y-111633000D01*
X116713000Y-111633000D01*
X116713000Y-110489371D01*
X116967000Y-110489371D01*
X116967000Y-111633000D01*
X118109915Y-111633000D01*
X118231904Y-111410961D01*
X118071041Y-111022577D01*
X117695134Y-110607611D01*
X117189041Y-110368086D01*
X116967000Y-110489371D01*
X116713000Y-110489371D01*
X116490959Y-110368086D01*
X115984866Y-110607611D01*
X115608959Y-111022577D01*
X115448096Y-111410961D01*
X99770000Y-111410961D01*
X99770000Y-107029039D01*
X115448096Y-107029039D01*
X115608959Y-107417423D01*
X115984866Y-107832389D01*
X116490959Y-108071914D01*
X116713000Y-107950629D01*
X116713000Y-106807000D01*
X116967000Y-106807000D01*
X116967000Y-107950629D01*
X117189041Y-108071914D01*
X117695134Y-107832389D01*
X118071041Y-107417423D01*
X118231904Y-107029039D01*
X118109915Y-106807000D01*
X116967000Y-106807000D01*
X116713000Y-106807000D01*
X115570085Y-106807000D01*
X115448096Y-107029039D01*
X99770000Y-107029039D01*
X99770000Y-106330961D01*
X115448096Y-106330961D01*
X115570085Y-106553000D01*
X116713000Y-106553000D01*
X116713000Y-105409371D01*
X116967000Y-105409371D01*
X116967000Y-106553000D01*
X118109915Y-106553000D01*
X118231904Y-106330961D01*
X118071041Y-105942577D01*
X117695134Y-105527611D01*
X117189041Y-105288086D01*
X116967000Y-105409371D01*
X116713000Y-105409371D01*
X116490959Y-105288086D01*
X115984866Y-105527611D01*
X115608959Y-105942577D01*
X115448096Y-106330961D01*
X99770000Y-106330961D01*
X99770000Y-101949039D01*
X115448096Y-101949039D01*
X115608959Y-102337423D01*
X115984866Y-102752389D01*
X116490959Y-102991914D01*
X116713000Y-102870629D01*
X116713000Y-101727000D01*
X116967000Y-101727000D01*
X116967000Y-102870629D01*
X117189041Y-102991914D01*
X117695134Y-102752389D01*
X118071041Y-102337423D01*
X118231904Y-101949039D01*
X118109915Y-101727000D01*
X116967000Y-101727000D01*
X116713000Y-101727000D01*
X115570085Y-101727000D01*
X115448096Y-101949039D01*
X99770000Y-101949039D01*
X99770000Y-101250961D01*
X115448096Y-101250961D01*
X115570085Y-101473000D01*
X116713000Y-101473000D01*
X116713000Y-100329371D01*
X116967000Y-100329371D01*
X116967000Y-101473000D01*
X118109915Y-101473000D01*
X118228872Y-101256478D01*
X125273000Y-101256478D01*
X125273000Y-101943522D01*
X125535920Y-102578267D01*
X126021733Y-103064080D01*
X126656478Y-103327000D01*
X127343522Y-103327000D01*
X127978267Y-103064080D01*
X128390347Y-102652000D01*
X130265074Y-102652000D01*
X130306785Y-102861697D01*
X130511670Y-103168330D01*
X130818303Y-103373215D01*
X131180000Y-103445161D01*
X132980000Y-103445161D01*
X133341697Y-103373215D01*
X133642120Y-103172479D01*
X134256587Y-103427000D01*
X134983413Y-103427000D01*
X135654912Y-103148856D01*
X136168856Y-102634912D01*
X136447000Y-101963413D01*
X136447000Y-101236587D01*
X136168856Y-100565088D01*
X135654912Y-100051144D01*
X134983413Y-99773000D01*
X134256587Y-99773000D01*
X133642120Y-100027521D01*
X133341697Y-99826785D01*
X132980000Y-99754839D01*
X131180000Y-99754839D01*
X130818303Y-99826785D01*
X130511670Y-100031670D01*
X130306785Y-100338303D01*
X130265074Y-100548000D01*
X128390347Y-100548000D01*
X127978267Y-100135920D01*
X127343522Y-99873000D01*
X126656478Y-99873000D01*
X126021733Y-100135920D01*
X125535920Y-100621733D01*
X125273000Y-101256478D01*
X118228872Y-101256478D01*
X118231904Y-101250961D01*
X118071041Y-100862577D01*
X117695134Y-100447611D01*
X117189041Y-100208086D01*
X116967000Y-100329371D01*
X116713000Y-100329371D01*
X116490959Y-100208086D01*
X115984866Y-100447611D01*
X115608959Y-100862577D01*
X115448096Y-101250961D01*
X99770000Y-101250961D01*
X99770000Y-77470000D01*
X109948187Y-77470000D01*
X110086103Y-78163351D01*
X110471408Y-78740000D01*
X110086103Y-79316649D01*
X109948187Y-80010000D01*
X110086103Y-80703351D01*
X110471408Y-81280000D01*
X110086103Y-81856649D01*
X109948187Y-82550000D01*
X110086103Y-83243351D01*
X110471408Y-83820000D01*
X110086103Y-84396649D01*
X109948187Y-85090000D01*
X110086103Y-85783351D01*
X110471408Y-86360000D01*
X110086103Y-86936649D01*
X109948187Y-87630000D01*
X110086103Y-88323351D01*
X110478855Y-88911145D01*
X111066649Y-89303897D01*
X111584983Y-89407000D01*
X111935017Y-89407000D01*
X112453351Y-89303897D01*
X113041145Y-88911145D01*
X113194255Y-88682000D01*
X114179653Y-88682000D01*
X114591733Y-89094080D01*
X114992264Y-89259985D01*
X114899391Y-89352858D01*
X114811551Y-89411551D01*
X114579038Y-89759531D01*
X114518000Y-90066392D01*
X114518000Y-90066395D01*
X114497392Y-90170000D01*
X114518000Y-90273605D01*
X114518001Y-93755879D01*
X114324903Y-93884903D01*
X113943202Y-94456158D01*
X113809167Y-95130000D01*
X113943202Y-95803842D01*
X114324903Y-96375097D01*
X114896158Y-96756798D01*
X115399909Y-96857000D01*
X115740091Y-96857000D01*
X116243842Y-96756798D01*
X116815097Y-96375097D01*
X117196798Y-95803842D01*
X117330833Y-95130000D01*
X117302537Y-94987745D01*
X118551861Y-94987745D01*
X118625995Y-95233864D01*
X119163223Y-95426965D01*
X119733454Y-95399778D01*
X120134005Y-95233864D01*
X120208139Y-94987745D01*
X119380000Y-94159605D01*
X118551861Y-94987745D01*
X117302537Y-94987745D01*
X117196798Y-94456158D01*
X116815097Y-93884903D01*
X116632990Y-93763223D01*
X117933035Y-93763223D01*
X117960222Y-94333454D01*
X118126136Y-94734005D01*
X118372255Y-94808139D01*
X119200395Y-93980000D01*
X119559605Y-93980000D01*
X120387745Y-94808139D01*
X120633864Y-94734005D01*
X120826965Y-94196777D01*
X120799778Y-93626546D01*
X120633864Y-93225995D01*
X120387745Y-93151861D01*
X119559605Y-93980000D01*
X119200395Y-93980000D01*
X118372255Y-93151861D01*
X118126136Y-93225995D01*
X117933035Y-93763223D01*
X116632990Y-93763223D01*
X116622000Y-93755880D01*
X116622000Y-92972255D01*
X118551861Y-92972255D01*
X119380000Y-93800395D01*
X120208139Y-92972255D01*
X120134005Y-92726136D01*
X119596777Y-92533035D01*
X119026546Y-92560222D01*
X118625995Y-92726136D01*
X118551861Y-92972255D01*
X116622000Y-92972255D01*
X116622000Y-90605751D01*
X117320006Y-89907745D01*
X118551861Y-89907745D01*
X118625995Y-90153864D01*
X119163223Y-90346965D01*
X119733454Y-90319778D01*
X120134005Y-90153864D01*
X120208139Y-89907745D01*
X119380000Y-89079605D01*
X118551861Y-89907745D01*
X117320006Y-89907745D01*
X117964345Y-89263407D01*
X118126136Y-89654005D01*
X118372255Y-89728139D01*
X119200395Y-88900000D01*
X119559605Y-88900000D01*
X120387745Y-89728139D01*
X120633864Y-89654005D01*
X120826965Y-89116777D01*
X120799778Y-88546546D01*
X120633864Y-88145995D01*
X120387745Y-88071861D01*
X119559605Y-88900000D01*
X119200395Y-88900000D01*
X119186252Y-88885858D01*
X119365858Y-88706252D01*
X119380000Y-88720395D01*
X120208139Y-87892255D01*
X120134005Y-87646136D01*
X119727669Y-87500083D01*
X125885436Y-81342317D01*
X126326158Y-81636798D01*
X126829909Y-81737000D01*
X127170091Y-81737000D01*
X127673842Y-81636798D01*
X128245097Y-81255097D01*
X128374120Y-81062000D01*
X130234839Y-81062000D01*
X130234839Y-82180000D01*
X130306785Y-82541697D01*
X130376386Y-82645862D01*
X130254249Y-82768000D01*
X128390347Y-82768000D01*
X127978267Y-82355920D01*
X127343522Y-82093000D01*
X126656478Y-82093000D01*
X126021733Y-82355920D01*
X125535920Y-82841733D01*
X125273000Y-83476478D01*
X125273000Y-84163522D01*
X125535920Y-84798267D01*
X126021733Y-85284080D01*
X126656478Y-85547000D01*
X127343522Y-85547000D01*
X127978267Y-85284080D01*
X128390347Y-84872000D01*
X130586395Y-84872000D01*
X130690000Y-84892608D01*
X130793605Y-84872000D01*
X130793609Y-84872000D01*
X131100470Y-84810962D01*
X131448449Y-84578449D01*
X131507142Y-84490609D01*
X132750615Y-83247138D01*
X132838449Y-83188449D01*
X132880737Y-83125161D01*
X132980000Y-83125161D01*
X133341697Y-83053215D01*
X133642120Y-82852479D01*
X134256587Y-83107000D01*
X134959249Y-83107000D01*
X137941952Y-86089705D01*
X137888187Y-86360000D01*
X138026103Y-87053351D01*
X138411408Y-87630000D01*
X138026103Y-88206649D01*
X137888187Y-88900000D01*
X138026103Y-89593351D01*
X138418855Y-90181145D01*
X138703399Y-90371272D01*
X138428355Y-90673076D01*
X138258524Y-91083110D01*
X138379845Y-91313000D01*
X139573000Y-91313000D01*
X139573000Y-91293000D01*
X139827000Y-91293000D01*
X139827000Y-91313000D01*
X141020155Y-91313000D01*
X141141476Y-91083110D01*
X140971645Y-90673076D01*
X140696601Y-90371272D01*
X140981145Y-90181145D01*
X141134255Y-89952000D01*
X143405880Y-89952000D01*
X143534903Y-90145097D01*
X143572173Y-90170000D01*
X143534903Y-90194903D01*
X143153202Y-90766158D01*
X143019167Y-91440000D01*
X143153202Y-92113842D01*
X143534903Y-92685097D01*
X143858249Y-92901150D01*
X143548959Y-93242577D01*
X143388096Y-93630961D01*
X143510085Y-93853000D01*
X144653000Y-93853000D01*
X144653000Y-93833000D01*
X144907000Y-93833000D01*
X144907000Y-93853000D01*
X146049915Y-93853000D01*
X146171904Y-93630961D01*
X146011041Y-93242577D01*
X145701751Y-92901150D01*
X146025097Y-92685097D01*
X146406798Y-92113842D01*
X146540833Y-91440000D01*
X146406798Y-90766158D01*
X146025097Y-90194903D01*
X145987827Y-90170000D01*
X146025097Y-90145097D01*
X146406798Y-89573842D01*
X146540833Y-88900000D01*
X146406798Y-88226158D01*
X146025097Y-87654903D01*
X145987827Y-87630000D01*
X146025097Y-87605097D01*
X146406798Y-87033842D01*
X146540833Y-86360000D01*
X146495526Y-86132226D01*
X146888010Y-85739742D01*
X146888009Y-98004238D01*
X146423271Y-98468976D01*
X146406798Y-98386158D01*
X146025097Y-97814903D01*
X145987827Y-97790000D01*
X146025097Y-97765097D01*
X146406798Y-97193842D01*
X146540833Y-96520000D01*
X146406798Y-95846158D01*
X146025097Y-95274903D01*
X145701751Y-95058850D01*
X146011041Y-94717423D01*
X146171904Y-94329039D01*
X146049915Y-94107000D01*
X144907000Y-94107000D01*
X144907000Y-94127000D01*
X144653000Y-94127000D01*
X144653000Y-94107000D01*
X143510085Y-94107000D01*
X143388096Y-94329039D01*
X143548959Y-94717423D01*
X143858249Y-95058850D01*
X143534903Y-95274903D01*
X143405880Y-95468000D01*
X139935753Y-95468000D01*
X136264642Y-91796890D01*
X138258524Y-91796890D01*
X138428355Y-92206924D01*
X138818642Y-92635183D01*
X139343108Y-92881486D01*
X139573000Y-92760819D01*
X139573000Y-91567000D01*
X139827000Y-91567000D01*
X139827000Y-92760819D01*
X140056892Y-92881486D01*
X140581358Y-92635183D01*
X140971645Y-92206924D01*
X141141476Y-91796890D01*
X141020155Y-91567000D01*
X139827000Y-91567000D01*
X139573000Y-91567000D01*
X138379845Y-91567000D01*
X138258524Y-91796890D01*
X136264642Y-91796890D01*
X133757000Y-89289249D01*
X133757000Y-88766424D01*
X133501692Y-88150056D01*
X133029944Y-87678308D01*
X132413576Y-87423000D01*
X131746424Y-87423000D01*
X131130056Y-87678308D01*
X130960364Y-87848000D01*
X128254120Y-87848000D01*
X128125097Y-87654903D01*
X127553842Y-87273202D01*
X127050091Y-87173000D01*
X126709909Y-87173000D01*
X126206158Y-87273202D01*
X125634903Y-87654903D01*
X125253202Y-88226158D01*
X125119167Y-88900000D01*
X125253202Y-89573842D01*
X125634903Y-90145097D01*
X126206158Y-90526798D01*
X126709909Y-90627000D01*
X127050091Y-90627000D01*
X127553842Y-90526798D01*
X128125097Y-90145097D01*
X128254120Y-89952000D01*
X130617738Y-89952000D01*
X130658308Y-90049944D01*
X131130056Y-90521692D01*
X131746424Y-90777000D01*
X132269249Y-90777000D01*
X138682862Y-97190615D01*
X138741551Y-97278449D01*
X138829385Y-97337138D01*
X138829386Y-97337139D01*
X139089530Y-97510962D01*
X139500000Y-97592609D01*
X139603609Y-97572000D01*
X143405880Y-97572000D01*
X143534903Y-97765097D01*
X143572173Y-97790000D01*
X143534903Y-97814903D01*
X143405880Y-98008000D01*
X137595753Y-98008000D01*
X133757000Y-94169249D01*
X133757000Y-93646424D01*
X133501692Y-93030056D01*
X133029944Y-92558308D01*
X132413576Y-92303000D01*
X131746424Y-92303000D01*
X131130056Y-92558308D01*
X130760364Y-92928000D01*
X128254120Y-92928000D01*
X128125097Y-92734903D01*
X127553842Y-92353202D01*
X127050091Y-92253000D01*
X126709909Y-92253000D01*
X126206158Y-92353202D01*
X125634903Y-92734903D01*
X125253202Y-93306158D01*
X125119167Y-93980000D01*
X125253202Y-94653842D01*
X125634903Y-95225097D01*
X126206158Y-95606798D01*
X126709909Y-95707000D01*
X127050091Y-95707000D01*
X127553842Y-95606798D01*
X128125097Y-95225097D01*
X128254120Y-95032000D01*
X130760364Y-95032000D01*
X131130056Y-95401692D01*
X131746424Y-95657000D01*
X132269249Y-95657000D01*
X136342862Y-99730615D01*
X136401551Y-99818449D01*
X136749530Y-100050962D01*
X137056391Y-100112000D01*
X137056395Y-100112000D01*
X137160000Y-100132608D01*
X137263605Y-100112000D01*
X143405880Y-100112000D01*
X143534903Y-100305097D01*
X143572173Y-100330000D01*
X143534903Y-100354903D01*
X143153202Y-100926158D01*
X143019167Y-101600000D01*
X143064474Y-101827774D01*
X139264249Y-105628000D01*
X136151768Y-105628000D01*
X135654912Y-105131144D01*
X134983413Y-104853000D01*
X134256587Y-104853000D01*
X133642120Y-105107521D01*
X133341697Y-104906785D01*
X132980000Y-104834839D01*
X131180000Y-104834839D01*
X130818303Y-104906785D01*
X130511670Y-105111670D01*
X130306785Y-105418303D01*
X130265074Y-105628000D01*
X128390347Y-105628000D01*
X127978267Y-105215920D01*
X127343522Y-104953000D01*
X126656478Y-104953000D01*
X126021733Y-105215920D01*
X125535920Y-105701733D01*
X125273000Y-106336478D01*
X125273000Y-107023522D01*
X125535920Y-107658267D01*
X126021733Y-108144080D01*
X126656478Y-108407000D01*
X127343522Y-108407000D01*
X127978267Y-108144080D01*
X128390347Y-107732000D01*
X130265074Y-107732000D01*
X130306785Y-107941697D01*
X130511670Y-108248330D01*
X130818303Y-108453215D01*
X131180000Y-108525161D01*
X132980000Y-108525161D01*
X133341697Y-108453215D01*
X133642120Y-108252479D01*
X134256587Y-108507000D01*
X134983413Y-108507000D01*
X135654912Y-108228856D01*
X136151768Y-107732000D01*
X139596395Y-107732000D01*
X139683018Y-107749230D01*
X136724249Y-110708000D01*
X136151768Y-110708000D01*
X135654912Y-110211144D01*
X134983413Y-109933000D01*
X134256587Y-109933000D01*
X133642120Y-110187521D01*
X133341697Y-109986785D01*
X132980000Y-109914839D01*
X131180000Y-109914839D01*
X130818303Y-109986785D01*
X130511670Y-110191670D01*
X130306785Y-110498303D01*
X130265074Y-110708000D01*
X128390347Y-110708000D01*
X127978267Y-110295920D01*
X127343522Y-110033000D01*
X126656478Y-110033000D01*
X126021733Y-110295920D01*
X125535920Y-110781733D01*
X125273000Y-111416478D01*
X125273000Y-112103522D01*
X125535920Y-112738267D01*
X126021733Y-113224080D01*
X126656478Y-113487000D01*
X127343522Y-113487000D01*
X127978267Y-113224080D01*
X128390347Y-112812000D01*
X130265074Y-112812000D01*
X130306785Y-113021697D01*
X130511670Y-113328330D01*
X130818303Y-113533215D01*
X131180000Y-113605161D01*
X131287087Y-113605161D01*
X129104249Y-115788000D01*
X126214981Y-115788000D01*
X126183215Y-115628303D01*
X125978330Y-115321670D01*
X125671697Y-115116785D01*
X125310000Y-115044839D01*
X123610000Y-115044839D01*
X123248303Y-115116785D01*
X122941670Y-115321670D01*
X122912194Y-115365784D01*
X122613351Y-115166103D01*
X122095017Y-115063000D01*
X121744983Y-115063000D01*
X121226649Y-115166103D01*
X120638855Y-115558855D01*
X120448728Y-115843399D01*
X120146924Y-115568355D01*
X119736890Y-115398524D01*
X119507000Y-115519845D01*
X119507000Y-116713000D01*
X119527000Y-116713000D01*
X119527000Y-116967000D01*
X119507000Y-116967000D01*
X119507000Y-118160155D01*
X119736890Y-118281476D01*
X120146924Y-118111645D01*
X120448728Y-117836601D01*
X120638855Y-118121145D01*
X121226649Y-118513897D01*
X121744983Y-118617000D01*
X122095017Y-118617000D01*
X122613351Y-118513897D01*
X122912194Y-118314216D01*
X122941670Y-118358330D01*
X123248303Y-118563215D01*
X123610000Y-118635161D01*
X125310000Y-118635161D01*
X125671697Y-118563215D01*
X125978330Y-118358330D01*
X126183215Y-118051697D01*
X126214981Y-117892000D01*
X129436395Y-117892000D01*
X129540000Y-117912608D01*
X129643605Y-117892000D01*
X129643609Y-117892000D01*
X129950470Y-117830962D01*
X130298449Y-117598449D01*
X130357142Y-117510609D01*
X134280753Y-113587000D01*
X134983413Y-113587000D01*
X135654912Y-113308856D01*
X136151768Y-112812000D01*
X137056395Y-112812000D01*
X137160000Y-112832608D01*
X137263605Y-112812000D01*
X137263609Y-112812000D01*
X137570470Y-112750962D01*
X137918449Y-112518449D01*
X137977142Y-112430609D01*
X143136728Y-107271023D01*
X143153202Y-107353842D01*
X143534903Y-107925097D01*
X143572173Y-107950000D01*
X143534903Y-107974903D01*
X143153202Y-108546158D01*
X143019167Y-109220000D01*
X143064474Y-109447774D01*
X141569391Y-110942858D01*
X141481551Y-111001551D01*
X141249038Y-111349531D01*
X141188000Y-111656392D01*
X141188000Y-111656395D01*
X141167392Y-111760000D01*
X141188000Y-111863605D01*
X141188001Y-124991390D01*
X141167392Y-125095000D01*
X141249038Y-125505469D01*
X141299973Y-125581698D01*
X141481552Y-125853449D01*
X141569389Y-125912140D01*
X142456000Y-126798752D01*
X142456000Y-127335963D01*
X142713135Y-127956741D01*
X143188259Y-128431865D01*
X143809037Y-128689000D01*
X144480963Y-128689000D01*
X145101741Y-128431865D01*
X145415000Y-128118606D01*
X145728259Y-128431865D01*
X146349037Y-128689000D01*
X147020963Y-128689000D01*
X147641741Y-128431865D01*
X147955000Y-128118606D01*
X148268259Y-128431865D01*
X148889037Y-128689000D01*
X149560963Y-128689000D01*
X150181741Y-128431865D01*
X150495000Y-128118606D01*
X150808259Y-128431865D01*
X151429037Y-128689000D01*
X152100963Y-128689000D01*
X152721741Y-128431865D01*
X153196865Y-127956741D01*
X153384853Y-127502898D01*
X153538710Y-127349041D01*
X158628086Y-127349041D01*
X158867611Y-127855134D01*
X159282577Y-128231041D01*
X159670961Y-128391904D01*
X159893000Y-128269915D01*
X159893000Y-127127000D01*
X160147000Y-127127000D01*
X160147000Y-128269915D01*
X160369039Y-128391904D01*
X160757423Y-128231041D01*
X161172389Y-127855134D01*
X161411914Y-127349041D01*
X161290629Y-127127000D01*
X160147000Y-127127000D01*
X159893000Y-127127000D01*
X158749371Y-127127000D01*
X158628086Y-127349041D01*
X153538710Y-127349041D01*
X153804415Y-127083337D01*
X153934450Y-126996450D01*
X153993143Y-126908610D01*
X154250794Y-126650959D01*
X158628086Y-126650959D01*
X158749371Y-126873000D01*
X159893000Y-126873000D01*
X159893000Y-125730085D01*
X160147000Y-125730085D01*
X160147000Y-126873000D01*
X161290629Y-126873000D01*
X161411914Y-126650959D01*
X161172389Y-126144866D01*
X160757423Y-125768959D01*
X160369039Y-125608096D01*
X160147000Y-125730085D01*
X159893000Y-125730085D01*
X159670961Y-125608096D01*
X159282577Y-125768959D01*
X158867611Y-126144866D01*
X158628086Y-126650959D01*
X154250794Y-126650959D01*
X154340609Y-126561144D01*
X154428449Y-126502451D01*
X154660962Y-126154472D01*
X154722000Y-125847611D01*
X154722000Y-125847608D01*
X154742608Y-125744003D01*
X154722000Y-125640398D01*
X154722000Y-121460260D01*
X178935099Y-121460260D01*
X178935099Y-127459740D01*
X179007045Y-127821437D01*
X179211930Y-128128070D01*
X179518563Y-128332955D01*
X179880260Y-128404901D01*
X185879740Y-128404901D01*
X186241437Y-128332955D01*
X186548070Y-128128070D01*
X186752955Y-127821437D01*
X186824901Y-127459740D01*
X186824901Y-127056443D01*
X188083162Y-127056443D01*
X188425723Y-127531063D01*
X189758863Y-128091084D01*
X191204834Y-128098305D01*
X192543501Y-127551627D01*
X192574277Y-127531063D01*
X192916838Y-127056443D01*
X190500000Y-124639605D01*
X188083162Y-127056443D01*
X186824901Y-127056443D01*
X186824901Y-125164834D01*
X186861695Y-125164834D01*
X187408373Y-126503501D01*
X187428937Y-126534277D01*
X187903557Y-126876838D01*
X190320395Y-124460000D01*
X190679605Y-124460000D01*
X193096443Y-126876838D01*
X193571063Y-126534277D01*
X194131084Y-125201137D01*
X194138305Y-123755166D01*
X193591627Y-122416499D01*
X193571063Y-122385723D01*
X193096443Y-122043162D01*
X190679605Y-124460000D01*
X190320395Y-124460000D01*
X187903557Y-122043162D01*
X187428937Y-122385723D01*
X186868916Y-123718863D01*
X186861695Y-125164834D01*
X186824901Y-125164834D01*
X186824901Y-121863557D01*
X188083162Y-121863557D01*
X190500000Y-124280395D01*
X192916838Y-121863557D01*
X192574277Y-121388937D01*
X191241137Y-120828916D01*
X189795166Y-120821695D01*
X188456499Y-121368373D01*
X188425723Y-121388937D01*
X188083162Y-121863557D01*
X186824901Y-121863557D01*
X186824901Y-121460260D01*
X186752955Y-121098563D01*
X186548070Y-120791930D01*
X186241437Y-120587045D01*
X185879740Y-120515099D01*
X179880260Y-120515099D01*
X179518563Y-120587045D01*
X179211930Y-120791930D01*
X179007045Y-121098563D01*
X178935099Y-121460260D01*
X154722000Y-121460260D01*
X154722000Y-120753603D01*
X154742608Y-120649999D01*
X154722000Y-120546395D01*
X154722000Y-120546391D01*
X154660962Y-120239530D01*
X154428449Y-119891551D01*
X154340612Y-119832860D01*
X154227000Y-119719248D01*
X154227000Y-119040752D01*
X154295613Y-118972139D01*
X154383450Y-118913448D01*
X154615963Y-118565469D01*
X154677001Y-118258608D01*
X154677001Y-118258605D01*
X154697609Y-118155000D01*
X154677001Y-118051395D01*
X154677001Y-116496478D01*
X158293000Y-116496478D01*
X158293000Y-117183522D01*
X158555920Y-117818267D01*
X159041733Y-118304080D01*
X159676478Y-118567000D01*
X160363522Y-118567000D01*
X160998267Y-118304080D01*
X161484080Y-117818267D01*
X161741461Y-117196892D01*
X168738514Y-117196892D01*
X168984817Y-117721358D01*
X169413076Y-118111645D01*
X169823110Y-118281476D01*
X170053000Y-118160155D01*
X170053000Y-116967000D01*
X168859181Y-116967000D01*
X168738514Y-117196892D01*
X161741461Y-117196892D01*
X161747000Y-117183522D01*
X161747000Y-116496478D01*
X161741462Y-116483108D01*
X168738514Y-116483108D01*
X168859181Y-116713000D01*
X170053000Y-116713000D01*
X170053000Y-115519845D01*
X169823110Y-115398524D01*
X169413076Y-115568355D01*
X168984817Y-115958642D01*
X168738514Y-116483108D01*
X161741462Y-116483108D01*
X161484080Y-115861733D01*
X160998267Y-115375920D01*
X160363522Y-115113000D01*
X159676478Y-115113000D01*
X159041733Y-115375920D01*
X158555920Y-115861733D01*
X158293000Y-116496478D01*
X154677001Y-116496478D01*
X154677001Y-112780296D01*
X154836391Y-112812000D01*
X154836395Y-112812000D01*
X154939999Y-112832608D01*
X155043603Y-112812000D01*
X158488232Y-112812000D01*
X158985088Y-113308856D01*
X159656587Y-113587000D01*
X160359248Y-113587000D01*
X161742862Y-114970615D01*
X161801551Y-115058449D01*
X162149530Y-115290962D01*
X162456391Y-115352000D01*
X162456395Y-115352000D01*
X162559999Y-115372608D01*
X162663603Y-115352000D01*
X171748435Y-115352000D01*
X171438855Y-115558855D01*
X171248728Y-115843399D01*
X170946924Y-115568355D01*
X170536890Y-115398524D01*
X170307000Y-115519845D01*
X170307000Y-116713000D01*
X170327000Y-116713000D01*
X170327000Y-116967000D01*
X170307000Y-116967000D01*
X170307000Y-118160155D01*
X170536890Y-118281476D01*
X170946924Y-118111645D01*
X171248728Y-117836601D01*
X171438855Y-118121145D01*
X172026649Y-118513897D01*
X172544983Y-118617000D01*
X172895017Y-118617000D01*
X173413351Y-118513897D01*
X173712194Y-118314216D01*
X173741670Y-118358330D01*
X174048303Y-118563215D01*
X174410000Y-118635161D01*
X176110000Y-118635161D01*
X176471697Y-118563215D01*
X176778330Y-118358330D01*
X176983215Y-118051697D01*
X177055161Y-117690000D01*
X177055161Y-115990000D01*
X176983215Y-115628303D01*
X176778330Y-115321670D01*
X176471697Y-115116785D01*
X176110000Y-115044839D01*
X176060737Y-115044839D01*
X176018449Y-114981551D01*
X175930615Y-114922862D01*
X174637142Y-113629391D01*
X174578449Y-113541551D01*
X174230470Y-113309038D01*
X173923609Y-113248000D01*
X173923605Y-113248000D01*
X173820000Y-113227392D01*
X173716395Y-113248000D01*
X168560519Y-113248000D01*
X168618267Y-113224080D01*
X169104080Y-112738267D01*
X169364714Y-112109039D01*
X176408096Y-112109039D01*
X176568959Y-112497423D01*
X176944866Y-112912389D01*
X177450959Y-113151914D01*
X177673000Y-113030629D01*
X177673000Y-111887000D01*
X177927000Y-111887000D01*
X177927000Y-113030629D01*
X178149041Y-113151914D01*
X178655134Y-112912389D01*
X179031041Y-112497423D01*
X179191904Y-112109039D01*
X179069915Y-111887000D01*
X177927000Y-111887000D01*
X177673000Y-111887000D01*
X176530085Y-111887000D01*
X176408096Y-112109039D01*
X169364714Y-112109039D01*
X169367000Y-112103522D01*
X169367000Y-111416478D01*
X169364715Y-111410961D01*
X176408096Y-111410961D01*
X176530085Y-111633000D01*
X177673000Y-111633000D01*
X177673000Y-110489371D01*
X177927000Y-110489371D01*
X177927000Y-111633000D01*
X179069915Y-111633000D01*
X179191904Y-111410961D01*
X179031041Y-111022577D01*
X178655134Y-110607611D01*
X178149041Y-110368086D01*
X177927000Y-110489371D01*
X177673000Y-110489371D01*
X177450959Y-110368086D01*
X176944866Y-110607611D01*
X176568959Y-111022577D01*
X176408096Y-111410961D01*
X169364715Y-111410961D01*
X169104080Y-110781733D01*
X168618267Y-110295920D01*
X167983522Y-110033000D01*
X167296478Y-110033000D01*
X166661733Y-110295920D01*
X166249653Y-110708000D01*
X164374926Y-110708000D01*
X164333215Y-110498303D01*
X164128330Y-110191670D01*
X163821697Y-109986785D01*
X163460000Y-109914839D01*
X161660000Y-109914839D01*
X161298303Y-109986785D01*
X160997880Y-110187521D01*
X160383413Y-109933000D01*
X159656587Y-109933000D01*
X158985088Y-110211144D01*
X158488232Y-110708000D01*
X155375753Y-110708000D01*
X154115526Y-109447774D01*
X154160833Y-109220000D01*
X154026798Y-108546158D01*
X153645097Y-107974903D01*
X153607827Y-107950000D01*
X153645097Y-107925097D01*
X153774120Y-107732000D01*
X158488232Y-107732000D01*
X158985088Y-108228856D01*
X159656587Y-108507000D01*
X160383413Y-108507000D01*
X160997880Y-108252479D01*
X161298303Y-108453215D01*
X161660000Y-108525161D01*
X163460000Y-108525161D01*
X163821697Y-108453215D01*
X164128330Y-108248330D01*
X164333215Y-107941697D01*
X164374926Y-107732000D01*
X166249653Y-107732000D01*
X166661733Y-108144080D01*
X167296478Y-108407000D01*
X167983522Y-108407000D01*
X168618267Y-108144080D01*
X169104080Y-107658267D01*
X169364714Y-107029039D01*
X176408096Y-107029039D01*
X176568959Y-107417423D01*
X176944866Y-107832389D01*
X177450959Y-108071914D01*
X177673000Y-107950629D01*
X177673000Y-106807000D01*
X177927000Y-106807000D01*
X177927000Y-107950629D01*
X178149041Y-108071914D01*
X178655134Y-107832389D01*
X179031041Y-107417423D01*
X179191904Y-107029039D01*
X179069915Y-106807000D01*
X177927000Y-106807000D01*
X177673000Y-106807000D01*
X176530085Y-106807000D01*
X176408096Y-107029039D01*
X169364714Y-107029039D01*
X169367000Y-107023522D01*
X169367000Y-106336478D01*
X169364715Y-106330961D01*
X176408096Y-106330961D01*
X176530085Y-106553000D01*
X177673000Y-106553000D01*
X177673000Y-105409371D01*
X177927000Y-105409371D01*
X177927000Y-106553000D01*
X179069915Y-106553000D01*
X179191904Y-106330961D01*
X179031041Y-105942577D01*
X178655134Y-105527611D01*
X178149041Y-105288086D01*
X177927000Y-105409371D01*
X177673000Y-105409371D01*
X177450959Y-105288086D01*
X176944866Y-105527611D01*
X176568959Y-105942577D01*
X176408096Y-106330961D01*
X169364715Y-106330961D01*
X169104080Y-105701733D01*
X168618267Y-105215920D01*
X168560519Y-105192000D01*
X178966395Y-105192000D01*
X179070000Y-105212608D01*
X179173605Y-105192000D01*
X179173609Y-105192000D01*
X179480470Y-105130962D01*
X179828449Y-104898449D01*
X179887142Y-104810609D01*
X180177995Y-104519756D01*
X180338355Y-104906924D01*
X180728642Y-105335183D01*
X181253108Y-105581486D01*
X181483000Y-105460819D01*
X181483000Y-104267000D01*
X181737000Y-104267000D01*
X181737000Y-105460819D01*
X181966892Y-105581486D01*
X182491358Y-105335183D01*
X182881645Y-104906924D01*
X183051476Y-104496890D01*
X182930155Y-104267000D01*
X181737000Y-104267000D01*
X181483000Y-104267000D01*
X181463000Y-104267000D01*
X181463000Y-104013000D01*
X181483000Y-104013000D01*
X181483000Y-103993000D01*
X181737000Y-103993000D01*
X181737000Y-104013000D01*
X182930155Y-104013000D01*
X183051476Y-103783110D01*
X182881645Y-103373076D01*
X182606601Y-103071272D01*
X182891145Y-102881145D01*
X183283897Y-102293351D01*
X183421813Y-101600000D01*
X183283897Y-100906649D01*
X183084216Y-100607806D01*
X183128330Y-100578330D01*
X183333215Y-100271697D01*
X183405161Y-99910000D01*
X183405161Y-98210000D01*
X183333215Y-97848303D01*
X183128330Y-97541670D01*
X182821697Y-97336785D01*
X182460000Y-97264839D01*
X180760000Y-97264839D01*
X180398303Y-97336785D01*
X180091670Y-97541670D01*
X179886785Y-97848303D01*
X179814839Y-98210000D01*
X179814839Y-99910000D01*
X179886785Y-100271697D01*
X180091670Y-100578330D01*
X180135784Y-100607806D01*
X179936103Y-100906649D01*
X179798187Y-101600000D01*
X179851952Y-101870296D01*
X178634249Y-103088000D01*
X168560519Y-103088000D01*
X168618267Y-103064080D01*
X169104080Y-102578267D01*
X169364714Y-101949039D01*
X176408096Y-101949039D01*
X176568959Y-102337423D01*
X176944866Y-102752389D01*
X177450959Y-102991914D01*
X177673000Y-102870629D01*
X177673000Y-101727000D01*
X177927000Y-101727000D01*
X177927000Y-102870629D01*
X178149041Y-102991914D01*
X178655134Y-102752389D01*
X179031041Y-102337423D01*
X179191904Y-101949039D01*
X179069915Y-101727000D01*
X177927000Y-101727000D01*
X177673000Y-101727000D01*
X176530085Y-101727000D01*
X176408096Y-101949039D01*
X169364714Y-101949039D01*
X169367000Y-101943522D01*
X169367000Y-101256478D01*
X169364715Y-101250961D01*
X176408096Y-101250961D01*
X176530085Y-101473000D01*
X177673000Y-101473000D01*
X177673000Y-100329371D01*
X177927000Y-100329371D01*
X177927000Y-101473000D01*
X179069915Y-101473000D01*
X179191904Y-101250961D01*
X179031041Y-100862577D01*
X178655134Y-100447611D01*
X178149041Y-100208086D01*
X177927000Y-100329371D01*
X177673000Y-100329371D01*
X177450959Y-100208086D01*
X176944866Y-100447611D01*
X176568959Y-100862577D01*
X176408096Y-101250961D01*
X169364715Y-101250961D01*
X169104080Y-100621733D01*
X168618267Y-100135920D01*
X167983522Y-99873000D01*
X167296478Y-99873000D01*
X166661733Y-100135920D01*
X166249653Y-100548000D01*
X164374926Y-100548000D01*
X164333215Y-100338303D01*
X164128330Y-100031670D01*
X163821697Y-99826785D01*
X163460000Y-99754839D01*
X161660000Y-99754839D01*
X161298303Y-99826785D01*
X160997880Y-100027521D01*
X160383413Y-99773000D01*
X159656587Y-99773000D01*
X158985088Y-100051144D01*
X158488232Y-100548000D01*
X155375753Y-100548000D01*
X154115526Y-99287774D01*
X154160833Y-99060000D01*
X154026798Y-98386158D01*
X153645097Y-97814903D01*
X153607827Y-97790000D01*
X153645097Y-97765097D01*
X154026798Y-97193842D01*
X154160833Y-96520000D01*
X154026798Y-95846158D01*
X153645097Y-95274903D01*
X153607827Y-95250000D01*
X153645097Y-95225097D01*
X154026798Y-94653842D01*
X154160833Y-93980000D01*
X154026798Y-93306158D01*
X153645097Y-92734903D01*
X153321751Y-92518850D01*
X153631041Y-92177423D01*
X153791904Y-91789039D01*
X153669915Y-91567000D01*
X152527000Y-91567000D01*
X152527000Y-91587000D01*
X152273000Y-91587000D01*
X152273000Y-91567000D01*
X151130085Y-91567000D01*
X151008096Y-91789039D01*
X151168959Y-92177423D01*
X151478249Y-92518850D01*
X151154903Y-92734903D01*
X150912000Y-93098432D01*
X150912000Y-89781568D01*
X151154903Y-90145097D01*
X151478249Y-90361150D01*
X151168959Y-90702577D01*
X151008096Y-91090961D01*
X151130085Y-91313000D01*
X152273000Y-91313000D01*
X152273000Y-91293000D01*
X152527000Y-91293000D01*
X152527000Y-91313000D01*
X153669915Y-91313000D01*
X153791904Y-91090961D01*
X153631041Y-90702577D01*
X153321751Y-90361150D01*
X153645097Y-90145097D01*
X153774120Y-89952000D01*
X159855745Y-89952000D01*
X160001408Y-90170000D01*
X159616103Y-90746649D01*
X159478187Y-91440000D01*
X159531952Y-91710296D01*
X159349391Y-91892858D01*
X159261551Y-91951551D01*
X159029038Y-92299531D01*
X158968000Y-92606392D01*
X158968000Y-92606395D01*
X158947392Y-92710000D01*
X158968000Y-92813605D01*
X158968001Y-94988231D01*
X158471144Y-95485088D01*
X158193000Y-96156587D01*
X158193000Y-96883413D01*
X158471144Y-97554912D01*
X158985088Y-98068856D01*
X159656587Y-98347000D01*
X160383413Y-98347000D01*
X160997880Y-98092479D01*
X161298303Y-98293215D01*
X161660000Y-98365161D01*
X163460000Y-98365161D01*
X163821697Y-98293215D01*
X164128330Y-98088330D01*
X164333215Y-97781697D01*
X164374926Y-97572000D01*
X166249653Y-97572000D01*
X166661733Y-97984080D01*
X167296478Y-98247000D01*
X167983522Y-98247000D01*
X168618267Y-97984080D01*
X169104080Y-97498267D01*
X169364714Y-96869039D01*
X176408096Y-96869039D01*
X176568959Y-97257423D01*
X176944866Y-97672389D01*
X177450959Y-97911914D01*
X177673000Y-97790629D01*
X177673000Y-96647000D01*
X177927000Y-96647000D01*
X177927000Y-97790629D01*
X178149041Y-97911914D01*
X178655134Y-97672389D01*
X179031041Y-97257423D01*
X179191904Y-96869039D01*
X179069915Y-96647000D01*
X177927000Y-96647000D01*
X177673000Y-96647000D01*
X176530085Y-96647000D01*
X176408096Y-96869039D01*
X169364714Y-96869039D01*
X169367000Y-96863522D01*
X169367000Y-96176478D01*
X169364715Y-96170961D01*
X176408096Y-96170961D01*
X176530085Y-96393000D01*
X177673000Y-96393000D01*
X177673000Y-95249371D01*
X177927000Y-95249371D01*
X177927000Y-96393000D01*
X179069915Y-96393000D01*
X179191904Y-96170961D01*
X179031041Y-95782577D01*
X178655134Y-95367611D01*
X178149041Y-95128086D01*
X177927000Y-95249371D01*
X177673000Y-95249371D01*
X177450959Y-95128086D01*
X176944866Y-95367611D01*
X176568959Y-95782577D01*
X176408096Y-96170961D01*
X169364715Y-96170961D01*
X169104080Y-95541733D01*
X168618267Y-95055920D01*
X167983522Y-94793000D01*
X167296478Y-94793000D01*
X166661733Y-95055920D01*
X166249653Y-95468000D01*
X164374926Y-95468000D01*
X164333215Y-95258303D01*
X164128330Y-94951670D01*
X163821697Y-94746785D01*
X163460000Y-94674839D01*
X161660000Y-94674839D01*
X161298303Y-94746785D01*
X161072000Y-94897995D01*
X161072000Y-93208450D01*
X161114983Y-93217000D01*
X161465017Y-93217000D01*
X161983351Y-93113897D01*
X162571145Y-92721145D01*
X162963897Y-92133351D01*
X163101813Y-91440000D01*
X162963897Y-90746649D01*
X162578592Y-90170000D01*
X162963897Y-89593351D01*
X163101813Y-88900000D01*
X162963897Y-88206649D01*
X162578592Y-87630000D01*
X162963897Y-87053351D01*
X163101813Y-86360000D01*
X162963897Y-85666649D01*
X162578592Y-85090000D01*
X162963897Y-84513351D01*
X163101813Y-83820000D01*
X162963897Y-83126649D01*
X162594387Y-82573639D01*
X162678327Y-82489699D01*
X162775000Y-82256310D01*
X162775000Y-81565750D01*
X162616250Y-81407000D01*
X161417000Y-81407000D01*
X161417000Y-81427000D01*
X161163000Y-81427000D01*
X161163000Y-81407000D01*
X159963750Y-81407000D01*
X159805000Y-81565750D01*
X159805000Y-82256310D01*
X159901673Y-82489699D01*
X159985613Y-82573639D01*
X159855745Y-82768000D01*
X153774120Y-82768000D01*
X153645097Y-82574903D01*
X153607827Y-82550000D01*
X153645097Y-82525097D01*
X154026798Y-81953842D01*
X154160833Y-81280000D01*
X154026798Y-80606158D01*
X153824696Y-80303690D01*
X159805000Y-80303690D01*
X159805000Y-80994250D01*
X159963750Y-81153000D01*
X161163000Y-81153000D01*
X161163000Y-79953750D01*
X161417000Y-79953750D01*
X161417000Y-81153000D01*
X162616250Y-81153000D01*
X162775000Y-80994250D01*
X162775000Y-80303690D01*
X162678327Y-80070301D01*
X162499698Y-79891673D01*
X162266309Y-79795000D01*
X161575750Y-79795000D01*
X161417000Y-79953750D01*
X161163000Y-79953750D01*
X161004250Y-79795000D01*
X160313691Y-79795000D01*
X160080302Y-79891673D01*
X159901673Y-80070301D01*
X159805000Y-80303690D01*
X153824696Y-80303690D01*
X153645097Y-80034903D01*
X153607827Y-80010000D01*
X153645097Y-79985097D01*
X153774199Y-79791883D01*
X154080470Y-79730962D01*
X154428449Y-79498449D01*
X154487142Y-79410609D01*
X154777995Y-79119756D01*
X154938355Y-79506924D01*
X155328642Y-79935183D01*
X155853108Y-80181486D01*
X156083000Y-80060819D01*
X156083000Y-78867000D01*
X156337000Y-78867000D01*
X156337000Y-80060819D01*
X156566892Y-80181486D01*
X157091358Y-79935183D01*
X157481645Y-79506924D01*
X157651476Y-79096890D01*
X157530155Y-78867000D01*
X156337000Y-78867000D01*
X156083000Y-78867000D01*
X156063000Y-78867000D01*
X156063000Y-78613000D01*
X156083000Y-78613000D01*
X156083000Y-78593000D01*
X156337000Y-78593000D01*
X156337000Y-78613000D01*
X157530155Y-78613000D01*
X157651476Y-78383110D01*
X157481645Y-77973076D01*
X157206601Y-77671272D01*
X157491145Y-77481145D01*
X157728126Y-77126478D01*
X177343000Y-77126478D01*
X177343000Y-77813522D01*
X177605920Y-78448267D01*
X178091733Y-78934080D01*
X178726478Y-79197000D01*
X179413522Y-79197000D01*
X180048267Y-78934080D01*
X180534080Y-78448267D01*
X180797000Y-77813522D01*
X180797000Y-77126478D01*
X180534080Y-76491733D01*
X180048267Y-76005920D01*
X179413522Y-75743000D01*
X178726478Y-75743000D01*
X178091733Y-76005920D01*
X177605920Y-76491733D01*
X177343000Y-77126478D01*
X157728126Y-77126478D01*
X157883897Y-76893351D01*
X158021813Y-76200000D01*
X157883897Y-75506649D01*
X157684216Y-75207806D01*
X157728330Y-75178330D01*
X157933215Y-74871697D01*
X158005161Y-74510000D01*
X158005161Y-72810000D01*
X157975325Y-72660000D01*
X159392339Y-72660000D01*
X159392339Y-74660000D01*
X159464285Y-75021697D01*
X159669170Y-75328330D01*
X159975803Y-75533215D01*
X160337500Y-75605161D01*
X162242500Y-75605161D01*
X162604197Y-75533215D01*
X162910830Y-75328330D01*
X163073982Y-75084155D01*
X163457020Y-75250563D01*
X163703000Y-75130594D01*
X163703000Y-73787000D01*
X163683000Y-73787000D01*
X163683000Y-73533000D01*
X163703000Y-73533000D01*
X163703000Y-72189406D01*
X163957000Y-72189406D01*
X163957000Y-73533000D01*
X163977000Y-73533000D01*
X163977000Y-73787000D01*
X163957000Y-73787000D01*
X163957000Y-75130594D01*
X164202980Y-75250563D01*
X164696924Y-75035973D01*
X164878491Y-74858310D01*
X165014956Y-75062544D01*
X165636657Y-75477950D01*
X166370000Y-75623821D01*
X167103344Y-75477950D01*
X167725044Y-75062544D01*
X168140450Y-74440843D01*
X168249500Y-73892611D01*
X168249500Y-73427388D01*
X168140450Y-72879156D01*
X168127651Y-72860000D01*
X169704839Y-72860000D01*
X169704839Y-74460000D01*
X169776785Y-74821697D01*
X169981670Y-75128330D01*
X170288303Y-75333215D01*
X170650000Y-75405161D01*
X172250000Y-75405161D01*
X172611697Y-75333215D01*
X172918330Y-75128330D01*
X172990823Y-75019837D01*
X173233223Y-75106965D01*
X173803454Y-75079778D01*
X174204005Y-74913864D01*
X174278139Y-74667745D01*
X173450000Y-73839605D01*
X173435858Y-73853748D01*
X173256253Y-73674143D01*
X173270395Y-73660000D01*
X173629605Y-73660000D01*
X174457745Y-74488139D01*
X174703864Y-74414005D01*
X174896965Y-73876777D01*
X174869778Y-73306546D01*
X174703864Y-72905995D01*
X174457745Y-72831861D01*
X173629605Y-73660000D01*
X173270395Y-73660000D01*
X173256253Y-73645858D01*
X173435858Y-73466253D01*
X173450000Y-73480395D01*
X174278139Y-72652255D01*
X174204005Y-72406136D01*
X173666777Y-72213035D01*
X173096546Y-72240222D01*
X172982371Y-72287515D01*
X172918330Y-72191670D01*
X172611697Y-71986785D01*
X172250000Y-71914839D01*
X170650000Y-71914839D01*
X170288303Y-71986785D01*
X169981670Y-72191670D01*
X169776785Y-72498303D01*
X169704839Y-72860000D01*
X168127651Y-72860000D01*
X167725044Y-72257456D01*
X167103343Y-71842050D01*
X166370000Y-71696179D01*
X165636656Y-71842050D01*
X165014956Y-72257456D01*
X164878491Y-72461690D01*
X164696924Y-72284027D01*
X164202980Y-72069437D01*
X163957000Y-72189406D01*
X163703000Y-72189406D01*
X163457020Y-72069437D01*
X163073982Y-72235845D01*
X162910830Y-71991670D01*
X162604197Y-71786785D01*
X162242500Y-71714839D01*
X160337500Y-71714839D01*
X159975803Y-71786785D01*
X159669170Y-71991670D01*
X159464285Y-72298303D01*
X159392339Y-72660000D01*
X157975325Y-72660000D01*
X157933215Y-72448303D01*
X157728330Y-72141670D01*
X157421697Y-71936785D01*
X157060000Y-71864839D01*
X155360000Y-71864839D01*
X154998303Y-71936785D01*
X154691670Y-72141670D01*
X154486785Y-72448303D01*
X154414839Y-72810000D01*
X154414839Y-74510000D01*
X154486785Y-74871697D01*
X154691670Y-75178330D01*
X154735784Y-75207806D01*
X154536103Y-75506649D01*
X154398187Y-76200000D01*
X154451952Y-76470296D01*
X153983286Y-76938962D01*
X154026798Y-76873842D01*
X154160833Y-76200000D01*
X154026798Y-75526158D01*
X153645097Y-74954903D01*
X153073842Y-74573202D01*
X152570091Y-74473000D01*
X152229909Y-74473000D01*
X152184661Y-74482000D01*
X152254976Y-74411685D01*
X152457000Y-73923957D01*
X152457000Y-73396043D01*
X152254976Y-72908315D01*
X151881685Y-72535024D01*
X151850602Y-72522149D01*
X154053710Y-70319041D01*
X177678086Y-70319041D01*
X177917611Y-70825134D01*
X178332577Y-71201041D01*
X178720961Y-71361904D01*
X178943000Y-71239915D01*
X178943000Y-70097000D01*
X179197000Y-70097000D01*
X179197000Y-71239915D01*
X179419039Y-71361904D01*
X179807423Y-71201041D01*
X180222389Y-70825134D01*
X180461914Y-70319041D01*
X180340629Y-70097000D01*
X179197000Y-70097000D01*
X178943000Y-70097000D01*
X177799371Y-70097000D01*
X177678086Y-70319041D01*
X154053710Y-70319041D01*
X154751792Y-69620959D01*
X177678086Y-69620959D01*
X177799371Y-69843000D01*
X178943000Y-69843000D01*
X178943000Y-68700085D01*
X179197000Y-68700085D01*
X179197000Y-69843000D01*
X180340629Y-69843000D01*
X180461914Y-69620959D01*
X180222389Y-69114866D01*
X179807423Y-68738959D01*
X179419039Y-68578096D01*
X179197000Y-68700085D01*
X178943000Y-68700085D01*
X178720961Y-68578096D01*
X178332577Y-68738959D01*
X177917611Y-69114866D01*
X177678086Y-69620959D01*
X154751792Y-69620959D01*
X171485612Y-52887140D01*
X171573449Y-52828449D01*
X171805962Y-52480470D01*
X171867000Y-52173609D01*
X171867000Y-52173606D01*
X171887608Y-52070001D01*
X171867000Y-51966396D01*
X171867000Y-47474981D01*
X172026697Y-47443215D01*
X172333330Y-47238330D01*
X172362806Y-47194216D01*
X172661649Y-47393897D01*
X173179983Y-47497000D01*
X173530017Y-47497000D01*
X174048351Y-47393897D01*
X174636145Y-47001145D01*
X174826272Y-46716601D01*
X175128076Y-46991645D01*
X175538110Y-47161476D01*
X175768000Y-47040155D01*
X175768000Y-45847000D01*
X176022000Y-45847000D01*
X176022000Y-47040155D01*
X176251890Y-47161476D01*
X176661924Y-46991645D01*
X177090183Y-46601358D01*
X177336486Y-46076892D01*
X177215819Y-45847000D01*
X176022000Y-45847000D01*
X175768000Y-45847000D01*
X175748000Y-45847000D01*
X175748000Y-45593000D01*
X175768000Y-45593000D01*
X175768000Y-44399845D01*
X176022000Y-44399845D01*
X176022000Y-45593000D01*
X177215819Y-45593000D01*
X177336486Y-45363108D01*
X177090183Y-44838642D01*
X176661924Y-44448355D01*
X176251890Y-44278524D01*
X176022000Y-44399845D01*
X175768000Y-44399845D01*
X175538110Y-44278524D01*
X175128076Y-44448355D01*
X174826272Y-44723399D01*
X174636145Y-44438855D01*
X174048351Y-44046103D01*
X173530017Y-43943000D01*
X173179983Y-43943000D01*
X172661649Y-44046103D01*
X172362806Y-44245784D01*
X172333330Y-44201670D01*
X172026697Y-43996785D01*
X171665000Y-43924839D01*
X169965000Y-43924839D01*
X169603303Y-43996785D01*
X169296670Y-44201670D01*
X169091785Y-44508303D01*
X169019839Y-44870000D01*
X169019839Y-46570000D01*
X169091785Y-46931697D01*
X169296670Y-47238330D01*
X169603303Y-47443215D01*
X169763001Y-47474981D01*
X169763000Y-51634248D01*
X147722500Y-73674748D01*
X133271502Y-59223750D01*
X142555000Y-59223750D01*
X142555000Y-61541309D01*
X142651673Y-61774698D01*
X142830301Y-61953327D01*
X143063690Y-62050000D01*
X145731250Y-62050000D01*
X145890000Y-61891250D01*
X145890000Y-59065000D01*
X151290000Y-59065000D01*
X151290000Y-61891250D01*
X151448750Y-62050000D01*
X154116310Y-62050000D01*
X154349699Y-61953327D01*
X154528327Y-61774698D01*
X154625000Y-61541309D01*
X154625000Y-59223750D01*
X154466250Y-59065000D01*
X151290000Y-59065000D01*
X145890000Y-59065000D01*
X142713750Y-59065000D01*
X142555000Y-59223750D01*
X133271502Y-59223750D01*
X121495033Y-47447282D01*
X121744983Y-47497000D01*
X122095017Y-47497000D01*
X122613351Y-47393897D01*
X123201145Y-47001145D01*
X123391272Y-46716601D01*
X123693076Y-46991645D01*
X124103110Y-47161476D01*
X124333000Y-47040155D01*
X124333000Y-45847000D01*
X124587000Y-45847000D01*
X124587000Y-47040155D01*
X124816890Y-47161476D01*
X125226924Y-46991645D01*
X125655183Y-46601358D01*
X125901486Y-46076892D01*
X125780819Y-45847000D01*
X124587000Y-45847000D01*
X124333000Y-45847000D01*
X124313000Y-45847000D01*
X124313000Y-45593000D01*
X124333000Y-45593000D01*
X124333000Y-44399845D01*
X124587000Y-44399845D01*
X124587000Y-45593000D01*
X125780819Y-45593000D01*
X125901486Y-45363108D01*
X125655183Y-44838642D01*
X125226924Y-44448355D01*
X124816890Y-44278524D01*
X124587000Y-44399845D01*
X124333000Y-44399845D01*
X124103110Y-44278524D01*
X123693076Y-44448355D01*
X123391272Y-44723399D01*
X123201145Y-44438855D01*
X122613351Y-44046103D01*
X122095017Y-43943000D01*
X121744983Y-43943000D01*
X121226649Y-44046103D01*
X120927806Y-44245784D01*
X120898330Y-44201670D01*
X120591697Y-43996785D01*
X120230000Y-43924839D01*
X118530000Y-43924839D01*
X118168303Y-43996785D01*
X117861670Y-44201670D01*
X117656785Y-44508303D01*
X117584839Y-44870000D01*
X117584839Y-46570000D01*
X117656785Y-46931697D01*
X117861670Y-47238330D01*
X118168303Y-47443215D01*
X118530000Y-47515161D01*
X118579264Y-47515161D01*
X118621552Y-47578449D01*
X118709389Y-47637140D01*
X142648476Y-71576228D01*
X142525469Y-71494037D01*
X142218608Y-71432999D01*
X142218604Y-71432999D01*
X142114999Y-71412391D01*
X142011394Y-71432999D01*
X138693602Y-71432999D01*
X138589998Y-71412391D01*
X138486394Y-71432999D01*
X138486390Y-71432999D01*
X138179529Y-71494037D01*
X137831550Y-71726550D01*
X137772861Y-71814384D01*
X136443150Y-73144096D01*
X136390450Y-72879156D01*
X135975044Y-72257456D01*
X135353343Y-71842050D01*
X134620000Y-71696179D01*
X133886656Y-71842050D01*
X133264956Y-72257456D01*
X133128491Y-72461690D01*
X132946924Y-72284027D01*
X132452980Y-72069437D01*
X132207000Y-72189406D01*
X132207000Y-73533000D01*
X132227000Y-73533000D01*
X132227000Y-73787000D01*
X132207000Y-73787000D01*
X132207000Y-75130594D01*
X132452980Y-75250563D01*
X132946924Y-75035973D01*
X133128491Y-74858310D01*
X133264956Y-75062544D01*
X133886657Y-75477950D01*
X134072358Y-75514888D01*
X130629247Y-78958000D01*
X128374120Y-78958000D01*
X128245097Y-78764903D01*
X127673842Y-78383202D01*
X127170091Y-78283000D01*
X126829909Y-78283000D01*
X126326158Y-78383202D01*
X125754903Y-78764903D01*
X125625801Y-78958117D01*
X125319530Y-79019038D01*
X125122829Y-79150470D01*
X124971551Y-79251551D01*
X124912862Y-79339385D01*
X117199985Y-87052263D01*
X117034080Y-86651733D01*
X116548267Y-86165920D01*
X115913522Y-85903000D01*
X115226478Y-85903000D01*
X114591733Y-86165920D01*
X114179653Y-86578000D01*
X113194255Y-86578000D01*
X113048592Y-86360000D01*
X113433897Y-85783351D01*
X113571813Y-85090000D01*
X113433897Y-84396649D01*
X113281813Y-84169039D01*
X115448096Y-84169039D01*
X115608959Y-84557423D01*
X115984866Y-84972389D01*
X116490959Y-85211914D01*
X116713000Y-85090629D01*
X116713000Y-83947000D01*
X116967000Y-83947000D01*
X116967000Y-85090629D01*
X117189041Y-85211914D01*
X117695134Y-84972389D01*
X118071041Y-84557423D01*
X118231904Y-84169039D01*
X118109915Y-83947000D01*
X116967000Y-83947000D01*
X116713000Y-83947000D01*
X115570085Y-83947000D01*
X115448096Y-84169039D01*
X113281813Y-84169039D01*
X113048592Y-83820000D01*
X113281812Y-83470961D01*
X115448096Y-83470961D01*
X115570085Y-83693000D01*
X116713000Y-83693000D01*
X116713000Y-82549371D01*
X116967000Y-82549371D01*
X116967000Y-83693000D01*
X118109915Y-83693000D01*
X118231904Y-83470961D01*
X118071041Y-83082577D01*
X117695134Y-82667611D01*
X117189041Y-82428086D01*
X116967000Y-82549371D01*
X116713000Y-82549371D01*
X116490959Y-82428086D01*
X115984866Y-82667611D01*
X115608959Y-83082577D01*
X115448096Y-83470961D01*
X113281812Y-83470961D01*
X113433897Y-83243351D01*
X113571813Y-82550000D01*
X113433897Y-81856649D01*
X113048592Y-81280000D01*
X113433897Y-80703351D01*
X113571813Y-80010000D01*
X113503483Y-79666478D01*
X115113000Y-79666478D01*
X115113000Y-80353522D01*
X115375920Y-80988267D01*
X115861733Y-81474080D01*
X116496478Y-81737000D01*
X117183522Y-81737000D01*
X117818267Y-81474080D01*
X118304080Y-80988267D01*
X118567000Y-80353522D01*
X118567000Y-79666478D01*
X118304080Y-79031733D01*
X117818267Y-78545920D01*
X117679599Y-78488482D01*
X117992389Y-78205134D01*
X118231914Y-77699041D01*
X118110629Y-77477000D01*
X116967000Y-77477000D01*
X116967000Y-77497000D01*
X116713000Y-77497000D01*
X116713000Y-77477000D01*
X115569371Y-77477000D01*
X115448086Y-77699041D01*
X115687611Y-78205134D01*
X116000401Y-78488482D01*
X115861733Y-78545920D01*
X115375920Y-79031733D01*
X115113000Y-79666478D01*
X113503483Y-79666478D01*
X113433897Y-79316649D01*
X113048592Y-78740000D01*
X113433897Y-78163351D01*
X113571813Y-77470000D01*
X113478516Y-77000959D01*
X115448086Y-77000959D01*
X115569371Y-77223000D01*
X116713000Y-77223000D01*
X116713000Y-76080085D01*
X116967000Y-76080085D01*
X116967000Y-77223000D01*
X118110629Y-77223000D01*
X118231914Y-77000959D01*
X117992389Y-76494866D01*
X117577423Y-76118959D01*
X117189039Y-75958096D01*
X116967000Y-76080085D01*
X116713000Y-76080085D01*
X116490961Y-75958096D01*
X116102577Y-76118959D01*
X115687611Y-76494866D01*
X115448086Y-77000959D01*
X113478516Y-77000959D01*
X113433897Y-76776649D01*
X113064387Y-76223639D01*
X113148327Y-76139699D01*
X113245000Y-75906310D01*
X113245000Y-75215750D01*
X113086250Y-75057000D01*
X111887000Y-75057000D01*
X111887000Y-75077000D01*
X111633000Y-75077000D01*
X111633000Y-75057000D01*
X110433750Y-75057000D01*
X110275000Y-75215750D01*
X110275000Y-75906310D01*
X110371673Y-76139699D01*
X110455613Y-76223639D01*
X110086103Y-76776649D01*
X109948187Y-77470000D01*
X99770000Y-77470000D01*
X99770000Y-73953690D01*
X110275000Y-73953690D01*
X110275000Y-74644250D01*
X110433750Y-74803000D01*
X111633000Y-74803000D01*
X111633000Y-73603750D01*
X111887000Y-73603750D01*
X111887000Y-74803000D01*
X113086250Y-74803000D01*
X113245000Y-74644250D01*
X113245000Y-73953690D01*
X113148327Y-73720301D01*
X112969698Y-73541673D01*
X112736309Y-73445000D01*
X112045750Y-73445000D01*
X111887000Y-73603750D01*
X111633000Y-73603750D01*
X111474250Y-73445000D01*
X110783691Y-73445000D01*
X110550302Y-73541673D01*
X110371673Y-73720301D01*
X110275000Y-73953690D01*
X99770000Y-73953690D01*
X99770000Y-73443223D01*
X121013035Y-73443223D01*
X121040222Y-74013454D01*
X121206136Y-74414005D01*
X121452255Y-74488139D01*
X122280395Y-73660000D01*
X121452255Y-72831861D01*
X121206136Y-72905995D01*
X121013035Y-73443223D01*
X99770000Y-73443223D01*
X99770000Y-72652255D01*
X121631861Y-72652255D01*
X122460000Y-73480395D01*
X122474143Y-73466253D01*
X122653748Y-73645858D01*
X122639605Y-73660000D01*
X122653748Y-73674143D01*
X122474143Y-73853748D01*
X122460000Y-73839605D01*
X121631861Y-74667745D01*
X121705995Y-74913864D01*
X122243223Y-75106965D01*
X122813454Y-75079778D01*
X122927629Y-75032485D01*
X122991670Y-75128330D01*
X123298303Y-75333215D01*
X123660000Y-75405161D01*
X125260000Y-75405161D01*
X125621697Y-75333215D01*
X125928330Y-75128330D01*
X126133215Y-74821697D01*
X126205161Y-74460000D01*
X126205161Y-72860000D01*
X126165379Y-72660000D01*
X127642339Y-72660000D01*
X127642339Y-74660000D01*
X127714285Y-75021697D01*
X127919170Y-75328330D01*
X128225803Y-75533215D01*
X128587500Y-75605161D01*
X130492500Y-75605161D01*
X130854197Y-75533215D01*
X131160830Y-75328330D01*
X131323982Y-75084155D01*
X131707020Y-75250563D01*
X131953000Y-75130594D01*
X131953000Y-73787000D01*
X131933000Y-73787000D01*
X131933000Y-73533000D01*
X131953000Y-73533000D01*
X131953000Y-72189406D01*
X131707020Y-72069437D01*
X131323982Y-72235845D01*
X131160830Y-71991670D01*
X130854197Y-71786785D01*
X130492500Y-71714839D01*
X128587500Y-71714839D01*
X128225803Y-71786785D01*
X127919170Y-71991670D01*
X127714285Y-72298303D01*
X127642339Y-72660000D01*
X126165379Y-72660000D01*
X126133215Y-72498303D01*
X125928330Y-72191670D01*
X125621697Y-71986785D01*
X125260000Y-71914839D01*
X123660000Y-71914839D01*
X123298303Y-71986785D01*
X122991670Y-72191670D01*
X122919177Y-72300163D01*
X122676777Y-72213035D01*
X122106546Y-72240222D01*
X121705995Y-72406136D01*
X121631861Y-72652255D01*
X99770000Y-72652255D01*
X99770000Y-69506478D01*
X115113000Y-69506478D01*
X115113000Y-70193522D01*
X115375920Y-70828267D01*
X115861733Y-71314080D01*
X116496478Y-71577000D01*
X117183522Y-71577000D01*
X117818267Y-71314080D01*
X118304080Y-70828267D01*
X118567000Y-70193522D01*
X118567000Y-69506478D01*
X118304080Y-68871733D01*
X117818267Y-68385920D01*
X117183522Y-68123000D01*
X116496478Y-68123000D01*
X115861733Y-68385920D01*
X115375920Y-68871733D01*
X115113000Y-69506478D01*
X99770000Y-69506478D01*
X99770000Y-40696443D01*
X101723162Y-40696443D01*
X102065723Y-41171063D01*
X103398863Y-41731084D01*
X104844834Y-41738305D01*
X106183501Y-41191627D01*
X106214277Y-41171063D01*
X106556838Y-40696443D01*
X104140000Y-38279605D01*
X101723162Y-40696443D01*
X99770000Y-40696443D01*
X99770000Y-38804834D01*
X100501695Y-38804834D01*
X101048373Y-40143501D01*
X101068937Y-40174277D01*
X101543557Y-40516838D01*
X103960395Y-38100000D01*
X104319605Y-38100000D01*
X106736443Y-40516838D01*
X107211063Y-40174277D01*
X107771084Y-38841137D01*
X107778305Y-37395166D01*
X107231627Y-36056499D01*
X107211063Y-36025723D01*
X106736443Y-35683162D01*
X104319605Y-38100000D01*
X103960395Y-38100000D01*
X101543557Y-35683162D01*
X101068937Y-36025723D01*
X100508916Y-37358863D01*
X100501695Y-38804834D01*
X99770000Y-38804834D01*
X99770000Y-35503557D01*
X101723162Y-35503557D01*
X104140000Y-37920395D01*
X106556838Y-35503557D01*
X106265755Y-35100260D01*
X107815099Y-35100260D01*
X107815099Y-41099740D01*
X107887045Y-41461437D01*
X108091930Y-41768070D01*
X108398563Y-41972955D01*
X108760260Y-42044901D01*
X114759740Y-42044901D01*
X115121437Y-41972955D01*
X115428070Y-41768070D01*
X115632955Y-41461437D01*
X115704901Y-41099740D01*
X115704901Y-40296478D01*
X127813000Y-40296478D01*
X127813000Y-40983522D01*
X128075920Y-41618267D01*
X128561733Y-42104080D01*
X129196478Y-42367000D01*
X129883522Y-42367000D01*
X130518267Y-42104080D01*
X131004080Y-41618267D01*
X131267000Y-40983522D01*
X131267000Y-40296478D01*
X131004080Y-39661733D01*
X130518267Y-39175920D01*
X129883522Y-38913000D01*
X129196478Y-38913000D01*
X128561733Y-39175920D01*
X128075920Y-39661733D01*
X127813000Y-40296478D01*
X115704901Y-40296478D01*
X115704901Y-35100260D01*
X115632955Y-34738563D01*
X115613870Y-34710000D01*
X127744839Y-34710000D01*
X127744839Y-36410000D01*
X127816785Y-36771697D01*
X128021670Y-37078330D01*
X128328303Y-37283215D01*
X128690000Y-37355161D01*
X130390000Y-37355161D01*
X130751697Y-37283215D01*
X131058330Y-37078330D01*
X131087806Y-37034216D01*
X131386649Y-37233897D01*
X131904983Y-37337000D01*
X132255017Y-37337000D01*
X132773351Y-37233897D01*
X133350000Y-36848592D01*
X133926649Y-37233897D01*
X134444983Y-37337000D01*
X134795017Y-37337000D01*
X135313351Y-37233897D01*
X135901145Y-36841145D01*
X136293897Y-36253351D01*
X136431813Y-35560000D01*
X136293897Y-34866649D01*
X135901145Y-34278855D01*
X135313351Y-33886103D01*
X134795017Y-33783000D01*
X134444983Y-33783000D01*
X133926649Y-33886103D01*
X133350000Y-34271408D01*
X132773351Y-33886103D01*
X132255017Y-33783000D01*
X131904983Y-33783000D01*
X131386649Y-33886103D01*
X131087806Y-34085784D01*
X131058330Y-34041670D01*
X130751697Y-33836785D01*
X130390000Y-33764839D01*
X128690000Y-33764839D01*
X128328303Y-33836785D01*
X128021670Y-34041670D01*
X127816785Y-34348303D01*
X127744839Y-34710000D01*
X115613870Y-34710000D01*
X115428070Y-34431930D01*
X115121437Y-34227045D01*
X114759740Y-34155099D01*
X108760260Y-34155099D01*
X108398563Y-34227045D01*
X108091930Y-34431930D01*
X107887045Y-34738563D01*
X107815099Y-35100260D01*
X106265755Y-35100260D01*
X106214277Y-35028937D01*
X104881137Y-34468916D01*
X103435166Y-34461695D01*
X102096499Y-35008373D01*
X102065723Y-35028937D01*
X101723162Y-35503557D01*
X99770000Y-35503557D01*
X99770000Y-33730000D01*
X137033000Y-33730000D01*
X137033000Y-52070000D01*
X137033000Y-52070000D01*
G37*
X137033000Y-52070000D02*
X137042667Y-52118601D01*
X137070197Y-52159803D01*
X137111399Y-52187333D01*
X137160000Y-52197000D01*
X142555000Y-52197000D01*
X142555000Y-54206250D01*
X142713750Y-54365000D01*
X145890000Y-54365000D01*
X145890000Y-52822000D01*
X151290000Y-52822000D01*
X151290000Y-54365000D01*
X154466250Y-54365000D01*
X154625000Y-54206250D01*
X154625000Y-52197000D01*
X160020000Y-52197000D01*
X160068601Y-52187333D01*
X160109803Y-52159803D01*
X160137333Y-52118601D01*
X160147000Y-52070000D01*
X160147000Y-47460000D01*
X160814839Y-47460000D01*
X160814839Y-49060000D01*
X160886785Y-49421697D01*
X161091670Y-49728330D01*
X161398303Y-49933215D01*
X161760000Y-50005161D01*
X163360000Y-50005161D01*
X163721697Y-49933215D01*
X164028330Y-49728330D01*
X164233215Y-49421697D01*
X164280002Y-49186478D01*
X164643000Y-49186478D01*
X164643000Y-49873522D01*
X164905920Y-50508267D01*
X165391733Y-50994080D01*
X166026478Y-51257000D01*
X166713522Y-51257000D01*
X167348267Y-50994080D01*
X167834080Y-50508267D01*
X168097000Y-49873522D01*
X168097000Y-49186478D01*
X167834080Y-48551733D01*
X167348267Y-48065920D01*
X166713522Y-47803000D01*
X166026478Y-47803000D01*
X165391733Y-48065920D01*
X164905920Y-48551733D01*
X164643000Y-49186478D01*
X164280002Y-49186478D01*
X164305161Y-49060000D01*
X164305161Y-47460000D01*
X164233215Y-47098303D01*
X164028330Y-46791670D01*
X163721697Y-46586785D01*
X163360000Y-46514839D01*
X161760000Y-46514839D01*
X161398303Y-46586785D01*
X161091670Y-46791670D01*
X160886785Y-47098303D01*
X160814839Y-47460000D01*
X160147000Y-47460000D01*
X160147000Y-40640000D01*
X160799167Y-40640000D01*
X160933202Y-41313842D01*
X161314903Y-41885097D01*
X161886158Y-42266798D01*
X162389909Y-42367000D01*
X162730091Y-42367000D01*
X163233842Y-42266798D01*
X163805097Y-41885097D01*
X164186798Y-41313842D01*
X164320833Y-40640000D01*
X164186798Y-39966158D01*
X163805097Y-39394903D01*
X163767828Y-39370000D01*
X164609167Y-39370000D01*
X164743202Y-40043842D01*
X165124903Y-40615097D01*
X165696158Y-40996798D01*
X166199909Y-41097000D01*
X166540091Y-41097000D01*
X167043842Y-40996798D01*
X167493354Y-40696443D01*
X180463162Y-40696443D01*
X180805723Y-41171063D01*
X182138863Y-41731084D01*
X183584834Y-41738305D01*
X184923501Y-41191627D01*
X184954277Y-41171063D01*
X185296838Y-40696443D01*
X182880000Y-38279605D01*
X180463162Y-40696443D01*
X167493354Y-40696443D01*
X167615097Y-40615097D01*
X167996798Y-40043842D01*
X168130833Y-39370000D01*
X168018415Y-38804834D01*
X179241695Y-38804834D01*
X179788373Y-40143501D01*
X179808937Y-40174277D01*
X180283557Y-40516838D01*
X182700395Y-38100000D01*
X183059605Y-38100000D01*
X185476443Y-40516838D01*
X185951063Y-40174277D01*
X186511084Y-38841137D01*
X186518305Y-37395166D01*
X185971627Y-36056499D01*
X185951063Y-36025723D01*
X185476443Y-35683162D01*
X183059605Y-38100000D01*
X182700395Y-38100000D01*
X180283557Y-35683162D01*
X179808937Y-36025723D01*
X179248916Y-37358863D01*
X179241695Y-38804834D01*
X168018415Y-38804834D01*
X167996798Y-38696158D01*
X167615097Y-38124903D01*
X167043842Y-37743202D01*
X166540091Y-37643000D01*
X166199909Y-37643000D01*
X165696158Y-37743202D01*
X165124903Y-38124903D01*
X164743202Y-38696158D01*
X164609167Y-39370000D01*
X163767828Y-39370000D01*
X163233842Y-39013202D01*
X162730091Y-38913000D01*
X162389909Y-38913000D01*
X161886158Y-39013202D01*
X161314903Y-39394903D01*
X160933202Y-39966158D01*
X160799167Y-40640000D01*
X160147000Y-40640000D01*
X160147000Y-35503557D01*
X180463162Y-35503557D01*
X182880000Y-37920395D01*
X185296838Y-35503557D01*
X185005755Y-35100260D01*
X186555099Y-35100260D01*
X186555099Y-41099740D01*
X186627045Y-41461437D01*
X186831930Y-41768070D01*
X187138563Y-41972955D01*
X187500260Y-42044901D01*
X193499740Y-42044901D01*
X193861437Y-41972955D01*
X194168070Y-41768070D01*
X194372955Y-41461437D01*
X194444901Y-41099740D01*
X194444901Y-35100260D01*
X194372955Y-34738563D01*
X194168070Y-34431930D01*
X193861437Y-34227045D01*
X193499740Y-34155099D01*
X187500260Y-34155099D01*
X187138563Y-34227045D01*
X186831930Y-34431930D01*
X186627045Y-34738563D01*
X186555099Y-35100260D01*
X185005755Y-35100260D01*
X184954277Y-35028937D01*
X183621137Y-34468916D01*
X182175166Y-34461695D01*
X180836499Y-35008373D01*
X180805723Y-35028937D01*
X180463162Y-35503557D01*
X160147000Y-35503557D01*
X160147000Y-33730000D01*
X194870000Y-33730000D01*
X194870001Y-128830000D01*
X99770000Y-128830000D01*
X99770000Y-121460260D01*
X100195099Y-121460260D01*
X100195099Y-127459740D01*
X100267045Y-127821437D01*
X100471930Y-128128070D01*
X100778563Y-128332955D01*
X101140260Y-128404901D01*
X107139740Y-128404901D01*
X107501437Y-128332955D01*
X107808070Y-128128070D01*
X108012955Y-127821437D01*
X108084901Y-127459740D01*
X108084901Y-127056443D01*
X109343162Y-127056443D01*
X109685723Y-127531063D01*
X111018863Y-128091084D01*
X112464834Y-128098305D01*
X113803501Y-127551627D01*
X113834277Y-127531063D01*
X114176838Y-127056443D01*
X111760000Y-124639605D01*
X109343162Y-127056443D01*
X108084901Y-127056443D01*
X108084901Y-125164834D01*
X108121695Y-125164834D01*
X108668373Y-126503501D01*
X108688937Y-126534277D01*
X109163557Y-126876838D01*
X111580395Y-124460000D01*
X111939605Y-124460000D01*
X114356443Y-126876838D01*
X114831063Y-126534277D01*
X115391084Y-125201137D01*
X115398305Y-123755166D01*
X114851627Y-122416499D01*
X114831063Y-122385723D01*
X114356443Y-122043162D01*
X111939605Y-124460000D01*
X111580395Y-124460000D01*
X109163557Y-122043162D01*
X108688937Y-122385723D01*
X108128916Y-123718863D01*
X108121695Y-125164834D01*
X108084901Y-125164834D01*
X108084901Y-121863557D01*
X109343162Y-121863557D01*
X111760000Y-124280395D01*
X114176838Y-121863557D01*
X113834277Y-121388937D01*
X112501137Y-120828916D01*
X111055166Y-120821695D01*
X109716499Y-121368373D01*
X109685723Y-121388937D01*
X109343162Y-121863557D01*
X108084901Y-121863557D01*
X108084901Y-121460260D01*
X108012955Y-121098563D01*
X107808070Y-120791930D01*
X107501437Y-120587045D01*
X107139740Y-120515099D01*
X101140260Y-120515099D01*
X100778563Y-120587045D01*
X100471930Y-120791930D01*
X100267045Y-121098563D01*
X100195099Y-121460260D01*
X99770000Y-121460260D01*
X99770000Y-117196892D01*
X117938514Y-117196892D01*
X118184817Y-117721358D01*
X118613076Y-118111645D01*
X119023110Y-118281476D01*
X119253000Y-118160155D01*
X119253000Y-116967000D01*
X118059181Y-116967000D01*
X117938514Y-117196892D01*
X99770000Y-117196892D01*
X99770000Y-116483108D01*
X117938514Y-116483108D01*
X118059181Y-116713000D01*
X119253000Y-116713000D01*
X119253000Y-115519845D01*
X119023110Y-115398524D01*
X118613076Y-115568355D01*
X118184817Y-115958642D01*
X117938514Y-116483108D01*
X99770000Y-116483108D01*
X99770000Y-112109039D01*
X115448096Y-112109039D01*
X115608959Y-112497423D01*
X115984866Y-112912389D01*
X116490959Y-113151914D01*
X116713000Y-113030629D01*
X116713000Y-111887000D01*
X116967000Y-111887000D01*
X116967000Y-113030629D01*
X117189041Y-113151914D01*
X117695134Y-112912389D01*
X118071041Y-112497423D01*
X118231904Y-112109039D01*
X118109915Y-111887000D01*
X116967000Y-111887000D01*
X116713000Y-111887000D01*
X115570085Y-111887000D01*
X115448096Y-112109039D01*
X99770000Y-112109039D01*
X99770000Y-111410961D01*
X115448096Y-111410961D01*
X115570085Y-111633000D01*
X116713000Y-111633000D01*
X116713000Y-110489371D01*
X116967000Y-110489371D01*
X116967000Y-111633000D01*
X118109915Y-111633000D01*
X118231904Y-111410961D01*
X118071041Y-111022577D01*
X117695134Y-110607611D01*
X117189041Y-110368086D01*
X116967000Y-110489371D01*
X116713000Y-110489371D01*
X116490959Y-110368086D01*
X115984866Y-110607611D01*
X115608959Y-111022577D01*
X115448096Y-111410961D01*
X99770000Y-111410961D01*
X99770000Y-107029039D01*
X115448096Y-107029039D01*
X115608959Y-107417423D01*
X115984866Y-107832389D01*
X116490959Y-108071914D01*
X116713000Y-107950629D01*
X116713000Y-106807000D01*
X116967000Y-106807000D01*
X116967000Y-107950629D01*
X117189041Y-108071914D01*
X117695134Y-107832389D01*
X118071041Y-107417423D01*
X118231904Y-107029039D01*
X118109915Y-106807000D01*
X116967000Y-106807000D01*
X116713000Y-106807000D01*
X115570085Y-106807000D01*
X115448096Y-107029039D01*
X99770000Y-107029039D01*
X99770000Y-106330961D01*
X115448096Y-106330961D01*
X115570085Y-106553000D01*
X116713000Y-106553000D01*
X116713000Y-105409371D01*
X116967000Y-105409371D01*
X116967000Y-106553000D01*
X118109915Y-106553000D01*
X118231904Y-106330961D01*
X118071041Y-105942577D01*
X117695134Y-105527611D01*
X117189041Y-105288086D01*
X116967000Y-105409371D01*
X116713000Y-105409371D01*
X116490959Y-105288086D01*
X115984866Y-105527611D01*
X115608959Y-105942577D01*
X115448096Y-106330961D01*
X99770000Y-106330961D01*
X99770000Y-101949039D01*
X115448096Y-101949039D01*
X115608959Y-102337423D01*
X115984866Y-102752389D01*
X116490959Y-102991914D01*
X116713000Y-102870629D01*
X116713000Y-101727000D01*
X116967000Y-101727000D01*
X116967000Y-102870629D01*
X117189041Y-102991914D01*
X117695134Y-102752389D01*
X118071041Y-102337423D01*
X118231904Y-101949039D01*
X118109915Y-101727000D01*
X116967000Y-101727000D01*
X116713000Y-101727000D01*
X115570085Y-101727000D01*
X115448096Y-101949039D01*
X99770000Y-101949039D01*
X99770000Y-101250961D01*
X115448096Y-101250961D01*
X115570085Y-101473000D01*
X116713000Y-101473000D01*
X116713000Y-100329371D01*
X116967000Y-100329371D01*
X116967000Y-101473000D01*
X118109915Y-101473000D01*
X118228872Y-101256478D01*
X125273000Y-101256478D01*
X125273000Y-101943522D01*
X125535920Y-102578267D01*
X126021733Y-103064080D01*
X126656478Y-103327000D01*
X127343522Y-103327000D01*
X127978267Y-103064080D01*
X128390347Y-102652000D01*
X130265074Y-102652000D01*
X130306785Y-102861697D01*
X130511670Y-103168330D01*
X130818303Y-103373215D01*
X131180000Y-103445161D01*
X132980000Y-103445161D01*
X133341697Y-103373215D01*
X133642120Y-103172479D01*
X134256587Y-103427000D01*
X134983413Y-103427000D01*
X135654912Y-103148856D01*
X136168856Y-102634912D01*
X136447000Y-101963413D01*
X136447000Y-101236587D01*
X136168856Y-100565088D01*
X135654912Y-100051144D01*
X134983413Y-99773000D01*
X134256587Y-99773000D01*
X133642120Y-100027521D01*
X133341697Y-99826785D01*
X132980000Y-99754839D01*
X131180000Y-99754839D01*
X130818303Y-99826785D01*
X130511670Y-100031670D01*
X130306785Y-100338303D01*
X130265074Y-100548000D01*
X128390347Y-100548000D01*
X127978267Y-100135920D01*
X127343522Y-99873000D01*
X126656478Y-99873000D01*
X126021733Y-100135920D01*
X125535920Y-100621733D01*
X125273000Y-101256478D01*
X118228872Y-101256478D01*
X118231904Y-101250961D01*
X118071041Y-100862577D01*
X117695134Y-100447611D01*
X117189041Y-100208086D01*
X116967000Y-100329371D01*
X116713000Y-100329371D01*
X116490959Y-100208086D01*
X115984866Y-100447611D01*
X115608959Y-100862577D01*
X115448096Y-101250961D01*
X99770000Y-101250961D01*
X99770000Y-77470000D01*
X109948187Y-77470000D01*
X110086103Y-78163351D01*
X110471408Y-78740000D01*
X110086103Y-79316649D01*
X109948187Y-80010000D01*
X110086103Y-80703351D01*
X110471408Y-81280000D01*
X110086103Y-81856649D01*
X109948187Y-82550000D01*
X110086103Y-83243351D01*
X110471408Y-83820000D01*
X110086103Y-84396649D01*
X109948187Y-85090000D01*
X110086103Y-85783351D01*
X110471408Y-86360000D01*
X110086103Y-86936649D01*
X109948187Y-87630000D01*
X110086103Y-88323351D01*
X110478855Y-88911145D01*
X111066649Y-89303897D01*
X111584983Y-89407000D01*
X111935017Y-89407000D01*
X112453351Y-89303897D01*
X113041145Y-88911145D01*
X113194255Y-88682000D01*
X114179653Y-88682000D01*
X114591733Y-89094080D01*
X114992264Y-89259985D01*
X114899391Y-89352858D01*
X114811551Y-89411551D01*
X114579038Y-89759531D01*
X114518000Y-90066392D01*
X114518000Y-90066395D01*
X114497392Y-90170000D01*
X114518000Y-90273605D01*
X114518001Y-93755879D01*
X114324903Y-93884903D01*
X113943202Y-94456158D01*
X113809167Y-95130000D01*
X113943202Y-95803842D01*
X114324903Y-96375097D01*
X114896158Y-96756798D01*
X115399909Y-96857000D01*
X115740091Y-96857000D01*
X116243842Y-96756798D01*
X116815097Y-96375097D01*
X117196798Y-95803842D01*
X117330833Y-95130000D01*
X117302537Y-94987745D01*
X118551861Y-94987745D01*
X118625995Y-95233864D01*
X119163223Y-95426965D01*
X119733454Y-95399778D01*
X120134005Y-95233864D01*
X120208139Y-94987745D01*
X119380000Y-94159605D01*
X118551861Y-94987745D01*
X117302537Y-94987745D01*
X117196798Y-94456158D01*
X116815097Y-93884903D01*
X116632990Y-93763223D01*
X117933035Y-93763223D01*
X117960222Y-94333454D01*
X118126136Y-94734005D01*
X118372255Y-94808139D01*
X119200395Y-93980000D01*
X119559605Y-93980000D01*
X120387745Y-94808139D01*
X120633864Y-94734005D01*
X120826965Y-94196777D01*
X120799778Y-93626546D01*
X120633864Y-93225995D01*
X120387745Y-93151861D01*
X119559605Y-93980000D01*
X119200395Y-93980000D01*
X118372255Y-93151861D01*
X118126136Y-93225995D01*
X117933035Y-93763223D01*
X116632990Y-93763223D01*
X116622000Y-93755880D01*
X116622000Y-92972255D01*
X118551861Y-92972255D01*
X119380000Y-93800395D01*
X120208139Y-92972255D01*
X120134005Y-92726136D01*
X119596777Y-92533035D01*
X119026546Y-92560222D01*
X118625995Y-92726136D01*
X118551861Y-92972255D01*
X116622000Y-92972255D01*
X116622000Y-90605751D01*
X117320006Y-89907745D01*
X118551861Y-89907745D01*
X118625995Y-90153864D01*
X119163223Y-90346965D01*
X119733454Y-90319778D01*
X120134005Y-90153864D01*
X120208139Y-89907745D01*
X119380000Y-89079605D01*
X118551861Y-89907745D01*
X117320006Y-89907745D01*
X117964345Y-89263407D01*
X118126136Y-89654005D01*
X118372255Y-89728139D01*
X119200395Y-88900000D01*
X119559605Y-88900000D01*
X120387745Y-89728139D01*
X120633864Y-89654005D01*
X120826965Y-89116777D01*
X120799778Y-88546546D01*
X120633864Y-88145995D01*
X120387745Y-88071861D01*
X119559605Y-88900000D01*
X119200395Y-88900000D01*
X119186252Y-88885858D01*
X119365858Y-88706252D01*
X119380000Y-88720395D01*
X120208139Y-87892255D01*
X120134005Y-87646136D01*
X119727669Y-87500083D01*
X125885436Y-81342317D01*
X126326158Y-81636798D01*
X126829909Y-81737000D01*
X127170091Y-81737000D01*
X127673842Y-81636798D01*
X128245097Y-81255097D01*
X128374120Y-81062000D01*
X130234839Y-81062000D01*
X130234839Y-82180000D01*
X130306785Y-82541697D01*
X130376386Y-82645862D01*
X130254249Y-82768000D01*
X128390347Y-82768000D01*
X127978267Y-82355920D01*
X127343522Y-82093000D01*
X126656478Y-82093000D01*
X126021733Y-82355920D01*
X125535920Y-82841733D01*
X125273000Y-83476478D01*
X125273000Y-84163522D01*
X125535920Y-84798267D01*
X126021733Y-85284080D01*
X126656478Y-85547000D01*
X127343522Y-85547000D01*
X127978267Y-85284080D01*
X128390347Y-84872000D01*
X130586395Y-84872000D01*
X130690000Y-84892608D01*
X130793605Y-84872000D01*
X130793609Y-84872000D01*
X131100470Y-84810962D01*
X131448449Y-84578449D01*
X131507142Y-84490609D01*
X132750615Y-83247138D01*
X132838449Y-83188449D01*
X132880737Y-83125161D01*
X132980000Y-83125161D01*
X133341697Y-83053215D01*
X133642120Y-82852479D01*
X134256587Y-83107000D01*
X134959249Y-83107000D01*
X137941952Y-86089705D01*
X137888187Y-86360000D01*
X138026103Y-87053351D01*
X138411408Y-87630000D01*
X138026103Y-88206649D01*
X137888187Y-88900000D01*
X138026103Y-89593351D01*
X138418855Y-90181145D01*
X138703399Y-90371272D01*
X138428355Y-90673076D01*
X138258524Y-91083110D01*
X138379845Y-91313000D01*
X139573000Y-91313000D01*
X139573000Y-91293000D01*
X139827000Y-91293000D01*
X139827000Y-91313000D01*
X141020155Y-91313000D01*
X141141476Y-91083110D01*
X140971645Y-90673076D01*
X140696601Y-90371272D01*
X140981145Y-90181145D01*
X141134255Y-89952000D01*
X143405880Y-89952000D01*
X143534903Y-90145097D01*
X143572173Y-90170000D01*
X143534903Y-90194903D01*
X143153202Y-90766158D01*
X143019167Y-91440000D01*
X143153202Y-92113842D01*
X143534903Y-92685097D01*
X143858249Y-92901150D01*
X143548959Y-93242577D01*
X143388096Y-93630961D01*
X143510085Y-93853000D01*
X144653000Y-93853000D01*
X144653000Y-93833000D01*
X144907000Y-93833000D01*
X144907000Y-93853000D01*
X146049915Y-93853000D01*
X146171904Y-93630961D01*
X146011041Y-93242577D01*
X145701751Y-92901150D01*
X146025097Y-92685097D01*
X146406798Y-92113842D01*
X146540833Y-91440000D01*
X146406798Y-90766158D01*
X146025097Y-90194903D01*
X145987827Y-90170000D01*
X146025097Y-90145097D01*
X146406798Y-89573842D01*
X146540833Y-88900000D01*
X146406798Y-88226158D01*
X146025097Y-87654903D01*
X145987827Y-87630000D01*
X146025097Y-87605097D01*
X146406798Y-87033842D01*
X146540833Y-86360000D01*
X146495526Y-86132226D01*
X146888010Y-85739742D01*
X146888009Y-98004238D01*
X146423271Y-98468976D01*
X146406798Y-98386158D01*
X146025097Y-97814903D01*
X145987827Y-97790000D01*
X146025097Y-97765097D01*
X146406798Y-97193842D01*
X146540833Y-96520000D01*
X146406798Y-95846158D01*
X146025097Y-95274903D01*
X145701751Y-95058850D01*
X146011041Y-94717423D01*
X146171904Y-94329039D01*
X146049915Y-94107000D01*
X144907000Y-94107000D01*
X144907000Y-94127000D01*
X144653000Y-94127000D01*
X144653000Y-94107000D01*
X143510085Y-94107000D01*
X143388096Y-94329039D01*
X143548959Y-94717423D01*
X143858249Y-95058850D01*
X143534903Y-95274903D01*
X143405880Y-95468000D01*
X139935753Y-95468000D01*
X136264642Y-91796890D01*
X138258524Y-91796890D01*
X138428355Y-92206924D01*
X138818642Y-92635183D01*
X139343108Y-92881486D01*
X139573000Y-92760819D01*
X139573000Y-91567000D01*
X139827000Y-91567000D01*
X139827000Y-92760819D01*
X140056892Y-92881486D01*
X140581358Y-92635183D01*
X140971645Y-92206924D01*
X141141476Y-91796890D01*
X141020155Y-91567000D01*
X139827000Y-91567000D01*
X139573000Y-91567000D01*
X138379845Y-91567000D01*
X138258524Y-91796890D01*
X136264642Y-91796890D01*
X133757000Y-89289249D01*
X133757000Y-88766424D01*
X133501692Y-88150056D01*
X133029944Y-87678308D01*
X132413576Y-87423000D01*
X131746424Y-87423000D01*
X131130056Y-87678308D01*
X130960364Y-87848000D01*
X128254120Y-87848000D01*
X128125097Y-87654903D01*
X127553842Y-87273202D01*
X127050091Y-87173000D01*
X126709909Y-87173000D01*
X126206158Y-87273202D01*
X125634903Y-87654903D01*
X125253202Y-88226158D01*
X125119167Y-88900000D01*
X125253202Y-89573842D01*
X125634903Y-90145097D01*
X126206158Y-90526798D01*
X126709909Y-90627000D01*
X127050091Y-90627000D01*
X127553842Y-90526798D01*
X128125097Y-90145097D01*
X128254120Y-89952000D01*
X130617738Y-89952000D01*
X130658308Y-90049944D01*
X131130056Y-90521692D01*
X131746424Y-90777000D01*
X132269249Y-90777000D01*
X138682862Y-97190615D01*
X138741551Y-97278449D01*
X138829385Y-97337138D01*
X138829386Y-97337139D01*
X139089530Y-97510962D01*
X139500000Y-97592609D01*
X139603609Y-97572000D01*
X143405880Y-97572000D01*
X143534903Y-97765097D01*
X143572173Y-97790000D01*
X143534903Y-97814903D01*
X143405880Y-98008000D01*
X137595753Y-98008000D01*
X133757000Y-94169249D01*
X133757000Y-93646424D01*
X133501692Y-93030056D01*
X133029944Y-92558308D01*
X132413576Y-92303000D01*
X131746424Y-92303000D01*
X131130056Y-92558308D01*
X130760364Y-92928000D01*
X128254120Y-92928000D01*
X128125097Y-92734903D01*
X127553842Y-92353202D01*
X127050091Y-92253000D01*
X126709909Y-92253000D01*
X126206158Y-92353202D01*
X125634903Y-92734903D01*
X125253202Y-93306158D01*
X125119167Y-93980000D01*
X125253202Y-94653842D01*
X125634903Y-95225097D01*
X126206158Y-95606798D01*
X126709909Y-95707000D01*
X127050091Y-95707000D01*
X127553842Y-95606798D01*
X128125097Y-95225097D01*
X128254120Y-95032000D01*
X130760364Y-95032000D01*
X131130056Y-95401692D01*
X131746424Y-95657000D01*
X132269249Y-95657000D01*
X136342862Y-99730615D01*
X136401551Y-99818449D01*
X136749530Y-100050962D01*
X137056391Y-100112000D01*
X137056395Y-100112000D01*
X137160000Y-100132608D01*
X137263605Y-100112000D01*
X143405880Y-100112000D01*
X143534903Y-100305097D01*
X143572173Y-100330000D01*
X143534903Y-100354903D01*
X143153202Y-100926158D01*
X143019167Y-101600000D01*
X143064474Y-101827774D01*
X139264249Y-105628000D01*
X136151768Y-105628000D01*
X135654912Y-105131144D01*
X134983413Y-104853000D01*
X134256587Y-104853000D01*
X133642120Y-105107521D01*
X133341697Y-104906785D01*
X132980000Y-104834839D01*
X131180000Y-104834839D01*
X130818303Y-104906785D01*
X130511670Y-105111670D01*
X130306785Y-105418303D01*
X130265074Y-105628000D01*
X128390347Y-105628000D01*
X127978267Y-105215920D01*
X127343522Y-104953000D01*
X126656478Y-104953000D01*
X126021733Y-105215920D01*
X125535920Y-105701733D01*
X125273000Y-106336478D01*
X125273000Y-107023522D01*
X125535920Y-107658267D01*
X126021733Y-108144080D01*
X126656478Y-108407000D01*
X127343522Y-108407000D01*
X127978267Y-108144080D01*
X128390347Y-107732000D01*
X130265074Y-107732000D01*
X130306785Y-107941697D01*
X130511670Y-108248330D01*
X130818303Y-108453215D01*
X131180000Y-108525161D01*
X132980000Y-108525161D01*
X133341697Y-108453215D01*
X133642120Y-108252479D01*
X134256587Y-108507000D01*
X134983413Y-108507000D01*
X135654912Y-108228856D01*
X136151768Y-107732000D01*
X139596395Y-107732000D01*
X139683018Y-107749230D01*
X136724249Y-110708000D01*
X136151768Y-110708000D01*
X135654912Y-110211144D01*
X134983413Y-109933000D01*
X134256587Y-109933000D01*
X133642120Y-110187521D01*
X133341697Y-109986785D01*
X132980000Y-109914839D01*
X131180000Y-109914839D01*
X130818303Y-109986785D01*
X130511670Y-110191670D01*
X130306785Y-110498303D01*
X130265074Y-110708000D01*
X128390347Y-110708000D01*
X127978267Y-110295920D01*
X127343522Y-110033000D01*
X126656478Y-110033000D01*
X126021733Y-110295920D01*
X125535920Y-110781733D01*
X125273000Y-111416478D01*
X125273000Y-112103522D01*
X125535920Y-112738267D01*
X126021733Y-113224080D01*
X126656478Y-113487000D01*
X127343522Y-113487000D01*
X127978267Y-113224080D01*
X128390347Y-112812000D01*
X130265074Y-112812000D01*
X130306785Y-113021697D01*
X130511670Y-113328330D01*
X130818303Y-113533215D01*
X131180000Y-113605161D01*
X131287087Y-113605161D01*
X129104249Y-115788000D01*
X126214981Y-115788000D01*
X126183215Y-115628303D01*
X125978330Y-115321670D01*
X125671697Y-115116785D01*
X125310000Y-115044839D01*
X123610000Y-115044839D01*
X123248303Y-115116785D01*
X122941670Y-115321670D01*
X122912194Y-115365784D01*
X122613351Y-115166103D01*
X122095017Y-115063000D01*
X121744983Y-115063000D01*
X121226649Y-115166103D01*
X120638855Y-115558855D01*
X120448728Y-115843399D01*
X120146924Y-115568355D01*
X119736890Y-115398524D01*
X119507000Y-115519845D01*
X119507000Y-116713000D01*
X119527000Y-116713000D01*
X119527000Y-116967000D01*
X119507000Y-116967000D01*
X119507000Y-118160155D01*
X119736890Y-118281476D01*
X120146924Y-118111645D01*
X120448728Y-117836601D01*
X120638855Y-118121145D01*
X121226649Y-118513897D01*
X121744983Y-118617000D01*
X122095017Y-118617000D01*
X122613351Y-118513897D01*
X122912194Y-118314216D01*
X122941670Y-118358330D01*
X123248303Y-118563215D01*
X123610000Y-118635161D01*
X125310000Y-118635161D01*
X125671697Y-118563215D01*
X125978330Y-118358330D01*
X126183215Y-118051697D01*
X126214981Y-117892000D01*
X129436395Y-117892000D01*
X129540000Y-117912608D01*
X129643605Y-117892000D01*
X129643609Y-117892000D01*
X129950470Y-117830962D01*
X130298449Y-117598449D01*
X130357142Y-117510609D01*
X134280753Y-113587000D01*
X134983413Y-113587000D01*
X135654912Y-113308856D01*
X136151768Y-112812000D01*
X137056395Y-112812000D01*
X137160000Y-112832608D01*
X137263605Y-112812000D01*
X137263609Y-112812000D01*
X137570470Y-112750962D01*
X137918449Y-112518449D01*
X137977142Y-112430609D01*
X143136728Y-107271023D01*
X143153202Y-107353842D01*
X143534903Y-107925097D01*
X143572173Y-107950000D01*
X143534903Y-107974903D01*
X143153202Y-108546158D01*
X143019167Y-109220000D01*
X143064474Y-109447774D01*
X141569391Y-110942858D01*
X141481551Y-111001551D01*
X141249038Y-111349531D01*
X141188000Y-111656392D01*
X141188000Y-111656395D01*
X141167392Y-111760000D01*
X141188000Y-111863605D01*
X141188001Y-124991390D01*
X141167392Y-125095000D01*
X141249038Y-125505469D01*
X141299973Y-125581698D01*
X141481552Y-125853449D01*
X141569389Y-125912140D01*
X142456000Y-126798752D01*
X142456000Y-127335963D01*
X142713135Y-127956741D01*
X143188259Y-128431865D01*
X143809037Y-128689000D01*
X144480963Y-128689000D01*
X145101741Y-128431865D01*
X145415000Y-128118606D01*
X145728259Y-128431865D01*
X146349037Y-128689000D01*
X147020963Y-128689000D01*
X147641741Y-128431865D01*
X147955000Y-128118606D01*
X148268259Y-128431865D01*
X148889037Y-128689000D01*
X149560963Y-128689000D01*
X150181741Y-128431865D01*
X150495000Y-128118606D01*
X150808259Y-128431865D01*
X151429037Y-128689000D01*
X152100963Y-128689000D01*
X152721741Y-128431865D01*
X153196865Y-127956741D01*
X153384853Y-127502898D01*
X153538710Y-127349041D01*
X158628086Y-127349041D01*
X158867611Y-127855134D01*
X159282577Y-128231041D01*
X159670961Y-128391904D01*
X159893000Y-128269915D01*
X159893000Y-127127000D01*
X160147000Y-127127000D01*
X160147000Y-128269915D01*
X160369039Y-128391904D01*
X160757423Y-128231041D01*
X161172389Y-127855134D01*
X161411914Y-127349041D01*
X161290629Y-127127000D01*
X160147000Y-127127000D01*
X159893000Y-127127000D01*
X158749371Y-127127000D01*
X158628086Y-127349041D01*
X153538710Y-127349041D01*
X153804415Y-127083337D01*
X153934450Y-126996450D01*
X153993143Y-126908610D01*
X154250794Y-126650959D01*
X158628086Y-126650959D01*
X158749371Y-126873000D01*
X159893000Y-126873000D01*
X159893000Y-125730085D01*
X160147000Y-125730085D01*
X160147000Y-126873000D01*
X161290629Y-126873000D01*
X161411914Y-126650959D01*
X161172389Y-126144866D01*
X160757423Y-125768959D01*
X160369039Y-125608096D01*
X160147000Y-125730085D01*
X159893000Y-125730085D01*
X159670961Y-125608096D01*
X159282577Y-125768959D01*
X158867611Y-126144866D01*
X158628086Y-126650959D01*
X154250794Y-126650959D01*
X154340609Y-126561144D01*
X154428449Y-126502451D01*
X154660962Y-126154472D01*
X154722000Y-125847611D01*
X154722000Y-125847608D01*
X154742608Y-125744003D01*
X154722000Y-125640398D01*
X154722000Y-121460260D01*
X178935099Y-121460260D01*
X178935099Y-127459740D01*
X179007045Y-127821437D01*
X179211930Y-128128070D01*
X179518563Y-128332955D01*
X179880260Y-128404901D01*
X185879740Y-128404901D01*
X186241437Y-128332955D01*
X186548070Y-128128070D01*
X186752955Y-127821437D01*
X186824901Y-127459740D01*
X186824901Y-127056443D01*
X188083162Y-127056443D01*
X188425723Y-127531063D01*
X189758863Y-128091084D01*
X191204834Y-128098305D01*
X192543501Y-127551627D01*
X192574277Y-127531063D01*
X192916838Y-127056443D01*
X190500000Y-124639605D01*
X188083162Y-127056443D01*
X186824901Y-127056443D01*
X186824901Y-125164834D01*
X186861695Y-125164834D01*
X187408373Y-126503501D01*
X187428937Y-126534277D01*
X187903557Y-126876838D01*
X190320395Y-124460000D01*
X190679605Y-124460000D01*
X193096443Y-126876838D01*
X193571063Y-126534277D01*
X194131084Y-125201137D01*
X194138305Y-123755166D01*
X193591627Y-122416499D01*
X193571063Y-122385723D01*
X193096443Y-122043162D01*
X190679605Y-124460000D01*
X190320395Y-124460000D01*
X187903557Y-122043162D01*
X187428937Y-122385723D01*
X186868916Y-123718863D01*
X186861695Y-125164834D01*
X186824901Y-125164834D01*
X186824901Y-121863557D01*
X188083162Y-121863557D01*
X190500000Y-124280395D01*
X192916838Y-121863557D01*
X192574277Y-121388937D01*
X191241137Y-120828916D01*
X189795166Y-120821695D01*
X188456499Y-121368373D01*
X188425723Y-121388937D01*
X188083162Y-121863557D01*
X186824901Y-121863557D01*
X186824901Y-121460260D01*
X186752955Y-121098563D01*
X186548070Y-120791930D01*
X186241437Y-120587045D01*
X185879740Y-120515099D01*
X179880260Y-120515099D01*
X179518563Y-120587045D01*
X179211930Y-120791930D01*
X179007045Y-121098563D01*
X178935099Y-121460260D01*
X154722000Y-121460260D01*
X154722000Y-120753603D01*
X154742608Y-120649999D01*
X154722000Y-120546395D01*
X154722000Y-120546391D01*
X154660962Y-120239530D01*
X154428449Y-119891551D01*
X154340612Y-119832860D01*
X154227000Y-119719248D01*
X154227000Y-119040752D01*
X154295613Y-118972139D01*
X154383450Y-118913448D01*
X154615963Y-118565469D01*
X154677001Y-118258608D01*
X154677001Y-118258605D01*
X154697609Y-118155000D01*
X154677001Y-118051395D01*
X154677001Y-116496478D01*
X158293000Y-116496478D01*
X158293000Y-117183522D01*
X158555920Y-117818267D01*
X159041733Y-118304080D01*
X159676478Y-118567000D01*
X160363522Y-118567000D01*
X160998267Y-118304080D01*
X161484080Y-117818267D01*
X161741461Y-117196892D01*
X168738514Y-117196892D01*
X168984817Y-117721358D01*
X169413076Y-118111645D01*
X169823110Y-118281476D01*
X170053000Y-118160155D01*
X170053000Y-116967000D01*
X168859181Y-116967000D01*
X168738514Y-117196892D01*
X161741461Y-117196892D01*
X161747000Y-117183522D01*
X161747000Y-116496478D01*
X161741462Y-116483108D01*
X168738514Y-116483108D01*
X168859181Y-116713000D01*
X170053000Y-116713000D01*
X170053000Y-115519845D01*
X169823110Y-115398524D01*
X169413076Y-115568355D01*
X168984817Y-115958642D01*
X168738514Y-116483108D01*
X161741462Y-116483108D01*
X161484080Y-115861733D01*
X160998267Y-115375920D01*
X160363522Y-115113000D01*
X159676478Y-115113000D01*
X159041733Y-115375920D01*
X158555920Y-115861733D01*
X158293000Y-116496478D01*
X154677001Y-116496478D01*
X154677001Y-112780296D01*
X154836391Y-112812000D01*
X154836395Y-112812000D01*
X154939999Y-112832608D01*
X155043603Y-112812000D01*
X158488232Y-112812000D01*
X158985088Y-113308856D01*
X159656587Y-113587000D01*
X160359248Y-113587000D01*
X161742862Y-114970615D01*
X161801551Y-115058449D01*
X162149530Y-115290962D01*
X162456391Y-115352000D01*
X162456395Y-115352000D01*
X162559999Y-115372608D01*
X162663603Y-115352000D01*
X171748435Y-115352000D01*
X171438855Y-115558855D01*
X171248728Y-115843399D01*
X170946924Y-115568355D01*
X170536890Y-115398524D01*
X170307000Y-115519845D01*
X170307000Y-116713000D01*
X170327000Y-116713000D01*
X170327000Y-116967000D01*
X170307000Y-116967000D01*
X170307000Y-118160155D01*
X170536890Y-118281476D01*
X170946924Y-118111645D01*
X171248728Y-117836601D01*
X171438855Y-118121145D01*
X172026649Y-118513897D01*
X172544983Y-118617000D01*
X172895017Y-118617000D01*
X173413351Y-118513897D01*
X173712194Y-118314216D01*
X173741670Y-118358330D01*
X174048303Y-118563215D01*
X174410000Y-118635161D01*
X176110000Y-118635161D01*
X176471697Y-118563215D01*
X176778330Y-118358330D01*
X176983215Y-118051697D01*
X177055161Y-117690000D01*
X177055161Y-115990000D01*
X176983215Y-115628303D01*
X176778330Y-115321670D01*
X176471697Y-115116785D01*
X176110000Y-115044839D01*
X176060737Y-115044839D01*
X176018449Y-114981551D01*
X175930615Y-114922862D01*
X174637142Y-113629391D01*
X174578449Y-113541551D01*
X174230470Y-113309038D01*
X173923609Y-113248000D01*
X173923605Y-113248000D01*
X173820000Y-113227392D01*
X173716395Y-113248000D01*
X168560519Y-113248000D01*
X168618267Y-113224080D01*
X169104080Y-112738267D01*
X169364714Y-112109039D01*
X176408096Y-112109039D01*
X176568959Y-112497423D01*
X176944866Y-112912389D01*
X177450959Y-113151914D01*
X177673000Y-113030629D01*
X177673000Y-111887000D01*
X177927000Y-111887000D01*
X177927000Y-113030629D01*
X178149041Y-113151914D01*
X178655134Y-112912389D01*
X179031041Y-112497423D01*
X179191904Y-112109039D01*
X179069915Y-111887000D01*
X177927000Y-111887000D01*
X177673000Y-111887000D01*
X176530085Y-111887000D01*
X176408096Y-112109039D01*
X169364714Y-112109039D01*
X169367000Y-112103522D01*
X169367000Y-111416478D01*
X169364715Y-111410961D01*
X176408096Y-111410961D01*
X176530085Y-111633000D01*
X177673000Y-111633000D01*
X177673000Y-110489371D01*
X177927000Y-110489371D01*
X177927000Y-111633000D01*
X179069915Y-111633000D01*
X179191904Y-111410961D01*
X179031041Y-111022577D01*
X178655134Y-110607611D01*
X178149041Y-110368086D01*
X177927000Y-110489371D01*
X177673000Y-110489371D01*
X177450959Y-110368086D01*
X176944866Y-110607611D01*
X176568959Y-111022577D01*
X176408096Y-111410961D01*
X169364715Y-111410961D01*
X169104080Y-110781733D01*
X168618267Y-110295920D01*
X167983522Y-110033000D01*
X167296478Y-110033000D01*
X166661733Y-110295920D01*
X166249653Y-110708000D01*
X164374926Y-110708000D01*
X164333215Y-110498303D01*
X164128330Y-110191670D01*
X163821697Y-109986785D01*
X163460000Y-109914839D01*
X161660000Y-109914839D01*
X161298303Y-109986785D01*
X160997880Y-110187521D01*
X160383413Y-109933000D01*
X159656587Y-109933000D01*
X158985088Y-110211144D01*
X158488232Y-110708000D01*
X155375753Y-110708000D01*
X154115526Y-109447774D01*
X154160833Y-109220000D01*
X154026798Y-108546158D01*
X153645097Y-107974903D01*
X153607827Y-107950000D01*
X153645097Y-107925097D01*
X153774120Y-107732000D01*
X158488232Y-107732000D01*
X158985088Y-108228856D01*
X159656587Y-108507000D01*
X160383413Y-108507000D01*
X160997880Y-108252479D01*
X161298303Y-108453215D01*
X161660000Y-108525161D01*
X163460000Y-108525161D01*
X163821697Y-108453215D01*
X164128330Y-108248330D01*
X164333215Y-107941697D01*
X164374926Y-107732000D01*
X166249653Y-107732000D01*
X166661733Y-108144080D01*
X167296478Y-108407000D01*
X167983522Y-108407000D01*
X168618267Y-108144080D01*
X169104080Y-107658267D01*
X169364714Y-107029039D01*
X176408096Y-107029039D01*
X176568959Y-107417423D01*
X176944866Y-107832389D01*
X177450959Y-108071914D01*
X177673000Y-107950629D01*
X177673000Y-106807000D01*
X177927000Y-106807000D01*
X177927000Y-107950629D01*
X178149041Y-108071914D01*
X178655134Y-107832389D01*
X179031041Y-107417423D01*
X179191904Y-107029039D01*
X179069915Y-106807000D01*
X177927000Y-106807000D01*
X177673000Y-106807000D01*
X176530085Y-106807000D01*
X176408096Y-107029039D01*
X169364714Y-107029039D01*
X169367000Y-107023522D01*
X169367000Y-106336478D01*
X169364715Y-106330961D01*
X176408096Y-106330961D01*
X176530085Y-106553000D01*
X177673000Y-106553000D01*
X177673000Y-105409371D01*
X177927000Y-105409371D01*
X177927000Y-106553000D01*
X179069915Y-106553000D01*
X179191904Y-106330961D01*
X179031041Y-105942577D01*
X178655134Y-105527611D01*
X178149041Y-105288086D01*
X177927000Y-105409371D01*
X177673000Y-105409371D01*
X177450959Y-105288086D01*
X176944866Y-105527611D01*
X176568959Y-105942577D01*
X176408096Y-106330961D01*
X169364715Y-106330961D01*
X169104080Y-105701733D01*
X168618267Y-105215920D01*
X168560519Y-105192000D01*
X178966395Y-105192000D01*
X179070000Y-105212608D01*
X179173605Y-105192000D01*
X179173609Y-105192000D01*
X179480470Y-105130962D01*
X179828449Y-104898449D01*
X179887142Y-104810609D01*
X180177995Y-104519756D01*
X180338355Y-104906924D01*
X180728642Y-105335183D01*
X181253108Y-105581486D01*
X181483000Y-105460819D01*
X181483000Y-104267000D01*
X181737000Y-104267000D01*
X181737000Y-105460819D01*
X181966892Y-105581486D01*
X182491358Y-105335183D01*
X182881645Y-104906924D01*
X183051476Y-104496890D01*
X182930155Y-104267000D01*
X181737000Y-104267000D01*
X181483000Y-104267000D01*
X181463000Y-104267000D01*
X181463000Y-104013000D01*
X181483000Y-104013000D01*
X181483000Y-103993000D01*
X181737000Y-103993000D01*
X181737000Y-104013000D01*
X182930155Y-104013000D01*
X183051476Y-103783110D01*
X182881645Y-103373076D01*
X182606601Y-103071272D01*
X182891145Y-102881145D01*
X183283897Y-102293351D01*
X183421813Y-101600000D01*
X183283897Y-100906649D01*
X183084216Y-100607806D01*
X183128330Y-100578330D01*
X183333215Y-100271697D01*
X183405161Y-99910000D01*
X183405161Y-98210000D01*
X183333215Y-97848303D01*
X183128330Y-97541670D01*
X182821697Y-97336785D01*
X182460000Y-97264839D01*
X180760000Y-97264839D01*
X180398303Y-97336785D01*
X180091670Y-97541670D01*
X179886785Y-97848303D01*
X179814839Y-98210000D01*
X179814839Y-99910000D01*
X179886785Y-100271697D01*
X180091670Y-100578330D01*
X180135784Y-100607806D01*
X179936103Y-100906649D01*
X179798187Y-101600000D01*
X179851952Y-101870296D01*
X178634249Y-103088000D01*
X168560519Y-103088000D01*
X168618267Y-103064080D01*
X169104080Y-102578267D01*
X169364714Y-101949039D01*
X176408096Y-101949039D01*
X176568959Y-102337423D01*
X176944866Y-102752389D01*
X177450959Y-102991914D01*
X177673000Y-102870629D01*
X177673000Y-101727000D01*
X177927000Y-101727000D01*
X177927000Y-102870629D01*
X178149041Y-102991914D01*
X178655134Y-102752389D01*
X179031041Y-102337423D01*
X179191904Y-101949039D01*
X179069915Y-101727000D01*
X177927000Y-101727000D01*
X177673000Y-101727000D01*
X176530085Y-101727000D01*
X176408096Y-101949039D01*
X169364714Y-101949039D01*
X169367000Y-101943522D01*
X169367000Y-101256478D01*
X169364715Y-101250961D01*
X176408096Y-101250961D01*
X176530085Y-101473000D01*
X177673000Y-101473000D01*
X177673000Y-100329371D01*
X177927000Y-100329371D01*
X177927000Y-101473000D01*
X179069915Y-101473000D01*
X179191904Y-101250961D01*
X179031041Y-100862577D01*
X178655134Y-100447611D01*
X178149041Y-100208086D01*
X177927000Y-100329371D01*
X177673000Y-100329371D01*
X177450959Y-100208086D01*
X176944866Y-100447611D01*
X176568959Y-100862577D01*
X176408096Y-101250961D01*
X169364715Y-101250961D01*
X169104080Y-100621733D01*
X168618267Y-100135920D01*
X167983522Y-99873000D01*
X167296478Y-99873000D01*
X166661733Y-100135920D01*
X166249653Y-100548000D01*
X164374926Y-100548000D01*
X164333215Y-100338303D01*
X164128330Y-100031670D01*
X163821697Y-99826785D01*
X163460000Y-99754839D01*
X161660000Y-99754839D01*
X161298303Y-99826785D01*
X160997880Y-100027521D01*
X160383413Y-99773000D01*
X159656587Y-99773000D01*
X158985088Y-100051144D01*
X158488232Y-100548000D01*
X155375753Y-100548000D01*
X154115526Y-99287774D01*
X154160833Y-99060000D01*
X154026798Y-98386158D01*
X153645097Y-97814903D01*
X153607827Y-97790000D01*
X153645097Y-97765097D01*
X154026798Y-97193842D01*
X154160833Y-96520000D01*
X154026798Y-95846158D01*
X153645097Y-95274903D01*
X153607827Y-95250000D01*
X153645097Y-95225097D01*
X154026798Y-94653842D01*
X154160833Y-93980000D01*
X154026798Y-93306158D01*
X153645097Y-92734903D01*
X153321751Y-92518850D01*
X153631041Y-92177423D01*
X153791904Y-91789039D01*
X153669915Y-91567000D01*
X152527000Y-91567000D01*
X152527000Y-91587000D01*
X152273000Y-91587000D01*
X152273000Y-91567000D01*
X151130085Y-91567000D01*
X151008096Y-91789039D01*
X151168959Y-92177423D01*
X151478249Y-92518850D01*
X151154903Y-92734903D01*
X150912000Y-93098432D01*
X150912000Y-89781568D01*
X151154903Y-90145097D01*
X151478249Y-90361150D01*
X151168959Y-90702577D01*
X151008096Y-91090961D01*
X151130085Y-91313000D01*
X152273000Y-91313000D01*
X152273000Y-91293000D01*
X152527000Y-91293000D01*
X152527000Y-91313000D01*
X153669915Y-91313000D01*
X153791904Y-91090961D01*
X153631041Y-90702577D01*
X153321751Y-90361150D01*
X153645097Y-90145097D01*
X153774120Y-89952000D01*
X159855745Y-89952000D01*
X160001408Y-90170000D01*
X159616103Y-90746649D01*
X159478187Y-91440000D01*
X159531952Y-91710296D01*
X159349391Y-91892858D01*
X159261551Y-91951551D01*
X159029038Y-92299531D01*
X158968000Y-92606392D01*
X158968000Y-92606395D01*
X158947392Y-92710000D01*
X158968000Y-92813605D01*
X158968001Y-94988231D01*
X158471144Y-95485088D01*
X158193000Y-96156587D01*
X158193000Y-96883413D01*
X158471144Y-97554912D01*
X158985088Y-98068856D01*
X159656587Y-98347000D01*
X160383413Y-98347000D01*
X160997880Y-98092479D01*
X161298303Y-98293215D01*
X161660000Y-98365161D01*
X163460000Y-98365161D01*
X163821697Y-98293215D01*
X164128330Y-98088330D01*
X164333215Y-97781697D01*
X164374926Y-97572000D01*
X166249653Y-97572000D01*
X166661733Y-97984080D01*
X167296478Y-98247000D01*
X167983522Y-98247000D01*
X168618267Y-97984080D01*
X169104080Y-97498267D01*
X169364714Y-96869039D01*
X176408096Y-96869039D01*
X176568959Y-97257423D01*
X176944866Y-97672389D01*
X177450959Y-97911914D01*
X177673000Y-97790629D01*
X177673000Y-96647000D01*
X177927000Y-96647000D01*
X177927000Y-97790629D01*
X178149041Y-97911914D01*
X178655134Y-97672389D01*
X179031041Y-97257423D01*
X179191904Y-96869039D01*
X179069915Y-96647000D01*
X177927000Y-96647000D01*
X177673000Y-96647000D01*
X176530085Y-96647000D01*
X176408096Y-96869039D01*
X169364714Y-96869039D01*
X169367000Y-96863522D01*
X169367000Y-96176478D01*
X169364715Y-96170961D01*
X176408096Y-96170961D01*
X176530085Y-96393000D01*
X177673000Y-96393000D01*
X177673000Y-95249371D01*
X177927000Y-95249371D01*
X177927000Y-96393000D01*
X179069915Y-96393000D01*
X179191904Y-96170961D01*
X179031041Y-95782577D01*
X178655134Y-95367611D01*
X178149041Y-95128086D01*
X177927000Y-95249371D01*
X177673000Y-95249371D01*
X177450959Y-95128086D01*
X176944866Y-95367611D01*
X176568959Y-95782577D01*
X176408096Y-96170961D01*
X169364715Y-96170961D01*
X169104080Y-95541733D01*
X168618267Y-95055920D01*
X167983522Y-94793000D01*
X167296478Y-94793000D01*
X166661733Y-95055920D01*
X166249653Y-95468000D01*
X164374926Y-95468000D01*
X164333215Y-95258303D01*
X164128330Y-94951670D01*
X163821697Y-94746785D01*
X163460000Y-94674839D01*
X161660000Y-94674839D01*
X161298303Y-94746785D01*
X161072000Y-94897995D01*
X161072000Y-93208450D01*
X161114983Y-93217000D01*
X161465017Y-93217000D01*
X161983351Y-93113897D01*
X162571145Y-92721145D01*
X162963897Y-92133351D01*
X163101813Y-91440000D01*
X162963897Y-90746649D01*
X162578592Y-90170000D01*
X162963897Y-89593351D01*
X163101813Y-88900000D01*
X162963897Y-88206649D01*
X162578592Y-87630000D01*
X162963897Y-87053351D01*
X163101813Y-86360000D01*
X162963897Y-85666649D01*
X162578592Y-85090000D01*
X162963897Y-84513351D01*
X163101813Y-83820000D01*
X162963897Y-83126649D01*
X162594387Y-82573639D01*
X162678327Y-82489699D01*
X162775000Y-82256310D01*
X162775000Y-81565750D01*
X162616250Y-81407000D01*
X161417000Y-81407000D01*
X161417000Y-81427000D01*
X161163000Y-81427000D01*
X161163000Y-81407000D01*
X159963750Y-81407000D01*
X159805000Y-81565750D01*
X159805000Y-82256310D01*
X159901673Y-82489699D01*
X159985613Y-82573639D01*
X159855745Y-82768000D01*
X153774120Y-82768000D01*
X153645097Y-82574903D01*
X153607827Y-82550000D01*
X153645097Y-82525097D01*
X154026798Y-81953842D01*
X154160833Y-81280000D01*
X154026798Y-80606158D01*
X153824696Y-80303690D01*
X159805000Y-80303690D01*
X159805000Y-80994250D01*
X159963750Y-81153000D01*
X161163000Y-81153000D01*
X161163000Y-79953750D01*
X161417000Y-79953750D01*
X161417000Y-81153000D01*
X162616250Y-81153000D01*
X162775000Y-80994250D01*
X162775000Y-80303690D01*
X162678327Y-80070301D01*
X162499698Y-79891673D01*
X162266309Y-79795000D01*
X161575750Y-79795000D01*
X161417000Y-79953750D01*
X161163000Y-79953750D01*
X161004250Y-79795000D01*
X160313691Y-79795000D01*
X160080302Y-79891673D01*
X159901673Y-80070301D01*
X159805000Y-80303690D01*
X153824696Y-80303690D01*
X153645097Y-80034903D01*
X153607827Y-80010000D01*
X153645097Y-79985097D01*
X153774199Y-79791883D01*
X154080470Y-79730962D01*
X154428449Y-79498449D01*
X154487142Y-79410609D01*
X154777995Y-79119756D01*
X154938355Y-79506924D01*
X155328642Y-79935183D01*
X155853108Y-80181486D01*
X156083000Y-80060819D01*
X156083000Y-78867000D01*
X156337000Y-78867000D01*
X156337000Y-80060819D01*
X156566892Y-80181486D01*
X157091358Y-79935183D01*
X157481645Y-79506924D01*
X157651476Y-79096890D01*
X157530155Y-78867000D01*
X156337000Y-78867000D01*
X156083000Y-78867000D01*
X156063000Y-78867000D01*
X156063000Y-78613000D01*
X156083000Y-78613000D01*
X156083000Y-78593000D01*
X156337000Y-78593000D01*
X156337000Y-78613000D01*
X157530155Y-78613000D01*
X157651476Y-78383110D01*
X157481645Y-77973076D01*
X157206601Y-77671272D01*
X157491145Y-77481145D01*
X157728126Y-77126478D01*
X177343000Y-77126478D01*
X177343000Y-77813522D01*
X177605920Y-78448267D01*
X178091733Y-78934080D01*
X178726478Y-79197000D01*
X179413522Y-79197000D01*
X180048267Y-78934080D01*
X180534080Y-78448267D01*
X180797000Y-77813522D01*
X180797000Y-77126478D01*
X180534080Y-76491733D01*
X180048267Y-76005920D01*
X179413522Y-75743000D01*
X178726478Y-75743000D01*
X178091733Y-76005920D01*
X177605920Y-76491733D01*
X177343000Y-77126478D01*
X157728126Y-77126478D01*
X157883897Y-76893351D01*
X158021813Y-76200000D01*
X157883897Y-75506649D01*
X157684216Y-75207806D01*
X157728330Y-75178330D01*
X157933215Y-74871697D01*
X158005161Y-74510000D01*
X158005161Y-72810000D01*
X157975325Y-72660000D01*
X159392339Y-72660000D01*
X159392339Y-74660000D01*
X159464285Y-75021697D01*
X159669170Y-75328330D01*
X159975803Y-75533215D01*
X160337500Y-75605161D01*
X162242500Y-75605161D01*
X162604197Y-75533215D01*
X162910830Y-75328330D01*
X163073982Y-75084155D01*
X163457020Y-75250563D01*
X163703000Y-75130594D01*
X163703000Y-73787000D01*
X163683000Y-73787000D01*
X163683000Y-73533000D01*
X163703000Y-73533000D01*
X163703000Y-72189406D01*
X163957000Y-72189406D01*
X163957000Y-73533000D01*
X163977000Y-73533000D01*
X163977000Y-73787000D01*
X163957000Y-73787000D01*
X163957000Y-75130594D01*
X164202980Y-75250563D01*
X164696924Y-75035973D01*
X164878491Y-74858310D01*
X165014956Y-75062544D01*
X165636657Y-75477950D01*
X166370000Y-75623821D01*
X167103344Y-75477950D01*
X167725044Y-75062544D01*
X168140450Y-74440843D01*
X168249500Y-73892611D01*
X168249500Y-73427388D01*
X168140450Y-72879156D01*
X168127651Y-72860000D01*
X169704839Y-72860000D01*
X169704839Y-74460000D01*
X169776785Y-74821697D01*
X169981670Y-75128330D01*
X170288303Y-75333215D01*
X170650000Y-75405161D01*
X172250000Y-75405161D01*
X172611697Y-75333215D01*
X172918330Y-75128330D01*
X172990823Y-75019837D01*
X173233223Y-75106965D01*
X173803454Y-75079778D01*
X174204005Y-74913864D01*
X174278139Y-74667745D01*
X173450000Y-73839605D01*
X173435858Y-73853748D01*
X173256253Y-73674143D01*
X173270395Y-73660000D01*
X173629605Y-73660000D01*
X174457745Y-74488139D01*
X174703864Y-74414005D01*
X174896965Y-73876777D01*
X174869778Y-73306546D01*
X174703864Y-72905995D01*
X174457745Y-72831861D01*
X173629605Y-73660000D01*
X173270395Y-73660000D01*
X173256253Y-73645858D01*
X173435858Y-73466253D01*
X173450000Y-73480395D01*
X174278139Y-72652255D01*
X174204005Y-72406136D01*
X173666777Y-72213035D01*
X173096546Y-72240222D01*
X172982371Y-72287515D01*
X172918330Y-72191670D01*
X172611697Y-71986785D01*
X172250000Y-71914839D01*
X170650000Y-71914839D01*
X170288303Y-71986785D01*
X169981670Y-72191670D01*
X169776785Y-72498303D01*
X169704839Y-72860000D01*
X168127651Y-72860000D01*
X167725044Y-72257456D01*
X167103343Y-71842050D01*
X166370000Y-71696179D01*
X165636656Y-71842050D01*
X165014956Y-72257456D01*
X164878491Y-72461690D01*
X164696924Y-72284027D01*
X164202980Y-72069437D01*
X163957000Y-72189406D01*
X163703000Y-72189406D01*
X163457020Y-72069437D01*
X163073982Y-72235845D01*
X162910830Y-71991670D01*
X162604197Y-71786785D01*
X162242500Y-71714839D01*
X160337500Y-71714839D01*
X159975803Y-71786785D01*
X159669170Y-71991670D01*
X159464285Y-72298303D01*
X159392339Y-72660000D01*
X157975325Y-72660000D01*
X157933215Y-72448303D01*
X157728330Y-72141670D01*
X157421697Y-71936785D01*
X157060000Y-71864839D01*
X155360000Y-71864839D01*
X154998303Y-71936785D01*
X154691670Y-72141670D01*
X154486785Y-72448303D01*
X154414839Y-72810000D01*
X154414839Y-74510000D01*
X154486785Y-74871697D01*
X154691670Y-75178330D01*
X154735784Y-75207806D01*
X154536103Y-75506649D01*
X154398187Y-76200000D01*
X154451952Y-76470296D01*
X153983286Y-76938962D01*
X154026798Y-76873842D01*
X154160833Y-76200000D01*
X154026798Y-75526158D01*
X153645097Y-74954903D01*
X153073842Y-74573202D01*
X152570091Y-74473000D01*
X152229909Y-74473000D01*
X152184661Y-74482000D01*
X152254976Y-74411685D01*
X152457000Y-73923957D01*
X152457000Y-73396043D01*
X152254976Y-72908315D01*
X151881685Y-72535024D01*
X151850602Y-72522149D01*
X154053710Y-70319041D01*
X177678086Y-70319041D01*
X177917611Y-70825134D01*
X178332577Y-71201041D01*
X178720961Y-71361904D01*
X178943000Y-71239915D01*
X178943000Y-70097000D01*
X179197000Y-70097000D01*
X179197000Y-71239915D01*
X179419039Y-71361904D01*
X179807423Y-71201041D01*
X180222389Y-70825134D01*
X180461914Y-70319041D01*
X180340629Y-70097000D01*
X179197000Y-70097000D01*
X178943000Y-70097000D01*
X177799371Y-70097000D01*
X177678086Y-70319041D01*
X154053710Y-70319041D01*
X154751792Y-69620959D01*
X177678086Y-69620959D01*
X177799371Y-69843000D01*
X178943000Y-69843000D01*
X178943000Y-68700085D01*
X179197000Y-68700085D01*
X179197000Y-69843000D01*
X180340629Y-69843000D01*
X180461914Y-69620959D01*
X180222389Y-69114866D01*
X179807423Y-68738959D01*
X179419039Y-68578096D01*
X179197000Y-68700085D01*
X178943000Y-68700085D01*
X178720961Y-68578096D01*
X178332577Y-68738959D01*
X177917611Y-69114866D01*
X177678086Y-69620959D01*
X154751792Y-69620959D01*
X171485612Y-52887140D01*
X171573449Y-52828449D01*
X171805962Y-52480470D01*
X171867000Y-52173609D01*
X171867000Y-52173606D01*
X171887608Y-52070001D01*
X171867000Y-51966396D01*
X171867000Y-47474981D01*
X172026697Y-47443215D01*
X172333330Y-47238330D01*
X172362806Y-47194216D01*
X172661649Y-47393897D01*
X173179983Y-47497000D01*
X173530017Y-47497000D01*
X174048351Y-47393897D01*
X174636145Y-47001145D01*
X174826272Y-46716601D01*
X175128076Y-46991645D01*
X175538110Y-47161476D01*
X175768000Y-47040155D01*
X175768000Y-45847000D01*
X176022000Y-45847000D01*
X176022000Y-47040155D01*
X176251890Y-47161476D01*
X176661924Y-46991645D01*
X177090183Y-46601358D01*
X177336486Y-46076892D01*
X177215819Y-45847000D01*
X176022000Y-45847000D01*
X175768000Y-45847000D01*
X175748000Y-45847000D01*
X175748000Y-45593000D01*
X175768000Y-45593000D01*
X175768000Y-44399845D01*
X176022000Y-44399845D01*
X176022000Y-45593000D01*
X177215819Y-45593000D01*
X177336486Y-45363108D01*
X177090183Y-44838642D01*
X176661924Y-44448355D01*
X176251890Y-44278524D01*
X176022000Y-44399845D01*
X175768000Y-44399845D01*
X175538110Y-44278524D01*
X175128076Y-44448355D01*
X174826272Y-44723399D01*
X174636145Y-44438855D01*
X174048351Y-44046103D01*
X173530017Y-43943000D01*
X173179983Y-43943000D01*
X172661649Y-44046103D01*
X172362806Y-44245784D01*
X172333330Y-44201670D01*
X172026697Y-43996785D01*
X171665000Y-43924839D01*
X169965000Y-43924839D01*
X169603303Y-43996785D01*
X169296670Y-44201670D01*
X169091785Y-44508303D01*
X169019839Y-44870000D01*
X169019839Y-46570000D01*
X169091785Y-46931697D01*
X169296670Y-47238330D01*
X169603303Y-47443215D01*
X169763001Y-47474981D01*
X169763000Y-51634248D01*
X147722500Y-73674748D01*
X133271502Y-59223750D01*
X142555000Y-59223750D01*
X142555000Y-61541309D01*
X142651673Y-61774698D01*
X142830301Y-61953327D01*
X143063690Y-62050000D01*
X145731250Y-62050000D01*
X145890000Y-61891250D01*
X145890000Y-59065000D01*
X151290000Y-59065000D01*
X151290000Y-61891250D01*
X151448750Y-62050000D01*
X154116310Y-62050000D01*
X154349699Y-61953327D01*
X154528327Y-61774698D01*
X154625000Y-61541309D01*
X154625000Y-59223750D01*
X154466250Y-59065000D01*
X151290000Y-59065000D01*
X145890000Y-59065000D01*
X142713750Y-59065000D01*
X142555000Y-59223750D01*
X133271502Y-59223750D01*
X121495033Y-47447282D01*
X121744983Y-47497000D01*
X122095017Y-47497000D01*
X122613351Y-47393897D01*
X123201145Y-47001145D01*
X123391272Y-46716601D01*
X123693076Y-46991645D01*
X124103110Y-47161476D01*
X124333000Y-47040155D01*
X124333000Y-45847000D01*
X124587000Y-45847000D01*
X124587000Y-47040155D01*
X124816890Y-47161476D01*
X125226924Y-46991645D01*
X125655183Y-46601358D01*
X125901486Y-46076892D01*
X125780819Y-45847000D01*
X124587000Y-45847000D01*
X124333000Y-45847000D01*
X124313000Y-45847000D01*
X124313000Y-45593000D01*
X124333000Y-45593000D01*
X124333000Y-44399845D01*
X124587000Y-44399845D01*
X124587000Y-45593000D01*
X125780819Y-45593000D01*
X125901486Y-45363108D01*
X125655183Y-44838642D01*
X125226924Y-44448355D01*
X124816890Y-44278524D01*
X124587000Y-44399845D01*
X124333000Y-44399845D01*
X124103110Y-44278524D01*
X123693076Y-44448355D01*
X123391272Y-44723399D01*
X123201145Y-44438855D01*
X122613351Y-44046103D01*
X122095017Y-43943000D01*
X121744983Y-43943000D01*
X121226649Y-44046103D01*
X120927806Y-44245784D01*
X120898330Y-44201670D01*
X120591697Y-43996785D01*
X120230000Y-43924839D01*
X118530000Y-43924839D01*
X118168303Y-43996785D01*
X117861670Y-44201670D01*
X117656785Y-44508303D01*
X117584839Y-44870000D01*
X117584839Y-46570000D01*
X117656785Y-46931697D01*
X117861670Y-47238330D01*
X118168303Y-47443215D01*
X118530000Y-47515161D01*
X118579264Y-47515161D01*
X118621552Y-47578449D01*
X118709389Y-47637140D01*
X142648476Y-71576228D01*
X142525469Y-71494037D01*
X142218608Y-71432999D01*
X142218604Y-71432999D01*
X142114999Y-71412391D01*
X142011394Y-71432999D01*
X138693602Y-71432999D01*
X138589998Y-71412391D01*
X138486394Y-71432999D01*
X138486390Y-71432999D01*
X138179529Y-71494037D01*
X137831550Y-71726550D01*
X137772861Y-71814384D01*
X136443150Y-73144096D01*
X136390450Y-72879156D01*
X135975044Y-72257456D01*
X135353343Y-71842050D01*
X134620000Y-71696179D01*
X133886656Y-71842050D01*
X133264956Y-72257456D01*
X133128491Y-72461690D01*
X132946924Y-72284027D01*
X132452980Y-72069437D01*
X132207000Y-72189406D01*
X132207000Y-73533000D01*
X132227000Y-73533000D01*
X132227000Y-73787000D01*
X132207000Y-73787000D01*
X132207000Y-75130594D01*
X132452980Y-75250563D01*
X132946924Y-75035973D01*
X133128491Y-74858310D01*
X133264956Y-75062544D01*
X133886657Y-75477950D01*
X134072358Y-75514888D01*
X130629247Y-78958000D01*
X128374120Y-78958000D01*
X128245097Y-78764903D01*
X127673842Y-78383202D01*
X127170091Y-78283000D01*
X126829909Y-78283000D01*
X126326158Y-78383202D01*
X125754903Y-78764903D01*
X125625801Y-78958117D01*
X125319530Y-79019038D01*
X125122829Y-79150470D01*
X124971551Y-79251551D01*
X124912862Y-79339385D01*
X117199985Y-87052263D01*
X117034080Y-86651733D01*
X116548267Y-86165920D01*
X115913522Y-85903000D01*
X115226478Y-85903000D01*
X114591733Y-86165920D01*
X114179653Y-86578000D01*
X113194255Y-86578000D01*
X113048592Y-86360000D01*
X113433897Y-85783351D01*
X113571813Y-85090000D01*
X113433897Y-84396649D01*
X113281813Y-84169039D01*
X115448096Y-84169039D01*
X115608959Y-84557423D01*
X115984866Y-84972389D01*
X116490959Y-85211914D01*
X116713000Y-85090629D01*
X116713000Y-83947000D01*
X116967000Y-83947000D01*
X116967000Y-85090629D01*
X117189041Y-85211914D01*
X117695134Y-84972389D01*
X118071041Y-84557423D01*
X118231904Y-84169039D01*
X118109915Y-83947000D01*
X116967000Y-83947000D01*
X116713000Y-83947000D01*
X115570085Y-83947000D01*
X115448096Y-84169039D01*
X113281813Y-84169039D01*
X113048592Y-83820000D01*
X113281812Y-83470961D01*
X115448096Y-83470961D01*
X115570085Y-83693000D01*
X116713000Y-83693000D01*
X116713000Y-82549371D01*
X116967000Y-82549371D01*
X116967000Y-83693000D01*
X118109915Y-83693000D01*
X118231904Y-83470961D01*
X118071041Y-83082577D01*
X117695134Y-82667611D01*
X117189041Y-82428086D01*
X116967000Y-82549371D01*
X116713000Y-82549371D01*
X116490959Y-82428086D01*
X115984866Y-82667611D01*
X115608959Y-83082577D01*
X115448096Y-83470961D01*
X113281812Y-83470961D01*
X113433897Y-83243351D01*
X113571813Y-82550000D01*
X113433897Y-81856649D01*
X113048592Y-81280000D01*
X113433897Y-80703351D01*
X113571813Y-80010000D01*
X113503483Y-79666478D01*
X115113000Y-79666478D01*
X115113000Y-80353522D01*
X115375920Y-80988267D01*
X115861733Y-81474080D01*
X116496478Y-81737000D01*
X117183522Y-81737000D01*
X117818267Y-81474080D01*
X118304080Y-80988267D01*
X118567000Y-80353522D01*
X118567000Y-79666478D01*
X118304080Y-79031733D01*
X117818267Y-78545920D01*
X117679599Y-78488482D01*
X117992389Y-78205134D01*
X118231914Y-77699041D01*
X118110629Y-77477000D01*
X116967000Y-77477000D01*
X116967000Y-77497000D01*
X116713000Y-77497000D01*
X116713000Y-77477000D01*
X115569371Y-77477000D01*
X115448086Y-77699041D01*
X115687611Y-78205134D01*
X116000401Y-78488482D01*
X115861733Y-78545920D01*
X115375920Y-79031733D01*
X115113000Y-79666478D01*
X113503483Y-79666478D01*
X113433897Y-79316649D01*
X113048592Y-78740000D01*
X113433897Y-78163351D01*
X113571813Y-77470000D01*
X113478516Y-77000959D01*
X115448086Y-77000959D01*
X115569371Y-77223000D01*
X116713000Y-77223000D01*
X116713000Y-76080085D01*
X116967000Y-76080085D01*
X116967000Y-77223000D01*
X118110629Y-77223000D01*
X118231914Y-77000959D01*
X117992389Y-76494866D01*
X117577423Y-76118959D01*
X117189039Y-75958096D01*
X116967000Y-76080085D01*
X116713000Y-76080085D01*
X116490961Y-75958096D01*
X116102577Y-76118959D01*
X115687611Y-76494866D01*
X115448086Y-77000959D01*
X113478516Y-77000959D01*
X113433897Y-76776649D01*
X113064387Y-76223639D01*
X113148327Y-76139699D01*
X113245000Y-75906310D01*
X113245000Y-75215750D01*
X113086250Y-75057000D01*
X111887000Y-75057000D01*
X111887000Y-75077000D01*
X111633000Y-75077000D01*
X111633000Y-75057000D01*
X110433750Y-75057000D01*
X110275000Y-75215750D01*
X110275000Y-75906310D01*
X110371673Y-76139699D01*
X110455613Y-76223639D01*
X110086103Y-76776649D01*
X109948187Y-77470000D01*
X99770000Y-77470000D01*
X99770000Y-73953690D01*
X110275000Y-73953690D01*
X110275000Y-74644250D01*
X110433750Y-74803000D01*
X111633000Y-74803000D01*
X111633000Y-73603750D01*
X111887000Y-73603750D01*
X111887000Y-74803000D01*
X113086250Y-74803000D01*
X113245000Y-74644250D01*
X113245000Y-73953690D01*
X113148327Y-73720301D01*
X112969698Y-73541673D01*
X112736309Y-73445000D01*
X112045750Y-73445000D01*
X111887000Y-73603750D01*
X111633000Y-73603750D01*
X111474250Y-73445000D01*
X110783691Y-73445000D01*
X110550302Y-73541673D01*
X110371673Y-73720301D01*
X110275000Y-73953690D01*
X99770000Y-73953690D01*
X99770000Y-73443223D01*
X121013035Y-73443223D01*
X121040222Y-74013454D01*
X121206136Y-74414005D01*
X121452255Y-74488139D01*
X122280395Y-73660000D01*
X121452255Y-72831861D01*
X121206136Y-72905995D01*
X121013035Y-73443223D01*
X99770000Y-73443223D01*
X99770000Y-72652255D01*
X121631861Y-72652255D01*
X122460000Y-73480395D01*
X122474143Y-73466253D01*
X122653748Y-73645858D01*
X122639605Y-73660000D01*
X122653748Y-73674143D01*
X122474143Y-73853748D01*
X122460000Y-73839605D01*
X121631861Y-74667745D01*
X121705995Y-74913864D01*
X122243223Y-75106965D01*
X122813454Y-75079778D01*
X122927629Y-75032485D01*
X122991670Y-75128330D01*
X123298303Y-75333215D01*
X123660000Y-75405161D01*
X125260000Y-75405161D01*
X125621697Y-75333215D01*
X125928330Y-75128330D01*
X126133215Y-74821697D01*
X126205161Y-74460000D01*
X126205161Y-72860000D01*
X126165379Y-72660000D01*
X127642339Y-72660000D01*
X127642339Y-74660000D01*
X127714285Y-75021697D01*
X127919170Y-75328330D01*
X128225803Y-75533215D01*
X128587500Y-75605161D01*
X130492500Y-75605161D01*
X130854197Y-75533215D01*
X131160830Y-75328330D01*
X131323982Y-75084155D01*
X131707020Y-75250563D01*
X131953000Y-75130594D01*
X131953000Y-73787000D01*
X131933000Y-73787000D01*
X131933000Y-73533000D01*
X131953000Y-73533000D01*
X131953000Y-72189406D01*
X131707020Y-72069437D01*
X131323982Y-72235845D01*
X131160830Y-71991670D01*
X130854197Y-71786785D01*
X130492500Y-71714839D01*
X128587500Y-71714839D01*
X128225803Y-71786785D01*
X127919170Y-71991670D01*
X127714285Y-72298303D01*
X127642339Y-72660000D01*
X126165379Y-72660000D01*
X126133215Y-72498303D01*
X125928330Y-72191670D01*
X125621697Y-71986785D01*
X125260000Y-71914839D01*
X123660000Y-71914839D01*
X123298303Y-71986785D01*
X122991670Y-72191670D01*
X122919177Y-72300163D01*
X122676777Y-72213035D01*
X122106546Y-72240222D01*
X121705995Y-72406136D01*
X121631861Y-72652255D01*
X99770000Y-72652255D01*
X99770000Y-69506478D01*
X115113000Y-69506478D01*
X115113000Y-70193522D01*
X115375920Y-70828267D01*
X115861733Y-71314080D01*
X116496478Y-71577000D01*
X117183522Y-71577000D01*
X117818267Y-71314080D01*
X118304080Y-70828267D01*
X118567000Y-70193522D01*
X118567000Y-69506478D01*
X118304080Y-68871733D01*
X117818267Y-68385920D01*
X117183522Y-68123000D01*
X116496478Y-68123000D01*
X115861733Y-68385920D01*
X115375920Y-68871733D01*
X115113000Y-69506478D01*
X99770000Y-69506478D01*
X99770000Y-40696443D01*
X101723162Y-40696443D01*
X102065723Y-41171063D01*
X103398863Y-41731084D01*
X104844834Y-41738305D01*
X106183501Y-41191627D01*
X106214277Y-41171063D01*
X106556838Y-40696443D01*
X104140000Y-38279605D01*
X101723162Y-40696443D01*
X99770000Y-40696443D01*
X99770000Y-38804834D01*
X100501695Y-38804834D01*
X101048373Y-40143501D01*
X101068937Y-40174277D01*
X101543557Y-40516838D01*
X103960395Y-38100000D01*
X104319605Y-38100000D01*
X106736443Y-40516838D01*
X107211063Y-40174277D01*
X107771084Y-38841137D01*
X107778305Y-37395166D01*
X107231627Y-36056499D01*
X107211063Y-36025723D01*
X106736443Y-35683162D01*
X104319605Y-38100000D01*
X103960395Y-38100000D01*
X101543557Y-35683162D01*
X101068937Y-36025723D01*
X100508916Y-37358863D01*
X100501695Y-38804834D01*
X99770000Y-38804834D01*
X99770000Y-35503557D01*
X101723162Y-35503557D01*
X104140000Y-37920395D01*
X106556838Y-35503557D01*
X106265755Y-35100260D01*
X107815099Y-35100260D01*
X107815099Y-41099740D01*
X107887045Y-41461437D01*
X108091930Y-41768070D01*
X108398563Y-41972955D01*
X108760260Y-42044901D01*
X114759740Y-42044901D01*
X115121437Y-41972955D01*
X115428070Y-41768070D01*
X115632955Y-41461437D01*
X115704901Y-41099740D01*
X115704901Y-40296478D01*
X127813000Y-40296478D01*
X127813000Y-40983522D01*
X128075920Y-41618267D01*
X128561733Y-42104080D01*
X129196478Y-42367000D01*
X129883522Y-42367000D01*
X130518267Y-42104080D01*
X131004080Y-41618267D01*
X131267000Y-40983522D01*
X131267000Y-40296478D01*
X131004080Y-39661733D01*
X130518267Y-39175920D01*
X129883522Y-38913000D01*
X129196478Y-38913000D01*
X128561733Y-39175920D01*
X128075920Y-39661733D01*
X127813000Y-40296478D01*
X115704901Y-40296478D01*
X115704901Y-35100260D01*
X115632955Y-34738563D01*
X115613870Y-34710000D01*
X127744839Y-34710000D01*
X127744839Y-36410000D01*
X127816785Y-36771697D01*
X128021670Y-37078330D01*
X128328303Y-37283215D01*
X128690000Y-37355161D01*
X130390000Y-37355161D01*
X130751697Y-37283215D01*
X131058330Y-37078330D01*
X131087806Y-37034216D01*
X131386649Y-37233897D01*
X131904983Y-37337000D01*
X132255017Y-37337000D01*
X132773351Y-37233897D01*
X133350000Y-36848592D01*
X133926649Y-37233897D01*
X134444983Y-37337000D01*
X134795017Y-37337000D01*
X135313351Y-37233897D01*
X135901145Y-36841145D01*
X136293897Y-36253351D01*
X136431813Y-35560000D01*
X136293897Y-34866649D01*
X135901145Y-34278855D01*
X135313351Y-33886103D01*
X134795017Y-33783000D01*
X134444983Y-33783000D01*
X133926649Y-33886103D01*
X133350000Y-34271408D01*
X132773351Y-33886103D01*
X132255017Y-33783000D01*
X131904983Y-33783000D01*
X131386649Y-33886103D01*
X131087806Y-34085784D01*
X131058330Y-34041670D01*
X130751697Y-33836785D01*
X130390000Y-33764839D01*
X128690000Y-33764839D01*
X128328303Y-33836785D01*
X128021670Y-34041670D01*
X127816785Y-34348303D01*
X127744839Y-34710000D01*
X115613870Y-34710000D01*
X115428070Y-34431930D01*
X115121437Y-34227045D01*
X114759740Y-34155099D01*
X108760260Y-34155099D01*
X108398563Y-34227045D01*
X108091930Y-34431930D01*
X107887045Y-34738563D01*
X107815099Y-35100260D01*
X106265755Y-35100260D01*
X106214277Y-35028937D01*
X104881137Y-34468916D01*
X103435166Y-34461695D01*
X102096499Y-35008373D01*
X102065723Y-35028937D01*
X101723162Y-35503557D01*
X99770000Y-35503557D01*
X99770000Y-33730000D01*
X137033000Y-33730000D01*
X137033000Y-52070000D01*
G36*
X148808000Y-108241397D02*
X148787392Y-108345002D01*
X148808000Y-108448607D01*
X148808000Y-108448610D01*
X148869038Y-108755471D01*
X149101551Y-109103451D01*
X149189390Y-109162143D01*
X149429384Y-109402138D01*
X149429387Y-109402140D01*
X152573002Y-112545756D01*
X152573002Y-114994839D01*
X151500000Y-114994839D01*
X151138303Y-115066785D01*
X150831670Y-115271670D01*
X150626785Y-115578303D01*
X150554839Y-115940000D01*
X150554839Y-117740000D01*
X150626785Y-118101697D01*
X150827521Y-118402120D01*
X150573000Y-119016587D01*
X150573000Y-119743413D01*
X150851144Y-120414912D01*
X151365088Y-120928856D01*
X152036587Y-121207000D01*
X152618000Y-121207000D01*
X152618000Y-123063000D01*
X152050750Y-123063000D01*
X151892000Y-123221750D01*
X151892000Y-124333000D01*
X151912000Y-124333000D01*
X151912000Y-124587000D01*
X151892000Y-124587000D01*
X151892000Y-124607000D01*
X151638000Y-124607000D01*
X151638000Y-124587000D01*
X151618000Y-124587000D01*
X151618000Y-124333000D01*
X151638000Y-124333000D01*
X151638000Y-123221750D01*
X151479250Y-123063000D01*
X150876690Y-123063000D01*
X150643301Y-123159673D01*
X150478290Y-123324684D01*
X150277000Y-123123394D01*
X150277000Y-111228603D01*
X150297608Y-111124999D01*
X150277000Y-111021395D01*
X150277000Y-111021391D01*
X150215962Y-110714530D01*
X149983449Y-110366551D01*
X149895612Y-110307860D01*
X146495526Y-106907775D01*
X146540833Y-106680000D01*
X146406798Y-106006158D01*
X146025097Y-105434903D01*
X145987827Y-105410000D01*
X146025097Y-105385097D01*
X146406798Y-104813842D01*
X146540833Y-104140000D01*
X146406798Y-103466158D01*
X146025097Y-102894903D01*
X145987827Y-102870000D01*
X146025097Y-102845097D01*
X146406798Y-102273842D01*
X146540833Y-101600000D01*
X146495526Y-101372226D01*
X148610624Y-99257129D01*
X148698458Y-99198440D01*
X148808000Y-99034499D01*
X148808000Y-108241397D01*
X148808000Y-108241397D01*
G37*
X148808000Y-108241397D02*
X148787392Y-108345002D01*
X148808000Y-108448607D01*
X148808000Y-108448610D01*
X148869038Y-108755471D01*
X149101551Y-109103451D01*
X149189390Y-109162143D01*
X149429384Y-109402138D01*
X149429387Y-109402140D01*
X152573002Y-112545756D01*
X152573002Y-114994839D01*
X151500000Y-114994839D01*
X151138303Y-115066785D01*
X150831670Y-115271670D01*
X150626785Y-115578303D01*
X150554839Y-115940000D01*
X150554839Y-117740000D01*
X150626785Y-118101697D01*
X150827521Y-118402120D01*
X150573000Y-119016587D01*
X150573000Y-119743413D01*
X150851144Y-120414912D01*
X151365088Y-120928856D01*
X152036587Y-121207000D01*
X152618000Y-121207000D01*
X152618000Y-123063000D01*
X152050750Y-123063000D01*
X151892000Y-123221750D01*
X151892000Y-124333000D01*
X151912000Y-124333000D01*
X151912000Y-124587000D01*
X151892000Y-124587000D01*
X151892000Y-124607000D01*
X151638000Y-124607000D01*
X151638000Y-124587000D01*
X151618000Y-124587000D01*
X151618000Y-124333000D01*
X151638000Y-124333000D01*
X151638000Y-123221750D01*
X151479250Y-123063000D01*
X150876690Y-123063000D01*
X150643301Y-123159673D01*
X150478290Y-123324684D01*
X150277000Y-123123394D01*
X150277000Y-111228603D01*
X150297608Y-111124999D01*
X150277000Y-111021395D01*
X150277000Y-111021391D01*
X150215962Y-110714530D01*
X149983449Y-110366551D01*
X149895612Y-110307860D01*
X146495526Y-106907775D01*
X146540833Y-106680000D01*
X146406798Y-106006158D01*
X146025097Y-105434903D01*
X145987827Y-105410000D01*
X146025097Y-105385097D01*
X146406798Y-104813842D01*
X146540833Y-104140000D01*
X146406798Y-103466158D01*
X146025097Y-102894903D01*
X145987827Y-102870000D01*
X146025097Y-102845097D01*
X146406798Y-102273842D01*
X146540833Y-101600000D01*
X146495526Y-101372226D01*
X148610624Y-99257129D01*
X148698458Y-99198440D01*
X148808000Y-99034499D01*
X148808000Y-108241397D01*
G36*
X143136331Y-74994084D02*
X143106785Y-75038303D01*
X143034839Y-75400000D01*
X143034839Y-77000000D01*
X143106785Y-77361697D01*
X143311670Y-77668330D01*
X143385887Y-77717920D01*
X143153202Y-78066158D01*
X143019167Y-78740000D01*
X143153202Y-79413842D01*
X143534903Y-79985097D01*
X143572173Y-80010000D01*
X143534903Y-80034903D01*
X143153202Y-80606158D01*
X143019167Y-81280000D01*
X143153202Y-81953842D01*
X143534903Y-82525097D01*
X143572173Y-82550000D01*
X143534903Y-82574903D01*
X143405880Y-82768000D01*
X142343603Y-82768000D01*
X142239999Y-82747392D01*
X142136395Y-82768000D01*
X142136391Y-82768000D01*
X141829530Y-82829038D01*
X141495161Y-83052457D01*
X141495161Y-82970000D01*
X141423215Y-82608303D01*
X141218330Y-82301670D01*
X140911697Y-82096785D01*
X140550000Y-82024839D01*
X138850000Y-82024839D01*
X138488303Y-82096785D01*
X138181670Y-82301670D01*
X137976785Y-82608303D01*
X137904839Y-82970000D01*
X137904839Y-83077087D01*
X136447000Y-81619249D01*
X136447000Y-80916587D01*
X136168856Y-80245088D01*
X135672000Y-79748232D01*
X135672000Y-79096890D01*
X138258524Y-79096890D01*
X138428355Y-79506924D01*
X138818642Y-79935183D01*
X139343108Y-80181486D01*
X139573000Y-80060819D01*
X139573000Y-78867000D01*
X139827000Y-78867000D01*
X139827000Y-80060819D01*
X140056892Y-80181486D01*
X140581358Y-79935183D01*
X140971645Y-79506924D01*
X141141476Y-79096890D01*
X141020155Y-78867000D01*
X139827000Y-78867000D01*
X139573000Y-78867000D01*
X138379845Y-78867000D01*
X138258524Y-79096890D01*
X135672000Y-79096890D01*
X135672000Y-78075751D01*
X137972718Y-75775034D01*
X137888187Y-76200000D01*
X138026103Y-76893351D01*
X138418855Y-77481145D01*
X138703399Y-77671272D01*
X138428355Y-77973076D01*
X138258524Y-78383110D01*
X138379845Y-78613000D01*
X139573000Y-78613000D01*
X139573000Y-78593000D01*
X139827000Y-78593000D01*
X139827000Y-78613000D01*
X141020155Y-78613000D01*
X141141476Y-78383110D01*
X140971645Y-77973076D01*
X140696601Y-77671272D01*
X140981145Y-77481145D01*
X141373897Y-76893351D01*
X141511813Y-76200000D01*
X141373897Y-75506649D01*
X141174216Y-75207806D01*
X141218330Y-75178330D01*
X141423215Y-74871697D01*
X141495161Y-74510000D01*
X141495161Y-73536999D01*
X141679248Y-73536999D01*
X143136331Y-74994084D01*
X143136331Y-74994084D01*
G37*
X143136331Y-74994084D02*
X143106785Y-75038303D01*
X143034839Y-75400000D01*
X143034839Y-77000000D01*
X143106785Y-77361697D01*
X143311670Y-77668330D01*
X143385887Y-77717920D01*
X143153202Y-78066158D01*
X143019167Y-78740000D01*
X143153202Y-79413842D01*
X143534903Y-79985097D01*
X143572173Y-80010000D01*
X143534903Y-80034903D01*
X143153202Y-80606158D01*
X143019167Y-81280000D01*
X143153202Y-81953842D01*
X143534903Y-82525097D01*
X143572173Y-82550000D01*
X143534903Y-82574903D01*
X143405880Y-82768000D01*
X142343603Y-82768000D01*
X142239999Y-82747392D01*
X142136395Y-82768000D01*
X142136391Y-82768000D01*
X141829530Y-82829038D01*
X141495161Y-83052457D01*
X141495161Y-82970000D01*
X141423215Y-82608303D01*
X141218330Y-82301670D01*
X140911697Y-82096785D01*
X140550000Y-82024839D01*
X138850000Y-82024839D01*
X138488303Y-82096785D01*
X138181670Y-82301670D01*
X137976785Y-82608303D01*
X137904839Y-82970000D01*
X137904839Y-83077087D01*
X136447000Y-81619249D01*
X136447000Y-80916587D01*
X136168856Y-80245088D01*
X135672000Y-79748232D01*
X135672000Y-79096890D01*
X138258524Y-79096890D01*
X138428355Y-79506924D01*
X138818642Y-79935183D01*
X139343108Y-80181486D01*
X139573000Y-80060819D01*
X139573000Y-78867000D01*
X139827000Y-78867000D01*
X139827000Y-80060819D01*
X140056892Y-80181486D01*
X140581358Y-79935183D01*
X140971645Y-79506924D01*
X141141476Y-79096890D01*
X141020155Y-78867000D01*
X139827000Y-78867000D01*
X139573000Y-78867000D01*
X138379845Y-78867000D01*
X138258524Y-79096890D01*
X135672000Y-79096890D01*
X135672000Y-78075751D01*
X137972718Y-75775034D01*
X137888187Y-76200000D01*
X138026103Y-76893351D01*
X138418855Y-77481145D01*
X138703399Y-77671272D01*
X138428355Y-77973076D01*
X138258524Y-78383110D01*
X138379845Y-78613000D01*
X139573000Y-78613000D01*
X139573000Y-78593000D01*
X139827000Y-78593000D01*
X139827000Y-78613000D01*
X141020155Y-78613000D01*
X141141476Y-78383110D01*
X140971645Y-77973076D01*
X140696601Y-77671272D01*
X140981145Y-77481145D01*
X141373897Y-76893351D01*
X141511813Y-76200000D01*
X141373897Y-75506649D01*
X141174216Y-75207806D01*
X141218330Y-75178330D01*
X141423215Y-74871697D01*
X141495161Y-74510000D01*
X141495161Y-73536999D01*
X141679248Y-73536999D01*
X143136331Y-74994084D01*
G04 #@! TD*
M02*
