M48
;DRILL file {KiCad (5.0.2)-1} date 2/12/2019 7:28:57 PM
;FORMAT={-:-/ absolute / metric / decimal}
FMAT,2
METRIC,TZ
T1C0.400
T2C0.762
T3C0.800
T4C0.889
T5C0.899
T6C0.900
T7C1.000
T8C1.100
T9C1.200
T10C1.397
T11C1.700
T12C3.900
%
G90
G05
T1
X166.37Y-87.63
X168.275Y-113.03
X189.865Y-80.645
T2
X204.47Y-74.93
X204.47Y-77.47
X207.01Y-74.93
X207.01Y-77.47
X209.55Y-74.93
X209.55Y-77.47
X212.09Y-74.93
X212.09Y-77.47
T3
X136.525Y-111.125
X144.145Y-111.125
X203.2Y-121.92
X210.82Y-121.92
X175.26Y-86.48
X175.26Y-93.98
X150.495Y-110.49
X150.495Y-115.37
X176.53Y-76.2
X176.53Y-83.82
X203.2Y-111.76
X210.82Y-111.76
X147.955Y-80.01
X155.575Y-80.01
X163.1Y-67.31
X165.1Y-67.31
X155.575Y-90.17
X155.575Y-92.71
X155.575Y-95.25
X155.575Y-97.79
X155.575Y-100.33
X155.575Y-102.87
X155.575Y-105.41
X155.575Y-107.95
X155.575Y-110.49
X155.575Y-113.03
X155.575Y-115.57
X155.575Y-118.11
X155.575Y-120.65
X155.575Y-123.19
X163.195Y-90.17
X163.195Y-92.71
X163.195Y-95.25
X163.195Y-97.79
X163.195Y-100.33
X163.195Y-102.87
X163.195Y-105.41
X163.195Y-107.95
X163.195Y-110.49
X163.195Y-113.03
X163.195Y-115.57
X163.195Y-118.11
X163.195Y-120.65
X163.195Y-123.19
X166.37Y-92.71
X166.37Y-100.33
X136.01Y-118.745
X143.51Y-118.745
X193.04Y-114.3
X193.04Y-121.92
X166.37Y-102.87
X166.37Y-110.49
X136.645Y-114.935
X144.145Y-114.935
X172.72Y-76.2
X172.72Y-83.82
X130.81Y-52.07
X130.81Y-59.69
X157.48Y-64.89
X157.48Y-72.39
X170.18Y-86.48
X170.18Y-93.98
X168.275Y-76.2
X168.275Y-83.82
X135.255Y-122.555
X142.875Y-122.555
X198.12Y-57.15
X198.12Y-64.77
X163.1Y-53.34
X165.1Y-53.34
X135.89Y-52.07
X135.89Y-59.69
X203.2Y-116.84
X210.82Y-116.84
T4
X195.58Y-92.71
X195.58Y-95.25
X195.58Y-97.79
X203.2Y-105.41
X205.74Y-105.41
X208.28Y-105.41
X129.54Y-92.71
X129.54Y-95.25
X129.54Y-97.79
X137.16Y-105.41
X139.7Y-105.41
X142.24Y-105.41
T5
X202.565Y-82.55
X202.565Y-87.63
X208.915Y-82.55
X208.915Y-87.63
X136.525Y-82.55
X136.525Y-87.63
X142.875Y-82.55
X142.875Y-87.63
T6
X198.12Y-122.555
X200.66Y-122.555
X198.12Y-116.84
X200.66Y-116.84
X198.12Y-77.47
X200.66Y-77.47
X130.81Y-66.04
X133.35Y-66.04
X169.545Y-98.298
X172.085Y-98.298
X198.12Y-111.76
X200.66Y-111.76
X135.89Y-66.04
X138.43Y-66.04
X198.12Y-69.85
X200.66Y-69.85
X146.05Y-121.92
X148.59Y-121.92
X169.545Y-102.87
X172.085Y-102.87
T7
X144.86Y-74.93
X147.36Y-74.93
X149.86Y-74.93
X171.45Y-60.96
X173.99Y-60.96
X170.18Y-71.12
X172.72Y-71.12
X175.26Y-71.12
X215.265Y-109.22
X215.265Y-111.76
X215.265Y-114.3
X215.265Y-116.84
X215.265Y-119.38
X215.265Y-121.92
X170.18Y-54.61
X172.72Y-54.61
X175.26Y-54.61
T8
X186.69Y-59.69
X189.23Y-59.69
X191.77Y-59.69
X153.67Y-59.69
X156.21Y-59.69
X158.75Y-59.69
X169.545Y-116.84
X169.545Y-121.34
X176.045Y-116.84
X176.045Y-121.34
X130.81Y-70.97
X130.81Y-77.47
X135.31Y-70.97
X135.31Y-77.47
T9
X181.92Y-64.77
X185.42Y-64.77
X185.42Y-123.27
T10
X198.12Y-88.582
X198.12Y-101.917
X213.36Y-88.582
X213.36Y-101.917
X132.08Y-88.582
X132.08Y-101.917
X147.32Y-88.582
X147.32Y-101.917
T11
X179.47Y-68.92
X179.47Y-119.12
X187.87Y-70.12
X187.87Y-117.92
T12
X131.445Y-115.57
X149.225Y-52.07
X189.865Y-52.07
X193.04Y-107.95
T0
M30
