G04 #@! TF.GenerationSoftware,KiCad,Pcbnew,(5.0.2)-1*
G04 #@! TF.CreationDate,2019-01-29T22:31:09-07:00*
G04 #@! TF.ProjectId,Controller,436f6e74-726f-46c6-9c65-722e6b696361,rev?*
G04 #@! TF.SameCoordinates,Original*
G04 #@! TF.FileFunction,Soldermask,Bot*
G04 #@! TF.FilePolarity,Negative*
%FSLAX46Y46*%
G04 Gerber Fmt 4.6, Leading zero omitted, Abs format (unit mm)*
G04 Created by KiCad (PCBNEW (5.0.2)-1) date 1/29/2019 10:31:09 PM*
%MOMM*%
%LPD*%
G01*
G04 APERTURE LIST*
%ADD10C,0.100000*%
G04 APERTURE END LIST*
D10*
G36*
X185690104Y-122379585D02*
X185858626Y-122449389D01*
X186010291Y-122550728D01*
X186139272Y-122679709D01*
X186240611Y-122831374D01*
X186310415Y-122999896D01*
X186346000Y-123178797D01*
X186346000Y-123361203D01*
X186310415Y-123540104D01*
X186240611Y-123708626D01*
X186139272Y-123860291D01*
X186010291Y-123989272D01*
X185858626Y-124090611D01*
X185690104Y-124160415D01*
X185511203Y-124196000D01*
X185328797Y-124196000D01*
X185149896Y-124160415D01*
X184981374Y-124090611D01*
X184829709Y-123989272D01*
X184700728Y-123860291D01*
X184599389Y-123708626D01*
X184529585Y-123540104D01*
X184494000Y-123361203D01*
X184494000Y-123178797D01*
X184529585Y-122999896D01*
X184599389Y-122831374D01*
X184700728Y-122679709D01*
X184829709Y-122550728D01*
X184981374Y-122449389D01*
X185149896Y-122379585D01*
X185328797Y-122344000D01*
X185511203Y-122344000D01*
X185690104Y-122379585D01*
X185690104Y-122379585D01*
G37*
G36*
X193206821Y-122351313D02*
X193206824Y-122351314D01*
X193206825Y-122351314D01*
X193367239Y-122399975D01*
X193367241Y-122399976D01*
X193367244Y-122399977D01*
X193515078Y-122478995D01*
X193644659Y-122585341D01*
X193751005Y-122714922D01*
X193830023Y-122862756D01*
X193830024Y-122862759D01*
X193830025Y-122862761D01*
X193871624Y-122999896D01*
X193878687Y-123023179D01*
X193895117Y-123190000D01*
X193878687Y-123356821D01*
X193878686Y-123356824D01*
X193878686Y-123356825D01*
X193844521Y-123469453D01*
X193830023Y-123517244D01*
X193751005Y-123665078D01*
X193644659Y-123794659D01*
X193515078Y-123901005D01*
X193367244Y-123980023D01*
X193367241Y-123980024D01*
X193367239Y-123980025D01*
X193206825Y-124028686D01*
X193206824Y-124028686D01*
X193206821Y-124028687D01*
X193081804Y-124041000D01*
X192998196Y-124041000D01*
X192873179Y-124028687D01*
X192873176Y-124028686D01*
X192873175Y-124028686D01*
X192712761Y-123980025D01*
X192712759Y-123980024D01*
X192712756Y-123980023D01*
X192564922Y-123901005D01*
X192435341Y-123794659D01*
X192328995Y-123665078D01*
X192249977Y-123517244D01*
X192235480Y-123469453D01*
X192201314Y-123356825D01*
X192201314Y-123356824D01*
X192201313Y-123356821D01*
X192184883Y-123190000D01*
X192201313Y-123023179D01*
X192208376Y-122999896D01*
X192249975Y-122862761D01*
X192249976Y-122862759D01*
X192249977Y-122862756D01*
X192328995Y-122714922D01*
X192435341Y-122585341D01*
X192564922Y-122478995D01*
X192712756Y-122399977D01*
X192712759Y-122399976D01*
X192712761Y-122399975D01*
X192873175Y-122351314D01*
X192873176Y-122351314D01*
X192873179Y-122351313D01*
X192998196Y-122339000D01*
X193081804Y-122339000D01*
X193206821Y-122351313D01*
X193206821Y-122351313D01*
G37*
G36*
X155741821Y-122351313D02*
X155741824Y-122351314D01*
X155741825Y-122351314D01*
X155902239Y-122399975D01*
X155902241Y-122399976D01*
X155902244Y-122399977D01*
X156050078Y-122478995D01*
X156179659Y-122585341D01*
X156286005Y-122714922D01*
X156365023Y-122862756D01*
X156365024Y-122862759D01*
X156365025Y-122862761D01*
X156406624Y-122999896D01*
X156413687Y-123023179D01*
X156430117Y-123190000D01*
X156413687Y-123356821D01*
X156413686Y-123356824D01*
X156413686Y-123356825D01*
X156379521Y-123469453D01*
X156365023Y-123517244D01*
X156286005Y-123665078D01*
X156179659Y-123794659D01*
X156050078Y-123901005D01*
X155902244Y-123980023D01*
X155902241Y-123980024D01*
X155902239Y-123980025D01*
X155741825Y-124028686D01*
X155741824Y-124028686D01*
X155741821Y-124028687D01*
X155616804Y-124041000D01*
X155533196Y-124041000D01*
X155408179Y-124028687D01*
X155408176Y-124028686D01*
X155408175Y-124028686D01*
X155247761Y-123980025D01*
X155247759Y-123980024D01*
X155247756Y-123980023D01*
X155099922Y-123901005D01*
X154970341Y-123794659D01*
X154863995Y-123665078D01*
X154784977Y-123517244D01*
X154770480Y-123469453D01*
X154736314Y-123356825D01*
X154736314Y-123356824D01*
X154736313Y-123356821D01*
X154719883Y-123190000D01*
X154736313Y-123023179D01*
X154743376Y-122999896D01*
X154784975Y-122862761D01*
X154784976Y-122862759D01*
X154784977Y-122862756D01*
X154863995Y-122714922D01*
X154970341Y-122585341D01*
X155099922Y-122478995D01*
X155247756Y-122399977D01*
X155247759Y-122399976D01*
X155247761Y-122399975D01*
X155408175Y-122351314D01*
X155408176Y-122351314D01*
X155408179Y-122351313D01*
X155533196Y-122339000D01*
X155616804Y-122339000D01*
X155741821Y-122351313D01*
X155741821Y-122351313D01*
G37*
G36*
X163361821Y-122351313D02*
X163361824Y-122351314D01*
X163361825Y-122351314D01*
X163522239Y-122399975D01*
X163522241Y-122399976D01*
X163522244Y-122399977D01*
X163670078Y-122478995D01*
X163799659Y-122585341D01*
X163906005Y-122714922D01*
X163985023Y-122862756D01*
X163985024Y-122862759D01*
X163985025Y-122862761D01*
X164026624Y-122999896D01*
X164033687Y-123023179D01*
X164050117Y-123190000D01*
X164033687Y-123356821D01*
X164033686Y-123356824D01*
X164033686Y-123356825D01*
X163999521Y-123469453D01*
X163985023Y-123517244D01*
X163906005Y-123665078D01*
X163799659Y-123794659D01*
X163670078Y-123901005D01*
X163522244Y-123980023D01*
X163522241Y-123980024D01*
X163522239Y-123980025D01*
X163361825Y-124028686D01*
X163361824Y-124028686D01*
X163361821Y-124028687D01*
X163236804Y-124041000D01*
X163153196Y-124041000D01*
X163028179Y-124028687D01*
X163028176Y-124028686D01*
X163028175Y-124028686D01*
X162867761Y-123980025D01*
X162867759Y-123980024D01*
X162867756Y-123980023D01*
X162719922Y-123901005D01*
X162590341Y-123794659D01*
X162483995Y-123665078D01*
X162404977Y-123517244D01*
X162390480Y-123469453D01*
X162356314Y-123356825D01*
X162356314Y-123356824D01*
X162356313Y-123356821D01*
X162339883Y-123190000D01*
X162356313Y-123023179D01*
X162363376Y-122999896D01*
X162404975Y-122862761D01*
X162404976Y-122862759D01*
X162404977Y-122862756D01*
X162483995Y-122714922D01*
X162590341Y-122585341D01*
X162719922Y-122478995D01*
X162867756Y-122399977D01*
X162867759Y-122399976D01*
X162867761Y-122399975D01*
X163028175Y-122351314D01*
X163028176Y-122351314D01*
X163028179Y-122351313D01*
X163153196Y-122339000D01*
X163236804Y-122339000D01*
X163361821Y-122351313D01*
X163361821Y-122351313D01*
G37*
G36*
X201611000Y-123506000D02*
X199709000Y-123506000D01*
X199709000Y-121604000D01*
X201611000Y-121604000D01*
X201611000Y-123506000D01*
X201611000Y-123506000D01*
G37*
G36*
X198397396Y-121640546D02*
X198570466Y-121712234D01*
X198726230Y-121816312D01*
X198858688Y-121948770D01*
X198962766Y-122104534D01*
X199034454Y-122277604D01*
X199071000Y-122461333D01*
X199071000Y-122648667D01*
X199034454Y-122832396D01*
X198962766Y-123005466D01*
X198858688Y-123161230D01*
X198726230Y-123293688D01*
X198570466Y-123397766D01*
X198397396Y-123469454D01*
X198213667Y-123506000D01*
X198026333Y-123506000D01*
X197842604Y-123469454D01*
X197669534Y-123397766D01*
X197513770Y-123293688D01*
X197381312Y-123161230D01*
X197277234Y-123005466D01*
X197205546Y-122832396D01*
X197169000Y-122648667D01*
X197169000Y-122461333D01*
X197205546Y-122277604D01*
X197277234Y-122104534D01*
X197381312Y-121948770D01*
X197513770Y-121816312D01*
X197669534Y-121712234D01*
X197842604Y-121640546D01*
X198026333Y-121604000D01*
X198213667Y-121604000D01*
X198397396Y-121640546D01*
X198397396Y-121640546D01*
G37*
G36*
X143123228Y-121736703D02*
X143278100Y-121800853D01*
X143417481Y-121893985D01*
X143536015Y-122012519D01*
X143629147Y-122151900D01*
X143693297Y-122306772D01*
X143726000Y-122471184D01*
X143726000Y-122638816D01*
X143693297Y-122803228D01*
X143629147Y-122958100D01*
X143536015Y-123097481D01*
X143417481Y-123216015D01*
X143278100Y-123309147D01*
X143123228Y-123373297D01*
X142958816Y-123406000D01*
X142791184Y-123406000D01*
X142626772Y-123373297D01*
X142471900Y-123309147D01*
X142332519Y-123216015D01*
X142213985Y-123097481D01*
X142120853Y-122958100D01*
X142056703Y-122803228D01*
X142024000Y-122638816D01*
X142024000Y-122471184D01*
X142056703Y-122306772D01*
X142120853Y-122151900D01*
X142213985Y-122012519D01*
X142332519Y-121893985D01*
X142471900Y-121800853D01*
X142626772Y-121736703D01*
X142791184Y-121704000D01*
X142958816Y-121704000D01*
X143123228Y-121736703D01*
X143123228Y-121736703D01*
G37*
G36*
X135421821Y-121716313D02*
X135421824Y-121716314D01*
X135421825Y-121716314D01*
X135582239Y-121764975D01*
X135582241Y-121764976D01*
X135582244Y-121764977D01*
X135730078Y-121843995D01*
X135859659Y-121950341D01*
X135966005Y-122079922D01*
X136045023Y-122227756D01*
X136045024Y-122227759D01*
X136045025Y-122227761D01*
X136093686Y-122388175D01*
X136093687Y-122388179D01*
X136110117Y-122555000D01*
X136093687Y-122721821D01*
X136093686Y-122721824D01*
X136093686Y-122721825D01*
X136050934Y-122862761D01*
X136045023Y-122882244D01*
X135966005Y-123030078D01*
X135859659Y-123159659D01*
X135730078Y-123266005D01*
X135582244Y-123345023D01*
X135582241Y-123345024D01*
X135582239Y-123345025D01*
X135421825Y-123393686D01*
X135421824Y-123393686D01*
X135421821Y-123393687D01*
X135296804Y-123406000D01*
X135213196Y-123406000D01*
X135088179Y-123393687D01*
X135088176Y-123393686D01*
X135088175Y-123393686D01*
X134927761Y-123345025D01*
X134927759Y-123345024D01*
X134927756Y-123345023D01*
X134779922Y-123266005D01*
X134650341Y-123159659D01*
X134543995Y-123030078D01*
X134464977Y-122882244D01*
X134459067Y-122862761D01*
X134416314Y-122721825D01*
X134416314Y-122721824D01*
X134416313Y-122721821D01*
X134399883Y-122555000D01*
X134416313Y-122388179D01*
X134416314Y-122388175D01*
X134464975Y-122227761D01*
X134464976Y-122227759D01*
X134464977Y-122227756D01*
X134543995Y-122079922D01*
X134650341Y-121950341D01*
X134779922Y-121843995D01*
X134927756Y-121764977D01*
X134927759Y-121764976D01*
X134927761Y-121764975D01*
X135088175Y-121716314D01*
X135088176Y-121716314D01*
X135088179Y-121716313D01*
X135213196Y-121704000D01*
X135296804Y-121704000D01*
X135421821Y-121716313D01*
X135421821Y-121716313D01*
G37*
G36*
X147001000Y-122871000D02*
X145099000Y-122871000D01*
X145099000Y-120969000D01*
X147001000Y-120969000D01*
X147001000Y-122871000D01*
X147001000Y-122871000D01*
G37*
G36*
X148867396Y-121005546D02*
X149040466Y-121077234D01*
X149196230Y-121181312D01*
X149328688Y-121313770D01*
X149432766Y-121469534D01*
X149504454Y-121642604D01*
X149541000Y-121826333D01*
X149541000Y-122013667D01*
X149504454Y-122197396D01*
X149432766Y-122370466D01*
X149328688Y-122526230D01*
X149196230Y-122658688D01*
X149040466Y-122762766D01*
X148867396Y-122834454D01*
X148683667Y-122871000D01*
X148496333Y-122871000D01*
X148312604Y-122834454D01*
X148139534Y-122762766D01*
X147983770Y-122658688D01*
X147851312Y-122526230D01*
X147747234Y-122370466D01*
X147675546Y-122197396D01*
X147639000Y-122013667D01*
X147639000Y-121826333D01*
X147675546Y-121642604D01*
X147747234Y-121469534D01*
X147851312Y-121313770D01*
X147983770Y-121181312D01*
X148139534Y-121077234D01*
X148312604Y-121005546D01*
X148496333Y-120969000D01*
X148683667Y-120969000D01*
X148867396Y-121005546D01*
X148867396Y-121005546D01*
G37*
G36*
X215375442Y-121025518D02*
X215441627Y-121032037D01*
X215554853Y-121066384D01*
X215611467Y-121083557D01*
X215698311Y-121129977D01*
X215767991Y-121167222D01*
X215803729Y-121196552D01*
X215905186Y-121279814D01*
X215985369Y-121377519D01*
X216017778Y-121417009D01*
X216017779Y-121417011D01*
X216101443Y-121573533D01*
X216110685Y-121604000D01*
X216152963Y-121743373D01*
X216170359Y-121920000D01*
X216152963Y-122096627D01*
X216150564Y-122104534D01*
X216101443Y-122266467D01*
X216045853Y-122370467D01*
X216017778Y-122422991D01*
X215988448Y-122458729D01*
X215905186Y-122560186D01*
X215809375Y-122638815D01*
X215767991Y-122672778D01*
X215767989Y-122672779D01*
X215611467Y-122756443D01*
X215590622Y-122762766D01*
X215441627Y-122807963D01*
X215375443Y-122814481D01*
X215309260Y-122821000D01*
X215220740Y-122821000D01*
X215154557Y-122814481D01*
X215088373Y-122807963D01*
X214939378Y-122762766D01*
X214918533Y-122756443D01*
X214762011Y-122672779D01*
X214762009Y-122672778D01*
X214720625Y-122638815D01*
X214624814Y-122560186D01*
X214541552Y-122458729D01*
X214512222Y-122422991D01*
X214484147Y-122370467D01*
X214428557Y-122266467D01*
X214379436Y-122104534D01*
X214377037Y-122096627D01*
X214359641Y-121920000D01*
X214377037Y-121743373D01*
X214419315Y-121604000D01*
X214428557Y-121573533D01*
X214512221Y-121417011D01*
X214512222Y-121417009D01*
X214544631Y-121377519D01*
X214624814Y-121279814D01*
X214726271Y-121196552D01*
X214762009Y-121167222D01*
X214831689Y-121129977D01*
X214918533Y-121083557D01*
X214975147Y-121066384D01*
X215088373Y-121032037D01*
X215154558Y-121025518D01*
X215220740Y-121019000D01*
X215309260Y-121019000D01*
X215375442Y-121025518D01*
X215375442Y-121025518D01*
G37*
G36*
X203448228Y-121101703D02*
X203603100Y-121165853D01*
X203742481Y-121258985D01*
X203861015Y-121377519D01*
X203954147Y-121516900D01*
X204018297Y-121671772D01*
X204051000Y-121836184D01*
X204051000Y-122003816D01*
X204018297Y-122168228D01*
X203954147Y-122323100D01*
X203861015Y-122462481D01*
X203742481Y-122581015D01*
X203603100Y-122674147D01*
X203448228Y-122738297D01*
X203283816Y-122771000D01*
X203116184Y-122771000D01*
X202951772Y-122738297D01*
X202796900Y-122674147D01*
X202657519Y-122581015D01*
X202538985Y-122462481D01*
X202445853Y-122323100D01*
X202381703Y-122168228D01*
X202349000Y-122003816D01*
X202349000Y-121836184D01*
X202381703Y-121671772D01*
X202445853Y-121516900D01*
X202538985Y-121377519D01*
X202657519Y-121258985D01*
X202796900Y-121165853D01*
X202951772Y-121101703D01*
X203116184Y-121069000D01*
X203283816Y-121069000D01*
X203448228Y-121101703D01*
X203448228Y-121101703D01*
G37*
G36*
X210986821Y-121081313D02*
X210986824Y-121081314D01*
X210986825Y-121081314D01*
X211147239Y-121129975D01*
X211147241Y-121129976D01*
X211147244Y-121129977D01*
X211295078Y-121208995D01*
X211424659Y-121315341D01*
X211531005Y-121444922D01*
X211610023Y-121592756D01*
X211610024Y-121592759D01*
X211610025Y-121592761D01*
X211655713Y-121743375D01*
X211658687Y-121753179D01*
X211675117Y-121920000D01*
X211658687Y-122086821D01*
X211658686Y-122086824D01*
X211658686Y-122086825D01*
X211615934Y-122227761D01*
X211610023Y-122247244D01*
X211531005Y-122395078D01*
X211424659Y-122524659D01*
X211295078Y-122631005D01*
X211147244Y-122710023D01*
X211147241Y-122710024D01*
X211147239Y-122710025D01*
X210986825Y-122758686D01*
X210986824Y-122758686D01*
X210986821Y-122758687D01*
X210861804Y-122771000D01*
X210778196Y-122771000D01*
X210653179Y-122758687D01*
X210653176Y-122758686D01*
X210653175Y-122758686D01*
X210492761Y-122710025D01*
X210492759Y-122710024D01*
X210492756Y-122710023D01*
X210344922Y-122631005D01*
X210215341Y-122524659D01*
X210108995Y-122395078D01*
X210029977Y-122247244D01*
X210024067Y-122227761D01*
X209981314Y-122086825D01*
X209981314Y-122086824D01*
X209981313Y-122086821D01*
X209964883Y-121920000D01*
X209981313Y-121753179D01*
X209984287Y-121743375D01*
X210029975Y-121592761D01*
X210029976Y-121592759D01*
X210029977Y-121592756D01*
X210108995Y-121444922D01*
X210215341Y-121315341D01*
X210344922Y-121208995D01*
X210492756Y-121129977D01*
X210492759Y-121129976D01*
X210492761Y-121129975D01*
X210653175Y-121081314D01*
X210653176Y-121081314D01*
X210653179Y-121081313D01*
X210778196Y-121069000D01*
X210861804Y-121069000D01*
X210986821Y-121081313D01*
X210986821Y-121081313D01*
G37*
G36*
X155741821Y-119811313D02*
X155741824Y-119811314D01*
X155741825Y-119811314D01*
X155902239Y-119859975D01*
X155902241Y-119859976D01*
X155902244Y-119859977D01*
X156050078Y-119938995D01*
X156179659Y-120045341D01*
X156286005Y-120174922D01*
X156365023Y-120322756D01*
X156365024Y-120322759D01*
X156365025Y-120322761D01*
X156378258Y-120366385D01*
X156413687Y-120483179D01*
X156430117Y-120650000D01*
X156413687Y-120816821D01*
X156365023Y-120977244D01*
X156286005Y-121125078D01*
X156179659Y-121254659D01*
X156050078Y-121361005D01*
X155902244Y-121440023D01*
X155902241Y-121440024D01*
X155902239Y-121440025D01*
X155741825Y-121488686D01*
X155741824Y-121488686D01*
X155741821Y-121488687D01*
X155616804Y-121501000D01*
X155533196Y-121501000D01*
X155408179Y-121488687D01*
X155408176Y-121488686D01*
X155408175Y-121488686D01*
X155247761Y-121440025D01*
X155247759Y-121440024D01*
X155247756Y-121440023D01*
X155099922Y-121361005D01*
X154970341Y-121254659D01*
X154863995Y-121125078D01*
X154784977Y-120977244D01*
X154736313Y-120816821D01*
X154719883Y-120650000D01*
X154736313Y-120483179D01*
X154771742Y-120366385D01*
X154784975Y-120322761D01*
X154784976Y-120322759D01*
X154784977Y-120322756D01*
X154863995Y-120174922D01*
X154970341Y-120045341D01*
X155099922Y-119938995D01*
X155247756Y-119859977D01*
X155247759Y-119859976D01*
X155247761Y-119859975D01*
X155408175Y-119811314D01*
X155408176Y-119811314D01*
X155408179Y-119811313D01*
X155533196Y-119799000D01*
X155616804Y-119799000D01*
X155741821Y-119811313D01*
X155741821Y-119811313D01*
G37*
G36*
X163361821Y-119811313D02*
X163361824Y-119811314D01*
X163361825Y-119811314D01*
X163522239Y-119859975D01*
X163522241Y-119859976D01*
X163522244Y-119859977D01*
X163670078Y-119938995D01*
X163799659Y-120045341D01*
X163906005Y-120174922D01*
X163985023Y-120322756D01*
X163985024Y-120322759D01*
X163985025Y-120322761D01*
X163998258Y-120366385D01*
X164033687Y-120483179D01*
X164050117Y-120650000D01*
X164033687Y-120816821D01*
X163985023Y-120977244D01*
X163906005Y-121125078D01*
X163799659Y-121254659D01*
X163670078Y-121361005D01*
X163522244Y-121440023D01*
X163522241Y-121440024D01*
X163522239Y-121440025D01*
X163361825Y-121488686D01*
X163361824Y-121488686D01*
X163361821Y-121488687D01*
X163236804Y-121501000D01*
X163153196Y-121501000D01*
X163028179Y-121488687D01*
X163028176Y-121488686D01*
X163028175Y-121488686D01*
X162867761Y-121440025D01*
X162867759Y-121440024D01*
X162867756Y-121440023D01*
X162719922Y-121361005D01*
X162590341Y-121254659D01*
X162483995Y-121125078D01*
X162404977Y-120977244D01*
X162356313Y-120816821D01*
X162339883Y-120650000D01*
X162356313Y-120483179D01*
X162391742Y-120366385D01*
X162404975Y-120322761D01*
X162404976Y-120322759D01*
X162404977Y-120322756D01*
X162483995Y-120174922D01*
X162590341Y-120045341D01*
X162719922Y-119938995D01*
X162867756Y-119859977D01*
X162867759Y-119859976D01*
X162867761Y-119859975D01*
X163028175Y-119811314D01*
X163028176Y-119811314D01*
X163028179Y-119811313D01*
X163153196Y-119799000D01*
X163236804Y-119799000D01*
X163361821Y-119811313D01*
X163361821Y-119811313D01*
G37*
G36*
X179786223Y-117754453D02*
X179878657Y-117772839D01*
X179922501Y-117791000D01*
X180133621Y-117878449D01*
X180363089Y-118031774D01*
X180558226Y-118226911D01*
X180711551Y-118456379D01*
X180762002Y-118578179D01*
X180817161Y-118711343D01*
X180822824Y-118739814D01*
X180871000Y-118982012D01*
X180871000Y-119257988D01*
X180846730Y-119380000D01*
X180817161Y-119528657D01*
X180789266Y-119596000D01*
X180711551Y-119783621D01*
X180558226Y-120013089D01*
X180363089Y-120208226D01*
X180133621Y-120361551D01*
X179984267Y-120423415D01*
X179878657Y-120467161D01*
X179798148Y-120483175D01*
X179607988Y-120521000D01*
X179332012Y-120521000D01*
X179141852Y-120483175D01*
X179061343Y-120467161D01*
X178955733Y-120423415D01*
X178806379Y-120361551D01*
X178576911Y-120208226D01*
X178381774Y-120013089D01*
X178228449Y-119783621D01*
X178150734Y-119596000D01*
X178122839Y-119528657D01*
X178093270Y-119380000D01*
X178069000Y-119257988D01*
X178069000Y-118982012D01*
X178117176Y-118739814D01*
X178122839Y-118711343D01*
X178177998Y-118578179D01*
X178228449Y-118456379D01*
X178381774Y-118226911D01*
X178576911Y-118031774D01*
X178806379Y-117878449D01*
X179017499Y-117791000D01*
X179061343Y-117772839D01*
X179153777Y-117754453D01*
X179332012Y-117719000D01*
X179607988Y-117719000D01*
X179786223Y-117754453D01*
X179786223Y-117754453D01*
G37*
G36*
X169216565Y-118424389D02*
X169407834Y-118503615D01*
X169579976Y-118618637D01*
X169726363Y-118765024D01*
X169841385Y-118937166D01*
X169920611Y-119128435D01*
X169961000Y-119331484D01*
X169961000Y-119538516D01*
X169920611Y-119741565D01*
X169841385Y-119932834D01*
X169726363Y-120104976D01*
X169579976Y-120251363D01*
X169407834Y-120366385D01*
X169216565Y-120445611D01*
X169013516Y-120486000D01*
X168806484Y-120486000D01*
X168603435Y-120445611D01*
X168412166Y-120366385D01*
X168240024Y-120251363D01*
X168093637Y-120104976D01*
X167978615Y-119932834D01*
X167899389Y-119741565D01*
X167859000Y-119538516D01*
X167859000Y-119331484D01*
X167899389Y-119128435D01*
X167978615Y-118937166D01*
X168093637Y-118765024D01*
X168240024Y-118618637D01*
X168412166Y-118503615D01*
X168603435Y-118424389D01*
X168806484Y-118384000D01*
X169013516Y-118384000D01*
X169216565Y-118424389D01*
X169216565Y-118424389D01*
G37*
G36*
X175716565Y-118424389D02*
X175907834Y-118503615D01*
X176079976Y-118618637D01*
X176226363Y-118765024D01*
X176341385Y-118937166D01*
X176420611Y-119128435D01*
X176461000Y-119331484D01*
X176461000Y-119538516D01*
X176420611Y-119741565D01*
X176341385Y-119932834D01*
X176226363Y-120104976D01*
X176079976Y-120251363D01*
X175907834Y-120366385D01*
X175716565Y-120445611D01*
X175513516Y-120486000D01*
X175306484Y-120486000D01*
X175103435Y-120445611D01*
X174912166Y-120366385D01*
X174740024Y-120251363D01*
X174593637Y-120104976D01*
X174478615Y-119932834D01*
X174399389Y-119741565D01*
X174359000Y-119538516D01*
X174359000Y-119331484D01*
X174399389Y-119128435D01*
X174478615Y-118937166D01*
X174593637Y-118765024D01*
X174740024Y-118618637D01*
X174912166Y-118503615D01*
X175103435Y-118424389D01*
X175306484Y-118384000D01*
X175513516Y-118384000D01*
X175716565Y-118424389D01*
X175716565Y-118424389D01*
G37*
G36*
X215375442Y-118485518D02*
X215441627Y-118492037D01*
X215554853Y-118526384D01*
X215611467Y-118543557D01*
X215676239Y-118578179D01*
X215767991Y-118627222D01*
X215803729Y-118656552D01*
X215905186Y-118739814D01*
X215978226Y-118828815D01*
X216017778Y-118877009D01*
X216017779Y-118877011D01*
X216101443Y-119033533D01*
X216101443Y-119033534D01*
X216152963Y-119203373D01*
X216170359Y-119380000D01*
X216152963Y-119556627D01*
X216144754Y-119583687D01*
X216101443Y-119726467D01*
X216030080Y-119859975D01*
X216017778Y-119882991D01*
X215988448Y-119918729D01*
X215905186Y-120020186D01*
X215803729Y-120103448D01*
X215767991Y-120132778D01*
X215767989Y-120132779D01*
X215611467Y-120216443D01*
X215554853Y-120233616D01*
X215441627Y-120267963D01*
X215375442Y-120274482D01*
X215309260Y-120281000D01*
X215220740Y-120281000D01*
X215154558Y-120274482D01*
X215088373Y-120267963D01*
X214975147Y-120233616D01*
X214918533Y-120216443D01*
X214762011Y-120132779D01*
X214762009Y-120132778D01*
X214726271Y-120103448D01*
X214624814Y-120020186D01*
X214541552Y-119918729D01*
X214512222Y-119882991D01*
X214499920Y-119859975D01*
X214428557Y-119726467D01*
X214385246Y-119583687D01*
X214377037Y-119556627D01*
X214359641Y-119380000D01*
X214377037Y-119203373D01*
X214428557Y-119033534D01*
X214428557Y-119033533D01*
X214512221Y-118877011D01*
X214512222Y-118877009D01*
X214551774Y-118828815D01*
X214624814Y-118739814D01*
X214726271Y-118656552D01*
X214762009Y-118627222D01*
X214853761Y-118578179D01*
X214918533Y-118543557D01*
X214975147Y-118526384D01*
X215088373Y-118492037D01*
X215154558Y-118485518D01*
X215220740Y-118479000D01*
X215309260Y-118479000D01*
X215375442Y-118485518D01*
X215375442Y-118485518D01*
G37*
G36*
X136176821Y-117906313D02*
X136176824Y-117906314D01*
X136176825Y-117906314D01*
X136337239Y-117954975D01*
X136337241Y-117954976D01*
X136337244Y-117954977D01*
X136485078Y-118033995D01*
X136614659Y-118140341D01*
X136721005Y-118269922D01*
X136800023Y-118417756D01*
X136800024Y-118417759D01*
X136800025Y-118417761D01*
X136848686Y-118578175D01*
X136848687Y-118578179D01*
X136865117Y-118745000D01*
X136848687Y-118911821D01*
X136848686Y-118911824D01*
X136848686Y-118911825D01*
X136819443Y-119008228D01*
X136800023Y-119072244D01*
X136721005Y-119220078D01*
X136614659Y-119349659D01*
X136485078Y-119456005D01*
X136337244Y-119535023D01*
X136337241Y-119535024D01*
X136337239Y-119535025D01*
X136176825Y-119583686D01*
X136176824Y-119583686D01*
X136176821Y-119583687D01*
X136051804Y-119596000D01*
X135968196Y-119596000D01*
X135843179Y-119583687D01*
X135843176Y-119583686D01*
X135843175Y-119583686D01*
X135682761Y-119535025D01*
X135682759Y-119535024D01*
X135682756Y-119535023D01*
X135534922Y-119456005D01*
X135405341Y-119349659D01*
X135298995Y-119220078D01*
X135219977Y-119072244D01*
X135200558Y-119008228D01*
X135171314Y-118911825D01*
X135171314Y-118911824D01*
X135171313Y-118911821D01*
X135154883Y-118745000D01*
X135171313Y-118578179D01*
X135171314Y-118578175D01*
X135219975Y-118417761D01*
X135219976Y-118417759D01*
X135219977Y-118417756D01*
X135298995Y-118269922D01*
X135405341Y-118140341D01*
X135534922Y-118033995D01*
X135682756Y-117954977D01*
X135682759Y-117954976D01*
X135682761Y-117954975D01*
X135843175Y-117906314D01*
X135843176Y-117906314D01*
X135843179Y-117906313D01*
X135968196Y-117894000D01*
X136051804Y-117894000D01*
X136176821Y-117906313D01*
X136176821Y-117906313D01*
G37*
G36*
X143758228Y-117926703D02*
X143913100Y-117990853D01*
X144052481Y-118083985D01*
X144171015Y-118202519D01*
X144264147Y-118341900D01*
X144328297Y-118496772D01*
X144361000Y-118661184D01*
X144361000Y-118828816D01*
X144328297Y-118993228D01*
X144264147Y-119148100D01*
X144171015Y-119287481D01*
X144052481Y-119406015D01*
X143913100Y-119499147D01*
X143758228Y-119563297D01*
X143593816Y-119596000D01*
X143426184Y-119596000D01*
X143261772Y-119563297D01*
X143106900Y-119499147D01*
X142967519Y-119406015D01*
X142848985Y-119287481D01*
X142755853Y-119148100D01*
X142691703Y-118993228D01*
X142659000Y-118828816D01*
X142659000Y-118661184D01*
X142691703Y-118496772D01*
X142755853Y-118341900D01*
X142848985Y-118202519D01*
X142967519Y-118083985D01*
X143106900Y-117990853D01*
X143261772Y-117926703D01*
X143426184Y-117894000D01*
X143593816Y-117894000D01*
X143758228Y-117926703D01*
X143758228Y-117926703D01*
G37*
G36*
X188188433Y-116554893D02*
X188278657Y-116572839D01*
X188384267Y-116616585D01*
X188533621Y-116678449D01*
X188763089Y-116831774D01*
X188958226Y-117026911D01*
X189111551Y-117256379D01*
X189170625Y-117398996D01*
X189214675Y-117505341D01*
X189217161Y-117511344D01*
X189271000Y-117782012D01*
X189271000Y-118057988D01*
X189260654Y-118110000D01*
X189217161Y-118328657D01*
X189177507Y-118424389D01*
X189111551Y-118583621D01*
X188958226Y-118813089D01*
X188763089Y-119008226D01*
X188533621Y-119161551D01*
X188432649Y-119203375D01*
X188278657Y-119267161D01*
X188188433Y-119285107D01*
X188007988Y-119321000D01*
X187732012Y-119321000D01*
X187551567Y-119285107D01*
X187461343Y-119267161D01*
X187307351Y-119203375D01*
X187206379Y-119161551D01*
X186976911Y-119008226D01*
X186781774Y-118813089D01*
X186628449Y-118583621D01*
X186562493Y-118424389D01*
X186522839Y-118328657D01*
X186479346Y-118110000D01*
X186469000Y-118057988D01*
X186469000Y-117782012D01*
X186522839Y-117511344D01*
X186525326Y-117505341D01*
X186569375Y-117398996D01*
X186628449Y-117256379D01*
X186781774Y-117026911D01*
X186976911Y-116831774D01*
X187206379Y-116678449D01*
X187355733Y-116616585D01*
X187461343Y-116572839D01*
X187551567Y-116554893D01*
X187732012Y-116519000D01*
X188007988Y-116519000D01*
X188188433Y-116554893D01*
X188188433Y-116554893D01*
G37*
G36*
X155741821Y-117271313D02*
X155741824Y-117271314D01*
X155741825Y-117271314D01*
X155902239Y-117319975D01*
X155902241Y-117319976D01*
X155902244Y-117319977D01*
X156050078Y-117398995D01*
X156179659Y-117505341D01*
X156286005Y-117634922D01*
X156365023Y-117782756D01*
X156365024Y-117782759D01*
X156365025Y-117782761D01*
X156413686Y-117943175D01*
X156413687Y-117943179D01*
X156430117Y-118110000D01*
X156413687Y-118276821D01*
X156413686Y-118276824D01*
X156413686Y-118276825D01*
X156368923Y-118424390D01*
X156365023Y-118437244D01*
X156286005Y-118585078D01*
X156179659Y-118714659D01*
X156050078Y-118821005D01*
X155902244Y-118900023D01*
X155902241Y-118900024D01*
X155902239Y-118900025D01*
X155741825Y-118948686D01*
X155741824Y-118948686D01*
X155741821Y-118948687D01*
X155616804Y-118961000D01*
X155533196Y-118961000D01*
X155408179Y-118948687D01*
X155408176Y-118948686D01*
X155408175Y-118948686D01*
X155247761Y-118900025D01*
X155247759Y-118900024D01*
X155247756Y-118900023D01*
X155099922Y-118821005D01*
X154970341Y-118714659D01*
X154863995Y-118585078D01*
X154784977Y-118437244D01*
X154781078Y-118424390D01*
X154736314Y-118276825D01*
X154736314Y-118276824D01*
X154736313Y-118276821D01*
X154719883Y-118110000D01*
X154736313Y-117943179D01*
X154736314Y-117943175D01*
X154784975Y-117782761D01*
X154784976Y-117782759D01*
X154784977Y-117782756D01*
X154863995Y-117634922D01*
X154970341Y-117505341D01*
X155099922Y-117398995D01*
X155247756Y-117319977D01*
X155247759Y-117319976D01*
X155247761Y-117319975D01*
X155408175Y-117271314D01*
X155408176Y-117271314D01*
X155408179Y-117271313D01*
X155533196Y-117259000D01*
X155616804Y-117259000D01*
X155741821Y-117271313D01*
X155741821Y-117271313D01*
G37*
G36*
X163361821Y-117271313D02*
X163361824Y-117271314D01*
X163361825Y-117271314D01*
X163522239Y-117319975D01*
X163522241Y-117319976D01*
X163522244Y-117319977D01*
X163670078Y-117398995D01*
X163799659Y-117505341D01*
X163906005Y-117634922D01*
X163985023Y-117782756D01*
X163985024Y-117782759D01*
X163985025Y-117782761D01*
X164033686Y-117943175D01*
X164033687Y-117943179D01*
X164050117Y-118110000D01*
X164033687Y-118276821D01*
X164033686Y-118276824D01*
X164033686Y-118276825D01*
X163988923Y-118424390D01*
X163985023Y-118437244D01*
X163906005Y-118585078D01*
X163799659Y-118714659D01*
X163670078Y-118821005D01*
X163522244Y-118900023D01*
X163522241Y-118900024D01*
X163522239Y-118900025D01*
X163361825Y-118948686D01*
X163361824Y-118948686D01*
X163361821Y-118948687D01*
X163236804Y-118961000D01*
X163153196Y-118961000D01*
X163028179Y-118948687D01*
X163028176Y-118948686D01*
X163028175Y-118948686D01*
X162867761Y-118900025D01*
X162867759Y-118900024D01*
X162867756Y-118900023D01*
X162719922Y-118821005D01*
X162590341Y-118714659D01*
X162483995Y-118585078D01*
X162404977Y-118437244D01*
X162401078Y-118424390D01*
X162356314Y-118276825D01*
X162356314Y-118276824D01*
X162356313Y-118276821D01*
X162339883Y-118110000D01*
X162356313Y-117943179D01*
X162356314Y-117943175D01*
X162404975Y-117782761D01*
X162404976Y-117782759D01*
X162404977Y-117782756D01*
X162483995Y-117634922D01*
X162590341Y-117505341D01*
X162719922Y-117398995D01*
X162867756Y-117319977D01*
X162867759Y-117319976D01*
X162867761Y-117319975D01*
X163028175Y-117271314D01*
X163028176Y-117271314D01*
X163028179Y-117271313D01*
X163153196Y-117259000D01*
X163236804Y-117259000D01*
X163361821Y-117271313D01*
X163361821Y-117271313D01*
G37*
G36*
X198397396Y-115925546D02*
X198570466Y-115997234D01*
X198726230Y-116101312D01*
X198858688Y-116233770D01*
X198962766Y-116389534D01*
X199034454Y-116562604D01*
X199071000Y-116746333D01*
X199071000Y-116933667D01*
X199034454Y-117117396D01*
X198962766Y-117290466D01*
X198858688Y-117446230D01*
X198726230Y-117578688D01*
X198570466Y-117682766D01*
X198397396Y-117754454D01*
X198213667Y-117791000D01*
X198026333Y-117791000D01*
X197842604Y-117754454D01*
X197669534Y-117682766D01*
X197513770Y-117578688D01*
X197381312Y-117446230D01*
X197277234Y-117290466D01*
X197205546Y-117117396D01*
X197169000Y-116933667D01*
X197169000Y-116746333D01*
X197205546Y-116562604D01*
X197277234Y-116389534D01*
X197381312Y-116233770D01*
X197513770Y-116101312D01*
X197669534Y-115997234D01*
X197842604Y-115925546D01*
X198026333Y-115889000D01*
X198213667Y-115889000D01*
X198397396Y-115925546D01*
X198397396Y-115925546D01*
G37*
G36*
X201611000Y-117791000D02*
X199709000Y-117791000D01*
X199709000Y-115889000D01*
X201611000Y-115889000D01*
X201611000Y-117791000D01*
X201611000Y-117791000D01*
G37*
G36*
X215375442Y-115945518D02*
X215441627Y-115952037D01*
X215553588Y-115986000D01*
X215611467Y-116003557D01*
X215698311Y-116049977D01*
X215767991Y-116087222D01*
X215798769Y-116112481D01*
X215905186Y-116199814D01*
X215985369Y-116297519D01*
X216017778Y-116337009D01*
X216017779Y-116337011D01*
X216101443Y-116493533D01*
X216109168Y-116519000D01*
X216152963Y-116663373D01*
X216170359Y-116840000D01*
X216152963Y-117016627D01*
X216149843Y-117026911D01*
X216101443Y-117186467D01*
X216045853Y-117290467D01*
X216017778Y-117342991D01*
X215988448Y-117378729D01*
X215905186Y-117480186D01*
X215803729Y-117563448D01*
X215767991Y-117592778D01*
X215767989Y-117592779D01*
X215611467Y-117676443D01*
X215590622Y-117682766D01*
X215441627Y-117727963D01*
X215375442Y-117734482D01*
X215309260Y-117741000D01*
X215220740Y-117741000D01*
X215154558Y-117734482D01*
X215088373Y-117727963D01*
X214939378Y-117682766D01*
X214918533Y-117676443D01*
X214762011Y-117592779D01*
X214762009Y-117592778D01*
X214726271Y-117563448D01*
X214624814Y-117480186D01*
X214541552Y-117378729D01*
X214512222Y-117342991D01*
X214484147Y-117290467D01*
X214428557Y-117186467D01*
X214380157Y-117026911D01*
X214377037Y-117016627D01*
X214359641Y-116840000D01*
X214377037Y-116663373D01*
X214420832Y-116519000D01*
X214428557Y-116493533D01*
X214512221Y-116337011D01*
X214512222Y-116337009D01*
X214544631Y-116297519D01*
X214624814Y-116199814D01*
X214731231Y-116112481D01*
X214762009Y-116087222D01*
X214831689Y-116049977D01*
X214918533Y-116003557D01*
X214976412Y-115986000D01*
X215088373Y-115952037D01*
X215154558Y-115945518D01*
X215220740Y-115939000D01*
X215309260Y-115939000D01*
X215375442Y-115945518D01*
X215375442Y-115945518D01*
G37*
G36*
X210986821Y-116001313D02*
X210986824Y-116001314D01*
X210986825Y-116001314D01*
X211147239Y-116049975D01*
X211147241Y-116049976D01*
X211147244Y-116049977D01*
X211295078Y-116128995D01*
X211424659Y-116235341D01*
X211531005Y-116364922D01*
X211610023Y-116512756D01*
X211610024Y-116512759D01*
X211610025Y-116512761D01*
X211655713Y-116663375D01*
X211658687Y-116673179D01*
X211675117Y-116840000D01*
X211658687Y-117006821D01*
X211658686Y-117006824D01*
X211658686Y-117006825D01*
X211625145Y-117117396D01*
X211610023Y-117167244D01*
X211531005Y-117315078D01*
X211424659Y-117444659D01*
X211295078Y-117551005D01*
X211147244Y-117630023D01*
X211147241Y-117630024D01*
X211147239Y-117630025D01*
X210986825Y-117678686D01*
X210986824Y-117678686D01*
X210986821Y-117678687D01*
X210861804Y-117691000D01*
X210778196Y-117691000D01*
X210653179Y-117678687D01*
X210653176Y-117678686D01*
X210653175Y-117678686D01*
X210492761Y-117630025D01*
X210492759Y-117630024D01*
X210492756Y-117630023D01*
X210344922Y-117551005D01*
X210215341Y-117444659D01*
X210108995Y-117315078D01*
X210029977Y-117167244D01*
X210014856Y-117117396D01*
X209981314Y-117006825D01*
X209981314Y-117006824D01*
X209981313Y-117006821D01*
X209964883Y-116840000D01*
X209981313Y-116673179D01*
X209984287Y-116663375D01*
X210029975Y-116512761D01*
X210029976Y-116512759D01*
X210029977Y-116512756D01*
X210108995Y-116364922D01*
X210215341Y-116235341D01*
X210344922Y-116128995D01*
X210492756Y-116049977D01*
X210492759Y-116049976D01*
X210492761Y-116049975D01*
X210653175Y-116001314D01*
X210653176Y-116001314D01*
X210653179Y-116001313D01*
X210778196Y-115989000D01*
X210861804Y-115989000D01*
X210986821Y-116001313D01*
X210986821Y-116001313D01*
G37*
G36*
X203448228Y-116021703D02*
X203603100Y-116085853D01*
X203742481Y-116178985D01*
X203861015Y-116297519D01*
X203954147Y-116436900D01*
X204018297Y-116591772D01*
X204051000Y-116756184D01*
X204051000Y-116923816D01*
X204018297Y-117088228D01*
X203954147Y-117243100D01*
X203861015Y-117382481D01*
X203742481Y-117501015D01*
X203603100Y-117594147D01*
X203448228Y-117658297D01*
X203283816Y-117691000D01*
X203116184Y-117691000D01*
X202951772Y-117658297D01*
X202796900Y-117594147D01*
X202657519Y-117501015D01*
X202538985Y-117382481D01*
X202445853Y-117243100D01*
X202381703Y-117088228D01*
X202349000Y-116923816D01*
X202349000Y-116756184D01*
X202381703Y-116591772D01*
X202445853Y-116436900D01*
X202538985Y-116297519D01*
X202657519Y-116178985D01*
X202796900Y-116085853D01*
X202951772Y-116021703D01*
X203116184Y-115989000D01*
X203283816Y-115989000D01*
X203448228Y-116021703D01*
X203448228Y-116021703D01*
G37*
G36*
X193288228Y-114751703D02*
X193443100Y-114815853D01*
X193582481Y-114908985D01*
X193701015Y-115027519D01*
X193794147Y-115166900D01*
X193858297Y-115321772D01*
X193891000Y-115486184D01*
X193891000Y-115653816D01*
X193858297Y-115818228D01*
X193794147Y-115973100D01*
X193701015Y-116112481D01*
X193582481Y-116231015D01*
X193443100Y-116324147D01*
X193288228Y-116388297D01*
X193123816Y-116421000D01*
X192956184Y-116421000D01*
X192791772Y-116388297D01*
X192636900Y-116324147D01*
X192497519Y-116231015D01*
X192378985Y-116112481D01*
X192285853Y-115973100D01*
X192221703Y-115818228D01*
X192189000Y-115653816D01*
X192189000Y-115486184D01*
X192221703Y-115321772D01*
X192285853Y-115166900D01*
X192378985Y-115027519D01*
X192497519Y-114908985D01*
X192636900Y-114815853D01*
X192791772Y-114751703D01*
X192956184Y-114719000D01*
X193123816Y-114719000D01*
X193288228Y-114751703D01*
X193288228Y-114751703D01*
G37*
G36*
X163361821Y-114731313D02*
X163361824Y-114731314D01*
X163361825Y-114731314D01*
X163522239Y-114779975D01*
X163522241Y-114779976D01*
X163522244Y-114779977D01*
X163670078Y-114858995D01*
X163799659Y-114965341D01*
X163906005Y-115094922D01*
X163985023Y-115242756D01*
X163985024Y-115242759D01*
X163985025Y-115242761D01*
X164033686Y-115403175D01*
X164033687Y-115403179D01*
X164050117Y-115570000D01*
X164033687Y-115736821D01*
X164033686Y-115736824D01*
X164033686Y-115736825D01*
X163990070Y-115880608D01*
X163985023Y-115897244D01*
X163906005Y-116045078D01*
X163799659Y-116174659D01*
X163670078Y-116281005D01*
X163522244Y-116360023D01*
X163522241Y-116360024D01*
X163522239Y-116360025D01*
X163361825Y-116408686D01*
X163361824Y-116408686D01*
X163361821Y-116408687D01*
X163236804Y-116421000D01*
X163153196Y-116421000D01*
X163028179Y-116408687D01*
X163028176Y-116408686D01*
X163028175Y-116408686D01*
X162867761Y-116360025D01*
X162867759Y-116360024D01*
X162867756Y-116360023D01*
X162719922Y-116281005D01*
X162590341Y-116174659D01*
X162483995Y-116045078D01*
X162404977Y-115897244D01*
X162399931Y-115880608D01*
X162356314Y-115736825D01*
X162356314Y-115736824D01*
X162356313Y-115736821D01*
X162339883Y-115570000D01*
X162356313Y-115403179D01*
X162356314Y-115403175D01*
X162404975Y-115242761D01*
X162404976Y-115242759D01*
X162404977Y-115242756D01*
X162483995Y-115094922D01*
X162590341Y-114965341D01*
X162719922Y-114858995D01*
X162867756Y-114779977D01*
X162867759Y-114779976D01*
X162867761Y-114779975D01*
X163028175Y-114731314D01*
X163028176Y-114731314D01*
X163028179Y-114731313D01*
X163153196Y-114719000D01*
X163236804Y-114719000D01*
X163361821Y-114731313D01*
X163361821Y-114731313D01*
G37*
G36*
X155741821Y-114731313D02*
X155741824Y-114731314D01*
X155741825Y-114731314D01*
X155902239Y-114779975D01*
X155902241Y-114779976D01*
X155902244Y-114779977D01*
X156050078Y-114858995D01*
X156179659Y-114965341D01*
X156286005Y-115094922D01*
X156365023Y-115242756D01*
X156365024Y-115242759D01*
X156365025Y-115242761D01*
X156413686Y-115403175D01*
X156413687Y-115403179D01*
X156430117Y-115570000D01*
X156413687Y-115736821D01*
X156413686Y-115736824D01*
X156413686Y-115736825D01*
X156370070Y-115880608D01*
X156365023Y-115897244D01*
X156286005Y-116045078D01*
X156179659Y-116174659D01*
X156050078Y-116281005D01*
X155902244Y-116360023D01*
X155902241Y-116360024D01*
X155902239Y-116360025D01*
X155741825Y-116408686D01*
X155741824Y-116408686D01*
X155741821Y-116408687D01*
X155616804Y-116421000D01*
X155533196Y-116421000D01*
X155408179Y-116408687D01*
X155408176Y-116408686D01*
X155408175Y-116408686D01*
X155247761Y-116360025D01*
X155247759Y-116360024D01*
X155247756Y-116360023D01*
X155099922Y-116281005D01*
X154970341Y-116174659D01*
X154863995Y-116045078D01*
X154784977Y-115897244D01*
X154779931Y-115880608D01*
X154736314Y-115736825D01*
X154736314Y-115736824D01*
X154736313Y-115736821D01*
X154719883Y-115570000D01*
X154736313Y-115403179D01*
X154736314Y-115403175D01*
X154784975Y-115242761D01*
X154784976Y-115242759D01*
X154784977Y-115242756D01*
X154863995Y-115094922D01*
X154970341Y-114965341D01*
X155099922Y-114858995D01*
X155247756Y-114779977D01*
X155247759Y-114779976D01*
X155247761Y-114779975D01*
X155408175Y-114731314D01*
X155408176Y-114731314D01*
X155408179Y-114731313D01*
X155533196Y-114719000D01*
X155616804Y-114719000D01*
X155741821Y-114731313D01*
X155741821Y-114731313D01*
G37*
G36*
X150728643Y-114599781D02*
X150874415Y-114660162D01*
X151005611Y-114747824D01*
X151117176Y-114859389D01*
X151204838Y-114990585D01*
X151265219Y-115136357D01*
X151296000Y-115291107D01*
X151296000Y-115448893D01*
X151265219Y-115603643D01*
X151204838Y-115749415D01*
X151117176Y-115880611D01*
X151005611Y-115992176D01*
X150874415Y-116079838D01*
X150728643Y-116140219D01*
X150573893Y-116171000D01*
X150416107Y-116171000D01*
X150261357Y-116140219D01*
X150115585Y-116079838D01*
X149984389Y-115992176D01*
X149872824Y-115880611D01*
X149785162Y-115749415D01*
X149724781Y-115603643D01*
X149694000Y-115448893D01*
X149694000Y-115291107D01*
X149724781Y-115136357D01*
X149785162Y-114990585D01*
X149872824Y-114859389D01*
X149984389Y-114747824D01*
X150115585Y-114660162D01*
X150261357Y-114599781D01*
X150416107Y-114569000D01*
X150573893Y-114569000D01*
X150728643Y-114599781D01*
X150728643Y-114599781D01*
G37*
G36*
X175716565Y-113924389D02*
X175907834Y-114003615D01*
X176079976Y-114118637D01*
X176226363Y-114265024D01*
X176341385Y-114437166D01*
X176420611Y-114628435D01*
X176461000Y-114831484D01*
X176461000Y-115038516D01*
X176420611Y-115241565D01*
X176341385Y-115432834D01*
X176226363Y-115604976D01*
X176079976Y-115751363D01*
X175907834Y-115866385D01*
X175716565Y-115945611D01*
X175513516Y-115986000D01*
X175306484Y-115986000D01*
X175103435Y-115945611D01*
X174912166Y-115866385D01*
X174740024Y-115751363D01*
X174593637Y-115604976D01*
X174478615Y-115432834D01*
X174399389Y-115241565D01*
X174359000Y-115038516D01*
X174359000Y-114831484D01*
X174399389Y-114628435D01*
X174478615Y-114437166D01*
X174593637Y-114265024D01*
X174740024Y-114118637D01*
X174912166Y-114003615D01*
X175103435Y-113924389D01*
X175306484Y-113884000D01*
X175513516Y-113884000D01*
X175716565Y-113924389D01*
X175716565Y-113924389D01*
G37*
G36*
X169216565Y-113924389D02*
X169407834Y-114003615D01*
X169579976Y-114118637D01*
X169726363Y-114265024D01*
X169841385Y-114437166D01*
X169920611Y-114628435D01*
X169961000Y-114831484D01*
X169961000Y-115038516D01*
X169920611Y-115241565D01*
X169841385Y-115432834D01*
X169726363Y-115604976D01*
X169579976Y-115751363D01*
X169407834Y-115866385D01*
X169216565Y-115945611D01*
X169013516Y-115986000D01*
X168806484Y-115986000D01*
X168603435Y-115945611D01*
X168412166Y-115866385D01*
X168240024Y-115751363D01*
X168093637Y-115604976D01*
X167978615Y-115432834D01*
X167899389Y-115241565D01*
X167859000Y-115038516D01*
X167859000Y-114831484D01*
X167899389Y-114628435D01*
X167978615Y-114437166D01*
X168093637Y-114265024D01*
X168240024Y-114118637D01*
X168412166Y-114003615D01*
X168603435Y-113924389D01*
X168806484Y-113884000D01*
X169013516Y-113884000D01*
X169216565Y-113924389D01*
X169216565Y-113924389D01*
G37*
G36*
X136811821Y-114096313D02*
X136811824Y-114096314D01*
X136811825Y-114096314D01*
X136972239Y-114144975D01*
X136972241Y-114144976D01*
X136972244Y-114144977D01*
X137120078Y-114223995D01*
X137249659Y-114330341D01*
X137356005Y-114459922D01*
X137435023Y-114607756D01*
X137435024Y-114607759D01*
X137435025Y-114607761D01*
X137483686Y-114768175D01*
X137483687Y-114768179D01*
X137500117Y-114935000D01*
X137483687Y-115101821D01*
X137483686Y-115101824D01*
X137483686Y-115101825D01*
X137440934Y-115242761D01*
X137435023Y-115262244D01*
X137356005Y-115410078D01*
X137249659Y-115539659D01*
X137120078Y-115646005D01*
X136972244Y-115725023D01*
X136972241Y-115725024D01*
X136972239Y-115725025D01*
X136811825Y-115773686D01*
X136811824Y-115773686D01*
X136811821Y-115773687D01*
X136686804Y-115786000D01*
X136603196Y-115786000D01*
X136478179Y-115773687D01*
X136478176Y-115773686D01*
X136478175Y-115773686D01*
X136317761Y-115725025D01*
X136317759Y-115725024D01*
X136317756Y-115725023D01*
X136169922Y-115646005D01*
X136040341Y-115539659D01*
X135933995Y-115410078D01*
X135854977Y-115262244D01*
X135849067Y-115242761D01*
X135806314Y-115101825D01*
X135806314Y-115101824D01*
X135806313Y-115101821D01*
X135789883Y-114935000D01*
X135806313Y-114768179D01*
X135806314Y-114768175D01*
X135854975Y-114607761D01*
X135854976Y-114607759D01*
X135854977Y-114607756D01*
X135933995Y-114459922D01*
X136040341Y-114330341D01*
X136169922Y-114223995D01*
X136317756Y-114144977D01*
X136317759Y-114144976D01*
X136317761Y-114144975D01*
X136478175Y-114096314D01*
X136478176Y-114096314D01*
X136478179Y-114096313D01*
X136603196Y-114084000D01*
X136686804Y-114084000D01*
X136811821Y-114096313D01*
X136811821Y-114096313D01*
G37*
G36*
X144393228Y-114116703D02*
X144548100Y-114180853D01*
X144687481Y-114273985D01*
X144806015Y-114392519D01*
X144899147Y-114531900D01*
X144963297Y-114686772D01*
X144996000Y-114851184D01*
X144996000Y-115018816D01*
X144963297Y-115183228D01*
X144899147Y-115338100D01*
X144806015Y-115477481D01*
X144687481Y-115596015D01*
X144548100Y-115689147D01*
X144393228Y-115753297D01*
X144228816Y-115786000D01*
X144061184Y-115786000D01*
X143896772Y-115753297D01*
X143741900Y-115689147D01*
X143602519Y-115596015D01*
X143483985Y-115477481D01*
X143390853Y-115338100D01*
X143326703Y-115183228D01*
X143294000Y-115018816D01*
X143294000Y-114851184D01*
X143326703Y-114686772D01*
X143390853Y-114531900D01*
X143483985Y-114392519D01*
X143602519Y-114273985D01*
X143741900Y-114180853D01*
X143896772Y-114116703D01*
X144061184Y-114084000D01*
X144228816Y-114084000D01*
X144393228Y-114116703D01*
X144393228Y-114116703D01*
G37*
G36*
X215375443Y-113405519D02*
X215441627Y-113412037D01*
X215554853Y-113446384D01*
X215611467Y-113463557D01*
X215689146Y-113505078D01*
X215767991Y-113547222D01*
X215803729Y-113576552D01*
X215905186Y-113659814D01*
X215988448Y-113761271D01*
X216017778Y-113797009D01*
X216017779Y-113797011D01*
X216101443Y-113953533D01*
X216101443Y-113953534D01*
X216152963Y-114123373D01*
X216170359Y-114300000D01*
X216152963Y-114476627D01*
X216136196Y-114531900D01*
X216101443Y-114646467D01*
X216047267Y-114747822D01*
X216017778Y-114802991D01*
X215988448Y-114838729D01*
X215905186Y-114940186D01*
X215809374Y-115018816D01*
X215767991Y-115052778D01*
X215767989Y-115052779D01*
X215611467Y-115136443D01*
X215554853Y-115153616D01*
X215441627Y-115187963D01*
X215375442Y-115194482D01*
X215309260Y-115201000D01*
X215220740Y-115201000D01*
X215154558Y-115194482D01*
X215088373Y-115187963D01*
X214975147Y-115153616D01*
X214918533Y-115136443D01*
X214762011Y-115052779D01*
X214762009Y-115052778D01*
X214720626Y-115018816D01*
X214624814Y-114940186D01*
X214541552Y-114838729D01*
X214512222Y-114802991D01*
X214482733Y-114747822D01*
X214428557Y-114646467D01*
X214393804Y-114531900D01*
X214377037Y-114476627D01*
X214359641Y-114300000D01*
X214377037Y-114123373D01*
X214428557Y-113953534D01*
X214428557Y-113953533D01*
X214512221Y-113797011D01*
X214512222Y-113797009D01*
X214541552Y-113761271D01*
X214624814Y-113659814D01*
X214726271Y-113576552D01*
X214762009Y-113547222D01*
X214840854Y-113505078D01*
X214918533Y-113463557D01*
X214975147Y-113446384D01*
X215088373Y-113412037D01*
X215154557Y-113405519D01*
X215220740Y-113399000D01*
X215309260Y-113399000D01*
X215375443Y-113405519D01*
X215375443Y-113405519D01*
G37*
G36*
X163361821Y-112191313D02*
X163361824Y-112191314D01*
X163361825Y-112191314D01*
X163522239Y-112239975D01*
X163522241Y-112239976D01*
X163522244Y-112239977D01*
X163670078Y-112318995D01*
X163799659Y-112425341D01*
X163906005Y-112554922D01*
X163985023Y-112702756D01*
X164033687Y-112863179D01*
X164050117Y-113030000D01*
X164033687Y-113196821D01*
X163985023Y-113357244D01*
X163906005Y-113505078D01*
X163799659Y-113634659D01*
X163670078Y-113741005D01*
X163522244Y-113820023D01*
X163522241Y-113820024D01*
X163522239Y-113820025D01*
X163361825Y-113868686D01*
X163361824Y-113868686D01*
X163361821Y-113868687D01*
X163236804Y-113881000D01*
X163153196Y-113881000D01*
X163028179Y-113868687D01*
X163028176Y-113868686D01*
X163028175Y-113868686D01*
X162867761Y-113820025D01*
X162867759Y-113820024D01*
X162867756Y-113820023D01*
X162719922Y-113741005D01*
X162590341Y-113634659D01*
X162483995Y-113505078D01*
X162404977Y-113357244D01*
X162356313Y-113196821D01*
X162339883Y-113030000D01*
X162356313Y-112863179D01*
X162404977Y-112702756D01*
X162483995Y-112554922D01*
X162590341Y-112425341D01*
X162719922Y-112318995D01*
X162867756Y-112239977D01*
X162867759Y-112239976D01*
X162867761Y-112239975D01*
X163028175Y-112191314D01*
X163028176Y-112191314D01*
X163028179Y-112191313D01*
X163153196Y-112179000D01*
X163236804Y-112179000D01*
X163361821Y-112191313D01*
X163361821Y-112191313D01*
G37*
G36*
X155741821Y-112191313D02*
X155741824Y-112191314D01*
X155741825Y-112191314D01*
X155902239Y-112239975D01*
X155902241Y-112239976D01*
X155902244Y-112239977D01*
X156050078Y-112318995D01*
X156179659Y-112425341D01*
X156286005Y-112554922D01*
X156365023Y-112702756D01*
X156413687Y-112863179D01*
X156430117Y-113030000D01*
X156413687Y-113196821D01*
X156365023Y-113357244D01*
X156286005Y-113505078D01*
X156179659Y-113634659D01*
X156050078Y-113741005D01*
X155902244Y-113820023D01*
X155902241Y-113820024D01*
X155902239Y-113820025D01*
X155741825Y-113868686D01*
X155741824Y-113868686D01*
X155741821Y-113868687D01*
X155616804Y-113881000D01*
X155533196Y-113881000D01*
X155408179Y-113868687D01*
X155408176Y-113868686D01*
X155408175Y-113868686D01*
X155247761Y-113820025D01*
X155247759Y-113820024D01*
X155247756Y-113820023D01*
X155099922Y-113741005D01*
X154970341Y-113634659D01*
X154863995Y-113505078D01*
X154784977Y-113357244D01*
X154736313Y-113196821D01*
X154719883Y-113030000D01*
X154736313Y-112863179D01*
X154784977Y-112702756D01*
X154863995Y-112554922D01*
X154970341Y-112425341D01*
X155099922Y-112318995D01*
X155247756Y-112239977D01*
X155247759Y-112239976D01*
X155247761Y-112239975D01*
X155408175Y-112191314D01*
X155408176Y-112191314D01*
X155408179Y-112191313D01*
X155533196Y-112179000D01*
X155616804Y-112179000D01*
X155741821Y-112191313D01*
X155741821Y-112191313D01*
G37*
G36*
X199071000Y-112711000D02*
X197169000Y-112711000D01*
X197169000Y-110809000D01*
X199071000Y-110809000D01*
X199071000Y-112711000D01*
X199071000Y-112711000D01*
G37*
G36*
X200937396Y-110845546D02*
X201110466Y-110917234D01*
X201266230Y-111021312D01*
X201398688Y-111153770D01*
X201502766Y-111309534D01*
X201574454Y-111482604D01*
X201611000Y-111666333D01*
X201611000Y-111853667D01*
X201574454Y-112037396D01*
X201502766Y-112210466D01*
X201398688Y-112366230D01*
X201266230Y-112498688D01*
X201110466Y-112602766D01*
X200937396Y-112674454D01*
X200753667Y-112711000D01*
X200566333Y-112711000D01*
X200382604Y-112674454D01*
X200209534Y-112602766D01*
X200053770Y-112498688D01*
X199921312Y-112366230D01*
X199817234Y-112210466D01*
X199745546Y-112037396D01*
X199709000Y-111853667D01*
X199709000Y-111666333D01*
X199745546Y-111482604D01*
X199817234Y-111309534D01*
X199921312Y-111153770D01*
X200053770Y-111021312D01*
X200209534Y-110917234D01*
X200382604Y-110845546D01*
X200566333Y-110809000D01*
X200753667Y-110809000D01*
X200937396Y-110845546D01*
X200937396Y-110845546D01*
G37*
G36*
X215375442Y-110865518D02*
X215441627Y-110872037D01*
X215554853Y-110906384D01*
X215611467Y-110923557D01*
X215698311Y-110969977D01*
X215767991Y-111007222D01*
X215803729Y-111036552D01*
X215905186Y-111119814D01*
X215978226Y-111208815D01*
X216017778Y-111257009D01*
X216017779Y-111257011D01*
X216101443Y-111413533D01*
X216113184Y-111452239D01*
X216152963Y-111583373D01*
X216170359Y-111760000D01*
X216152963Y-111936627D01*
X216144754Y-111963687D01*
X216101443Y-112106467D01*
X216045853Y-112210467D01*
X216017778Y-112262991D01*
X215988448Y-112298729D01*
X215905186Y-112400186D01*
X215803729Y-112483448D01*
X215767991Y-112512778D01*
X215767989Y-112512779D01*
X215611467Y-112596443D01*
X215590622Y-112602766D01*
X215441627Y-112647963D01*
X215375442Y-112654482D01*
X215309260Y-112661000D01*
X215220740Y-112661000D01*
X215154558Y-112654482D01*
X215088373Y-112647963D01*
X214939378Y-112602766D01*
X214918533Y-112596443D01*
X214762011Y-112512779D01*
X214762009Y-112512778D01*
X214726271Y-112483448D01*
X214624814Y-112400186D01*
X214541552Y-112298729D01*
X214512222Y-112262991D01*
X214484147Y-112210467D01*
X214428557Y-112106467D01*
X214385246Y-111963687D01*
X214377037Y-111936627D01*
X214359641Y-111760000D01*
X214377037Y-111583373D01*
X214416816Y-111452239D01*
X214428557Y-111413533D01*
X214512221Y-111257011D01*
X214512222Y-111257009D01*
X214551774Y-111208815D01*
X214624814Y-111119814D01*
X214726271Y-111036552D01*
X214762009Y-111007222D01*
X214831689Y-110969977D01*
X214918533Y-110923557D01*
X214975147Y-110906384D01*
X215088373Y-110872037D01*
X215154558Y-110865518D01*
X215220740Y-110859000D01*
X215309260Y-110859000D01*
X215375442Y-110865518D01*
X215375442Y-110865518D01*
G37*
G36*
X211068228Y-110941703D02*
X211223100Y-111005853D01*
X211362481Y-111098985D01*
X211481015Y-111217519D01*
X211574147Y-111356900D01*
X211638297Y-111511772D01*
X211671000Y-111676184D01*
X211671000Y-111843816D01*
X211638297Y-112008228D01*
X211574147Y-112163100D01*
X211481015Y-112302481D01*
X211362481Y-112421015D01*
X211223100Y-112514147D01*
X211068228Y-112578297D01*
X210903816Y-112611000D01*
X210736184Y-112611000D01*
X210571772Y-112578297D01*
X210416900Y-112514147D01*
X210277519Y-112421015D01*
X210158985Y-112302481D01*
X210065853Y-112163100D01*
X210001703Y-112008228D01*
X209969000Y-111843816D01*
X209969000Y-111676184D01*
X210001703Y-111511772D01*
X210065853Y-111356900D01*
X210158985Y-111217519D01*
X210277519Y-111098985D01*
X210416900Y-111005853D01*
X210571772Y-110941703D01*
X210736184Y-110909000D01*
X210903816Y-110909000D01*
X211068228Y-110941703D01*
X211068228Y-110941703D01*
G37*
G36*
X203366821Y-110921313D02*
X203366824Y-110921314D01*
X203366825Y-110921314D01*
X203527239Y-110969975D01*
X203527241Y-110969976D01*
X203527244Y-110969977D01*
X203675078Y-111048995D01*
X203804659Y-111155341D01*
X203911005Y-111284922D01*
X203990023Y-111432756D01*
X203990024Y-111432759D01*
X203990025Y-111432761D01*
X204035713Y-111583375D01*
X204038687Y-111593179D01*
X204055117Y-111760000D01*
X204038687Y-111926821D01*
X204038686Y-111926824D01*
X204038686Y-111926825D01*
X204005145Y-112037396D01*
X203990023Y-112087244D01*
X203911005Y-112235078D01*
X203804659Y-112364659D01*
X203675078Y-112471005D01*
X203527244Y-112550023D01*
X203527241Y-112550024D01*
X203527239Y-112550025D01*
X203366825Y-112598686D01*
X203366824Y-112598686D01*
X203366821Y-112598687D01*
X203241804Y-112611000D01*
X203158196Y-112611000D01*
X203033179Y-112598687D01*
X203033176Y-112598686D01*
X203033175Y-112598686D01*
X202872761Y-112550025D01*
X202872759Y-112550024D01*
X202872756Y-112550023D01*
X202724922Y-112471005D01*
X202595341Y-112364659D01*
X202488995Y-112235078D01*
X202409977Y-112087244D01*
X202394856Y-112037396D01*
X202361314Y-111926825D01*
X202361314Y-111926824D01*
X202361313Y-111926821D01*
X202344883Y-111760000D01*
X202361313Y-111593179D01*
X202364287Y-111583375D01*
X202409975Y-111432761D01*
X202409976Y-111432759D01*
X202409977Y-111432756D01*
X202488995Y-111284922D01*
X202595341Y-111155341D01*
X202724922Y-111048995D01*
X202872756Y-110969977D01*
X202872759Y-110969976D01*
X202872761Y-110969975D01*
X203033175Y-110921314D01*
X203033176Y-110921314D01*
X203033179Y-110921313D01*
X203158196Y-110909000D01*
X203241804Y-110909000D01*
X203366821Y-110921313D01*
X203366821Y-110921313D01*
G37*
G36*
X136691821Y-110286313D02*
X136691824Y-110286314D01*
X136691825Y-110286314D01*
X136852239Y-110334975D01*
X136852241Y-110334976D01*
X136852244Y-110334977D01*
X137000078Y-110413995D01*
X137129659Y-110520341D01*
X137236005Y-110649922D01*
X137315023Y-110797756D01*
X137315024Y-110797759D01*
X137315025Y-110797761D01*
X137363686Y-110958175D01*
X137363687Y-110958179D01*
X137380117Y-111125000D01*
X137363687Y-111291821D01*
X137363686Y-111291824D01*
X137363686Y-111291825D01*
X137320934Y-111432761D01*
X137315023Y-111452244D01*
X137236005Y-111600078D01*
X137129659Y-111729659D01*
X137000078Y-111836005D01*
X136852244Y-111915023D01*
X136852241Y-111915024D01*
X136852239Y-111915025D01*
X136691825Y-111963686D01*
X136691824Y-111963686D01*
X136691821Y-111963687D01*
X136566804Y-111976000D01*
X136483196Y-111976000D01*
X136358179Y-111963687D01*
X136358176Y-111963686D01*
X136358175Y-111963686D01*
X136197761Y-111915025D01*
X136197759Y-111915024D01*
X136197756Y-111915023D01*
X136049922Y-111836005D01*
X135920341Y-111729659D01*
X135813995Y-111600078D01*
X135734977Y-111452244D01*
X135729067Y-111432761D01*
X135686314Y-111291825D01*
X135686314Y-111291824D01*
X135686313Y-111291821D01*
X135669883Y-111125000D01*
X135686313Y-110958179D01*
X135686314Y-110958175D01*
X135734975Y-110797761D01*
X135734976Y-110797759D01*
X135734977Y-110797756D01*
X135813995Y-110649922D01*
X135920341Y-110520341D01*
X136049922Y-110413995D01*
X136197756Y-110334977D01*
X136197759Y-110334976D01*
X136197761Y-110334975D01*
X136358175Y-110286314D01*
X136358176Y-110286314D01*
X136358179Y-110286313D01*
X136483196Y-110274000D01*
X136566804Y-110274000D01*
X136691821Y-110286313D01*
X136691821Y-110286313D01*
G37*
G36*
X144393228Y-110306703D02*
X144548100Y-110370853D01*
X144687481Y-110463985D01*
X144806015Y-110582519D01*
X144899147Y-110721900D01*
X144963297Y-110876772D01*
X144996000Y-111041184D01*
X144996000Y-111208816D01*
X144963297Y-111373228D01*
X144899147Y-111528100D01*
X144806015Y-111667481D01*
X144687481Y-111786015D01*
X144548100Y-111879147D01*
X144393228Y-111943297D01*
X144228816Y-111976000D01*
X144061184Y-111976000D01*
X143896772Y-111943297D01*
X143741900Y-111879147D01*
X143602519Y-111786015D01*
X143483985Y-111667481D01*
X143390853Y-111528100D01*
X143326703Y-111373228D01*
X143294000Y-111208816D01*
X143294000Y-111041184D01*
X143326703Y-110876772D01*
X143390853Y-110721900D01*
X143483985Y-110582519D01*
X143602519Y-110463985D01*
X143741900Y-110370853D01*
X143896772Y-110306703D01*
X144061184Y-110274000D01*
X144228816Y-110274000D01*
X144393228Y-110306703D01*
X144393228Y-110306703D01*
G37*
G36*
X155741821Y-109651313D02*
X155741824Y-109651314D01*
X155741825Y-109651314D01*
X155902239Y-109699975D01*
X155902241Y-109699976D01*
X155902244Y-109699977D01*
X156050078Y-109778995D01*
X156179659Y-109885341D01*
X156286005Y-110014922D01*
X156365023Y-110162756D01*
X156365024Y-110162759D01*
X156365025Y-110162761D01*
X156413686Y-110323175D01*
X156413687Y-110323179D01*
X156430117Y-110490000D01*
X156413687Y-110656821D01*
X156413686Y-110656824D01*
X156413686Y-110656825D01*
X156370934Y-110797761D01*
X156365023Y-110817244D01*
X156286005Y-110965078D01*
X156179659Y-111094659D01*
X156050078Y-111201005D01*
X155902244Y-111280023D01*
X155902241Y-111280024D01*
X155902239Y-111280025D01*
X155741825Y-111328686D01*
X155741824Y-111328686D01*
X155741821Y-111328687D01*
X155616804Y-111341000D01*
X155533196Y-111341000D01*
X155408179Y-111328687D01*
X155408176Y-111328686D01*
X155408175Y-111328686D01*
X155247761Y-111280025D01*
X155247759Y-111280024D01*
X155247756Y-111280023D01*
X155099922Y-111201005D01*
X154970341Y-111094659D01*
X154863995Y-110965078D01*
X154784977Y-110817244D01*
X154779067Y-110797761D01*
X154736314Y-110656825D01*
X154736314Y-110656824D01*
X154736313Y-110656821D01*
X154719883Y-110490000D01*
X154736313Y-110323179D01*
X154736314Y-110323175D01*
X154784975Y-110162761D01*
X154784976Y-110162759D01*
X154784977Y-110162756D01*
X154863995Y-110014922D01*
X154970341Y-109885341D01*
X155099922Y-109778995D01*
X155247756Y-109699977D01*
X155247759Y-109699976D01*
X155247761Y-109699975D01*
X155408175Y-109651314D01*
X155408176Y-109651314D01*
X155408179Y-109651313D01*
X155533196Y-109639000D01*
X155616804Y-109639000D01*
X155741821Y-109651313D01*
X155741821Y-109651313D01*
G37*
G36*
X163361821Y-109651313D02*
X163361824Y-109651314D01*
X163361825Y-109651314D01*
X163522239Y-109699975D01*
X163522241Y-109699976D01*
X163522244Y-109699977D01*
X163670078Y-109778995D01*
X163799659Y-109885341D01*
X163906005Y-110014922D01*
X163985023Y-110162756D01*
X163985024Y-110162759D01*
X163985025Y-110162761D01*
X164033686Y-110323175D01*
X164033687Y-110323179D01*
X164050117Y-110490000D01*
X164033687Y-110656821D01*
X164033686Y-110656824D01*
X164033686Y-110656825D01*
X163990934Y-110797761D01*
X163985023Y-110817244D01*
X163906005Y-110965078D01*
X163799659Y-111094659D01*
X163670078Y-111201005D01*
X163522244Y-111280023D01*
X163522241Y-111280024D01*
X163522239Y-111280025D01*
X163361825Y-111328686D01*
X163361824Y-111328686D01*
X163361821Y-111328687D01*
X163236804Y-111341000D01*
X163153196Y-111341000D01*
X163028179Y-111328687D01*
X163028176Y-111328686D01*
X163028175Y-111328686D01*
X162867761Y-111280025D01*
X162867759Y-111280024D01*
X162867756Y-111280023D01*
X162719922Y-111201005D01*
X162590341Y-111094659D01*
X162483995Y-110965078D01*
X162404977Y-110817244D01*
X162399067Y-110797761D01*
X162356314Y-110656825D01*
X162356314Y-110656824D01*
X162356313Y-110656821D01*
X162339883Y-110490000D01*
X162356313Y-110323179D01*
X162356314Y-110323175D01*
X162404975Y-110162761D01*
X162404976Y-110162759D01*
X162404977Y-110162756D01*
X162483995Y-110014922D01*
X162590341Y-109885341D01*
X162719922Y-109778995D01*
X162867756Y-109699977D01*
X162867759Y-109699976D01*
X162867761Y-109699975D01*
X163028175Y-109651314D01*
X163028176Y-109651314D01*
X163028179Y-109651313D01*
X163153196Y-109639000D01*
X163236804Y-109639000D01*
X163361821Y-109651313D01*
X163361821Y-109651313D01*
G37*
G36*
X150728643Y-109719781D02*
X150874415Y-109780162D01*
X151005611Y-109867824D01*
X151117176Y-109979389D01*
X151204838Y-110110585D01*
X151265219Y-110256357D01*
X151296000Y-110411107D01*
X151296000Y-110568893D01*
X151265219Y-110723643D01*
X151204838Y-110869415D01*
X151117176Y-111000611D01*
X151005611Y-111112176D01*
X150874415Y-111199838D01*
X150728643Y-111260219D01*
X150573893Y-111291000D01*
X150416107Y-111291000D01*
X150261357Y-111260219D01*
X150115585Y-111199838D01*
X149984389Y-111112176D01*
X149872824Y-111000611D01*
X149785162Y-110869415D01*
X149724781Y-110723643D01*
X149694000Y-110568893D01*
X149694000Y-110411107D01*
X149724781Y-110256357D01*
X149785162Y-110110585D01*
X149872824Y-109979389D01*
X149984389Y-109867824D01*
X150115585Y-109780162D01*
X150261357Y-109719781D01*
X150416107Y-109689000D01*
X150573893Y-109689000D01*
X150728643Y-109719781D01*
X150728643Y-109719781D01*
G37*
G36*
X216166000Y-110121000D02*
X214364000Y-110121000D01*
X214364000Y-108319000D01*
X216166000Y-108319000D01*
X216166000Y-110121000D01*
X216166000Y-110121000D01*
G37*
G36*
X163361821Y-107111313D02*
X163361824Y-107111314D01*
X163361825Y-107111314D01*
X163522239Y-107159975D01*
X163522241Y-107159976D01*
X163522244Y-107159977D01*
X163670078Y-107238995D01*
X163799659Y-107345341D01*
X163906005Y-107474922D01*
X163985023Y-107622756D01*
X164033687Y-107783179D01*
X164050117Y-107950000D01*
X164033687Y-108116821D01*
X163985023Y-108277244D01*
X163906005Y-108425078D01*
X163799659Y-108554659D01*
X163670078Y-108661005D01*
X163522244Y-108740023D01*
X163522241Y-108740024D01*
X163522239Y-108740025D01*
X163361825Y-108788686D01*
X163361824Y-108788686D01*
X163361821Y-108788687D01*
X163236804Y-108801000D01*
X163153196Y-108801000D01*
X163028179Y-108788687D01*
X163028176Y-108788686D01*
X163028175Y-108788686D01*
X162867761Y-108740025D01*
X162867759Y-108740024D01*
X162867756Y-108740023D01*
X162719922Y-108661005D01*
X162590341Y-108554659D01*
X162483995Y-108425078D01*
X162404977Y-108277244D01*
X162356313Y-108116821D01*
X162339883Y-107950000D01*
X162356313Y-107783179D01*
X162404977Y-107622756D01*
X162483995Y-107474922D01*
X162590341Y-107345341D01*
X162719922Y-107238995D01*
X162867756Y-107159977D01*
X162867759Y-107159976D01*
X162867761Y-107159975D01*
X163028175Y-107111314D01*
X163028176Y-107111314D01*
X163028179Y-107111313D01*
X163153196Y-107099000D01*
X163236804Y-107099000D01*
X163361821Y-107111313D01*
X163361821Y-107111313D01*
G37*
G36*
X155741821Y-107111313D02*
X155741824Y-107111314D01*
X155741825Y-107111314D01*
X155902239Y-107159975D01*
X155902241Y-107159976D01*
X155902244Y-107159977D01*
X156050078Y-107238995D01*
X156179659Y-107345341D01*
X156286005Y-107474922D01*
X156365023Y-107622756D01*
X156413687Y-107783179D01*
X156430117Y-107950000D01*
X156413687Y-108116821D01*
X156365023Y-108277244D01*
X156286005Y-108425078D01*
X156179659Y-108554659D01*
X156050078Y-108661005D01*
X155902244Y-108740023D01*
X155902241Y-108740024D01*
X155902239Y-108740025D01*
X155741825Y-108788686D01*
X155741824Y-108788686D01*
X155741821Y-108788687D01*
X155616804Y-108801000D01*
X155533196Y-108801000D01*
X155408179Y-108788687D01*
X155408176Y-108788686D01*
X155408175Y-108788686D01*
X155247761Y-108740025D01*
X155247759Y-108740024D01*
X155247756Y-108740023D01*
X155099922Y-108661005D01*
X154970341Y-108554659D01*
X154863995Y-108425078D01*
X154784977Y-108277244D01*
X154736313Y-108116821D01*
X154719883Y-107950000D01*
X154736313Y-107783179D01*
X154784977Y-107622756D01*
X154863995Y-107474922D01*
X154970341Y-107345341D01*
X155099922Y-107238995D01*
X155247756Y-107159977D01*
X155247759Y-107159976D01*
X155247761Y-107159975D01*
X155408175Y-107111314D01*
X155408176Y-107111314D01*
X155408179Y-107111313D01*
X155533196Y-107099000D01*
X155616804Y-107099000D01*
X155741821Y-107111313D01*
X155741821Y-107111313D01*
G37*
G36*
X167608252Y-102817818D02*
X167608254Y-102817819D01*
X167608255Y-102817819D01*
X167981513Y-102972427D01*
X167981514Y-102972428D01*
X168317439Y-103196886D01*
X168603114Y-103482561D01*
X168603116Y-103482564D01*
X168827573Y-103818487D01*
X168982181Y-104191745D01*
X168982182Y-104191748D01*
X169061000Y-104587993D01*
X169061000Y-104992007D01*
X169011039Y-105243179D01*
X168982181Y-105388255D01*
X168827573Y-105761513D01*
X168827572Y-105761514D01*
X168603114Y-106097439D01*
X168317439Y-106383114D01*
X168317436Y-106383116D01*
X167981513Y-106607573D01*
X167608255Y-106762181D01*
X167608254Y-106762181D01*
X167608252Y-106762182D01*
X167212007Y-106841000D01*
X166807993Y-106841000D01*
X166411748Y-106762182D01*
X166411746Y-106762181D01*
X166411745Y-106762181D01*
X166038487Y-106607573D01*
X165702564Y-106383116D01*
X165702561Y-106383114D01*
X165416886Y-106097439D01*
X165192428Y-105761514D01*
X165192427Y-105761513D01*
X165037819Y-105388255D01*
X165008962Y-105243179D01*
X164959000Y-104992007D01*
X164959000Y-104587993D01*
X165037818Y-104191748D01*
X165037819Y-104191745D01*
X165192427Y-103818487D01*
X165416884Y-103482564D01*
X165416886Y-103482561D01*
X165702561Y-103196886D01*
X166038486Y-102972428D01*
X166038487Y-102972427D01*
X166411745Y-102817819D01*
X166411746Y-102817819D01*
X166411748Y-102817818D01*
X166807993Y-102739000D01*
X167212007Y-102739000D01*
X167608252Y-102817818D01*
X167608252Y-102817818D01*
G37*
G36*
X176408252Y-102817818D02*
X176408254Y-102817819D01*
X176408255Y-102817819D01*
X176781513Y-102972427D01*
X176781514Y-102972428D01*
X177117439Y-103196886D01*
X177403114Y-103482561D01*
X177403116Y-103482564D01*
X177627573Y-103818487D01*
X177782181Y-104191745D01*
X177782182Y-104191748D01*
X177861000Y-104587993D01*
X177861000Y-104992007D01*
X177811039Y-105243179D01*
X177782181Y-105388255D01*
X177627573Y-105761513D01*
X177627572Y-105761514D01*
X177403114Y-106097439D01*
X177117439Y-106383114D01*
X177117436Y-106383116D01*
X176781513Y-106607573D01*
X176408255Y-106762181D01*
X176408254Y-106762181D01*
X176408252Y-106762182D01*
X176012007Y-106841000D01*
X175607993Y-106841000D01*
X175211748Y-106762182D01*
X175211746Y-106762181D01*
X175211745Y-106762181D01*
X174838487Y-106607573D01*
X174502564Y-106383116D01*
X174502561Y-106383114D01*
X174216886Y-106097439D01*
X173992428Y-105761514D01*
X173992427Y-105761513D01*
X173837819Y-105388255D01*
X173808962Y-105243179D01*
X173759000Y-104992007D01*
X173759000Y-104587993D01*
X173837818Y-104191748D01*
X173837819Y-104191745D01*
X173992427Y-103818487D01*
X174216884Y-103482564D01*
X174216886Y-103482561D01*
X174502561Y-103196886D01*
X174838486Y-102972428D01*
X174838487Y-102972427D01*
X175211745Y-102817819D01*
X175211746Y-102817819D01*
X175211748Y-102817818D01*
X175607993Y-102739000D01*
X176012007Y-102739000D01*
X176408252Y-102817818D01*
X176408252Y-102817818D01*
G37*
G36*
X163361821Y-104571313D02*
X163361824Y-104571314D01*
X163361825Y-104571314D01*
X163522239Y-104619975D01*
X163522241Y-104619976D01*
X163522244Y-104619977D01*
X163670078Y-104698995D01*
X163799659Y-104805341D01*
X163906005Y-104934922D01*
X163985023Y-105082756D01*
X164033687Y-105243179D01*
X164050117Y-105410000D01*
X164033687Y-105576821D01*
X163985023Y-105737244D01*
X163906005Y-105885078D01*
X163799659Y-106014659D01*
X163670078Y-106121005D01*
X163522244Y-106200023D01*
X163522241Y-106200024D01*
X163522239Y-106200025D01*
X163361825Y-106248686D01*
X163361824Y-106248686D01*
X163361821Y-106248687D01*
X163236804Y-106261000D01*
X163153196Y-106261000D01*
X163028179Y-106248687D01*
X163028176Y-106248686D01*
X163028175Y-106248686D01*
X162867761Y-106200025D01*
X162867759Y-106200024D01*
X162867756Y-106200023D01*
X162719922Y-106121005D01*
X162590341Y-106014659D01*
X162483995Y-105885078D01*
X162404977Y-105737244D01*
X162356313Y-105576821D01*
X162339883Y-105410000D01*
X162356313Y-105243179D01*
X162404977Y-105082756D01*
X162483995Y-104934922D01*
X162590341Y-104805341D01*
X162719922Y-104698995D01*
X162867756Y-104619977D01*
X162867759Y-104619976D01*
X162867761Y-104619975D01*
X163028175Y-104571314D01*
X163028176Y-104571314D01*
X163028179Y-104571313D01*
X163153196Y-104559000D01*
X163236804Y-104559000D01*
X163361821Y-104571313D01*
X163361821Y-104571313D01*
G37*
G36*
X155741821Y-104571313D02*
X155741824Y-104571314D01*
X155741825Y-104571314D01*
X155902239Y-104619975D01*
X155902241Y-104619976D01*
X155902244Y-104619977D01*
X156050078Y-104698995D01*
X156179659Y-104805341D01*
X156286005Y-104934922D01*
X156365023Y-105082756D01*
X156413687Y-105243179D01*
X156430117Y-105410000D01*
X156413687Y-105576821D01*
X156365023Y-105737244D01*
X156286005Y-105885078D01*
X156179659Y-106014659D01*
X156050078Y-106121005D01*
X155902244Y-106200023D01*
X155902241Y-106200024D01*
X155902239Y-106200025D01*
X155741825Y-106248686D01*
X155741824Y-106248686D01*
X155741821Y-106248687D01*
X155616804Y-106261000D01*
X155533196Y-106261000D01*
X155408179Y-106248687D01*
X155408176Y-106248686D01*
X155408175Y-106248686D01*
X155247761Y-106200025D01*
X155247759Y-106200024D01*
X155247756Y-106200023D01*
X155099922Y-106121005D01*
X154970341Y-106014659D01*
X154863995Y-105885078D01*
X154784977Y-105737244D01*
X154736313Y-105576821D01*
X154719883Y-105410000D01*
X154736313Y-105243179D01*
X154784977Y-105082756D01*
X154863995Y-104934922D01*
X154970341Y-104805341D01*
X155099922Y-104698995D01*
X155247756Y-104619977D01*
X155247759Y-104619976D01*
X155247761Y-104619975D01*
X155408175Y-104571314D01*
X155408176Y-104571314D01*
X155408179Y-104571313D01*
X155533196Y-104559000D01*
X155616804Y-104559000D01*
X155741821Y-104571313D01*
X155741821Y-104571313D01*
G37*
G36*
X155741821Y-102031313D02*
X155741824Y-102031314D01*
X155741825Y-102031314D01*
X155902239Y-102079975D01*
X155902241Y-102079976D01*
X155902244Y-102079977D01*
X156050078Y-102158995D01*
X156179659Y-102265341D01*
X156286005Y-102394922D01*
X156365023Y-102542756D01*
X156413687Y-102703179D01*
X156430117Y-102870000D01*
X156413687Y-103036821D01*
X156413686Y-103036824D01*
X156413686Y-103036825D01*
X156365133Y-103196884D01*
X156365023Y-103197244D01*
X156286005Y-103345078D01*
X156179659Y-103474659D01*
X156050078Y-103581005D01*
X155902244Y-103660023D01*
X155902241Y-103660024D01*
X155902239Y-103660025D01*
X155741825Y-103708686D01*
X155741824Y-103708686D01*
X155741821Y-103708687D01*
X155616804Y-103721000D01*
X155533196Y-103721000D01*
X155408179Y-103708687D01*
X155408176Y-103708686D01*
X155408175Y-103708686D01*
X155247761Y-103660025D01*
X155247759Y-103660024D01*
X155247756Y-103660023D01*
X155099922Y-103581005D01*
X154970341Y-103474659D01*
X154863995Y-103345078D01*
X154784977Y-103197244D01*
X154784868Y-103196884D01*
X154736314Y-103036825D01*
X154736314Y-103036824D01*
X154736313Y-103036821D01*
X154719883Y-102870000D01*
X154736313Y-102703179D01*
X154784977Y-102542756D01*
X154863995Y-102394922D01*
X154970341Y-102265341D01*
X155099922Y-102158995D01*
X155247756Y-102079977D01*
X155247759Y-102079976D01*
X155247761Y-102079975D01*
X155408175Y-102031314D01*
X155408176Y-102031314D01*
X155408179Y-102031313D01*
X155533196Y-102019000D01*
X155616804Y-102019000D01*
X155741821Y-102031313D01*
X155741821Y-102031313D01*
G37*
G36*
X163361821Y-102031313D02*
X163361824Y-102031314D01*
X163361825Y-102031314D01*
X163522239Y-102079975D01*
X163522241Y-102079976D01*
X163522244Y-102079977D01*
X163670078Y-102158995D01*
X163799659Y-102265341D01*
X163906005Y-102394922D01*
X163985023Y-102542756D01*
X164033687Y-102703179D01*
X164050117Y-102870000D01*
X164033687Y-103036821D01*
X164033686Y-103036824D01*
X164033686Y-103036825D01*
X163985133Y-103196884D01*
X163985023Y-103197244D01*
X163906005Y-103345078D01*
X163799659Y-103474659D01*
X163670078Y-103581005D01*
X163522244Y-103660023D01*
X163522241Y-103660024D01*
X163522239Y-103660025D01*
X163361825Y-103708686D01*
X163361824Y-103708686D01*
X163361821Y-103708687D01*
X163236804Y-103721000D01*
X163153196Y-103721000D01*
X163028179Y-103708687D01*
X163028176Y-103708686D01*
X163028175Y-103708686D01*
X162867761Y-103660025D01*
X162867759Y-103660024D01*
X162867756Y-103660023D01*
X162719922Y-103581005D01*
X162590341Y-103474659D01*
X162483995Y-103345078D01*
X162404977Y-103197244D01*
X162404868Y-103196884D01*
X162356314Y-103036825D01*
X162356314Y-103036824D01*
X162356313Y-103036821D01*
X162339883Y-102870000D01*
X162356313Y-102703179D01*
X162404977Y-102542756D01*
X162483995Y-102394922D01*
X162590341Y-102265341D01*
X162719922Y-102158995D01*
X162867756Y-102079977D01*
X162867759Y-102079976D01*
X162867761Y-102079975D01*
X163028175Y-102031314D01*
X163028176Y-102031314D01*
X163028179Y-102031313D01*
X163153196Y-102019000D01*
X163236804Y-102019000D01*
X163361821Y-102031313D01*
X163361821Y-102031313D01*
G37*
G36*
X163361821Y-99491313D02*
X163361824Y-99491314D01*
X163361825Y-99491314D01*
X163522239Y-99539975D01*
X163522241Y-99539976D01*
X163522244Y-99539977D01*
X163670078Y-99618995D01*
X163799659Y-99725341D01*
X163906005Y-99854922D01*
X163985023Y-100002756D01*
X164033687Y-100163179D01*
X164050117Y-100330000D01*
X164033687Y-100496821D01*
X163985023Y-100657244D01*
X163906005Y-100805078D01*
X163799659Y-100934659D01*
X163670078Y-101041005D01*
X163522244Y-101120023D01*
X163522241Y-101120024D01*
X163522239Y-101120025D01*
X163361825Y-101168686D01*
X163361824Y-101168686D01*
X163361821Y-101168687D01*
X163236804Y-101181000D01*
X163153196Y-101181000D01*
X163028179Y-101168687D01*
X163028176Y-101168686D01*
X163028175Y-101168686D01*
X162867761Y-101120025D01*
X162867759Y-101120024D01*
X162867756Y-101120023D01*
X162719922Y-101041005D01*
X162590341Y-100934659D01*
X162483995Y-100805078D01*
X162404977Y-100657244D01*
X162356313Y-100496821D01*
X162339883Y-100330000D01*
X162356313Y-100163179D01*
X162404977Y-100002756D01*
X162483995Y-99854922D01*
X162590341Y-99725341D01*
X162719922Y-99618995D01*
X162867756Y-99539977D01*
X162867759Y-99539976D01*
X162867761Y-99539975D01*
X163028175Y-99491314D01*
X163028176Y-99491314D01*
X163028179Y-99491313D01*
X163153196Y-99479000D01*
X163236804Y-99479000D01*
X163361821Y-99491313D01*
X163361821Y-99491313D01*
G37*
G36*
X155741821Y-99491313D02*
X155741824Y-99491314D01*
X155741825Y-99491314D01*
X155902239Y-99539975D01*
X155902241Y-99539976D01*
X155902244Y-99539977D01*
X156050078Y-99618995D01*
X156179659Y-99725341D01*
X156286005Y-99854922D01*
X156365023Y-100002756D01*
X156413687Y-100163179D01*
X156430117Y-100330000D01*
X156413687Y-100496821D01*
X156365023Y-100657244D01*
X156286005Y-100805078D01*
X156179659Y-100934659D01*
X156050078Y-101041005D01*
X155902244Y-101120023D01*
X155902241Y-101120024D01*
X155902239Y-101120025D01*
X155741825Y-101168686D01*
X155741824Y-101168686D01*
X155741821Y-101168687D01*
X155616804Y-101181000D01*
X155533196Y-101181000D01*
X155408179Y-101168687D01*
X155408176Y-101168686D01*
X155408175Y-101168686D01*
X155247761Y-101120025D01*
X155247759Y-101120024D01*
X155247756Y-101120023D01*
X155099922Y-101041005D01*
X154970341Y-100934659D01*
X154863995Y-100805078D01*
X154784977Y-100657244D01*
X154736313Y-100496821D01*
X154719883Y-100330000D01*
X154736313Y-100163179D01*
X154784977Y-100002756D01*
X154863995Y-99854922D01*
X154970341Y-99725341D01*
X155099922Y-99618995D01*
X155247756Y-99539977D01*
X155247759Y-99539976D01*
X155247761Y-99539975D01*
X155408175Y-99491314D01*
X155408176Y-99491314D01*
X155408179Y-99491313D01*
X155533196Y-99479000D01*
X155616804Y-99479000D01*
X155741821Y-99491313D01*
X155741821Y-99491313D01*
G37*
G36*
X174187396Y-96875546D02*
X174360466Y-96947234D01*
X174516230Y-97051312D01*
X174648688Y-97183770D01*
X174752766Y-97339534D01*
X174824454Y-97512604D01*
X174861000Y-97696333D01*
X174861000Y-97883667D01*
X174824454Y-98067396D01*
X174752766Y-98240466D01*
X174648688Y-98396230D01*
X174516230Y-98528688D01*
X174360466Y-98632766D01*
X174187396Y-98704454D01*
X174003667Y-98741000D01*
X173816333Y-98741000D01*
X173632604Y-98704454D01*
X173459534Y-98632766D01*
X173303770Y-98528688D01*
X173171312Y-98396230D01*
X173067234Y-98240466D01*
X172995546Y-98067396D01*
X172959000Y-97883667D01*
X172959000Y-97696333D01*
X172995546Y-97512604D01*
X173067234Y-97339534D01*
X173171312Y-97183770D01*
X173303770Y-97051312D01*
X173459534Y-96947234D01*
X173632604Y-96875546D01*
X173816333Y-96839000D01*
X174003667Y-96839000D01*
X174187396Y-96875546D01*
X174187396Y-96875546D01*
G37*
G36*
X171687396Y-96875546D02*
X171860466Y-96947234D01*
X172016230Y-97051312D01*
X172148688Y-97183770D01*
X172252766Y-97339534D01*
X172324454Y-97512604D01*
X172361000Y-97696333D01*
X172361000Y-97883667D01*
X172324454Y-98067396D01*
X172252766Y-98240466D01*
X172148688Y-98396230D01*
X172016230Y-98528688D01*
X171860466Y-98632766D01*
X171687396Y-98704454D01*
X171503667Y-98741000D01*
X171316333Y-98741000D01*
X171132604Y-98704454D01*
X170959534Y-98632766D01*
X170803770Y-98528688D01*
X170671312Y-98396230D01*
X170567234Y-98240466D01*
X170495546Y-98067396D01*
X170459000Y-97883667D01*
X170459000Y-97696333D01*
X170495546Y-97512604D01*
X170567234Y-97339534D01*
X170671312Y-97183770D01*
X170803770Y-97051312D01*
X170959534Y-96947234D01*
X171132604Y-96875546D01*
X171316333Y-96839000D01*
X171503667Y-96839000D01*
X171687396Y-96875546D01*
X171687396Y-96875546D01*
G37*
G36*
X169187396Y-96875546D02*
X169360466Y-96947234D01*
X169516230Y-97051312D01*
X169648688Y-97183770D01*
X169752766Y-97339534D01*
X169824454Y-97512604D01*
X169861000Y-97696333D01*
X169861000Y-97883667D01*
X169824454Y-98067396D01*
X169752766Y-98240466D01*
X169648688Y-98396230D01*
X169516230Y-98528688D01*
X169360466Y-98632766D01*
X169187396Y-98704454D01*
X169003667Y-98741000D01*
X168816333Y-98741000D01*
X168632604Y-98704454D01*
X168459534Y-98632766D01*
X168303770Y-98528688D01*
X168171312Y-98396230D01*
X168067234Y-98240466D01*
X167995546Y-98067396D01*
X167959000Y-97883667D01*
X167959000Y-97696333D01*
X167995546Y-97512604D01*
X168067234Y-97339534D01*
X168171312Y-97183770D01*
X168303770Y-97051312D01*
X168459534Y-96947234D01*
X168632604Y-96875546D01*
X168816333Y-96839000D01*
X169003667Y-96839000D01*
X169187396Y-96875546D01*
X169187396Y-96875546D01*
G37*
G36*
X155741821Y-96951313D02*
X155741824Y-96951314D01*
X155741825Y-96951314D01*
X155902239Y-96999975D01*
X155902241Y-96999976D01*
X155902244Y-96999977D01*
X156050078Y-97078995D01*
X156179659Y-97185341D01*
X156286005Y-97314922D01*
X156365023Y-97462756D01*
X156365024Y-97462759D01*
X156365025Y-97462761D01*
X156413686Y-97623175D01*
X156413687Y-97623179D01*
X156430117Y-97790000D01*
X156413687Y-97956821D01*
X156413686Y-97956824D01*
X156413686Y-97956825D01*
X156380145Y-98067396D01*
X156365023Y-98117244D01*
X156286005Y-98265078D01*
X156179659Y-98394659D01*
X156050078Y-98501005D01*
X155902244Y-98580023D01*
X155902241Y-98580024D01*
X155902239Y-98580025D01*
X155741825Y-98628686D01*
X155741824Y-98628686D01*
X155741821Y-98628687D01*
X155616804Y-98641000D01*
X155533196Y-98641000D01*
X155408179Y-98628687D01*
X155408176Y-98628686D01*
X155408175Y-98628686D01*
X155247761Y-98580025D01*
X155247759Y-98580024D01*
X155247756Y-98580023D01*
X155099922Y-98501005D01*
X154970341Y-98394659D01*
X154863995Y-98265078D01*
X154784977Y-98117244D01*
X154769856Y-98067396D01*
X154736314Y-97956825D01*
X154736314Y-97956824D01*
X154736313Y-97956821D01*
X154719883Y-97790000D01*
X154736313Y-97623179D01*
X154736314Y-97623175D01*
X154784975Y-97462761D01*
X154784976Y-97462759D01*
X154784977Y-97462756D01*
X154863995Y-97314922D01*
X154970341Y-97185341D01*
X155099922Y-97078995D01*
X155247756Y-96999977D01*
X155247759Y-96999976D01*
X155247761Y-96999975D01*
X155408175Y-96951314D01*
X155408176Y-96951314D01*
X155408179Y-96951313D01*
X155533196Y-96939000D01*
X155616804Y-96939000D01*
X155741821Y-96951313D01*
X155741821Y-96951313D01*
G37*
G36*
X163361821Y-96951313D02*
X163361824Y-96951314D01*
X163361825Y-96951314D01*
X163522239Y-96999975D01*
X163522241Y-96999976D01*
X163522244Y-96999977D01*
X163670078Y-97078995D01*
X163799659Y-97185341D01*
X163906005Y-97314922D01*
X163985023Y-97462756D01*
X163985024Y-97462759D01*
X163985025Y-97462761D01*
X164033686Y-97623175D01*
X164033687Y-97623179D01*
X164050117Y-97790000D01*
X164033687Y-97956821D01*
X164033686Y-97956824D01*
X164033686Y-97956825D01*
X164000145Y-98067396D01*
X163985023Y-98117244D01*
X163906005Y-98265078D01*
X163799659Y-98394659D01*
X163670078Y-98501005D01*
X163522244Y-98580023D01*
X163522241Y-98580024D01*
X163522239Y-98580025D01*
X163361825Y-98628686D01*
X163361824Y-98628686D01*
X163361821Y-98628687D01*
X163236804Y-98641000D01*
X163153196Y-98641000D01*
X163028179Y-98628687D01*
X163028176Y-98628686D01*
X163028175Y-98628686D01*
X162867761Y-98580025D01*
X162867759Y-98580024D01*
X162867756Y-98580023D01*
X162719922Y-98501005D01*
X162590341Y-98394659D01*
X162483995Y-98265078D01*
X162404977Y-98117244D01*
X162389856Y-98067396D01*
X162356314Y-97956825D01*
X162356314Y-97956824D01*
X162356313Y-97956821D01*
X162339883Y-97790000D01*
X162356313Y-97623179D01*
X162356314Y-97623175D01*
X162404975Y-97462761D01*
X162404976Y-97462759D01*
X162404977Y-97462756D01*
X162483995Y-97314922D01*
X162590341Y-97185341D01*
X162719922Y-97078995D01*
X162867756Y-96999977D01*
X162867759Y-96999976D01*
X162867761Y-96999975D01*
X163028175Y-96951314D01*
X163028176Y-96951314D01*
X163028179Y-96951313D01*
X163153196Y-96939000D01*
X163236804Y-96939000D01*
X163361821Y-96951313D01*
X163361821Y-96951313D01*
G37*
G36*
X163361821Y-94411313D02*
X163361824Y-94411314D01*
X163361825Y-94411314D01*
X163522239Y-94459975D01*
X163522241Y-94459976D01*
X163522244Y-94459977D01*
X163670078Y-94538995D01*
X163799659Y-94645341D01*
X163906005Y-94774922D01*
X163985023Y-94922756D01*
X164033687Y-95083179D01*
X164050117Y-95250000D01*
X164033687Y-95416821D01*
X163985023Y-95577244D01*
X163906005Y-95725078D01*
X163799659Y-95854659D01*
X163670078Y-95961005D01*
X163522244Y-96040023D01*
X163522241Y-96040024D01*
X163522239Y-96040025D01*
X163361825Y-96088686D01*
X163361824Y-96088686D01*
X163361821Y-96088687D01*
X163236804Y-96101000D01*
X163153196Y-96101000D01*
X163028179Y-96088687D01*
X163028176Y-96088686D01*
X163028175Y-96088686D01*
X162867761Y-96040025D01*
X162867759Y-96040024D01*
X162867756Y-96040023D01*
X162719922Y-95961005D01*
X162590341Y-95854659D01*
X162483995Y-95725078D01*
X162404977Y-95577244D01*
X162356313Y-95416821D01*
X162339883Y-95250000D01*
X162356313Y-95083179D01*
X162404977Y-94922756D01*
X162483995Y-94774922D01*
X162590341Y-94645341D01*
X162719922Y-94538995D01*
X162867756Y-94459977D01*
X162867759Y-94459976D01*
X162867761Y-94459975D01*
X163028175Y-94411314D01*
X163028176Y-94411314D01*
X163028179Y-94411313D01*
X163153196Y-94399000D01*
X163236804Y-94399000D01*
X163361821Y-94411313D01*
X163361821Y-94411313D01*
G37*
G36*
X155741821Y-94411313D02*
X155741824Y-94411314D01*
X155741825Y-94411314D01*
X155902239Y-94459975D01*
X155902241Y-94459976D01*
X155902244Y-94459977D01*
X156050078Y-94538995D01*
X156179659Y-94645341D01*
X156286005Y-94774922D01*
X156365023Y-94922756D01*
X156413687Y-95083179D01*
X156430117Y-95250000D01*
X156413687Y-95416821D01*
X156365023Y-95577244D01*
X156286005Y-95725078D01*
X156179659Y-95854659D01*
X156050078Y-95961005D01*
X155902244Y-96040023D01*
X155902241Y-96040024D01*
X155902239Y-96040025D01*
X155741825Y-96088686D01*
X155741824Y-96088686D01*
X155741821Y-96088687D01*
X155616804Y-96101000D01*
X155533196Y-96101000D01*
X155408179Y-96088687D01*
X155408176Y-96088686D01*
X155408175Y-96088686D01*
X155247761Y-96040025D01*
X155247759Y-96040024D01*
X155247756Y-96040023D01*
X155099922Y-95961005D01*
X154970341Y-95854659D01*
X154863995Y-95725078D01*
X154784977Y-95577244D01*
X154736313Y-95416821D01*
X154719883Y-95250000D01*
X154736313Y-95083179D01*
X154784977Y-94922756D01*
X154863995Y-94774922D01*
X154970341Y-94645341D01*
X155099922Y-94538995D01*
X155247756Y-94459977D01*
X155247759Y-94459976D01*
X155247761Y-94459975D01*
X155408175Y-94411314D01*
X155408176Y-94411314D01*
X155408179Y-94411313D01*
X155533196Y-94399000D01*
X155616804Y-94399000D01*
X155741821Y-94411313D01*
X155741821Y-94411313D01*
G37*
G36*
X172968228Y-93161703D02*
X173123100Y-93225853D01*
X173262481Y-93318985D01*
X173381015Y-93437519D01*
X173474147Y-93576900D01*
X173538297Y-93731772D01*
X173571000Y-93896184D01*
X173571000Y-94063816D01*
X173538297Y-94228228D01*
X173474147Y-94383100D01*
X173381015Y-94522481D01*
X173262481Y-94641015D01*
X173123100Y-94734147D01*
X172968228Y-94798297D01*
X172803816Y-94831000D01*
X172636184Y-94831000D01*
X172471772Y-94798297D01*
X172316900Y-94734147D01*
X172177519Y-94641015D01*
X172058985Y-94522481D01*
X171965853Y-94383100D01*
X171901703Y-94228228D01*
X171869000Y-94063816D01*
X171869000Y-93896184D01*
X171901703Y-93731772D01*
X171965853Y-93576900D01*
X172058985Y-93437519D01*
X172177519Y-93318985D01*
X172316900Y-93225853D01*
X172471772Y-93161703D01*
X172636184Y-93129000D01*
X172803816Y-93129000D01*
X172968228Y-93161703D01*
X172968228Y-93161703D01*
G37*
G36*
X176778228Y-93161703D02*
X176933100Y-93225853D01*
X177072481Y-93318985D01*
X177191015Y-93437519D01*
X177284147Y-93576900D01*
X177348297Y-93731772D01*
X177381000Y-93896184D01*
X177381000Y-94063816D01*
X177348297Y-94228228D01*
X177284147Y-94383100D01*
X177191015Y-94522481D01*
X177072481Y-94641015D01*
X176933100Y-94734147D01*
X176778228Y-94798297D01*
X176613816Y-94831000D01*
X176446184Y-94831000D01*
X176281772Y-94798297D01*
X176126900Y-94734147D01*
X175987519Y-94641015D01*
X175868985Y-94522481D01*
X175775853Y-94383100D01*
X175711703Y-94228228D01*
X175679000Y-94063816D01*
X175679000Y-93896184D01*
X175711703Y-93731772D01*
X175775853Y-93576900D01*
X175868985Y-93437519D01*
X175987519Y-93318985D01*
X176126900Y-93225853D01*
X176281772Y-93161703D01*
X176446184Y-93129000D01*
X176613816Y-93129000D01*
X176778228Y-93161703D01*
X176778228Y-93161703D01*
G37*
G36*
X169822396Y-91795546D02*
X169995466Y-91867234D01*
X170151230Y-91971312D01*
X170283688Y-92103770D01*
X170387766Y-92259534D01*
X170459454Y-92432604D01*
X170496000Y-92616333D01*
X170496000Y-92803667D01*
X170459454Y-92987396D01*
X170387766Y-93160466D01*
X170283688Y-93316230D01*
X170151230Y-93448688D01*
X169995466Y-93552766D01*
X169822396Y-93624454D01*
X169638667Y-93661000D01*
X169451333Y-93661000D01*
X169267604Y-93624454D01*
X169094534Y-93552766D01*
X168938770Y-93448688D01*
X168806312Y-93316230D01*
X168702234Y-93160466D01*
X168630546Y-92987396D01*
X168594000Y-92803667D01*
X168594000Y-92616333D01*
X168630546Y-92432604D01*
X168702234Y-92259534D01*
X168806312Y-92103770D01*
X168938770Y-91971312D01*
X169094534Y-91867234D01*
X169267604Y-91795546D01*
X169451333Y-91759000D01*
X169638667Y-91759000D01*
X169822396Y-91795546D01*
X169822396Y-91795546D01*
G37*
G36*
X167956000Y-93661000D02*
X166054000Y-93661000D01*
X166054000Y-91759000D01*
X167956000Y-91759000D01*
X167956000Y-93661000D01*
X167956000Y-93661000D01*
G37*
G36*
X163361821Y-91871313D02*
X163361824Y-91871314D01*
X163361825Y-91871314D01*
X163522239Y-91919975D01*
X163522241Y-91919976D01*
X163522244Y-91919977D01*
X163670078Y-91998995D01*
X163799659Y-92105341D01*
X163906005Y-92234922D01*
X163985023Y-92382756D01*
X163985024Y-92382759D01*
X163985025Y-92382761D01*
X164033686Y-92543175D01*
X164033687Y-92543179D01*
X164050117Y-92710000D01*
X164033687Y-92876821D01*
X164033686Y-92876824D01*
X164033686Y-92876825D01*
X164000145Y-92987396D01*
X163985023Y-93037244D01*
X163906005Y-93185078D01*
X163799659Y-93314659D01*
X163670078Y-93421005D01*
X163522244Y-93500023D01*
X163522241Y-93500024D01*
X163522239Y-93500025D01*
X163361825Y-93548686D01*
X163361824Y-93548686D01*
X163361821Y-93548687D01*
X163236804Y-93561000D01*
X163153196Y-93561000D01*
X163028179Y-93548687D01*
X163028176Y-93548686D01*
X163028175Y-93548686D01*
X162867761Y-93500025D01*
X162867759Y-93500024D01*
X162867756Y-93500023D01*
X162719922Y-93421005D01*
X162590341Y-93314659D01*
X162483995Y-93185078D01*
X162404977Y-93037244D01*
X162389856Y-92987396D01*
X162356314Y-92876825D01*
X162356314Y-92876824D01*
X162356313Y-92876821D01*
X162339883Y-92710000D01*
X162356313Y-92543179D01*
X162356314Y-92543175D01*
X162404975Y-92382761D01*
X162404976Y-92382759D01*
X162404977Y-92382756D01*
X162483995Y-92234922D01*
X162590341Y-92105341D01*
X162719922Y-91998995D01*
X162867756Y-91919977D01*
X162867759Y-91919976D01*
X162867761Y-91919975D01*
X163028175Y-91871314D01*
X163028176Y-91871314D01*
X163028179Y-91871313D01*
X163153196Y-91859000D01*
X163236804Y-91859000D01*
X163361821Y-91871313D01*
X163361821Y-91871313D01*
G37*
G36*
X155741821Y-91871313D02*
X155741824Y-91871314D01*
X155741825Y-91871314D01*
X155902239Y-91919975D01*
X155902241Y-91919976D01*
X155902244Y-91919977D01*
X156050078Y-91998995D01*
X156179659Y-92105341D01*
X156286005Y-92234922D01*
X156365023Y-92382756D01*
X156365024Y-92382759D01*
X156365025Y-92382761D01*
X156413686Y-92543175D01*
X156413687Y-92543179D01*
X156430117Y-92710000D01*
X156413687Y-92876821D01*
X156413686Y-92876824D01*
X156413686Y-92876825D01*
X156380145Y-92987396D01*
X156365023Y-93037244D01*
X156286005Y-93185078D01*
X156179659Y-93314659D01*
X156050078Y-93421005D01*
X155902244Y-93500023D01*
X155902241Y-93500024D01*
X155902239Y-93500025D01*
X155741825Y-93548686D01*
X155741824Y-93548686D01*
X155741821Y-93548687D01*
X155616804Y-93561000D01*
X155533196Y-93561000D01*
X155408179Y-93548687D01*
X155408176Y-93548686D01*
X155408175Y-93548686D01*
X155247761Y-93500025D01*
X155247759Y-93500024D01*
X155247756Y-93500023D01*
X155099922Y-93421005D01*
X154970341Y-93314659D01*
X154863995Y-93185078D01*
X154784977Y-93037244D01*
X154769856Y-92987396D01*
X154736314Y-92876825D01*
X154736314Y-92876824D01*
X154736313Y-92876821D01*
X154719883Y-92710000D01*
X154736313Y-92543179D01*
X154736314Y-92543175D01*
X154784975Y-92382761D01*
X154784976Y-92382759D01*
X154784977Y-92382756D01*
X154863995Y-92234922D01*
X154970341Y-92105341D01*
X155099922Y-91998995D01*
X155247756Y-91919977D01*
X155247759Y-91919976D01*
X155247761Y-91919975D01*
X155408175Y-91871314D01*
X155408176Y-91871314D01*
X155408179Y-91871313D01*
X155533196Y-91859000D01*
X155616804Y-91859000D01*
X155741821Y-91871313D01*
X155741821Y-91871313D01*
G37*
G36*
X163361821Y-89331313D02*
X163361824Y-89331314D01*
X163361825Y-89331314D01*
X163522239Y-89379975D01*
X163522241Y-89379976D01*
X163522244Y-89379977D01*
X163670078Y-89458995D01*
X163799659Y-89565341D01*
X163906005Y-89694922D01*
X163985023Y-89842756D01*
X164033687Y-90003179D01*
X164050117Y-90170000D01*
X164033687Y-90336821D01*
X163985023Y-90497244D01*
X163906005Y-90645078D01*
X163799659Y-90774659D01*
X163670078Y-90881005D01*
X163522244Y-90960023D01*
X163522241Y-90960024D01*
X163522239Y-90960025D01*
X163361825Y-91008686D01*
X163361824Y-91008686D01*
X163361821Y-91008687D01*
X163236804Y-91021000D01*
X163153196Y-91021000D01*
X163028179Y-91008687D01*
X163028176Y-91008686D01*
X163028175Y-91008686D01*
X162867761Y-90960025D01*
X162867759Y-90960024D01*
X162867756Y-90960023D01*
X162719922Y-90881005D01*
X162590341Y-90774659D01*
X162483995Y-90645078D01*
X162404977Y-90497244D01*
X162356313Y-90336821D01*
X162339883Y-90170000D01*
X162356313Y-90003179D01*
X162404977Y-89842756D01*
X162483995Y-89694922D01*
X162590341Y-89565341D01*
X162719922Y-89458995D01*
X162867756Y-89379977D01*
X162867759Y-89379976D01*
X162867761Y-89379975D01*
X163028175Y-89331314D01*
X163028176Y-89331314D01*
X163028179Y-89331313D01*
X163153196Y-89319000D01*
X163236804Y-89319000D01*
X163361821Y-89331313D01*
X163361821Y-89331313D01*
G37*
G36*
X156426000Y-91021000D02*
X154724000Y-91021000D01*
X154724000Y-89319000D01*
X156426000Y-89319000D01*
X156426000Y-91021000D01*
X156426000Y-91021000D01*
G37*
G36*
X169822396Y-86715546D02*
X169995466Y-86787234D01*
X170151230Y-86891312D01*
X170283688Y-87023770D01*
X170387766Y-87179534D01*
X170459454Y-87352604D01*
X170496000Y-87536333D01*
X170496000Y-87723667D01*
X170459454Y-87907396D01*
X170387766Y-88080466D01*
X170283688Y-88236230D01*
X170151230Y-88368688D01*
X169995466Y-88472766D01*
X169822396Y-88544454D01*
X169638667Y-88581000D01*
X169451333Y-88581000D01*
X169267604Y-88544454D01*
X169094534Y-88472766D01*
X168938770Y-88368688D01*
X168806312Y-88236230D01*
X168702234Y-88080466D01*
X168630546Y-87907396D01*
X168594000Y-87723667D01*
X168594000Y-87536333D01*
X168630546Y-87352604D01*
X168702234Y-87179534D01*
X168806312Y-87023770D01*
X168938770Y-86891312D01*
X169094534Y-86787234D01*
X169267604Y-86715546D01*
X169451333Y-86679000D01*
X169638667Y-86679000D01*
X169822396Y-86715546D01*
X169822396Y-86715546D01*
G37*
G36*
X167956000Y-88581000D02*
X166054000Y-88581000D01*
X166054000Y-86679000D01*
X167956000Y-86679000D01*
X167956000Y-88581000D01*
X167956000Y-88581000D01*
G37*
G36*
X172886821Y-85641313D02*
X172886824Y-85641314D01*
X172886825Y-85641314D01*
X173047239Y-85689975D01*
X173047241Y-85689976D01*
X173047244Y-85689977D01*
X173195078Y-85768995D01*
X173324659Y-85875341D01*
X173431005Y-86004922D01*
X173510023Y-86152756D01*
X173558687Y-86313179D01*
X173575117Y-86480000D01*
X173558687Y-86646821D01*
X173558686Y-86646824D01*
X173558686Y-86646825D01*
X173537840Y-86715546D01*
X173510023Y-86807244D01*
X173431005Y-86955078D01*
X173324659Y-87084659D01*
X173195078Y-87191005D01*
X173047244Y-87270023D01*
X173047241Y-87270024D01*
X173047239Y-87270025D01*
X172886825Y-87318686D01*
X172886824Y-87318686D01*
X172886821Y-87318687D01*
X172761804Y-87331000D01*
X172678196Y-87331000D01*
X172553179Y-87318687D01*
X172553176Y-87318686D01*
X172553175Y-87318686D01*
X172392761Y-87270025D01*
X172392759Y-87270024D01*
X172392756Y-87270023D01*
X172244922Y-87191005D01*
X172115341Y-87084659D01*
X172008995Y-86955078D01*
X171929977Y-86807244D01*
X171902161Y-86715546D01*
X171881314Y-86646825D01*
X171881314Y-86646824D01*
X171881313Y-86646821D01*
X171864883Y-86480000D01*
X171881313Y-86313179D01*
X171929977Y-86152756D01*
X172008995Y-86004922D01*
X172115341Y-85875341D01*
X172244922Y-85768995D01*
X172392756Y-85689977D01*
X172392759Y-85689976D01*
X172392761Y-85689975D01*
X172553175Y-85641314D01*
X172553176Y-85641314D01*
X172553179Y-85641313D01*
X172678196Y-85629000D01*
X172761804Y-85629000D01*
X172886821Y-85641313D01*
X172886821Y-85641313D01*
G37*
G36*
X176696821Y-85641313D02*
X176696824Y-85641314D01*
X176696825Y-85641314D01*
X176857239Y-85689975D01*
X176857241Y-85689976D01*
X176857244Y-85689977D01*
X177005078Y-85768995D01*
X177134659Y-85875341D01*
X177241005Y-86004922D01*
X177320023Y-86152756D01*
X177368687Y-86313179D01*
X177385117Y-86480000D01*
X177368687Y-86646821D01*
X177368686Y-86646824D01*
X177368686Y-86646825D01*
X177347840Y-86715546D01*
X177320023Y-86807244D01*
X177241005Y-86955078D01*
X177134659Y-87084659D01*
X177005078Y-87191005D01*
X176857244Y-87270023D01*
X176857241Y-87270024D01*
X176857239Y-87270025D01*
X176696825Y-87318686D01*
X176696824Y-87318686D01*
X176696821Y-87318687D01*
X176571804Y-87331000D01*
X176488196Y-87331000D01*
X176363179Y-87318687D01*
X176363176Y-87318686D01*
X176363175Y-87318686D01*
X176202761Y-87270025D01*
X176202759Y-87270024D01*
X176202756Y-87270023D01*
X176054922Y-87191005D01*
X175925341Y-87084659D01*
X175818995Y-86955078D01*
X175739977Y-86807244D01*
X175712161Y-86715546D01*
X175691314Y-86646825D01*
X175691314Y-86646824D01*
X175691313Y-86646821D01*
X175674883Y-86480000D01*
X175691313Y-86313179D01*
X175739977Y-86152756D01*
X175818995Y-86004922D01*
X175925341Y-85875341D01*
X176054922Y-85768995D01*
X176202756Y-85689977D01*
X176202759Y-85689976D01*
X176202761Y-85689975D01*
X176363175Y-85641314D01*
X176363176Y-85641314D01*
X176363179Y-85641313D01*
X176488196Y-85629000D01*
X176571804Y-85629000D01*
X176696821Y-85641313D01*
X176696821Y-85641313D01*
G37*
G36*
X164078228Y-83001703D02*
X164233100Y-83065853D01*
X164372481Y-83158985D01*
X164491015Y-83277519D01*
X164584147Y-83416900D01*
X164648297Y-83571772D01*
X164681000Y-83736184D01*
X164681000Y-83903816D01*
X164648297Y-84068228D01*
X164584147Y-84223100D01*
X164491015Y-84362481D01*
X164372481Y-84481015D01*
X164233100Y-84574147D01*
X164078228Y-84638297D01*
X163913816Y-84671000D01*
X163746184Y-84671000D01*
X163581772Y-84638297D01*
X163426900Y-84574147D01*
X163287519Y-84481015D01*
X163168985Y-84362481D01*
X163075853Y-84223100D01*
X163011703Y-84068228D01*
X162979000Y-83903816D01*
X162979000Y-83736184D01*
X163011703Y-83571772D01*
X163075853Y-83416900D01*
X163168985Y-83277519D01*
X163287519Y-83158985D01*
X163426900Y-83065853D01*
X163581772Y-83001703D01*
X163746184Y-82969000D01*
X163913816Y-82969000D01*
X164078228Y-83001703D01*
X164078228Y-83001703D01*
G37*
G36*
X176778228Y-83001703D02*
X176933100Y-83065853D01*
X177072481Y-83158985D01*
X177191015Y-83277519D01*
X177284147Y-83416900D01*
X177348297Y-83571772D01*
X177381000Y-83736184D01*
X177381000Y-83903816D01*
X177348297Y-84068228D01*
X177284147Y-84223100D01*
X177191015Y-84362481D01*
X177072481Y-84481015D01*
X176933100Y-84574147D01*
X176778228Y-84638297D01*
X176613816Y-84671000D01*
X176446184Y-84671000D01*
X176281772Y-84638297D01*
X176126900Y-84574147D01*
X175987519Y-84481015D01*
X175868985Y-84362481D01*
X175775853Y-84223100D01*
X175711703Y-84068228D01*
X175679000Y-83903816D01*
X175679000Y-83736184D01*
X175711703Y-83571772D01*
X175775853Y-83416900D01*
X175868985Y-83277519D01*
X175987519Y-83158985D01*
X176126900Y-83065853D01*
X176281772Y-83001703D01*
X176446184Y-82969000D01*
X176613816Y-82969000D01*
X176778228Y-83001703D01*
X176778228Y-83001703D01*
G37*
G36*
X159633228Y-83001703D02*
X159788100Y-83065853D01*
X159927481Y-83158985D01*
X160046015Y-83277519D01*
X160139147Y-83416900D01*
X160203297Y-83571772D01*
X160236000Y-83736184D01*
X160236000Y-83903816D01*
X160203297Y-84068228D01*
X160139147Y-84223100D01*
X160046015Y-84362481D01*
X159927481Y-84481015D01*
X159788100Y-84574147D01*
X159633228Y-84638297D01*
X159468816Y-84671000D01*
X159301184Y-84671000D01*
X159136772Y-84638297D01*
X158981900Y-84574147D01*
X158842519Y-84481015D01*
X158723985Y-84362481D01*
X158630853Y-84223100D01*
X158566703Y-84068228D01*
X158534000Y-83903816D01*
X158534000Y-83736184D01*
X158566703Y-83571772D01*
X158630853Y-83416900D01*
X158723985Y-83277519D01*
X158842519Y-83158985D01*
X158981900Y-83065853D01*
X159136772Y-83001703D01*
X159301184Y-82969000D01*
X159468816Y-82969000D01*
X159633228Y-83001703D01*
X159633228Y-83001703D01*
G37*
G36*
X168523228Y-83001703D02*
X168678100Y-83065853D01*
X168817481Y-83158985D01*
X168936015Y-83277519D01*
X169029147Y-83416900D01*
X169093297Y-83571772D01*
X169126000Y-83736184D01*
X169126000Y-83903816D01*
X169093297Y-84068228D01*
X169029147Y-84223100D01*
X168936015Y-84362481D01*
X168817481Y-84481015D01*
X168678100Y-84574147D01*
X168523228Y-84638297D01*
X168358816Y-84671000D01*
X168191184Y-84671000D01*
X168026772Y-84638297D01*
X167871900Y-84574147D01*
X167732519Y-84481015D01*
X167613985Y-84362481D01*
X167520853Y-84223100D01*
X167456703Y-84068228D01*
X167424000Y-83903816D01*
X167424000Y-83736184D01*
X167456703Y-83571772D01*
X167520853Y-83416900D01*
X167613985Y-83277519D01*
X167732519Y-83158985D01*
X167871900Y-83065853D01*
X168026772Y-83001703D01*
X168191184Y-82969000D01*
X168358816Y-82969000D01*
X168523228Y-83001703D01*
X168523228Y-83001703D01*
G37*
G36*
X172968228Y-83001703D02*
X173123100Y-83065853D01*
X173262481Y-83158985D01*
X173381015Y-83277519D01*
X173474147Y-83416900D01*
X173538297Y-83571772D01*
X173571000Y-83736184D01*
X173571000Y-83903816D01*
X173538297Y-84068228D01*
X173474147Y-84223100D01*
X173381015Y-84362481D01*
X173262481Y-84481015D01*
X173123100Y-84574147D01*
X172968228Y-84638297D01*
X172803816Y-84671000D01*
X172636184Y-84671000D01*
X172471772Y-84638297D01*
X172316900Y-84574147D01*
X172177519Y-84481015D01*
X172058985Y-84362481D01*
X171965853Y-84223100D01*
X171901703Y-84068228D01*
X171869000Y-83903816D01*
X171869000Y-83736184D01*
X171901703Y-83571772D01*
X171965853Y-83416900D01*
X172058985Y-83277519D01*
X172177519Y-83158985D01*
X172316900Y-83065853D01*
X172471772Y-83001703D01*
X172636184Y-82969000D01*
X172803816Y-82969000D01*
X172968228Y-83001703D01*
X172968228Y-83001703D01*
G37*
G36*
X155936565Y-82174389D02*
X156127834Y-82253615D01*
X156299976Y-82368637D01*
X156446363Y-82515024D01*
X156561385Y-82687166D01*
X156640611Y-82878435D01*
X156681000Y-83081484D01*
X156681000Y-83288516D01*
X156640611Y-83491565D01*
X156561385Y-83682834D01*
X156446363Y-83854976D01*
X156299976Y-84001363D01*
X156127834Y-84116385D01*
X155936565Y-84195611D01*
X155733516Y-84236000D01*
X155526484Y-84236000D01*
X155323435Y-84195611D01*
X155132166Y-84116385D01*
X154960024Y-84001363D01*
X154813637Y-83854976D01*
X154698615Y-83682834D01*
X154619389Y-83491565D01*
X154579000Y-83288516D01*
X154579000Y-83081484D01*
X154619389Y-82878435D01*
X154698615Y-82687166D01*
X154813637Y-82515024D01*
X154960024Y-82368637D01*
X155132166Y-82253615D01*
X155323435Y-82174389D01*
X155526484Y-82134000D01*
X155733516Y-82134000D01*
X155936565Y-82174389D01*
X155936565Y-82174389D01*
G37*
G36*
X151436565Y-82174389D02*
X151627834Y-82253615D01*
X151799976Y-82368637D01*
X151946363Y-82515024D01*
X152061385Y-82687166D01*
X152140611Y-82878435D01*
X152181000Y-83081484D01*
X152181000Y-83288516D01*
X152140611Y-83491565D01*
X152061385Y-83682834D01*
X151946363Y-83854976D01*
X151799976Y-84001363D01*
X151627834Y-84116385D01*
X151436565Y-84195611D01*
X151233516Y-84236000D01*
X151026484Y-84236000D01*
X150823435Y-84195611D01*
X150632166Y-84116385D01*
X150460024Y-84001363D01*
X150313637Y-83854976D01*
X150198615Y-83682834D01*
X150119389Y-83491565D01*
X150079000Y-83288516D01*
X150079000Y-83081484D01*
X150119389Y-82878435D01*
X150198615Y-82687166D01*
X150313637Y-82515024D01*
X150460024Y-82368637D01*
X150632166Y-82253615D01*
X150823435Y-82174389D01*
X151026484Y-82134000D01*
X151233516Y-82134000D01*
X151436565Y-82174389D01*
X151436565Y-82174389D01*
G37*
G36*
X193923228Y-79826703D02*
X194078100Y-79890853D01*
X194217481Y-79983985D01*
X194336015Y-80102519D01*
X194429147Y-80241900D01*
X194493297Y-80396772D01*
X194526000Y-80561184D01*
X194526000Y-80728816D01*
X194493297Y-80893228D01*
X194429147Y-81048100D01*
X194336015Y-81187481D01*
X194217481Y-81306015D01*
X194078100Y-81399147D01*
X193923228Y-81463297D01*
X193758816Y-81496000D01*
X193591184Y-81496000D01*
X193426772Y-81463297D01*
X193271900Y-81399147D01*
X193132519Y-81306015D01*
X193013985Y-81187481D01*
X192920853Y-81048100D01*
X192856703Y-80893228D01*
X192824000Y-80728816D01*
X192824000Y-80561184D01*
X192856703Y-80396772D01*
X192920853Y-80241900D01*
X193013985Y-80102519D01*
X193132519Y-79983985D01*
X193271900Y-79890853D01*
X193426772Y-79826703D01*
X193591184Y-79794000D01*
X193758816Y-79794000D01*
X193923228Y-79826703D01*
X193923228Y-79826703D01*
G37*
G36*
X147597396Y-76555546D02*
X147770466Y-76627234D01*
X147926230Y-76731312D01*
X148058688Y-76863770D01*
X148162766Y-77019534D01*
X148234454Y-77192604D01*
X148271000Y-77376333D01*
X148271000Y-77563667D01*
X148234454Y-77747396D01*
X148162766Y-77920466D01*
X148058688Y-78076230D01*
X147926230Y-78208688D01*
X147770466Y-78312766D01*
X147597396Y-78384454D01*
X147413667Y-78421000D01*
X147226333Y-78421000D01*
X147042604Y-78384454D01*
X146869534Y-78312766D01*
X146713770Y-78208688D01*
X146581312Y-78076230D01*
X146477234Y-77920466D01*
X146405546Y-77747396D01*
X146369000Y-77563667D01*
X146369000Y-77376333D01*
X146405546Y-77192604D01*
X146477234Y-77019534D01*
X146581312Y-76863770D01*
X146713770Y-76731312D01*
X146869534Y-76627234D01*
X147042604Y-76555546D01*
X147226333Y-76519000D01*
X147413667Y-76519000D01*
X147597396Y-76555546D01*
X147597396Y-76555546D01*
G37*
G36*
X200937396Y-76555546D02*
X201110466Y-76627234D01*
X201266230Y-76731312D01*
X201398688Y-76863770D01*
X201502766Y-77019534D01*
X201574454Y-77192604D01*
X201611000Y-77376333D01*
X201611000Y-77563667D01*
X201574454Y-77747396D01*
X201502766Y-77920466D01*
X201398688Y-78076230D01*
X201266230Y-78208688D01*
X201110466Y-78312766D01*
X200937396Y-78384454D01*
X200753667Y-78421000D01*
X200566333Y-78421000D01*
X200382604Y-78384454D01*
X200209534Y-78312766D01*
X200053770Y-78208688D01*
X199921312Y-78076230D01*
X199817234Y-77920466D01*
X199745546Y-77747396D01*
X199709000Y-77563667D01*
X199709000Y-77376333D01*
X199745546Y-77192604D01*
X199817234Y-77019534D01*
X199921312Y-76863770D01*
X200053770Y-76731312D01*
X200209534Y-76627234D01*
X200382604Y-76555546D01*
X200566333Y-76519000D01*
X200753667Y-76519000D01*
X200937396Y-76555546D01*
X200937396Y-76555546D01*
G37*
G36*
X199071000Y-78421000D02*
X197169000Y-78421000D01*
X197169000Y-76519000D01*
X199071000Y-76519000D01*
X199071000Y-78421000D01*
X199071000Y-78421000D01*
G37*
G36*
X145731000Y-78421000D02*
X143829000Y-78421000D01*
X143829000Y-76519000D01*
X145731000Y-76519000D01*
X145731000Y-78421000D01*
X145731000Y-78421000D01*
G37*
G36*
X134857142Y-76688242D02*
X135005102Y-76749530D01*
X135138258Y-76838502D01*
X135251498Y-76951742D01*
X135340470Y-77084898D01*
X135401758Y-77232858D01*
X135433000Y-77389925D01*
X135433000Y-77550075D01*
X135401758Y-77707142D01*
X135340470Y-77855102D01*
X135251498Y-77988258D01*
X135138258Y-78101498D01*
X135005102Y-78190470D01*
X134857142Y-78251758D01*
X134700075Y-78283000D01*
X134539925Y-78283000D01*
X134382858Y-78251758D01*
X134234898Y-78190470D01*
X134101742Y-78101498D01*
X133988502Y-77988258D01*
X133899530Y-77855102D01*
X133838242Y-77707142D01*
X133807000Y-77550075D01*
X133807000Y-77389925D01*
X133838242Y-77232858D01*
X133899530Y-77084898D01*
X133988502Y-76951742D01*
X134101742Y-76838502D01*
X134234898Y-76749530D01*
X134382858Y-76688242D01*
X134539925Y-76657000D01*
X134700075Y-76657000D01*
X134857142Y-76688242D01*
X134857142Y-76688242D01*
G37*
G36*
X212327142Y-76688242D02*
X212475102Y-76749530D01*
X212608258Y-76838502D01*
X212721498Y-76951742D01*
X212810470Y-77084898D01*
X212871758Y-77232858D01*
X212903000Y-77389925D01*
X212903000Y-77550075D01*
X212871758Y-77707142D01*
X212810470Y-77855102D01*
X212721498Y-77988258D01*
X212608258Y-78101498D01*
X212475102Y-78190470D01*
X212327142Y-78251758D01*
X212170075Y-78283000D01*
X212009925Y-78283000D01*
X211852858Y-78251758D01*
X211704898Y-78190470D01*
X211571742Y-78101498D01*
X211458502Y-77988258D01*
X211369530Y-77855102D01*
X211308242Y-77707142D01*
X211277000Y-77550075D01*
X211277000Y-77389925D01*
X211308242Y-77232858D01*
X211369530Y-77084898D01*
X211458502Y-76951742D01*
X211571742Y-76838502D01*
X211704898Y-76749530D01*
X211852858Y-76688242D01*
X212009925Y-76657000D01*
X212170075Y-76657000D01*
X212327142Y-76688242D01*
X212327142Y-76688242D01*
G37*
G36*
X209787142Y-76688242D02*
X209935102Y-76749530D01*
X210068258Y-76838502D01*
X210181498Y-76951742D01*
X210270470Y-77084898D01*
X210331758Y-77232858D01*
X210363000Y-77389925D01*
X210363000Y-77550075D01*
X210331758Y-77707142D01*
X210270470Y-77855102D01*
X210181498Y-77988258D01*
X210068258Y-78101498D01*
X209935102Y-78190470D01*
X209787142Y-78251758D01*
X209630075Y-78283000D01*
X209469925Y-78283000D01*
X209312858Y-78251758D01*
X209164898Y-78190470D01*
X209031742Y-78101498D01*
X208918502Y-77988258D01*
X208829530Y-77855102D01*
X208768242Y-77707142D01*
X208737000Y-77550075D01*
X208737000Y-77389925D01*
X208768242Y-77232858D01*
X208829530Y-77084898D01*
X208918502Y-76951742D01*
X209031742Y-76838502D01*
X209164898Y-76749530D01*
X209312858Y-76688242D01*
X209469925Y-76657000D01*
X209630075Y-76657000D01*
X209787142Y-76688242D01*
X209787142Y-76688242D01*
G37*
G36*
X207247142Y-76688242D02*
X207395102Y-76749530D01*
X207528258Y-76838502D01*
X207641498Y-76951742D01*
X207730470Y-77084898D01*
X207791758Y-77232858D01*
X207823000Y-77389925D01*
X207823000Y-77550075D01*
X207791758Y-77707142D01*
X207730470Y-77855102D01*
X207641498Y-77988258D01*
X207528258Y-78101498D01*
X207395102Y-78190470D01*
X207247142Y-78251758D01*
X207090075Y-78283000D01*
X206929925Y-78283000D01*
X206772858Y-78251758D01*
X206624898Y-78190470D01*
X206491742Y-78101498D01*
X206378502Y-77988258D01*
X206289530Y-77855102D01*
X206228242Y-77707142D01*
X206197000Y-77550075D01*
X206197000Y-77389925D01*
X206228242Y-77232858D01*
X206289530Y-77084898D01*
X206378502Y-76951742D01*
X206491742Y-76838502D01*
X206624898Y-76749530D01*
X206772858Y-76688242D01*
X206929925Y-76657000D01*
X207090075Y-76657000D01*
X207247142Y-76688242D01*
X207247142Y-76688242D01*
G37*
G36*
X205283000Y-78283000D02*
X203657000Y-78283000D01*
X203657000Y-76657000D01*
X205283000Y-76657000D01*
X205283000Y-78283000D01*
X205283000Y-78283000D01*
G37*
G36*
X130353000Y-78283000D02*
X128727000Y-78283000D01*
X128727000Y-76657000D01*
X130353000Y-76657000D01*
X130353000Y-78283000D01*
X130353000Y-78283000D01*
G37*
G36*
X132317142Y-76688242D02*
X132465102Y-76749530D01*
X132598258Y-76838502D01*
X132711498Y-76951742D01*
X132800470Y-77084898D01*
X132861758Y-77232858D01*
X132893000Y-77389925D01*
X132893000Y-77550075D01*
X132861758Y-77707142D01*
X132800470Y-77855102D01*
X132711498Y-77988258D01*
X132598258Y-78101498D01*
X132465102Y-78190470D01*
X132317142Y-78251758D01*
X132160075Y-78283000D01*
X131999925Y-78283000D01*
X131842858Y-78251758D01*
X131694898Y-78190470D01*
X131561742Y-78101498D01*
X131448502Y-77988258D01*
X131359530Y-77855102D01*
X131298242Y-77707142D01*
X131267000Y-77550075D01*
X131267000Y-77389925D01*
X131298242Y-77232858D01*
X131359530Y-77084898D01*
X131448502Y-76951742D01*
X131561742Y-76838502D01*
X131694898Y-76749530D01*
X131842858Y-76688242D01*
X131999925Y-76657000D01*
X132160075Y-76657000D01*
X132317142Y-76688242D01*
X132317142Y-76688242D01*
G37*
G36*
X137397142Y-76688242D02*
X137545102Y-76749530D01*
X137678258Y-76838502D01*
X137791498Y-76951742D01*
X137880470Y-77084898D01*
X137941758Y-77232858D01*
X137973000Y-77389925D01*
X137973000Y-77550075D01*
X137941758Y-77707142D01*
X137880470Y-77855102D01*
X137791498Y-77988258D01*
X137678258Y-78101498D01*
X137545102Y-78190470D01*
X137397142Y-78251758D01*
X137240075Y-78283000D01*
X137079925Y-78283000D01*
X136922858Y-78251758D01*
X136774898Y-78190470D01*
X136641742Y-78101498D01*
X136528502Y-77988258D01*
X136439530Y-77855102D01*
X136378242Y-77707142D01*
X136347000Y-77550075D01*
X136347000Y-77389925D01*
X136378242Y-77232858D01*
X136439530Y-77084898D01*
X136528502Y-76951742D01*
X136641742Y-76838502D01*
X136774898Y-76749530D01*
X136922858Y-76688242D01*
X137079925Y-76657000D01*
X137240075Y-76657000D01*
X137397142Y-76688242D01*
X137397142Y-76688242D01*
G37*
G36*
X151436565Y-75674389D02*
X151627834Y-75753615D01*
X151799976Y-75868637D01*
X151946363Y-76015024D01*
X152061385Y-76187166D01*
X152140611Y-76378435D01*
X152181000Y-76581484D01*
X152181000Y-76788516D01*
X152140611Y-76991565D01*
X152061385Y-77182834D01*
X151946363Y-77354976D01*
X151799976Y-77501363D01*
X151627834Y-77616385D01*
X151436565Y-77695611D01*
X151233516Y-77736000D01*
X151026484Y-77736000D01*
X150823435Y-77695611D01*
X150632166Y-77616385D01*
X150460024Y-77501363D01*
X150313637Y-77354976D01*
X150198615Y-77182834D01*
X150119389Y-76991565D01*
X150079000Y-76788516D01*
X150079000Y-76581484D01*
X150119389Y-76378435D01*
X150198615Y-76187166D01*
X150313637Y-76015024D01*
X150460024Y-75868637D01*
X150632166Y-75753615D01*
X150823435Y-75674389D01*
X151026484Y-75634000D01*
X151233516Y-75634000D01*
X151436565Y-75674389D01*
X151436565Y-75674389D01*
G37*
G36*
X155936565Y-75674389D02*
X156127834Y-75753615D01*
X156299976Y-75868637D01*
X156446363Y-76015024D01*
X156561385Y-76187166D01*
X156640611Y-76378435D01*
X156681000Y-76581484D01*
X156681000Y-76788516D01*
X156640611Y-76991565D01*
X156561385Y-77182834D01*
X156446363Y-77354976D01*
X156299976Y-77501363D01*
X156127834Y-77616385D01*
X155936565Y-77695611D01*
X155733516Y-77736000D01*
X155526484Y-77736000D01*
X155323435Y-77695611D01*
X155132166Y-77616385D01*
X154960024Y-77501363D01*
X154813637Y-77354976D01*
X154698615Y-77182834D01*
X154619389Y-76991565D01*
X154579000Y-76788516D01*
X154579000Y-76581484D01*
X154619389Y-76378435D01*
X154698615Y-76187166D01*
X154813637Y-76015024D01*
X154960024Y-75868637D01*
X155132166Y-75753615D01*
X155323435Y-75674389D01*
X155526484Y-75634000D01*
X155733516Y-75634000D01*
X155936565Y-75674389D01*
X155936565Y-75674389D01*
G37*
G36*
X168441821Y-75361313D02*
X168441824Y-75361314D01*
X168441825Y-75361314D01*
X168602239Y-75409975D01*
X168602241Y-75409976D01*
X168602244Y-75409977D01*
X168750078Y-75488995D01*
X168879659Y-75595341D01*
X168986005Y-75724922D01*
X169065023Y-75872756D01*
X169113687Y-76033179D01*
X169130117Y-76200000D01*
X169113687Y-76366821D01*
X169065023Y-76527244D01*
X168986005Y-76675078D01*
X168879659Y-76804659D01*
X168750078Y-76911005D01*
X168602244Y-76990023D01*
X168602241Y-76990024D01*
X168602239Y-76990025D01*
X168441825Y-77038686D01*
X168441824Y-77038686D01*
X168441821Y-77038687D01*
X168316804Y-77051000D01*
X168233196Y-77051000D01*
X168108179Y-77038687D01*
X168108176Y-77038686D01*
X168108175Y-77038686D01*
X167947761Y-76990025D01*
X167947759Y-76990024D01*
X167947756Y-76990023D01*
X167799922Y-76911005D01*
X167670341Y-76804659D01*
X167563995Y-76675078D01*
X167484977Y-76527244D01*
X167436313Y-76366821D01*
X167419883Y-76200000D01*
X167436313Y-76033179D01*
X167484977Y-75872756D01*
X167563995Y-75724922D01*
X167670341Y-75595341D01*
X167799922Y-75488995D01*
X167947756Y-75409977D01*
X167947759Y-75409976D01*
X167947761Y-75409975D01*
X168108175Y-75361314D01*
X168108176Y-75361314D01*
X168108179Y-75361313D01*
X168233196Y-75349000D01*
X168316804Y-75349000D01*
X168441821Y-75361313D01*
X168441821Y-75361313D01*
G37*
G36*
X172886821Y-75361313D02*
X172886824Y-75361314D01*
X172886825Y-75361314D01*
X173047239Y-75409975D01*
X173047241Y-75409976D01*
X173047244Y-75409977D01*
X173195078Y-75488995D01*
X173324659Y-75595341D01*
X173431005Y-75724922D01*
X173510023Y-75872756D01*
X173558687Y-76033179D01*
X173575117Y-76200000D01*
X173558687Y-76366821D01*
X173510023Y-76527244D01*
X173431005Y-76675078D01*
X173324659Y-76804659D01*
X173195078Y-76911005D01*
X173047244Y-76990023D01*
X173047241Y-76990024D01*
X173047239Y-76990025D01*
X172886825Y-77038686D01*
X172886824Y-77038686D01*
X172886821Y-77038687D01*
X172761804Y-77051000D01*
X172678196Y-77051000D01*
X172553179Y-77038687D01*
X172553176Y-77038686D01*
X172553175Y-77038686D01*
X172392761Y-76990025D01*
X172392759Y-76990024D01*
X172392756Y-76990023D01*
X172244922Y-76911005D01*
X172115341Y-76804659D01*
X172008995Y-76675078D01*
X171929977Y-76527244D01*
X171881313Y-76366821D01*
X171864883Y-76200000D01*
X171881313Y-76033179D01*
X171929977Y-75872756D01*
X172008995Y-75724922D01*
X172115341Y-75595341D01*
X172244922Y-75488995D01*
X172392756Y-75409977D01*
X172392759Y-75409976D01*
X172392761Y-75409975D01*
X172553175Y-75361314D01*
X172553176Y-75361314D01*
X172553179Y-75361313D01*
X172678196Y-75349000D01*
X172761804Y-75349000D01*
X172886821Y-75361313D01*
X172886821Y-75361313D01*
G37*
G36*
X159551821Y-75361313D02*
X159551824Y-75361314D01*
X159551825Y-75361314D01*
X159712239Y-75409975D01*
X159712241Y-75409976D01*
X159712244Y-75409977D01*
X159860078Y-75488995D01*
X159989659Y-75595341D01*
X160096005Y-75724922D01*
X160175023Y-75872756D01*
X160223687Y-76033179D01*
X160240117Y-76200000D01*
X160223687Y-76366821D01*
X160175023Y-76527244D01*
X160096005Y-76675078D01*
X159989659Y-76804659D01*
X159860078Y-76911005D01*
X159712244Y-76990023D01*
X159712241Y-76990024D01*
X159712239Y-76990025D01*
X159551825Y-77038686D01*
X159551824Y-77038686D01*
X159551821Y-77038687D01*
X159426804Y-77051000D01*
X159343196Y-77051000D01*
X159218179Y-77038687D01*
X159218176Y-77038686D01*
X159218175Y-77038686D01*
X159057761Y-76990025D01*
X159057759Y-76990024D01*
X159057756Y-76990023D01*
X158909922Y-76911005D01*
X158780341Y-76804659D01*
X158673995Y-76675078D01*
X158594977Y-76527244D01*
X158546313Y-76366821D01*
X158529883Y-76200000D01*
X158546313Y-76033179D01*
X158594977Y-75872756D01*
X158673995Y-75724922D01*
X158780341Y-75595341D01*
X158909922Y-75488995D01*
X159057756Y-75409977D01*
X159057759Y-75409976D01*
X159057761Y-75409975D01*
X159218175Y-75361314D01*
X159218176Y-75361314D01*
X159218179Y-75361313D01*
X159343196Y-75349000D01*
X159426804Y-75349000D01*
X159551821Y-75361313D01*
X159551821Y-75361313D01*
G37*
G36*
X163996821Y-75361313D02*
X163996824Y-75361314D01*
X163996825Y-75361314D01*
X164157239Y-75409975D01*
X164157241Y-75409976D01*
X164157244Y-75409977D01*
X164305078Y-75488995D01*
X164434659Y-75595341D01*
X164541005Y-75724922D01*
X164620023Y-75872756D01*
X164668687Y-76033179D01*
X164685117Y-76200000D01*
X164668687Y-76366821D01*
X164620023Y-76527244D01*
X164541005Y-76675078D01*
X164434659Y-76804659D01*
X164305078Y-76911005D01*
X164157244Y-76990023D01*
X164157241Y-76990024D01*
X164157239Y-76990025D01*
X163996825Y-77038686D01*
X163996824Y-77038686D01*
X163996821Y-77038687D01*
X163871804Y-77051000D01*
X163788196Y-77051000D01*
X163663179Y-77038687D01*
X163663176Y-77038686D01*
X163663175Y-77038686D01*
X163502761Y-76990025D01*
X163502759Y-76990024D01*
X163502756Y-76990023D01*
X163354922Y-76911005D01*
X163225341Y-76804659D01*
X163118995Y-76675078D01*
X163039977Y-76527244D01*
X162991313Y-76366821D01*
X162974883Y-76200000D01*
X162991313Y-76033179D01*
X163039977Y-75872756D01*
X163118995Y-75724922D01*
X163225341Y-75595341D01*
X163354922Y-75488995D01*
X163502756Y-75409977D01*
X163502759Y-75409976D01*
X163502761Y-75409975D01*
X163663175Y-75361314D01*
X163663176Y-75361314D01*
X163663179Y-75361313D01*
X163788196Y-75349000D01*
X163871804Y-75349000D01*
X163996821Y-75361313D01*
X163996821Y-75361313D01*
G37*
G36*
X176696821Y-75361313D02*
X176696824Y-75361314D01*
X176696825Y-75361314D01*
X176857239Y-75409975D01*
X176857241Y-75409976D01*
X176857244Y-75409977D01*
X177005078Y-75488995D01*
X177134659Y-75595341D01*
X177241005Y-75724922D01*
X177320023Y-75872756D01*
X177368687Y-76033179D01*
X177385117Y-76200000D01*
X177368687Y-76366821D01*
X177320023Y-76527244D01*
X177241005Y-76675078D01*
X177134659Y-76804659D01*
X177005078Y-76911005D01*
X176857244Y-76990023D01*
X176857241Y-76990024D01*
X176857239Y-76990025D01*
X176696825Y-77038686D01*
X176696824Y-77038686D01*
X176696821Y-77038687D01*
X176571804Y-77051000D01*
X176488196Y-77051000D01*
X176363179Y-77038687D01*
X176363176Y-77038686D01*
X176363175Y-77038686D01*
X176202761Y-76990025D01*
X176202759Y-76990024D01*
X176202756Y-76990023D01*
X176054922Y-76911005D01*
X175925341Y-76804659D01*
X175818995Y-76675078D01*
X175739977Y-76527244D01*
X175691313Y-76366821D01*
X175674883Y-76200000D01*
X175691313Y-76033179D01*
X175739977Y-75872756D01*
X175818995Y-75724922D01*
X175925341Y-75595341D01*
X176054922Y-75488995D01*
X176202756Y-75409977D01*
X176202759Y-75409976D01*
X176202761Y-75409975D01*
X176363175Y-75361314D01*
X176363176Y-75361314D01*
X176363179Y-75361313D01*
X176488196Y-75349000D01*
X176571804Y-75349000D01*
X176696821Y-75361313D01*
X176696821Y-75361313D01*
G37*
G36*
X207247142Y-74148242D02*
X207395102Y-74209530D01*
X207528258Y-74298502D01*
X207641498Y-74411742D01*
X207730470Y-74544898D01*
X207791758Y-74692858D01*
X207823000Y-74849925D01*
X207823000Y-75010075D01*
X207791758Y-75167142D01*
X207730470Y-75315102D01*
X207641498Y-75448258D01*
X207528258Y-75561498D01*
X207395102Y-75650470D01*
X207247142Y-75711758D01*
X207090075Y-75743000D01*
X206929925Y-75743000D01*
X206772858Y-75711758D01*
X206624898Y-75650470D01*
X206491742Y-75561498D01*
X206378502Y-75448258D01*
X206289530Y-75315102D01*
X206228242Y-75167142D01*
X206197000Y-75010075D01*
X206197000Y-74849925D01*
X206228242Y-74692858D01*
X206289530Y-74544898D01*
X206378502Y-74411742D01*
X206491742Y-74298502D01*
X206624898Y-74209530D01*
X206772858Y-74148242D01*
X206929925Y-74117000D01*
X207090075Y-74117000D01*
X207247142Y-74148242D01*
X207247142Y-74148242D01*
G37*
G36*
X212327142Y-74148242D02*
X212475102Y-74209530D01*
X212608258Y-74298502D01*
X212721498Y-74411742D01*
X212810470Y-74544898D01*
X212871758Y-74692858D01*
X212903000Y-74849925D01*
X212903000Y-75010075D01*
X212871758Y-75167142D01*
X212810470Y-75315102D01*
X212721498Y-75448258D01*
X212608258Y-75561498D01*
X212475102Y-75650470D01*
X212327142Y-75711758D01*
X212170075Y-75743000D01*
X212009925Y-75743000D01*
X211852858Y-75711758D01*
X211704898Y-75650470D01*
X211571742Y-75561498D01*
X211458502Y-75448258D01*
X211369530Y-75315102D01*
X211308242Y-75167142D01*
X211277000Y-75010075D01*
X211277000Y-74849925D01*
X211308242Y-74692858D01*
X211369530Y-74544898D01*
X211458502Y-74411742D01*
X211571742Y-74298502D01*
X211704898Y-74209530D01*
X211852858Y-74148242D01*
X212009925Y-74117000D01*
X212170075Y-74117000D01*
X212327142Y-74148242D01*
X212327142Y-74148242D01*
G37*
G36*
X209787142Y-74148242D02*
X209935102Y-74209530D01*
X210068258Y-74298502D01*
X210181498Y-74411742D01*
X210270470Y-74544898D01*
X210331758Y-74692858D01*
X210363000Y-74849925D01*
X210363000Y-75010075D01*
X210331758Y-75167142D01*
X210270470Y-75315102D01*
X210181498Y-75448258D01*
X210068258Y-75561498D01*
X209935102Y-75650470D01*
X209787142Y-75711758D01*
X209630075Y-75743000D01*
X209469925Y-75743000D01*
X209312858Y-75711758D01*
X209164898Y-75650470D01*
X209031742Y-75561498D01*
X208918502Y-75448258D01*
X208829530Y-75315102D01*
X208768242Y-75167142D01*
X208737000Y-75010075D01*
X208737000Y-74849925D01*
X208768242Y-74692858D01*
X208829530Y-74544898D01*
X208918502Y-74411742D01*
X209031742Y-74298502D01*
X209164898Y-74209530D01*
X209312858Y-74148242D01*
X209469925Y-74117000D01*
X209630075Y-74117000D01*
X209787142Y-74148242D01*
X209787142Y-74148242D01*
G37*
G36*
X204707142Y-74148242D02*
X204855102Y-74209530D01*
X204988258Y-74298502D01*
X205101498Y-74411742D01*
X205190470Y-74544898D01*
X205251758Y-74692858D01*
X205283000Y-74849925D01*
X205283000Y-75010075D01*
X205251758Y-75167142D01*
X205190470Y-75315102D01*
X205101498Y-75448258D01*
X204988258Y-75561498D01*
X204855102Y-75650470D01*
X204707142Y-75711758D01*
X204550075Y-75743000D01*
X204389925Y-75743000D01*
X204232858Y-75711758D01*
X204084898Y-75650470D01*
X203951742Y-75561498D01*
X203838502Y-75448258D01*
X203749530Y-75315102D01*
X203688242Y-75167142D01*
X203657000Y-75010075D01*
X203657000Y-74849925D01*
X203688242Y-74692858D01*
X203749530Y-74544898D01*
X203838502Y-74411742D01*
X203951742Y-74298502D01*
X204084898Y-74209530D01*
X204232858Y-74148242D01*
X204389925Y-74117000D01*
X204550075Y-74117000D01*
X204707142Y-74148242D01*
X204707142Y-74148242D01*
G37*
G36*
X134857142Y-74148242D02*
X135005102Y-74209530D01*
X135138258Y-74298502D01*
X135251498Y-74411742D01*
X135340470Y-74544898D01*
X135401758Y-74692858D01*
X135433000Y-74849925D01*
X135433000Y-75010075D01*
X135401758Y-75167142D01*
X135340470Y-75315102D01*
X135251498Y-75448258D01*
X135138258Y-75561498D01*
X135005102Y-75650470D01*
X134857142Y-75711758D01*
X134700075Y-75743000D01*
X134539925Y-75743000D01*
X134382858Y-75711758D01*
X134234898Y-75650470D01*
X134101742Y-75561498D01*
X133988502Y-75448258D01*
X133899530Y-75315102D01*
X133838242Y-75167142D01*
X133807000Y-75010075D01*
X133807000Y-74849925D01*
X133838242Y-74692858D01*
X133899530Y-74544898D01*
X133988502Y-74411742D01*
X134101742Y-74298502D01*
X134234898Y-74209530D01*
X134382858Y-74148242D01*
X134539925Y-74117000D01*
X134700075Y-74117000D01*
X134857142Y-74148242D01*
X134857142Y-74148242D01*
G37*
G36*
X129777142Y-74148242D02*
X129925102Y-74209530D01*
X130058258Y-74298502D01*
X130171498Y-74411742D01*
X130260470Y-74544898D01*
X130321758Y-74692858D01*
X130353000Y-74849925D01*
X130353000Y-75010075D01*
X130321758Y-75167142D01*
X130260470Y-75315102D01*
X130171498Y-75448258D01*
X130058258Y-75561498D01*
X129925102Y-75650470D01*
X129777142Y-75711758D01*
X129620075Y-75743000D01*
X129459925Y-75743000D01*
X129302858Y-75711758D01*
X129154898Y-75650470D01*
X129021742Y-75561498D01*
X128908502Y-75448258D01*
X128819530Y-75315102D01*
X128758242Y-75167142D01*
X128727000Y-75010075D01*
X128727000Y-74849925D01*
X128758242Y-74692858D01*
X128819530Y-74544898D01*
X128908502Y-74411742D01*
X129021742Y-74298502D01*
X129154898Y-74209530D01*
X129302858Y-74148242D01*
X129459925Y-74117000D01*
X129620075Y-74117000D01*
X129777142Y-74148242D01*
X129777142Y-74148242D01*
G37*
G36*
X137397142Y-74148242D02*
X137545102Y-74209530D01*
X137678258Y-74298502D01*
X137791498Y-74411742D01*
X137880470Y-74544898D01*
X137941758Y-74692858D01*
X137973000Y-74849925D01*
X137973000Y-75010075D01*
X137941758Y-75167142D01*
X137880470Y-75315102D01*
X137791498Y-75448258D01*
X137678258Y-75561498D01*
X137545102Y-75650470D01*
X137397142Y-75711758D01*
X137240075Y-75743000D01*
X137079925Y-75743000D01*
X136922858Y-75711758D01*
X136774898Y-75650470D01*
X136641742Y-75561498D01*
X136528502Y-75448258D01*
X136439530Y-75315102D01*
X136378242Y-75167142D01*
X136347000Y-75010075D01*
X136347000Y-74849925D01*
X136378242Y-74692858D01*
X136439530Y-74544898D01*
X136528502Y-74411742D01*
X136641742Y-74298502D01*
X136774898Y-74209530D01*
X136922858Y-74148242D01*
X137079925Y-74117000D01*
X137240075Y-74117000D01*
X137397142Y-74148242D01*
X137397142Y-74148242D01*
G37*
G36*
X132317142Y-74148242D02*
X132465102Y-74209530D01*
X132598258Y-74298502D01*
X132711498Y-74411742D01*
X132800470Y-74544898D01*
X132861758Y-74692858D01*
X132893000Y-74849925D01*
X132893000Y-75010075D01*
X132861758Y-75167142D01*
X132800470Y-75315102D01*
X132711498Y-75448258D01*
X132598258Y-75561498D01*
X132465102Y-75650470D01*
X132317142Y-75711758D01*
X132160075Y-75743000D01*
X131999925Y-75743000D01*
X131842858Y-75711758D01*
X131694898Y-75650470D01*
X131561742Y-75561498D01*
X131448502Y-75448258D01*
X131359530Y-75315102D01*
X131298242Y-75167142D01*
X131267000Y-75010075D01*
X131267000Y-74849925D01*
X131298242Y-74692858D01*
X131359530Y-74544898D01*
X131448502Y-74411742D01*
X131561742Y-74298502D01*
X131694898Y-74209530D01*
X131842858Y-74148242D01*
X131999925Y-74117000D01*
X132160075Y-74117000D01*
X132317142Y-74148242D01*
X132317142Y-74148242D01*
G37*
G36*
X193841821Y-72186313D02*
X193841824Y-72186314D01*
X193841825Y-72186314D01*
X194002239Y-72234975D01*
X194002241Y-72234976D01*
X194002244Y-72234977D01*
X194150078Y-72313995D01*
X194279659Y-72420341D01*
X194386005Y-72549922D01*
X194465023Y-72697756D01*
X194465024Y-72697759D01*
X194465025Y-72697761D01*
X194513686Y-72858175D01*
X194513687Y-72858179D01*
X194530117Y-73025000D01*
X194513687Y-73191821D01*
X194513686Y-73191824D01*
X194513686Y-73191825D01*
X194508690Y-73208296D01*
X194465023Y-73352244D01*
X194386005Y-73500078D01*
X194279659Y-73629659D01*
X194150078Y-73736005D01*
X194002244Y-73815023D01*
X194002241Y-73815024D01*
X194002239Y-73815025D01*
X193841825Y-73863686D01*
X193841824Y-73863686D01*
X193841821Y-73863687D01*
X193716804Y-73876000D01*
X193633196Y-73876000D01*
X193508179Y-73863687D01*
X193508176Y-73863686D01*
X193508175Y-73863686D01*
X193347761Y-73815025D01*
X193347759Y-73815024D01*
X193347756Y-73815023D01*
X193199922Y-73736005D01*
X193070341Y-73629659D01*
X192963995Y-73500078D01*
X192884977Y-73352244D01*
X192841311Y-73208296D01*
X192836314Y-73191825D01*
X192836314Y-73191824D01*
X192836313Y-73191821D01*
X192819883Y-73025000D01*
X192836313Y-72858179D01*
X192836314Y-72858175D01*
X192884975Y-72697761D01*
X192884976Y-72697759D01*
X192884977Y-72697756D01*
X192963995Y-72549922D01*
X193070341Y-72420341D01*
X193199922Y-72313995D01*
X193347756Y-72234977D01*
X193347759Y-72234976D01*
X193347761Y-72234975D01*
X193508175Y-72186314D01*
X193508176Y-72186314D01*
X193508179Y-72186313D01*
X193633196Y-72174000D01*
X193716804Y-72174000D01*
X193841821Y-72186313D01*
X193841821Y-72186313D01*
G37*
G36*
X157728228Y-71571703D02*
X157883100Y-71635853D01*
X158022481Y-71728985D01*
X158141015Y-71847519D01*
X158234147Y-71986900D01*
X158298297Y-72141772D01*
X158331000Y-72306184D01*
X158331000Y-72473816D01*
X158298297Y-72638228D01*
X158234147Y-72793100D01*
X158141015Y-72932481D01*
X158022481Y-73051015D01*
X157883100Y-73144147D01*
X157728228Y-73208297D01*
X157563816Y-73241000D01*
X157396184Y-73241000D01*
X157231772Y-73208297D01*
X157076900Y-73144147D01*
X156937519Y-73051015D01*
X156818985Y-72932481D01*
X156725853Y-72793100D01*
X156661703Y-72638228D01*
X156629000Y-72473816D01*
X156629000Y-72306184D01*
X156661703Y-72141772D01*
X156725853Y-71986900D01*
X156818985Y-71847519D01*
X156937519Y-71728985D01*
X157076900Y-71635853D01*
X157231772Y-71571703D01*
X157396184Y-71539000D01*
X157563816Y-71539000D01*
X157728228Y-71571703D01*
X157728228Y-71571703D01*
G37*
G36*
X151378228Y-71571703D02*
X151533100Y-71635853D01*
X151672481Y-71728985D01*
X151791015Y-71847519D01*
X151884147Y-71986900D01*
X151948297Y-72141772D01*
X151981000Y-72306184D01*
X151981000Y-72473816D01*
X151948297Y-72638228D01*
X151884147Y-72793100D01*
X151791015Y-72932481D01*
X151672481Y-73051015D01*
X151533100Y-73144147D01*
X151378228Y-73208297D01*
X151213816Y-73241000D01*
X151046184Y-73241000D01*
X150881772Y-73208297D01*
X150726900Y-73144147D01*
X150587519Y-73051015D01*
X150468985Y-72932481D01*
X150375853Y-72793100D01*
X150311703Y-72638228D01*
X150279000Y-72473816D01*
X150279000Y-72306184D01*
X150311703Y-72141772D01*
X150375853Y-71986900D01*
X150468985Y-71847519D01*
X150587519Y-71728985D01*
X150726900Y-71635853D01*
X150881772Y-71571703D01*
X151046184Y-71539000D01*
X151213816Y-71539000D01*
X151378228Y-71571703D01*
X151378228Y-71571703D01*
G37*
G36*
X172830442Y-70225518D02*
X172896627Y-70232037D01*
X172982176Y-70257988D01*
X173066467Y-70283557D01*
X173205087Y-70357652D01*
X173222991Y-70367222D01*
X173258729Y-70396552D01*
X173360186Y-70479814D01*
X173443448Y-70581271D01*
X173472778Y-70617009D01*
X173472779Y-70617011D01*
X173556443Y-70773533D01*
X173556443Y-70773534D01*
X173607963Y-70943373D01*
X173625359Y-71120000D01*
X173607963Y-71296627D01*
X173573616Y-71409853D01*
X173556443Y-71466467D01*
X173500192Y-71571703D01*
X173472778Y-71622991D01*
X173443448Y-71658729D01*
X173360186Y-71760186D01*
X173258729Y-71843448D01*
X173222991Y-71872778D01*
X173222989Y-71872779D01*
X173066467Y-71956443D01*
X173009853Y-71973616D01*
X172896627Y-72007963D01*
X172830443Y-72014481D01*
X172764260Y-72021000D01*
X172675740Y-72021000D01*
X172609557Y-72014481D01*
X172543373Y-72007963D01*
X172430147Y-71973616D01*
X172373533Y-71956443D01*
X172217011Y-71872779D01*
X172217009Y-71872778D01*
X172181271Y-71843448D01*
X172079814Y-71760186D01*
X171996552Y-71658729D01*
X171967222Y-71622991D01*
X171939808Y-71571703D01*
X171883557Y-71466467D01*
X171866384Y-71409853D01*
X171832037Y-71296627D01*
X171814641Y-71120000D01*
X171832037Y-70943373D01*
X171883557Y-70773534D01*
X171883557Y-70773533D01*
X171967221Y-70617011D01*
X171967222Y-70617009D01*
X171996552Y-70581271D01*
X172079814Y-70479814D01*
X172181271Y-70396552D01*
X172217009Y-70367222D01*
X172234913Y-70357652D01*
X172373533Y-70283557D01*
X172457824Y-70257988D01*
X172543373Y-70232037D01*
X172609558Y-70225518D01*
X172675740Y-70219000D01*
X172764260Y-70219000D01*
X172830442Y-70225518D01*
X172830442Y-70225518D01*
G37*
G36*
X175370442Y-70225518D02*
X175436627Y-70232037D01*
X175522176Y-70257988D01*
X175606467Y-70283557D01*
X175745087Y-70357652D01*
X175762991Y-70367222D01*
X175798729Y-70396552D01*
X175900186Y-70479814D01*
X175983448Y-70581271D01*
X176012778Y-70617009D01*
X176012779Y-70617011D01*
X176096443Y-70773533D01*
X176096443Y-70773534D01*
X176147963Y-70943373D01*
X176165359Y-71120000D01*
X176147963Y-71296627D01*
X176113616Y-71409853D01*
X176096443Y-71466467D01*
X176040192Y-71571703D01*
X176012778Y-71622991D01*
X175983448Y-71658729D01*
X175900186Y-71760186D01*
X175798729Y-71843448D01*
X175762991Y-71872778D01*
X175762989Y-71872779D01*
X175606467Y-71956443D01*
X175549853Y-71973616D01*
X175436627Y-72007963D01*
X175370443Y-72014481D01*
X175304260Y-72021000D01*
X175215740Y-72021000D01*
X175149557Y-72014481D01*
X175083373Y-72007963D01*
X174970147Y-71973616D01*
X174913533Y-71956443D01*
X174757011Y-71872779D01*
X174757009Y-71872778D01*
X174721271Y-71843448D01*
X174619814Y-71760186D01*
X174536552Y-71658729D01*
X174507222Y-71622991D01*
X174479808Y-71571703D01*
X174423557Y-71466467D01*
X174406384Y-71409853D01*
X174372037Y-71296627D01*
X174354641Y-71120000D01*
X174372037Y-70943373D01*
X174423557Y-70773534D01*
X174423557Y-70773533D01*
X174507221Y-70617011D01*
X174507222Y-70617009D01*
X174536552Y-70581271D01*
X174619814Y-70479814D01*
X174721271Y-70396552D01*
X174757009Y-70367222D01*
X174774913Y-70357652D01*
X174913533Y-70283557D01*
X174997824Y-70257988D01*
X175083373Y-70232037D01*
X175149558Y-70225518D01*
X175215740Y-70219000D01*
X175304260Y-70219000D01*
X175370442Y-70225518D01*
X175370442Y-70225518D01*
G37*
G36*
X171081000Y-72021000D02*
X169279000Y-72021000D01*
X169279000Y-70219000D01*
X171081000Y-70219000D01*
X171081000Y-72021000D01*
X171081000Y-72021000D01*
G37*
G36*
X188188433Y-68754893D02*
X188278657Y-68772839D01*
X188384267Y-68816585D01*
X188533621Y-68878449D01*
X188763089Y-69031774D01*
X188958226Y-69226911D01*
X189111551Y-69456379D01*
X189217161Y-69711344D01*
X189271000Y-69982012D01*
X189271000Y-70257988D01*
X189217161Y-70528656D01*
X189111551Y-70783621D01*
X188958226Y-71013089D01*
X188763089Y-71208226D01*
X188533621Y-71361551D01*
X188384267Y-71423415D01*
X188278657Y-71467161D01*
X188188433Y-71485107D01*
X188007988Y-71521000D01*
X187732012Y-71521000D01*
X187551567Y-71485107D01*
X187461343Y-71467161D01*
X187355733Y-71423415D01*
X187206379Y-71361551D01*
X186976911Y-71208226D01*
X186781774Y-71013089D01*
X186628449Y-70783621D01*
X186522839Y-70528656D01*
X186469000Y-70257988D01*
X186469000Y-69982012D01*
X186522839Y-69711344D01*
X186628449Y-69456379D01*
X186781774Y-69226911D01*
X186976911Y-69031774D01*
X187206379Y-68878449D01*
X187355733Y-68816585D01*
X187461343Y-68772839D01*
X187551567Y-68754893D01*
X187732012Y-68719000D01*
X188007988Y-68719000D01*
X188188433Y-68754893D01*
X188188433Y-68754893D01*
G37*
G36*
X199071000Y-70801000D02*
X197169000Y-70801000D01*
X197169000Y-68899000D01*
X199071000Y-68899000D01*
X199071000Y-70801000D01*
X199071000Y-70801000D01*
G37*
G36*
X200937396Y-68935546D02*
X201110466Y-69007234D01*
X201266230Y-69111312D01*
X201398688Y-69243770D01*
X201502766Y-69399534D01*
X201574454Y-69572604D01*
X201611000Y-69756333D01*
X201611000Y-69943667D01*
X201574454Y-70127396D01*
X201502766Y-70300466D01*
X201398688Y-70456230D01*
X201266230Y-70588688D01*
X201110466Y-70692766D01*
X200937396Y-70764454D01*
X200753667Y-70801000D01*
X200566333Y-70801000D01*
X200382604Y-70764454D01*
X200209534Y-70692766D01*
X200053770Y-70588688D01*
X199921312Y-70456230D01*
X199817234Y-70300466D01*
X199745546Y-70127396D01*
X199709000Y-69943667D01*
X199709000Y-69756333D01*
X199745546Y-69572604D01*
X199817234Y-69399534D01*
X199921312Y-69243770D01*
X200053770Y-69111312D01*
X200209534Y-69007234D01*
X200382604Y-68935546D01*
X200566333Y-68899000D01*
X200753667Y-68899000D01*
X200937396Y-68935546D01*
X200937396Y-68935546D01*
G37*
G36*
X147597396Y-68935546D02*
X147770466Y-69007234D01*
X147926230Y-69111312D01*
X148058688Y-69243770D01*
X148162766Y-69399534D01*
X148234454Y-69572604D01*
X148271000Y-69756333D01*
X148271000Y-69943667D01*
X148234454Y-70127396D01*
X148162766Y-70300466D01*
X148058688Y-70456230D01*
X147926230Y-70588688D01*
X147770466Y-70692766D01*
X147597396Y-70764454D01*
X147413667Y-70801000D01*
X147226333Y-70801000D01*
X147042604Y-70764454D01*
X146869534Y-70692766D01*
X146713770Y-70588688D01*
X146581312Y-70456230D01*
X146477234Y-70300466D01*
X146405546Y-70127396D01*
X146369000Y-69943667D01*
X146369000Y-69756333D01*
X146405546Y-69572604D01*
X146477234Y-69399534D01*
X146581312Y-69243770D01*
X146713770Y-69111312D01*
X146869534Y-69007234D01*
X147042604Y-68935546D01*
X147226333Y-68899000D01*
X147413667Y-68899000D01*
X147597396Y-68935546D01*
X147597396Y-68935546D01*
G37*
G36*
X145731000Y-70801000D02*
X143829000Y-70801000D01*
X143829000Y-68899000D01*
X145731000Y-68899000D01*
X145731000Y-70801000D01*
X145731000Y-70801000D01*
G37*
G36*
X179788433Y-67554893D02*
X179878657Y-67572839D01*
X179984267Y-67616585D01*
X180133621Y-67678449D01*
X180363089Y-67831774D01*
X180558226Y-68026911D01*
X180711551Y-68256379D01*
X180817161Y-68511344D01*
X180871000Y-68782012D01*
X180871000Y-69057988D01*
X180817161Y-69328656D01*
X180711551Y-69583621D01*
X180558226Y-69813089D01*
X180363089Y-70008226D01*
X180133621Y-70161551D01*
X179994927Y-70219000D01*
X179878657Y-70267161D01*
X179788433Y-70285107D01*
X179607988Y-70321000D01*
X179332012Y-70321000D01*
X179151567Y-70285107D01*
X179061343Y-70267161D01*
X178945073Y-70219000D01*
X178806379Y-70161551D01*
X178576911Y-70008226D01*
X178381774Y-69813089D01*
X178228449Y-69583621D01*
X178122839Y-69328656D01*
X178069000Y-69057988D01*
X178069000Y-68782012D01*
X178122839Y-68511344D01*
X178228449Y-68256379D01*
X178381774Y-68026911D01*
X178576911Y-67831774D01*
X178806379Y-67678449D01*
X178955733Y-67616585D01*
X179061343Y-67572839D01*
X179151567Y-67554893D01*
X179332012Y-67519000D01*
X179607988Y-67519000D01*
X179788433Y-67554893D01*
X179788433Y-67554893D01*
G37*
G36*
X165951000Y-68161000D02*
X164249000Y-68161000D01*
X164249000Y-66459000D01*
X165951000Y-66459000D01*
X165951000Y-68161000D01*
X165951000Y-68161000D01*
G37*
G36*
X163348228Y-66491703D02*
X163503100Y-66555853D01*
X163642481Y-66648985D01*
X163761015Y-66767519D01*
X163854147Y-66906900D01*
X163918297Y-67061772D01*
X163951000Y-67226184D01*
X163951000Y-67393816D01*
X163918297Y-67558228D01*
X163854147Y-67713100D01*
X163761015Y-67852481D01*
X163642481Y-67971015D01*
X163503100Y-68064147D01*
X163348228Y-68128297D01*
X163183816Y-68161000D01*
X163016184Y-68161000D01*
X162851772Y-68128297D01*
X162696900Y-68064147D01*
X162557519Y-67971015D01*
X162438985Y-67852481D01*
X162345853Y-67713100D01*
X162281703Y-67558228D01*
X162249000Y-67393816D01*
X162249000Y-67226184D01*
X162281703Y-67061772D01*
X162345853Y-66906900D01*
X162438985Y-66767519D01*
X162557519Y-66648985D01*
X162696900Y-66555853D01*
X162851772Y-66491703D01*
X163016184Y-66459000D01*
X163183816Y-66459000D01*
X163348228Y-66491703D01*
X163348228Y-66491703D01*
G37*
G36*
X157646821Y-64051313D02*
X157646824Y-64051314D01*
X157646825Y-64051314D01*
X157807239Y-64099975D01*
X157807241Y-64099976D01*
X157807244Y-64099977D01*
X157955078Y-64178995D01*
X158084659Y-64285341D01*
X158191005Y-64414922D01*
X158270023Y-64562756D01*
X158270024Y-64562759D01*
X158270025Y-64562761D01*
X158305224Y-64678797D01*
X158318687Y-64723179D01*
X158335117Y-64890000D01*
X158318687Y-65056821D01*
X158318686Y-65056824D01*
X158318686Y-65056825D01*
X158272638Y-65208626D01*
X158270023Y-65217244D01*
X158191005Y-65365078D01*
X158084659Y-65494659D01*
X157955078Y-65601005D01*
X157807244Y-65680023D01*
X157807241Y-65680024D01*
X157807239Y-65680025D01*
X157646825Y-65728686D01*
X157646824Y-65728686D01*
X157646821Y-65728687D01*
X157521804Y-65741000D01*
X157438196Y-65741000D01*
X157313179Y-65728687D01*
X157313176Y-65728686D01*
X157313175Y-65728686D01*
X157152761Y-65680025D01*
X157152759Y-65680024D01*
X157152756Y-65680023D01*
X157004922Y-65601005D01*
X156875341Y-65494659D01*
X156768995Y-65365078D01*
X156689977Y-65217244D01*
X156687363Y-65208626D01*
X156641314Y-65056825D01*
X156641314Y-65056824D01*
X156641313Y-65056821D01*
X156624883Y-64890000D01*
X156641313Y-64723179D01*
X156654776Y-64678797D01*
X156689975Y-64562761D01*
X156689976Y-64562759D01*
X156689977Y-64562756D01*
X156768995Y-64414922D01*
X156875341Y-64285341D01*
X157004922Y-64178995D01*
X157152756Y-64099977D01*
X157152759Y-64099976D01*
X157152761Y-64099975D01*
X157313175Y-64051314D01*
X157313176Y-64051314D01*
X157313179Y-64051313D01*
X157438196Y-64039000D01*
X157521804Y-64039000D01*
X157646821Y-64051313D01*
X157646821Y-64051313D01*
G37*
G36*
X182190104Y-63879585D02*
X182358626Y-63949389D01*
X182510291Y-64050728D01*
X182639272Y-64179709D01*
X182740611Y-64331374D01*
X182810415Y-64499896D01*
X182846000Y-64678797D01*
X182846000Y-64861203D01*
X182810415Y-65040104D01*
X182740611Y-65208626D01*
X182639272Y-65360291D01*
X182510291Y-65489272D01*
X182358626Y-65590611D01*
X182190104Y-65660415D01*
X182011203Y-65696000D01*
X181828797Y-65696000D01*
X181649896Y-65660415D01*
X181481374Y-65590611D01*
X181329709Y-65489272D01*
X181200728Y-65360291D01*
X181099389Y-65208626D01*
X181029585Y-65040104D01*
X180994000Y-64861203D01*
X180994000Y-64678797D01*
X181029585Y-64499896D01*
X181099389Y-64331374D01*
X181200728Y-64179709D01*
X181329709Y-64050728D01*
X181481374Y-63949389D01*
X181649896Y-63879585D01*
X181828797Y-63844000D01*
X182011203Y-63844000D01*
X182190104Y-63879585D01*
X182190104Y-63879585D01*
G37*
G36*
X186346000Y-65696000D02*
X184494000Y-65696000D01*
X184494000Y-63844000D01*
X186346000Y-63844000D01*
X186346000Y-65696000D01*
X186346000Y-65696000D01*
G37*
G36*
X151296821Y-63931313D02*
X151296824Y-63931314D01*
X151296825Y-63931314D01*
X151457239Y-63979975D01*
X151457241Y-63979976D01*
X151457244Y-63979977D01*
X151605078Y-64058995D01*
X151734659Y-64165341D01*
X151841005Y-64294922D01*
X151920023Y-64442756D01*
X151920024Y-64442759D01*
X151920025Y-64442761D01*
X151968686Y-64603175D01*
X151968687Y-64603179D01*
X151985117Y-64770000D01*
X151968687Y-64936821D01*
X151968686Y-64936824D01*
X151968686Y-64936825D01*
X151932286Y-65056821D01*
X151920023Y-65097244D01*
X151841005Y-65245078D01*
X151734659Y-65374659D01*
X151605078Y-65481005D01*
X151457244Y-65560023D01*
X151457241Y-65560024D01*
X151457239Y-65560025D01*
X151296825Y-65608686D01*
X151296824Y-65608686D01*
X151296821Y-65608687D01*
X151171804Y-65621000D01*
X151088196Y-65621000D01*
X150963179Y-65608687D01*
X150963176Y-65608686D01*
X150963175Y-65608686D01*
X150802761Y-65560025D01*
X150802759Y-65560024D01*
X150802756Y-65560023D01*
X150654922Y-65481005D01*
X150525341Y-65374659D01*
X150418995Y-65245078D01*
X150339977Y-65097244D01*
X150327715Y-65056821D01*
X150291314Y-64936825D01*
X150291314Y-64936824D01*
X150291313Y-64936821D01*
X150274883Y-64770000D01*
X150291313Y-64603179D01*
X150291314Y-64603175D01*
X150339975Y-64442761D01*
X150339976Y-64442759D01*
X150339977Y-64442756D01*
X150418995Y-64294922D01*
X150525341Y-64165341D01*
X150654922Y-64058995D01*
X150802756Y-63979977D01*
X150802759Y-63979976D01*
X150802761Y-63979975D01*
X150963175Y-63931314D01*
X150963176Y-63931314D01*
X150963179Y-63931313D01*
X151088196Y-63919000D01*
X151171804Y-63919000D01*
X151296821Y-63931313D01*
X151296821Y-63931313D01*
G37*
G36*
X147568228Y-63951703D02*
X147723100Y-64015853D01*
X147862481Y-64108985D01*
X147981015Y-64227519D01*
X148074147Y-64366900D01*
X148138297Y-64521772D01*
X148171000Y-64686184D01*
X148171000Y-64853816D01*
X148138297Y-65018228D01*
X148074147Y-65173100D01*
X147981015Y-65312481D01*
X147862481Y-65431015D01*
X147723100Y-65524147D01*
X147568228Y-65588297D01*
X147403816Y-65621000D01*
X147236184Y-65621000D01*
X147071772Y-65588297D01*
X146916900Y-65524147D01*
X146777519Y-65431015D01*
X146658985Y-65312481D01*
X146565853Y-65173100D01*
X146501703Y-65018228D01*
X146469000Y-64853816D01*
X146469000Y-64686184D01*
X146501703Y-64521772D01*
X146565853Y-64366900D01*
X146658985Y-64227519D01*
X146777519Y-64108985D01*
X146916900Y-64015853D01*
X147071772Y-63951703D01*
X147236184Y-63919000D01*
X147403816Y-63919000D01*
X147568228Y-63951703D01*
X147568228Y-63951703D01*
G37*
G36*
X198368228Y-63951703D02*
X198523100Y-64015853D01*
X198662481Y-64108985D01*
X198781015Y-64227519D01*
X198874147Y-64366900D01*
X198938297Y-64521772D01*
X198971000Y-64686184D01*
X198971000Y-64853816D01*
X198938297Y-65018228D01*
X198874147Y-65173100D01*
X198781015Y-65312481D01*
X198662481Y-65431015D01*
X198523100Y-65524147D01*
X198368228Y-65588297D01*
X198203816Y-65621000D01*
X198036184Y-65621000D01*
X197871772Y-65588297D01*
X197716900Y-65524147D01*
X197577519Y-65431015D01*
X197458985Y-65312481D01*
X197365853Y-65173100D01*
X197301703Y-65018228D01*
X197269000Y-64853816D01*
X197269000Y-64686184D01*
X197301703Y-64521772D01*
X197365853Y-64366900D01*
X197458985Y-64227519D01*
X197577519Y-64108985D01*
X197716900Y-64015853D01*
X197871772Y-63951703D01*
X198036184Y-63919000D01*
X198203816Y-63919000D01*
X198368228Y-63951703D01*
X198368228Y-63951703D01*
G37*
G36*
X174100442Y-60065518D02*
X174166627Y-60072037D01*
X174279853Y-60106384D01*
X174336467Y-60123557D01*
X174475087Y-60197652D01*
X174492991Y-60207222D01*
X174528729Y-60236552D01*
X174630186Y-60319814D01*
X174713448Y-60421271D01*
X174742778Y-60457009D01*
X174742779Y-60457011D01*
X174826443Y-60613533D01*
X174826443Y-60613534D01*
X174877963Y-60783373D01*
X174895359Y-60960000D01*
X174877963Y-61136627D01*
X174843616Y-61249853D01*
X174826443Y-61306467D01*
X174752348Y-61445087D01*
X174742778Y-61462991D01*
X174713448Y-61498729D01*
X174630186Y-61600186D01*
X174528729Y-61683448D01*
X174492991Y-61712778D01*
X174492989Y-61712779D01*
X174336467Y-61796443D01*
X174279853Y-61813616D01*
X174166627Y-61847963D01*
X174100443Y-61854481D01*
X174034260Y-61861000D01*
X173945740Y-61861000D01*
X173879557Y-61854481D01*
X173813373Y-61847963D01*
X173700147Y-61813616D01*
X173643533Y-61796443D01*
X173487011Y-61712779D01*
X173487009Y-61712778D01*
X173451271Y-61683448D01*
X173349814Y-61600186D01*
X173266552Y-61498729D01*
X173237222Y-61462991D01*
X173227652Y-61445087D01*
X173153557Y-61306467D01*
X173136384Y-61249853D01*
X173102037Y-61136627D01*
X173084641Y-60960000D01*
X173102037Y-60783373D01*
X173153557Y-60613534D01*
X173153557Y-60613533D01*
X173237221Y-60457011D01*
X173237222Y-60457009D01*
X173266552Y-60421271D01*
X173349814Y-60319814D01*
X173451271Y-60236552D01*
X173487009Y-60207222D01*
X173504913Y-60197652D01*
X173643533Y-60123557D01*
X173700147Y-60106384D01*
X173813373Y-60072037D01*
X173879558Y-60065518D01*
X173945740Y-60059000D01*
X174034260Y-60059000D01*
X174100442Y-60065518D01*
X174100442Y-60065518D01*
G37*
G36*
X172351000Y-61861000D02*
X170549000Y-61861000D01*
X170549000Y-60059000D01*
X172351000Y-60059000D01*
X172351000Y-61861000D01*
X172351000Y-61861000D01*
G37*
G36*
X189426719Y-58653520D02*
X189615880Y-58710901D01*
X189790212Y-58804083D01*
X189943015Y-58929485D01*
X190068417Y-59082288D01*
X190161599Y-59256619D01*
X190218980Y-59445780D01*
X190233500Y-59593206D01*
X190233500Y-59786793D01*
X190218980Y-59934219D01*
X190161599Y-60123380D01*
X190068417Y-60297712D01*
X189943015Y-60450515D01*
X189790212Y-60575917D01*
X189615881Y-60669099D01*
X189426720Y-60726480D01*
X189230000Y-60745855D01*
X189033281Y-60726480D01*
X188844120Y-60669099D01*
X188669788Y-60575917D01*
X188516985Y-60450515D01*
X188391583Y-60297712D01*
X188298401Y-60123381D01*
X188241020Y-59934220D01*
X188226500Y-59786794D01*
X188226500Y-59593207D01*
X188241020Y-59445781D01*
X188298401Y-59256620D01*
X188391583Y-59082288D01*
X188516985Y-58929485D01*
X188669788Y-58804083D01*
X188844119Y-58710901D01*
X189033280Y-58653520D01*
X189230000Y-58634145D01*
X189426719Y-58653520D01*
X189426719Y-58653520D01*
G37*
G36*
X156406719Y-58653520D02*
X156595880Y-58710901D01*
X156770212Y-58804083D01*
X156923015Y-58929485D01*
X157048417Y-59082288D01*
X157141599Y-59256619D01*
X157198980Y-59445780D01*
X157213500Y-59593206D01*
X157213500Y-59786793D01*
X157198980Y-59934219D01*
X157141599Y-60123380D01*
X157048417Y-60297712D01*
X156923015Y-60450515D01*
X156770212Y-60575917D01*
X156595881Y-60669099D01*
X156406720Y-60726480D01*
X156210000Y-60745855D01*
X156013281Y-60726480D01*
X155824120Y-60669099D01*
X155649788Y-60575917D01*
X155496985Y-60450515D01*
X155371583Y-60297712D01*
X155278401Y-60123381D01*
X155221020Y-59934220D01*
X155206500Y-59786794D01*
X155206500Y-59593207D01*
X155221020Y-59445781D01*
X155278401Y-59256620D01*
X155371583Y-59082288D01*
X155496985Y-58929485D01*
X155649788Y-58804083D01*
X155824119Y-58710901D01*
X156013280Y-58653520D01*
X156210000Y-58634145D01*
X156406719Y-58653520D01*
X156406719Y-58653520D01*
G37*
G36*
X191966719Y-58653520D02*
X192155880Y-58710901D01*
X192330212Y-58804083D01*
X192483015Y-58929485D01*
X192608417Y-59082288D01*
X192701599Y-59256619D01*
X192758980Y-59445780D01*
X192773500Y-59593206D01*
X192773500Y-59786793D01*
X192758980Y-59934219D01*
X192701599Y-60123380D01*
X192608417Y-60297712D01*
X192483015Y-60450515D01*
X192330212Y-60575917D01*
X192155881Y-60669099D01*
X191966720Y-60726480D01*
X191770000Y-60745855D01*
X191573281Y-60726480D01*
X191384120Y-60669099D01*
X191209788Y-60575917D01*
X191056985Y-60450515D01*
X190931583Y-60297712D01*
X190838401Y-60123381D01*
X190781020Y-59934220D01*
X190766500Y-59786794D01*
X190766500Y-59593207D01*
X190781020Y-59445781D01*
X190838401Y-59256620D01*
X190931583Y-59082288D01*
X191056985Y-58929485D01*
X191209788Y-58804083D01*
X191384119Y-58710901D01*
X191573280Y-58653520D01*
X191770000Y-58634145D01*
X191966719Y-58653520D01*
X191966719Y-58653520D01*
G37*
G36*
X158946719Y-58653520D02*
X159135880Y-58710901D01*
X159310212Y-58804083D01*
X159463015Y-58929485D01*
X159588417Y-59082288D01*
X159681599Y-59256619D01*
X159738980Y-59445780D01*
X159753500Y-59593206D01*
X159753500Y-59786793D01*
X159738980Y-59934219D01*
X159681599Y-60123380D01*
X159588417Y-60297712D01*
X159463015Y-60450515D01*
X159310212Y-60575917D01*
X159135881Y-60669099D01*
X158946720Y-60726480D01*
X158750000Y-60745855D01*
X158553281Y-60726480D01*
X158364120Y-60669099D01*
X158189788Y-60575917D01*
X158036985Y-60450515D01*
X157911583Y-60297712D01*
X157818401Y-60123381D01*
X157761020Y-59934220D01*
X157746500Y-59786794D01*
X157746500Y-59593207D01*
X157761020Y-59445781D01*
X157818401Y-59256620D01*
X157911583Y-59082288D01*
X158036985Y-58929485D01*
X158189788Y-58804083D01*
X158364119Y-58710901D01*
X158553280Y-58653520D01*
X158750000Y-58634145D01*
X158946719Y-58653520D01*
X158946719Y-58653520D01*
G37*
G36*
X187693500Y-60741000D02*
X185686500Y-60741000D01*
X185686500Y-58639000D01*
X187693500Y-58639000D01*
X187693500Y-60741000D01*
X187693500Y-60741000D01*
G37*
G36*
X154673500Y-60741000D02*
X152666500Y-60741000D01*
X152666500Y-58639000D01*
X154673500Y-58639000D01*
X154673500Y-60741000D01*
X154673500Y-60741000D01*
G37*
G36*
X198286821Y-56311313D02*
X198286824Y-56311314D01*
X198286825Y-56311314D01*
X198447239Y-56359975D01*
X198447241Y-56359976D01*
X198447244Y-56359977D01*
X198595078Y-56438995D01*
X198724659Y-56545341D01*
X198831005Y-56674922D01*
X198910023Y-56822756D01*
X198958687Y-56983179D01*
X198975117Y-57150000D01*
X198958687Y-57316821D01*
X198910023Y-57477244D01*
X198831005Y-57625078D01*
X198724659Y-57754659D01*
X198595078Y-57861005D01*
X198447244Y-57940023D01*
X198447241Y-57940024D01*
X198447239Y-57940025D01*
X198286825Y-57988686D01*
X198286824Y-57988686D01*
X198286821Y-57988687D01*
X198161804Y-58001000D01*
X198078196Y-58001000D01*
X197953179Y-57988687D01*
X197953176Y-57988686D01*
X197953175Y-57988686D01*
X197792761Y-57940025D01*
X197792759Y-57940024D01*
X197792756Y-57940023D01*
X197644922Y-57861005D01*
X197515341Y-57754659D01*
X197408995Y-57625078D01*
X197329977Y-57477244D01*
X197281313Y-57316821D01*
X197264883Y-57150000D01*
X197281313Y-56983179D01*
X197329977Y-56822756D01*
X197408995Y-56674922D01*
X197515341Y-56545341D01*
X197644922Y-56438995D01*
X197792756Y-56359977D01*
X197792759Y-56359976D01*
X197792761Y-56359975D01*
X197953175Y-56311314D01*
X197953176Y-56311314D01*
X197953179Y-56311313D01*
X198078196Y-56299000D01*
X198161804Y-56299000D01*
X198286821Y-56311313D01*
X198286821Y-56311313D01*
G37*
G36*
X147486821Y-56311313D02*
X147486824Y-56311314D01*
X147486825Y-56311314D01*
X147647239Y-56359975D01*
X147647241Y-56359976D01*
X147647244Y-56359977D01*
X147795078Y-56438995D01*
X147924659Y-56545341D01*
X148031005Y-56674922D01*
X148110023Y-56822756D01*
X148158687Y-56983179D01*
X148175117Y-57150000D01*
X148158687Y-57316821D01*
X148110023Y-57477244D01*
X148031005Y-57625078D01*
X147924659Y-57754659D01*
X147795078Y-57861005D01*
X147647244Y-57940023D01*
X147647241Y-57940024D01*
X147647239Y-57940025D01*
X147486825Y-57988686D01*
X147486824Y-57988686D01*
X147486821Y-57988687D01*
X147361804Y-58001000D01*
X147278196Y-58001000D01*
X147153179Y-57988687D01*
X147153176Y-57988686D01*
X147153175Y-57988686D01*
X146992761Y-57940025D01*
X146992759Y-57940024D01*
X146992756Y-57940023D01*
X146844922Y-57861005D01*
X146715341Y-57754659D01*
X146608995Y-57625078D01*
X146529977Y-57477244D01*
X146481313Y-57316821D01*
X146464883Y-57150000D01*
X146481313Y-56983179D01*
X146529977Y-56822756D01*
X146608995Y-56674922D01*
X146715341Y-56545341D01*
X146844922Y-56438995D01*
X146992756Y-56359977D01*
X146992759Y-56359976D01*
X146992761Y-56359975D01*
X147153175Y-56311314D01*
X147153176Y-56311314D01*
X147153179Y-56311313D01*
X147278196Y-56299000D01*
X147361804Y-56299000D01*
X147486821Y-56311313D01*
X147486821Y-56311313D01*
G37*
G36*
X176161000Y-55511000D02*
X174359000Y-55511000D01*
X174359000Y-53709000D01*
X176161000Y-53709000D01*
X176161000Y-55511000D01*
X176161000Y-55511000D01*
G37*
G36*
X172830442Y-53715518D02*
X172896627Y-53722037D01*
X173009853Y-53756384D01*
X173066467Y-53773557D01*
X173205087Y-53847652D01*
X173222991Y-53857222D01*
X173253769Y-53882481D01*
X173360186Y-53969814D01*
X173443448Y-54071271D01*
X173472778Y-54107009D01*
X173472779Y-54107011D01*
X173556443Y-54263533D01*
X173556443Y-54263534D01*
X173607963Y-54433373D01*
X173625359Y-54610000D01*
X173607963Y-54786627D01*
X173573616Y-54899853D01*
X173556443Y-54956467D01*
X173482348Y-55095087D01*
X173472778Y-55112991D01*
X173443448Y-55148729D01*
X173360186Y-55250186D01*
X173258729Y-55333448D01*
X173222991Y-55362778D01*
X173222989Y-55362779D01*
X173066467Y-55446443D01*
X173009853Y-55463616D01*
X172896627Y-55497963D01*
X172830442Y-55504482D01*
X172764260Y-55511000D01*
X172675740Y-55511000D01*
X172609558Y-55504482D01*
X172543373Y-55497963D01*
X172430147Y-55463616D01*
X172373533Y-55446443D01*
X172217011Y-55362779D01*
X172217009Y-55362778D01*
X172181271Y-55333448D01*
X172079814Y-55250186D01*
X171996552Y-55148729D01*
X171967222Y-55112991D01*
X171957652Y-55095087D01*
X171883557Y-54956467D01*
X171866384Y-54899853D01*
X171832037Y-54786627D01*
X171814641Y-54610000D01*
X171832037Y-54433373D01*
X171883557Y-54263534D01*
X171883557Y-54263533D01*
X171967221Y-54107011D01*
X171967222Y-54107009D01*
X171996552Y-54071271D01*
X172079814Y-53969814D01*
X172186231Y-53882481D01*
X172217009Y-53857222D01*
X172234913Y-53847652D01*
X172373533Y-53773557D01*
X172430147Y-53756384D01*
X172543373Y-53722037D01*
X172609558Y-53715518D01*
X172675740Y-53709000D01*
X172764260Y-53709000D01*
X172830442Y-53715518D01*
X172830442Y-53715518D01*
G37*
G36*
X170290442Y-53715518D02*
X170356627Y-53722037D01*
X170469853Y-53756384D01*
X170526467Y-53773557D01*
X170665087Y-53847652D01*
X170682991Y-53857222D01*
X170713769Y-53882481D01*
X170820186Y-53969814D01*
X170903448Y-54071271D01*
X170932778Y-54107009D01*
X170932779Y-54107011D01*
X171016443Y-54263533D01*
X171016443Y-54263534D01*
X171067963Y-54433373D01*
X171085359Y-54610000D01*
X171067963Y-54786627D01*
X171033616Y-54899853D01*
X171016443Y-54956467D01*
X170942348Y-55095087D01*
X170932778Y-55112991D01*
X170903448Y-55148729D01*
X170820186Y-55250186D01*
X170718729Y-55333448D01*
X170682991Y-55362778D01*
X170682989Y-55362779D01*
X170526467Y-55446443D01*
X170469853Y-55463616D01*
X170356627Y-55497963D01*
X170290442Y-55504482D01*
X170224260Y-55511000D01*
X170135740Y-55511000D01*
X170069558Y-55504482D01*
X170003373Y-55497963D01*
X169890147Y-55463616D01*
X169833533Y-55446443D01*
X169677011Y-55362779D01*
X169677009Y-55362778D01*
X169641271Y-55333448D01*
X169539814Y-55250186D01*
X169456552Y-55148729D01*
X169427222Y-55112991D01*
X169417652Y-55095087D01*
X169343557Y-54956467D01*
X169326384Y-54899853D01*
X169292037Y-54786627D01*
X169274641Y-54610000D01*
X169292037Y-54433373D01*
X169343557Y-54263534D01*
X169343557Y-54263533D01*
X169427221Y-54107011D01*
X169427222Y-54107009D01*
X169456552Y-54071271D01*
X169539814Y-53969814D01*
X169646231Y-53882481D01*
X169677009Y-53857222D01*
X169694913Y-53847652D01*
X169833533Y-53773557D01*
X169890147Y-53756384D01*
X170003373Y-53722037D01*
X170069558Y-53715518D01*
X170135740Y-53709000D01*
X170224260Y-53709000D01*
X170290442Y-53715518D01*
X170290442Y-53715518D01*
G37*
G36*
X163348228Y-52521703D02*
X163503100Y-52585853D01*
X163642481Y-52678985D01*
X163761015Y-52797519D01*
X163854147Y-52936900D01*
X163918297Y-53091772D01*
X163951000Y-53256184D01*
X163951000Y-53423816D01*
X163918297Y-53588228D01*
X163854147Y-53743100D01*
X163761015Y-53882481D01*
X163642481Y-54001015D01*
X163503100Y-54094147D01*
X163348228Y-54158297D01*
X163183816Y-54191000D01*
X163016184Y-54191000D01*
X162851772Y-54158297D01*
X162696900Y-54094147D01*
X162557519Y-54001015D01*
X162438985Y-53882481D01*
X162345853Y-53743100D01*
X162281703Y-53588228D01*
X162249000Y-53423816D01*
X162249000Y-53256184D01*
X162281703Y-53091772D01*
X162345853Y-52936900D01*
X162438985Y-52797519D01*
X162557519Y-52678985D01*
X162696900Y-52585853D01*
X162851772Y-52521703D01*
X163016184Y-52489000D01*
X163183816Y-52489000D01*
X163348228Y-52521703D01*
X163348228Y-52521703D01*
G37*
G36*
X165951000Y-54191000D02*
X164249000Y-54191000D01*
X164249000Y-52489000D01*
X165951000Y-52489000D01*
X165951000Y-54191000D01*
X165951000Y-54191000D01*
G37*
M02*
