G04 #@! TF.GenerationSoftware,KiCad,Pcbnew,(5.0.2)-1*
G04 #@! TF.CreationDate,2019-02-12T19:40:29-07:00*
G04 #@! TF.ProjectId,Controller,436f6e74-726f-46c6-9c65-722e6b696361,rev?*
G04 #@! TF.SameCoordinates,Original*
G04 #@! TF.FileFunction,Copper,L2,Bot*
G04 #@! TF.FilePolarity,Positive*
%FSLAX46Y46*%
G04 Gerber Fmt 4.6, Leading zero omitted, Abs format (unit mm)*
G04 Created by KiCad (PCBNEW (5.0.2)-1) date 2/12/2019 7:40:29 PM*
%MOMM*%
%LPD*%
G01*
G04 APERTURE LIST*
G04 #@! TA.AperFunction,ComponentPad*
%ADD10C,1.778000*%
G04 #@! TD*
G04 #@! TA.AperFunction,ComponentPad*
%ADD11C,2.286000*%
G04 #@! TD*
G04 #@! TA.AperFunction,ComponentPad*
%ADD12C,1.600000*%
G04 #@! TD*
G04 #@! TA.AperFunction,ComponentPad*
%ADD13O,1.600000X1.600000*%
G04 #@! TD*
G04 #@! TA.AperFunction,ComponentPad*
%ADD14R,1.600000X1.600000*%
G04 #@! TD*
G04 #@! TA.AperFunction,ComponentPad*
%ADD15R,1.800000X1.800000*%
G04 #@! TD*
G04 #@! TA.AperFunction,ComponentPad*
%ADD16C,1.800000*%
G04 #@! TD*
G04 #@! TA.AperFunction,ComponentPad*
%ADD17R,1.700000X1.700000*%
G04 #@! TD*
G04 #@! TA.AperFunction,ComponentPad*
%ADD18O,1.700000X1.700000*%
G04 #@! TD*
G04 #@! TA.AperFunction,ComponentPad*
%ADD19C,2.000000*%
G04 #@! TD*
G04 #@! TA.AperFunction,ComponentPad*
%ADD20O,1.905000X2.000000*%
G04 #@! TD*
G04 #@! TA.AperFunction,ComponentPad*
%ADD21R,1.905000X2.000000*%
G04 #@! TD*
G04 #@! TA.AperFunction,ComponentPad*
%ADD22R,1.750000X1.750000*%
G04 #@! TD*
G04 #@! TA.AperFunction,ComponentPad*
%ADD23C,1.750000*%
G04 #@! TD*
G04 #@! TA.AperFunction,ComponentPad*
%ADD24C,2.700000*%
G04 #@! TD*
G04 #@! TA.AperFunction,WasherPad*
%ADD25C,4.000000*%
G04 #@! TD*
G04 #@! TA.AperFunction,ComponentPad*
%ADD26C,1.524000*%
G04 #@! TD*
G04 #@! TA.AperFunction,ComponentPad*
%ADD27R,1.524000X1.524000*%
G04 #@! TD*
G04 #@! TA.AperFunction,ComponentPad*
%ADD28C,1.500000*%
G04 #@! TD*
G04 #@! TA.AperFunction,ViaPad*
%ADD29C,6.500000*%
G04 #@! TD*
G04 #@! TA.AperFunction,ViaPad*
%ADD30C,0.800000*%
G04 #@! TD*
G04 #@! TA.AperFunction,Conductor*
%ADD31C,0.250000*%
G04 #@! TD*
G04 #@! TA.AperFunction,Conductor*
%ADD32C,0.500000*%
G04 #@! TD*
G04 #@! TA.AperFunction,Conductor*
%ADD33C,0.254000*%
G04 #@! TD*
G04 APERTURE END LIST*
D10*
G04 #@! TO.P,U6,B1A*
G04 #@! TO.N,5V*
X202565000Y-82550000D03*
G04 #@! TO.P,U6,B1B*
G04 #@! TO.N,N/C*
X208915000Y-82550000D03*
G04 #@! TO.P,U6,B2A*
G04 #@! TO.N,D5*
X202565000Y-87630000D03*
G04 #@! TO.P,U6,B2B*
G04 #@! TO.N,N/C*
X208915000Y-87630000D03*
G04 #@! TO.P,U6,H1*
G04 #@! TO.N,5V*
X203200000Y-105410000D03*
G04 #@! TO.P,U6,H2*
G04 #@! TO.N,A5*
X205740000Y-105410000D03*
G04 #@! TO.P,U6,H3*
G04 #@! TO.N,GND*
X208280000Y-105410000D03*
D11*
G04 #@! TO.P,U6,MOUN*
G04 #@! TO.N,N/C*
X198120000Y-88582500D03*
X198120000Y-101917500D03*
X213360000Y-101917500D03*
X213360000Y-88582500D03*
D10*
G04 #@! TO.P,U6,V1*
G04 #@! TO.N,5V*
X195580000Y-92710000D03*
G04 #@! TO.P,U6,V2*
G04 #@! TO.N,A4*
X195580000Y-95250000D03*
G04 #@! TO.P,U6,V3*
G04 #@! TO.N,GND*
X195580000Y-97790000D03*
G04 #@! TD*
G04 #@! TO.P,U5,B1A*
G04 #@! TO.N,5V*
X136525000Y-82550000D03*
G04 #@! TO.P,U5,B1B*
G04 #@! TO.N,N/C*
X142875000Y-82550000D03*
G04 #@! TO.P,U5,B2A*
G04 #@! TO.N,D3*
X136525000Y-87630000D03*
G04 #@! TO.P,U5,B2B*
G04 #@! TO.N,N/C*
X142875000Y-87630000D03*
G04 #@! TO.P,U5,H1*
G04 #@! TO.N,5V*
X137160000Y-105410000D03*
G04 #@! TO.P,U5,H2*
G04 #@! TO.N,A3*
X139700000Y-105410000D03*
G04 #@! TO.P,U5,H3*
G04 #@! TO.N,GND*
X142240000Y-105410000D03*
D11*
G04 #@! TO.P,U5,MOUN*
G04 #@! TO.N,N/C*
X132080000Y-88582500D03*
X132080000Y-101917500D03*
X147320000Y-101917500D03*
X147320000Y-88582500D03*
D10*
G04 #@! TO.P,U5,V1*
G04 #@! TO.N,5V*
X129540000Y-92710000D03*
G04 #@! TO.P,U5,V2*
G04 #@! TO.N,A2*
X129540000Y-95250000D03*
G04 #@! TO.P,U5,V3*
G04 #@! TO.N,GND*
X129540000Y-97790000D03*
G04 #@! TD*
D12*
G04 #@! TO.P,C7,1*
G04 #@! TO.N,XTAL2*
X143510000Y-118745000D03*
D13*
G04 #@! TO.P,C7,2*
G04 #@! TO.N,GND*
X136010000Y-118745000D03*
G04 #@! TD*
D12*
G04 #@! TO.P,R14,1*
G04 #@! TO.N,D3*
X147955000Y-80010000D03*
D13*
G04 #@! TO.P,R14,2*
G04 #@! TO.N,GND*
X155575000Y-80010000D03*
G04 #@! TD*
D14*
G04 #@! TO.P,C1,1*
G04 #@! TO.N,5V*
X165100000Y-67310000D03*
D12*
G04 #@! TO.P,C1,2*
G04 #@! TO.N,GND*
X163100000Y-67310000D03*
G04 #@! TD*
G04 #@! TO.P,C2,2*
G04 #@! TO.N,GND*
X163100000Y-53340000D03*
D14*
G04 #@! TO.P,C2,1*
G04 #@! TO.N,3V3*
X165100000Y-53340000D03*
G04 #@! TD*
D12*
G04 #@! TO.P,C3,1*
G04 #@! TO.N,5V*
X157480000Y-72390000D03*
D13*
G04 #@! TO.P,C3,2*
G04 #@! TO.N,GND*
X157480000Y-64890000D03*
G04 #@! TD*
D12*
G04 #@! TO.P,C4,1*
G04 #@! TO.N,3V3*
X175260000Y-93980000D03*
D13*
G04 #@! TO.P,C4,2*
G04 #@! TO.N,GND*
X175260000Y-86480000D03*
G04 #@! TD*
G04 #@! TO.P,C5,2*
G04 #@! TO.N,RST*
X170180000Y-86480000D03*
D12*
G04 #@! TO.P,C5,1*
G04 #@! TO.N,DTR*
X170180000Y-93980000D03*
G04 #@! TD*
G04 #@! TO.P,C6,1*
G04 #@! TO.N,XTAL1*
X144145000Y-114935000D03*
D13*
G04 #@! TO.P,C6,2*
G04 #@! TO.N,GND*
X136645000Y-114935000D03*
G04 #@! TD*
D15*
G04 #@! TO.P,D1,1*
G04 #@! TO.N,Net-(D1-Pad1)*
X198120000Y-77470000D03*
D16*
G04 #@! TO.P,D1,2*
G04 #@! TO.N,RF1*
X200660000Y-77470000D03*
G04 #@! TD*
G04 #@! TO.P,D2,2*
G04 #@! TO.N,RF2*
X138430000Y-66040000D03*
D15*
G04 #@! TO.P,D2,1*
G04 #@! TO.N,Net-(D2-Pad1)*
X135890000Y-66040000D03*
G04 #@! TD*
G04 #@! TO.P,D3,1*
G04 #@! TO.N,Net-(D3-Pad1)*
X198120000Y-69850000D03*
D16*
G04 #@! TO.P,D3,2*
G04 #@! TO.N,3V3*
X200660000Y-69850000D03*
G04 #@! TD*
G04 #@! TO.P,D4,2*
G04 #@! TO.N,5V*
X133350000Y-66040000D03*
D15*
G04 #@! TO.P,D4,1*
G04 #@! TO.N,Net-(D4-Pad1)*
X130810000Y-66040000D03*
G04 #@! TD*
G04 #@! TO.P,D5,1*
G04 #@! TO.N,Net-(D5-Pad1)*
X169545000Y-102870000D03*
D16*
G04 #@! TO.P,D5,2*
G04 #@! TO.N,TX*
X172085000Y-102870000D03*
G04 #@! TD*
D15*
G04 #@! TO.P,D6,1*
G04 #@! TO.N,Net-(D6-Pad1)*
X169545000Y-98298000D03*
D16*
G04 #@! TO.P,D6,2*
G04 #@! TO.N,RX*
X172085000Y-98298000D03*
G04 #@! TD*
G04 #@! TO.P,D7,2*
G04 #@! TO.N,D13*
X200660000Y-111760000D03*
D15*
G04 #@! TO.P,D7,1*
G04 #@! TO.N,Net-(D7-Pad1)*
X198120000Y-111760000D03*
G04 #@! TD*
G04 #@! TO.P,D8,1*
G04 #@! TO.N,Net-(D8-Pad1)*
X146050000Y-121920000D03*
D16*
G04 #@! TO.P,D8,2*
G04 #@! TO.N,D6*
X148590000Y-121920000D03*
G04 #@! TD*
G04 #@! TO.P,D9,2*
G04 #@! TO.N,D9*
X198120000Y-122555000D03*
D15*
G04 #@! TO.P,D9,1*
G04 #@! TO.N,Net-(D9-Pad1)*
X200660000Y-122555000D03*
G04 #@! TD*
D16*
G04 #@! TO.P,D10,2*
G04 #@! TO.N,D10*
X198120000Y-116840000D03*
D15*
G04 #@! TO.P,D10,1*
G04 #@! TO.N,Net-(D10-Pad1)*
X200660000Y-116840000D03*
G04 #@! TD*
D17*
G04 #@! TO.P,J1,1*
G04 #@! TO.N,GND*
X215265000Y-109220000D03*
D18*
G04 #@! TO.P,J1,2*
G04 #@! TO.N,Net-(J1-Pad2)*
X215265000Y-111760000D03*
G04 #@! TO.P,J1,3*
G04 #@! TO.N,VCC*
X215265000Y-114300000D03*
G04 #@! TO.P,J1,4*
G04 #@! TO.N,RX*
X215265000Y-116840000D03*
G04 #@! TO.P,J1,5*
G04 #@! TO.N,TX*
X215265000Y-119380000D03*
G04 #@! TO.P,J1,6*
G04 #@! TO.N,DTR*
X215265000Y-121920000D03*
G04 #@! TD*
D17*
G04 #@! TO.P,J2,1*
G04 #@! TO.N,BATT*
X171450000Y-60960000D03*
D18*
G04 #@! TO.P,J2,2*
G04 #@! TO.N,GND*
X173990000Y-60960000D03*
G04 #@! TD*
D12*
G04 #@! TO.P,R1,1*
G04 #@! TO.N,Net-(D1-Pad1)*
X176530000Y-83820000D03*
D13*
G04 #@! TO.P,R1,2*
G04 #@! TO.N,GND*
X176530000Y-76200000D03*
G04 #@! TD*
G04 #@! TO.P,R2,2*
G04 #@! TO.N,GND*
X135890000Y-52070000D03*
D12*
G04 #@! TO.P,R2,1*
G04 #@! TO.N,Net-(D2-Pad1)*
X135890000Y-59690000D03*
G04 #@! TD*
G04 #@! TO.P,R3,1*
G04 #@! TO.N,Net-(D3-Pad1)*
X198120000Y-64770000D03*
D13*
G04 #@! TO.P,R3,2*
G04 #@! TO.N,GND*
X198120000Y-57150000D03*
G04 #@! TD*
G04 #@! TO.P,R4,2*
G04 #@! TO.N,GND*
X130810000Y-52070000D03*
D12*
G04 #@! TO.P,R4,1*
G04 #@! TO.N,Net-(D4-Pad1)*
X130810000Y-59690000D03*
G04 #@! TD*
G04 #@! TO.P,R5,1*
G04 #@! TO.N,Net-(D5-Pad1)*
X166370000Y-102870000D03*
D13*
G04 #@! TO.P,R5,2*
G04 #@! TO.N,GND*
X166370000Y-110490000D03*
G04 #@! TD*
G04 #@! TO.P,R6,2*
G04 #@! TO.N,GND*
X166370000Y-92710000D03*
D12*
G04 #@! TO.P,R6,1*
G04 #@! TO.N,Net-(D6-Pad1)*
X166370000Y-100330000D03*
G04 #@! TD*
G04 #@! TO.P,R7,1*
G04 #@! TO.N,Net-(D7-Pad1)*
X210820000Y-111760000D03*
D13*
G04 #@! TO.P,R7,2*
G04 #@! TO.N,GND*
X203200000Y-111760000D03*
G04 #@! TD*
D12*
G04 #@! TO.P,R8,1*
G04 #@! TO.N,Net-(D8-Pad1)*
X142875000Y-122555000D03*
D13*
G04 #@! TO.P,R8,2*
G04 #@! TO.N,GND*
X135255000Y-122555000D03*
G04 #@! TD*
D12*
G04 #@! TO.P,R9,1*
G04 #@! TO.N,Net-(D9-Pad1)*
X203200000Y-121920000D03*
D13*
G04 #@! TO.P,R9,2*
G04 #@! TO.N,GND*
X210820000Y-121920000D03*
G04 #@! TD*
G04 #@! TO.P,R10,2*
G04 #@! TO.N,GND*
X210820000Y-116840000D03*
D12*
G04 #@! TO.P,R10,1*
G04 #@! TO.N,Net-(D10-Pad1)*
X203200000Y-116840000D03*
G04 #@! TD*
G04 #@! TO.P,R11,1*
G04 #@! TO.N,D2*
X144145000Y-111125000D03*
D13*
G04 #@! TO.P,R11,2*
G04 #@! TO.N,GND*
X136525000Y-111125000D03*
G04 #@! TD*
G04 #@! TO.P,R12,2*
G04 #@! TO.N,GND*
X172720000Y-76200000D03*
D12*
G04 #@! TO.P,R12,1*
G04 #@! TO.N,D4*
X172720000Y-83820000D03*
G04 #@! TD*
G04 #@! TO.P,R13,1*
G04 #@! TO.N,RST*
X168275000Y-83820000D03*
D13*
G04 #@! TO.P,R13,2*
G04 #@! TO.N,5V*
X168275000Y-76200000D03*
G04 #@! TD*
D12*
G04 #@! TO.P,R15,1*
G04 #@! TO.N,D5*
X193040000Y-121920000D03*
D13*
G04 #@! TO.P,R15,2*
G04 #@! TO.N,GND*
X193040000Y-114300000D03*
G04 #@! TD*
D19*
G04 #@! TO.P,SW1,2*
G04 #@! TO.N,D4*
X169545000Y-121340000D03*
G04 #@! TO.P,SW1,1*
G04 #@! TO.N,5V*
X169545000Y-116840000D03*
G04 #@! TO.P,SW1,2*
G04 #@! TO.N,D4*
X176045000Y-121340000D03*
G04 #@! TO.P,SW1,1*
G04 #@! TO.N,5V*
X176045000Y-116840000D03*
G04 #@! TD*
G04 #@! TO.P,SW2,1*
G04 #@! TO.N,5V*
X130810000Y-70970000D03*
G04 #@! TO.P,SW2,2*
G04 #@! TO.N,D2*
X135310000Y-70970000D03*
G04 #@! TO.P,SW2,1*
G04 #@! TO.N,5V*
X130810000Y-77470000D03*
G04 #@! TO.P,SW2,2*
G04 #@! TO.N,D2*
X135310000Y-77470000D03*
G04 #@! TD*
D18*
G04 #@! TO.P,SW3,3*
G04 #@! TO.N,BATT*
X170180000Y-54610000D03*
G04 #@! TO.P,SW3,2*
G04 #@! TO.N,+BATT*
X172720000Y-54610000D03*
D17*
G04 #@! TO.P,SW3,1*
G04 #@! TO.N,Net-(SW3-Pad1)*
X175260000Y-54610000D03*
G04 #@! TD*
G04 #@! TO.P,SW4,1*
G04 #@! TO.N,Net-(SW4-Pad1)*
X170180000Y-71120000D03*
D18*
G04 #@! TO.P,SW4,2*
G04 #@! TO.N,3V3*
X172720000Y-71120000D03*
G04 #@! TO.P,SW4,3*
G04 #@! TO.N,RF1*
X175260000Y-71120000D03*
G04 #@! TD*
D20*
G04 #@! TO.P,U1,3*
G04 #@! TO.N,5V*
X158750000Y-59690000D03*
G04 #@! TO.P,U1,2*
G04 #@! TO.N,GND*
X156210000Y-59690000D03*
D21*
G04 #@! TO.P,U1,1*
G04 #@! TO.N,BATT*
X153670000Y-59690000D03*
G04 #@! TD*
G04 #@! TO.P,U2,1*
G04 #@! TO.N,BATT*
X186690000Y-59690000D03*
D20*
G04 #@! TO.P,U2,2*
G04 #@! TO.N,GND*
X189230000Y-59690000D03*
G04 #@! TO.P,U2,3*
G04 #@! TO.N,3V3*
X191770000Y-59690000D03*
G04 #@! TD*
D22*
G04 #@! TO.P,U3,1*
G04 #@! TO.N,5V*
X185420000Y-64770000D03*
D23*
G04 #@! TO.P,U3,2*
G04 #@! TO.N,A0*
X181920000Y-64770000D03*
G04 #@! TO.P,U3,3*
G04 #@! TO.N,GND*
X185420000Y-123270000D03*
D24*
G04 #@! TO.P,U3,MP*
G04 #@! TO.N,N/C*
X187870000Y-70120000D03*
X187870000Y-117920000D03*
X179470000Y-68920000D03*
X179470000Y-119120000D03*
G04 #@! TD*
D16*
G04 #@! TO.P,U4,3*
G04 #@! TO.N,GND*
X144860000Y-74930000D03*
G04 #@! TO.P,U4,2*
G04 #@! TO.N,A1*
X147360000Y-74930000D03*
G04 #@! TO.P,U4,1*
G04 #@! TO.N,5V*
X149860000Y-74930000D03*
D25*
G04 #@! TO.P,U4,*
G04 #@! TO.N,*
X142960000Y-67930000D03*
X151760000Y-67930000D03*
G04 #@! TD*
D14*
G04 #@! TO.P,U7,1*
G04 #@! TO.N,RST*
X155575000Y-90170000D03*
D13*
G04 #@! TO.P,U7,15*
G04 #@! TO.N,D9*
X163195000Y-123190000D03*
G04 #@! TO.P,U7,2*
G04 #@! TO.N,RX*
X155575000Y-92710000D03*
G04 #@! TO.P,U7,16*
G04 #@! TO.N,D10*
X163195000Y-120650000D03*
G04 #@! TO.P,U7,3*
G04 #@! TO.N,TX*
X155575000Y-95250000D03*
G04 #@! TO.P,U7,17*
G04 #@! TO.N,D11*
X163195000Y-118110000D03*
G04 #@! TO.P,U7,4*
G04 #@! TO.N,D2*
X155575000Y-97790000D03*
G04 #@! TO.P,U7,18*
G04 #@! TO.N,D12*
X163195000Y-115570000D03*
G04 #@! TO.P,U7,5*
G04 #@! TO.N,D3*
X155575000Y-100330000D03*
G04 #@! TO.P,U7,19*
G04 #@! TO.N,D13*
X163195000Y-113030000D03*
G04 #@! TO.P,U7,6*
G04 #@! TO.N,D4*
X155575000Y-102870000D03*
G04 #@! TO.P,U7,20*
G04 #@! TO.N,AVCC*
X163195000Y-110490000D03*
G04 #@! TO.P,U7,7*
G04 #@! TO.N,5V*
X155575000Y-105410000D03*
G04 #@! TO.P,U7,21*
G04 #@! TO.N,AREF*
X163195000Y-107950000D03*
G04 #@! TO.P,U7,8*
G04 #@! TO.N,GND*
X155575000Y-107950000D03*
G04 #@! TO.P,U7,22*
X163195000Y-105410000D03*
G04 #@! TO.P,U7,9*
G04 #@! TO.N,XTAL1*
X155575000Y-110490000D03*
G04 #@! TO.P,U7,23*
G04 #@! TO.N,A0*
X163195000Y-102870000D03*
G04 #@! TO.P,U7,10*
G04 #@! TO.N,XTAL2*
X155575000Y-113030000D03*
G04 #@! TO.P,U7,24*
G04 #@! TO.N,A1*
X163195000Y-100330000D03*
G04 #@! TO.P,U7,11*
G04 #@! TO.N,D5*
X155575000Y-115570000D03*
G04 #@! TO.P,U7,25*
G04 #@! TO.N,A2*
X163195000Y-97790000D03*
G04 #@! TO.P,U7,12*
G04 #@! TO.N,D6*
X155575000Y-118110000D03*
G04 #@! TO.P,U7,26*
G04 #@! TO.N,A3*
X163195000Y-95250000D03*
G04 #@! TO.P,U7,13*
G04 #@! TO.N,D7*
X155575000Y-120650000D03*
G04 #@! TO.P,U7,27*
G04 #@! TO.N,A4*
X163195000Y-92710000D03*
G04 #@! TO.P,U7,14*
G04 #@! TO.N,D8*
X155575000Y-123190000D03*
G04 #@! TO.P,U7,28*
G04 #@! TO.N,A5*
X163195000Y-90170000D03*
G04 #@! TD*
D26*
G04 #@! TO.P,U24L1,8*
G04 #@! TO.N,D8*
X212090000Y-74930000D03*
G04 #@! TO.P,U24L1,7*
G04 #@! TO.N,D12*
X212090000Y-77470000D03*
G04 #@! TO.P,U24L1,6*
G04 #@! TO.N,D11*
X209550000Y-74930000D03*
G04 #@! TO.P,U24L1,5*
G04 #@! TO.N,D13*
X209550000Y-77470000D03*
G04 #@! TO.P,U24L1,4*
G04 #@! TO.N,Net-(U24L1-Pad4)*
X207010000Y-74930000D03*
G04 #@! TO.P,U24L1,3*
G04 #@! TO.N,D7*
X207010000Y-77470000D03*
G04 #@! TO.P,U24L1,2*
G04 #@! TO.N,RF1*
X204470000Y-74930000D03*
D27*
G04 #@! TO.P,U24L1,1*
G04 #@! TO.N,GND*
X204470000Y-77470000D03*
G04 #@! TD*
D28*
G04 #@! TO.P,Y1,1*
G04 #@! TO.N,XTAL1*
X150495000Y-110490000D03*
G04 #@! TO.P,Y1,2*
G04 #@! TO.N,XTAL2*
X150495000Y-115370000D03*
G04 #@! TD*
D29*
G04 #@! TO.N,*
X189865000Y-52070000D03*
X193040000Y-107950000D03*
X131445000Y-115570000D03*
X149225000Y-52070000D03*
D30*
G04 #@! TO.N,GND*
X166370000Y-87630000D03*
G04 #@! TO.N,D13*
X168275000Y-113030000D03*
G04 #@! TO.N,A0*
X189865000Y-80645000D03*
G04 #@! TD*
D31*
G04 #@! TO.N,GND*
X200660000Y-114300000D02*
X193040000Y-114300000D01*
X203200000Y-111760000D02*
X200660000Y-114300000D01*
G04 #@! TO.N,Net-(D3-Pad1)*
X198120000Y-69850000D02*
X198120000Y-64770000D01*
G04 #@! TO.N,Net-(D5-Pad1)*
X166370000Y-102870000D02*
X169545000Y-102870000D01*
G04 #@! TO.N,RX*
X211455000Y-113030000D02*
X215265000Y-116840000D01*
X208915000Y-113030000D02*
X211455000Y-113030000D01*
X199359979Y-103474979D02*
X208915000Y-113030000D01*
X177195021Y-103474979D02*
X199359979Y-103474979D01*
X177165000Y-103505000D02*
X177195021Y-103474979D01*
X172085000Y-98425000D02*
X177165000Y-103505000D01*
G04 #@! TO.N,Net-(D6-Pad1)*
X168275000Y-98425000D02*
X169545000Y-98425000D01*
X166370000Y-100330000D02*
X168275000Y-98425000D01*
G04 #@! TO.N,D13*
X199390000Y-113030000D02*
X200660000Y-111760000D01*
X168275000Y-113030000D02*
X199390000Y-113030000D01*
G04 #@! TO.N,D9*
X163994999Y-123989999D02*
X163195000Y-123190000D01*
X164925010Y-124920010D02*
X163994999Y-123989999D01*
X191704992Y-124920010D02*
X164925010Y-124920010D01*
X194070002Y-122555000D02*
X191704992Y-124920010D01*
X198120000Y-122555000D02*
X194070002Y-122555000D01*
G04 #@! TO.N,D10*
X163994999Y-121449999D02*
X163195000Y-120650000D01*
X165210001Y-122665001D02*
X163994999Y-121449999D01*
X176681001Y-122665001D02*
X165210001Y-122665001D01*
X177276003Y-122069999D02*
X176681001Y-122665001D01*
X191224999Y-122069999D02*
X177276003Y-122069999D01*
X196454998Y-116840000D02*
X191224999Y-122069999D01*
X198120000Y-116840000D02*
X196454998Y-116840000D01*
D32*
G04 #@! TO.N,BATT*
X153670000Y-59642500D02*
X153670000Y-59690000D01*
X157852501Y-55459999D02*
X153670000Y-59642500D01*
X169330001Y-55459999D02*
X157852501Y-55459999D01*
X170180000Y-54610000D02*
X169330001Y-55459999D01*
X170180000Y-59690000D02*
X171450000Y-60960000D01*
X170180000Y-54610000D02*
X170180000Y-59690000D01*
X170180000Y-55812081D02*
X172787919Y-58420000D01*
X170180000Y-54610000D02*
X170180000Y-55812081D01*
X183967500Y-58420000D02*
X185237500Y-59690000D01*
X172787919Y-58420000D02*
X183967500Y-58420000D01*
X185237500Y-59690000D02*
X186690000Y-59690000D01*
D31*
G04 #@! TO.N,D2*
X135310000Y-72384213D02*
X135310000Y-77470000D01*
X135310000Y-70970000D02*
X135310000Y-72384213D01*
X136309999Y-78469999D02*
X135310000Y-77470000D01*
X144089001Y-86249001D02*
X136309999Y-78469999D01*
X144089001Y-87435371D02*
X144089001Y-86249001D01*
X154443630Y-97790000D02*
X144089001Y-87435371D01*
X155575000Y-97790000D02*
X154443630Y-97790000D01*
G04 #@! TO.N,D4*
X174630787Y-121340000D02*
X169545000Y-121340000D01*
X176045000Y-121340000D02*
X174630787Y-121340000D01*
X162654999Y-114155001D02*
X158750000Y-110250002D01*
X163774214Y-114155001D02*
X162654999Y-114155001D01*
X169545000Y-121340000D02*
X169545000Y-119925787D01*
X169545000Y-119925787D02*
X163774214Y-114155001D01*
X158750000Y-106045000D02*
X155575000Y-102870000D01*
X158750000Y-110250002D02*
X158750000Y-106045000D01*
X171594999Y-82694999D02*
X171920001Y-83020001D01*
X167734999Y-82694999D02*
X171594999Y-82694999D01*
X161619990Y-88810008D02*
X167734999Y-82694999D01*
X161619990Y-97879992D02*
X161619990Y-88810008D01*
X162944997Y-99204999D02*
X161619990Y-97879992D01*
X163735001Y-99204999D02*
X162944997Y-99204999D01*
X164320001Y-99789999D02*
X163735001Y-99204999D01*
X164320001Y-100870001D02*
X164320001Y-99789999D01*
X163735001Y-101455001D02*
X164320001Y-100870001D01*
X156989999Y-101455001D02*
X163735001Y-101455001D01*
X171920001Y-83020001D02*
X172720000Y-83820000D01*
X155575000Y-102870000D02*
X156989999Y-101455001D01*
G04 #@! TO.N,D3*
X155324997Y-96664999D02*
X156989999Y-96664999D01*
X153670000Y-95010002D02*
X155324997Y-96664999D01*
X153670000Y-86856370D02*
X153670000Y-95010002D01*
X147955000Y-80010000D02*
X147955000Y-81141370D01*
X147955000Y-81141370D02*
X153670000Y-86856370D01*
X156989999Y-96664999D02*
X157480000Y-97155000D01*
X157480000Y-98425000D02*
X155575000Y-100330000D01*
X157480000Y-97155000D02*
X157480000Y-98425000D01*
G04 #@! TO.N,D5*
X156374999Y-116369999D02*
X155575000Y-115570000D01*
X161780001Y-121775001D02*
X156374999Y-116369999D01*
X163683591Y-121775001D02*
X161780001Y-121775001D01*
X166378591Y-124470001D02*
X163683591Y-121775001D01*
X190489999Y-124470001D02*
X166378591Y-124470001D01*
X193040000Y-121920000D02*
X190489999Y-124470001D01*
G04 #@! TO.N,A0*
X181920000Y-72700000D02*
X181920000Y-64770000D01*
X189865000Y-80645000D02*
X181920000Y-72700000D01*
G04 #@! TO.N,A1*
X148788001Y-76358001D02*
X148788001Y-76398001D01*
X147360000Y-74930000D02*
X148788001Y-76358001D01*
X148788001Y-76398001D02*
X160020000Y-87630000D01*
X160020000Y-97155000D02*
X163195000Y-100330000D01*
X160020000Y-87630000D02*
X160020000Y-97155000D01*
G04 #@! TO.N,TX*
X173355000Y-104140000D02*
X172085000Y-102870000D01*
X208464991Y-113480009D02*
X199124982Y-104140000D01*
X209365010Y-113480010D02*
X208464991Y-113480009D01*
X215265000Y-119380000D02*
X209365010Y-113480010D01*
X199124982Y-104140000D02*
X197486410Y-104140000D01*
X197271399Y-103924989D02*
X190080011Y-103924989D01*
X197486410Y-104140000D02*
X197271399Y-103924989D01*
X189865000Y-104140000D02*
X173355000Y-104140000D01*
X190080011Y-103924989D02*
X189865000Y-104140000D01*
G04 #@! TO.N,DTR*
X170180000Y-95111370D02*
X170180000Y-93980000D01*
X172176998Y-104775000D02*
X170770001Y-103368003D01*
X190500000Y-104775000D02*
X172176998Y-104775000D01*
X197485000Y-104775000D02*
X197084999Y-104374999D01*
X215265000Y-121920000D02*
X214089999Y-120744999D01*
X190900001Y-104374999D02*
X190500000Y-104775000D01*
X214089999Y-120744999D02*
X213059997Y-120744999D01*
X213059997Y-120744999D02*
X207010000Y-114695002D01*
X170770001Y-103368003D02*
X170770001Y-95701371D01*
X207010000Y-114695002D02*
X207010000Y-113030000D01*
X197084999Y-104374999D02*
X190900001Y-104374999D01*
X207010000Y-113030000D02*
X198755000Y-104775000D01*
X170770001Y-95701371D02*
X170180000Y-95111370D01*
X198755000Y-104775000D02*
X197485000Y-104775000D01*
G04 #@! TO.N,A4*
X195580000Y-95250000D02*
X173990000Y-95250000D01*
X162395001Y-91910001D02*
X163195000Y-92710000D01*
X162069999Y-91584999D02*
X162395001Y-91910001D01*
X162069999Y-89629999D02*
X162069999Y-91584999D01*
X162654999Y-89044999D02*
X162069999Y-89629999D01*
X167784999Y-89044999D02*
X162654999Y-89044999D01*
X173990000Y-95250000D02*
X167784999Y-89044999D01*
G04 #@! TO.N,A5*
X164326370Y-90170000D02*
X163195000Y-90170000D01*
X168035002Y-90170000D02*
X164326370Y-90170000D01*
X178314501Y-100449499D02*
X168035002Y-90170000D01*
X200779499Y-100449499D02*
X178314501Y-100449499D01*
X205740000Y-105410000D02*
X200779499Y-100449499D01*
G04 #@! TD*
D33*
G04 #@! TO.N,GND*
G36*
X145931456Y-49869324D02*
X145340000Y-51297225D01*
X145340000Y-52842775D01*
X145931456Y-54270676D01*
X147024324Y-55363544D01*
X148452225Y-55955000D01*
X149997775Y-55955000D01*
X151425676Y-55363544D01*
X152518544Y-54270676D01*
X152993834Y-53123223D01*
X161653035Y-53123223D01*
X161680222Y-53693454D01*
X161846136Y-54094005D01*
X162092255Y-54168139D01*
X162920395Y-53340000D01*
X162092255Y-52511861D01*
X161846136Y-52585995D01*
X161653035Y-53123223D01*
X152993834Y-53123223D01*
X153110000Y-52842775D01*
X153110000Y-51297225D01*
X152518544Y-49869324D01*
X151671220Y-49022000D01*
X187418780Y-49022000D01*
X186571456Y-49869324D01*
X185980000Y-51297225D01*
X185980000Y-52842775D01*
X186571456Y-54270676D01*
X187664324Y-55363544D01*
X189092225Y-55955000D01*
X190637775Y-55955000D01*
X192065676Y-55363544D01*
X193158544Y-54270676D01*
X193750000Y-52842775D01*
X193750000Y-51297225D01*
X193158544Y-49869324D01*
X192311220Y-49022000D01*
X217117394Y-49022000D01*
X217678000Y-49582606D01*
X217678000Y-123137394D01*
X215847394Y-124968000D01*
X192731803Y-124968000D01*
X194384804Y-123315000D01*
X196773331Y-123315000D01*
X196818690Y-123424507D01*
X197250493Y-123856310D01*
X197814670Y-124090000D01*
X198425330Y-124090000D01*
X198989507Y-123856310D01*
X199158725Y-123687092D01*
X199161843Y-123702765D01*
X199302191Y-123912809D01*
X199512235Y-124053157D01*
X199760000Y-124102440D01*
X201560000Y-124102440D01*
X201807765Y-124053157D01*
X202017809Y-123912809D01*
X202158157Y-123702765D01*
X202207440Y-123455000D01*
X202207440Y-122956836D01*
X202387138Y-123136534D01*
X202914561Y-123355000D01*
X203485439Y-123355000D01*
X204012862Y-123136534D01*
X204416534Y-122732862D01*
X204608655Y-122269039D01*
X209428096Y-122269039D01*
X209588959Y-122657423D01*
X209964866Y-123072389D01*
X210470959Y-123311914D01*
X210693000Y-123190629D01*
X210693000Y-122047000D01*
X210947000Y-122047000D01*
X210947000Y-123190629D01*
X211169041Y-123311914D01*
X211675134Y-123072389D01*
X212051041Y-122657423D01*
X212211904Y-122269039D01*
X212089915Y-122047000D01*
X210947000Y-122047000D01*
X210693000Y-122047000D01*
X209550085Y-122047000D01*
X209428096Y-122269039D01*
X204608655Y-122269039D01*
X204635000Y-122205439D01*
X204635000Y-121634561D01*
X204608656Y-121570961D01*
X209428096Y-121570961D01*
X209550085Y-121793000D01*
X210693000Y-121793000D01*
X210693000Y-120649371D01*
X210947000Y-120649371D01*
X210947000Y-121793000D01*
X212089915Y-121793000D01*
X212211904Y-121570961D01*
X212051041Y-121182577D01*
X211675134Y-120767611D01*
X211169041Y-120528086D01*
X210947000Y-120649371D01*
X210693000Y-120649371D01*
X210470959Y-120528086D01*
X209964866Y-120767611D01*
X209588959Y-121182577D01*
X209428096Y-121570961D01*
X204608656Y-121570961D01*
X204416534Y-121107138D01*
X204012862Y-120703466D01*
X203485439Y-120485000D01*
X202914561Y-120485000D01*
X202387138Y-120703466D01*
X201983466Y-121107138D01*
X201961695Y-121159697D01*
X201807765Y-121056843D01*
X201560000Y-121007560D01*
X199760000Y-121007560D01*
X199512235Y-121056843D01*
X199302191Y-121197191D01*
X199161843Y-121407235D01*
X199158725Y-121422908D01*
X198989507Y-121253690D01*
X198425330Y-121020000D01*
X197814670Y-121020000D01*
X197250493Y-121253690D01*
X196818690Y-121685493D01*
X196773331Y-121795000D01*
X194475000Y-121795000D01*
X194475000Y-121634561D01*
X194256534Y-121107138D01*
X193852862Y-120703466D01*
X193720966Y-120648833D01*
X196769800Y-117600000D01*
X196773331Y-117600000D01*
X196818690Y-117709507D01*
X197250493Y-118141310D01*
X197814670Y-118375000D01*
X198425330Y-118375000D01*
X198989507Y-118141310D01*
X199158725Y-117972092D01*
X199161843Y-117987765D01*
X199302191Y-118197809D01*
X199512235Y-118338157D01*
X199760000Y-118387440D01*
X201560000Y-118387440D01*
X201807765Y-118338157D01*
X202017809Y-118197809D01*
X202158157Y-117987765D01*
X202184738Y-117854134D01*
X202387138Y-118056534D01*
X202914561Y-118275000D01*
X203485439Y-118275000D01*
X204012862Y-118056534D01*
X204416534Y-117652862D01*
X204635000Y-117125439D01*
X204635000Y-116554561D01*
X204416534Y-116027138D01*
X204012862Y-115623466D01*
X203485439Y-115405000D01*
X202914561Y-115405000D01*
X202387138Y-115623466D01*
X202184738Y-115825866D01*
X202158157Y-115692235D01*
X202017809Y-115482191D01*
X201807765Y-115341843D01*
X201560000Y-115292560D01*
X199760000Y-115292560D01*
X199512235Y-115341843D01*
X199302191Y-115482191D01*
X199161843Y-115692235D01*
X199158725Y-115707908D01*
X198989507Y-115538690D01*
X198425330Y-115305000D01*
X197814670Y-115305000D01*
X197250493Y-115538690D01*
X196818690Y-115970493D01*
X196773331Y-116080000D01*
X196529846Y-116080000D01*
X196454998Y-116065112D01*
X196380150Y-116080000D01*
X196380146Y-116080000D01*
X196158461Y-116124096D01*
X195907069Y-116292071D01*
X195864669Y-116355527D01*
X190910198Y-121309999D01*
X177680000Y-121309999D01*
X177680000Y-121014778D01*
X177431086Y-120413847D01*
X176971153Y-119953914D01*
X176370222Y-119705000D01*
X175719778Y-119705000D01*
X175118847Y-119953914D01*
X174658914Y-120413847D01*
X174590091Y-120580000D01*
X170999909Y-120580000D01*
X170931086Y-120413847D01*
X170471153Y-119953914D01*
X170312403Y-119888158D01*
X170305000Y-119850939D01*
X170305000Y-119850935D01*
X170260904Y-119629250D01*
X170260904Y-119629249D01*
X170135329Y-119441314D01*
X170092929Y-119377858D01*
X170029473Y-119335458D01*
X169419174Y-118725159D01*
X177485000Y-118725159D01*
X177485000Y-119514841D01*
X177787199Y-120244412D01*
X178345588Y-120802801D01*
X179075159Y-121105000D01*
X179864841Y-121105000D01*
X180594412Y-120802801D01*
X181152801Y-120244412D01*
X181455000Y-119514841D01*
X181455000Y-118725159D01*
X181152801Y-117995588D01*
X180682372Y-117525159D01*
X185885000Y-117525159D01*
X185885000Y-118314841D01*
X186187199Y-119044412D01*
X186745588Y-119602801D01*
X187475159Y-119905000D01*
X188264841Y-119905000D01*
X188994412Y-119602801D01*
X189552801Y-119044412D01*
X189855000Y-118314841D01*
X189855000Y-117525159D01*
X189552801Y-116795588D01*
X188994412Y-116237199D01*
X188264841Y-115935000D01*
X187475159Y-115935000D01*
X186745588Y-116237199D01*
X186187199Y-116795588D01*
X185885000Y-117525159D01*
X180682372Y-117525159D01*
X180594412Y-117437199D01*
X179864841Y-117135000D01*
X179075159Y-117135000D01*
X178345588Y-117437199D01*
X177787199Y-117995588D01*
X177485000Y-118725159D01*
X169419174Y-118725159D01*
X169133120Y-118439105D01*
X169219778Y-118475000D01*
X169870222Y-118475000D01*
X170471153Y-118226086D01*
X170931086Y-117766153D01*
X171180000Y-117165222D01*
X171180000Y-116514778D01*
X174410000Y-116514778D01*
X174410000Y-117165222D01*
X174658914Y-117766153D01*
X175118847Y-118226086D01*
X175719778Y-118475000D01*
X176370222Y-118475000D01*
X176971153Y-118226086D01*
X177431086Y-117766153D01*
X177680000Y-117165222D01*
X177680000Y-116514778D01*
X177431086Y-115913847D01*
X176971153Y-115453914D01*
X176370222Y-115205000D01*
X175719778Y-115205000D01*
X175118847Y-115453914D01*
X174658914Y-115913847D01*
X174410000Y-116514778D01*
X171180000Y-116514778D01*
X170931086Y-115913847D01*
X170471153Y-115453914D01*
X169870222Y-115205000D01*
X169219778Y-115205000D01*
X168618847Y-115453914D01*
X168158914Y-115913847D01*
X167910000Y-116514778D01*
X167910000Y-117165222D01*
X167945895Y-117251881D01*
X165343055Y-114649041D01*
X191648086Y-114649041D01*
X191887611Y-115155134D01*
X192302577Y-115531041D01*
X192690961Y-115691904D01*
X192913000Y-115569915D01*
X192913000Y-114427000D01*
X193167000Y-114427000D01*
X193167000Y-115569915D01*
X193389039Y-115691904D01*
X193777423Y-115531041D01*
X194192389Y-115155134D01*
X194431914Y-114649041D01*
X194310629Y-114427000D01*
X193167000Y-114427000D01*
X192913000Y-114427000D01*
X191769371Y-114427000D01*
X191648086Y-114649041D01*
X165343055Y-114649041D01*
X164441470Y-113747456D01*
X164546740Y-113589909D01*
X164658113Y-113030000D01*
X164617163Y-112824126D01*
X167240000Y-112824126D01*
X167240000Y-113235874D01*
X167397569Y-113616280D01*
X167688720Y-113907431D01*
X168069126Y-114065000D01*
X168480874Y-114065000D01*
X168861280Y-113907431D01*
X168978711Y-113790000D01*
X191724265Y-113790000D01*
X191648086Y-113950959D01*
X191769371Y-114173000D01*
X192913000Y-114173000D01*
X192913000Y-114153000D01*
X193167000Y-114153000D01*
X193167000Y-114173000D01*
X194310629Y-114173000D01*
X194431914Y-113950959D01*
X194355735Y-113790000D01*
X199315153Y-113790000D01*
X199390000Y-113804888D01*
X199464847Y-113790000D01*
X199464852Y-113790000D01*
X199686537Y-113745904D01*
X199937929Y-113577929D01*
X199980331Y-113514470D01*
X200245161Y-113249640D01*
X200354670Y-113295000D01*
X200965330Y-113295000D01*
X201529507Y-113061310D01*
X201961310Y-112629507D01*
X202001254Y-112533074D01*
X202344866Y-112912389D01*
X202850959Y-113151914D01*
X203073000Y-113030629D01*
X203073000Y-111887000D01*
X203327000Y-111887000D01*
X203327000Y-113030629D01*
X203549041Y-113151914D01*
X204055134Y-112912389D01*
X204431041Y-112497423D01*
X204591904Y-112109039D01*
X204469915Y-111887000D01*
X203327000Y-111887000D01*
X203073000Y-111887000D01*
X203053000Y-111887000D01*
X203053000Y-111633000D01*
X203073000Y-111633000D01*
X203073000Y-110489371D01*
X202850959Y-110368086D01*
X202344866Y-110607611D01*
X202001254Y-110986926D01*
X201961310Y-110890493D01*
X201529507Y-110458690D01*
X200965330Y-110225000D01*
X200354670Y-110225000D01*
X199790493Y-110458690D01*
X199621275Y-110627908D01*
X199618157Y-110612235D01*
X199477809Y-110402191D01*
X199267765Y-110261843D01*
X199020000Y-110212560D01*
X197220000Y-110212560D01*
X196972235Y-110261843D01*
X196762191Y-110402191D01*
X196621843Y-110612235D01*
X196572560Y-110860000D01*
X196572560Y-112270000D01*
X168978711Y-112270000D01*
X168861280Y-112152569D01*
X168480874Y-111995000D01*
X168069126Y-111995000D01*
X167688720Y-112152569D01*
X167397569Y-112443720D01*
X167240000Y-112824126D01*
X164617163Y-112824126D01*
X164546740Y-112470091D01*
X164229577Y-111995423D01*
X163877242Y-111760000D01*
X164229577Y-111524577D01*
X164546740Y-111049909D01*
X164588684Y-110839041D01*
X164978086Y-110839041D01*
X165217611Y-111345134D01*
X165632577Y-111721041D01*
X166020961Y-111881904D01*
X166243000Y-111759915D01*
X166243000Y-110617000D01*
X166497000Y-110617000D01*
X166497000Y-111759915D01*
X166719039Y-111881904D01*
X167107423Y-111721041D01*
X167522389Y-111345134D01*
X167761914Y-110839041D01*
X167640629Y-110617000D01*
X166497000Y-110617000D01*
X166243000Y-110617000D01*
X165099371Y-110617000D01*
X164978086Y-110839041D01*
X164588684Y-110839041D01*
X164658113Y-110490000D01*
X164588685Y-110140959D01*
X164978086Y-110140959D01*
X165099371Y-110363000D01*
X166243000Y-110363000D01*
X166243000Y-109220085D01*
X166497000Y-109220085D01*
X166497000Y-110363000D01*
X167640629Y-110363000D01*
X167761914Y-110140959D01*
X167522389Y-109634866D01*
X167107423Y-109258959D01*
X166719039Y-109098096D01*
X166497000Y-109220085D01*
X166243000Y-109220085D01*
X166020961Y-109098096D01*
X165632577Y-109258959D01*
X165217611Y-109634866D01*
X164978086Y-110140959D01*
X164588685Y-110140959D01*
X164546740Y-109930091D01*
X164229577Y-109455423D01*
X163877242Y-109220000D01*
X164229577Y-108984577D01*
X164546740Y-108509909D01*
X164658113Y-107950000D01*
X164546740Y-107390091D01*
X164229577Y-106915423D01*
X163845892Y-106659053D01*
X164050134Y-106562389D01*
X164426041Y-106147423D01*
X164586904Y-105759039D01*
X164464915Y-105537000D01*
X163322000Y-105537000D01*
X163322000Y-105557000D01*
X163068000Y-105557000D01*
X163068000Y-105537000D01*
X161925085Y-105537000D01*
X161803096Y-105759039D01*
X161963959Y-106147423D01*
X162339866Y-106562389D01*
X162544108Y-106659053D01*
X162160423Y-106915423D01*
X161843260Y-107390091D01*
X161731887Y-107950000D01*
X161843260Y-108509909D01*
X162160423Y-108984577D01*
X162512758Y-109220000D01*
X162160423Y-109455423D01*
X161843260Y-109930091D01*
X161731887Y-110490000D01*
X161843260Y-111049909D01*
X162160423Y-111524577D01*
X162512758Y-111760000D01*
X162160423Y-111995423D01*
X161924022Y-112349222D01*
X159510000Y-109935201D01*
X159510000Y-106119846D01*
X159524888Y-106044999D01*
X159510000Y-105970152D01*
X159510000Y-105970148D01*
X159465904Y-105748463D01*
X159297929Y-105497071D01*
X159234473Y-105454671D01*
X156973688Y-103193887D01*
X157038113Y-102870000D01*
X156973688Y-102546114D01*
X157304801Y-102215001D01*
X161906797Y-102215001D01*
X161843260Y-102310091D01*
X161731887Y-102870000D01*
X161843260Y-103429909D01*
X162160423Y-103904577D01*
X162544108Y-104160947D01*
X162339866Y-104257611D01*
X161963959Y-104672577D01*
X161803096Y-105060961D01*
X161925085Y-105283000D01*
X163068000Y-105283000D01*
X163068000Y-105263000D01*
X163322000Y-105263000D01*
X163322000Y-105283000D01*
X164464915Y-105283000D01*
X164586904Y-105060961D01*
X164426041Y-104672577D01*
X164050134Y-104257611D01*
X163845892Y-104160947D01*
X164229577Y-103904577D01*
X164546740Y-103429909D01*
X164658113Y-102870000D01*
X164546740Y-102310091D01*
X164312216Y-101959101D01*
X164325332Y-101939471D01*
X164804474Y-101460330D01*
X164867930Y-101417930D01*
X165035905Y-101166538D01*
X165077226Y-100958803D01*
X165153466Y-101142862D01*
X165557138Y-101546534D01*
X165686216Y-101600000D01*
X165557138Y-101653466D01*
X165153466Y-102057138D01*
X164935000Y-102584561D01*
X164935000Y-103155439D01*
X165153466Y-103682862D01*
X165557138Y-104086534D01*
X166084561Y-104305000D01*
X166655439Y-104305000D01*
X167182862Y-104086534D01*
X167586534Y-103682862D01*
X167608430Y-103630000D01*
X167997560Y-103630000D01*
X167997560Y-103770000D01*
X168046843Y-104017765D01*
X168187191Y-104227809D01*
X168397235Y-104368157D01*
X168645000Y-104417440D01*
X170445000Y-104417440D01*
X170692765Y-104368157D01*
X170694317Y-104367120D01*
X171586668Y-105259472D01*
X171629069Y-105322929D01*
X171880461Y-105490904D01*
X172102146Y-105535000D01*
X172102150Y-105535000D01*
X172176997Y-105549888D01*
X172251844Y-105535000D01*
X189960780Y-105535000D01*
X189746456Y-105749324D01*
X189155000Y-107177225D01*
X189155000Y-108722775D01*
X189746456Y-110150676D01*
X190839324Y-111243544D01*
X192267225Y-111835000D01*
X193812775Y-111835000D01*
X195240676Y-111243544D01*
X196333544Y-110150676D01*
X196925000Y-108722775D01*
X196925000Y-107177225D01*
X196333544Y-105749324D01*
X195719219Y-105134999D01*
X196770198Y-105134999D01*
X196894669Y-105259470D01*
X196937071Y-105322929D01*
X197067382Y-105410000D01*
X197188462Y-105490904D01*
X197236605Y-105500480D01*
X197410148Y-105535000D01*
X197410152Y-105535000D01*
X197485000Y-105549888D01*
X197559848Y-105535000D01*
X198440199Y-105535000D01*
X203370699Y-110465501D01*
X203327000Y-110489371D01*
X203327000Y-111633000D01*
X204469915Y-111633000D01*
X204494128Y-111588929D01*
X206250001Y-113344803D01*
X206250000Y-114620155D01*
X206235112Y-114695002D01*
X206250000Y-114769849D01*
X206250000Y-114769853D01*
X206294096Y-114991538D01*
X206462071Y-115242931D01*
X206525530Y-115285333D01*
X212469667Y-121229471D01*
X212512068Y-121292928D01*
X212575524Y-121335328D01*
X212763459Y-121460903D01*
X212811602Y-121470479D01*
X212985145Y-121504999D01*
X212985149Y-121504999D01*
X213059997Y-121519887D01*
X213134845Y-121504999D01*
X213775198Y-121504999D01*
X213823791Y-121553592D01*
X213750908Y-121920000D01*
X213866161Y-122499418D01*
X214194375Y-122990625D01*
X214685582Y-123318839D01*
X215118744Y-123405000D01*
X215411256Y-123405000D01*
X215844418Y-123318839D01*
X216335625Y-122990625D01*
X216663839Y-122499418D01*
X216779092Y-121920000D01*
X216663839Y-121340582D01*
X216335625Y-120849375D01*
X216037239Y-120650000D01*
X216335625Y-120450625D01*
X216663839Y-119959418D01*
X216779092Y-119380000D01*
X216663839Y-118800582D01*
X216335625Y-118309375D01*
X216037239Y-118110000D01*
X216335625Y-117910625D01*
X216663839Y-117419418D01*
X216779092Y-116840000D01*
X216663839Y-116260582D01*
X216335625Y-115769375D01*
X216037239Y-115570000D01*
X216335625Y-115370625D01*
X216663839Y-114879418D01*
X216779092Y-114300000D01*
X216663839Y-113720582D01*
X216335625Y-113229375D01*
X216037239Y-113030000D01*
X216335625Y-112830625D01*
X216663839Y-112339418D01*
X216779092Y-111760000D01*
X216663839Y-111180582D01*
X216335625Y-110689375D01*
X216313967Y-110674904D01*
X216474698Y-110608327D01*
X216653327Y-110429699D01*
X216750000Y-110196310D01*
X216750000Y-109505750D01*
X216591250Y-109347000D01*
X215392000Y-109347000D01*
X215392000Y-109367000D01*
X215138000Y-109367000D01*
X215138000Y-109347000D01*
X213938750Y-109347000D01*
X213780000Y-109505750D01*
X213780000Y-110196310D01*
X213876673Y-110429699D01*
X214055302Y-110608327D01*
X214216033Y-110674904D01*
X214194375Y-110689375D01*
X213866161Y-111180582D01*
X213750908Y-111760000D01*
X213866161Y-112339418D01*
X214194375Y-112830625D01*
X214492761Y-113030000D01*
X214194375Y-113229375D01*
X213866161Y-113720582D01*
X213759020Y-114259218D01*
X212047116Y-112547315D01*
X212255000Y-112045439D01*
X212255000Y-111474561D01*
X212036534Y-110947138D01*
X211632862Y-110543466D01*
X211105439Y-110325000D01*
X210534561Y-110325000D01*
X210007138Y-110543466D01*
X209603466Y-110947138D01*
X209385000Y-111474561D01*
X209385000Y-112045439D01*
X209478016Y-112270000D01*
X209229802Y-112270000D01*
X205203492Y-108243690D01*
X213780000Y-108243690D01*
X213780000Y-108934250D01*
X213938750Y-109093000D01*
X215138000Y-109093000D01*
X215138000Y-107893750D01*
X215392000Y-107893750D01*
X215392000Y-109093000D01*
X216591250Y-109093000D01*
X216750000Y-108934250D01*
X216750000Y-108243690D01*
X216653327Y-108010301D01*
X216474698Y-107831673D01*
X216241309Y-107735000D01*
X215550750Y-107735000D01*
X215392000Y-107893750D01*
X215138000Y-107893750D01*
X214979250Y-107735000D01*
X214288691Y-107735000D01*
X214055302Y-107831673D01*
X213876673Y-108010301D01*
X213780000Y-108243690D01*
X205203492Y-108243690D01*
X203779380Y-106819579D01*
X204063277Y-106701985D01*
X204470000Y-106295262D01*
X204876723Y-106701985D01*
X205436858Y-106934000D01*
X206043142Y-106934000D01*
X206603277Y-106701985D01*
X206823066Y-106482196D01*
X207387409Y-106482196D01*
X207472467Y-106737539D01*
X208041965Y-106945516D01*
X208647700Y-106919723D01*
X209087533Y-106737539D01*
X209172591Y-106482196D01*
X208280000Y-105589605D01*
X207387409Y-106482196D01*
X206823066Y-106482196D01*
X207031985Y-106273277D01*
X207042633Y-106247570D01*
X207207804Y-106302591D01*
X208100395Y-105410000D01*
X208459605Y-105410000D01*
X209352196Y-106302591D01*
X209607539Y-106217533D01*
X209815516Y-105648035D01*
X209789723Y-105042300D01*
X209607539Y-104602467D01*
X209352196Y-104517409D01*
X208459605Y-105410000D01*
X208100395Y-105410000D01*
X207207804Y-104517409D01*
X207042633Y-104572430D01*
X207031985Y-104546723D01*
X206823066Y-104337804D01*
X207387409Y-104337804D01*
X208280000Y-105230395D01*
X209172591Y-104337804D01*
X209087533Y-104082461D01*
X208518035Y-103874484D01*
X207912300Y-103900277D01*
X207472467Y-104082461D01*
X207387409Y-104337804D01*
X206823066Y-104337804D01*
X206603277Y-104118015D01*
X206043142Y-103886000D01*
X205436858Y-103886000D01*
X205333581Y-103928779D01*
X202968636Y-101563834D01*
X211582000Y-101563834D01*
X211582000Y-102271166D01*
X211852684Y-102924656D01*
X212352844Y-103424816D01*
X213006334Y-103695500D01*
X213713666Y-103695500D01*
X214367156Y-103424816D01*
X214867316Y-102924656D01*
X215138000Y-102271166D01*
X215138000Y-101563834D01*
X214867316Y-100910344D01*
X214367156Y-100410184D01*
X213713666Y-100139500D01*
X213006334Y-100139500D01*
X212352844Y-100410184D01*
X211852684Y-100910344D01*
X211582000Y-101563834D01*
X202968636Y-101563834D01*
X201369830Y-99965029D01*
X201327428Y-99901570D01*
X201076036Y-99733595D01*
X200854351Y-99689499D01*
X200854346Y-99689499D01*
X200779499Y-99674611D01*
X200704652Y-99689499D01*
X178629303Y-99689499D01*
X177802000Y-98862196D01*
X194687409Y-98862196D01*
X194772467Y-99117539D01*
X195341965Y-99325516D01*
X195947700Y-99299723D01*
X196387533Y-99117539D01*
X196472591Y-98862196D01*
X195580000Y-97969605D01*
X194687409Y-98862196D01*
X177802000Y-98862196D01*
X176491769Y-97551965D01*
X194044484Y-97551965D01*
X194070277Y-98157700D01*
X194252461Y-98597533D01*
X194507804Y-98682591D01*
X195400395Y-97790000D01*
X195759605Y-97790000D01*
X196652196Y-98682591D01*
X196907539Y-98597533D01*
X197115516Y-98028035D01*
X197089723Y-97422300D01*
X196907539Y-96982467D01*
X196652196Y-96897409D01*
X195759605Y-97790000D01*
X195400395Y-97790000D01*
X194507804Y-96897409D01*
X194252461Y-96982467D01*
X194044484Y-97551965D01*
X176491769Y-97551965D01*
X174949804Y-96010000D01*
X194245236Y-96010000D01*
X194288015Y-96113277D01*
X194716723Y-96541985D01*
X194742430Y-96552633D01*
X194687409Y-96717804D01*
X195580000Y-97610395D01*
X196472591Y-96717804D01*
X196417570Y-96552633D01*
X196443277Y-96541985D01*
X196871985Y-96113277D01*
X197104000Y-95553142D01*
X197104000Y-94946858D01*
X196871985Y-94386723D01*
X196465262Y-93980000D01*
X196871985Y-93573277D01*
X197104000Y-93013142D01*
X197104000Y-92406858D01*
X196871985Y-91846723D01*
X196443277Y-91418015D01*
X195883142Y-91186000D01*
X195276858Y-91186000D01*
X194716723Y-91418015D01*
X194288015Y-91846723D01*
X194056000Y-92406858D01*
X194056000Y-93013142D01*
X194288015Y-93573277D01*
X194694738Y-93980000D01*
X194288015Y-94386723D01*
X194245236Y-94490000D01*
X176601984Y-94490000D01*
X176695000Y-94265439D01*
X176695000Y-93694561D01*
X176476534Y-93167138D01*
X176072862Y-92763466D01*
X175545439Y-92545000D01*
X174974561Y-92545000D01*
X174447138Y-92763466D01*
X174043466Y-93167138D01*
X173825000Y-93694561D01*
X173825000Y-94010198D01*
X168375330Y-88560529D01*
X168332928Y-88497070D01*
X168081536Y-88329095D01*
X167859851Y-88284999D01*
X167859846Y-88284999D01*
X167784999Y-88270111D01*
X167710152Y-88284999D01*
X163219800Y-88284999D01*
X163275965Y-88228834D01*
X196342000Y-88228834D01*
X196342000Y-88936166D01*
X196612684Y-89589656D01*
X197112844Y-90089816D01*
X197766334Y-90360500D01*
X198473666Y-90360500D01*
X199127156Y-90089816D01*
X199627316Y-89589656D01*
X199898000Y-88936166D01*
X199898000Y-88228834D01*
X199627316Y-87575344D01*
X199378830Y-87326858D01*
X201041000Y-87326858D01*
X201041000Y-87933142D01*
X201273015Y-88493277D01*
X201701723Y-88921985D01*
X202261858Y-89154000D01*
X202868142Y-89154000D01*
X203428277Y-88921985D01*
X203856985Y-88493277D01*
X204089000Y-87933142D01*
X204089000Y-87326858D01*
X207391000Y-87326858D01*
X207391000Y-87933142D01*
X207623015Y-88493277D01*
X208051723Y-88921985D01*
X208611858Y-89154000D01*
X209218142Y-89154000D01*
X209778277Y-88921985D01*
X210206985Y-88493277D01*
X210316520Y-88228834D01*
X211582000Y-88228834D01*
X211582000Y-88936166D01*
X211852684Y-89589656D01*
X212352844Y-90089816D01*
X213006334Y-90360500D01*
X213713666Y-90360500D01*
X214367156Y-90089816D01*
X214867316Y-89589656D01*
X215138000Y-88936166D01*
X215138000Y-88228834D01*
X214867316Y-87575344D01*
X214367156Y-87075184D01*
X213713666Y-86804500D01*
X213006334Y-86804500D01*
X212352844Y-87075184D01*
X211852684Y-87575344D01*
X211582000Y-88228834D01*
X210316520Y-88228834D01*
X210439000Y-87933142D01*
X210439000Y-87326858D01*
X210206985Y-86766723D01*
X209778277Y-86338015D01*
X209218142Y-86106000D01*
X208611858Y-86106000D01*
X208051723Y-86338015D01*
X207623015Y-86766723D01*
X207391000Y-87326858D01*
X204089000Y-87326858D01*
X203856985Y-86766723D01*
X203428277Y-86338015D01*
X202868142Y-86106000D01*
X202261858Y-86106000D01*
X201701723Y-86338015D01*
X201273015Y-86766723D01*
X201041000Y-87326858D01*
X199378830Y-87326858D01*
X199127156Y-87075184D01*
X198473666Y-86804500D01*
X197766334Y-86804500D01*
X197112844Y-87075184D01*
X196612684Y-87575344D01*
X196342000Y-88228834D01*
X163275965Y-88228834D01*
X165024799Y-86480000D01*
X168716887Y-86480000D01*
X168828260Y-87039909D01*
X169145423Y-87514577D01*
X169620091Y-87831740D01*
X170038667Y-87915000D01*
X170321333Y-87915000D01*
X170739909Y-87831740D01*
X171214577Y-87514577D01*
X171531740Y-87039909D01*
X171573684Y-86829041D01*
X173868086Y-86829041D01*
X174107611Y-87335134D01*
X174522577Y-87711041D01*
X174910961Y-87871904D01*
X175133000Y-87749915D01*
X175133000Y-86607000D01*
X175387000Y-86607000D01*
X175387000Y-87749915D01*
X175609039Y-87871904D01*
X175997423Y-87711041D01*
X176412389Y-87335134D01*
X176651914Y-86829041D01*
X176530629Y-86607000D01*
X175387000Y-86607000D01*
X175133000Y-86607000D01*
X173989371Y-86607000D01*
X173868086Y-86829041D01*
X171573684Y-86829041D01*
X171643113Y-86480000D01*
X171573685Y-86130959D01*
X173868086Y-86130959D01*
X173989371Y-86353000D01*
X175133000Y-86353000D01*
X175133000Y-85210085D01*
X175387000Y-85210085D01*
X175387000Y-86353000D01*
X176530629Y-86353000D01*
X176651914Y-86130959D01*
X176412389Y-85624866D01*
X175997423Y-85248959D01*
X175609039Y-85088096D01*
X175387000Y-85210085D01*
X175133000Y-85210085D01*
X174910961Y-85088096D01*
X174522577Y-85248959D01*
X174107611Y-85624866D01*
X173868086Y-86130959D01*
X171573685Y-86130959D01*
X171531740Y-85920091D01*
X171214577Y-85445423D01*
X170739909Y-85128260D01*
X170321333Y-85045000D01*
X170038667Y-85045000D01*
X169620091Y-85128260D01*
X169145423Y-85445423D01*
X168828260Y-85920091D01*
X168716887Y-86480000D01*
X165024799Y-86480000D01*
X167003833Y-84500967D01*
X167058466Y-84632862D01*
X167462138Y-85036534D01*
X167989561Y-85255000D01*
X168560439Y-85255000D01*
X169087862Y-85036534D01*
X169491534Y-84632862D01*
X169710000Y-84105439D01*
X169710000Y-83534561D01*
X169677044Y-83454999D01*
X171280198Y-83454999D01*
X171306897Y-83481698D01*
X171285000Y-83534561D01*
X171285000Y-84105439D01*
X171503466Y-84632862D01*
X171907138Y-85036534D01*
X172434561Y-85255000D01*
X173005439Y-85255000D01*
X173532862Y-85036534D01*
X173936534Y-84632862D01*
X174155000Y-84105439D01*
X174155000Y-83534561D01*
X175095000Y-83534561D01*
X175095000Y-84105439D01*
X175313466Y-84632862D01*
X175717138Y-85036534D01*
X176244561Y-85255000D01*
X176815439Y-85255000D01*
X177342862Y-85036534D01*
X177746534Y-84632862D01*
X177965000Y-84105439D01*
X177965000Y-83534561D01*
X177746534Y-83007138D01*
X177342862Y-82603466D01*
X176815439Y-82385000D01*
X176244561Y-82385000D01*
X175717138Y-82603466D01*
X175313466Y-83007138D01*
X175095000Y-83534561D01*
X174155000Y-83534561D01*
X173936534Y-83007138D01*
X173532862Y-82603466D01*
X173005439Y-82385000D01*
X172434561Y-82385000D01*
X172381698Y-82406897D01*
X172221659Y-82246858D01*
X201041000Y-82246858D01*
X201041000Y-82853142D01*
X201273015Y-83413277D01*
X201701723Y-83841985D01*
X202261858Y-84074000D01*
X202868142Y-84074000D01*
X203428277Y-83841985D01*
X203856985Y-83413277D01*
X204089000Y-82853142D01*
X204089000Y-82246858D01*
X207391000Y-82246858D01*
X207391000Y-82853142D01*
X207623015Y-83413277D01*
X208051723Y-83841985D01*
X208611858Y-84074000D01*
X209218142Y-84074000D01*
X209778277Y-83841985D01*
X210206985Y-83413277D01*
X210439000Y-82853142D01*
X210439000Y-82246858D01*
X210206985Y-81686723D01*
X209778277Y-81258015D01*
X209218142Y-81026000D01*
X208611858Y-81026000D01*
X208051723Y-81258015D01*
X207623015Y-81686723D01*
X207391000Y-82246858D01*
X204089000Y-82246858D01*
X203856985Y-81686723D01*
X203428277Y-81258015D01*
X202868142Y-81026000D01*
X202261858Y-81026000D01*
X201701723Y-81258015D01*
X201273015Y-81686723D01*
X201041000Y-82246858D01*
X172221659Y-82246858D01*
X172185330Y-82210529D01*
X172142928Y-82147070D01*
X171891536Y-81979095D01*
X171669851Y-81934999D01*
X171669846Y-81934999D01*
X171594999Y-81920111D01*
X171520152Y-81934999D01*
X167809847Y-81934999D01*
X167734999Y-81920111D01*
X167660151Y-81934999D01*
X167660147Y-81934999D01*
X167486604Y-81969519D01*
X167438461Y-81979095D01*
X167251417Y-82104075D01*
X167187070Y-82147070D01*
X167144670Y-82210526D01*
X161135518Y-88219679D01*
X161072062Y-88262079D01*
X161029662Y-88325535D01*
X161029661Y-88325536D01*
X160904087Y-88513471D01*
X160845102Y-88810008D01*
X160859991Y-88884860D01*
X160859990Y-96920189D01*
X160780000Y-96840199D01*
X160780000Y-87704846D01*
X160794888Y-87629999D01*
X160780000Y-87555152D01*
X160780000Y-87555148D01*
X160735904Y-87333463D01*
X160694102Y-87270902D01*
X160610329Y-87145526D01*
X160610327Y-87145524D01*
X160567929Y-87082071D01*
X160504476Y-87039673D01*
X153823841Y-80359039D01*
X154183096Y-80359039D01*
X154343959Y-80747423D01*
X154719866Y-81162389D01*
X155225959Y-81401914D01*
X155448000Y-81280629D01*
X155448000Y-80137000D01*
X155702000Y-80137000D01*
X155702000Y-81280629D01*
X155924041Y-81401914D01*
X156430134Y-81162389D01*
X156806041Y-80747423D01*
X156966904Y-80359039D01*
X156844915Y-80137000D01*
X155702000Y-80137000D01*
X155448000Y-80137000D01*
X154305085Y-80137000D01*
X154183096Y-80359039D01*
X153823841Y-80359039D01*
X153125763Y-79660961D01*
X154183096Y-79660961D01*
X154305085Y-79883000D01*
X155448000Y-79883000D01*
X155448000Y-78739371D01*
X155702000Y-78739371D01*
X155702000Y-79883000D01*
X156844915Y-79883000D01*
X156966904Y-79660961D01*
X156806041Y-79272577D01*
X156430134Y-78857611D01*
X155924041Y-78618086D01*
X155702000Y-78739371D01*
X155448000Y-78739371D01*
X155225959Y-78618086D01*
X154719866Y-78857611D01*
X154343959Y-79272577D01*
X154183096Y-79660961D01*
X153125763Y-79660961D01*
X149929801Y-76465000D01*
X150165330Y-76465000D01*
X150729507Y-76231310D01*
X150760817Y-76200000D01*
X166811887Y-76200000D01*
X166923260Y-76759909D01*
X167240423Y-77234577D01*
X167715091Y-77551740D01*
X168133667Y-77635000D01*
X168416333Y-77635000D01*
X168834909Y-77551740D01*
X169309577Y-77234577D01*
X169626740Y-76759909D01*
X169668684Y-76549041D01*
X171328086Y-76549041D01*
X171567611Y-77055134D01*
X171982577Y-77431041D01*
X172370961Y-77591904D01*
X172593000Y-77469915D01*
X172593000Y-76327000D01*
X172847000Y-76327000D01*
X172847000Y-77469915D01*
X173069039Y-77591904D01*
X173457423Y-77431041D01*
X173872389Y-77055134D01*
X174111914Y-76549041D01*
X175138086Y-76549041D01*
X175377611Y-77055134D01*
X175792577Y-77431041D01*
X176180961Y-77591904D01*
X176403000Y-77469915D01*
X176403000Y-76327000D01*
X176657000Y-76327000D01*
X176657000Y-77469915D01*
X176879039Y-77591904D01*
X177267423Y-77431041D01*
X177682389Y-77055134D01*
X177921914Y-76549041D01*
X177800629Y-76327000D01*
X176657000Y-76327000D01*
X176403000Y-76327000D01*
X175259371Y-76327000D01*
X175138086Y-76549041D01*
X174111914Y-76549041D01*
X173990629Y-76327000D01*
X172847000Y-76327000D01*
X172593000Y-76327000D01*
X171449371Y-76327000D01*
X171328086Y-76549041D01*
X169668684Y-76549041D01*
X169738113Y-76200000D01*
X169668685Y-75850959D01*
X171328086Y-75850959D01*
X171449371Y-76073000D01*
X172593000Y-76073000D01*
X172593000Y-74930085D01*
X172847000Y-74930085D01*
X172847000Y-76073000D01*
X173990629Y-76073000D01*
X174111914Y-75850959D01*
X175138086Y-75850959D01*
X175259371Y-76073000D01*
X176403000Y-76073000D01*
X176403000Y-74930085D01*
X176657000Y-74930085D01*
X176657000Y-76073000D01*
X177800629Y-76073000D01*
X177921914Y-75850959D01*
X177682389Y-75344866D01*
X177267423Y-74968959D01*
X176879039Y-74808096D01*
X176657000Y-74930085D01*
X176403000Y-74930085D01*
X176180961Y-74808096D01*
X175792577Y-74968959D01*
X175377611Y-75344866D01*
X175138086Y-75850959D01*
X174111914Y-75850959D01*
X173872389Y-75344866D01*
X173457423Y-74968959D01*
X173069039Y-74808096D01*
X172847000Y-74930085D01*
X172593000Y-74930085D01*
X172370961Y-74808096D01*
X171982577Y-74968959D01*
X171567611Y-75344866D01*
X171328086Y-75850959D01*
X169668685Y-75850959D01*
X169626740Y-75640091D01*
X169309577Y-75165423D01*
X168834909Y-74848260D01*
X168416333Y-74765000D01*
X168133667Y-74765000D01*
X167715091Y-74848260D01*
X167240423Y-75165423D01*
X166923260Y-75640091D01*
X166811887Y-76200000D01*
X150760817Y-76200000D01*
X151161310Y-75799507D01*
X151395000Y-75235330D01*
X151395000Y-74624670D01*
X151161310Y-74060493D01*
X150729507Y-73628690D01*
X150165330Y-73395000D01*
X149554670Y-73395000D01*
X148990493Y-73628690D01*
X148610000Y-74009183D01*
X148229507Y-73628690D01*
X147665330Y-73395000D01*
X147054670Y-73395000D01*
X146490493Y-73628690D01*
X146058690Y-74060493D01*
X146055461Y-74068290D01*
X145940159Y-74029446D01*
X145039605Y-74930000D01*
X145940159Y-75830554D01*
X146055461Y-75791710D01*
X146058690Y-75799507D01*
X146490493Y-76231310D01*
X147054670Y-76465000D01*
X147665330Y-76465000D01*
X147774838Y-76419640D01*
X148117126Y-76761929D01*
X148240072Y-76945930D01*
X148303530Y-76988331D01*
X159260000Y-87944803D01*
X159260001Y-97080148D01*
X159245112Y-97155000D01*
X159304097Y-97451537D01*
X159410243Y-97610395D01*
X159472072Y-97702929D01*
X159535528Y-97745329D01*
X161796312Y-100006114D01*
X161731887Y-100330000D01*
X161804490Y-100695001D01*
X157064847Y-100695001D01*
X156989999Y-100680113D01*
X156967584Y-100684571D01*
X157038113Y-100330000D01*
X156973688Y-100006114D01*
X157964473Y-99015329D01*
X158027929Y-98972929D01*
X158127055Y-98824577D01*
X158195904Y-98721538D01*
X158220570Y-98597533D01*
X158240000Y-98499852D01*
X158240000Y-98499848D01*
X158254888Y-98425000D01*
X158240000Y-98350152D01*
X158240000Y-97229846D01*
X158254888Y-97154999D01*
X158240000Y-97080152D01*
X158240000Y-97080148D01*
X158195904Y-96858463D01*
X158027929Y-96607071D01*
X157964473Y-96564671D01*
X157580330Y-96180528D01*
X157537928Y-96117070D01*
X157286536Y-95949095D01*
X157064851Y-95904999D01*
X157064846Y-95904999D01*
X156989999Y-95890111D01*
X156915152Y-95904999D01*
X156863203Y-95904999D01*
X156926740Y-95809909D01*
X157038113Y-95250000D01*
X156926740Y-94690091D01*
X156609577Y-94215423D01*
X156257242Y-93980000D01*
X156609577Y-93744577D01*
X156926740Y-93269909D01*
X157038113Y-92710000D01*
X156926740Y-92150091D01*
X156609577Y-91675423D01*
X156488894Y-91594785D01*
X156622765Y-91568157D01*
X156832809Y-91427809D01*
X156973157Y-91217765D01*
X157022440Y-90970000D01*
X157022440Y-89370000D01*
X156973157Y-89122235D01*
X156832809Y-88912191D01*
X156622765Y-88771843D01*
X156375000Y-88722560D01*
X154775000Y-88722560D01*
X154527235Y-88771843D01*
X154430000Y-88836814D01*
X154430000Y-86931218D01*
X154444888Y-86856370D01*
X154430000Y-86781522D01*
X154430000Y-86781518D01*
X154385904Y-86559833D01*
X154217929Y-86308441D01*
X154154473Y-86266041D01*
X148941414Y-81052982D01*
X149171534Y-80822862D01*
X149390000Y-80295439D01*
X149390000Y-79724561D01*
X149171534Y-79197138D01*
X148767862Y-78793466D01*
X148240439Y-78575000D01*
X147669561Y-78575000D01*
X147142138Y-78793466D01*
X146738466Y-79197138D01*
X146520000Y-79724561D01*
X146520000Y-80295439D01*
X146738466Y-80822862D01*
X147142138Y-81226534D01*
X147201983Y-81251323D01*
X147239097Y-81437907D01*
X147407072Y-81689299D01*
X147470528Y-81731699D01*
X152910000Y-87171172D01*
X152910001Y-94935150D01*
X152895112Y-95010002D01*
X152910001Y-95084854D01*
X152934016Y-95205584D01*
X147967303Y-90238872D01*
X148327156Y-90089816D01*
X148827316Y-89589656D01*
X149098000Y-88936166D01*
X149098000Y-88228834D01*
X148827316Y-87575344D01*
X148327156Y-87075184D01*
X147673666Y-86804500D01*
X146966334Y-86804500D01*
X146312844Y-87075184D01*
X145812684Y-87575344D01*
X145663628Y-87935197D01*
X144849001Y-87120570D01*
X144849001Y-86323847D01*
X144863889Y-86249000D01*
X144849001Y-86174153D01*
X144849001Y-86174149D01*
X144804905Y-85952464D01*
X144636930Y-85701072D01*
X144573474Y-85658672D01*
X142988802Y-84074000D01*
X143178142Y-84074000D01*
X143738277Y-83841985D01*
X144166985Y-83413277D01*
X144399000Y-82853142D01*
X144399000Y-82246858D01*
X144166985Y-81686723D01*
X143738277Y-81258015D01*
X143178142Y-81026000D01*
X142571858Y-81026000D01*
X142011723Y-81258015D01*
X141583015Y-81686723D01*
X141351000Y-82246858D01*
X141351000Y-82436198D01*
X136900330Y-77985529D01*
X136900328Y-77985526D01*
X136876177Y-77961375D01*
X136945000Y-77795222D01*
X136945000Y-77144778D01*
X136696086Y-76543847D01*
X136236153Y-76083914D01*
X136070000Y-76015091D01*
X136070000Y-76010159D01*
X143959446Y-76010159D01*
X144045852Y-76266643D01*
X144619336Y-76476458D01*
X145229460Y-76450839D01*
X145674148Y-76266643D01*
X145760554Y-76010159D01*
X144860000Y-75109605D01*
X143959446Y-76010159D01*
X136070000Y-76010159D01*
X136070000Y-74689336D01*
X143313542Y-74689336D01*
X143339161Y-75299460D01*
X143523357Y-75744148D01*
X143779841Y-75830554D01*
X144680395Y-74930000D01*
X143779841Y-74029446D01*
X143523357Y-74115852D01*
X143313542Y-74689336D01*
X136070000Y-74689336D01*
X136070000Y-73849841D01*
X143959446Y-73849841D01*
X144860000Y-74750395D01*
X145760554Y-73849841D01*
X145674148Y-73593357D01*
X145100664Y-73383542D01*
X144490540Y-73409161D01*
X144045852Y-73593357D01*
X143959446Y-73849841D01*
X136070000Y-73849841D01*
X136070000Y-72424909D01*
X136236153Y-72356086D01*
X136487678Y-72104561D01*
X156045000Y-72104561D01*
X156045000Y-72675439D01*
X156263466Y-73202862D01*
X156667138Y-73606534D01*
X157194561Y-73825000D01*
X157765439Y-73825000D01*
X158292862Y-73606534D01*
X158696534Y-73202862D01*
X158915000Y-72675439D01*
X158915000Y-72104561D01*
X158696534Y-71577138D01*
X158292862Y-71173466D01*
X157765439Y-70955000D01*
X157194561Y-70955000D01*
X156667138Y-71173466D01*
X156263466Y-71577138D01*
X156045000Y-72104561D01*
X136487678Y-72104561D01*
X136696086Y-71896153D01*
X136945000Y-71295222D01*
X136945000Y-70644778D01*
X136696086Y-70043847D01*
X136236153Y-69583914D01*
X135635222Y-69335000D01*
X134984778Y-69335000D01*
X134383847Y-69583914D01*
X133923914Y-70043847D01*
X133675000Y-70644778D01*
X133675000Y-71295222D01*
X133923914Y-71896153D01*
X134383847Y-72356086D01*
X134550000Y-72424909D01*
X134550001Y-76015091D01*
X134383847Y-76083914D01*
X133923914Y-76543847D01*
X133675000Y-77144778D01*
X133675000Y-77795222D01*
X133923914Y-78396153D01*
X134383847Y-78856086D01*
X134984778Y-79105000D01*
X135635222Y-79105000D01*
X135801375Y-79036177D01*
X135825526Y-79060328D01*
X135825529Y-79060330D01*
X142871198Y-86106000D01*
X142571858Y-86106000D01*
X142011723Y-86338015D01*
X141583015Y-86766723D01*
X141351000Y-87326858D01*
X141351000Y-87933142D01*
X141583015Y-88493277D01*
X142011723Y-88921985D01*
X142571858Y-89154000D01*
X143178142Y-89154000D01*
X143738277Y-88921985D01*
X144119545Y-88540717D01*
X153853301Y-98274473D01*
X153895701Y-98337929D01*
X153959157Y-98380329D01*
X154147092Y-98505904D01*
X154195235Y-98515480D01*
X154355145Y-98547288D01*
X154540423Y-98824577D01*
X154892758Y-99060000D01*
X154540423Y-99295423D01*
X154223260Y-99770091D01*
X154111887Y-100330000D01*
X154223260Y-100889909D01*
X154540423Y-101364577D01*
X154892758Y-101600000D01*
X154540423Y-101835423D01*
X154223260Y-102310091D01*
X154111887Y-102870000D01*
X154223260Y-103429909D01*
X154540423Y-103904577D01*
X154892758Y-104140000D01*
X154540423Y-104375423D01*
X154223260Y-104850091D01*
X154111887Y-105410000D01*
X154223260Y-105969909D01*
X154540423Y-106444577D01*
X154924108Y-106700947D01*
X154719866Y-106797611D01*
X154343959Y-107212577D01*
X154183096Y-107600961D01*
X154305085Y-107823000D01*
X155448000Y-107823000D01*
X155448000Y-107803000D01*
X155702000Y-107803000D01*
X155702000Y-107823000D01*
X156844915Y-107823000D01*
X156966904Y-107600961D01*
X156806041Y-107212577D01*
X156430134Y-106797611D01*
X156225892Y-106700947D01*
X156609577Y-106444577D01*
X156926740Y-105969909D01*
X157038113Y-105410000D01*
X157037595Y-105407397D01*
X157990001Y-106359803D01*
X157990000Y-110175155D01*
X157975112Y-110250002D01*
X157990000Y-110324849D01*
X157990000Y-110324853D01*
X158034096Y-110546538D01*
X158202071Y-110797931D01*
X158265530Y-110840333D01*
X162064669Y-114639473D01*
X162077784Y-114659101D01*
X161843260Y-115010091D01*
X161731887Y-115570000D01*
X161843260Y-116129909D01*
X162160423Y-116604577D01*
X162512758Y-116840000D01*
X162160423Y-117075423D01*
X161843260Y-117550091D01*
X161731887Y-118110000D01*
X161843260Y-118669909D01*
X162160423Y-119144577D01*
X162512758Y-119380000D01*
X162160423Y-119615423D01*
X161843260Y-120090091D01*
X161731887Y-120650000D01*
X161732405Y-120652603D01*
X156973688Y-115893887D01*
X157038113Y-115570000D01*
X156926740Y-115010091D01*
X156609577Y-114535423D01*
X156257242Y-114300000D01*
X156609577Y-114064577D01*
X156926740Y-113589909D01*
X157038113Y-113030000D01*
X156926740Y-112470091D01*
X156609577Y-111995423D01*
X156257242Y-111760000D01*
X156609577Y-111524577D01*
X156926740Y-111049909D01*
X157038113Y-110490000D01*
X156926740Y-109930091D01*
X156609577Y-109455423D01*
X156225892Y-109199053D01*
X156430134Y-109102389D01*
X156806041Y-108687423D01*
X156966904Y-108299039D01*
X156844915Y-108077000D01*
X155702000Y-108077000D01*
X155702000Y-108097000D01*
X155448000Y-108097000D01*
X155448000Y-108077000D01*
X154305085Y-108077000D01*
X154183096Y-108299039D01*
X154343959Y-108687423D01*
X154719866Y-109102389D01*
X154924108Y-109199053D01*
X154540423Y-109455423D01*
X154223260Y-109930091D01*
X154111887Y-110490000D01*
X154223260Y-111049909D01*
X154540423Y-111524577D01*
X154892758Y-111760000D01*
X154540423Y-111995423D01*
X154223260Y-112470091D01*
X154111887Y-113030000D01*
X154223260Y-113589909D01*
X154540423Y-114064577D01*
X154892758Y-114300000D01*
X154540423Y-114535423D01*
X154223260Y-115010091D01*
X154111887Y-115570000D01*
X154223260Y-116129909D01*
X154540423Y-116604577D01*
X154892758Y-116840000D01*
X154540423Y-117075423D01*
X154223260Y-117550091D01*
X154111887Y-118110000D01*
X154223260Y-118669909D01*
X154540423Y-119144577D01*
X154892758Y-119380000D01*
X154540423Y-119615423D01*
X154223260Y-120090091D01*
X154111887Y-120650000D01*
X154223260Y-121209909D01*
X154540423Y-121684577D01*
X154892758Y-121920000D01*
X154540423Y-122155423D01*
X154223260Y-122630091D01*
X154111887Y-123190000D01*
X154223260Y-123749909D01*
X154540423Y-124224577D01*
X155015091Y-124541740D01*
X155433667Y-124625000D01*
X155716333Y-124625000D01*
X156134909Y-124541740D01*
X156609577Y-124224577D01*
X156926740Y-123749909D01*
X157038113Y-123190000D01*
X156926740Y-122630091D01*
X156609577Y-122155423D01*
X156257242Y-121920000D01*
X156609577Y-121684577D01*
X156926740Y-121209909D01*
X157038113Y-120650000D01*
X156926740Y-120090091D01*
X156609577Y-119615423D01*
X156257242Y-119380000D01*
X156609577Y-119144577D01*
X156926740Y-118669909D01*
X157038113Y-118110000D01*
X157037595Y-118107396D01*
X161189671Y-122259473D01*
X161232072Y-122322930D01*
X161483464Y-122490905D01*
X161705149Y-122535001D01*
X161705153Y-122535001D01*
X161780000Y-122549889D01*
X161854847Y-122535001D01*
X161906797Y-122535001D01*
X161843260Y-122630091D01*
X161731887Y-123190000D01*
X161843260Y-123749909D01*
X162160423Y-124224577D01*
X162635091Y-124541740D01*
X163053667Y-124625000D01*
X163336333Y-124625000D01*
X163518887Y-124588688D01*
X163898198Y-124968000D01*
X129578452Y-124968000D01*
X127826804Y-123800235D01*
X127804933Y-123753756D01*
X127762000Y-123528693D01*
X127762000Y-122904039D01*
X133863096Y-122904039D01*
X134023959Y-123292423D01*
X134399866Y-123707389D01*
X134905959Y-123946914D01*
X135128000Y-123825629D01*
X135128000Y-122682000D01*
X135382000Y-122682000D01*
X135382000Y-123825629D01*
X135604041Y-123946914D01*
X136110134Y-123707389D01*
X136486041Y-123292423D01*
X136646904Y-122904039D01*
X136524915Y-122682000D01*
X135382000Y-122682000D01*
X135128000Y-122682000D01*
X133985085Y-122682000D01*
X133863096Y-122904039D01*
X127762000Y-122904039D01*
X127762000Y-122205961D01*
X133863096Y-122205961D01*
X133985085Y-122428000D01*
X135128000Y-122428000D01*
X135128000Y-121284371D01*
X135382000Y-121284371D01*
X135382000Y-122428000D01*
X136524915Y-122428000D01*
X136611961Y-122269561D01*
X141440000Y-122269561D01*
X141440000Y-122840439D01*
X141658466Y-123367862D01*
X142062138Y-123771534D01*
X142589561Y-123990000D01*
X143160439Y-123990000D01*
X143687862Y-123771534D01*
X144091534Y-123367862D01*
X144310000Y-122840439D01*
X144310000Y-122269561D01*
X144091534Y-121742138D01*
X143687862Y-121338466D01*
X143160439Y-121120000D01*
X142589561Y-121120000D01*
X142062138Y-121338466D01*
X141658466Y-121742138D01*
X141440000Y-122269561D01*
X136611961Y-122269561D01*
X136646904Y-122205961D01*
X136486041Y-121817577D01*
X136110134Y-121402611D01*
X135604041Y-121163086D01*
X135382000Y-121284371D01*
X135128000Y-121284371D01*
X134905959Y-121163086D01*
X134399866Y-121402611D01*
X134023959Y-121817577D01*
X133863096Y-122205961D01*
X127762000Y-122205961D01*
X127762000Y-121020000D01*
X144502560Y-121020000D01*
X144502560Y-122820000D01*
X144551843Y-123067765D01*
X144692191Y-123277809D01*
X144902235Y-123418157D01*
X145150000Y-123467440D01*
X146950000Y-123467440D01*
X147197765Y-123418157D01*
X147407809Y-123277809D01*
X147548157Y-123067765D01*
X147551275Y-123052092D01*
X147720493Y-123221310D01*
X148284670Y-123455000D01*
X148895330Y-123455000D01*
X149459507Y-123221310D01*
X149891310Y-122789507D01*
X150125000Y-122225330D01*
X150125000Y-121614670D01*
X149891310Y-121050493D01*
X149459507Y-120618690D01*
X148895330Y-120385000D01*
X148284670Y-120385000D01*
X147720493Y-120618690D01*
X147551275Y-120787908D01*
X147548157Y-120772235D01*
X147407809Y-120562191D01*
X147197765Y-120421843D01*
X146950000Y-120372560D01*
X145150000Y-120372560D01*
X144902235Y-120421843D01*
X144692191Y-120562191D01*
X144551843Y-120772235D01*
X144502560Y-121020000D01*
X127762000Y-121020000D01*
X127762000Y-116830446D01*
X128151456Y-117770676D01*
X129244324Y-118863544D01*
X130672225Y-119455000D01*
X132217775Y-119455000D01*
X133089211Y-119094039D01*
X134618096Y-119094039D01*
X134778959Y-119482423D01*
X135154866Y-119897389D01*
X135660959Y-120136914D01*
X135883000Y-120015629D01*
X135883000Y-118872000D01*
X136137000Y-118872000D01*
X136137000Y-120015629D01*
X136359041Y-120136914D01*
X136865134Y-119897389D01*
X137241041Y-119482423D01*
X137401904Y-119094039D01*
X137279915Y-118872000D01*
X136137000Y-118872000D01*
X135883000Y-118872000D01*
X134740085Y-118872000D01*
X134618096Y-119094039D01*
X133089211Y-119094039D01*
X133645676Y-118863544D01*
X134113259Y-118395961D01*
X134618096Y-118395961D01*
X134740085Y-118618000D01*
X135883000Y-118618000D01*
X135883000Y-117474371D01*
X136137000Y-117474371D01*
X136137000Y-118618000D01*
X137279915Y-118618000D01*
X137366961Y-118459561D01*
X142075000Y-118459561D01*
X142075000Y-119030439D01*
X142293466Y-119557862D01*
X142697138Y-119961534D01*
X143224561Y-120180000D01*
X143795439Y-120180000D01*
X144322862Y-119961534D01*
X144726534Y-119557862D01*
X144945000Y-119030439D01*
X144945000Y-118459561D01*
X144726534Y-117932138D01*
X144322862Y-117528466D01*
X143795439Y-117310000D01*
X143224561Y-117310000D01*
X142697138Y-117528466D01*
X142293466Y-117932138D01*
X142075000Y-118459561D01*
X137366961Y-118459561D01*
X137401904Y-118395961D01*
X137241041Y-118007577D01*
X136865134Y-117592611D01*
X136359041Y-117353086D01*
X136137000Y-117474371D01*
X135883000Y-117474371D01*
X135660959Y-117353086D01*
X135154866Y-117592611D01*
X134778959Y-118007577D01*
X134618096Y-118395961D01*
X134113259Y-118395961D01*
X134738544Y-117770676D01*
X135330000Y-116342775D01*
X135330000Y-115469714D01*
X135413959Y-115672423D01*
X135789866Y-116087389D01*
X136295959Y-116326914D01*
X136518000Y-116205629D01*
X136518000Y-115062000D01*
X136772000Y-115062000D01*
X136772000Y-116205629D01*
X136994041Y-116326914D01*
X137500134Y-116087389D01*
X137876041Y-115672423D01*
X138036904Y-115284039D01*
X137914915Y-115062000D01*
X136772000Y-115062000D01*
X136518000Y-115062000D01*
X136498000Y-115062000D01*
X136498000Y-114808000D01*
X136518000Y-114808000D01*
X136518000Y-113664371D01*
X136772000Y-113664371D01*
X136772000Y-114808000D01*
X137914915Y-114808000D01*
X138001961Y-114649561D01*
X142710000Y-114649561D01*
X142710000Y-115220439D01*
X142928466Y-115747862D01*
X143332138Y-116151534D01*
X143859561Y-116370000D01*
X144430439Y-116370000D01*
X144957862Y-116151534D01*
X145361534Y-115747862D01*
X145580000Y-115220439D01*
X145580000Y-115094506D01*
X149110000Y-115094506D01*
X149110000Y-115645494D01*
X149320853Y-116154540D01*
X149710460Y-116544147D01*
X150219506Y-116755000D01*
X150770494Y-116755000D01*
X151279540Y-116544147D01*
X151669147Y-116154540D01*
X151880000Y-115645494D01*
X151880000Y-115094506D01*
X151669147Y-114585460D01*
X151279540Y-114195853D01*
X150770494Y-113985000D01*
X150219506Y-113985000D01*
X149710460Y-114195853D01*
X149320853Y-114585460D01*
X149110000Y-115094506D01*
X145580000Y-115094506D01*
X145580000Y-114649561D01*
X145361534Y-114122138D01*
X144957862Y-113718466D01*
X144430439Y-113500000D01*
X143859561Y-113500000D01*
X143332138Y-113718466D01*
X142928466Y-114122138D01*
X142710000Y-114649561D01*
X138001961Y-114649561D01*
X138036904Y-114585961D01*
X137876041Y-114197577D01*
X137500134Y-113782611D01*
X136994041Y-113543086D01*
X136772000Y-113664371D01*
X136518000Y-113664371D01*
X136295959Y-113543086D01*
X135789866Y-113782611D01*
X135413959Y-114197577D01*
X135253096Y-114585961D01*
X135375084Y-114807998D01*
X135330000Y-114807998D01*
X135330000Y-114797225D01*
X134738544Y-113369324D01*
X133645676Y-112276456D01*
X132217775Y-111685000D01*
X130672225Y-111685000D01*
X129244324Y-112276456D01*
X128151456Y-113369324D01*
X127762000Y-114309554D01*
X127762000Y-111474039D01*
X135133096Y-111474039D01*
X135293959Y-111862423D01*
X135669866Y-112277389D01*
X136175959Y-112516914D01*
X136398000Y-112395629D01*
X136398000Y-111252000D01*
X136652000Y-111252000D01*
X136652000Y-112395629D01*
X136874041Y-112516914D01*
X137380134Y-112277389D01*
X137756041Y-111862423D01*
X137916904Y-111474039D01*
X137794915Y-111252000D01*
X136652000Y-111252000D01*
X136398000Y-111252000D01*
X135255085Y-111252000D01*
X135133096Y-111474039D01*
X127762000Y-111474039D01*
X127762000Y-110775961D01*
X135133096Y-110775961D01*
X135255085Y-110998000D01*
X136398000Y-110998000D01*
X136398000Y-109854371D01*
X136652000Y-109854371D01*
X136652000Y-110998000D01*
X137794915Y-110998000D01*
X137881961Y-110839561D01*
X142710000Y-110839561D01*
X142710000Y-111410439D01*
X142928466Y-111937862D01*
X143332138Y-112341534D01*
X143859561Y-112560000D01*
X144430439Y-112560000D01*
X144957862Y-112341534D01*
X145361534Y-111937862D01*
X145580000Y-111410439D01*
X145580000Y-110839561D01*
X145361534Y-110312138D01*
X145263902Y-110214506D01*
X149110000Y-110214506D01*
X149110000Y-110765494D01*
X149320853Y-111274540D01*
X149710460Y-111664147D01*
X150219506Y-111875000D01*
X150770494Y-111875000D01*
X151279540Y-111664147D01*
X151669147Y-111274540D01*
X151880000Y-110765494D01*
X151880000Y-110214506D01*
X151669147Y-109705460D01*
X151279540Y-109315853D01*
X150770494Y-109105000D01*
X150219506Y-109105000D01*
X149710460Y-109315853D01*
X149320853Y-109705460D01*
X149110000Y-110214506D01*
X145263902Y-110214506D01*
X144957862Y-109908466D01*
X144430439Y-109690000D01*
X143859561Y-109690000D01*
X143332138Y-109908466D01*
X142928466Y-110312138D01*
X142710000Y-110839561D01*
X137881961Y-110839561D01*
X137916904Y-110775961D01*
X137756041Y-110387577D01*
X137380134Y-109972611D01*
X136874041Y-109733086D01*
X136652000Y-109854371D01*
X136398000Y-109854371D01*
X136175959Y-109733086D01*
X135669866Y-109972611D01*
X135293959Y-110387577D01*
X135133096Y-110775961D01*
X127762000Y-110775961D01*
X127762000Y-105106858D01*
X135636000Y-105106858D01*
X135636000Y-105713142D01*
X135868015Y-106273277D01*
X136296723Y-106701985D01*
X136856858Y-106934000D01*
X137463142Y-106934000D01*
X138023277Y-106701985D01*
X138430000Y-106295262D01*
X138836723Y-106701985D01*
X139396858Y-106934000D01*
X140003142Y-106934000D01*
X140563277Y-106701985D01*
X140783066Y-106482196D01*
X141347409Y-106482196D01*
X141432467Y-106737539D01*
X142001965Y-106945516D01*
X142607700Y-106919723D01*
X143047533Y-106737539D01*
X143132591Y-106482196D01*
X142240000Y-105589605D01*
X141347409Y-106482196D01*
X140783066Y-106482196D01*
X140991985Y-106273277D01*
X141002633Y-106247570D01*
X141167804Y-106302591D01*
X142060395Y-105410000D01*
X142419605Y-105410000D01*
X143312196Y-106302591D01*
X143567539Y-106217533D01*
X143775516Y-105648035D01*
X143749723Y-105042300D01*
X143567539Y-104602467D01*
X143312196Y-104517409D01*
X142419605Y-105410000D01*
X142060395Y-105410000D01*
X141167804Y-104517409D01*
X141002633Y-104572430D01*
X140991985Y-104546723D01*
X140783066Y-104337804D01*
X141347409Y-104337804D01*
X142240000Y-105230395D01*
X143132591Y-104337804D01*
X143047533Y-104082461D01*
X142478035Y-103874484D01*
X141872300Y-103900277D01*
X141432467Y-104082461D01*
X141347409Y-104337804D01*
X140783066Y-104337804D01*
X140563277Y-104118015D01*
X140003142Y-103886000D01*
X139396858Y-103886000D01*
X138836723Y-104118015D01*
X138430000Y-104524738D01*
X138023277Y-104118015D01*
X137463142Y-103886000D01*
X136856858Y-103886000D01*
X136296723Y-104118015D01*
X135868015Y-104546723D01*
X135636000Y-105106858D01*
X127762000Y-105106858D01*
X127762000Y-101563834D01*
X130302000Y-101563834D01*
X130302000Y-102271166D01*
X130572684Y-102924656D01*
X131072844Y-103424816D01*
X131726334Y-103695500D01*
X132433666Y-103695500D01*
X133087156Y-103424816D01*
X133587316Y-102924656D01*
X133858000Y-102271166D01*
X133858000Y-101563834D01*
X145542000Y-101563834D01*
X145542000Y-102271166D01*
X145812684Y-102924656D01*
X146312844Y-103424816D01*
X146966334Y-103695500D01*
X147673666Y-103695500D01*
X148327156Y-103424816D01*
X148827316Y-102924656D01*
X149098000Y-102271166D01*
X149098000Y-101563834D01*
X148827316Y-100910344D01*
X148327156Y-100410184D01*
X147673666Y-100139500D01*
X146966334Y-100139500D01*
X146312844Y-100410184D01*
X145812684Y-100910344D01*
X145542000Y-101563834D01*
X133858000Y-101563834D01*
X133587316Y-100910344D01*
X133087156Y-100410184D01*
X132433666Y-100139500D01*
X131726334Y-100139500D01*
X131072844Y-100410184D01*
X130572684Y-100910344D01*
X130302000Y-101563834D01*
X127762000Y-101563834D01*
X127762000Y-98862196D01*
X128647409Y-98862196D01*
X128732467Y-99117539D01*
X129301965Y-99325516D01*
X129907700Y-99299723D01*
X130347533Y-99117539D01*
X130432591Y-98862196D01*
X129540000Y-97969605D01*
X128647409Y-98862196D01*
X127762000Y-98862196D01*
X127762000Y-97551965D01*
X128004484Y-97551965D01*
X128030277Y-98157700D01*
X128212461Y-98597533D01*
X128467804Y-98682591D01*
X129360395Y-97790000D01*
X129719605Y-97790000D01*
X130612196Y-98682591D01*
X130867539Y-98597533D01*
X131075516Y-98028035D01*
X131049723Y-97422300D01*
X130867539Y-96982467D01*
X130612196Y-96897409D01*
X129719605Y-97790000D01*
X129360395Y-97790000D01*
X128467804Y-96897409D01*
X128212461Y-96982467D01*
X128004484Y-97551965D01*
X127762000Y-97551965D01*
X127762000Y-92406858D01*
X128016000Y-92406858D01*
X128016000Y-93013142D01*
X128248015Y-93573277D01*
X128654738Y-93980000D01*
X128248015Y-94386723D01*
X128016000Y-94946858D01*
X128016000Y-95553142D01*
X128248015Y-96113277D01*
X128676723Y-96541985D01*
X128702430Y-96552633D01*
X128647409Y-96717804D01*
X129540000Y-97610395D01*
X130432591Y-96717804D01*
X130377570Y-96552633D01*
X130403277Y-96541985D01*
X130831985Y-96113277D01*
X131064000Y-95553142D01*
X131064000Y-94946858D01*
X130831985Y-94386723D01*
X130425262Y-93980000D01*
X130831985Y-93573277D01*
X131064000Y-93013142D01*
X131064000Y-92406858D01*
X130831985Y-91846723D01*
X130403277Y-91418015D01*
X129843142Y-91186000D01*
X129236858Y-91186000D01*
X128676723Y-91418015D01*
X128248015Y-91846723D01*
X128016000Y-92406858D01*
X127762000Y-92406858D01*
X127762000Y-88228834D01*
X130302000Y-88228834D01*
X130302000Y-88936166D01*
X130572684Y-89589656D01*
X131072844Y-90089816D01*
X131726334Y-90360500D01*
X132433666Y-90360500D01*
X133087156Y-90089816D01*
X133587316Y-89589656D01*
X133858000Y-88936166D01*
X133858000Y-88228834D01*
X133587316Y-87575344D01*
X133338830Y-87326858D01*
X135001000Y-87326858D01*
X135001000Y-87933142D01*
X135233015Y-88493277D01*
X135661723Y-88921985D01*
X136221858Y-89154000D01*
X136828142Y-89154000D01*
X137388277Y-88921985D01*
X137816985Y-88493277D01*
X138049000Y-87933142D01*
X138049000Y-87326858D01*
X137816985Y-86766723D01*
X137388277Y-86338015D01*
X136828142Y-86106000D01*
X136221858Y-86106000D01*
X135661723Y-86338015D01*
X135233015Y-86766723D01*
X135001000Y-87326858D01*
X133338830Y-87326858D01*
X133087156Y-87075184D01*
X132433666Y-86804500D01*
X131726334Y-86804500D01*
X131072844Y-87075184D01*
X130572684Y-87575344D01*
X130302000Y-88228834D01*
X127762000Y-88228834D01*
X127762000Y-82246858D01*
X135001000Y-82246858D01*
X135001000Y-82853142D01*
X135233015Y-83413277D01*
X135661723Y-83841985D01*
X136221858Y-84074000D01*
X136828142Y-84074000D01*
X137388277Y-83841985D01*
X137816985Y-83413277D01*
X138049000Y-82853142D01*
X138049000Y-82246858D01*
X137816985Y-81686723D01*
X137388277Y-81258015D01*
X136828142Y-81026000D01*
X136221858Y-81026000D01*
X135661723Y-81258015D01*
X135233015Y-81686723D01*
X135001000Y-82246858D01*
X127762000Y-82246858D01*
X127762000Y-77144778D01*
X129175000Y-77144778D01*
X129175000Y-77795222D01*
X129423914Y-78396153D01*
X129883847Y-78856086D01*
X130484778Y-79105000D01*
X131135222Y-79105000D01*
X131736153Y-78856086D01*
X132196086Y-78396153D01*
X132445000Y-77795222D01*
X132445000Y-77144778D01*
X132196086Y-76543847D01*
X131736153Y-76083914D01*
X131135222Y-75835000D01*
X130484778Y-75835000D01*
X129883847Y-76083914D01*
X129423914Y-76543847D01*
X129175000Y-77144778D01*
X127762000Y-77144778D01*
X127762000Y-70644778D01*
X129175000Y-70644778D01*
X129175000Y-71295222D01*
X129423914Y-71896153D01*
X129883847Y-72356086D01*
X130484778Y-72605000D01*
X131135222Y-72605000D01*
X131736153Y-72356086D01*
X132196086Y-71896153D01*
X132445000Y-71295222D01*
X132445000Y-70644778D01*
X132196086Y-70043847D01*
X131736153Y-69583914D01*
X131135222Y-69335000D01*
X130484778Y-69335000D01*
X129883847Y-69583914D01*
X129423914Y-70043847D01*
X129175000Y-70644778D01*
X127762000Y-70644778D01*
X127762000Y-65140000D01*
X129262560Y-65140000D01*
X129262560Y-66940000D01*
X129311843Y-67187765D01*
X129452191Y-67397809D01*
X129662235Y-67538157D01*
X129910000Y-67587440D01*
X131710000Y-67587440D01*
X131957765Y-67538157D01*
X132167809Y-67397809D01*
X132308157Y-67187765D01*
X132311275Y-67172092D01*
X132480493Y-67341310D01*
X133044670Y-67575000D01*
X133655330Y-67575000D01*
X134219507Y-67341310D01*
X134388725Y-67172092D01*
X134391843Y-67187765D01*
X134532191Y-67397809D01*
X134742235Y-67538157D01*
X134990000Y-67587440D01*
X136790000Y-67587440D01*
X137037765Y-67538157D01*
X137247809Y-67397809D01*
X137388157Y-67187765D01*
X137391275Y-67172092D01*
X137560493Y-67341310D01*
X138124670Y-67575000D01*
X138735330Y-67575000D01*
X139143655Y-67405866D01*
X140325000Y-67405866D01*
X140325000Y-68454134D01*
X140726155Y-69422608D01*
X141467392Y-70163845D01*
X142435866Y-70565000D01*
X143484134Y-70565000D01*
X144452608Y-70163845D01*
X145193845Y-69422608D01*
X145595000Y-68454134D01*
X145595000Y-67405866D01*
X149125000Y-67405866D01*
X149125000Y-68454134D01*
X149526155Y-69422608D01*
X150267392Y-70163845D01*
X151235866Y-70565000D01*
X152284134Y-70565000D01*
X152996327Y-70270000D01*
X168682560Y-70270000D01*
X168682560Y-71970000D01*
X168731843Y-72217765D01*
X168872191Y-72427809D01*
X169082235Y-72568157D01*
X169330000Y-72617440D01*
X171030000Y-72617440D01*
X171277765Y-72568157D01*
X171487809Y-72427809D01*
X171628157Y-72217765D01*
X171637184Y-72172381D01*
X171649375Y-72190625D01*
X172140582Y-72518839D01*
X172573744Y-72605000D01*
X172866256Y-72605000D01*
X173299418Y-72518839D01*
X173790625Y-72190625D01*
X173990000Y-71892239D01*
X174189375Y-72190625D01*
X174680582Y-72518839D01*
X175113744Y-72605000D01*
X175406256Y-72605000D01*
X175839418Y-72518839D01*
X176330625Y-72190625D01*
X176658839Y-71699418D01*
X176774092Y-71120000D01*
X176658839Y-70540582D01*
X176330625Y-70049375D01*
X175839418Y-69721161D01*
X175406256Y-69635000D01*
X175113744Y-69635000D01*
X174680582Y-69721161D01*
X174189375Y-70049375D01*
X173990000Y-70347761D01*
X173790625Y-70049375D01*
X173299418Y-69721161D01*
X172866256Y-69635000D01*
X172573744Y-69635000D01*
X172140582Y-69721161D01*
X171649375Y-70049375D01*
X171637184Y-70067619D01*
X171628157Y-70022235D01*
X171487809Y-69812191D01*
X171277765Y-69671843D01*
X171030000Y-69622560D01*
X169330000Y-69622560D01*
X169082235Y-69671843D01*
X168872191Y-69812191D01*
X168731843Y-70022235D01*
X168682560Y-70270000D01*
X152996327Y-70270000D01*
X153252608Y-70163845D01*
X153993845Y-69422608D01*
X154395000Y-68454134D01*
X154395000Y-67405866D01*
X154265500Y-67093223D01*
X161653035Y-67093223D01*
X161680222Y-67663454D01*
X161846136Y-68064005D01*
X162092255Y-68138139D01*
X162920395Y-67310000D01*
X162092255Y-66481861D01*
X161846136Y-66555995D01*
X161653035Y-67093223D01*
X154265500Y-67093223D01*
X153993845Y-66437392D01*
X153858708Y-66302255D01*
X162271861Y-66302255D01*
X163100000Y-67130395D01*
X163114142Y-67116252D01*
X163293748Y-67295858D01*
X163279605Y-67310000D01*
X163293748Y-67324143D01*
X163114142Y-67503748D01*
X163100000Y-67489605D01*
X162271861Y-68317745D01*
X162345995Y-68563864D01*
X162883223Y-68756965D01*
X163453454Y-68729778D01*
X163843067Y-68568395D01*
X164052235Y-68708157D01*
X164300000Y-68757440D01*
X165900000Y-68757440D01*
X166147765Y-68708157D01*
X166357809Y-68567809D01*
X166386307Y-68525159D01*
X177485000Y-68525159D01*
X177485000Y-69314841D01*
X177787199Y-70044412D01*
X178345588Y-70602801D01*
X179075159Y-70905000D01*
X179864841Y-70905000D01*
X180594412Y-70602801D01*
X181152801Y-70044412D01*
X181160000Y-70027031D01*
X181160000Y-72625153D01*
X181145112Y-72700000D01*
X181160000Y-72774847D01*
X181160000Y-72774851D01*
X181204096Y-72996536D01*
X181372071Y-73247929D01*
X181435530Y-73290331D01*
X188830000Y-80684802D01*
X188830000Y-80850874D01*
X188987569Y-81231280D01*
X189278720Y-81522431D01*
X189659126Y-81680000D01*
X190070874Y-81680000D01*
X190451280Y-81522431D01*
X190742431Y-81231280D01*
X190900000Y-80850874D01*
X190900000Y-80439126D01*
X190742431Y-80058720D01*
X190451280Y-79767569D01*
X190070874Y-79610000D01*
X189904802Y-79610000D01*
X186864802Y-76570000D01*
X196572560Y-76570000D01*
X196572560Y-78370000D01*
X196621843Y-78617765D01*
X196762191Y-78827809D01*
X196972235Y-78968157D01*
X197220000Y-79017440D01*
X199020000Y-79017440D01*
X199267765Y-78968157D01*
X199477809Y-78827809D01*
X199618157Y-78617765D01*
X199621275Y-78602092D01*
X199790493Y-78771310D01*
X200354670Y-79005000D01*
X200965330Y-79005000D01*
X201529507Y-78771310D01*
X201961310Y-78339507D01*
X202195000Y-77775330D01*
X202195000Y-77755750D01*
X203073000Y-77755750D01*
X203073000Y-78358309D01*
X203169673Y-78591698D01*
X203348301Y-78770327D01*
X203581690Y-78867000D01*
X204184250Y-78867000D01*
X204343000Y-78708250D01*
X204343000Y-77597000D01*
X203231750Y-77597000D01*
X203073000Y-77755750D01*
X202195000Y-77755750D01*
X202195000Y-77164670D01*
X201961310Y-76600493D01*
X201529507Y-76168690D01*
X200965330Y-75935000D01*
X200354670Y-75935000D01*
X199790493Y-76168690D01*
X199621275Y-76337908D01*
X199618157Y-76322235D01*
X199477809Y-76112191D01*
X199267765Y-75971843D01*
X199020000Y-75922560D01*
X197220000Y-75922560D01*
X196972235Y-75971843D01*
X196762191Y-76112191D01*
X196621843Y-76322235D01*
X196572560Y-76570000D01*
X186864802Y-76570000D01*
X184946921Y-74652119D01*
X203073000Y-74652119D01*
X203073000Y-75207881D01*
X203285680Y-75721337D01*
X203637343Y-76073000D01*
X203581690Y-76073000D01*
X203348301Y-76169673D01*
X203169673Y-76348302D01*
X203073000Y-76581691D01*
X203073000Y-77184250D01*
X203231750Y-77343000D01*
X204343000Y-77343000D01*
X204343000Y-77323000D01*
X204597000Y-77323000D01*
X204597000Y-77343000D01*
X204617000Y-77343000D01*
X204617000Y-77597000D01*
X204597000Y-77597000D01*
X204597000Y-78708250D01*
X204755750Y-78867000D01*
X205358310Y-78867000D01*
X205591699Y-78770327D01*
X205770327Y-78591698D01*
X205867000Y-78358309D01*
X205867000Y-78302657D01*
X206218663Y-78654320D01*
X206732119Y-78867000D01*
X207287881Y-78867000D01*
X207801337Y-78654320D01*
X208194320Y-78261337D01*
X208280000Y-78054487D01*
X208365680Y-78261337D01*
X208758663Y-78654320D01*
X209272119Y-78867000D01*
X209827881Y-78867000D01*
X210341337Y-78654320D01*
X210734320Y-78261337D01*
X210820000Y-78054487D01*
X210905680Y-78261337D01*
X211298663Y-78654320D01*
X211812119Y-78867000D01*
X212367881Y-78867000D01*
X212881337Y-78654320D01*
X213274320Y-78261337D01*
X213487000Y-77747881D01*
X213487000Y-77192119D01*
X213274320Y-76678663D01*
X212881337Y-76285680D01*
X212674487Y-76200000D01*
X212881337Y-76114320D01*
X213274320Y-75721337D01*
X213487000Y-75207881D01*
X213487000Y-74652119D01*
X213274320Y-74138663D01*
X212881337Y-73745680D01*
X212367881Y-73533000D01*
X211812119Y-73533000D01*
X211298663Y-73745680D01*
X210905680Y-74138663D01*
X210820000Y-74345513D01*
X210734320Y-74138663D01*
X210341337Y-73745680D01*
X209827881Y-73533000D01*
X209272119Y-73533000D01*
X208758663Y-73745680D01*
X208365680Y-74138663D01*
X208280000Y-74345513D01*
X208194320Y-74138663D01*
X207801337Y-73745680D01*
X207287881Y-73533000D01*
X206732119Y-73533000D01*
X206218663Y-73745680D01*
X205825680Y-74138663D01*
X205740000Y-74345513D01*
X205654320Y-74138663D01*
X205261337Y-73745680D01*
X204747881Y-73533000D01*
X204192119Y-73533000D01*
X203678663Y-73745680D01*
X203285680Y-74138663D01*
X203073000Y-74652119D01*
X184946921Y-74652119D01*
X182680000Y-72385199D01*
X182680000Y-69725159D01*
X185885000Y-69725159D01*
X185885000Y-70514841D01*
X186187199Y-71244412D01*
X186745588Y-71802801D01*
X187475159Y-72105000D01*
X188264841Y-72105000D01*
X188994412Y-71802801D01*
X189552801Y-71244412D01*
X189855000Y-70514841D01*
X189855000Y-69725159D01*
X189552801Y-68995588D01*
X189507213Y-68950000D01*
X196572560Y-68950000D01*
X196572560Y-70750000D01*
X196621843Y-70997765D01*
X196762191Y-71207809D01*
X196972235Y-71348157D01*
X197220000Y-71397440D01*
X199020000Y-71397440D01*
X199267765Y-71348157D01*
X199477809Y-71207809D01*
X199618157Y-70997765D01*
X199621275Y-70982092D01*
X199790493Y-71151310D01*
X200354670Y-71385000D01*
X200965330Y-71385000D01*
X201529507Y-71151310D01*
X201961310Y-70719507D01*
X202195000Y-70155330D01*
X202195000Y-69544670D01*
X201961310Y-68980493D01*
X201529507Y-68548690D01*
X200965330Y-68315000D01*
X200354670Y-68315000D01*
X199790493Y-68548690D01*
X199621275Y-68717908D01*
X199618157Y-68702235D01*
X199477809Y-68492191D01*
X199267765Y-68351843D01*
X199020000Y-68302560D01*
X198880000Y-68302560D01*
X198880000Y-66008430D01*
X198932862Y-65986534D01*
X199336534Y-65582862D01*
X199555000Y-65055439D01*
X199555000Y-64484561D01*
X199336534Y-63957138D01*
X198932862Y-63553466D01*
X198405439Y-63335000D01*
X197834561Y-63335000D01*
X197307138Y-63553466D01*
X196903466Y-63957138D01*
X196685000Y-64484561D01*
X196685000Y-65055439D01*
X196903466Y-65582862D01*
X197307138Y-65986534D01*
X197360001Y-66008430D01*
X197360000Y-68302560D01*
X197220000Y-68302560D01*
X196972235Y-68351843D01*
X196762191Y-68492191D01*
X196621843Y-68702235D01*
X196572560Y-68950000D01*
X189507213Y-68950000D01*
X188994412Y-68437199D01*
X188264841Y-68135000D01*
X187475159Y-68135000D01*
X186745588Y-68437199D01*
X186187199Y-68995588D01*
X185885000Y-69725159D01*
X182680000Y-69725159D01*
X182680000Y-66089610D01*
X182775346Y-66050116D01*
X183200116Y-65625346D01*
X183430000Y-65070358D01*
X183430000Y-64469642D01*
X183200116Y-63914654D01*
X183180462Y-63895000D01*
X183897560Y-63895000D01*
X183897560Y-65645000D01*
X183946843Y-65892765D01*
X184087191Y-66102809D01*
X184297235Y-66243157D01*
X184545000Y-66292440D01*
X186295000Y-66292440D01*
X186542765Y-66243157D01*
X186752809Y-66102809D01*
X186893157Y-65892765D01*
X186942440Y-65645000D01*
X186942440Y-63895000D01*
X186893157Y-63647235D01*
X186752809Y-63437191D01*
X186542765Y-63296843D01*
X186295000Y-63247560D01*
X184545000Y-63247560D01*
X184297235Y-63296843D01*
X184087191Y-63437191D01*
X183946843Y-63647235D01*
X183897560Y-63895000D01*
X183180462Y-63895000D01*
X182775346Y-63489884D01*
X182220358Y-63260000D01*
X181619642Y-63260000D01*
X181064654Y-63489884D01*
X180639884Y-63914654D01*
X180410000Y-64469642D01*
X180410000Y-65070358D01*
X180639884Y-65625346D01*
X181064654Y-66050116D01*
X181160001Y-66089610D01*
X181160001Y-67812969D01*
X181152801Y-67795588D01*
X180594412Y-67237199D01*
X179864841Y-66935000D01*
X179075159Y-66935000D01*
X178345588Y-67237199D01*
X177787199Y-67795588D01*
X177485000Y-68525159D01*
X166386307Y-68525159D01*
X166498157Y-68357765D01*
X166547440Y-68110000D01*
X166547440Y-66510000D01*
X166498157Y-66262235D01*
X166357809Y-66052191D01*
X166147765Y-65911843D01*
X165900000Y-65862560D01*
X164300000Y-65862560D01*
X164052235Y-65911843D01*
X163842484Y-66051995D01*
X163316777Y-65863035D01*
X162746546Y-65890222D01*
X162345995Y-66056136D01*
X162271861Y-66302255D01*
X153858708Y-66302255D01*
X153252608Y-65696155D01*
X152284134Y-65295000D01*
X151235866Y-65295000D01*
X150267392Y-65696155D01*
X149526155Y-66437392D01*
X149125000Y-67405866D01*
X145595000Y-67405866D01*
X145193845Y-66437392D01*
X144452608Y-65696155D01*
X143484134Y-65295000D01*
X142435866Y-65295000D01*
X141467392Y-65696155D01*
X140726155Y-66437392D01*
X140325000Y-67405866D01*
X139143655Y-67405866D01*
X139299507Y-67341310D01*
X139731310Y-66909507D01*
X139965000Y-66345330D01*
X139965000Y-65734670D01*
X139759704Y-65239041D01*
X156088086Y-65239041D01*
X156327611Y-65745134D01*
X156742577Y-66121041D01*
X157130961Y-66281904D01*
X157353000Y-66159915D01*
X157353000Y-65017000D01*
X157607000Y-65017000D01*
X157607000Y-66159915D01*
X157829039Y-66281904D01*
X158217423Y-66121041D01*
X158632389Y-65745134D01*
X158871914Y-65239041D01*
X158750629Y-65017000D01*
X157607000Y-65017000D01*
X157353000Y-65017000D01*
X156209371Y-65017000D01*
X156088086Y-65239041D01*
X139759704Y-65239041D01*
X139731310Y-65170493D01*
X139299507Y-64738690D01*
X138822143Y-64540959D01*
X156088086Y-64540959D01*
X156209371Y-64763000D01*
X157353000Y-64763000D01*
X157353000Y-63620085D01*
X157607000Y-63620085D01*
X157607000Y-64763000D01*
X158750629Y-64763000D01*
X158871914Y-64540959D01*
X158632389Y-64034866D01*
X158217423Y-63658959D01*
X157829039Y-63498096D01*
X157607000Y-63620085D01*
X157353000Y-63620085D01*
X157130961Y-63498096D01*
X156742577Y-63658959D01*
X156327611Y-64034866D01*
X156088086Y-64540959D01*
X138822143Y-64540959D01*
X138735330Y-64505000D01*
X138124670Y-64505000D01*
X137560493Y-64738690D01*
X137391275Y-64907908D01*
X137388157Y-64892235D01*
X137247809Y-64682191D01*
X137037765Y-64541843D01*
X136790000Y-64492560D01*
X134990000Y-64492560D01*
X134742235Y-64541843D01*
X134532191Y-64682191D01*
X134391843Y-64892235D01*
X134388725Y-64907908D01*
X134219507Y-64738690D01*
X133655330Y-64505000D01*
X133044670Y-64505000D01*
X132480493Y-64738690D01*
X132311275Y-64907908D01*
X132308157Y-64892235D01*
X132167809Y-64682191D01*
X131957765Y-64541843D01*
X131710000Y-64492560D01*
X129910000Y-64492560D01*
X129662235Y-64541843D01*
X129452191Y-64682191D01*
X129311843Y-64892235D01*
X129262560Y-65140000D01*
X127762000Y-65140000D01*
X127762000Y-59404561D01*
X129375000Y-59404561D01*
X129375000Y-59975439D01*
X129593466Y-60502862D01*
X129997138Y-60906534D01*
X130524561Y-61125000D01*
X131095439Y-61125000D01*
X131622862Y-60906534D01*
X132026534Y-60502862D01*
X132245000Y-59975439D01*
X132245000Y-59404561D01*
X134455000Y-59404561D01*
X134455000Y-59975439D01*
X134673466Y-60502862D01*
X135077138Y-60906534D01*
X135604561Y-61125000D01*
X136175439Y-61125000D01*
X136702862Y-60906534D01*
X137106534Y-60502862D01*
X137325000Y-59975439D01*
X137325000Y-59404561D01*
X137106534Y-58877138D01*
X136919396Y-58690000D01*
X152070060Y-58690000D01*
X152070060Y-60690000D01*
X152119343Y-60937765D01*
X152259691Y-61147809D01*
X152469735Y-61288157D01*
X152717500Y-61337440D01*
X154622500Y-61337440D01*
X154870265Y-61288157D01*
X155080309Y-61147809D01*
X155217255Y-60942857D01*
X155343076Y-61065973D01*
X155837020Y-61280563D01*
X156083000Y-61160594D01*
X156083000Y-59817000D01*
X156063000Y-59817000D01*
X156063000Y-59563000D01*
X156083000Y-59563000D01*
X156083000Y-59543000D01*
X156337000Y-59543000D01*
X156337000Y-59563000D01*
X156357000Y-59563000D01*
X156357000Y-59817000D01*
X156337000Y-59817000D01*
X156337000Y-61160594D01*
X156582980Y-61280563D01*
X157076924Y-61065973D01*
X157470841Y-60680526D01*
X157605477Y-60882023D01*
X158130590Y-61232891D01*
X158750000Y-61356100D01*
X159369411Y-61232891D01*
X159894523Y-60882023D01*
X160245391Y-60356910D01*
X160337500Y-59893849D01*
X160337500Y-59486150D01*
X160245391Y-59023089D01*
X159894523Y-58497977D01*
X159369410Y-58147109D01*
X158750000Y-58023900D01*
X158130589Y-58147109D01*
X157605477Y-58497977D01*
X157470841Y-58699474D01*
X157076924Y-58314027D01*
X156582980Y-58099437D01*
X156351977Y-58212101D01*
X158219080Y-56344999D01*
X169242840Y-56344999D01*
X169295000Y-56355374D01*
X169295001Y-59602835D01*
X169277663Y-59690000D01*
X169346348Y-60035309D01*
X169492576Y-60254154D01*
X169492578Y-60254156D01*
X169541952Y-60328049D01*
X169615845Y-60377423D01*
X169952560Y-60714138D01*
X169952560Y-61810000D01*
X170001843Y-62057765D01*
X170142191Y-62267809D01*
X170352235Y-62408157D01*
X170600000Y-62457440D01*
X172300000Y-62457440D01*
X172547765Y-62408157D01*
X172757809Y-62267809D01*
X172898157Y-62057765D01*
X172918739Y-61954292D01*
X173223076Y-62231645D01*
X173633110Y-62401476D01*
X173863000Y-62280155D01*
X173863000Y-61087000D01*
X174117000Y-61087000D01*
X174117000Y-62280155D01*
X174346890Y-62401476D01*
X174756924Y-62231645D01*
X175185183Y-61841358D01*
X175431486Y-61316892D01*
X175310819Y-61087000D01*
X174117000Y-61087000D01*
X173863000Y-61087000D01*
X173843000Y-61087000D01*
X173843000Y-60833000D01*
X173863000Y-60833000D01*
X173863000Y-59639845D01*
X174117000Y-59639845D01*
X174117000Y-60833000D01*
X175310819Y-60833000D01*
X175431486Y-60603108D01*
X175185183Y-60078642D01*
X174756924Y-59688355D01*
X174346890Y-59518524D01*
X174117000Y-59639845D01*
X173863000Y-59639845D01*
X173633110Y-59518524D01*
X173223076Y-59688355D01*
X172918739Y-59965708D01*
X172898157Y-59862235D01*
X172757809Y-59652191D01*
X172547765Y-59511843D01*
X172300000Y-59462560D01*
X171204138Y-59462560D01*
X171065000Y-59323422D01*
X171065000Y-57948660D01*
X172100496Y-58984156D01*
X172149870Y-59058049D01*
X172223763Y-59107423D01*
X172223764Y-59107424D01*
X172251333Y-59125845D01*
X172442609Y-59253652D01*
X172700754Y-59305000D01*
X172700758Y-59305000D01*
X172787918Y-59322337D01*
X172875078Y-59305000D01*
X183600922Y-59305000D01*
X184550077Y-60254156D01*
X184599451Y-60328049D01*
X184673344Y-60377423D01*
X184673345Y-60377424D01*
X184700914Y-60395845D01*
X184892190Y-60523652D01*
X185090060Y-60563011D01*
X185090060Y-60690000D01*
X185139343Y-60937765D01*
X185279691Y-61147809D01*
X185489735Y-61288157D01*
X185737500Y-61337440D01*
X187642500Y-61337440D01*
X187890265Y-61288157D01*
X188100309Y-61147809D01*
X188237255Y-60942857D01*
X188363076Y-61065973D01*
X188857020Y-61280563D01*
X189103000Y-61160594D01*
X189103000Y-59817000D01*
X189083000Y-59817000D01*
X189083000Y-59563000D01*
X189103000Y-59563000D01*
X189103000Y-58219406D01*
X189357000Y-58219406D01*
X189357000Y-59563000D01*
X189377000Y-59563000D01*
X189377000Y-59817000D01*
X189357000Y-59817000D01*
X189357000Y-61160594D01*
X189602980Y-61280563D01*
X190096924Y-61065973D01*
X190490841Y-60680526D01*
X190625477Y-60882023D01*
X191150590Y-61232891D01*
X191770000Y-61356100D01*
X192389411Y-61232891D01*
X192914523Y-60882023D01*
X193265391Y-60356910D01*
X193357500Y-59893849D01*
X193357500Y-59486150D01*
X193265391Y-59023089D01*
X192914523Y-58497977D01*
X192389410Y-58147109D01*
X191770000Y-58023900D01*
X191150589Y-58147109D01*
X190625477Y-58497977D01*
X190490841Y-58699474D01*
X190096924Y-58314027D01*
X189602980Y-58099437D01*
X189357000Y-58219406D01*
X189103000Y-58219406D01*
X188857020Y-58099437D01*
X188363076Y-58314027D01*
X188237255Y-58437143D01*
X188100309Y-58232191D01*
X187890265Y-58091843D01*
X187642500Y-58042560D01*
X185737500Y-58042560D01*
X185489735Y-58091843D01*
X185279691Y-58232191D01*
X185180187Y-58381108D01*
X184654925Y-57855847D01*
X184605549Y-57781951D01*
X184312810Y-57586348D01*
X184054665Y-57535000D01*
X184054661Y-57535000D01*
X183967500Y-57517663D01*
X183880339Y-57535000D01*
X173154498Y-57535000D01*
X173118539Y-57499041D01*
X196728086Y-57499041D01*
X196967611Y-58005134D01*
X197382577Y-58381041D01*
X197770961Y-58541904D01*
X197993000Y-58419915D01*
X197993000Y-57277000D01*
X198247000Y-57277000D01*
X198247000Y-58419915D01*
X198469039Y-58541904D01*
X198857423Y-58381041D01*
X199272389Y-58005134D01*
X199511914Y-57499041D01*
X199390629Y-57277000D01*
X198247000Y-57277000D01*
X197993000Y-57277000D01*
X196849371Y-57277000D01*
X196728086Y-57499041D01*
X173118539Y-57499041D01*
X172420457Y-56800959D01*
X196728086Y-56800959D01*
X196849371Y-57023000D01*
X197993000Y-57023000D01*
X197993000Y-55880085D01*
X198247000Y-55880085D01*
X198247000Y-57023000D01*
X199390629Y-57023000D01*
X199511914Y-56800959D01*
X199272389Y-56294866D01*
X198857423Y-55918959D01*
X198469039Y-55758096D01*
X198247000Y-55880085D01*
X197993000Y-55880085D01*
X197770961Y-55758096D01*
X197382577Y-55918959D01*
X196967611Y-56294866D01*
X196728086Y-56800959D01*
X172420457Y-56800959D01*
X171270451Y-55650954D01*
X171450000Y-55382239D01*
X171649375Y-55680625D01*
X172140582Y-56008839D01*
X172573744Y-56095000D01*
X172866256Y-56095000D01*
X173299418Y-56008839D01*
X173790625Y-55680625D01*
X173802816Y-55662381D01*
X173811843Y-55707765D01*
X173952191Y-55917809D01*
X174162235Y-56058157D01*
X174410000Y-56107440D01*
X176110000Y-56107440D01*
X176357765Y-56058157D01*
X176567809Y-55917809D01*
X176708157Y-55707765D01*
X176757440Y-55460000D01*
X176757440Y-53760000D01*
X176708157Y-53512235D01*
X176567809Y-53302191D01*
X176357765Y-53161843D01*
X176110000Y-53112560D01*
X174410000Y-53112560D01*
X174162235Y-53161843D01*
X173952191Y-53302191D01*
X173811843Y-53512235D01*
X173802816Y-53557619D01*
X173790625Y-53539375D01*
X173299418Y-53211161D01*
X172866256Y-53125000D01*
X172573744Y-53125000D01*
X172140582Y-53211161D01*
X171649375Y-53539375D01*
X171450000Y-53837761D01*
X171250625Y-53539375D01*
X170759418Y-53211161D01*
X170326256Y-53125000D01*
X170033744Y-53125000D01*
X169600582Y-53211161D01*
X169109375Y-53539375D01*
X168781161Y-54030582D01*
X168672870Y-54574999D01*
X166373050Y-54574999D01*
X166498157Y-54387765D01*
X166547440Y-54140000D01*
X166547440Y-52540000D01*
X166498157Y-52292235D01*
X166357809Y-52082191D01*
X166147765Y-51941843D01*
X165900000Y-51892560D01*
X164300000Y-51892560D01*
X164052235Y-51941843D01*
X163842484Y-52081995D01*
X163316777Y-51893035D01*
X162746546Y-51920222D01*
X162345995Y-52086136D01*
X162271861Y-52332255D01*
X163100000Y-53160395D01*
X163114142Y-53146252D01*
X163293748Y-53325858D01*
X163279605Y-53340000D01*
X163293748Y-53354143D01*
X163114142Y-53533748D01*
X163100000Y-53519605D01*
X162271861Y-54347745D01*
X162340313Y-54574999D01*
X157939662Y-54574999D01*
X157852501Y-54557662D01*
X157765340Y-54574999D01*
X157765336Y-54574999D01*
X157507191Y-54626347D01*
X157288346Y-54772575D01*
X157288345Y-54772576D01*
X157214452Y-54821950D01*
X157165078Y-54895843D01*
X154018362Y-58042560D01*
X152717500Y-58042560D01*
X152469735Y-58091843D01*
X152259691Y-58232191D01*
X152119343Y-58442235D01*
X152070060Y-58690000D01*
X136919396Y-58690000D01*
X136702862Y-58473466D01*
X136175439Y-58255000D01*
X135604561Y-58255000D01*
X135077138Y-58473466D01*
X134673466Y-58877138D01*
X134455000Y-59404561D01*
X132245000Y-59404561D01*
X132026534Y-58877138D01*
X131622862Y-58473466D01*
X131095439Y-58255000D01*
X130524561Y-58255000D01*
X129997138Y-58473466D01*
X129593466Y-58877138D01*
X129375000Y-59404561D01*
X127762000Y-59404561D01*
X127762000Y-52419041D01*
X129418086Y-52419041D01*
X129657611Y-52925134D01*
X130072577Y-53301041D01*
X130460961Y-53461904D01*
X130683000Y-53339915D01*
X130683000Y-52197000D01*
X130937000Y-52197000D01*
X130937000Y-53339915D01*
X131159039Y-53461904D01*
X131547423Y-53301041D01*
X131962389Y-52925134D01*
X132201914Y-52419041D01*
X134498086Y-52419041D01*
X134737611Y-52925134D01*
X135152577Y-53301041D01*
X135540961Y-53461904D01*
X135763000Y-53339915D01*
X135763000Y-52197000D01*
X136017000Y-52197000D01*
X136017000Y-53339915D01*
X136239039Y-53461904D01*
X136627423Y-53301041D01*
X137042389Y-52925134D01*
X137281914Y-52419041D01*
X137160629Y-52197000D01*
X136017000Y-52197000D01*
X135763000Y-52197000D01*
X134619371Y-52197000D01*
X134498086Y-52419041D01*
X132201914Y-52419041D01*
X132080629Y-52197000D01*
X130937000Y-52197000D01*
X130683000Y-52197000D01*
X129539371Y-52197000D01*
X129418086Y-52419041D01*
X127762000Y-52419041D01*
X127762000Y-51720959D01*
X129418086Y-51720959D01*
X129539371Y-51943000D01*
X130683000Y-51943000D01*
X130683000Y-50800085D01*
X130937000Y-50800085D01*
X130937000Y-51943000D01*
X132080629Y-51943000D01*
X132201914Y-51720959D01*
X134498086Y-51720959D01*
X134619371Y-51943000D01*
X135763000Y-51943000D01*
X135763000Y-50800085D01*
X136017000Y-50800085D01*
X136017000Y-51943000D01*
X137160629Y-51943000D01*
X137281914Y-51720959D01*
X137042389Y-51214866D01*
X136627423Y-50838959D01*
X136239039Y-50678096D01*
X136017000Y-50800085D01*
X135763000Y-50800085D01*
X135540961Y-50678096D01*
X135152577Y-50838959D01*
X134737611Y-51214866D01*
X134498086Y-51720959D01*
X132201914Y-51720959D01*
X131962389Y-51214866D01*
X131547423Y-50838959D01*
X131159039Y-50678096D01*
X130937000Y-50800085D01*
X130683000Y-50800085D01*
X130460961Y-50678096D01*
X130072577Y-50838959D01*
X129657611Y-51214866D01*
X129418086Y-51720959D01*
X127762000Y-51720959D01*
X127762000Y-49582606D01*
X128322606Y-49022000D01*
X146778780Y-49022000D01*
X145931456Y-49869324D01*
X145931456Y-49869324D01*
G37*
X145931456Y-49869324D02*
X145340000Y-51297225D01*
X145340000Y-52842775D01*
X145931456Y-54270676D01*
X147024324Y-55363544D01*
X148452225Y-55955000D01*
X149997775Y-55955000D01*
X151425676Y-55363544D01*
X152518544Y-54270676D01*
X152993834Y-53123223D01*
X161653035Y-53123223D01*
X161680222Y-53693454D01*
X161846136Y-54094005D01*
X162092255Y-54168139D01*
X162920395Y-53340000D01*
X162092255Y-52511861D01*
X161846136Y-52585995D01*
X161653035Y-53123223D01*
X152993834Y-53123223D01*
X153110000Y-52842775D01*
X153110000Y-51297225D01*
X152518544Y-49869324D01*
X151671220Y-49022000D01*
X187418780Y-49022000D01*
X186571456Y-49869324D01*
X185980000Y-51297225D01*
X185980000Y-52842775D01*
X186571456Y-54270676D01*
X187664324Y-55363544D01*
X189092225Y-55955000D01*
X190637775Y-55955000D01*
X192065676Y-55363544D01*
X193158544Y-54270676D01*
X193750000Y-52842775D01*
X193750000Y-51297225D01*
X193158544Y-49869324D01*
X192311220Y-49022000D01*
X217117394Y-49022000D01*
X217678000Y-49582606D01*
X217678000Y-123137394D01*
X215847394Y-124968000D01*
X192731803Y-124968000D01*
X194384804Y-123315000D01*
X196773331Y-123315000D01*
X196818690Y-123424507D01*
X197250493Y-123856310D01*
X197814670Y-124090000D01*
X198425330Y-124090000D01*
X198989507Y-123856310D01*
X199158725Y-123687092D01*
X199161843Y-123702765D01*
X199302191Y-123912809D01*
X199512235Y-124053157D01*
X199760000Y-124102440D01*
X201560000Y-124102440D01*
X201807765Y-124053157D01*
X202017809Y-123912809D01*
X202158157Y-123702765D01*
X202207440Y-123455000D01*
X202207440Y-122956836D01*
X202387138Y-123136534D01*
X202914561Y-123355000D01*
X203485439Y-123355000D01*
X204012862Y-123136534D01*
X204416534Y-122732862D01*
X204608655Y-122269039D01*
X209428096Y-122269039D01*
X209588959Y-122657423D01*
X209964866Y-123072389D01*
X210470959Y-123311914D01*
X210693000Y-123190629D01*
X210693000Y-122047000D01*
X210947000Y-122047000D01*
X210947000Y-123190629D01*
X211169041Y-123311914D01*
X211675134Y-123072389D01*
X212051041Y-122657423D01*
X212211904Y-122269039D01*
X212089915Y-122047000D01*
X210947000Y-122047000D01*
X210693000Y-122047000D01*
X209550085Y-122047000D01*
X209428096Y-122269039D01*
X204608655Y-122269039D01*
X204635000Y-122205439D01*
X204635000Y-121634561D01*
X204608656Y-121570961D01*
X209428096Y-121570961D01*
X209550085Y-121793000D01*
X210693000Y-121793000D01*
X210693000Y-120649371D01*
X210947000Y-120649371D01*
X210947000Y-121793000D01*
X212089915Y-121793000D01*
X212211904Y-121570961D01*
X212051041Y-121182577D01*
X211675134Y-120767611D01*
X211169041Y-120528086D01*
X210947000Y-120649371D01*
X210693000Y-120649371D01*
X210470959Y-120528086D01*
X209964866Y-120767611D01*
X209588959Y-121182577D01*
X209428096Y-121570961D01*
X204608656Y-121570961D01*
X204416534Y-121107138D01*
X204012862Y-120703466D01*
X203485439Y-120485000D01*
X202914561Y-120485000D01*
X202387138Y-120703466D01*
X201983466Y-121107138D01*
X201961695Y-121159697D01*
X201807765Y-121056843D01*
X201560000Y-121007560D01*
X199760000Y-121007560D01*
X199512235Y-121056843D01*
X199302191Y-121197191D01*
X199161843Y-121407235D01*
X199158725Y-121422908D01*
X198989507Y-121253690D01*
X198425330Y-121020000D01*
X197814670Y-121020000D01*
X197250493Y-121253690D01*
X196818690Y-121685493D01*
X196773331Y-121795000D01*
X194475000Y-121795000D01*
X194475000Y-121634561D01*
X194256534Y-121107138D01*
X193852862Y-120703466D01*
X193720966Y-120648833D01*
X196769800Y-117600000D01*
X196773331Y-117600000D01*
X196818690Y-117709507D01*
X197250493Y-118141310D01*
X197814670Y-118375000D01*
X198425330Y-118375000D01*
X198989507Y-118141310D01*
X199158725Y-117972092D01*
X199161843Y-117987765D01*
X199302191Y-118197809D01*
X199512235Y-118338157D01*
X199760000Y-118387440D01*
X201560000Y-118387440D01*
X201807765Y-118338157D01*
X202017809Y-118197809D01*
X202158157Y-117987765D01*
X202184738Y-117854134D01*
X202387138Y-118056534D01*
X202914561Y-118275000D01*
X203485439Y-118275000D01*
X204012862Y-118056534D01*
X204416534Y-117652862D01*
X204635000Y-117125439D01*
X204635000Y-116554561D01*
X204416534Y-116027138D01*
X204012862Y-115623466D01*
X203485439Y-115405000D01*
X202914561Y-115405000D01*
X202387138Y-115623466D01*
X202184738Y-115825866D01*
X202158157Y-115692235D01*
X202017809Y-115482191D01*
X201807765Y-115341843D01*
X201560000Y-115292560D01*
X199760000Y-115292560D01*
X199512235Y-115341843D01*
X199302191Y-115482191D01*
X199161843Y-115692235D01*
X199158725Y-115707908D01*
X198989507Y-115538690D01*
X198425330Y-115305000D01*
X197814670Y-115305000D01*
X197250493Y-115538690D01*
X196818690Y-115970493D01*
X196773331Y-116080000D01*
X196529846Y-116080000D01*
X196454998Y-116065112D01*
X196380150Y-116080000D01*
X196380146Y-116080000D01*
X196158461Y-116124096D01*
X195907069Y-116292071D01*
X195864669Y-116355527D01*
X190910198Y-121309999D01*
X177680000Y-121309999D01*
X177680000Y-121014778D01*
X177431086Y-120413847D01*
X176971153Y-119953914D01*
X176370222Y-119705000D01*
X175719778Y-119705000D01*
X175118847Y-119953914D01*
X174658914Y-120413847D01*
X174590091Y-120580000D01*
X170999909Y-120580000D01*
X170931086Y-120413847D01*
X170471153Y-119953914D01*
X170312403Y-119888158D01*
X170305000Y-119850939D01*
X170305000Y-119850935D01*
X170260904Y-119629250D01*
X170260904Y-119629249D01*
X170135329Y-119441314D01*
X170092929Y-119377858D01*
X170029473Y-119335458D01*
X169419174Y-118725159D01*
X177485000Y-118725159D01*
X177485000Y-119514841D01*
X177787199Y-120244412D01*
X178345588Y-120802801D01*
X179075159Y-121105000D01*
X179864841Y-121105000D01*
X180594412Y-120802801D01*
X181152801Y-120244412D01*
X181455000Y-119514841D01*
X181455000Y-118725159D01*
X181152801Y-117995588D01*
X180682372Y-117525159D01*
X185885000Y-117525159D01*
X185885000Y-118314841D01*
X186187199Y-119044412D01*
X186745588Y-119602801D01*
X187475159Y-119905000D01*
X188264841Y-119905000D01*
X188994412Y-119602801D01*
X189552801Y-119044412D01*
X189855000Y-118314841D01*
X189855000Y-117525159D01*
X189552801Y-116795588D01*
X188994412Y-116237199D01*
X188264841Y-115935000D01*
X187475159Y-115935000D01*
X186745588Y-116237199D01*
X186187199Y-116795588D01*
X185885000Y-117525159D01*
X180682372Y-117525159D01*
X180594412Y-117437199D01*
X179864841Y-117135000D01*
X179075159Y-117135000D01*
X178345588Y-117437199D01*
X177787199Y-117995588D01*
X177485000Y-118725159D01*
X169419174Y-118725159D01*
X169133120Y-118439105D01*
X169219778Y-118475000D01*
X169870222Y-118475000D01*
X170471153Y-118226086D01*
X170931086Y-117766153D01*
X171180000Y-117165222D01*
X171180000Y-116514778D01*
X174410000Y-116514778D01*
X174410000Y-117165222D01*
X174658914Y-117766153D01*
X175118847Y-118226086D01*
X175719778Y-118475000D01*
X176370222Y-118475000D01*
X176971153Y-118226086D01*
X177431086Y-117766153D01*
X177680000Y-117165222D01*
X177680000Y-116514778D01*
X177431086Y-115913847D01*
X176971153Y-115453914D01*
X176370222Y-115205000D01*
X175719778Y-115205000D01*
X175118847Y-115453914D01*
X174658914Y-115913847D01*
X174410000Y-116514778D01*
X171180000Y-116514778D01*
X170931086Y-115913847D01*
X170471153Y-115453914D01*
X169870222Y-115205000D01*
X169219778Y-115205000D01*
X168618847Y-115453914D01*
X168158914Y-115913847D01*
X167910000Y-116514778D01*
X167910000Y-117165222D01*
X167945895Y-117251881D01*
X165343055Y-114649041D01*
X191648086Y-114649041D01*
X191887611Y-115155134D01*
X192302577Y-115531041D01*
X192690961Y-115691904D01*
X192913000Y-115569915D01*
X192913000Y-114427000D01*
X193167000Y-114427000D01*
X193167000Y-115569915D01*
X193389039Y-115691904D01*
X193777423Y-115531041D01*
X194192389Y-115155134D01*
X194431914Y-114649041D01*
X194310629Y-114427000D01*
X193167000Y-114427000D01*
X192913000Y-114427000D01*
X191769371Y-114427000D01*
X191648086Y-114649041D01*
X165343055Y-114649041D01*
X164441470Y-113747456D01*
X164546740Y-113589909D01*
X164658113Y-113030000D01*
X164617163Y-112824126D01*
X167240000Y-112824126D01*
X167240000Y-113235874D01*
X167397569Y-113616280D01*
X167688720Y-113907431D01*
X168069126Y-114065000D01*
X168480874Y-114065000D01*
X168861280Y-113907431D01*
X168978711Y-113790000D01*
X191724265Y-113790000D01*
X191648086Y-113950959D01*
X191769371Y-114173000D01*
X192913000Y-114173000D01*
X192913000Y-114153000D01*
X193167000Y-114153000D01*
X193167000Y-114173000D01*
X194310629Y-114173000D01*
X194431914Y-113950959D01*
X194355735Y-113790000D01*
X199315153Y-113790000D01*
X199390000Y-113804888D01*
X199464847Y-113790000D01*
X199464852Y-113790000D01*
X199686537Y-113745904D01*
X199937929Y-113577929D01*
X199980331Y-113514470D01*
X200245161Y-113249640D01*
X200354670Y-113295000D01*
X200965330Y-113295000D01*
X201529507Y-113061310D01*
X201961310Y-112629507D01*
X202001254Y-112533074D01*
X202344866Y-112912389D01*
X202850959Y-113151914D01*
X203073000Y-113030629D01*
X203073000Y-111887000D01*
X203327000Y-111887000D01*
X203327000Y-113030629D01*
X203549041Y-113151914D01*
X204055134Y-112912389D01*
X204431041Y-112497423D01*
X204591904Y-112109039D01*
X204469915Y-111887000D01*
X203327000Y-111887000D01*
X203073000Y-111887000D01*
X203053000Y-111887000D01*
X203053000Y-111633000D01*
X203073000Y-111633000D01*
X203073000Y-110489371D01*
X202850959Y-110368086D01*
X202344866Y-110607611D01*
X202001254Y-110986926D01*
X201961310Y-110890493D01*
X201529507Y-110458690D01*
X200965330Y-110225000D01*
X200354670Y-110225000D01*
X199790493Y-110458690D01*
X199621275Y-110627908D01*
X199618157Y-110612235D01*
X199477809Y-110402191D01*
X199267765Y-110261843D01*
X199020000Y-110212560D01*
X197220000Y-110212560D01*
X196972235Y-110261843D01*
X196762191Y-110402191D01*
X196621843Y-110612235D01*
X196572560Y-110860000D01*
X196572560Y-112270000D01*
X168978711Y-112270000D01*
X168861280Y-112152569D01*
X168480874Y-111995000D01*
X168069126Y-111995000D01*
X167688720Y-112152569D01*
X167397569Y-112443720D01*
X167240000Y-112824126D01*
X164617163Y-112824126D01*
X164546740Y-112470091D01*
X164229577Y-111995423D01*
X163877242Y-111760000D01*
X164229577Y-111524577D01*
X164546740Y-111049909D01*
X164588684Y-110839041D01*
X164978086Y-110839041D01*
X165217611Y-111345134D01*
X165632577Y-111721041D01*
X166020961Y-111881904D01*
X166243000Y-111759915D01*
X166243000Y-110617000D01*
X166497000Y-110617000D01*
X166497000Y-111759915D01*
X166719039Y-111881904D01*
X167107423Y-111721041D01*
X167522389Y-111345134D01*
X167761914Y-110839041D01*
X167640629Y-110617000D01*
X166497000Y-110617000D01*
X166243000Y-110617000D01*
X165099371Y-110617000D01*
X164978086Y-110839041D01*
X164588684Y-110839041D01*
X164658113Y-110490000D01*
X164588685Y-110140959D01*
X164978086Y-110140959D01*
X165099371Y-110363000D01*
X166243000Y-110363000D01*
X166243000Y-109220085D01*
X166497000Y-109220085D01*
X166497000Y-110363000D01*
X167640629Y-110363000D01*
X167761914Y-110140959D01*
X167522389Y-109634866D01*
X167107423Y-109258959D01*
X166719039Y-109098096D01*
X166497000Y-109220085D01*
X166243000Y-109220085D01*
X166020961Y-109098096D01*
X165632577Y-109258959D01*
X165217611Y-109634866D01*
X164978086Y-110140959D01*
X164588685Y-110140959D01*
X164546740Y-109930091D01*
X164229577Y-109455423D01*
X163877242Y-109220000D01*
X164229577Y-108984577D01*
X164546740Y-108509909D01*
X164658113Y-107950000D01*
X164546740Y-107390091D01*
X164229577Y-106915423D01*
X163845892Y-106659053D01*
X164050134Y-106562389D01*
X164426041Y-106147423D01*
X164586904Y-105759039D01*
X164464915Y-105537000D01*
X163322000Y-105537000D01*
X163322000Y-105557000D01*
X163068000Y-105557000D01*
X163068000Y-105537000D01*
X161925085Y-105537000D01*
X161803096Y-105759039D01*
X161963959Y-106147423D01*
X162339866Y-106562389D01*
X162544108Y-106659053D01*
X162160423Y-106915423D01*
X161843260Y-107390091D01*
X161731887Y-107950000D01*
X161843260Y-108509909D01*
X162160423Y-108984577D01*
X162512758Y-109220000D01*
X162160423Y-109455423D01*
X161843260Y-109930091D01*
X161731887Y-110490000D01*
X161843260Y-111049909D01*
X162160423Y-111524577D01*
X162512758Y-111760000D01*
X162160423Y-111995423D01*
X161924022Y-112349222D01*
X159510000Y-109935201D01*
X159510000Y-106119846D01*
X159524888Y-106044999D01*
X159510000Y-105970152D01*
X159510000Y-105970148D01*
X159465904Y-105748463D01*
X159297929Y-105497071D01*
X159234473Y-105454671D01*
X156973688Y-103193887D01*
X157038113Y-102870000D01*
X156973688Y-102546114D01*
X157304801Y-102215001D01*
X161906797Y-102215001D01*
X161843260Y-102310091D01*
X161731887Y-102870000D01*
X161843260Y-103429909D01*
X162160423Y-103904577D01*
X162544108Y-104160947D01*
X162339866Y-104257611D01*
X161963959Y-104672577D01*
X161803096Y-105060961D01*
X161925085Y-105283000D01*
X163068000Y-105283000D01*
X163068000Y-105263000D01*
X163322000Y-105263000D01*
X163322000Y-105283000D01*
X164464915Y-105283000D01*
X164586904Y-105060961D01*
X164426041Y-104672577D01*
X164050134Y-104257611D01*
X163845892Y-104160947D01*
X164229577Y-103904577D01*
X164546740Y-103429909D01*
X164658113Y-102870000D01*
X164546740Y-102310091D01*
X164312216Y-101959101D01*
X164325332Y-101939471D01*
X164804474Y-101460330D01*
X164867930Y-101417930D01*
X165035905Y-101166538D01*
X165077226Y-100958803D01*
X165153466Y-101142862D01*
X165557138Y-101546534D01*
X165686216Y-101600000D01*
X165557138Y-101653466D01*
X165153466Y-102057138D01*
X164935000Y-102584561D01*
X164935000Y-103155439D01*
X165153466Y-103682862D01*
X165557138Y-104086534D01*
X166084561Y-104305000D01*
X166655439Y-104305000D01*
X167182862Y-104086534D01*
X167586534Y-103682862D01*
X167608430Y-103630000D01*
X167997560Y-103630000D01*
X167997560Y-103770000D01*
X168046843Y-104017765D01*
X168187191Y-104227809D01*
X168397235Y-104368157D01*
X168645000Y-104417440D01*
X170445000Y-104417440D01*
X170692765Y-104368157D01*
X170694317Y-104367120D01*
X171586668Y-105259472D01*
X171629069Y-105322929D01*
X171880461Y-105490904D01*
X172102146Y-105535000D01*
X172102150Y-105535000D01*
X172176997Y-105549888D01*
X172251844Y-105535000D01*
X189960780Y-105535000D01*
X189746456Y-105749324D01*
X189155000Y-107177225D01*
X189155000Y-108722775D01*
X189746456Y-110150676D01*
X190839324Y-111243544D01*
X192267225Y-111835000D01*
X193812775Y-111835000D01*
X195240676Y-111243544D01*
X196333544Y-110150676D01*
X196925000Y-108722775D01*
X196925000Y-107177225D01*
X196333544Y-105749324D01*
X195719219Y-105134999D01*
X196770198Y-105134999D01*
X196894669Y-105259470D01*
X196937071Y-105322929D01*
X197067382Y-105410000D01*
X197188462Y-105490904D01*
X197236605Y-105500480D01*
X197410148Y-105535000D01*
X197410152Y-105535000D01*
X197485000Y-105549888D01*
X197559848Y-105535000D01*
X198440199Y-105535000D01*
X203370699Y-110465501D01*
X203327000Y-110489371D01*
X203327000Y-111633000D01*
X204469915Y-111633000D01*
X204494128Y-111588929D01*
X206250001Y-113344803D01*
X206250000Y-114620155D01*
X206235112Y-114695002D01*
X206250000Y-114769849D01*
X206250000Y-114769853D01*
X206294096Y-114991538D01*
X206462071Y-115242931D01*
X206525530Y-115285333D01*
X212469667Y-121229471D01*
X212512068Y-121292928D01*
X212575524Y-121335328D01*
X212763459Y-121460903D01*
X212811602Y-121470479D01*
X212985145Y-121504999D01*
X212985149Y-121504999D01*
X213059997Y-121519887D01*
X213134845Y-121504999D01*
X213775198Y-121504999D01*
X213823791Y-121553592D01*
X213750908Y-121920000D01*
X213866161Y-122499418D01*
X214194375Y-122990625D01*
X214685582Y-123318839D01*
X215118744Y-123405000D01*
X215411256Y-123405000D01*
X215844418Y-123318839D01*
X216335625Y-122990625D01*
X216663839Y-122499418D01*
X216779092Y-121920000D01*
X216663839Y-121340582D01*
X216335625Y-120849375D01*
X216037239Y-120650000D01*
X216335625Y-120450625D01*
X216663839Y-119959418D01*
X216779092Y-119380000D01*
X216663839Y-118800582D01*
X216335625Y-118309375D01*
X216037239Y-118110000D01*
X216335625Y-117910625D01*
X216663839Y-117419418D01*
X216779092Y-116840000D01*
X216663839Y-116260582D01*
X216335625Y-115769375D01*
X216037239Y-115570000D01*
X216335625Y-115370625D01*
X216663839Y-114879418D01*
X216779092Y-114300000D01*
X216663839Y-113720582D01*
X216335625Y-113229375D01*
X216037239Y-113030000D01*
X216335625Y-112830625D01*
X216663839Y-112339418D01*
X216779092Y-111760000D01*
X216663839Y-111180582D01*
X216335625Y-110689375D01*
X216313967Y-110674904D01*
X216474698Y-110608327D01*
X216653327Y-110429699D01*
X216750000Y-110196310D01*
X216750000Y-109505750D01*
X216591250Y-109347000D01*
X215392000Y-109347000D01*
X215392000Y-109367000D01*
X215138000Y-109367000D01*
X215138000Y-109347000D01*
X213938750Y-109347000D01*
X213780000Y-109505750D01*
X213780000Y-110196310D01*
X213876673Y-110429699D01*
X214055302Y-110608327D01*
X214216033Y-110674904D01*
X214194375Y-110689375D01*
X213866161Y-111180582D01*
X213750908Y-111760000D01*
X213866161Y-112339418D01*
X214194375Y-112830625D01*
X214492761Y-113030000D01*
X214194375Y-113229375D01*
X213866161Y-113720582D01*
X213759020Y-114259218D01*
X212047116Y-112547315D01*
X212255000Y-112045439D01*
X212255000Y-111474561D01*
X212036534Y-110947138D01*
X211632862Y-110543466D01*
X211105439Y-110325000D01*
X210534561Y-110325000D01*
X210007138Y-110543466D01*
X209603466Y-110947138D01*
X209385000Y-111474561D01*
X209385000Y-112045439D01*
X209478016Y-112270000D01*
X209229802Y-112270000D01*
X205203492Y-108243690D01*
X213780000Y-108243690D01*
X213780000Y-108934250D01*
X213938750Y-109093000D01*
X215138000Y-109093000D01*
X215138000Y-107893750D01*
X215392000Y-107893750D01*
X215392000Y-109093000D01*
X216591250Y-109093000D01*
X216750000Y-108934250D01*
X216750000Y-108243690D01*
X216653327Y-108010301D01*
X216474698Y-107831673D01*
X216241309Y-107735000D01*
X215550750Y-107735000D01*
X215392000Y-107893750D01*
X215138000Y-107893750D01*
X214979250Y-107735000D01*
X214288691Y-107735000D01*
X214055302Y-107831673D01*
X213876673Y-108010301D01*
X213780000Y-108243690D01*
X205203492Y-108243690D01*
X203779380Y-106819579D01*
X204063277Y-106701985D01*
X204470000Y-106295262D01*
X204876723Y-106701985D01*
X205436858Y-106934000D01*
X206043142Y-106934000D01*
X206603277Y-106701985D01*
X206823066Y-106482196D01*
X207387409Y-106482196D01*
X207472467Y-106737539D01*
X208041965Y-106945516D01*
X208647700Y-106919723D01*
X209087533Y-106737539D01*
X209172591Y-106482196D01*
X208280000Y-105589605D01*
X207387409Y-106482196D01*
X206823066Y-106482196D01*
X207031985Y-106273277D01*
X207042633Y-106247570D01*
X207207804Y-106302591D01*
X208100395Y-105410000D01*
X208459605Y-105410000D01*
X209352196Y-106302591D01*
X209607539Y-106217533D01*
X209815516Y-105648035D01*
X209789723Y-105042300D01*
X209607539Y-104602467D01*
X209352196Y-104517409D01*
X208459605Y-105410000D01*
X208100395Y-105410000D01*
X207207804Y-104517409D01*
X207042633Y-104572430D01*
X207031985Y-104546723D01*
X206823066Y-104337804D01*
X207387409Y-104337804D01*
X208280000Y-105230395D01*
X209172591Y-104337804D01*
X209087533Y-104082461D01*
X208518035Y-103874484D01*
X207912300Y-103900277D01*
X207472467Y-104082461D01*
X207387409Y-104337804D01*
X206823066Y-104337804D01*
X206603277Y-104118015D01*
X206043142Y-103886000D01*
X205436858Y-103886000D01*
X205333581Y-103928779D01*
X202968636Y-101563834D01*
X211582000Y-101563834D01*
X211582000Y-102271166D01*
X211852684Y-102924656D01*
X212352844Y-103424816D01*
X213006334Y-103695500D01*
X213713666Y-103695500D01*
X214367156Y-103424816D01*
X214867316Y-102924656D01*
X215138000Y-102271166D01*
X215138000Y-101563834D01*
X214867316Y-100910344D01*
X214367156Y-100410184D01*
X213713666Y-100139500D01*
X213006334Y-100139500D01*
X212352844Y-100410184D01*
X211852684Y-100910344D01*
X211582000Y-101563834D01*
X202968636Y-101563834D01*
X201369830Y-99965029D01*
X201327428Y-99901570D01*
X201076036Y-99733595D01*
X200854351Y-99689499D01*
X200854346Y-99689499D01*
X200779499Y-99674611D01*
X200704652Y-99689499D01*
X178629303Y-99689499D01*
X177802000Y-98862196D01*
X194687409Y-98862196D01*
X194772467Y-99117539D01*
X195341965Y-99325516D01*
X195947700Y-99299723D01*
X196387533Y-99117539D01*
X196472591Y-98862196D01*
X195580000Y-97969605D01*
X194687409Y-98862196D01*
X177802000Y-98862196D01*
X176491769Y-97551965D01*
X194044484Y-97551965D01*
X194070277Y-98157700D01*
X194252461Y-98597533D01*
X194507804Y-98682591D01*
X195400395Y-97790000D01*
X195759605Y-97790000D01*
X196652196Y-98682591D01*
X196907539Y-98597533D01*
X197115516Y-98028035D01*
X197089723Y-97422300D01*
X196907539Y-96982467D01*
X196652196Y-96897409D01*
X195759605Y-97790000D01*
X195400395Y-97790000D01*
X194507804Y-96897409D01*
X194252461Y-96982467D01*
X194044484Y-97551965D01*
X176491769Y-97551965D01*
X174949804Y-96010000D01*
X194245236Y-96010000D01*
X194288015Y-96113277D01*
X194716723Y-96541985D01*
X194742430Y-96552633D01*
X194687409Y-96717804D01*
X195580000Y-97610395D01*
X196472591Y-96717804D01*
X196417570Y-96552633D01*
X196443277Y-96541985D01*
X196871985Y-96113277D01*
X197104000Y-95553142D01*
X197104000Y-94946858D01*
X196871985Y-94386723D01*
X196465262Y-93980000D01*
X196871985Y-93573277D01*
X197104000Y-93013142D01*
X197104000Y-92406858D01*
X196871985Y-91846723D01*
X196443277Y-91418015D01*
X195883142Y-91186000D01*
X195276858Y-91186000D01*
X194716723Y-91418015D01*
X194288015Y-91846723D01*
X194056000Y-92406858D01*
X194056000Y-93013142D01*
X194288015Y-93573277D01*
X194694738Y-93980000D01*
X194288015Y-94386723D01*
X194245236Y-94490000D01*
X176601984Y-94490000D01*
X176695000Y-94265439D01*
X176695000Y-93694561D01*
X176476534Y-93167138D01*
X176072862Y-92763466D01*
X175545439Y-92545000D01*
X174974561Y-92545000D01*
X174447138Y-92763466D01*
X174043466Y-93167138D01*
X173825000Y-93694561D01*
X173825000Y-94010198D01*
X168375330Y-88560529D01*
X168332928Y-88497070D01*
X168081536Y-88329095D01*
X167859851Y-88284999D01*
X167859846Y-88284999D01*
X167784999Y-88270111D01*
X167710152Y-88284999D01*
X163219800Y-88284999D01*
X163275965Y-88228834D01*
X196342000Y-88228834D01*
X196342000Y-88936166D01*
X196612684Y-89589656D01*
X197112844Y-90089816D01*
X197766334Y-90360500D01*
X198473666Y-90360500D01*
X199127156Y-90089816D01*
X199627316Y-89589656D01*
X199898000Y-88936166D01*
X199898000Y-88228834D01*
X199627316Y-87575344D01*
X199378830Y-87326858D01*
X201041000Y-87326858D01*
X201041000Y-87933142D01*
X201273015Y-88493277D01*
X201701723Y-88921985D01*
X202261858Y-89154000D01*
X202868142Y-89154000D01*
X203428277Y-88921985D01*
X203856985Y-88493277D01*
X204089000Y-87933142D01*
X204089000Y-87326858D01*
X207391000Y-87326858D01*
X207391000Y-87933142D01*
X207623015Y-88493277D01*
X208051723Y-88921985D01*
X208611858Y-89154000D01*
X209218142Y-89154000D01*
X209778277Y-88921985D01*
X210206985Y-88493277D01*
X210316520Y-88228834D01*
X211582000Y-88228834D01*
X211582000Y-88936166D01*
X211852684Y-89589656D01*
X212352844Y-90089816D01*
X213006334Y-90360500D01*
X213713666Y-90360500D01*
X214367156Y-90089816D01*
X214867316Y-89589656D01*
X215138000Y-88936166D01*
X215138000Y-88228834D01*
X214867316Y-87575344D01*
X214367156Y-87075184D01*
X213713666Y-86804500D01*
X213006334Y-86804500D01*
X212352844Y-87075184D01*
X211852684Y-87575344D01*
X211582000Y-88228834D01*
X210316520Y-88228834D01*
X210439000Y-87933142D01*
X210439000Y-87326858D01*
X210206985Y-86766723D01*
X209778277Y-86338015D01*
X209218142Y-86106000D01*
X208611858Y-86106000D01*
X208051723Y-86338015D01*
X207623015Y-86766723D01*
X207391000Y-87326858D01*
X204089000Y-87326858D01*
X203856985Y-86766723D01*
X203428277Y-86338015D01*
X202868142Y-86106000D01*
X202261858Y-86106000D01*
X201701723Y-86338015D01*
X201273015Y-86766723D01*
X201041000Y-87326858D01*
X199378830Y-87326858D01*
X199127156Y-87075184D01*
X198473666Y-86804500D01*
X197766334Y-86804500D01*
X197112844Y-87075184D01*
X196612684Y-87575344D01*
X196342000Y-88228834D01*
X163275965Y-88228834D01*
X165024799Y-86480000D01*
X168716887Y-86480000D01*
X168828260Y-87039909D01*
X169145423Y-87514577D01*
X169620091Y-87831740D01*
X170038667Y-87915000D01*
X170321333Y-87915000D01*
X170739909Y-87831740D01*
X171214577Y-87514577D01*
X171531740Y-87039909D01*
X171573684Y-86829041D01*
X173868086Y-86829041D01*
X174107611Y-87335134D01*
X174522577Y-87711041D01*
X174910961Y-87871904D01*
X175133000Y-87749915D01*
X175133000Y-86607000D01*
X175387000Y-86607000D01*
X175387000Y-87749915D01*
X175609039Y-87871904D01*
X175997423Y-87711041D01*
X176412389Y-87335134D01*
X176651914Y-86829041D01*
X176530629Y-86607000D01*
X175387000Y-86607000D01*
X175133000Y-86607000D01*
X173989371Y-86607000D01*
X173868086Y-86829041D01*
X171573684Y-86829041D01*
X171643113Y-86480000D01*
X171573685Y-86130959D01*
X173868086Y-86130959D01*
X173989371Y-86353000D01*
X175133000Y-86353000D01*
X175133000Y-85210085D01*
X175387000Y-85210085D01*
X175387000Y-86353000D01*
X176530629Y-86353000D01*
X176651914Y-86130959D01*
X176412389Y-85624866D01*
X175997423Y-85248959D01*
X175609039Y-85088096D01*
X175387000Y-85210085D01*
X175133000Y-85210085D01*
X174910961Y-85088096D01*
X174522577Y-85248959D01*
X174107611Y-85624866D01*
X173868086Y-86130959D01*
X171573685Y-86130959D01*
X171531740Y-85920091D01*
X171214577Y-85445423D01*
X170739909Y-85128260D01*
X170321333Y-85045000D01*
X170038667Y-85045000D01*
X169620091Y-85128260D01*
X169145423Y-85445423D01*
X168828260Y-85920091D01*
X168716887Y-86480000D01*
X165024799Y-86480000D01*
X167003833Y-84500967D01*
X167058466Y-84632862D01*
X167462138Y-85036534D01*
X167989561Y-85255000D01*
X168560439Y-85255000D01*
X169087862Y-85036534D01*
X169491534Y-84632862D01*
X169710000Y-84105439D01*
X169710000Y-83534561D01*
X169677044Y-83454999D01*
X171280198Y-83454999D01*
X171306897Y-83481698D01*
X171285000Y-83534561D01*
X171285000Y-84105439D01*
X171503466Y-84632862D01*
X171907138Y-85036534D01*
X172434561Y-85255000D01*
X173005439Y-85255000D01*
X173532862Y-85036534D01*
X173936534Y-84632862D01*
X174155000Y-84105439D01*
X174155000Y-83534561D01*
X175095000Y-83534561D01*
X175095000Y-84105439D01*
X175313466Y-84632862D01*
X175717138Y-85036534D01*
X176244561Y-85255000D01*
X176815439Y-85255000D01*
X177342862Y-85036534D01*
X177746534Y-84632862D01*
X177965000Y-84105439D01*
X177965000Y-83534561D01*
X177746534Y-83007138D01*
X177342862Y-82603466D01*
X176815439Y-82385000D01*
X176244561Y-82385000D01*
X175717138Y-82603466D01*
X175313466Y-83007138D01*
X175095000Y-83534561D01*
X174155000Y-83534561D01*
X173936534Y-83007138D01*
X173532862Y-82603466D01*
X173005439Y-82385000D01*
X172434561Y-82385000D01*
X172381698Y-82406897D01*
X172221659Y-82246858D01*
X201041000Y-82246858D01*
X201041000Y-82853142D01*
X201273015Y-83413277D01*
X201701723Y-83841985D01*
X202261858Y-84074000D01*
X202868142Y-84074000D01*
X203428277Y-83841985D01*
X203856985Y-83413277D01*
X204089000Y-82853142D01*
X204089000Y-82246858D01*
X207391000Y-82246858D01*
X207391000Y-82853142D01*
X207623015Y-83413277D01*
X208051723Y-83841985D01*
X208611858Y-84074000D01*
X209218142Y-84074000D01*
X209778277Y-83841985D01*
X210206985Y-83413277D01*
X210439000Y-82853142D01*
X210439000Y-82246858D01*
X210206985Y-81686723D01*
X209778277Y-81258015D01*
X209218142Y-81026000D01*
X208611858Y-81026000D01*
X208051723Y-81258015D01*
X207623015Y-81686723D01*
X207391000Y-82246858D01*
X204089000Y-82246858D01*
X203856985Y-81686723D01*
X203428277Y-81258015D01*
X202868142Y-81026000D01*
X202261858Y-81026000D01*
X201701723Y-81258015D01*
X201273015Y-81686723D01*
X201041000Y-82246858D01*
X172221659Y-82246858D01*
X172185330Y-82210529D01*
X172142928Y-82147070D01*
X171891536Y-81979095D01*
X171669851Y-81934999D01*
X171669846Y-81934999D01*
X171594999Y-81920111D01*
X171520152Y-81934999D01*
X167809847Y-81934999D01*
X167734999Y-81920111D01*
X167660151Y-81934999D01*
X167660147Y-81934999D01*
X167486604Y-81969519D01*
X167438461Y-81979095D01*
X167251417Y-82104075D01*
X167187070Y-82147070D01*
X167144670Y-82210526D01*
X161135518Y-88219679D01*
X161072062Y-88262079D01*
X161029662Y-88325535D01*
X161029661Y-88325536D01*
X160904087Y-88513471D01*
X160845102Y-88810008D01*
X160859991Y-88884860D01*
X160859990Y-96920189D01*
X160780000Y-96840199D01*
X160780000Y-87704846D01*
X160794888Y-87629999D01*
X160780000Y-87555152D01*
X160780000Y-87555148D01*
X160735904Y-87333463D01*
X160694102Y-87270902D01*
X160610329Y-87145526D01*
X160610327Y-87145524D01*
X160567929Y-87082071D01*
X160504476Y-87039673D01*
X153823841Y-80359039D01*
X154183096Y-80359039D01*
X154343959Y-80747423D01*
X154719866Y-81162389D01*
X155225959Y-81401914D01*
X155448000Y-81280629D01*
X155448000Y-80137000D01*
X155702000Y-80137000D01*
X155702000Y-81280629D01*
X155924041Y-81401914D01*
X156430134Y-81162389D01*
X156806041Y-80747423D01*
X156966904Y-80359039D01*
X156844915Y-80137000D01*
X155702000Y-80137000D01*
X155448000Y-80137000D01*
X154305085Y-80137000D01*
X154183096Y-80359039D01*
X153823841Y-80359039D01*
X153125763Y-79660961D01*
X154183096Y-79660961D01*
X154305085Y-79883000D01*
X155448000Y-79883000D01*
X155448000Y-78739371D01*
X155702000Y-78739371D01*
X155702000Y-79883000D01*
X156844915Y-79883000D01*
X156966904Y-79660961D01*
X156806041Y-79272577D01*
X156430134Y-78857611D01*
X155924041Y-78618086D01*
X155702000Y-78739371D01*
X155448000Y-78739371D01*
X155225959Y-78618086D01*
X154719866Y-78857611D01*
X154343959Y-79272577D01*
X154183096Y-79660961D01*
X153125763Y-79660961D01*
X149929801Y-76465000D01*
X150165330Y-76465000D01*
X150729507Y-76231310D01*
X150760817Y-76200000D01*
X166811887Y-76200000D01*
X166923260Y-76759909D01*
X167240423Y-77234577D01*
X167715091Y-77551740D01*
X168133667Y-77635000D01*
X168416333Y-77635000D01*
X168834909Y-77551740D01*
X169309577Y-77234577D01*
X169626740Y-76759909D01*
X169668684Y-76549041D01*
X171328086Y-76549041D01*
X171567611Y-77055134D01*
X171982577Y-77431041D01*
X172370961Y-77591904D01*
X172593000Y-77469915D01*
X172593000Y-76327000D01*
X172847000Y-76327000D01*
X172847000Y-77469915D01*
X173069039Y-77591904D01*
X173457423Y-77431041D01*
X173872389Y-77055134D01*
X174111914Y-76549041D01*
X175138086Y-76549041D01*
X175377611Y-77055134D01*
X175792577Y-77431041D01*
X176180961Y-77591904D01*
X176403000Y-77469915D01*
X176403000Y-76327000D01*
X176657000Y-76327000D01*
X176657000Y-77469915D01*
X176879039Y-77591904D01*
X177267423Y-77431041D01*
X177682389Y-77055134D01*
X177921914Y-76549041D01*
X177800629Y-76327000D01*
X176657000Y-76327000D01*
X176403000Y-76327000D01*
X175259371Y-76327000D01*
X175138086Y-76549041D01*
X174111914Y-76549041D01*
X173990629Y-76327000D01*
X172847000Y-76327000D01*
X172593000Y-76327000D01*
X171449371Y-76327000D01*
X171328086Y-76549041D01*
X169668684Y-76549041D01*
X169738113Y-76200000D01*
X169668685Y-75850959D01*
X171328086Y-75850959D01*
X171449371Y-76073000D01*
X172593000Y-76073000D01*
X172593000Y-74930085D01*
X172847000Y-74930085D01*
X172847000Y-76073000D01*
X173990629Y-76073000D01*
X174111914Y-75850959D01*
X175138086Y-75850959D01*
X175259371Y-76073000D01*
X176403000Y-76073000D01*
X176403000Y-74930085D01*
X176657000Y-74930085D01*
X176657000Y-76073000D01*
X177800629Y-76073000D01*
X177921914Y-75850959D01*
X177682389Y-75344866D01*
X177267423Y-74968959D01*
X176879039Y-74808096D01*
X176657000Y-74930085D01*
X176403000Y-74930085D01*
X176180961Y-74808096D01*
X175792577Y-74968959D01*
X175377611Y-75344866D01*
X175138086Y-75850959D01*
X174111914Y-75850959D01*
X173872389Y-75344866D01*
X173457423Y-74968959D01*
X173069039Y-74808096D01*
X172847000Y-74930085D01*
X172593000Y-74930085D01*
X172370961Y-74808096D01*
X171982577Y-74968959D01*
X171567611Y-75344866D01*
X171328086Y-75850959D01*
X169668685Y-75850959D01*
X169626740Y-75640091D01*
X169309577Y-75165423D01*
X168834909Y-74848260D01*
X168416333Y-74765000D01*
X168133667Y-74765000D01*
X167715091Y-74848260D01*
X167240423Y-75165423D01*
X166923260Y-75640091D01*
X166811887Y-76200000D01*
X150760817Y-76200000D01*
X151161310Y-75799507D01*
X151395000Y-75235330D01*
X151395000Y-74624670D01*
X151161310Y-74060493D01*
X150729507Y-73628690D01*
X150165330Y-73395000D01*
X149554670Y-73395000D01*
X148990493Y-73628690D01*
X148610000Y-74009183D01*
X148229507Y-73628690D01*
X147665330Y-73395000D01*
X147054670Y-73395000D01*
X146490493Y-73628690D01*
X146058690Y-74060493D01*
X146055461Y-74068290D01*
X145940159Y-74029446D01*
X145039605Y-74930000D01*
X145940159Y-75830554D01*
X146055461Y-75791710D01*
X146058690Y-75799507D01*
X146490493Y-76231310D01*
X147054670Y-76465000D01*
X147665330Y-76465000D01*
X147774838Y-76419640D01*
X148117126Y-76761929D01*
X148240072Y-76945930D01*
X148303530Y-76988331D01*
X159260000Y-87944803D01*
X159260001Y-97080148D01*
X159245112Y-97155000D01*
X159304097Y-97451537D01*
X159410243Y-97610395D01*
X159472072Y-97702929D01*
X159535528Y-97745329D01*
X161796312Y-100006114D01*
X161731887Y-100330000D01*
X161804490Y-100695001D01*
X157064847Y-100695001D01*
X156989999Y-100680113D01*
X156967584Y-100684571D01*
X157038113Y-100330000D01*
X156973688Y-100006114D01*
X157964473Y-99015329D01*
X158027929Y-98972929D01*
X158127055Y-98824577D01*
X158195904Y-98721538D01*
X158220570Y-98597533D01*
X158240000Y-98499852D01*
X158240000Y-98499848D01*
X158254888Y-98425000D01*
X158240000Y-98350152D01*
X158240000Y-97229846D01*
X158254888Y-97154999D01*
X158240000Y-97080152D01*
X158240000Y-97080148D01*
X158195904Y-96858463D01*
X158027929Y-96607071D01*
X157964473Y-96564671D01*
X157580330Y-96180528D01*
X157537928Y-96117070D01*
X157286536Y-95949095D01*
X157064851Y-95904999D01*
X157064846Y-95904999D01*
X156989999Y-95890111D01*
X156915152Y-95904999D01*
X156863203Y-95904999D01*
X156926740Y-95809909D01*
X157038113Y-95250000D01*
X156926740Y-94690091D01*
X156609577Y-94215423D01*
X156257242Y-93980000D01*
X156609577Y-93744577D01*
X156926740Y-93269909D01*
X157038113Y-92710000D01*
X156926740Y-92150091D01*
X156609577Y-91675423D01*
X156488894Y-91594785D01*
X156622765Y-91568157D01*
X156832809Y-91427809D01*
X156973157Y-91217765D01*
X157022440Y-90970000D01*
X157022440Y-89370000D01*
X156973157Y-89122235D01*
X156832809Y-88912191D01*
X156622765Y-88771843D01*
X156375000Y-88722560D01*
X154775000Y-88722560D01*
X154527235Y-88771843D01*
X154430000Y-88836814D01*
X154430000Y-86931218D01*
X154444888Y-86856370D01*
X154430000Y-86781522D01*
X154430000Y-86781518D01*
X154385904Y-86559833D01*
X154217929Y-86308441D01*
X154154473Y-86266041D01*
X148941414Y-81052982D01*
X149171534Y-80822862D01*
X149390000Y-80295439D01*
X149390000Y-79724561D01*
X149171534Y-79197138D01*
X148767862Y-78793466D01*
X148240439Y-78575000D01*
X147669561Y-78575000D01*
X147142138Y-78793466D01*
X146738466Y-79197138D01*
X146520000Y-79724561D01*
X146520000Y-80295439D01*
X146738466Y-80822862D01*
X147142138Y-81226534D01*
X147201983Y-81251323D01*
X147239097Y-81437907D01*
X147407072Y-81689299D01*
X147470528Y-81731699D01*
X152910000Y-87171172D01*
X152910001Y-94935150D01*
X152895112Y-95010002D01*
X152910001Y-95084854D01*
X152934016Y-95205584D01*
X147967303Y-90238872D01*
X148327156Y-90089816D01*
X148827316Y-89589656D01*
X149098000Y-88936166D01*
X149098000Y-88228834D01*
X148827316Y-87575344D01*
X148327156Y-87075184D01*
X147673666Y-86804500D01*
X146966334Y-86804500D01*
X146312844Y-87075184D01*
X145812684Y-87575344D01*
X145663628Y-87935197D01*
X144849001Y-87120570D01*
X144849001Y-86323847D01*
X144863889Y-86249000D01*
X144849001Y-86174153D01*
X144849001Y-86174149D01*
X144804905Y-85952464D01*
X144636930Y-85701072D01*
X144573474Y-85658672D01*
X142988802Y-84074000D01*
X143178142Y-84074000D01*
X143738277Y-83841985D01*
X144166985Y-83413277D01*
X144399000Y-82853142D01*
X144399000Y-82246858D01*
X144166985Y-81686723D01*
X143738277Y-81258015D01*
X143178142Y-81026000D01*
X142571858Y-81026000D01*
X142011723Y-81258015D01*
X141583015Y-81686723D01*
X141351000Y-82246858D01*
X141351000Y-82436198D01*
X136900330Y-77985529D01*
X136900328Y-77985526D01*
X136876177Y-77961375D01*
X136945000Y-77795222D01*
X136945000Y-77144778D01*
X136696086Y-76543847D01*
X136236153Y-76083914D01*
X136070000Y-76015091D01*
X136070000Y-76010159D01*
X143959446Y-76010159D01*
X144045852Y-76266643D01*
X144619336Y-76476458D01*
X145229460Y-76450839D01*
X145674148Y-76266643D01*
X145760554Y-76010159D01*
X144860000Y-75109605D01*
X143959446Y-76010159D01*
X136070000Y-76010159D01*
X136070000Y-74689336D01*
X143313542Y-74689336D01*
X143339161Y-75299460D01*
X143523357Y-75744148D01*
X143779841Y-75830554D01*
X144680395Y-74930000D01*
X143779841Y-74029446D01*
X143523357Y-74115852D01*
X143313542Y-74689336D01*
X136070000Y-74689336D01*
X136070000Y-73849841D01*
X143959446Y-73849841D01*
X144860000Y-74750395D01*
X145760554Y-73849841D01*
X145674148Y-73593357D01*
X145100664Y-73383542D01*
X144490540Y-73409161D01*
X144045852Y-73593357D01*
X143959446Y-73849841D01*
X136070000Y-73849841D01*
X136070000Y-72424909D01*
X136236153Y-72356086D01*
X136487678Y-72104561D01*
X156045000Y-72104561D01*
X156045000Y-72675439D01*
X156263466Y-73202862D01*
X156667138Y-73606534D01*
X157194561Y-73825000D01*
X157765439Y-73825000D01*
X158292862Y-73606534D01*
X158696534Y-73202862D01*
X158915000Y-72675439D01*
X158915000Y-72104561D01*
X158696534Y-71577138D01*
X158292862Y-71173466D01*
X157765439Y-70955000D01*
X157194561Y-70955000D01*
X156667138Y-71173466D01*
X156263466Y-71577138D01*
X156045000Y-72104561D01*
X136487678Y-72104561D01*
X136696086Y-71896153D01*
X136945000Y-71295222D01*
X136945000Y-70644778D01*
X136696086Y-70043847D01*
X136236153Y-69583914D01*
X135635222Y-69335000D01*
X134984778Y-69335000D01*
X134383847Y-69583914D01*
X133923914Y-70043847D01*
X133675000Y-70644778D01*
X133675000Y-71295222D01*
X133923914Y-71896153D01*
X134383847Y-72356086D01*
X134550000Y-72424909D01*
X134550001Y-76015091D01*
X134383847Y-76083914D01*
X133923914Y-76543847D01*
X133675000Y-77144778D01*
X133675000Y-77795222D01*
X133923914Y-78396153D01*
X134383847Y-78856086D01*
X134984778Y-79105000D01*
X135635222Y-79105000D01*
X135801375Y-79036177D01*
X135825526Y-79060328D01*
X135825529Y-79060330D01*
X142871198Y-86106000D01*
X142571858Y-86106000D01*
X142011723Y-86338015D01*
X141583015Y-86766723D01*
X141351000Y-87326858D01*
X141351000Y-87933142D01*
X141583015Y-88493277D01*
X142011723Y-88921985D01*
X142571858Y-89154000D01*
X143178142Y-89154000D01*
X143738277Y-88921985D01*
X144119545Y-88540717D01*
X153853301Y-98274473D01*
X153895701Y-98337929D01*
X153959157Y-98380329D01*
X154147092Y-98505904D01*
X154195235Y-98515480D01*
X154355145Y-98547288D01*
X154540423Y-98824577D01*
X154892758Y-99060000D01*
X154540423Y-99295423D01*
X154223260Y-99770091D01*
X154111887Y-100330000D01*
X154223260Y-100889909D01*
X154540423Y-101364577D01*
X154892758Y-101600000D01*
X154540423Y-101835423D01*
X154223260Y-102310091D01*
X154111887Y-102870000D01*
X154223260Y-103429909D01*
X154540423Y-103904577D01*
X154892758Y-104140000D01*
X154540423Y-104375423D01*
X154223260Y-104850091D01*
X154111887Y-105410000D01*
X154223260Y-105969909D01*
X154540423Y-106444577D01*
X154924108Y-106700947D01*
X154719866Y-106797611D01*
X154343959Y-107212577D01*
X154183096Y-107600961D01*
X154305085Y-107823000D01*
X155448000Y-107823000D01*
X155448000Y-107803000D01*
X155702000Y-107803000D01*
X155702000Y-107823000D01*
X156844915Y-107823000D01*
X156966904Y-107600961D01*
X156806041Y-107212577D01*
X156430134Y-106797611D01*
X156225892Y-106700947D01*
X156609577Y-106444577D01*
X156926740Y-105969909D01*
X157038113Y-105410000D01*
X157037595Y-105407397D01*
X157990001Y-106359803D01*
X157990000Y-110175155D01*
X157975112Y-110250002D01*
X157990000Y-110324849D01*
X157990000Y-110324853D01*
X158034096Y-110546538D01*
X158202071Y-110797931D01*
X158265530Y-110840333D01*
X162064669Y-114639473D01*
X162077784Y-114659101D01*
X161843260Y-115010091D01*
X161731887Y-115570000D01*
X161843260Y-116129909D01*
X162160423Y-116604577D01*
X162512758Y-116840000D01*
X162160423Y-117075423D01*
X161843260Y-117550091D01*
X161731887Y-118110000D01*
X161843260Y-118669909D01*
X162160423Y-119144577D01*
X162512758Y-119380000D01*
X162160423Y-119615423D01*
X161843260Y-120090091D01*
X161731887Y-120650000D01*
X161732405Y-120652603D01*
X156973688Y-115893887D01*
X157038113Y-115570000D01*
X156926740Y-115010091D01*
X156609577Y-114535423D01*
X156257242Y-114300000D01*
X156609577Y-114064577D01*
X156926740Y-113589909D01*
X157038113Y-113030000D01*
X156926740Y-112470091D01*
X156609577Y-111995423D01*
X156257242Y-111760000D01*
X156609577Y-111524577D01*
X156926740Y-111049909D01*
X157038113Y-110490000D01*
X156926740Y-109930091D01*
X156609577Y-109455423D01*
X156225892Y-109199053D01*
X156430134Y-109102389D01*
X156806041Y-108687423D01*
X156966904Y-108299039D01*
X156844915Y-108077000D01*
X155702000Y-108077000D01*
X155702000Y-108097000D01*
X155448000Y-108097000D01*
X155448000Y-108077000D01*
X154305085Y-108077000D01*
X154183096Y-108299039D01*
X154343959Y-108687423D01*
X154719866Y-109102389D01*
X154924108Y-109199053D01*
X154540423Y-109455423D01*
X154223260Y-109930091D01*
X154111887Y-110490000D01*
X154223260Y-111049909D01*
X154540423Y-111524577D01*
X154892758Y-111760000D01*
X154540423Y-111995423D01*
X154223260Y-112470091D01*
X154111887Y-113030000D01*
X154223260Y-113589909D01*
X154540423Y-114064577D01*
X154892758Y-114300000D01*
X154540423Y-114535423D01*
X154223260Y-115010091D01*
X154111887Y-115570000D01*
X154223260Y-116129909D01*
X154540423Y-116604577D01*
X154892758Y-116840000D01*
X154540423Y-117075423D01*
X154223260Y-117550091D01*
X154111887Y-118110000D01*
X154223260Y-118669909D01*
X154540423Y-119144577D01*
X154892758Y-119380000D01*
X154540423Y-119615423D01*
X154223260Y-120090091D01*
X154111887Y-120650000D01*
X154223260Y-121209909D01*
X154540423Y-121684577D01*
X154892758Y-121920000D01*
X154540423Y-122155423D01*
X154223260Y-122630091D01*
X154111887Y-123190000D01*
X154223260Y-123749909D01*
X154540423Y-124224577D01*
X155015091Y-124541740D01*
X155433667Y-124625000D01*
X155716333Y-124625000D01*
X156134909Y-124541740D01*
X156609577Y-124224577D01*
X156926740Y-123749909D01*
X157038113Y-123190000D01*
X156926740Y-122630091D01*
X156609577Y-122155423D01*
X156257242Y-121920000D01*
X156609577Y-121684577D01*
X156926740Y-121209909D01*
X157038113Y-120650000D01*
X156926740Y-120090091D01*
X156609577Y-119615423D01*
X156257242Y-119380000D01*
X156609577Y-119144577D01*
X156926740Y-118669909D01*
X157038113Y-118110000D01*
X157037595Y-118107396D01*
X161189671Y-122259473D01*
X161232072Y-122322930D01*
X161483464Y-122490905D01*
X161705149Y-122535001D01*
X161705153Y-122535001D01*
X161780000Y-122549889D01*
X161854847Y-122535001D01*
X161906797Y-122535001D01*
X161843260Y-122630091D01*
X161731887Y-123190000D01*
X161843260Y-123749909D01*
X162160423Y-124224577D01*
X162635091Y-124541740D01*
X163053667Y-124625000D01*
X163336333Y-124625000D01*
X163518887Y-124588688D01*
X163898198Y-124968000D01*
X129578452Y-124968000D01*
X127826804Y-123800235D01*
X127804933Y-123753756D01*
X127762000Y-123528693D01*
X127762000Y-122904039D01*
X133863096Y-122904039D01*
X134023959Y-123292423D01*
X134399866Y-123707389D01*
X134905959Y-123946914D01*
X135128000Y-123825629D01*
X135128000Y-122682000D01*
X135382000Y-122682000D01*
X135382000Y-123825629D01*
X135604041Y-123946914D01*
X136110134Y-123707389D01*
X136486041Y-123292423D01*
X136646904Y-122904039D01*
X136524915Y-122682000D01*
X135382000Y-122682000D01*
X135128000Y-122682000D01*
X133985085Y-122682000D01*
X133863096Y-122904039D01*
X127762000Y-122904039D01*
X127762000Y-122205961D01*
X133863096Y-122205961D01*
X133985085Y-122428000D01*
X135128000Y-122428000D01*
X135128000Y-121284371D01*
X135382000Y-121284371D01*
X135382000Y-122428000D01*
X136524915Y-122428000D01*
X136611961Y-122269561D01*
X141440000Y-122269561D01*
X141440000Y-122840439D01*
X141658466Y-123367862D01*
X142062138Y-123771534D01*
X142589561Y-123990000D01*
X143160439Y-123990000D01*
X143687862Y-123771534D01*
X144091534Y-123367862D01*
X144310000Y-122840439D01*
X144310000Y-122269561D01*
X144091534Y-121742138D01*
X143687862Y-121338466D01*
X143160439Y-121120000D01*
X142589561Y-121120000D01*
X142062138Y-121338466D01*
X141658466Y-121742138D01*
X141440000Y-122269561D01*
X136611961Y-122269561D01*
X136646904Y-122205961D01*
X136486041Y-121817577D01*
X136110134Y-121402611D01*
X135604041Y-121163086D01*
X135382000Y-121284371D01*
X135128000Y-121284371D01*
X134905959Y-121163086D01*
X134399866Y-121402611D01*
X134023959Y-121817577D01*
X133863096Y-122205961D01*
X127762000Y-122205961D01*
X127762000Y-121020000D01*
X144502560Y-121020000D01*
X144502560Y-122820000D01*
X144551843Y-123067765D01*
X144692191Y-123277809D01*
X144902235Y-123418157D01*
X145150000Y-123467440D01*
X146950000Y-123467440D01*
X147197765Y-123418157D01*
X147407809Y-123277809D01*
X147548157Y-123067765D01*
X147551275Y-123052092D01*
X147720493Y-123221310D01*
X148284670Y-123455000D01*
X148895330Y-123455000D01*
X149459507Y-123221310D01*
X149891310Y-122789507D01*
X150125000Y-122225330D01*
X150125000Y-121614670D01*
X149891310Y-121050493D01*
X149459507Y-120618690D01*
X148895330Y-120385000D01*
X148284670Y-120385000D01*
X147720493Y-120618690D01*
X147551275Y-120787908D01*
X147548157Y-120772235D01*
X147407809Y-120562191D01*
X147197765Y-120421843D01*
X146950000Y-120372560D01*
X145150000Y-120372560D01*
X144902235Y-120421843D01*
X144692191Y-120562191D01*
X144551843Y-120772235D01*
X144502560Y-121020000D01*
X127762000Y-121020000D01*
X127762000Y-116830446D01*
X128151456Y-117770676D01*
X129244324Y-118863544D01*
X130672225Y-119455000D01*
X132217775Y-119455000D01*
X133089211Y-119094039D01*
X134618096Y-119094039D01*
X134778959Y-119482423D01*
X135154866Y-119897389D01*
X135660959Y-120136914D01*
X135883000Y-120015629D01*
X135883000Y-118872000D01*
X136137000Y-118872000D01*
X136137000Y-120015629D01*
X136359041Y-120136914D01*
X136865134Y-119897389D01*
X137241041Y-119482423D01*
X137401904Y-119094039D01*
X137279915Y-118872000D01*
X136137000Y-118872000D01*
X135883000Y-118872000D01*
X134740085Y-118872000D01*
X134618096Y-119094039D01*
X133089211Y-119094039D01*
X133645676Y-118863544D01*
X134113259Y-118395961D01*
X134618096Y-118395961D01*
X134740085Y-118618000D01*
X135883000Y-118618000D01*
X135883000Y-117474371D01*
X136137000Y-117474371D01*
X136137000Y-118618000D01*
X137279915Y-118618000D01*
X137366961Y-118459561D01*
X142075000Y-118459561D01*
X142075000Y-119030439D01*
X142293466Y-119557862D01*
X142697138Y-119961534D01*
X143224561Y-120180000D01*
X143795439Y-120180000D01*
X144322862Y-119961534D01*
X144726534Y-119557862D01*
X144945000Y-119030439D01*
X144945000Y-118459561D01*
X144726534Y-117932138D01*
X144322862Y-117528466D01*
X143795439Y-117310000D01*
X143224561Y-117310000D01*
X142697138Y-117528466D01*
X142293466Y-117932138D01*
X142075000Y-118459561D01*
X137366961Y-118459561D01*
X137401904Y-118395961D01*
X137241041Y-118007577D01*
X136865134Y-117592611D01*
X136359041Y-117353086D01*
X136137000Y-117474371D01*
X135883000Y-117474371D01*
X135660959Y-117353086D01*
X135154866Y-117592611D01*
X134778959Y-118007577D01*
X134618096Y-118395961D01*
X134113259Y-118395961D01*
X134738544Y-117770676D01*
X135330000Y-116342775D01*
X135330000Y-115469714D01*
X135413959Y-115672423D01*
X135789866Y-116087389D01*
X136295959Y-116326914D01*
X136518000Y-116205629D01*
X136518000Y-115062000D01*
X136772000Y-115062000D01*
X136772000Y-116205629D01*
X136994041Y-116326914D01*
X137500134Y-116087389D01*
X137876041Y-115672423D01*
X138036904Y-115284039D01*
X137914915Y-115062000D01*
X136772000Y-115062000D01*
X136518000Y-115062000D01*
X136498000Y-115062000D01*
X136498000Y-114808000D01*
X136518000Y-114808000D01*
X136518000Y-113664371D01*
X136772000Y-113664371D01*
X136772000Y-114808000D01*
X137914915Y-114808000D01*
X138001961Y-114649561D01*
X142710000Y-114649561D01*
X142710000Y-115220439D01*
X142928466Y-115747862D01*
X143332138Y-116151534D01*
X143859561Y-116370000D01*
X144430439Y-116370000D01*
X144957862Y-116151534D01*
X145361534Y-115747862D01*
X145580000Y-115220439D01*
X145580000Y-115094506D01*
X149110000Y-115094506D01*
X149110000Y-115645494D01*
X149320853Y-116154540D01*
X149710460Y-116544147D01*
X150219506Y-116755000D01*
X150770494Y-116755000D01*
X151279540Y-116544147D01*
X151669147Y-116154540D01*
X151880000Y-115645494D01*
X151880000Y-115094506D01*
X151669147Y-114585460D01*
X151279540Y-114195853D01*
X150770494Y-113985000D01*
X150219506Y-113985000D01*
X149710460Y-114195853D01*
X149320853Y-114585460D01*
X149110000Y-115094506D01*
X145580000Y-115094506D01*
X145580000Y-114649561D01*
X145361534Y-114122138D01*
X144957862Y-113718466D01*
X144430439Y-113500000D01*
X143859561Y-113500000D01*
X143332138Y-113718466D01*
X142928466Y-114122138D01*
X142710000Y-114649561D01*
X138001961Y-114649561D01*
X138036904Y-114585961D01*
X137876041Y-114197577D01*
X137500134Y-113782611D01*
X136994041Y-113543086D01*
X136772000Y-113664371D01*
X136518000Y-113664371D01*
X136295959Y-113543086D01*
X135789866Y-113782611D01*
X135413959Y-114197577D01*
X135253096Y-114585961D01*
X135375084Y-114807998D01*
X135330000Y-114807998D01*
X135330000Y-114797225D01*
X134738544Y-113369324D01*
X133645676Y-112276456D01*
X132217775Y-111685000D01*
X130672225Y-111685000D01*
X129244324Y-112276456D01*
X128151456Y-113369324D01*
X127762000Y-114309554D01*
X127762000Y-111474039D01*
X135133096Y-111474039D01*
X135293959Y-111862423D01*
X135669866Y-112277389D01*
X136175959Y-112516914D01*
X136398000Y-112395629D01*
X136398000Y-111252000D01*
X136652000Y-111252000D01*
X136652000Y-112395629D01*
X136874041Y-112516914D01*
X137380134Y-112277389D01*
X137756041Y-111862423D01*
X137916904Y-111474039D01*
X137794915Y-111252000D01*
X136652000Y-111252000D01*
X136398000Y-111252000D01*
X135255085Y-111252000D01*
X135133096Y-111474039D01*
X127762000Y-111474039D01*
X127762000Y-110775961D01*
X135133096Y-110775961D01*
X135255085Y-110998000D01*
X136398000Y-110998000D01*
X136398000Y-109854371D01*
X136652000Y-109854371D01*
X136652000Y-110998000D01*
X137794915Y-110998000D01*
X137881961Y-110839561D01*
X142710000Y-110839561D01*
X142710000Y-111410439D01*
X142928466Y-111937862D01*
X143332138Y-112341534D01*
X143859561Y-112560000D01*
X144430439Y-112560000D01*
X144957862Y-112341534D01*
X145361534Y-111937862D01*
X145580000Y-111410439D01*
X145580000Y-110839561D01*
X145361534Y-110312138D01*
X145263902Y-110214506D01*
X149110000Y-110214506D01*
X149110000Y-110765494D01*
X149320853Y-111274540D01*
X149710460Y-111664147D01*
X150219506Y-111875000D01*
X150770494Y-111875000D01*
X151279540Y-111664147D01*
X151669147Y-111274540D01*
X151880000Y-110765494D01*
X151880000Y-110214506D01*
X151669147Y-109705460D01*
X151279540Y-109315853D01*
X150770494Y-109105000D01*
X150219506Y-109105000D01*
X149710460Y-109315853D01*
X149320853Y-109705460D01*
X149110000Y-110214506D01*
X145263902Y-110214506D01*
X144957862Y-109908466D01*
X144430439Y-109690000D01*
X143859561Y-109690000D01*
X143332138Y-109908466D01*
X142928466Y-110312138D01*
X142710000Y-110839561D01*
X137881961Y-110839561D01*
X137916904Y-110775961D01*
X137756041Y-110387577D01*
X137380134Y-109972611D01*
X136874041Y-109733086D01*
X136652000Y-109854371D01*
X136398000Y-109854371D01*
X136175959Y-109733086D01*
X135669866Y-109972611D01*
X135293959Y-110387577D01*
X135133096Y-110775961D01*
X127762000Y-110775961D01*
X127762000Y-105106858D01*
X135636000Y-105106858D01*
X135636000Y-105713142D01*
X135868015Y-106273277D01*
X136296723Y-106701985D01*
X136856858Y-106934000D01*
X137463142Y-106934000D01*
X138023277Y-106701985D01*
X138430000Y-106295262D01*
X138836723Y-106701985D01*
X139396858Y-106934000D01*
X140003142Y-106934000D01*
X140563277Y-106701985D01*
X140783066Y-106482196D01*
X141347409Y-106482196D01*
X141432467Y-106737539D01*
X142001965Y-106945516D01*
X142607700Y-106919723D01*
X143047533Y-106737539D01*
X143132591Y-106482196D01*
X142240000Y-105589605D01*
X141347409Y-106482196D01*
X140783066Y-106482196D01*
X140991985Y-106273277D01*
X141002633Y-106247570D01*
X141167804Y-106302591D01*
X142060395Y-105410000D01*
X142419605Y-105410000D01*
X143312196Y-106302591D01*
X143567539Y-106217533D01*
X143775516Y-105648035D01*
X143749723Y-105042300D01*
X143567539Y-104602467D01*
X143312196Y-104517409D01*
X142419605Y-105410000D01*
X142060395Y-105410000D01*
X141167804Y-104517409D01*
X141002633Y-104572430D01*
X140991985Y-104546723D01*
X140783066Y-104337804D01*
X141347409Y-104337804D01*
X142240000Y-105230395D01*
X143132591Y-104337804D01*
X143047533Y-104082461D01*
X142478035Y-103874484D01*
X141872300Y-103900277D01*
X141432467Y-104082461D01*
X141347409Y-104337804D01*
X140783066Y-104337804D01*
X140563277Y-104118015D01*
X140003142Y-103886000D01*
X139396858Y-103886000D01*
X138836723Y-104118015D01*
X138430000Y-104524738D01*
X138023277Y-104118015D01*
X137463142Y-103886000D01*
X136856858Y-103886000D01*
X136296723Y-104118015D01*
X135868015Y-104546723D01*
X135636000Y-105106858D01*
X127762000Y-105106858D01*
X127762000Y-101563834D01*
X130302000Y-101563834D01*
X130302000Y-102271166D01*
X130572684Y-102924656D01*
X131072844Y-103424816D01*
X131726334Y-103695500D01*
X132433666Y-103695500D01*
X133087156Y-103424816D01*
X133587316Y-102924656D01*
X133858000Y-102271166D01*
X133858000Y-101563834D01*
X145542000Y-101563834D01*
X145542000Y-102271166D01*
X145812684Y-102924656D01*
X146312844Y-103424816D01*
X146966334Y-103695500D01*
X147673666Y-103695500D01*
X148327156Y-103424816D01*
X148827316Y-102924656D01*
X149098000Y-102271166D01*
X149098000Y-101563834D01*
X148827316Y-100910344D01*
X148327156Y-100410184D01*
X147673666Y-100139500D01*
X146966334Y-100139500D01*
X146312844Y-100410184D01*
X145812684Y-100910344D01*
X145542000Y-101563834D01*
X133858000Y-101563834D01*
X133587316Y-100910344D01*
X133087156Y-100410184D01*
X132433666Y-100139500D01*
X131726334Y-100139500D01*
X131072844Y-100410184D01*
X130572684Y-100910344D01*
X130302000Y-101563834D01*
X127762000Y-101563834D01*
X127762000Y-98862196D01*
X128647409Y-98862196D01*
X128732467Y-99117539D01*
X129301965Y-99325516D01*
X129907700Y-99299723D01*
X130347533Y-99117539D01*
X130432591Y-98862196D01*
X129540000Y-97969605D01*
X128647409Y-98862196D01*
X127762000Y-98862196D01*
X127762000Y-97551965D01*
X128004484Y-97551965D01*
X128030277Y-98157700D01*
X128212461Y-98597533D01*
X128467804Y-98682591D01*
X129360395Y-97790000D01*
X129719605Y-97790000D01*
X130612196Y-98682591D01*
X130867539Y-98597533D01*
X131075516Y-98028035D01*
X131049723Y-97422300D01*
X130867539Y-96982467D01*
X130612196Y-96897409D01*
X129719605Y-97790000D01*
X129360395Y-97790000D01*
X128467804Y-96897409D01*
X128212461Y-96982467D01*
X128004484Y-97551965D01*
X127762000Y-97551965D01*
X127762000Y-92406858D01*
X128016000Y-92406858D01*
X128016000Y-93013142D01*
X128248015Y-93573277D01*
X128654738Y-93980000D01*
X128248015Y-94386723D01*
X128016000Y-94946858D01*
X128016000Y-95553142D01*
X128248015Y-96113277D01*
X128676723Y-96541985D01*
X128702430Y-96552633D01*
X128647409Y-96717804D01*
X129540000Y-97610395D01*
X130432591Y-96717804D01*
X130377570Y-96552633D01*
X130403277Y-96541985D01*
X130831985Y-96113277D01*
X131064000Y-95553142D01*
X131064000Y-94946858D01*
X130831985Y-94386723D01*
X130425262Y-93980000D01*
X130831985Y-93573277D01*
X131064000Y-93013142D01*
X131064000Y-92406858D01*
X130831985Y-91846723D01*
X130403277Y-91418015D01*
X129843142Y-91186000D01*
X129236858Y-91186000D01*
X128676723Y-91418015D01*
X128248015Y-91846723D01*
X128016000Y-92406858D01*
X127762000Y-92406858D01*
X127762000Y-88228834D01*
X130302000Y-88228834D01*
X130302000Y-88936166D01*
X130572684Y-89589656D01*
X131072844Y-90089816D01*
X131726334Y-90360500D01*
X132433666Y-90360500D01*
X133087156Y-90089816D01*
X133587316Y-89589656D01*
X133858000Y-88936166D01*
X133858000Y-88228834D01*
X133587316Y-87575344D01*
X133338830Y-87326858D01*
X135001000Y-87326858D01*
X135001000Y-87933142D01*
X135233015Y-88493277D01*
X135661723Y-88921985D01*
X136221858Y-89154000D01*
X136828142Y-89154000D01*
X137388277Y-88921985D01*
X137816985Y-88493277D01*
X138049000Y-87933142D01*
X138049000Y-87326858D01*
X137816985Y-86766723D01*
X137388277Y-86338015D01*
X136828142Y-86106000D01*
X136221858Y-86106000D01*
X135661723Y-86338015D01*
X135233015Y-86766723D01*
X135001000Y-87326858D01*
X133338830Y-87326858D01*
X133087156Y-87075184D01*
X132433666Y-86804500D01*
X131726334Y-86804500D01*
X131072844Y-87075184D01*
X130572684Y-87575344D01*
X130302000Y-88228834D01*
X127762000Y-88228834D01*
X127762000Y-82246858D01*
X135001000Y-82246858D01*
X135001000Y-82853142D01*
X135233015Y-83413277D01*
X135661723Y-83841985D01*
X136221858Y-84074000D01*
X136828142Y-84074000D01*
X137388277Y-83841985D01*
X137816985Y-83413277D01*
X138049000Y-82853142D01*
X138049000Y-82246858D01*
X137816985Y-81686723D01*
X137388277Y-81258015D01*
X136828142Y-81026000D01*
X136221858Y-81026000D01*
X135661723Y-81258015D01*
X135233015Y-81686723D01*
X135001000Y-82246858D01*
X127762000Y-82246858D01*
X127762000Y-77144778D01*
X129175000Y-77144778D01*
X129175000Y-77795222D01*
X129423914Y-78396153D01*
X129883847Y-78856086D01*
X130484778Y-79105000D01*
X131135222Y-79105000D01*
X131736153Y-78856086D01*
X132196086Y-78396153D01*
X132445000Y-77795222D01*
X132445000Y-77144778D01*
X132196086Y-76543847D01*
X131736153Y-76083914D01*
X131135222Y-75835000D01*
X130484778Y-75835000D01*
X129883847Y-76083914D01*
X129423914Y-76543847D01*
X129175000Y-77144778D01*
X127762000Y-77144778D01*
X127762000Y-70644778D01*
X129175000Y-70644778D01*
X129175000Y-71295222D01*
X129423914Y-71896153D01*
X129883847Y-72356086D01*
X130484778Y-72605000D01*
X131135222Y-72605000D01*
X131736153Y-72356086D01*
X132196086Y-71896153D01*
X132445000Y-71295222D01*
X132445000Y-70644778D01*
X132196086Y-70043847D01*
X131736153Y-69583914D01*
X131135222Y-69335000D01*
X130484778Y-69335000D01*
X129883847Y-69583914D01*
X129423914Y-70043847D01*
X129175000Y-70644778D01*
X127762000Y-70644778D01*
X127762000Y-65140000D01*
X129262560Y-65140000D01*
X129262560Y-66940000D01*
X129311843Y-67187765D01*
X129452191Y-67397809D01*
X129662235Y-67538157D01*
X129910000Y-67587440D01*
X131710000Y-67587440D01*
X131957765Y-67538157D01*
X132167809Y-67397809D01*
X132308157Y-67187765D01*
X132311275Y-67172092D01*
X132480493Y-67341310D01*
X133044670Y-67575000D01*
X133655330Y-67575000D01*
X134219507Y-67341310D01*
X134388725Y-67172092D01*
X134391843Y-67187765D01*
X134532191Y-67397809D01*
X134742235Y-67538157D01*
X134990000Y-67587440D01*
X136790000Y-67587440D01*
X137037765Y-67538157D01*
X137247809Y-67397809D01*
X137388157Y-67187765D01*
X137391275Y-67172092D01*
X137560493Y-67341310D01*
X138124670Y-67575000D01*
X138735330Y-67575000D01*
X139143655Y-67405866D01*
X140325000Y-67405866D01*
X140325000Y-68454134D01*
X140726155Y-69422608D01*
X141467392Y-70163845D01*
X142435866Y-70565000D01*
X143484134Y-70565000D01*
X144452608Y-70163845D01*
X145193845Y-69422608D01*
X145595000Y-68454134D01*
X145595000Y-67405866D01*
X149125000Y-67405866D01*
X149125000Y-68454134D01*
X149526155Y-69422608D01*
X150267392Y-70163845D01*
X151235866Y-70565000D01*
X152284134Y-70565000D01*
X152996327Y-70270000D01*
X168682560Y-70270000D01*
X168682560Y-71970000D01*
X168731843Y-72217765D01*
X168872191Y-72427809D01*
X169082235Y-72568157D01*
X169330000Y-72617440D01*
X171030000Y-72617440D01*
X171277765Y-72568157D01*
X171487809Y-72427809D01*
X171628157Y-72217765D01*
X171637184Y-72172381D01*
X171649375Y-72190625D01*
X172140582Y-72518839D01*
X172573744Y-72605000D01*
X172866256Y-72605000D01*
X173299418Y-72518839D01*
X173790625Y-72190625D01*
X173990000Y-71892239D01*
X174189375Y-72190625D01*
X174680582Y-72518839D01*
X175113744Y-72605000D01*
X175406256Y-72605000D01*
X175839418Y-72518839D01*
X176330625Y-72190625D01*
X176658839Y-71699418D01*
X176774092Y-71120000D01*
X176658839Y-70540582D01*
X176330625Y-70049375D01*
X175839418Y-69721161D01*
X175406256Y-69635000D01*
X175113744Y-69635000D01*
X174680582Y-69721161D01*
X174189375Y-70049375D01*
X173990000Y-70347761D01*
X173790625Y-70049375D01*
X173299418Y-69721161D01*
X172866256Y-69635000D01*
X172573744Y-69635000D01*
X172140582Y-69721161D01*
X171649375Y-70049375D01*
X171637184Y-70067619D01*
X171628157Y-70022235D01*
X171487809Y-69812191D01*
X171277765Y-69671843D01*
X171030000Y-69622560D01*
X169330000Y-69622560D01*
X169082235Y-69671843D01*
X168872191Y-69812191D01*
X168731843Y-70022235D01*
X168682560Y-70270000D01*
X152996327Y-70270000D01*
X153252608Y-70163845D01*
X153993845Y-69422608D01*
X154395000Y-68454134D01*
X154395000Y-67405866D01*
X154265500Y-67093223D01*
X161653035Y-67093223D01*
X161680222Y-67663454D01*
X161846136Y-68064005D01*
X162092255Y-68138139D01*
X162920395Y-67310000D01*
X162092255Y-66481861D01*
X161846136Y-66555995D01*
X161653035Y-67093223D01*
X154265500Y-67093223D01*
X153993845Y-66437392D01*
X153858708Y-66302255D01*
X162271861Y-66302255D01*
X163100000Y-67130395D01*
X163114142Y-67116252D01*
X163293748Y-67295858D01*
X163279605Y-67310000D01*
X163293748Y-67324143D01*
X163114142Y-67503748D01*
X163100000Y-67489605D01*
X162271861Y-68317745D01*
X162345995Y-68563864D01*
X162883223Y-68756965D01*
X163453454Y-68729778D01*
X163843067Y-68568395D01*
X164052235Y-68708157D01*
X164300000Y-68757440D01*
X165900000Y-68757440D01*
X166147765Y-68708157D01*
X166357809Y-68567809D01*
X166386307Y-68525159D01*
X177485000Y-68525159D01*
X177485000Y-69314841D01*
X177787199Y-70044412D01*
X178345588Y-70602801D01*
X179075159Y-70905000D01*
X179864841Y-70905000D01*
X180594412Y-70602801D01*
X181152801Y-70044412D01*
X181160000Y-70027031D01*
X181160000Y-72625153D01*
X181145112Y-72700000D01*
X181160000Y-72774847D01*
X181160000Y-72774851D01*
X181204096Y-72996536D01*
X181372071Y-73247929D01*
X181435530Y-73290331D01*
X188830000Y-80684802D01*
X188830000Y-80850874D01*
X188987569Y-81231280D01*
X189278720Y-81522431D01*
X189659126Y-81680000D01*
X190070874Y-81680000D01*
X190451280Y-81522431D01*
X190742431Y-81231280D01*
X190900000Y-80850874D01*
X190900000Y-80439126D01*
X190742431Y-80058720D01*
X190451280Y-79767569D01*
X190070874Y-79610000D01*
X189904802Y-79610000D01*
X186864802Y-76570000D01*
X196572560Y-76570000D01*
X196572560Y-78370000D01*
X196621843Y-78617765D01*
X196762191Y-78827809D01*
X196972235Y-78968157D01*
X197220000Y-79017440D01*
X199020000Y-79017440D01*
X199267765Y-78968157D01*
X199477809Y-78827809D01*
X199618157Y-78617765D01*
X199621275Y-78602092D01*
X199790493Y-78771310D01*
X200354670Y-79005000D01*
X200965330Y-79005000D01*
X201529507Y-78771310D01*
X201961310Y-78339507D01*
X202195000Y-77775330D01*
X202195000Y-77755750D01*
X203073000Y-77755750D01*
X203073000Y-78358309D01*
X203169673Y-78591698D01*
X203348301Y-78770327D01*
X203581690Y-78867000D01*
X204184250Y-78867000D01*
X204343000Y-78708250D01*
X204343000Y-77597000D01*
X203231750Y-77597000D01*
X203073000Y-77755750D01*
X202195000Y-77755750D01*
X202195000Y-77164670D01*
X201961310Y-76600493D01*
X201529507Y-76168690D01*
X200965330Y-75935000D01*
X200354670Y-75935000D01*
X199790493Y-76168690D01*
X199621275Y-76337908D01*
X199618157Y-76322235D01*
X199477809Y-76112191D01*
X199267765Y-75971843D01*
X199020000Y-75922560D01*
X197220000Y-75922560D01*
X196972235Y-75971843D01*
X196762191Y-76112191D01*
X196621843Y-76322235D01*
X196572560Y-76570000D01*
X186864802Y-76570000D01*
X184946921Y-74652119D01*
X203073000Y-74652119D01*
X203073000Y-75207881D01*
X203285680Y-75721337D01*
X203637343Y-76073000D01*
X203581690Y-76073000D01*
X203348301Y-76169673D01*
X203169673Y-76348302D01*
X203073000Y-76581691D01*
X203073000Y-77184250D01*
X203231750Y-77343000D01*
X204343000Y-77343000D01*
X204343000Y-77323000D01*
X204597000Y-77323000D01*
X204597000Y-77343000D01*
X204617000Y-77343000D01*
X204617000Y-77597000D01*
X204597000Y-77597000D01*
X204597000Y-78708250D01*
X204755750Y-78867000D01*
X205358310Y-78867000D01*
X205591699Y-78770327D01*
X205770327Y-78591698D01*
X205867000Y-78358309D01*
X205867000Y-78302657D01*
X206218663Y-78654320D01*
X206732119Y-78867000D01*
X207287881Y-78867000D01*
X207801337Y-78654320D01*
X208194320Y-78261337D01*
X208280000Y-78054487D01*
X208365680Y-78261337D01*
X208758663Y-78654320D01*
X209272119Y-78867000D01*
X209827881Y-78867000D01*
X210341337Y-78654320D01*
X210734320Y-78261337D01*
X210820000Y-78054487D01*
X210905680Y-78261337D01*
X211298663Y-78654320D01*
X211812119Y-78867000D01*
X212367881Y-78867000D01*
X212881337Y-78654320D01*
X213274320Y-78261337D01*
X213487000Y-77747881D01*
X213487000Y-77192119D01*
X213274320Y-76678663D01*
X212881337Y-76285680D01*
X212674487Y-76200000D01*
X212881337Y-76114320D01*
X213274320Y-75721337D01*
X213487000Y-75207881D01*
X213487000Y-74652119D01*
X213274320Y-74138663D01*
X212881337Y-73745680D01*
X212367881Y-73533000D01*
X211812119Y-73533000D01*
X211298663Y-73745680D01*
X210905680Y-74138663D01*
X210820000Y-74345513D01*
X210734320Y-74138663D01*
X210341337Y-73745680D01*
X209827881Y-73533000D01*
X209272119Y-73533000D01*
X208758663Y-73745680D01*
X208365680Y-74138663D01*
X208280000Y-74345513D01*
X208194320Y-74138663D01*
X207801337Y-73745680D01*
X207287881Y-73533000D01*
X206732119Y-73533000D01*
X206218663Y-73745680D01*
X205825680Y-74138663D01*
X205740000Y-74345513D01*
X205654320Y-74138663D01*
X205261337Y-73745680D01*
X204747881Y-73533000D01*
X204192119Y-73533000D01*
X203678663Y-73745680D01*
X203285680Y-74138663D01*
X203073000Y-74652119D01*
X184946921Y-74652119D01*
X182680000Y-72385199D01*
X182680000Y-69725159D01*
X185885000Y-69725159D01*
X185885000Y-70514841D01*
X186187199Y-71244412D01*
X186745588Y-71802801D01*
X187475159Y-72105000D01*
X188264841Y-72105000D01*
X188994412Y-71802801D01*
X189552801Y-71244412D01*
X189855000Y-70514841D01*
X189855000Y-69725159D01*
X189552801Y-68995588D01*
X189507213Y-68950000D01*
X196572560Y-68950000D01*
X196572560Y-70750000D01*
X196621843Y-70997765D01*
X196762191Y-71207809D01*
X196972235Y-71348157D01*
X197220000Y-71397440D01*
X199020000Y-71397440D01*
X199267765Y-71348157D01*
X199477809Y-71207809D01*
X199618157Y-70997765D01*
X199621275Y-70982092D01*
X199790493Y-71151310D01*
X200354670Y-71385000D01*
X200965330Y-71385000D01*
X201529507Y-71151310D01*
X201961310Y-70719507D01*
X202195000Y-70155330D01*
X202195000Y-69544670D01*
X201961310Y-68980493D01*
X201529507Y-68548690D01*
X200965330Y-68315000D01*
X200354670Y-68315000D01*
X199790493Y-68548690D01*
X199621275Y-68717908D01*
X199618157Y-68702235D01*
X199477809Y-68492191D01*
X199267765Y-68351843D01*
X199020000Y-68302560D01*
X198880000Y-68302560D01*
X198880000Y-66008430D01*
X198932862Y-65986534D01*
X199336534Y-65582862D01*
X199555000Y-65055439D01*
X199555000Y-64484561D01*
X199336534Y-63957138D01*
X198932862Y-63553466D01*
X198405439Y-63335000D01*
X197834561Y-63335000D01*
X197307138Y-63553466D01*
X196903466Y-63957138D01*
X196685000Y-64484561D01*
X196685000Y-65055439D01*
X196903466Y-65582862D01*
X197307138Y-65986534D01*
X197360001Y-66008430D01*
X197360000Y-68302560D01*
X197220000Y-68302560D01*
X196972235Y-68351843D01*
X196762191Y-68492191D01*
X196621843Y-68702235D01*
X196572560Y-68950000D01*
X189507213Y-68950000D01*
X188994412Y-68437199D01*
X188264841Y-68135000D01*
X187475159Y-68135000D01*
X186745588Y-68437199D01*
X186187199Y-68995588D01*
X185885000Y-69725159D01*
X182680000Y-69725159D01*
X182680000Y-66089610D01*
X182775346Y-66050116D01*
X183200116Y-65625346D01*
X183430000Y-65070358D01*
X183430000Y-64469642D01*
X183200116Y-63914654D01*
X183180462Y-63895000D01*
X183897560Y-63895000D01*
X183897560Y-65645000D01*
X183946843Y-65892765D01*
X184087191Y-66102809D01*
X184297235Y-66243157D01*
X184545000Y-66292440D01*
X186295000Y-66292440D01*
X186542765Y-66243157D01*
X186752809Y-66102809D01*
X186893157Y-65892765D01*
X186942440Y-65645000D01*
X186942440Y-63895000D01*
X186893157Y-63647235D01*
X186752809Y-63437191D01*
X186542765Y-63296843D01*
X186295000Y-63247560D01*
X184545000Y-63247560D01*
X184297235Y-63296843D01*
X184087191Y-63437191D01*
X183946843Y-63647235D01*
X183897560Y-63895000D01*
X183180462Y-63895000D01*
X182775346Y-63489884D01*
X182220358Y-63260000D01*
X181619642Y-63260000D01*
X181064654Y-63489884D01*
X180639884Y-63914654D01*
X180410000Y-64469642D01*
X180410000Y-65070358D01*
X180639884Y-65625346D01*
X181064654Y-66050116D01*
X181160001Y-66089610D01*
X181160001Y-67812969D01*
X181152801Y-67795588D01*
X180594412Y-67237199D01*
X179864841Y-66935000D01*
X179075159Y-66935000D01*
X178345588Y-67237199D01*
X177787199Y-67795588D01*
X177485000Y-68525159D01*
X166386307Y-68525159D01*
X166498157Y-68357765D01*
X166547440Y-68110000D01*
X166547440Y-66510000D01*
X166498157Y-66262235D01*
X166357809Y-66052191D01*
X166147765Y-65911843D01*
X165900000Y-65862560D01*
X164300000Y-65862560D01*
X164052235Y-65911843D01*
X163842484Y-66051995D01*
X163316777Y-65863035D01*
X162746546Y-65890222D01*
X162345995Y-66056136D01*
X162271861Y-66302255D01*
X153858708Y-66302255D01*
X153252608Y-65696155D01*
X152284134Y-65295000D01*
X151235866Y-65295000D01*
X150267392Y-65696155D01*
X149526155Y-66437392D01*
X149125000Y-67405866D01*
X145595000Y-67405866D01*
X145193845Y-66437392D01*
X144452608Y-65696155D01*
X143484134Y-65295000D01*
X142435866Y-65295000D01*
X141467392Y-65696155D01*
X140726155Y-66437392D01*
X140325000Y-67405866D01*
X139143655Y-67405866D01*
X139299507Y-67341310D01*
X139731310Y-66909507D01*
X139965000Y-66345330D01*
X139965000Y-65734670D01*
X139759704Y-65239041D01*
X156088086Y-65239041D01*
X156327611Y-65745134D01*
X156742577Y-66121041D01*
X157130961Y-66281904D01*
X157353000Y-66159915D01*
X157353000Y-65017000D01*
X157607000Y-65017000D01*
X157607000Y-66159915D01*
X157829039Y-66281904D01*
X158217423Y-66121041D01*
X158632389Y-65745134D01*
X158871914Y-65239041D01*
X158750629Y-65017000D01*
X157607000Y-65017000D01*
X157353000Y-65017000D01*
X156209371Y-65017000D01*
X156088086Y-65239041D01*
X139759704Y-65239041D01*
X139731310Y-65170493D01*
X139299507Y-64738690D01*
X138822143Y-64540959D01*
X156088086Y-64540959D01*
X156209371Y-64763000D01*
X157353000Y-64763000D01*
X157353000Y-63620085D01*
X157607000Y-63620085D01*
X157607000Y-64763000D01*
X158750629Y-64763000D01*
X158871914Y-64540959D01*
X158632389Y-64034866D01*
X158217423Y-63658959D01*
X157829039Y-63498096D01*
X157607000Y-63620085D01*
X157353000Y-63620085D01*
X157130961Y-63498096D01*
X156742577Y-63658959D01*
X156327611Y-64034866D01*
X156088086Y-64540959D01*
X138822143Y-64540959D01*
X138735330Y-64505000D01*
X138124670Y-64505000D01*
X137560493Y-64738690D01*
X137391275Y-64907908D01*
X137388157Y-64892235D01*
X137247809Y-64682191D01*
X137037765Y-64541843D01*
X136790000Y-64492560D01*
X134990000Y-64492560D01*
X134742235Y-64541843D01*
X134532191Y-64682191D01*
X134391843Y-64892235D01*
X134388725Y-64907908D01*
X134219507Y-64738690D01*
X133655330Y-64505000D01*
X133044670Y-64505000D01*
X132480493Y-64738690D01*
X132311275Y-64907908D01*
X132308157Y-64892235D01*
X132167809Y-64682191D01*
X131957765Y-64541843D01*
X131710000Y-64492560D01*
X129910000Y-64492560D01*
X129662235Y-64541843D01*
X129452191Y-64682191D01*
X129311843Y-64892235D01*
X129262560Y-65140000D01*
X127762000Y-65140000D01*
X127762000Y-59404561D01*
X129375000Y-59404561D01*
X129375000Y-59975439D01*
X129593466Y-60502862D01*
X129997138Y-60906534D01*
X130524561Y-61125000D01*
X131095439Y-61125000D01*
X131622862Y-60906534D01*
X132026534Y-60502862D01*
X132245000Y-59975439D01*
X132245000Y-59404561D01*
X134455000Y-59404561D01*
X134455000Y-59975439D01*
X134673466Y-60502862D01*
X135077138Y-60906534D01*
X135604561Y-61125000D01*
X136175439Y-61125000D01*
X136702862Y-60906534D01*
X137106534Y-60502862D01*
X137325000Y-59975439D01*
X137325000Y-59404561D01*
X137106534Y-58877138D01*
X136919396Y-58690000D01*
X152070060Y-58690000D01*
X152070060Y-60690000D01*
X152119343Y-60937765D01*
X152259691Y-61147809D01*
X152469735Y-61288157D01*
X152717500Y-61337440D01*
X154622500Y-61337440D01*
X154870265Y-61288157D01*
X155080309Y-61147809D01*
X155217255Y-60942857D01*
X155343076Y-61065973D01*
X155837020Y-61280563D01*
X156083000Y-61160594D01*
X156083000Y-59817000D01*
X156063000Y-59817000D01*
X156063000Y-59563000D01*
X156083000Y-59563000D01*
X156083000Y-59543000D01*
X156337000Y-59543000D01*
X156337000Y-59563000D01*
X156357000Y-59563000D01*
X156357000Y-59817000D01*
X156337000Y-59817000D01*
X156337000Y-61160594D01*
X156582980Y-61280563D01*
X157076924Y-61065973D01*
X157470841Y-60680526D01*
X157605477Y-60882023D01*
X158130590Y-61232891D01*
X158750000Y-61356100D01*
X159369411Y-61232891D01*
X159894523Y-60882023D01*
X160245391Y-60356910D01*
X160337500Y-59893849D01*
X160337500Y-59486150D01*
X160245391Y-59023089D01*
X159894523Y-58497977D01*
X159369410Y-58147109D01*
X158750000Y-58023900D01*
X158130589Y-58147109D01*
X157605477Y-58497977D01*
X157470841Y-58699474D01*
X157076924Y-58314027D01*
X156582980Y-58099437D01*
X156351977Y-58212101D01*
X158219080Y-56344999D01*
X169242840Y-56344999D01*
X169295000Y-56355374D01*
X169295001Y-59602835D01*
X169277663Y-59690000D01*
X169346348Y-60035309D01*
X169492576Y-60254154D01*
X169492578Y-60254156D01*
X169541952Y-60328049D01*
X169615845Y-60377423D01*
X169952560Y-60714138D01*
X169952560Y-61810000D01*
X170001843Y-62057765D01*
X170142191Y-62267809D01*
X170352235Y-62408157D01*
X170600000Y-62457440D01*
X172300000Y-62457440D01*
X172547765Y-62408157D01*
X172757809Y-62267809D01*
X172898157Y-62057765D01*
X172918739Y-61954292D01*
X173223076Y-62231645D01*
X173633110Y-62401476D01*
X173863000Y-62280155D01*
X173863000Y-61087000D01*
X174117000Y-61087000D01*
X174117000Y-62280155D01*
X174346890Y-62401476D01*
X174756924Y-62231645D01*
X175185183Y-61841358D01*
X175431486Y-61316892D01*
X175310819Y-61087000D01*
X174117000Y-61087000D01*
X173863000Y-61087000D01*
X173843000Y-61087000D01*
X173843000Y-60833000D01*
X173863000Y-60833000D01*
X173863000Y-59639845D01*
X174117000Y-59639845D01*
X174117000Y-60833000D01*
X175310819Y-60833000D01*
X175431486Y-60603108D01*
X175185183Y-60078642D01*
X174756924Y-59688355D01*
X174346890Y-59518524D01*
X174117000Y-59639845D01*
X173863000Y-59639845D01*
X173633110Y-59518524D01*
X173223076Y-59688355D01*
X172918739Y-59965708D01*
X172898157Y-59862235D01*
X172757809Y-59652191D01*
X172547765Y-59511843D01*
X172300000Y-59462560D01*
X171204138Y-59462560D01*
X171065000Y-59323422D01*
X171065000Y-57948660D01*
X172100496Y-58984156D01*
X172149870Y-59058049D01*
X172223763Y-59107423D01*
X172223764Y-59107424D01*
X172251333Y-59125845D01*
X172442609Y-59253652D01*
X172700754Y-59305000D01*
X172700758Y-59305000D01*
X172787918Y-59322337D01*
X172875078Y-59305000D01*
X183600922Y-59305000D01*
X184550077Y-60254156D01*
X184599451Y-60328049D01*
X184673344Y-60377423D01*
X184673345Y-60377424D01*
X184700914Y-60395845D01*
X184892190Y-60523652D01*
X185090060Y-60563011D01*
X185090060Y-60690000D01*
X185139343Y-60937765D01*
X185279691Y-61147809D01*
X185489735Y-61288157D01*
X185737500Y-61337440D01*
X187642500Y-61337440D01*
X187890265Y-61288157D01*
X188100309Y-61147809D01*
X188237255Y-60942857D01*
X188363076Y-61065973D01*
X188857020Y-61280563D01*
X189103000Y-61160594D01*
X189103000Y-59817000D01*
X189083000Y-59817000D01*
X189083000Y-59563000D01*
X189103000Y-59563000D01*
X189103000Y-58219406D01*
X189357000Y-58219406D01*
X189357000Y-59563000D01*
X189377000Y-59563000D01*
X189377000Y-59817000D01*
X189357000Y-59817000D01*
X189357000Y-61160594D01*
X189602980Y-61280563D01*
X190096924Y-61065973D01*
X190490841Y-60680526D01*
X190625477Y-60882023D01*
X191150590Y-61232891D01*
X191770000Y-61356100D01*
X192389411Y-61232891D01*
X192914523Y-60882023D01*
X193265391Y-60356910D01*
X193357500Y-59893849D01*
X193357500Y-59486150D01*
X193265391Y-59023089D01*
X192914523Y-58497977D01*
X192389410Y-58147109D01*
X191770000Y-58023900D01*
X191150589Y-58147109D01*
X190625477Y-58497977D01*
X190490841Y-58699474D01*
X190096924Y-58314027D01*
X189602980Y-58099437D01*
X189357000Y-58219406D01*
X189103000Y-58219406D01*
X188857020Y-58099437D01*
X188363076Y-58314027D01*
X188237255Y-58437143D01*
X188100309Y-58232191D01*
X187890265Y-58091843D01*
X187642500Y-58042560D01*
X185737500Y-58042560D01*
X185489735Y-58091843D01*
X185279691Y-58232191D01*
X185180187Y-58381108D01*
X184654925Y-57855847D01*
X184605549Y-57781951D01*
X184312810Y-57586348D01*
X184054665Y-57535000D01*
X184054661Y-57535000D01*
X183967500Y-57517663D01*
X183880339Y-57535000D01*
X173154498Y-57535000D01*
X173118539Y-57499041D01*
X196728086Y-57499041D01*
X196967611Y-58005134D01*
X197382577Y-58381041D01*
X197770961Y-58541904D01*
X197993000Y-58419915D01*
X197993000Y-57277000D01*
X198247000Y-57277000D01*
X198247000Y-58419915D01*
X198469039Y-58541904D01*
X198857423Y-58381041D01*
X199272389Y-58005134D01*
X199511914Y-57499041D01*
X199390629Y-57277000D01*
X198247000Y-57277000D01*
X197993000Y-57277000D01*
X196849371Y-57277000D01*
X196728086Y-57499041D01*
X173118539Y-57499041D01*
X172420457Y-56800959D01*
X196728086Y-56800959D01*
X196849371Y-57023000D01*
X197993000Y-57023000D01*
X197993000Y-55880085D01*
X198247000Y-55880085D01*
X198247000Y-57023000D01*
X199390629Y-57023000D01*
X199511914Y-56800959D01*
X199272389Y-56294866D01*
X198857423Y-55918959D01*
X198469039Y-55758096D01*
X198247000Y-55880085D01*
X197993000Y-55880085D01*
X197770961Y-55758096D01*
X197382577Y-55918959D01*
X196967611Y-56294866D01*
X196728086Y-56800959D01*
X172420457Y-56800959D01*
X171270451Y-55650954D01*
X171450000Y-55382239D01*
X171649375Y-55680625D01*
X172140582Y-56008839D01*
X172573744Y-56095000D01*
X172866256Y-56095000D01*
X173299418Y-56008839D01*
X173790625Y-55680625D01*
X173802816Y-55662381D01*
X173811843Y-55707765D01*
X173952191Y-55917809D01*
X174162235Y-56058157D01*
X174410000Y-56107440D01*
X176110000Y-56107440D01*
X176357765Y-56058157D01*
X176567809Y-55917809D01*
X176708157Y-55707765D01*
X176757440Y-55460000D01*
X176757440Y-53760000D01*
X176708157Y-53512235D01*
X176567809Y-53302191D01*
X176357765Y-53161843D01*
X176110000Y-53112560D01*
X174410000Y-53112560D01*
X174162235Y-53161843D01*
X173952191Y-53302191D01*
X173811843Y-53512235D01*
X173802816Y-53557619D01*
X173790625Y-53539375D01*
X173299418Y-53211161D01*
X172866256Y-53125000D01*
X172573744Y-53125000D01*
X172140582Y-53211161D01*
X171649375Y-53539375D01*
X171450000Y-53837761D01*
X171250625Y-53539375D01*
X170759418Y-53211161D01*
X170326256Y-53125000D01*
X170033744Y-53125000D01*
X169600582Y-53211161D01*
X169109375Y-53539375D01*
X168781161Y-54030582D01*
X168672870Y-54574999D01*
X166373050Y-54574999D01*
X166498157Y-54387765D01*
X166547440Y-54140000D01*
X166547440Y-52540000D01*
X166498157Y-52292235D01*
X166357809Y-52082191D01*
X166147765Y-51941843D01*
X165900000Y-51892560D01*
X164300000Y-51892560D01*
X164052235Y-51941843D01*
X163842484Y-52081995D01*
X163316777Y-51893035D01*
X162746546Y-51920222D01*
X162345995Y-52086136D01*
X162271861Y-52332255D01*
X163100000Y-53160395D01*
X163114142Y-53146252D01*
X163293748Y-53325858D01*
X163279605Y-53340000D01*
X163293748Y-53354143D01*
X163114142Y-53533748D01*
X163100000Y-53519605D01*
X162271861Y-54347745D01*
X162340313Y-54574999D01*
X157939662Y-54574999D01*
X157852501Y-54557662D01*
X157765340Y-54574999D01*
X157765336Y-54574999D01*
X157507191Y-54626347D01*
X157288346Y-54772575D01*
X157288345Y-54772576D01*
X157214452Y-54821950D01*
X157165078Y-54895843D01*
X154018362Y-58042560D01*
X152717500Y-58042560D01*
X152469735Y-58091843D01*
X152259691Y-58232191D01*
X152119343Y-58442235D01*
X152070060Y-58690000D01*
X136919396Y-58690000D01*
X136702862Y-58473466D01*
X136175439Y-58255000D01*
X135604561Y-58255000D01*
X135077138Y-58473466D01*
X134673466Y-58877138D01*
X134455000Y-59404561D01*
X132245000Y-59404561D01*
X132026534Y-58877138D01*
X131622862Y-58473466D01*
X131095439Y-58255000D01*
X130524561Y-58255000D01*
X129997138Y-58473466D01*
X129593466Y-58877138D01*
X129375000Y-59404561D01*
X127762000Y-59404561D01*
X127762000Y-52419041D01*
X129418086Y-52419041D01*
X129657611Y-52925134D01*
X130072577Y-53301041D01*
X130460961Y-53461904D01*
X130683000Y-53339915D01*
X130683000Y-52197000D01*
X130937000Y-52197000D01*
X130937000Y-53339915D01*
X131159039Y-53461904D01*
X131547423Y-53301041D01*
X131962389Y-52925134D01*
X132201914Y-52419041D01*
X134498086Y-52419041D01*
X134737611Y-52925134D01*
X135152577Y-53301041D01*
X135540961Y-53461904D01*
X135763000Y-53339915D01*
X135763000Y-52197000D01*
X136017000Y-52197000D01*
X136017000Y-53339915D01*
X136239039Y-53461904D01*
X136627423Y-53301041D01*
X137042389Y-52925134D01*
X137281914Y-52419041D01*
X137160629Y-52197000D01*
X136017000Y-52197000D01*
X135763000Y-52197000D01*
X134619371Y-52197000D01*
X134498086Y-52419041D01*
X132201914Y-52419041D01*
X132080629Y-52197000D01*
X130937000Y-52197000D01*
X130683000Y-52197000D01*
X129539371Y-52197000D01*
X129418086Y-52419041D01*
X127762000Y-52419041D01*
X127762000Y-51720959D01*
X129418086Y-51720959D01*
X129539371Y-51943000D01*
X130683000Y-51943000D01*
X130683000Y-50800085D01*
X130937000Y-50800085D01*
X130937000Y-51943000D01*
X132080629Y-51943000D01*
X132201914Y-51720959D01*
X134498086Y-51720959D01*
X134619371Y-51943000D01*
X135763000Y-51943000D01*
X135763000Y-50800085D01*
X136017000Y-50800085D01*
X136017000Y-51943000D01*
X137160629Y-51943000D01*
X137281914Y-51720959D01*
X137042389Y-51214866D01*
X136627423Y-50838959D01*
X136239039Y-50678096D01*
X136017000Y-50800085D01*
X135763000Y-50800085D01*
X135540961Y-50678096D01*
X135152577Y-50838959D01*
X134737611Y-51214866D01*
X134498086Y-51720959D01*
X132201914Y-51720959D01*
X131962389Y-51214866D01*
X131547423Y-50838959D01*
X131159039Y-50678096D01*
X130937000Y-50800085D01*
X130683000Y-50800085D01*
X130460961Y-50678096D01*
X130072577Y-50838959D01*
X129657611Y-51214866D01*
X129418086Y-51720959D01*
X127762000Y-51720959D01*
X127762000Y-49582606D01*
X128322606Y-49022000D01*
X146778780Y-49022000D01*
X145931456Y-49869324D01*
G36*
X185613748Y-123255858D02*
X185599605Y-123270000D01*
X185613748Y-123284143D01*
X185434143Y-123463748D01*
X185420000Y-123449605D01*
X185405858Y-123463748D01*
X185226253Y-123284143D01*
X185240395Y-123270000D01*
X185226253Y-123255858D01*
X185405858Y-123076253D01*
X185420000Y-123090395D01*
X185434143Y-123076253D01*
X185613748Y-123255858D01*
X185613748Y-123255858D01*
G37*
X185613748Y-123255858D02*
X185599605Y-123270000D01*
X185613748Y-123284143D01*
X185434143Y-123463748D01*
X185420000Y-123449605D01*
X185405858Y-123463748D01*
X185226253Y-123284143D01*
X185240395Y-123270000D01*
X185226253Y-123255858D01*
X185405858Y-123076253D01*
X185420000Y-123090395D01*
X185434143Y-123076253D01*
X185613748Y-123255858D01*
G36*
X210947000Y-116713000D02*
X210967000Y-116713000D01*
X210967000Y-116967000D01*
X210947000Y-116967000D01*
X210947000Y-116987000D01*
X210693000Y-116987000D01*
X210693000Y-116967000D01*
X210673000Y-116967000D01*
X210673000Y-116713000D01*
X210693000Y-116713000D01*
X210693000Y-116693000D01*
X210947000Y-116693000D01*
X210947000Y-116713000D01*
X210947000Y-116713000D01*
G37*
X210947000Y-116713000D02*
X210967000Y-116713000D01*
X210967000Y-116967000D01*
X210947000Y-116967000D01*
X210947000Y-116987000D01*
X210693000Y-116987000D01*
X210693000Y-116967000D01*
X210673000Y-116967000D01*
X210673000Y-116713000D01*
X210693000Y-116713000D01*
X210693000Y-116693000D01*
X210947000Y-116693000D01*
X210947000Y-116713000D01*
G36*
X169499034Y-92708833D02*
X169367138Y-92763466D01*
X168963466Y-93167138D01*
X168745000Y-93694561D01*
X168745000Y-94265439D01*
X168963466Y-94792862D01*
X169367138Y-95196534D01*
X169426982Y-95221322D01*
X169464096Y-95407906D01*
X169632071Y-95659299D01*
X169695529Y-95701700D01*
X170010002Y-96016174D01*
X170010002Y-96750560D01*
X168645000Y-96750560D01*
X168397235Y-96799843D01*
X168187191Y-96940191D01*
X168046843Y-97150235D01*
X167997560Y-97398000D01*
X167997560Y-97705297D01*
X167978462Y-97709096D01*
X167791418Y-97834076D01*
X167727071Y-97877071D01*
X167684671Y-97940527D01*
X166708302Y-98916897D01*
X166655439Y-98895000D01*
X166084561Y-98895000D01*
X165557138Y-99113466D01*
X165153466Y-99517138D01*
X165077226Y-99701197D01*
X165035905Y-99493462D01*
X164867930Y-99242070D01*
X164804474Y-99199670D01*
X164325332Y-98720529D01*
X164312216Y-98700899D01*
X164546740Y-98349909D01*
X164658113Y-97790000D01*
X164546740Y-97230091D01*
X164229577Y-96755423D01*
X163877242Y-96520000D01*
X164229577Y-96284577D01*
X164546740Y-95809909D01*
X164658113Y-95250000D01*
X164546740Y-94690091D01*
X164229577Y-94215423D01*
X163877242Y-93980000D01*
X164229577Y-93744577D01*
X164546740Y-93269909D01*
X164588684Y-93059041D01*
X164978086Y-93059041D01*
X165217611Y-93565134D01*
X165632577Y-93941041D01*
X166020961Y-94101904D01*
X166243000Y-93979915D01*
X166243000Y-92837000D01*
X166497000Y-92837000D01*
X166497000Y-93979915D01*
X166719039Y-94101904D01*
X167107423Y-93941041D01*
X167522389Y-93565134D01*
X167761914Y-93059041D01*
X167640629Y-92837000D01*
X166497000Y-92837000D01*
X166243000Y-92837000D01*
X165099371Y-92837000D01*
X164978086Y-93059041D01*
X164588684Y-93059041D01*
X164658113Y-92710000D01*
X164588685Y-92360959D01*
X164978086Y-92360959D01*
X165099371Y-92583000D01*
X166243000Y-92583000D01*
X166243000Y-91440085D01*
X166497000Y-91440085D01*
X166497000Y-92583000D01*
X167640629Y-92583000D01*
X167761914Y-92360959D01*
X167522389Y-91854866D01*
X167107423Y-91478959D01*
X166719039Y-91318096D01*
X166497000Y-91440085D01*
X166243000Y-91440085D01*
X166020961Y-91318096D01*
X165632577Y-91478959D01*
X165217611Y-91854866D01*
X164978086Y-92360959D01*
X164588685Y-92360959D01*
X164546740Y-92150091D01*
X164229577Y-91675423D01*
X163877242Y-91440000D01*
X164229577Y-91204577D01*
X164413043Y-90930000D01*
X167720201Y-90930000D01*
X169499034Y-92708833D01*
X169499034Y-92708833D01*
G37*
X169499034Y-92708833D02*
X169367138Y-92763466D01*
X168963466Y-93167138D01*
X168745000Y-93694561D01*
X168745000Y-94265439D01*
X168963466Y-94792862D01*
X169367138Y-95196534D01*
X169426982Y-95221322D01*
X169464096Y-95407906D01*
X169632071Y-95659299D01*
X169695529Y-95701700D01*
X170010002Y-96016174D01*
X170010002Y-96750560D01*
X168645000Y-96750560D01*
X168397235Y-96799843D01*
X168187191Y-96940191D01*
X168046843Y-97150235D01*
X167997560Y-97398000D01*
X167997560Y-97705297D01*
X167978462Y-97709096D01*
X167791418Y-97834076D01*
X167727071Y-97877071D01*
X167684671Y-97940527D01*
X166708302Y-98916897D01*
X166655439Y-98895000D01*
X166084561Y-98895000D01*
X165557138Y-99113466D01*
X165153466Y-99517138D01*
X165077226Y-99701197D01*
X165035905Y-99493462D01*
X164867930Y-99242070D01*
X164804474Y-99199670D01*
X164325332Y-98720529D01*
X164312216Y-98700899D01*
X164546740Y-98349909D01*
X164658113Y-97790000D01*
X164546740Y-97230091D01*
X164229577Y-96755423D01*
X163877242Y-96520000D01*
X164229577Y-96284577D01*
X164546740Y-95809909D01*
X164658113Y-95250000D01*
X164546740Y-94690091D01*
X164229577Y-94215423D01*
X163877242Y-93980000D01*
X164229577Y-93744577D01*
X164546740Y-93269909D01*
X164588684Y-93059041D01*
X164978086Y-93059041D01*
X165217611Y-93565134D01*
X165632577Y-93941041D01*
X166020961Y-94101904D01*
X166243000Y-93979915D01*
X166243000Y-92837000D01*
X166497000Y-92837000D01*
X166497000Y-93979915D01*
X166719039Y-94101904D01*
X167107423Y-93941041D01*
X167522389Y-93565134D01*
X167761914Y-93059041D01*
X167640629Y-92837000D01*
X166497000Y-92837000D01*
X166243000Y-92837000D01*
X165099371Y-92837000D01*
X164978086Y-93059041D01*
X164588684Y-93059041D01*
X164658113Y-92710000D01*
X164588685Y-92360959D01*
X164978086Y-92360959D01*
X165099371Y-92583000D01*
X166243000Y-92583000D01*
X166243000Y-91440085D01*
X166497000Y-91440085D01*
X166497000Y-92583000D01*
X167640629Y-92583000D01*
X167761914Y-92360959D01*
X167522389Y-91854866D01*
X167107423Y-91478959D01*
X166719039Y-91318096D01*
X166497000Y-91440085D01*
X166243000Y-91440085D01*
X166020961Y-91318096D01*
X165632577Y-91478959D01*
X165217611Y-91854866D01*
X164978086Y-92360959D01*
X164588685Y-92360959D01*
X164546740Y-92150091D01*
X164229577Y-91675423D01*
X163877242Y-91440000D01*
X164229577Y-91204577D01*
X164413043Y-90930000D01*
X167720201Y-90930000D01*
X169499034Y-92708833D01*
G04 #@! TD*
M02*
