G04 #@! TF.GenerationSoftware,KiCad,Pcbnew,(5.0.2)-1*
G04 #@! TF.CreationDate,2019-02-12T19:40:29-07:00*
G04 #@! TF.ProjectId,Controller,436f6e74-726f-46c6-9c65-722e6b696361,rev?*
G04 #@! TF.SameCoordinates,Original*
G04 #@! TF.FileFunction,Copper,L1,Top*
G04 #@! TF.FilePolarity,Positive*
%FSLAX46Y46*%
G04 Gerber Fmt 4.6, Leading zero omitted, Abs format (unit mm)*
G04 Created by KiCad (PCBNEW (5.0.2)-1) date 2/12/2019 7:40:29 PM*
%MOMM*%
%LPD*%
G01*
G04 APERTURE LIST*
G04 #@! TA.AperFunction,ComponentPad*
%ADD10C,1.778000*%
G04 #@! TD*
G04 #@! TA.AperFunction,ComponentPad*
%ADD11C,2.286000*%
G04 #@! TD*
G04 #@! TA.AperFunction,ComponentPad*
%ADD12C,1.600000*%
G04 #@! TD*
G04 #@! TA.AperFunction,ComponentPad*
%ADD13O,1.600000X1.600000*%
G04 #@! TD*
G04 #@! TA.AperFunction,ComponentPad*
%ADD14R,1.600000X1.600000*%
G04 #@! TD*
G04 #@! TA.AperFunction,ComponentPad*
%ADD15R,1.800000X1.800000*%
G04 #@! TD*
G04 #@! TA.AperFunction,ComponentPad*
%ADD16C,1.800000*%
G04 #@! TD*
G04 #@! TA.AperFunction,ComponentPad*
%ADD17R,1.700000X1.700000*%
G04 #@! TD*
G04 #@! TA.AperFunction,ComponentPad*
%ADD18O,1.700000X1.700000*%
G04 #@! TD*
G04 #@! TA.AperFunction,ComponentPad*
%ADD19C,2.000000*%
G04 #@! TD*
G04 #@! TA.AperFunction,ComponentPad*
%ADD20O,1.905000X2.000000*%
G04 #@! TD*
G04 #@! TA.AperFunction,ComponentPad*
%ADD21R,1.905000X2.000000*%
G04 #@! TD*
G04 #@! TA.AperFunction,ComponentPad*
%ADD22R,1.750000X1.750000*%
G04 #@! TD*
G04 #@! TA.AperFunction,ComponentPad*
%ADD23C,1.750000*%
G04 #@! TD*
G04 #@! TA.AperFunction,ComponentPad*
%ADD24C,2.700000*%
G04 #@! TD*
G04 #@! TA.AperFunction,WasherPad*
%ADD25C,4.000000*%
G04 #@! TD*
G04 #@! TA.AperFunction,ComponentPad*
%ADD26C,1.524000*%
G04 #@! TD*
G04 #@! TA.AperFunction,ComponentPad*
%ADD27R,1.524000X1.524000*%
G04 #@! TD*
G04 #@! TA.AperFunction,ComponentPad*
%ADD28C,1.500000*%
G04 #@! TD*
G04 #@! TA.AperFunction,ViaPad*
%ADD29C,6.500000*%
G04 #@! TD*
G04 #@! TA.AperFunction,ViaPad*
%ADD30C,0.800000*%
G04 #@! TD*
G04 #@! TA.AperFunction,Conductor*
%ADD31C,0.250000*%
G04 #@! TD*
G04 #@! TA.AperFunction,Conductor*
%ADD32C,0.254000*%
G04 #@! TD*
G04 APERTURE END LIST*
D10*
G04 #@! TO.P,U6,B1A*
G04 #@! TO.N,5V*
X202565000Y-82550000D03*
G04 #@! TO.P,U6,B1B*
G04 #@! TO.N,N/C*
X208915000Y-82550000D03*
G04 #@! TO.P,U6,B2A*
G04 #@! TO.N,D5*
X202565000Y-87630000D03*
G04 #@! TO.P,U6,B2B*
G04 #@! TO.N,N/C*
X208915000Y-87630000D03*
G04 #@! TO.P,U6,H1*
G04 #@! TO.N,5V*
X203200000Y-105410000D03*
G04 #@! TO.P,U6,H2*
G04 #@! TO.N,A5*
X205740000Y-105410000D03*
G04 #@! TO.P,U6,H3*
G04 #@! TO.N,GND*
X208280000Y-105410000D03*
D11*
G04 #@! TO.P,U6,MOUN*
G04 #@! TO.N,N/C*
X198120000Y-88582500D03*
X198120000Y-101917500D03*
X213360000Y-101917500D03*
X213360000Y-88582500D03*
D10*
G04 #@! TO.P,U6,V1*
G04 #@! TO.N,5V*
X195580000Y-92710000D03*
G04 #@! TO.P,U6,V2*
G04 #@! TO.N,A4*
X195580000Y-95250000D03*
G04 #@! TO.P,U6,V3*
G04 #@! TO.N,GND*
X195580000Y-97790000D03*
G04 #@! TD*
G04 #@! TO.P,U5,B1A*
G04 #@! TO.N,5V*
X136525000Y-82550000D03*
G04 #@! TO.P,U5,B1B*
G04 #@! TO.N,N/C*
X142875000Y-82550000D03*
G04 #@! TO.P,U5,B2A*
G04 #@! TO.N,D3*
X136525000Y-87630000D03*
G04 #@! TO.P,U5,B2B*
G04 #@! TO.N,N/C*
X142875000Y-87630000D03*
G04 #@! TO.P,U5,H1*
G04 #@! TO.N,5V*
X137160000Y-105410000D03*
G04 #@! TO.P,U5,H2*
G04 #@! TO.N,A3*
X139700000Y-105410000D03*
G04 #@! TO.P,U5,H3*
G04 #@! TO.N,GND*
X142240000Y-105410000D03*
D11*
G04 #@! TO.P,U5,MOUN*
G04 #@! TO.N,N/C*
X132080000Y-88582500D03*
X132080000Y-101917500D03*
X147320000Y-101917500D03*
X147320000Y-88582500D03*
D10*
G04 #@! TO.P,U5,V1*
G04 #@! TO.N,5V*
X129540000Y-92710000D03*
G04 #@! TO.P,U5,V2*
G04 #@! TO.N,A2*
X129540000Y-95250000D03*
G04 #@! TO.P,U5,V3*
G04 #@! TO.N,GND*
X129540000Y-97790000D03*
G04 #@! TD*
D12*
G04 #@! TO.P,C7,1*
G04 #@! TO.N,XTAL2*
X143510000Y-118745000D03*
D13*
G04 #@! TO.P,C7,2*
G04 #@! TO.N,GND*
X136010000Y-118745000D03*
G04 #@! TD*
D12*
G04 #@! TO.P,R14,1*
G04 #@! TO.N,D3*
X147955000Y-80010000D03*
D13*
G04 #@! TO.P,R14,2*
G04 #@! TO.N,GND*
X155575000Y-80010000D03*
G04 #@! TD*
D14*
G04 #@! TO.P,C1,1*
G04 #@! TO.N,5V*
X165100000Y-67310000D03*
D12*
G04 #@! TO.P,C1,2*
G04 #@! TO.N,GND*
X163100000Y-67310000D03*
G04 #@! TD*
G04 #@! TO.P,C2,2*
G04 #@! TO.N,GND*
X163100000Y-53340000D03*
D14*
G04 #@! TO.P,C2,1*
G04 #@! TO.N,3V3*
X165100000Y-53340000D03*
G04 #@! TD*
D12*
G04 #@! TO.P,C3,1*
G04 #@! TO.N,5V*
X157480000Y-72390000D03*
D13*
G04 #@! TO.P,C3,2*
G04 #@! TO.N,GND*
X157480000Y-64890000D03*
G04 #@! TD*
D12*
G04 #@! TO.P,C4,1*
G04 #@! TO.N,3V3*
X175260000Y-93980000D03*
D13*
G04 #@! TO.P,C4,2*
G04 #@! TO.N,GND*
X175260000Y-86480000D03*
G04 #@! TD*
G04 #@! TO.P,C5,2*
G04 #@! TO.N,RST*
X170180000Y-86480000D03*
D12*
G04 #@! TO.P,C5,1*
G04 #@! TO.N,DTR*
X170180000Y-93980000D03*
G04 #@! TD*
G04 #@! TO.P,C6,1*
G04 #@! TO.N,XTAL1*
X144145000Y-114935000D03*
D13*
G04 #@! TO.P,C6,2*
G04 #@! TO.N,GND*
X136645000Y-114935000D03*
G04 #@! TD*
D15*
G04 #@! TO.P,D1,1*
G04 #@! TO.N,Net-(D1-Pad1)*
X198120000Y-77470000D03*
D16*
G04 #@! TO.P,D1,2*
G04 #@! TO.N,RF1*
X200660000Y-77470000D03*
G04 #@! TD*
G04 #@! TO.P,D2,2*
G04 #@! TO.N,RF2*
X138430000Y-66040000D03*
D15*
G04 #@! TO.P,D2,1*
G04 #@! TO.N,Net-(D2-Pad1)*
X135890000Y-66040000D03*
G04 #@! TD*
G04 #@! TO.P,D3,1*
G04 #@! TO.N,Net-(D3-Pad1)*
X198120000Y-69850000D03*
D16*
G04 #@! TO.P,D3,2*
G04 #@! TO.N,3V3*
X200660000Y-69850000D03*
G04 #@! TD*
G04 #@! TO.P,D4,2*
G04 #@! TO.N,5V*
X133350000Y-66040000D03*
D15*
G04 #@! TO.P,D4,1*
G04 #@! TO.N,Net-(D4-Pad1)*
X130810000Y-66040000D03*
G04 #@! TD*
G04 #@! TO.P,D5,1*
G04 #@! TO.N,Net-(D5-Pad1)*
X169545000Y-102870000D03*
D16*
G04 #@! TO.P,D5,2*
G04 #@! TO.N,TX*
X172085000Y-102870000D03*
G04 #@! TD*
D15*
G04 #@! TO.P,D6,1*
G04 #@! TO.N,Net-(D6-Pad1)*
X169545000Y-98298000D03*
D16*
G04 #@! TO.P,D6,2*
G04 #@! TO.N,RX*
X172085000Y-98298000D03*
G04 #@! TD*
G04 #@! TO.P,D7,2*
G04 #@! TO.N,D13*
X200660000Y-111760000D03*
D15*
G04 #@! TO.P,D7,1*
G04 #@! TO.N,Net-(D7-Pad1)*
X198120000Y-111760000D03*
G04 #@! TD*
G04 #@! TO.P,D8,1*
G04 #@! TO.N,Net-(D8-Pad1)*
X146050000Y-121920000D03*
D16*
G04 #@! TO.P,D8,2*
G04 #@! TO.N,D6*
X148590000Y-121920000D03*
G04 #@! TD*
G04 #@! TO.P,D9,2*
G04 #@! TO.N,D9*
X198120000Y-122555000D03*
D15*
G04 #@! TO.P,D9,1*
G04 #@! TO.N,Net-(D9-Pad1)*
X200660000Y-122555000D03*
G04 #@! TD*
D16*
G04 #@! TO.P,D10,2*
G04 #@! TO.N,D10*
X198120000Y-116840000D03*
D15*
G04 #@! TO.P,D10,1*
G04 #@! TO.N,Net-(D10-Pad1)*
X200660000Y-116840000D03*
G04 #@! TD*
D17*
G04 #@! TO.P,J1,1*
G04 #@! TO.N,GND*
X215265000Y-109220000D03*
D18*
G04 #@! TO.P,J1,2*
G04 #@! TO.N,Net-(J1-Pad2)*
X215265000Y-111760000D03*
G04 #@! TO.P,J1,3*
G04 #@! TO.N,VCC*
X215265000Y-114300000D03*
G04 #@! TO.P,J1,4*
G04 #@! TO.N,RX*
X215265000Y-116840000D03*
G04 #@! TO.P,J1,5*
G04 #@! TO.N,TX*
X215265000Y-119380000D03*
G04 #@! TO.P,J1,6*
G04 #@! TO.N,DTR*
X215265000Y-121920000D03*
G04 #@! TD*
D17*
G04 #@! TO.P,J2,1*
G04 #@! TO.N,BATT*
X171450000Y-60960000D03*
D18*
G04 #@! TO.P,J2,2*
G04 #@! TO.N,GND*
X173990000Y-60960000D03*
G04 #@! TD*
D12*
G04 #@! TO.P,R1,1*
G04 #@! TO.N,Net-(D1-Pad1)*
X176530000Y-83820000D03*
D13*
G04 #@! TO.P,R1,2*
G04 #@! TO.N,GND*
X176530000Y-76200000D03*
G04 #@! TD*
G04 #@! TO.P,R2,2*
G04 #@! TO.N,GND*
X135890000Y-52070000D03*
D12*
G04 #@! TO.P,R2,1*
G04 #@! TO.N,Net-(D2-Pad1)*
X135890000Y-59690000D03*
G04 #@! TD*
G04 #@! TO.P,R3,1*
G04 #@! TO.N,Net-(D3-Pad1)*
X198120000Y-64770000D03*
D13*
G04 #@! TO.P,R3,2*
G04 #@! TO.N,GND*
X198120000Y-57150000D03*
G04 #@! TD*
G04 #@! TO.P,R4,2*
G04 #@! TO.N,GND*
X130810000Y-52070000D03*
D12*
G04 #@! TO.P,R4,1*
G04 #@! TO.N,Net-(D4-Pad1)*
X130810000Y-59690000D03*
G04 #@! TD*
G04 #@! TO.P,R5,1*
G04 #@! TO.N,Net-(D5-Pad1)*
X166370000Y-102870000D03*
D13*
G04 #@! TO.P,R5,2*
G04 #@! TO.N,GND*
X166370000Y-110490000D03*
G04 #@! TD*
G04 #@! TO.P,R6,2*
G04 #@! TO.N,GND*
X166370000Y-92710000D03*
D12*
G04 #@! TO.P,R6,1*
G04 #@! TO.N,Net-(D6-Pad1)*
X166370000Y-100330000D03*
G04 #@! TD*
G04 #@! TO.P,R7,1*
G04 #@! TO.N,Net-(D7-Pad1)*
X210820000Y-111760000D03*
D13*
G04 #@! TO.P,R7,2*
G04 #@! TO.N,GND*
X203200000Y-111760000D03*
G04 #@! TD*
D12*
G04 #@! TO.P,R8,1*
G04 #@! TO.N,Net-(D8-Pad1)*
X142875000Y-122555000D03*
D13*
G04 #@! TO.P,R8,2*
G04 #@! TO.N,GND*
X135255000Y-122555000D03*
G04 #@! TD*
D12*
G04 #@! TO.P,R9,1*
G04 #@! TO.N,Net-(D9-Pad1)*
X203200000Y-121920000D03*
D13*
G04 #@! TO.P,R9,2*
G04 #@! TO.N,GND*
X210820000Y-121920000D03*
G04 #@! TD*
G04 #@! TO.P,R10,2*
G04 #@! TO.N,GND*
X210820000Y-116840000D03*
D12*
G04 #@! TO.P,R10,1*
G04 #@! TO.N,Net-(D10-Pad1)*
X203200000Y-116840000D03*
G04 #@! TD*
G04 #@! TO.P,R11,1*
G04 #@! TO.N,D2*
X144145000Y-111125000D03*
D13*
G04 #@! TO.P,R11,2*
G04 #@! TO.N,GND*
X136525000Y-111125000D03*
G04 #@! TD*
G04 #@! TO.P,R12,2*
G04 #@! TO.N,GND*
X172720000Y-76200000D03*
D12*
G04 #@! TO.P,R12,1*
G04 #@! TO.N,D4*
X172720000Y-83820000D03*
G04 #@! TD*
G04 #@! TO.P,R13,1*
G04 #@! TO.N,RST*
X168275000Y-83820000D03*
D13*
G04 #@! TO.P,R13,2*
G04 #@! TO.N,5V*
X168275000Y-76200000D03*
G04 #@! TD*
D12*
G04 #@! TO.P,R15,1*
G04 #@! TO.N,D5*
X193040000Y-121920000D03*
D13*
G04 #@! TO.P,R15,2*
G04 #@! TO.N,GND*
X193040000Y-114300000D03*
G04 #@! TD*
D19*
G04 #@! TO.P,SW1,2*
G04 #@! TO.N,D4*
X169545000Y-121340000D03*
G04 #@! TO.P,SW1,1*
G04 #@! TO.N,5V*
X169545000Y-116840000D03*
G04 #@! TO.P,SW1,2*
G04 #@! TO.N,D4*
X176045000Y-121340000D03*
G04 #@! TO.P,SW1,1*
G04 #@! TO.N,5V*
X176045000Y-116840000D03*
G04 #@! TD*
G04 #@! TO.P,SW2,1*
G04 #@! TO.N,5V*
X130810000Y-70970000D03*
G04 #@! TO.P,SW2,2*
G04 #@! TO.N,D2*
X135310000Y-70970000D03*
G04 #@! TO.P,SW2,1*
G04 #@! TO.N,5V*
X130810000Y-77470000D03*
G04 #@! TO.P,SW2,2*
G04 #@! TO.N,D2*
X135310000Y-77470000D03*
G04 #@! TD*
D18*
G04 #@! TO.P,SW3,3*
G04 #@! TO.N,BATT*
X170180000Y-54610000D03*
G04 #@! TO.P,SW3,2*
G04 #@! TO.N,+BATT*
X172720000Y-54610000D03*
D17*
G04 #@! TO.P,SW3,1*
G04 #@! TO.N,Net-(SW3-Pad1)*
X175260000Y-54610000D03*
G04 #@! TD*
G04 #@! TO.P,SW4,1*
G04 #@! TO.N,Net-(SW4-Pad1)*
X170180000Y-71120000D03*
D18*
G04 #@! TO.P,SW4,2*
G04 #@! TO.N,3V3*
X172720000Y-71120000D03*
G04 #@! TO.P,SW4,3*
G04 #@! TO.N,RF1*
X175260000Y-71120000D03*
G04 #@! TD*
D20*
G04 #@! TO.P,U1,3*
G04 #@! TO.N,5V*
X158750000Y-59690000D03*
G04 #@! TO.P,U1,2*
G04 #@! TO.N,GND*
X156210000Y-59690000D03*
D21*
G04 #@! TO.P,U1,1*
G04 #@! TO.N,BATT*
X153670000Y-59690000D03*
G04 #@! TD*
G04 #@! TO.P,U2,1*
G04 #@! TO.N,BATT*
X186690000Y-59690000D03*
D20*
G04 #@! TO.P,U2,2*
G04 #@! TO.N,GND*
X189230000Y-59690000D03*
G04 #@! TO.P,U2,3*
G04 #@! TO.N,3V3*
X191770000Y-59690000D03*
G04 #@! TD*
D22*
G04 #@! TO.P,U3,1*
G04 #@! TO.N,5V*
X185420000Y-64770000D03*
D23*
G04 #@! TO.P,U3,2*
G04 #@! TO.N,A0*
X181920000Y-64770000D03*
G04 #@! TO.P,U3,3*
G04 #@! TO.N,GND*
X185420000Y-123270000D03*
D24*
G04 #@! TO.P,U3,MP*
G04 #@! TO.N,N/C*
X187870000Y-70120000D03*
X187870000Y-117920000D03*
X179470000Y-68920000D03*
X179470000Y-119120000D03*
G04 #@! TD*
D16*
G04 #@! TO.P,U4,3*
G04 #@! TO.N,GND*
X144860000Y-74930000D03*
G04 #@! TO.P,U4,2*
G04 #@! TO.N,A1*
X147360000Y-74930000D03*
G04 #@! TO.P,U4,1*
G04 #@! TO.N,5V*
X149860000Y-74930000D03*
D25*
G04 #@! TO.P,U4,*
G04 #@! TO.N,*
X142960000Y-67930000D03*
X151760000Y-67930000D03*
G04 #@! TD*
D14*
G04 #@! TO.P,U7,1*
G04 #@! TO.N,RST*
X155575000Y-90170000D03*
D13*
G04 #@! TO.P,U7,15*
G04 #@! TO.N,D9*
X163195000Y-123190000D03*
G04 #@! TO.P,U7,2*
G04 #@! TO.N,RX*
X155575000Y-92710000D03*
G04 #@! TO.P,U7,16*
G04 #@! TO.N,D10*
X163195000Y-120650000D03*
G04 #@! TO.P,U7,3*
G04 #@! TO.N,TX*
X155575000Y-95250000D03*
G04 #@! TO.P,U7,17*
G04 #@! TO.N,D11*
X163195000Y-118110000D03*
G04 #@! TO.P,U7,4*
G04 #@! TO.N,D2*
X155575000Y-97790000D03*
G04 #@! TO.P,U7,18*
G04 #@! TO.N,D12*
X163195000Y-115570000D03*
G04 #@! TO.P,U7,5*
G04 #@! TO.N,D3*
X155575000Y-100330000D03*
G04 #@! TO.P,U7,19*
G04 #@! TO.N,D13*
X163195000Y-113030000D03*
G04 #@! TO.P,U7,6*
G04 #@! TO.N,D4*
X155575000Y-102870000D03*
G04 #@! TO.P,U7,20*
G04 #@! TO.N,AVCC*
X163195000Y-110490000D03*
G04 #@! TO.P,U7,7*
G04 #@! TO.N,5V*
X155575000Y-105410000D03*
G04 #@! TO.P,U7,21*
G04 #@! TO.N,AREF*
X163195000Y-107950000D03*
G04 #@! TO.P,U7,8*
G04 #@! TO.N,GND*
X155575000Y-107950000D03*
G04 #@! TO.P,U7,22*
X163195000Y-105410000D03*
G04 #@! TO.P,U7,9*
G04 #@! TO.N,XTAL1*
X155575000Y-110490000D03*
G04 #@! TO.P,U7,23*
G04 #@! TO.N,A0*
X163195000Y-102870000D03*
G04 #@! TO.P,U7,10*
G04 #@! TO.N,XTAL2*
X155575000Y-113030000D03*
G04 #@! TO.P,U7,24*
G04 #@! TO.N,A1*
X163195000Y-100330000D03*
G04 #@! TO.P,U7,11*
G04 #@! TO.N,D5*
X155575000Y-115570000D03*
G04 #@! TO.P,U7,25*
G04 #@! TO.N,A2*
X163195000Y-97790000D03*
G04 #@! TO.P,U7,12*
G04 #@! TO.N,D6*
X155575000Y-118110000D03*
G04 #@! TO.P,U7,26*
G04 #@! TO.N,A3*
X163195000Y-95250000D03*
G04 #@! TO.P,U7,13*
G04 #@! TO.N,D7*
X155575000Y-120650000D03*
G04 #@! TO.P,U7,27*
G04 #@! TO.N,A4*
X163195000Y-92710000D03*
G04 #@! TO.P,U7,14*
G04 #@! TO.N,D8*
X155575000Y-123190000D03*
G04 #@! TO.P,U7,28*
G04 #@! TO.N,A5*
X163195000Y-90170000D03*
G04 #@! TD*
D26*
G04 #@! TO.P,U24L1,8*
G04 #@! TO.N,D8*
X212090000Y-74930000D03*
G04 #@! TO.P,U24L1,7*
G04 #@! TO.N,D12*
X212090000Y-77470000D03*
G04 #@! TO.P,U24L1,6*
G04 #@! TO.N,D11*
X209550000Y-74930000D03*
G04 #@! TO.P,U24L1,5*
G04 #@! TO.N,D13*
X209550000Y-77470000D03*
G04 #@! TO.P,U24L1,4*
G04 #@! TO.N,Net-(U24L1-Pad4)*
X207010000Y-74930000D03*
G04 #@! TO.P,U24L1,3*
G04 #@! TO.N,D7*
X207010000Y-77470000D03*
G04 #@! TO.P,U24L1,2*
G04 #@! TO.N,RF1*
X204470000Y-74930000D03*
D27*
G04 #@! TO.P,U24L1,1*
G04 #@! TO.N,GND*
X204470000Y-77470000D03*
G04 #@! TD*
D28*
G04 #@! TO.P,Y1,1*
G04 #@! TO.N,XTAL1*
X150495000Y-110490000D03*
G04 #@! TO.P,Y1,2*
G04 #@! TO.N,XTAL2*
X150495000Y-115370000D03*
G04 #@! TD*
D29*
G04 #@! TO.N,*
X189865000Y-52070000D03*
X193040000Y-107950000D03*
X131445000Y-115570000D03*
X149225000Y-52070000D03*
D30*
G04 #@! TO.N,GND*
X166370000Y-87630000D03*
G04 #@! TO.N,D13*
X168275000Y-113030000D03*
G04 #@! TO.N,A0*
X189865000Y-80645000D03*
G04 #@! TD*
D31*
G04 #@! TO.N,5V*
X133350000Y-68430000D02*
X133350000Y-67945000D01*
X130810000Y-70970000D02*
X133350000Y-68430000D01*
X133350000Y-66040000D02*
X133350000Y-67945000D01*
G04 #@! TO.N,GND*
X193040000Y-115650000D02*
X193040000Y-114300000D01*
X185420000Y-123270000D02*
X193040000Y-115650000D01*
X166370000Y-92710000D02*
X166370000Y-87630000D01*
X166370000Y-87630000D02*
X166370000Y-87630000D01*
X210820000Y-116840000D02*
X210820000Y-121920000D01*
G04 #@! TO.N,3V3*
X174460001Y-93180001D02*
X175260000Y-93980000D01*
X174134999Y-92854999D02*
X174460001Y-93180001D01*
X174134999Y-73737080D02*
X174134999Y-92854999D01*
X172720000Y-72322081D02*
X174134999Y-73737080D01*
X172720000Y-71120000D02*
X172720000Y-72322081D01*
X172720000Y-71120000D02*
X172720000Y-69850000D01*
X172720000Y-69850000D02*
X180340000Y-62230000D01*
X191770000Y-59737500D02*
X191770000Y-59690000D01*
X189277500Y-62230000D02*
X191770000Y-59737500D01*
X180340000Y-62230000D02*
X189277500Y-62230000D01*
X165100000Y-63500000D02*
X172720000Y-71120000D01*
X165100000Y-53340000D02*
X165100000Y-63500000D01*
X191770000Y-60960000D02*
X191770000Y-59690000D01*
X200660000Y-69850000D02*
X191770000Y-60960000D01*
G04 #@! TO.N,RST*
X156625000Y-90170000D02*
X155575000Y-90170000D01*
X160793630Y-90170000D02*
X156625000Y-90170000D01*
X167143630Y-83820000D02*
X160793630Y-90170000D01*
X168275000Y-83820000D02*
X167143630Y-83820000D01*
X170180000Y-85725000D02*
X170180000Y-86480000D01*
X168275000Y-83820000D02*
X170180000Y-85725000D01*
G04 #@! TO.N,XTAL1*
X148590000Y-110490000D02*
X150495000Y-110490000D01*
X144145000Y-114935000D02*
X148590000Y-110490000D01*
X150495000Y-110490000D02*
X155575000Y-110490000D01*
G04 #@! TO.N,XTAL2*
X146885000Y-115370000D02*
X150495000Y-115370000D01*
X143510000Y-118745000D02*
X146885000Y-115370000D01*
X152835000Y-113030000D02*
X155575000Y-113030000D01*
X150495000Y-115370000D02*
X152835000Y-113030000D01*
G04 #@! TO.N,Net-(D1-Pad1)*
X182880000Y-77470000D02*
X176530000Y-83820000D01*
X198120000Y-77470000D02*
X182880000Y-77470000D01*
G04 #@! TO.N,RF1*
X203200000Y-74930000D02*
X200660000Y-77470000D01*
X204470000Y-74930000D02*
X203200000Y-74930000D01*
X176109999Y-71969999D02*
X175260000Y-71120000D01*
X180384999Y-76244999D02*
X176109999Y-71969999D01*
X199434999Y-76244999D02*
X180384999Y-76244999D01*
X200660000Y-77470000D02*
X199434999Y-76244999D01*
G04 #@! TO.N,Net-(D2-Pad1)*
X135890000Y-66040000D02*
X135890000Y-59690000D01*
G04 #@! TO.N,Net-(D4-Pad1)*
X130810000Y-66040000D02*
X130810000Y-59690000D01*
G04 #@! TO.N,RX*
X156374999Y-93509999D02*
X155575000Y-92710000D01*
X156989999Y-94124999D02*
X156374999Y-93509999D01*
X167784999Y-94124999D02*
X156989999Y-94124999D01*
X172085000Y-98425000D02*
X167784999Y-94124999D01*
G04 #@! TO.N,D13*
X168910000Y-113030000D02*
X168275000Y-113030000D01*
X168911410Y-113031410D02*
X168910000Y-113030000D01*
X202302800Y-79640020D02*
X168911410Y-113031410D01*
X209550000Y-77470000D02*
X207379980Y-79640020D01*
X207379980Y-79640020D02*
X202302800Y-79640020D01*
X168275000Y-113030000D02*
X163195000Y-113030000D01*
G04 #@! TO.N,Net-(D7-Pad1)*
X210020001Y-110960001D02*
X210820000Y-111760000D01*
X209594999Y-110534999D02*
X210020001Y-110960001D01*
X198195001Y-110534999D02*
X209594999Y-110534999D01*
X198120000Y-110610000D02*
X198195001Y-110534999D01*
X198120000Y-111760000D02*
X198120000Y-110610000D01*
G04 #@! TO.N,Net-(D8-Pad1)*
X145415000Y-122555000D02*
X146050000Y-121920000D01*
X142875000Y-122555000D02*
X145415000Y-122555000D01*
G04 #@! TO.N,D6*
X152400000Y-118110000D02*
X155575000Y-118110000D01*
X148590000Y-121920000D02*
X152400000Y-118110000D01*
G04 #@! TO.N,Net-(D9-Pad1)*
X202565000Y-122555000D02*
X203200000Y-121920000D01*
X200660000Y-122555000D02*
X202565000Y-122555000D01*
G04 #@! TO.N,Net-(D10-Pad1)*
X200660000Y-116840000D02*
X203200000Y-116840000D01*
G04 #@! TO.N,D2*
X154775001Y-98589999D02*
X155575000Y-97790000D01*
X144944999Y-108420001D02*
X154775001Y-98589999D01*
X144944999Y-110325001D02*
X144944999Y-108420001D01*
X144145000Y-111125000D02*
X144944999Y-110325001D01*
G04 #@! TO.N,D3*
X147155001Y-80809999D02*
X147955000Y-80010000D01*
X141549001Y-86415999D02*
X147155001Y-80809999D01*
X137739001Y-86415999D02*
X141549001Y-86415999D01*
X136525000Y-87630000D02*
X137739001Y-86415999D01*
G04 #@! TO.N,D5*
X201676001Y-105818997D02*
X194945000Y-112549998D01*
X202565000Y-87630000D02*
X201676001Y-88518999D01*
X201676001Y-88518999D02*
X201676001Y-105818997D01*
X194945000Y-120015000D02*
X193040000Y-121920000D01*
X194945000Y-112549998D02*
X194945000Y-120015000D01*
G04 #@! TO.N,A0*
X172673001Y-104095001D02*
X189865000Y-86903002D01*
X163195000Y-102870000D02*
X164420001Y-104095001D01*
X164420001Y-104095001D02*
X172673001Y-104095001D01*
X189865000Y-86903002D02*
X189865000Y-80645000D01*
X189865000Y-80645000D02*
X189865000Y-80645000D01*
G04 #@! TO.N,A2*
X130428999Y-96138999D02*
X129540000Y-95250000D01*
X138374001Y-105880723D02*
X138374001Y-104084001D01*
X139117279Y-106624001D02*
X138374001Y-105880723D01*
X140282721Y-106624001D02*
X139117279Y-106624001D01*
X140914001Y-105992721D02*
X140282721Y-106624001D01*
X140914001Y-104832409D02*
X140914001Y-105992721D01*
X149081411Y-96664999D02*
X140914001Y-104832409D01*
X138374001Y-104084001D02*
X130428999Y-96138999D01*
X156115001Y-96664999D02*
X149081411Y-96664999D01*
X157240002Y-97790000D02*
X156115001Y-96664999D01*
X163195000Y-97790000D02*
X157240002Y-97790000D01*
G04 #@! TO.N,A3*
X140588999Y-104521001D02*
X139700000Y-105410000D01*
X150985001Y-94124999D02*
X140588999Y-104521001D01*
X156115001Y-94124999D02*
X150985001Y-94124999D01*
X157240002Y-95250000D02*
X156115001Y-94124999D01*
X163195000Y-95250000D02*
X157240002Y-95250000D01*
G04 #@! TO.N,D11*
X208097001Y-76382999D02*
X208097001Y-77991761D01*
X209550000Y-74930000D02*
X208097001Y-76382999D01*
X208097001Y-77991761D02*
X207348762Y-78740000D01*
X207348762Y-78740000D02*
X206376410Y-78740000D01*
X206376410Y-78740000D02*
X205926400Y-79190010D01*
X205926400Y-79190010D02*
X202116400Y-79190010D01*
X202116400Y-79190010D02*
X193040705Y-88265705D01*
X193040705Y-88265705D02*
X187775009Y-93531401D01*
X187775009Y-93531401D02*
X179705705Y-101600705D01*
X171636401Y-109670009D02*
X171634991Y-109670009D01*
X179705705Y-101600705D02*
X171636401Y-109670009D01*
X171634991Y-109670009D02*
X171132500Y-110173910D01*
X171132500Y-110173910D02*
X171450000Y-109855000D01*
X159835010Y-114988598D02*
X159835010Y-115385010D01*
X161925000Y-111760000D02*
X160655000Y-111760000D01*
X159835010Y-112579990D02*
X159835010Y-114988598D01*
X160655000Y-111760000D02*
X159835010Y-112579990D01*
X169545000Y-111760000D02*
X171131795Y-110173205D01*
X161925000Y-111760000D02*
X169545000Y-111760000D01*
X159835010Y-115385010D02*
X160020000Y-115570000D01*
X160020000Y-115570000D02*
X160655000Y-116205000D01*
X160655000Y-116205000D02*
X161290000Y-116840000D01*
X161290000Y-116840000D02*
X162560000Y-118110000D01*
G04 #@! TO.N,D12*
X211328001Y-78231999D02*
X212090000Y-77470000D01*
X208915000Y-80645000D02*
X211328001Y-78231999D01*
X202570640Y-80645000D02*
X208915000Y-80645000D01*
X163195000Y-115570000D02*
X167645640Y-115570000D01*
X167645640Y-115570000D02*
X202570640Y-80645000D01*
G04 #@! TO.N,D7*
X159385000Y-116840000D02*
X155575000Y-120650000D01*
X205740000Y-78740000D02*
X201930000Y-78740000D01*
X207010000Y-77470000D02*
X205740000Y-78740000D01*
X159385000Y-115174998D02*
X159385000Y-116840000D01*
X201930000Y-78740000D02*
X187325000Y-93345000D01*
X187325000Y-93345000D02*
X171450000Y-109220000D01*
X159385000Y-115174998D02*
X159385000Y-113665000D01*
X159385000Y-113665000D02*
X159385000Y-111125000D01*
X159385000Y-111125000D02*
X161290000Y-109220000D01*
X161290000Y-109220000D02*
X165100000Y-109220000D01*
X165100000Y-109220000D02*
X171450000Y-109220000D01*
X171450000Y-109220000D02*
X172720000Y-107950000D01*
G04 #@! TO.N,D8*
X158989998Y-123190000D02*
X155575000Y-123190000D01*
X163590002Y-119380000D02*
X162799998Y-119380000D01*
X164320001Y-117569999D02*
X164320001Y-118650001D01*
X163590002Y-116840000D02*
X164320001Y-117569999D01*
X162799998Y-119380000D02*
X158989998Y-123190000D01*
X162799998Y-116840000D02*
X163590002Y-116840000D01*
X162069999Y-116110001D02*
X162799998Y-116840000D01*
X162069999Y-114790001D02*
X162069999Y-116110001D01*
X162560000Y-114300000D02*
X162069999Y-114790001D01*
X210637001Y-77991761D02*
X208538732Y-80090030D01*
X210637001Y-76382999D02*
X210637001Y-77991761D01*
X208538732Y-80090030D02*
X202489200Y-80090030D01*
X202489200Y-80090030D02*
X168279230Y-114300000D01*
X164320001Y-118650001D02*
X163590002Y-119380000D01*
X212090000Y-74930000D02*
X210637001Y-76382999D01*
X168279230Y-114300000D02*
X162560000Y-114300000D01*
G04 #@! TO.N,TX*
X171185001Y-101970001D02*
X172085000Y-102870000D01*
X170859999Y-101644999D02*
X171185001Y-101970001D01*
X169589999Y-101644999D02*
X170859999Y-101644999D01*
X164465000Y-96520000D02*
X169589999Y-101644999D01*
X156845000Y-96520000D02*
X164465000Y-96520000D01*
X155575000Y-95250000D02*
X156845000Y-96520000D01*
G04 #@! TD*
D32*
G04 #@! TO.N,5V*
G36*
X145931456Y-49869324D02*
X145340000Y-51297225D01*
X145340000Y-52842775D01*
X145931456Y-54270676D01*
X147024324Y-55363544D01*
X148452225Y-55955000D01*
X149997775Y-55955000D01*
X151425676Y-55363544D01*
X152518544Y-54270676D01*
X153110000Y-52842775D01*
X153110000Y-51297225D01*
X152518544Y-49869324D01*
X151671220Y-49022000D01*
X187418780Y-49022000D01*
X186571456Y-49869324D01*
X185980000Y-51297225D01*
X185980000Y-52842775D01*
X186571456Y-54270676D01*
X187664324Y-55363544D01*
X189092225Y-55955000D01*
X190637775Y-55955000D01*
X192065676Y-55363544D01*
X193158544Y-54270676D01*
X193750000Y-52842775D01*
X193750000Y-51297225D01*
X193158544Y-49869324D01*
X192311220Y-49022000D01*
X217117394Y-49022000D01*
X217678000Y-49582606D01*
X217678000Y-123137394D01*
X215847394Y-124968000D01*
X129578452Y-124968000D01*
X127826804Y-123800235D01*
X127804933Y-123753756D01*
X127762000Y-123528693D01*
X127762000Y-122555000D01*
X133791887Y-122555000D01*
X133903260Y-123114909D01*
X134220423Y-123589577D01*
X134695091Y-123906740D01*
X135113667Y-123990000D01*
X135396333Y-123990000D01*
X135814909Y-123906740D01*
X136289577Y-123589577D01*
X136606740Y-123114909D01*
X136718113Y-122555000D01*
X136606740Y-121995091D01*
X136289577Y-121520423D01*
X135814909Y-121203260D01*
X135396333Y-121120000D01*
X135113667Y-121120000D01*
X134695091Y-121203260D01*
X134220423Y-121520423D01*
X133903260Y-121995091D01*
X133791887Y-122555000D01*
X127762000Y-122555000D01*
X127762000Y-116830446D01*
X128151456Y-117770676D01*
X129244324Y-118863544D01*
X130672225Y-119455000D01*
X132217775Y-119455000D01*
X133645676Y-118863544D01*
X133764220Y-118745000D01*
X134546887Y-118745000D01*
X134658260Y-119304909D01*
X134975423Y-119779577D01*
X135450091Y-120096740D01*
X135868667Y-120180000D01*
X136151333Y-120180000D01*
X136569909Y-120096740D01*
X137044577Y-119779577D01*
X137361740Y-119304909D01*
X137473113Y-118745000D01*
X137361740Y-118185091D01*
X137044577Y-117710423D01*
X136569909Y-117393260D01*
X136151333Y-117310000D01*
X135868667Y-117310000D01*
X135450091Y-117393260D01*
X134975423Y-117710423D01*
X134658260Y-118185091D01*
X134546887Y-118745000D01*
X133764220Y-118745000D01*
X134738544Y-117770676D01*
X135330000Y-116342775D01*
X135330000Y-115549894D01*
X135610423Y-115969577D01*
X136085091Y-116286740D01*
X136503667Y-116370000D01*
X136786333Y-116370000D01*
X137204909Y-116286740D01*
X137679577Y-115969577D01*
X137996740Y-115494909D01*
X138108113Y-114935000D01*
X137996740Y-114375091D01*
X137679577Y-113900423D01*
X137204909Y-113583260D01*
X136786333Y-113500000D01*
X136503667Y-113500000D01*
X136085091Y-113583260D01*
X135610423Y-113900423D01*
X135293260Y-114375091D01*
X135248453Y-114600352D01*
X134738544Y-113369324D01*
X133645676Y-112276456D01*
X132217775Y-111685000D01*
X130672225Y-111685000D01*
X129244324Y-112276456D01*
X128151456Y-113369324D01*
X127762000Y-114309554D01*
X127762000Y-111125000D01*
X135061887Y-111125000D01*
X135173260Y-111684909D01*
X135490423Y-112159577D01*
X135965091Y-112476740D01*
X136383667Y-112560000D01*
X136666333Y-112560000D01*
X137084909Y-112476740D01*
X137559577Y-112159577D01*
X137876740Y-111684909D01*
X137988113Y-111125000D01*
X137876740Y-110565091D01*
X137559577Y-110090423D01*
X137084909Y-109773260D01*
X136666333Y-109690000D01*
X136383667Y-109690000D01*
X135965091Y-109773260D01*
X135490423Y-110090423D01*
X135173260Y-110565091D01*
X135061887Y-111125000D01*
X127762000Y-111125000D01*
X127762000Y-105171965D01*
X135624484Y-105171965D01*
X135650277Y-105777700D01*
X135832461Y-106217533D01*
X136087804Y-106302591D01*
X136980395Y-105410000D01*
X136087804Y-104517409D01*
X135832461Y-104602467D01*
X135624484Y-105171965D01*
X127762000Y-105171965D01*
X127762000Y-101563834D01*
X130302000Y-101563834D01*
X130302000Y-102271166D01*
X130572684Y-102924656D01*
X131072844Y-103424816D01*
X131726334Y-103695500D01*
X132433666Y-103695500D01*
X133087156Y-103424816D01*
X133587316Y-102924656D01*
X133858000Y-102271166D01*
X133858000Y-101563834D01*
X133587316Y-100910344D01*
X133087156Y-100410184D01*
X132433666Y-100139500D01*
X131726334Y-100139500D01*
X131072844Y-100410184D01*
X130572684Y-100910344D01*
X130302000Y-101563834D01*
X127762000Y-101563834D01*
X127762000Y-94946858D01*
X128016000Y-94946858D01*
X128016000Y-95553142D01*
X128248015Y-96113277D01*
X128654738Y-96520000D01*
X128248015Y-96926723D01*
X128016000Y-97486858D01*
X128016000Y-98093142D01*
X128248015Y-98653277D01*
X128676723Y-99081985D01*
X129236858Y-99314000D01*
X129843142Y-99314000D01*
X130403277Y-99081985D01*
X130831985Y-98653277D01*
X131064000Y-98093142D01*
X131064000Y-97848801D01*
X137102276Y-103887078D01*
X136792300Y-103900277D01*
X136352467Y-104082461D01*
X136267409Y-104337804D01*
X137160000Y-105230395D01*
X137174143Y-105216253D01*
X137353748Y-105395858D01*
X137339605Y-105410000D01*
X137353748Y-105424143D01*
X137174143Y-105603748D01*
X137160000Y-105589605D01*
X136267409Y-106482196D01*
X136352467Y-106737539D01*
X136921965Y-106945516D01*
X137527700Y-106919723D01*
X137967533Y-106737539D01*
X138014630Y-106596154D01*
X138526950Y-107108474D01*
X138569350Y-107171930D01*
X138632806Y-107214330D01*
X138820741Y-107339905D01*
X138868884Y-107349481D01*
X139042427Y-107384001D01*
X139042431Y-107384001D01*
X139117279Y-107398889D01*
X139192127Y-107384001D01*
X140207874Y-107384001D01*
X140282721Y-107398889D01*
X140357568Y-107384001D01*
X140357573Y-107384001D01*
X140579258Y-107339905D01*
X140830650Y-107171930D01*
X140873052Y-107108471D01*
X141328131Y-106653393D01*
X141376723Y-106701985D01*
X141936858Y-106934000D01*
X142543142Y-106934000D01*
X143103277Y-106701985D01*
X143531985Y-106273277D01*
X143764000Y-105713142D01*
X143764000Y-105106858D01*
X143531985Y-104546723D01*
X143103277Y-104118015D01*
X142820377Y-104000834D01*
X145743258Y-101077954D01*
X145542000Y-101563834D01*
X145542000Y-102271166D01*
X145812684Y-102924656D01*
X146312844Y-103424816D01*
X146966334Y-103695500D01*
X147673666Y-103695500D01*
X148327156Y-103424816D01*
X148827316Y-102924656D01*
X149098000Y-102271166D01*
X149098000Y-101563834D01*
X148827316Y-100910344D01*
X148327156Y-100410184D01*
X147673666Y-100139500D01*
X146966334Y-100139500D01*
X146480454Y-100340758D01*
X149396213Y-97424999D01*
X154184490Y-97424999D01*
X154111887Y-97790000D01*
X154176312Y-98113886D01*
X144460527Y-107829672D01*
X144397071Y-107872072D01*
X144354671Y-107935528D01*
X144354670Y-107935529D01*
X144229096Y-108123464D01*
X144170111Y-108420001D01*
X144185000Y-108494853D01*
X144184999Y-109690000D01*
X143859561Y-109690000D01*
X143332138Y-109908466D01*
X142928466Y-110312138D01*
X142710000Y-110839561D01*
X142710000Y-111410439D01*
X142928466Y-111937862D01*
X143332138Y-112341534D01*
X143859561Y-112560000D01*
X144430439Y-112560000D01*
X144957862Y-112341534D01*
X145361534Y-111937862D01*
X145580000Y-111410439D01*
X145580000Y-110839561D01*
X145555212Y-110779717D01*
X145660902Y-110621539D01*
X145660903Y-110621538D01*
X145704999Y-110399853D01*
X145704999Y-110399849D01*
X145719887Y-110325002D01*
X145704999Y-110250155D01*
X145704999Y-108734802D01*
X154112405Y-100327397D01*
X154111887Y-100330000D01*
X154223260Y-100889909D01*
X154540423Y-101364577D01*
X154892758Y-101600000D01*
X154540423Y-101835423D01*
X154223260Y-102310091D01*
X154111887Y-102870000D01*
X154223260Y-103429909D01*
X154540423Y-103904577D01*
X154924108Y-104160947D01*
X154719866Y-104257611D01*
X154343959Y-104672577D01*
X154183096Y-105060961D01*
X154305085Y-105283000D01*
X155448000Y-105283000D01*
X155448000Y-105263000D01*
X155702000Y-105263000D01*
X155702000Y-105283000D01*
X156844915Y-105283000D01*
X156966904Y-105060961D01*
X156806041Y-104672577D01*
X156430134Y-104257611D01*
X156225892Y-104160947D01*
X156609577Y-103904577D01*
X156926740Y-103429909D01*
X157038113Y-102870000D01*
X156926740Y-102310091D01*
X156609577Y-101835423D01*
X156257242Y-101600000D01*
X156609577Y-101364577D01*
X156926740Y-100889909D01*
X157038113Y-100330000D01*
X156926740Y-99770091D01*
X156609577Y-99295423D01*
X156257242Y-99060000D01*
X156609577Y-98824577D01*
X156859842Y-98450029D01*
X156943464Y-98505904D01*
X156991607Y-98515480D01*
X157165150Y-98550000D01*
X157165154Y-98550000D01*
X157240002Y-98564888D01*
X157314850Y-98550000D01*
X161976957Y-98550000D01*
X162160423Y-98824577D01*
X162512758Y-99060000D01*
X162160423Y-99295423D01*
X161843260Y-99770091D01*
X161731887Y-100330000D01*
X161843260Y-100889909D01*
X162160423Y-101364577D01*
X162512758Y-101600000D01*
X162160423Y-101835423D01*
X161843260Y-102310091D01*
X161731887Y-102870000D01*
X161843260Y-103429909D01*
X162160423Y-103904577D01*
X162512758Y-104140000D01*
X162160423Y-104375423D01*
X161843260Y-104850091D01*
X161731887Y-105410000D01*
X161843260Y-105969909D01*
X162160423Y-106444577D01*
X162512758Y-106680000D01*
X162160423Y-106915423D01*
X161843260Y-107390091D01*
X161731887Y-107950000D01*
X161833332Y-108460000D01*
X161364848Y-108460000D01*
X161290000Y-108445112D01*
X161215152Y-108460000D01*
X161215148Y-108460000D01*
X161041605Y-108494520D01*
X160993462Y-108504096D01*
X160806418Y-108629076D01*
X160742071Y-108672071D01*
X160699671Y-108735527D01*
X158900528Y-110534671D01*
X158837072Y-110577071D01*
X158794672Y-110640527D01*
X158794671Y-110640528D01*
X158697111Y-110786537D01*
X158669097Y-110828463D01*
X158637938Y-110985112D01*
X158610112Y-111125000D01*
X158625001Y-111199852D01*
X158625000Y-113739851D01*
X158625001Y-113739856D01*
X158625000Y-115100146D01*
X158625000Y-115100147D01*
X158625001Y-116525197D01*
X157037595Y-118112603D01*
X157038113Y-118110000D01*
X156926740Y-117550091D01*
X156609577Y-117075423D01*
X156257242Y-116840000D01*
X156609577Y-116604577D01*
X156926740Y-116129909D01*
X157038113Y-115570000D01*
X156926740Y-115010091D01*
X156609577Y-114535423D01*
X156257242Y-114300000D01*
X156609577Y-114064577D01*
X156926740Y-113589909D01*
X157038113Y-113030000D01*
X156926740Y-112470091D01*
X156609577Y-111995423D01*
X156257242Y-111760000D01*
X156609577Y-111524577D01*
X156926740Y-111049909D01*
X157038113Y-110490000D01*
X156926740Y-109930091D01*
X156609577Y-109455423D01*
X156257242Y-109220000D01*
X156609577Y-108984577D01*
X156926740Y-108509909D01*
X157038113Y-107950000D01*
X156926740Y-107390091D01*
X156609577Y-106915423D01*
X156225892Y-106659053D01*
X156430134Y-106562389D01*
X156806041Y-106147423D01*
X156966904Y-105759039D01*
X156844915Y-105537000D01*
X155702000Y-105537000D01*
X155702000Y-105557000D01*
X155448000Y-105557000D01*
X155448000Y-105537000D01*
X154305085Y-105537000D01*
X154183096Y-105759039D01*
X154343959Y-106147423D01*
X154719866Y-106562389D01*
X154924108Y-106659053D01*
X154540423Y-106915423D01*
X154223260Y-107390091D01*
X154111887Y-107950000D01*
X154223260Y-108509909D01*
X154540423Y-108984577D01*
X154892758Y-109220000D01*
X154540423Y-109455423D01*
X154356957Y-109730000D01*
X151679312Y-109730000D01*
X151669147Y-109705460D01*
X151279540Y-109315853D01*
X150770494Y-109105000D01*
X150219506Y-109105000D01*
X149710460Y-109315853D01*
X149320853Y-109705460D01*
X149310688Y-109730000D01*
X148664846Y-109730000D01*
X148589999Y-109715112D01*
X148515152Y-109730000D01*
X148515148Y-109730000D01*
X148293463Y-109774096D01*
X148042071Y-109942071D01*
X147999671Y-110005527D01*
X144483302Y-113521897D01*
X144430439Y-113500000D01*
X143859561Y-113500000D01*
X143332138Y-113718466D01*
X142928466Y-114122138D01*
X142710000Y-114649561D01*
X142710000Y-115220439D01*
X142928466Y-115747862D01*
X143332138Y-116151534D01*
X143859561Y-116370000D01*
X144430439Y-116370000D01*
X144957862Y-116151534D01*
X145361534Y-115747862D01*
X145580000Y-115220439D01*
X145580000Y-114649561D01*
X145558103Y-114596698D01*
X148904802Y-111250000D01*
X149310688Y-111250000D01*
X149320853Y-111274540D01*
X149710460Y-111664147D01*
X150219506Y-111875000D01*
X150770494Y-111875000D01*
X151279540Y-111664147D01*
X151669147Y-111274540D01*
X151679312Y-111250000D01*
X154356957Y-111250000D01*
X154540423Y-111524577D01*
X154892758Y-111760000D01*
X154540423Y-111995423D01*
X154356957Y-112270000D01*
X152909848Y-112270000D01*
X152835000Y-112255112D01*
X152760152Y-112270000D01*
X152760148Y-112270000D01*
X152586605Y-112304520D01*
X152538462Y-112314096D01*
X152351418Y-112439076D01*
X152287071Y-112482071D01*
X152244671Y-112545527D01*
X150795034Y-113995165D01*
X150770494Y-113985000D01*
X150219506Y-113985000D01*
X149710460Y-114195853D01*
X149320853Y-114585460D01*
X149310688Y-114610000D01*
X146959848Y-114610000D01*
X146885000Y-114595112D01*
X146810152Y-114610000D01*
X146810148Y-114610000D01*
X146636605Y-114644520D01*
X146588462Y-114654096D01*
X146497089Y-114715150D01*
X146337071Y-114822071D01*
X146294671Y-114885527D01*
X143848302Y-117331897D01*
X143795439Y-117310000D01*
X143224561Y-117310000D01*
X142697138Y-117528466D01*
X142293466Y-117932138D01*
X142075000Y-118459561D01*
X142075000Y-119030439D01*
X142293466Y-119557862D01*
X142697138Y-119961534D01*
X143224561Y-120180000D01*
X143795439Y-120180000D01*
X144322862Y-119961534D01*
X144726534Y-119557862D01*
X144945000Y-119030439D01*
X144945000Y-118459561D01*
X144923103Y-118406698D01*
X147199802Y-116130000D01*
X149310688Y-116130000D01*
X149320853Y-116154540D01*
X149710460Y-116544147D01*
X150219506Y-116755000D01*
X150770494Y-116755000D01*
X151279540Y-116544147D01*
X151669147Y-116154540D01*
X151880000Y-115645494D01*
X151880000Y-115094506D01*
X151869835Y-115069966D01*
X153149802Y-113790000D01*
X154356957Y-113790000D01*
X154540423Y-114064577D01*
X154892758Y-114300000D01*
X154540423Y-114535423D01*
X154223260Y-115010091D01*
X154111887Y-115570000D01*
X154223260Y-116129909D01*
X154540423Y-116604577D01*
X154892758Y-116840000D01*
X154540423Y-117075423D01*
X154356957Y-117350000D01*
X152474848Y-117350000D01*
X152400000Y-117335112D01*
X152325152Y-117350000D01*
X152325148Y-117350000D01*
X152151605Y-117384520D01*
X152103462Y-117394096D01*
X151952230Y-117495147D01*
X151852071Y-117562071D01*
X151809671Y-117625527D01*
X149004839Y-120430360D01*
X148895330Y-120385000D01*
X148284670Y-120385000D01*
X147720493Y-120618690D01*
X147551275Y-120787908D01*
X147548157Y-120772235D01*
X147407809Y-120562191D01*
X147197765Y-120421843D01*
X146950000Y-120372560D01*
X145150000Y-120372560D01*
X144902235Y-120421843D01*
X144692191Y-120562191D01*
X144551843Y-120772235D01*
X144502560Y-121020000D01*
X144502560Y-121795000D01*
X144113430Y-121795000D01*
X144091534Y-121742138D01*
X143687862Y-121338466D01*
X143160439Y-121120000D01*
X142589561Y-121120000D01*
X142062138Y-121338466D01*
X141658466Y-121742138D01*
X141440000Y-122269561D01*
X141440000Y-122840439D01*
X141658466Y-123367862D01*
X142062138Y-123771534D01*
X142589561Y-123990000D01*
X143160439Y-123990000D01*
X143687862Y-123771534D01*
X144091534Y-123367862D01*
X144113430Y-123315000D01*
X144747851Y-123315000D01*
X144902235Y-123418157D01*
X145150000Y-123467440D01*
X146950000Y-123467440D01*
X147197765Y-123418157D01*
X147407809Y-123277809D01*
X147548157Y-123067765D01*
X147551275Y-123052092D01*
X147720493Y-123221310D01*
X148284670Y-123455000D01*
X148895330Y-123455000D01*
X149459507Y-123221310D01*
X149891310Y-122789507D01*
X150125000Y-122225330D01*
X150125000Y-121614670D01*
X150079640Y-121505161D01*
X152714802Y-118870000D01*
X154356957Y-118870000D01*
X154540423Y-119144577D01*
X154892758Y-119380000D01*
X154540423Y-119615423D01*
X154223260Y-120090091D01*
X154111887Y-120650000D01*
X154223260Y-121209909D01*
X154540423Y-121684577D01*
X154892758Y-121920000D01*
X154540423Y-122155423D01*
X154223260Y-122630091D01*
X154111887Y-123190000D01*
X154223260Y-123749909D01*
X154540423Y-124224577D01*
X155015091Y-124541740D01*
X155433667Y-124625000D01*
X155716333Y-124625000D01*
X156134909Y-124541740D01*
X156609577Y-124224577D01*
X156793043Y-123950000D01*
X158915151Y-123950000D01*
X158989998Y-123964888D01*
X159064845Y-123950000D01*
X159064850Y-123950000D01*
X159286535Y-123905904D01*
X159537927Y-123737929D01*
X159580329Y-123674470D01*
X161924022Y-121330778D01*
X162160423Y-121684577D01*
X162512758Y-121920000D01*
X162160423Y-122155423D01*
X161843260Y-122630091D01*
X161731887Y-123190000D01*
X161843260Y-123749909D01*
X162160423Y-124224577D01*
X162635091Y-124541740D01*
X163053667Y-124625000D01*
X163336333Y-124625000D01*
X163754909Y-124541740D01*
X164229577Y-124224577D01*
X164546740Y-123749909D01*
X164658113Y-123190000D01*
X164546740Y-122630091D01*
X164229577Y-122155423D01*
X163877242Y-121920000D01*
X164229577Y-121684577D01*
X164546740Y-121209909D01*
X164585554Y-121014778D01*
X167910000Y-121014778D01*
X167910000Y-121665222D01*
X168158914Y-122266153D01*
X168618847Y-122726086D01*
X169219778Y-122975000D01*
X169870222Y-122975000D01*
X170471153Y-122726086D01*
X170931086Y-122266153D01*
X171180000Y-121665222D01*
X171180000Y-121014778D01*
X174410000Y-121014778D01*
X174410000Y-121665222D01*
X174658914Y-122266153D01*
X175118847Y-122726086D01*
X175719778Y-122975000D01*
X176370222Y-122975000D01*
X176383157Y-122969642D01*
X183910000Y-122969642D01*
X183910000Y-123570358D01*
X184139884Y-124125346D01*
X184564654Y-124550116D01*
X185119642Y-124780000D01*
X185720358Y-124780000D01*
X186275346Y-124550116D01*
X186700116Y-124125346D01*
X186930000Y-123570358D01*
X186930000Y-122969642D01*
X186890506Y-122874295D01*
X193524476Y-116240327D01*
X193587929Y-116197929D01*
X193630327Y-116134476D01*
X193630329Y-116134474D01*
X193740509Y-115969577D01*
X193755904Y-115946537D01*
X193800000Y-115724852D01*
X193800000Y-115724848D01*
X193814888Y-115650001D01*
X193800000Y-115575154D01*
X193800000Y-115518043D01*
X194074577Y-115334577D01*
X194185000Y-115169317D01*
X194185001Y-119700197D01*
X193378302Y-120506897D01*
X193325439Y-120485000D01*
X192754561Y-120485000D01*
X192227138Y-120703466D01*
X191823466Y-121107138D01*
X191605000Y-121634561D01*
X191605000Y-122205439D01*
X191823466Y-122732862D01*
X192227138Y-123136534D01*
X192754561Y-123355000D01*
X193325439Y-123355000D01*
X193852862Y-123136534D01*
X194256534Y-122732862D01*
X194456678Y-122249670D01*
X196585000Y-122249670D01*
X196585000Y-122860330D01*
X196818690Y-123424507D01*
X197250493Y-123856310D01*
X197814670Y-124090000D01*
X198425330Y-124090000D01*
X198989507Y-123856310D01*
X199158725Y-123687092D01*
X199161843Y-123702765D01*
X199302191Y-123912809D01*
X199512235Y-124053157D01*
X199760000Y-124102440D01*
X201560000Y-124102440D01*
X201807765Y-124053157D01*
X202017809Y-123912809D01*
X202158157Y-123702765D01*
X202207440Y-123455000D01*
X202207440Y-123315000D01*
X202490153Y-123315000D01*
X202565000Y-123329888D01*
X202639847Y-123315000D01*
X202639852Y-123315000D01*
X202760200Y-123291061D01*
X202914561Y-123355000D01*
X203485439Y-123355000D01*
X204012862Y-123136534D01*
X204416534Y-122732862D01*
X204635000Y-122205439D01*
X204635000Y-121634561D01*
X204416534Y-121107138D01*
X204012862Y-120703466D01*
X203485439Y-120485000D01*
X202914561Y-120485000D01*
X202387138Y-120703466D01*
X201983466Y-121107138D01*
X201961695Y-121159697D01*
X201807765Y-121056843D01*
X201560000Y-121007560D01*
X199760000Y-121007560D01*
X199512235Y-121056843D01*
X199302191Y-121197191D01*
X199161843Y-121407235D01*
X199158725Y-121422908D01*
X198989507Y-121253690D01*
X198425330Y-121020000D01*
X197814670Y-121020000D01*
X197250493Y-121253690D01*
X196818690Y-121685493D01*
X196585000Y-122249670D01*
X194456678Y-122249670D01*
X194475000Y-122205439D01*
X194475000Y-121634561D01*
X194453103Y-121581698D01*
X195429473Y-120605329D01*
X195492929Y-120562929D01*
X195632890Y-120353463D01*
X195660904Y-120311538D01*
X195689947Y-120165528D01*
X195705000Y-120089852D01*
X195705000Y-120089848D01*
X195719888Y-120015000D01*
X195705000Y-119940152D01*
X195705000Y-116534670D01*
X196585000Y-116534670D01*
X196585000Y-117145330D01*
X196818690Y-117709507D01*
X197250493Y-118141310D01*
X197814670Y-118375000D01*
X198425330Y-118375000D01*
X198989507Y-118141310D01*
X199158725Y-117972092D01*
X199161843Y-117987765D01*
X199302191Y-118197809D01*
X199512235Y-118338157D01*
X199760000Y-118387440D01*
X201560000Y-118387440D01*
X201807765Y-118338157D01*
X202017809Y-118197809D01*
X202158157Y-117987765D01*
X202184738Y-117854134D01*
X202387138Y-118056534D01*
X202914561Y-118275000D01*
X203485439Y-118275000D01*
X204012862Y-118056534D01*
X204416534Y-117652862D01*
X204635000Y-117125439D01*
X204635000Y-116840000D01*
X209356887Y-116840000D01*
X209468260Y-117399909D01*
X209785423Y-117874577D01*
X210060000Y-118058044D01*
X210060001Y-120701956D01*
X209785423Y-120885423D01*
X209468260Y-121360091D01*
X209356887Y-121920000D01*
X209468260Y-122479909D01*
X209785423Y-122954577D01*
X210260091Y-123271740D01*
X210678667Y-123355000D01*
X210961333Y-123355000D01*
X211379909Y-123271740D01*
X211854577Y-122954577D01*
X212171740Y-122479909D01*
X212283113Y-121920000D01*
X212171740Y-121360091D01*
X211854577Y-120885423D01*
X211580000Y-120701957D01*
X211580000Y-118058043D01*
X211854577Y-117874577D01*
X212171740Y-117399909D01*
X212283113Y-116840000D01*
X212171740Y-116280091D01*
X211854577Y-115805423D01*
X211379909Y-115488260D01*
X210961333Y-115405000D01*
X210678667Y-115405000D01*
X210260091Y-115488260D01*
X209785423Y-115805423D01*
X209468260Y-116280091D01*
X209356887Y-116840000D01*
X204635000Y-116840000D01*
X204635000Y-116554561D01*
X204416534Y-116027138D01*
X204012862Y-115623466D01*
X203485439Y-115405000D01*
X202914561Y-115405000D01*
X202387138Y-115623466D01*
X202184738Y-115825866D01*
X202158157Y-115692235D01*
X202017809Y-115482191D01*
X201807765Y-115341843D01*
X201560000Y-115292560D01*
X199760000Y-115292560D01*
X199512235Y-115341843D01*
X199302191Y-115482191D01*
X199161843Y-115692235D01*
X199158725Y-115707908D01*
X198989507Y-115538690D01*
X198425330Y-115305000D01*
X197814670Y-115305000D01*
X197250493Y-115538690D01*
X196818690Y-115970493D01*
X196585000Y-116534670D01*
X195705000Y-116534670D01*
X195705000Y-112864799D01*
X196572560Y-111997239D01*
X196572560Y-112660000D01*
X196621843Y-112907765D01*
X196762191Y-113117809D01*
X196972235Y-113258157D01*
X197220000Y-113307440D01*
X199020000Y-113307440D01*
X199267765Y-113258157D01*
X199477809Y-113117809D01*
X199618157Y-112907765D01*
X199621275Y-112892092D01*
X199790493Y-113061310D01*
X200354670Y-113295000D01*
X200965330Y-113295000D01*
X201529507Y-113061310D01*
X201961310Y-112629507D01*
X201997212Y-112542832D01*
X202165423Y-112794577D01*
X202640091Y-113111740D01*
X203058667Y-113195000D01*
X203341333Y-113195000D01*
X203759909Y-113111740D01*
X204234577Y-112794577D01*
X204551740Y-112319909D01*
X204663113Y-111760000D01*
X204570618Y-111294999D01*
X209280198Y-111294999D01*
X209406897Y-111421698D01*
X209385000Y-111474561D01*
X209385000Y-112045439D01*
X209603466Y-112572862D01*
X210007138Y-112976534D01*
X210534561Y-113195000D01*
X211105439Y-113195000D01*
X211632862Y-112976534D01*
X212036534Y-112572862D01*
X212255000Y-112045439D01*
X212255000Y-111760000D01*
X213750908Y-111760000D01*
X213866161Y-112339418D01*
X214194375Y-112830625D01*
X214492761Y-113030000D01*
X214194375Y-113229375D01*
X213866161Y-113720582D01*
X213750908Y-114300000D01*
X213866161Y-114879418D01*
X214194375Y-115370625D01*
X214492761Y-115570000D01*
X214194375Y-115769375D01*
X213866161Y-116260582D01*
X213750908Y-116840000D01*
X213866161Y-117419418D01*
X214194375Y-117910625D01*
X214492761Y-118110000D01*
X214194375Y-118309375D01*
X213866161Y-118800582D01*
X213750908Y-119380000D01*
X213866161Y-119959418D01*
X214194375Y-120450625D01*
X214492761Y-120650000D01*
X214194375Y-120849375D01*
X213866161Y-121340582D01*
X213750908Y-121920000D01*
X213866161Y-122499418D01*
X214194375Y-122990625D01*
X214685582Y-123318839D01*
X215118744Y-123405000D01*
X215411256Y-123405000D01*
X215844418Y-123318839D01*
X216335625Y-122990625D01*
X216663839Y-122499418D01*
X216779092Y-121920000D01*
X216663839Y-121340582D01*
X216335625Y-120849375D01*
X216037239Y-120650000D01*
X216335625Y-120450625D01*
X216663839Y-119959418D01*
X216779092Y-119380000D01*
X216663839Y-118800582D01*
X216335625Y-118309375D01*
X216037239Y-118110000D01*
X216335625Y-117910625D01*
X216663839Y-117419418D01*
X216779092Y-116840000D01*
X216663839Y-116260582D01*
X216335625Y-115769375D01*
X216037239Y-115570000D01*
X216335625Y-115370625D01*
X216663839Y-114879418D01*
X216779092Y-114300000D01*
X216663839Y-113720582D01*
X216335625Y-113229375D01*
X216037239Y-113030000D01*
X216335625Y-112830625D01*
X216663839Y-112339418D01*
X216779092Y-111760000D01*
X216663839Y-111180582D01*
X216335625Y-110689375D01*
X216317381Y-110677184D01*
X216362765Y-110668157D01*
X216572809Y-110527809D01*
X216713157Y-110317765D01*
X216762440Y-110070000D01*
X216762440Y-108370000D01*
X216713157Y-108122235D01*
X216572809Y-107912191D01*
X216362765Y-107771843D01*
X216115000Y-107722560D01*
X214415000Y-107722560D01*
X214167235Y-107771843D01*
X213957191Y-107912191D01*
X213816843Y-108122235D01*
X213767560Y-108370000D01*
X213767560Y-110070000D01*
X213816843Y-110317765D01*
X213957191Y-110527809D01*
X214167235Y-110668157D01*
X214212619Y-110677184D01*
X214194375Y-110689375D01*
X213866161Y-111180582D01*
X213750908Y-111760000D01*
X212255000Y-111760000D01*
X212255000Y-111474561D01*
X212036534Y-110947138D01*
X211632862Y-110543466D01*
X211105439Y-110325000D01*
X210534561Y-110325000D01*
X210481698Y-110346897D01*
X210185330Y-110050529D01*
X210142928Y-109987070D01*
X209891536Y-109819095D01*
X209669851Y-109774999D01*
X209669846Y-109774999D01*
X209594999Y-109760111D01*
X209520152Y-109774999D01*
X198794800Y-109774999D01*
X202087603Y-106482196D01*
X202307409Y-106482196D01*
X202392467Y-106737539D01*
X202961965Y-106945516D01*
X203567700Y-106919723D01*
X204007533Y-106737539D01*
X204092591Y-106482196D01*
X203200000Y-105589605D01*
X202307409Y-106482196D01*
X202087603Y-106482196D01*
X202160474Y-106409326D01*
X202223930Y-106366926D01*
X202391905Y-106115534D01*
X202411035Y-106019360D01*
X203020395Y-105410000D01*
X203379605Y-105410000D01*
X204272196Y-106302591D01*
X204437367Y-106247570D01*
X204448015Y-106273277D01*
X204876723Y-106701985D01*
X205436858Y-106934000D01*
X206043142Y-106934000D01*
X206603277Y-106701985D01*
X207010000Y-106295262D01*
X207416723Y-106701985D01*
X207976858Y-106934000D01*
X208583142Y-106934000D01*
X209143277Y-106701985D01*
X209571985Y-106273277D01*
X209804000Y-105713142D01*
X209804000Y-105106858D01*
X209571985Y-104546723D01*
X209143277Y-104118015D01*
X208583142Y-103886000D01*
X207976858Y-103886000D01*
X207416723Y-104118015D01*
X207010000Y-104524738D01*
X206603277Y-104118015D01*
X206043142Y-103886000D01*
X205436858Y-103886000D01*
X204876723Y-104118015D01*
X204448015Y-104546723D01*
X204437367Y-104572430D01*
X204272196Y-104517409D01*
X203379605Y-105410000D01*
X203020395Y-105410000D01*
X203006253Y-105395858D01*
X203185858Y-105216253D01*
X203200000Y-105230395D01*
X204092591Y-104337804D01*
X204007533Y-104082461D01*
X203438035Y-103874484D01*
X202832300Y-103900277D01*
X202436001Y-104064429D01*
X202436001Y-101563834D01*
X211582000Y-101563834D01*
X211582000Y-102271166D01*
X211852684Y-102924656D01*
X212352844Y-103424816D01*
X213006334Y-103695500D01*
X213713666Y-103695500D01*
X214367156Y-103424816D01*
X214867316Y-102924656D01*
X215138000Y-102271166D01*
X215138000Y-101563834D01*
X214867316Y-100910344D01*
X214367156Y-100410184D01*
X213713666Y-100139500D01*
X213006334Y-100139500D01*
X212352844Y-100410184D01*
X211852684Y-100910344D01*
X211582000Y-101563834D01*
X202436001Y-101563834D01*
X202436001Y-89154000D01*
X202868142Y-89154000D01*
X203428277Y-88921985D01*
X203856985Y-88493277D01*
X204089000Y-87933142D01*
X204089000Y-87326858D01*
X207391000Y-87326858D01*
X207391000Y-87933142D01*
X207623015Y-88493277D01*
X208051723Y-88921985D01*
X208611858Y-89154000D01*
X209218142Y-89154000D01*
X209778277Y-88921985D01*
X210206985Y-88493277D01*
X210316520Y-88228834D01*
X211582000Y-88228834D01*
X211582000Y-88936166D01*
X211852684Y-89589656D01*
X212352844Y-90089816D01*
X213006334Y-90360500D01*
X213713666Y-90360500D01*
X214367156Y-90089816D01*
X214867316Y-89589656D01*
X215138000Y-88936166D01*
X215138000Y-88228834D01*
X214867316Y-87575344D01*
X214367156Y-87075184D01*
X213713666Y-86804500D01*
X213006334Y-86804500D01*
X212352844Y-87075184D01*
X211852684Y-87575344D01*
X211582000Y-88228834D01*
X210316520Y-88228834D01*
X210439000Y-87933142D01*
X210439000Y-87326858D01*
X210206985Y-86766723D01*
X209778277Y-86338015D01*
X209218142Y-86106000D01*
X208611858Y-86106000D01*
X208051723Y-86338015D01*
X207623015Y-86766723D01*
X207391000Y-87326858D01*
X204089000Y-87326858D01*
X203856985Y-86766723D01*
X203428277Y-86338015D01*
X202868142Y-86106000D01*
X202261858Y-86106000D01*
X201701723Y-86338015D01*
X201273015Y-86766723D01*
X201041000Y-87326858D01*
X201041000Y-87933142D01*
X201084019Y-88037000D01*
X200960097Y-88222463D01*
X200916001Y-88444148D01*
X200916001Y-88444152D01*
X200901113Y-88518999D01*
X200916001Y-88593846D01*
X200916002Y-105504194D01*
X196378815Y-110041381D01*
X196925000Y-108722775D01*
X196925000Y-107177225D01*
X196333544Y-105749324D01*
X195240676Y-104656456D01*
X193812775Y-104065000D01*
X192267225Y-104065000D01*
X190839324Y-104656456D01*
X189746456Y-105749324D01*
X189155000Y-107177225D01*
X189155000Y-108722775D01*
X189746456Y-110150676D01*
X190839324Y-111243544D01*
X192267225Y-111835000D01*
X193812775Y-111835000D01*
X195131382Y-111288815D01*
X194460530Y-111959667D01*
X194397071Y-112002069D01*
X194229096Y-112253462D01*
X194185000Y-112475147D01*
X194185000Y-112475151D01*
X194170112Y-112549998D01*
X194185000Y-112624845D01*
X194185000Y-113430683D01*
X194074577Y-113265423D01*
X193599909Y-112948260D01*
X193181333Y-112865000D01*
X192898667Y-112865000D01*
X192480091Y-112948260D01*
X192005423Y-113265423D01*
X191688260Y-113740091D01*
X191576887Y-114300000D01*
X191688260Y-114859909D01*
X192005423Y-115334577D01*
X192170392Y-115444805D01*
X189855000Y-117760198D01*
X189855000Y-117525159D01*
X189552801Y-116795588D01*
X188994412Y-116237199D01*
X188264841Y-115935000D01*
X187475159Y-115935000D01*
X186745588Y-116237199D01*
X186187199Y-116795588D01*
X185885000Y-117525159D01*
X185885000Y-118314841D01*
X186187199Y-119044412D01*
X186745588Y-119602801D01*
X187475159Y-119905000D01*
X187710198Y-119905000D01*
X185815705Y-121799494D01*
X185720358Y-121760000D01*
X185119642Y-121760000D01*
X184564654Y-121989884D01*
X184139884Y-122414654D01*
X183910000Y-122969642D01*
X176383157Y-122969642D01*
X176971153Y-122726086D01*
X177431086Y-122266153D01*
X177680000Y-121665222D01*
X177680000Y-121014778D01*
X177431086Y-120413847D01*
X176971153Y-119953914D01*
X176370222Y-119705000D01*
X175719778Y-119705000D01*
X175118847Y-119953914D01*
X174658914Y-120413847D01*
X174410000Y-121014778D01*
X171180000Y-121014778D01*
X170931086Y-120413847D01*
X170471153Y-119953914D01*
X169870222Y-119705000D01*
X169219778Y-119705000D01*
X168618847Y-119953914D01*
X168158914Y-120413847D01*
X167910000Y-121014778D01*
X164585554Y-121014778D01*
X164658113Y-120650000D01*
X164546740Y-120090091D01*
X164309607Y-119735196D01*
X164804476Y-119240329D01*
X164867930Y-119197930D01*
X164910328Y-119134477D01*
X164910330Y-119134475D01*
X165035904Y-118946539D01*
X165035905Y-118946538D01*
X165079940Y-118725159D01*
X177485000Y-118725159D01*
X177485000Y-119514841D01*
X177787199Y-120244412D01*
X178345588Y-120802801D01*
X179075159Y-121105000D01*
X179864841Y-121105000D01*
X180594412Y-120802801D01*
X181152801Y-120244412D01*
X181455000Y-119514841D01*
X181455000Y-118725159D01*
X181152801Y-117995588D01*
X180594412Y-117437199D01*
X179864841Y-117135000D01*
X179075159Y-117135000D01*
X178345588Y-117437199D01*
X177787199Y-117995588D01*
X177485000Y-118725159D01*
X165079940Y-118725159D01*
X165080001Y-118724853D01*
X165080001Y-118724849D01*
X165094889Y-118650002D01*
X165080001Y-118575155D01*
X165080001Y-117992532D01*
X168572073Y-117992532D01*
X168670736Y-118259387D01*
X169280461Y-118485908D01*
X169930460Y-118461856D01*
X170419264Y-118259387D01*
X170517927Y-117992532D01*
X175072073Y-117992532D01*
X175170736Y-118259387D01*
X175780461Y-118485908D01*
X176430460Y-118461856D01*
X176919264Y-118259387D01*
X177017927Y-117992532D01*
X176045000Y-117019605D01*
X175072073Y-117992532D01*
X170517927Y-117992532D01*
X169545000Y-117019605D01*
X168572073Y-117992532D01*
X165080001Y-117992532D01*
X165080001Y-117644845D01*
X165094889Y-117569998D01*
X165080001Y-117495151D01*
X165080001Y-117495147D01*
X165035905Y-117273462D01*
X164950290Y-117145330D01*
X164910330Y-117085525D01*
X164910328Y-117085523D01*
X164867930Y-117022070D01*
X164804477Y-116979672D01*
X164309607Y-116484804D01*
X164413043Y-116330000D01*
X167570793Y-116330000D01*
X167645640Y-116344888D01*
X167720487Y-116330000D01*
X167720492Y-116330000D01*
X167942177Y-116285904D01*
X168027961Y-116228585D01*
X167899092Y-116575461D01*
X167923144Y-117225460D01*
X168125613Y-117714264D01*
X168392468Y-117812927D01*
X169365395Y-116840000D01*
X169724605Y-116840000D01*
X170697532Y-117812927D01*
X170964387Y-117714264D01*
X171190908Y-117104539D01*
X171171331Y-116575461D01*
X174399092Y-116575461D01*
X174423144Y-117225460D01*
X174625613Y-117714264D01*
X174892468Y-117812927D01*
X175865395Y-116840000D01*
X176224605Y-116840000D01*
X177197532Y-117812927D01*
X177464387Y-117714264D01*
X177690908Y-117104539D01*
X177666856Y-116454540D01*
X177464387Y-115965736D01*
X177197532Y-115867073D01*
X176224605Y-116840000D01*
X175865395Y-116840000D01*
X174892468Y-115867073D01*
X174625613Y-115965736D01*
X174399092Y-116575461D01*
X171171331Y-116575461D01*
X171166856Y-116454540D01*
X170964387Y-115965736D01*
X170697532Y-115867073D01*
X169724605Y-116840000D01*
X169365395Y-116840000D01*
X169351253Y-116825858D01*
X169530858Y-116646253D01*
X169545000Y-116660395D01*
X170517927Y-115687468D01*
X175072073Y-115687468D01*
X176045000Y-116660395D01*
X177017927Y-115687468D01*
X176919264Y-115420613D01*
X176309539Y-115194092D01*
X175659540Y-115218144D01*
X175170736Y-115420613D01*
X175072073Y-115687468D01*
X170517927Y-115687468D01*
X170419264Y-115420613D01*
X169809539Y-115194092D01*
X169159540Y-115218144D01*
X169010607Y-115279834D01*
X182726607Y-101563834D01*
X196342000Y-101563834D01*
X196342000Y-102271166D01*
X196612684Y-102924656D01*
X197112844Y-103424816D01*
X197766334Y-103695500D01*
X198473666Y-103695500D01*
X199127156Y-103424816D01*
X199627316Y-102924656D01*
X199898000Y-102271166D01*
X199898000Y-101563834D01*
X199627316Y-100910344D01*
X199127156Y-100410184D01*
X198473666Y-100139500D01*
X197766334Y-100139500D01*
X197112844Y-100410184D01*
X196612684Y-100910344D01*
X196342000Y-101563834D01*
X182726607Y-101563834D01*
X189343583Y-94946858D01*
X194056000Y-94946858D01*
X194056000Y-95553142D01*
X194288015Y-96113277D01*
X194694738Y-96520000D01*
X194288015Y-96926723D01*
X194056000Y-97486858D01*
X194056000Y-98093142D01*
X194288015Y-98653277D01*
X194716723Y-99081985D01*
X195276858Y-99314000D01*
X195883142Y-99314000D01*
X196443277Y-99081985D01*
X196871985Y-98653277D01*
X197104000Y-98093142D01*
X197104000Y-97486858D01*
X196871985Y-96926723D01*
X196465262Y-96520000D01*
X196871985Y-96113277D01*
X197104000Y-95553142D01*
X197104000Y-94946858D01*
X196871985Y-94386723D01*
X196443277Y-93958015D01*
X196417570Y-93947367D01*
X196472591Y-93782196D01*
X195580000Y-92889605D01*
X194687409Y-93782196D01*
X194742430Y-93947367D01*
X194716723Y-93958015D01*
X194288015Y-94386723D01*
X194056000Y-94946858D01*
X189343583Y-94946858D01*
X191818476Y-92471965D01*
X194044484Y-92471965D01*
X194070277Y-93077700D01*
X194252461Y-93517533D01*
X194507804Y-93602591D01*
X195400395Y-92710000D01*
X195759605Y-92710000D01*
X196652196Y-93602591D01*
X196907539Y-93517533D01*
X197115516Y-92948035D01*
X197089723Y-92342300D01*
X196907539Y-91902467D01*
X196652196Y-91817409D01*
X195759605Y-92710000D01*
X195400395Y-92710000D01*
X194507804Y-91817409D01*
X194252461Y-91902467D01*
X194044484Y-92471965D01*
X191818476Y-92471965D01*
X192652637Y-91637804D01*
X194687409Y-91637804D01*
X195580000Y-92530395D01*
X196472591Y-91637804D01*
X196387533Y-91382461D01*
X195818035Y-91174484D01*
X195212300Y-91200277D01*
X194772467Y-91382461D01*
X194687409Y-91637804D01*
X192652637Y-91637804D01*
X196540267Y-87750175D01*
X196342000Y-88228834D01*
X196342000Y-88936166D01*
X196612684Y-89589656D01*
X197112844Y-90089816D01*
X197766334Y-90360500D01*
X198473666Y-90360500D01*
X199127156Y-90089816D01*
X199627316Y-89589656D01*
X199898000Y-88936166D01*
X199898000Y-88228834D01*
X199627316Y-87575344D01*
X199127156Y-87075184D01*
X198473666Y-86804500D01*
X197766334Y-86804500D01*
X197287675Y-87002767D01*
X200668246Y-83622196D01*
X201672409Y-83622196D01*
X201757467Y-83877539D01*
X202326965Y-84085516D01*
X202932700Y-84059723D01*
X203372533Y-83877539D01*
X203457591Y-83622196D01*
X202565000Y-82729605D01*
X201672409Y-83622196D01*
X200668246Y-83622196D01*
X201148260Y-83142182D01*
X201237461Y-83357533D01*
X201492804Y-83442591D01*
X202385395Y-82550000D01*
X202744605Y-82550000D01*
X203637196Y-83442591D01*
X203892539Y-83357533D01*
X204100516Y-82788035D01*
X204074723Y-82182300D01*
X203892539Y-81742467D01*
X203637196Y-81657409D01*
X202744605Y-82550000D01*
X202385395Y-82550000D01*
X202371253Y-82535858D01*
X202550858Y-82356253D01*
X202565000Y-82370395D01*
X203457591Y-81477804D01*
X203433339Y-81405000D01*
X207904738Y-81405000D01*
X207623015Y-81686723D01*
X207391000Y-82246858D01*
X207391000Y-82853142D01*
X207623015Y-83413277D01*
X208051723Y-83841985D01*
X208611858Y-84074000D01*
X209218142Y-84074000D01*
X209778277Y-83841985D01*
X210206985Y-83413277D01*
X210439000Y-82853142D01*
X210439000Y-82246858D01*
X210206985Y-81686723D01*
X209778277Y-81258015D01*
X209497226Y-81141600D01*
X209505331Y-81129470D01*
X211780782Y-78854020D01*
X211812119Y-78867000D01*
X212367881Y-78867000D01*
X212881337Y-78654320D01*
X213274320Y-78261337D01*
X213487000Y-77747881D01*
X213487000Y-77192119D01*
X213274320Y-76678663D01*
X212881337Y-76285680D01*
X212674487Y-76200000D01*
X212881337Y-76114320D01*
X213274320Y-75721337D01*
X213487000Y-75207881D01*
X213487000Y-74652119D01*
X213274320Y-74138663D01*
X212881337Y-73745680D01*
X212367881Y-73533000D01*
X211812119Y-73533000D01*
X211298663Y-73745680D01*
X210905680Y-74138663D01*
X210820000Y-74345513D01*
X210734320Y-74138663D01*
X210341337Y-73745680D01*
X209827881Y-73533000D01*
X209272119Y-73533000D01*
X208758663Y-73745680D01*
X208365680Y-74138663D01*
X208280000Y-74345513D01*
X208194320Y-74138663D01*
X207801337Y-73745680D01*
X207287881Y-73533000D01*
X206732119Y-73533000D01*
X206218663Y-73745680D01*
X205825680Y-74138663D01*
X205740000Y-74345513D01*
X205654320Y-74138663D01*
X205261337Y-73745680D01*
X204747881Y-73533000D01*
X204192119Y-73533000D01*
X203678663Y-73745680D01*
X203285680Y-74138663D01*
X203272863Y-74169606D01*
X203199999Y-74155112D01*
X203125152Y-74170000D01*
X203125148Y-74170000D01*
X202903463Y-74214096D01*
X202903461Y-74214097D01*
X202903462Y-74214097D01*
X202715526Y-74339671D01*
X202715524Y-74339673D01*
X202652071Y-74382071D01*
X202609673Y-74445524D01*
X201074838Y-75980360D01*
X200965330Y-75935000D01*
X200354670Y-75935000D01*
X200245161Y-75980360D01*
X200025330Y-75760529D01*
X199982928Y-75697070D01*
X199731536Y-75529095D01*
X199509851Y-75484999D01*
X199509846Y-75484999D01*
X199434999Y-75470111D01*
X199360152Y-75484999D01*
X180699801Y-75484999D01*
X176701209Y-71486408D01*
X176774092Y-71120000D01*
X176658839Y-70540582D01*
X176330625Y-70049375D01*
X175839418Y-69721161D01*
X175406256Y-69635000D01*
X175113744Y-69635000D01*
X174680582Y-69721161D01*
X174189375Y-70049375D01*
X173990000Y-70347761D01*
X173790625Y-70049375D01*
X173673612Y-69971189D01*
X175119642Y-68525159D01*
X177485000Y-68525159D01*
X177485000Y-69314841D01*
X177787199Y-70044412D01*
X178345588Y-70602801D01*
X179075159Y-70905000D01*
X179864841Y-70905000D01*
X180594412Y-70602801D01*
X181152801Y-70044412D01*
X181285040Y-69725159D01*
X185885000Y-69725159D01*
X185885000Y-70514841D01*
X186187199Y-71244412D01*
X186745588Y-71802801D01*
X187475159Y-72105000D01*
X188264841Y-72105000D01*
X188994412Y-71802801D01*
X189552801Y-71244412D01*
X189855000Y-70514841D01*
X189855000Y-69725159D01*
X189552801Y-68995588D01*
X188994412Y-68437199D01*
X188264841Y-68135000D01*
X187475159Y-68135000D01*
X186745588Y-68437199D01*
X186187199Y-68995588D01*
X185885000Y-69725159D01*
X181285040Y-69725159D01*
X181455000Y-69314841D01*
X181455000Y-68525159D01*
X181152801Y-67795588D01*
X180594412Y-67237199D01*
X179864841Y-66935000D01*
X179075159Y-66935000D01*
X178345588Y-67237199D01*
X177787199Y-67795588D01*
X177485000Y-68525159D01*
X175119642Y-68525159D01*
X179175160Y-64469642D01*
X180410000Y-64469642D01*
X180410000Y-65070358D01*
X180639884Y-65625346D01*
X181064654Y-66050116D01*
X181619642Y-66280000D01*
X182220358Y-66280000D01*
X182775346Y-66050116D01*
X183200116Y-65625346D01*
X183430000Y-65070358D01*
X183430000Y-65055750D01*
X183910000Y-65055750D01*
X183910000Y-65771309D01*
X184006673Y-66004698D01*
X184185301Y-66183327D01*
X184418690Y-66280000D01*
X185134250Y-66280000D01*
X185293000Y-66121250D01*
X185293000Y-64897000D01*
X185547000Y-64897000D01*
X185547000Y-66121250D01*
X185705750Y-66280000D01*
X186421310Y-66280000D01*
X186654699Y-66183327D01*
X186833327Y-66004698D01*
X186930000Y-65771309D01*
X186930000Y-65055750D01*
X186771250Y-64897000D01*
X185547000Y-64897000D01*
X185293000Y-64897000D01*
X184068750Y-64897000D01*
X183910000Y-65055750D01*
X183430000Y-65055750D01*
X183430000Y-64469642D01*
X183200116Y-63914654D01*
X183054153Y-63768691D01*
X183910000Y-63768691D01*
X183910000Y-64484250D01*
X184068750Y-64643000D01*
X185293000Y-64643000D01*
X185293000Y-63418750D01*
X185547000Y-63418750D01*
X185547000Y-64643000D01*
X186771250Y-64643000D01*
X186930000Y-64484250D01*
X186930000Y-63768691D01*
X186833327Y-63535302D01*
X186654699Y-63356673D01*
X186421310Y-63260000D01*
X185705750Y-63260000D01*
X185547000Y-63418750D01*
X185293000Y-63418750D01*
X185134250Y-63260000D01*
X184418690Y-63260000D01*
X184185301Y-63356673D01*
X184006673Y-63535302D01*
X183910000Y-63768691D01*
X183054153Y-63768691D01*
X182775346Y-63489884D01*
X182220358Y-63260000D01*
X181619642Y-63260000D01*
X181064654Y-63489884D01*
X180639884Y-63914654D01*
X180410000Y-64469642D01*
X179175160Y-64469642D01*
X180654803Y-62990000D01*
X189202653Y-62990000D01*
X189277500Y-63004888D01*
X189352347Y-62990000D01*
X189352352Y-62990000D01*
X189574037Y-62945904D01*
X189825429Y-62777929D01*
X189867831Y-62714470D01*
X191162912Y-61419390D01*
X191222071Y-61507929D01*
X191285530Y-61550331D01*
X198037758Y-68302560D01*
X197220000Y-68302560D01*
X196972235Y-68351843D01*
X196762191Y-68492191D01*
X196621843Y-68702235D01*
X196572560Y-68950000D01*
X196572560Y-70750000D01*
X196621843Y-70997765D01*
X196762191Y-71207809D01*
X196972235Y-71348157D01*
X197220000Y-71397440D01*
X199020000Y-71397440D01*
X199267765Y-71348157D01*
X199477809Y-71207809D01*
X199618157Y-70997765D01*
X199621275Y-70982092D01*
X199790493Y-71151310D01*
X200354670Y-71385000D01*
X200965330Y-71385000D01*
X201529507Y-71151310D01*
X201961310Y-70719507D01*
X202195000Y-70155330D01*
X202195000Y-69544670D01*
X201961310Y-68980493D01*
X201529507Y-68548690D01*
X200965330Y-68315000D01*
X200354670Y-68315000D01*
X200245162Y-68360360D01*
X198089802Y-66205000D01*
X198405439Y-66205000D01*
X198932862Y-65986534D01*
X199336534Y-65582862D01*
X199555000Y-65055439D01*
X199555000Y-64484561D01*
X199336534Y-63957138D01*
X198932862Y-63553466D01*
X198405439Y-63335000D01*
X197834561Y-63335000D01*
X197307138Y-63553466D01*
X196903466Y-63957138D01*
X196685000Y-64484561D01*
X196685000Y-64800199D01*
X192825984Y-60941183D01*
X192914523Y-60882023D01*
X193265391Y-60356910D01*
X193357500Y-59893849D01*
X193357500Y-59486150D01*
X193265391Y-59023089D01*
X192914523Y-58497977D01*
X192389410Y-58147109D01*
X191770000Y-58023900D01*
X191150589Y-58147109D01*
X190625477Y-58497977D01*
X190500000Y-58685767D01*
X190374523Y-58497977D01*
X189849410Y-58147109D01*
X189230000Y-58023900D01*
X188610589Y-58147109D01*
X188218509Y-58409088D01*
X188100309Y-58232191D01*
X187890265Y-58091843D01*
X187642500Y-58042560D01*
X185737500Y-58042560D01*
X185489735Y-58091843D01*
X185279691Y-58232191D01*
X185139343Y-58442235D01*
X185090060Y-58690000D01*
X185090060Y-60690000D01*
X185139343Y-60937765D01*
X185279691Y-61147809D01*
X185489735Y-61288157D01*
X185737500Y-61337440D01*
X187642500Y-61337440D01*
X187890265Y-61288157D01*
X188100309Y-61147809D01*
X188218509Y-60970912D01*
X188610590Y-61232891D01*
X189102050Y-61330649D01*
X188962699Y-61470000D01*
X180414846Y-61470000D01*
X180339999Y-61455112D01*
X180265152Y-61470000D01*
X180265148Y-61470000D01*
X180043463Y-61514096D01*
X180043461Y-61514097D01*
X180043462Y-61514097D01*
X179855526Y-61639671D01*
X179855524Y-61639673D01*
X179792071Y-61682071D01*
X179749673Y-61745524D01*
X172235528Y-69259671D01*
X172172072Y-69302071D01*
X172129672Y-69365527D01*
X172129671Y-69365528D01*
X172093886Y-69419084D01*
X165860000Y-63185199D01*
X165860000Y-60110000D01*
X169952560Y-60110000D01*
X169952560Y-61810000D01*
X170001843Y-62057765D01*
X170142191Y-62267809D01*
X170352235Y-62408157D01*
X170600000Y-62457440D01*
X172300000Y-62457440D01*
X172547765Y-62408157D01*
X172757809Y-62267809D01*
X172898157Y-62057765D01*
X172907184Y-62012381D01*
X172919375Y-62030625D01*
X173410582Y-62358839D01*
X173843744Y-62445000D01*
X174136256Y-62445000D01*
X174569418Y-62358839D01*
X175060625Y-62030625D01*
X175388839Y-61539418D01*
X175504092Y-60960000D01*
X175388839Y-60380582D01*
X175060625Y-59889375D01*
X174569418Y-59561161D01*
X174136256Y-59475000D01*
X173843744Y-59475000D01*
X173410582Y-59561161D01*
X172919375Y-59889375D01*
X172907184Y-59907619D01*
X172898157Y-59862235D01*
X172757809Y-59652191D01*
X172547765Y-59511843D01*
X172300000Y-59462560D01*
X170600000Y-59462560D01*
X170352235Y-59511843D01*
X170142191Y-59652191D01*
X170001843Y-59862235D01*
X169952560Y-60110000D01*
X165860000Y-60110000D01*
X165860000Y-57150000D01*
X196656887Y-57150000D01*
X196768260Y-57709909D01*
X197085423Y-58184577D01*
X197560091Y-58501740D01*
X197978667Y-58585000D01*
X198261333Y-58585000D01*
X198679909Y-58501740D01*
X199154577Y-58184577D01*
X199471740Y-57709909D01*
X199583113Y-57150000D01*
X199471740Y-56590091D01*
X199154577Y-56115423D01*
X198679909Y-55798260D01*
X198261333Y-55715000D01*
X197978667Y-55715000D01*
X197560091Y-55798260D01*
X197085423Y-56115423D01*
X196768260Y-56590091D01*
X196656887Y-57150000D01*
X165860000Y-57150000D01*
X165860000Y-54787440D01*
X165900000Y-54787440D01*
X166147765Y-54738157D01*
X166339564Y-54610000D01*
X168665908Y-54610000D01*
X168781161Y-55189418D01*
X169109375Y-55680625D01*
X169600582Y-56008839D01*
X170033744Y-56095000D01*
X170326256Y-56095000D01*
X170759418Y-56008839D01*
X171250625Y-55680625D01*
X171450000Y-55382239D01*
X171649375Y-55680625D01*
X172140582Y-56008839D01*
X172573744Y-56095000D01*
X172866256Y-56095000D01*
X173299418Y-56008839D01*
X173790625Y-55680625D01*
X173802816Y-55662381D01*
X173811843Y-55707765D01*
X173952191Y-55917809D01*
X174162235Y-56058157D01*
X174410000Y-56107440D01*
X176110000Y-56107440D01*
X176357765Y-56058157D01*
X176567809Y-55917809D01*
X176708157Y-55707765D01*
X176757440Y-55460000D01*
X176757440Y-53760000D01*
X176708157Y-53512235D01*
X176567809Y-53302191D01*
X176357765Y-53161843D01*
X176110000Y-53112560D01*
X174410000Y-53112560D01*
X174162235Y-53161843D01*
X173952191Y-53302191D01*
X173811843Y-53512235D01*
X173802816Y-53557619D01*
X173790625Y-53539375D01*
X173299418Y-53211161D01*
X172866256Y-53125000D01*
X172573744Y-53125000D01*
X172140582Y-53211161D01*
X171649375Y-53539375D01*
X171450000Y-53837761D01*
X171250625Y-53539375D01*
X170759418Y-53211161D01*
X170326256Y-53125000D01*
X170033744Y-53125000D01*
X169600582Y-53211161D01*
X169109375Y-53539375D01*
X168781161Y-54030582D01*
X168665908Y-54610000D01*
X166339564Y-54610000D01*
X166357809Y-54597809D01*
X166498157Y-54387765D01*
X166547440Y-54140000D01*
X166547440Y-52540000D01*
X166498157Y-52292235D01*
X166357809Y-52082191D01*
X166147765Y-51941843D01*
X165900000Y-51892560D01*
X164300000Y-51892560D01*
X164052235Y-51941843D01*
X163842191Y-52082191D01*
X163835910Y-52091591D01*
X163385439Y-51905000D01*
X162814561Y-51905000D01*
X162287138Y-52123466D01*
X161883466Y-52527138D01*
X161665000Y-53054561D01*
X161665000Y-53625439D01*
X161883466Y-54152862D01*
X162287138Y-54556534D01*
X162814561Y-54775000D01*
X163385439Y-54775000D01*
X163835910Y-54588409D01*
X163842191Y-54597809D01*
X164052235Y-54738157D01*
X164300000Y-54787440D01*
X164340000Y-54787440D01*
X164340001Y-63425148D01*
X164325112Y-63500000D01*
X164340001Y-63574852D01*
X164384097Y-63796537D01*
X164552072Y-64047929D01*
X164615528Y-64090329D01*
X170147758Y-69622560D01*
X169330000Y-69622560D01*
X169082235Y-69671843D01*
X168872191Y-69812191D01*
X168731843Y-70022235D01*
X168682560Y-70270000D01*
X168682560Y-71970000D01*
X168731843Y-72217765D01*
X168872191Y-72427809D01*
X169082235Y-72568157D01*
X169330000Y-72617440D01*
X171030000Y-72617440D01*
X171277765Y-72568157D01*
X171487809Y-72427809D01*
X171628157Y-72217765D01*
X171637184Y-72172381D01*
X171649375Y-72190625D01*
X171960287Y-72398370D01*
X172004097Y-72618618D01*
X172172072Y-72870010D01*
X172235528Y-72912410D01*
X173374999Y-74051882D01*
X173374999Y-74911797D01*
X173279909Y-74848260D01*
X172861333Y-74765000D01*
X172578667Y-74765000D01*
X172160091Y-74848260D01*
X171685423Y-75165423D01*
X171368260Y-75640091D01*
X171256887Y-76200000D01*
X171368260Y-76759909D01*
X171685423Y-77234577D01*
X172160091Y-77551740D01*
X172578667Y-77635000D01*
X172861333Y-77635000D01*
X173279909Y-77551740D01*
X173374999Y-77488203D01*
X173374999Y-82538077D01*
X173005439Y-82385000D01*
X172434561Y-82385000D01*
X171907138Y-82603466D01*
X171503466Y-83007138D01*
X171285000Y-83534561D01*
X171285000Y-84105439D01*
X171503466Y-84632862D01*
X171907138Y-85036534D01*
X172434561Y-85255000D01*
X173005439Y-85255000D01*
X173375000Y-85101923D01*
X173375000Y-92780147D01*
X173360111Y-92854999D01*
X173419096Y-93151536D01*
X173490186Y-93257929D01*
X173587071Y-93402928D01*
X173650527Y-93445328D01*
X173846897Y-93641698D01*
X173825000Y-93694561D01*
X173825000Y-94265439D01*
X174043466Y-94792862D01*
X174447138Y-95196534D01*
X174974561Y-95415000D01*
X175545439Y-95415000D01*
X176072862Y-95196534D01*
X176476534Y-94792862D01*
X176695000Y-94265439D01*
X176695000Y-93694561D01*
X176476534Y-93167138D01*
X176072862Y-92763466D01*
X175545439Y-92545000D01*
X174974561Y-92545000D01*
X174921698Y-92566897D01*
X174894999Y-92540198D01*
X174894999Y-87870510D01*
X175118667Y-87915000D01*
X175401333Y-87915000D01*
X175819909Y-87831740D01*
X176294577Y-87514577D01*
X176611740Y-87039909D01*
X176723113Y-86480000D01*
X176611740Y-85920091D01*
X176294577Y-85445423D01*
X175819909Y-85128260D01*
X175401333Y-85045000D01*
X175118667Y-85045000D01*
X174894999Y-85089490D01*
X174894999Y-76200000D01*
X175066887Y-76200000D01*
X175178260Y-76759909D01*
X175495423Y-77234577D01*
X175970091Y-77551740D01*
X176388667Y-77635000D01*
X176671333Y-77635000D01*
X177089909Y-77551740D01*
X177564577Y-77234577D01*
X177881740Y-76759909D01*
X177993113Y-76200000D01*
X177881740Y-75640091D01*
X177564577Y-75165423D01*
X177089909Y-74848260D01*
X176671333Y-74765000D01*
X176388667Y-74765000D01*
X175970091Y-74848260D01*
X175495423Y-75165423D01*
X175178260Y-75640091D01*
X175066887Y-76200000D01*
X174894999Y-76200000D01*
X174894999Y-73811928D01*
X174909887Y-73737080D01*
X174894999Y-73662232D01*
X174894999Y-73662228D01*
X174850903Y-73440543D01*
X174850903Y-73440542D01*
X174725328Y-73252607D01*
X174682928Y-73189151D01*
X174619472Y-73146751D01*
X173714326Y-72241606D01*
X173790625Y-72190625D01*
X173990000Y-71892239D01*
X174189375Y-72190625D01*
X174680582Y-72518839D01*
X175113744Y-72605000D01*
X175406256Y-72605000D01*
X175626408Y-72561209D01*
X179794669Y-76729471D01*
X179837070Y-76792928D01*
X180088462Y-76960903D01*
X180310147Y-77004999D01*
X180310152Y-77004999D01*
X180384999Y-77019887D01*
X180459846Y-77004999D01*
X182270199Y-77004999D01*
X176868302Y-82406897D01*
X176815439Y-82385000D01*
X176244561Y-82385000D01*
X175717138Y-82603466D01*
X175313466Y-83007138D01*
X175095000Y-83534561D01*
X175095000Y-84105439D01*
X175313466Y-84632862D01*
X175717138Y-85036534D01*
X176244561Y-85255000D01*
X176815439Y-85255000D01*
X177342862Y-85036534D01*
X177746534Y-84632862D01*
X177965000Y-84105439D01*
X177965000Y-83534561D01*
X177943103Y-83481698D01*
X183194802Y-78230000D01*
X196572560Y-78230000D01*
X196572560Y-78370000D01*
X196621843Y-78617765D01*
X196762191Y-78827809D01*
X196972235Y-78968157D01*
X197220000Y-79017440D01*
X199020000Y-79017440D01*
X199267765Y-78968157D01*
X199477809Y-78827809D01*
X199618157Y-78617765D01*
X199621275Y-78602092D01*
X199790493Y-78771310D01*
X200354670Y-79005000D01*
X200590198Y-79005000D01*
X186840532Y-92754667D01*
X186840526Y-92754671D01*
X172235529Y-107359669D01*
X172235527Y-107359671D01*
X171472964Y-108122235D01*
X171135199Y-108460000D01*
X164556668Y-108460000D01*
X164658113Y-107950000D01*
X164546740Y-107390091D01*
X164229577Y-106915423D01*
X163877242Y-106680000D01*
X164229577Y-106444577D01*
X164546740Y-105969909D01*
X164658113Y-105410000D01*
X164547717Y-104855001D01*
X172598154Y-104855001D01*
X172673001Y-104869889D01*
X172747848Y-104855001D01*
X172747853Y-104855001D01*
X172969538Y-104810905D01*
X173220930Y-104642930D01*
X173263332Y-104579471D01*
X190349473Y-87493331D01*
X190412929Y-87450931D01*
X190580904Y-87199539D01*
X190625000Y-86977854D01*
X190625000Y-86977850D01*
X190639888Y-86903003D01*
X190625000Y-86828156D01*
X190625000Y-81348711D01*
X190742431Y-81231280D01*
X190900000Y-80850874D01*
X190900000Y-80439126D01*
X190742431Y-80058720D01*
X190451280Y-79767569D01*
X190070874Y-79610000D01*
X189659126Y-79610000D01*
X189278720Y-79767569D01*
X188987569Y-80058720D01*
X188830000Y-80439126D01*
X188830000Y-80850874D01*
X188987569Y-81231280D01*
X189105001Y-81348712D01*
X189105000Y-86588200D01*
X173476052Y-102217149D01*
X173386310Y-102000493D01*
X172954507Y-101568690D01*
X172390330Y-101335000D01*
X171779670Y-101335000D01*
X171670161Y-101380360D01*
X171450330Y-101160529D01*
X171407928Y-101097070D01*
X171156536Y-100929095D01*
X170934851Y-100884999D01*
X170934846Y-100884999D01*
X170859999Y-100870111D01*
X170785152Y-100884999D01*
X169904801Y-100884999D01*
X168865242Y-99845440D01*
X170445000Y-99845440D01*
X170692765Y-99796157D01*
X170902809Y-99655809D01*
X171043157Y-99445765D01*
X171046275Y-99430092D01*
X171215493Y-99599310D01*
X171779670Y-99833000D01*
X172390330Y-99833000D01*
X172954507Y-99599310D01*
X173386310Y-99167507D01*
X173620000Y-98603330D01*
X173620000Y-97992670D01*
X173386310Y-97428493D01*
X172954507Y-96996690D01*
X172390330Y-96763000D01*
X171779670Y-96763000D01*
X171580359Y-96845557D01*
X170149801Y-95415000D01*
X170465439Y-95415000D01*
X170992862Y-95196534D01*
X171396534Y-94792862D01*
X171615000Y-94265439D01*
X171615000Y-93694561D01*
X171396534Y-93167138D01*
X170992862Y-92763466D01*
X170465439Y-92545000D01*
X169894561Y-92545000D01*
X169367138Y-92763466D01*
X168963466Y-93167138D01*
X168745000Y-93694561D01*
X168745000Y-94010199D01*
X168375330Y-93640529D01*
X168332928Y-93577070D01*
X168081536Y-93409095D01*
X167859851Y-93364999D01*
X167859846Y-93364999D01*
X167784999Y-93350111D01*
X167710152Y-93364999D01*
X167658203Y-93364999D01*
X167721740Y-93269909D01*
X167833113Y-92710000D01*
X167721740Y-92150091D01*
X167404577Y-91675423D01*
X167130000Y-91491957D01*
X167130000Y-88333711D01*
X167247431Y-88216280D01*
X167405000Y-87835874D01*
X167405000Y-87424126D01*
X167247431Y-87043720D01*
X166956280Y-86752569D01*
X166575874Y-86595000D01*
X166164126Y-86595000D01*
X165783720Y-86752569D01*
X165492569Y-87043720D01*
X165335000Y-87424126D01*
X165335000Y-87835874D01*
X165492569Y-88216280D01*
X165610001Y-88333712D01*
X165610000Y-91491956D01*
X165335423Y-91675423D01*
X165018260Y-92150091D01*
X164906887Y-92710000D01*
X165018260Y-93269909D01*
X165081797Y-93364999D01*
X164483203Y-93364999D01*
X164546740Y-93269909D01*
X164658113Y-92710000D01*
X164546740Y-92150091D01*
X164229577Y-91675423D01*
X163877242Y-91440000D01*
X164229577Y-91204577D01*
X164546740Y-90729909D01*
X164658113Y-90170000D01*
X164546740Y-89610091D01*
X164229577Y-89135423D01*
X163754909Y-88818260D01*
X163336333Y-88735000D01*
X163303431Y-88735000D01*
X167232018Y-84806414D01*
X167462138Y-85036534D01*
X167989561Y-85255000D01*
X168560439Y-85255000D01*
X168613302Y-85233103D01*
X169017328Y-85637130D01*
X168828260Y-85920091D01*
X168716887Y-86480000D01*
X168828260Y-87039909D01*
X169145423Y-87514577D01*
X169620091Y-87831740D01*
X170038667Y-87915000D01*
X170321333Y-87915000D01*
X170739909Y-87831740D01*
X171214577Y-87514577D01*
X171531740Y-87039909D01*
X171643113Y-86480000D01*
X171531740Y-85920091D01*
X171214577Y-85445423D01*
X170739909Y-85128260D01*
X170637739Y-85107937D01*
X169688103Y-84158302D01*
X169710000Y-84105439D01*
X169710000Y-83534561D01*
X169491534Y-83007138D01*
X169087862Y-82603466D01*
X168560439Y-82385000D01*
X167989561Y-82385000D01*
X167462138Y-82603466D01*
X167058466Y-83007138D01*
X167033678Y-83066982D01*
X166847093Y-83104096D01*
X166595701Y-83272071D01*
X166553301Y-83335527D01*
X160478829Y-89410000D01*
X157022440Y-89410000D01*
X157022440Y-89370000D01*
X156973157Y-89122235D01*
X156832809Y-88912191D01*
X156622765Y-88771843D01*
X156375000Y-88722560D01*
X154775000Y-88722560D01*
X154527235Y-88771843D01*
X154317191Y-88912191D01*
X154176843Y-89122235D01*
X154127560Y-89370000D01*
X154127560Y-90970000D01*
X154176843Y-91217765D01*
X154317191Y-91427809D01*
X154527235Y-91568157D01*
X154661106Y-91594785D01*
X154540423Y-91675423D01*
X154223260Y-92150091D01*
X154111887Y-92710000D01*
X154223260Y-93269909D01*
X154286797Y-93364999D01*
X151059847Y-93364999D01*
X150985000Y-93350111D01*
X150910153Y-93364999D01*
X150910149Y-93364999D01*
X150688464Y-93409095D01*
X150437072Y-93577070D01*
X150394673Y-93640525D01*
X140106420Y-103928779D01*
X140003142Y-103886000D01*
X139396858Y-103886000D01*
X139131379Y-103995965D01*
X139089905Y-103787464D01*
X138921930Y-103536072D01*
X138858474Y-103493672D01*
X131021221Y-95656420D01*
X131064000Y-95553142D01*
X131064000Y-94946858D01*
X130831985Y-94386723D01*
X130403277Y-93958015D01*
X130377570Y-93947367D01*
X130432591Y-93782196D01*
X129540000Y-92889605D01*
X128647409Y-93782196D01*
X128702430Y-93947367D01*
X128676723Y-93958015D01*
X128248015Y-94386723D01*
X128016000Y-94946858D01*
X127762000Y-94946858D01*
X127762000Y-92471965D01*
X128004484Y-92471965D01*
X128030277Y-93077700D01*
X128212461Y-93517533D01*
X128467804Y-93602591D01*
X129360395Y-92710000D01*
X129719605Y-92710000D01*
X130612196Y-93602591D01*
X130867539Y-93517533D01*
X131075516Y-92948035D01*
X131049723Y-92342300D01*
X130867539Y-91902467D01*
X130612196Y-91817409D01*
X129719605Y-92710000D01*
X129360395Y-92710000D01*
X128467804Y-91817409D01*
X128212461Y-91902467D01*
X128004484Y-92471965D01*
X127762000Y-92471965D01*
X127762000Y-91637804D01*
X128647409Y-91637804D01*
X129540000Y-92530395D01*
X130432591Y-91637804D01*
X130347533Y-91382461D01*
X129778035Y-91174484D01*
X129172300Y-91200277D01*
X128732467Y-91382461D01*
X128647409Y-91637804D01*
X127762000Y-91637804D01*
X127762000Y-88228834D01*
X130302000Y-88228834D01*
X130302000Y-88936166D01*
X130572684Y-89589656D01*
X131072844Y-90089816D01*
X131726334Y-90360500D01*
X132433666Y-90360500D01*
X133087156Y-90089816D01*
X133587316Y-89589656D01*
X133858000Y-88936166D01*
X133858000Y-88228834D01*
X133587316Y-87575344D01*
X133338830Y-87326858D01*
X135001000Y-87326858D01*
X135001000Y-87933142D01*
X135233015Y-88493277D01*
X135661723Y-88921985D01*
X136221858Y-89154000D01*
X136828142Y-89154000D01*
X137388277Y-88921985D01*
X137816985Y-88493277D01*
X138049000Y-87933142D01*
X138049000Y-87326858D01*
X138006221Y-87223581D01*
X138053803Y-87175999D01*
X141413488Y-87175999D01*
X141351000Y-87326858D01*
X141351000Y-87933142D01*
X141583015Y-88493277D01*
X142011723Y-88921985D01*
X142571858Y-89154000D01*
X143178142Y-89154000D01*
X143738277Y-88921985D01*
X144166985Y-88493277D01*
X144276520Y-88228834D01*
X145542000Y-88228834D01*
X145542000Y-88936166D01*
X145812684Y-89589656D01*
X146312844Y-90089816D01*
X146966334Y-90360500D01*
X147673666Y-90360500D01*
X148327156Y-90089816D01*
X148827316Y-89589656D01*
X149098000Y-88936166D01*
X149098000Y-88228834D01*
X148827316Y-87575344D01*
X148327156Y-87075184D01*
X147673666Y-86804500D01*
X146966334Y-86804500D01*
X146312844Y-87075184D01*
X145812684Y-87575344D01*
X145542000Y-88228834D01*
X144276520Y-88228834D01*
X144399000Y-87933142D01*
X144399000Y-87326858D01*
X144166985Y-86766723D01*
X143738277Y-86338015D01*
X143178142Y-86106000D01*
X142933801Y-86106000D01*
X147616698Y-81423104D01*
X147669561Y-81445000D01*
X148240439Y-81445000D01*
X148767862Y-81226534D01*
X149171534Y-80822862D01*
X149390000Y-80295439D01*
X149390000Y-80010000D01*
X154111887Y-80010000D01*
X154223260Y-80569909D01*
X154540423Y-81044577D01*
X155015091Y-81361740D01*
X155433667Y-81445000D01*
X155716333Y-81445000D01*
X156134909Y-81361740D01*
X156609577Y-81044577D01*
X156926740Y-80569909D01*
X157038113Y-80010000D01*
X156926740Y-79450091D01*
X156609577Y-78975423D01*
X156134909Y-78658260D01*
X155716333Y-78575000D01*
X155433667Y-78575000D01*
X155015091Y-78658260D01*
X154540423Y-78975423D01*
X154223260Y-79450091D01*
X154111887Y-80010000D01*
X149390000Y-80010000D01*
X149390000Y-79724561D01*
X149171534Y-79197138D01*
X148767862Y-78793466D01*
X148240439Y-78575000D01*
X147669561Y-78575000D01*
X147142138Y-78793466D01*
X146738466Y-79197138D01*
X146520000Y-79724561D01*
X146520000Y-80295439D01*
X146541896Y-80348302D01*
X144399000Y-82491198D01*
X144399000Y-82246858D01*
X144166985Y-81686723D01*
X143738277Y-81258015D01*
X143178142Y-81026000D01*
X142571858Y-81026000D01*
X142011723Y-81258015D01*
X141583015Y-81686723D01*
X141351000Y-82246858D01*
X141351000Y-82853142D01*
X141583015Y-83413277D01*
X142011723Y-83841985D01*
X142571858Y-84074000D01*
X142816199Y-84074000D01*
X141234200Y-85655999D01*
X137813849Y-85655999D01*
X137739001Y-85641111D01*
X137664153Y-85655999D01*
X137664149Y-85655999D01*
X137490606Y-85690519D01*
X137442463Y-85700095D01*
X137255419Y-85825075D01*
X137191072Y-85868070D01*
X137148672Y-85931526D01*
X136931419Y-86148779D01*
X136828142Y-86106000D01*
X136221858Y-86106000D01*
X135661723Y-86338015D01*
X135233015Y-86766723D01*
X135001000Y-87326858D01*
X133338830Y-87326858D01*
X133087156Y-87075184D01*
X132433666Y-86804500D01*
X131726334Y-86804500D01*
X131072844Y-87075184D01*
X130572684Y-87575344D01*
X130302000Y-88228834D01*
X127762000Y-88228834D01*
X127762000Y-83622196D01*
X135632409Y-83622196D01*
X135717467Y-83877539D01*
X136286965Y-84085516D01*
X136892700Y-84059723D01*
X137332533Y-83877539D01*
X137417591Y-83622196D01*
X136525000Y-82729605D01*
X135632409Y-83622196D01*
X127762000Y-83622196D01*
X127762000Y-82311965D01*
X134989484Y-82311965D01*
X135015277Y-82917700D01*
X135197461Y-83357533D01*
X135452804Y-83442591D01*
X136345395Y-82550000D01*
X136704605Y-82550000D01*
X137597196Y-83442591D01*
X137852539Y-83357533D01*
X138060516Y-82788035D01*
X138034723Y-82182300D01*
X137852539Y-81742467D01*
X137597196Y-81657409D01*
X136704605Y-82550000D01*
X136345395Y-82550000D01*
X135452804Y-81657409D01*
X135197461Y-81742467D01*
X134989484Y-82311965D01*
X127762000Y-82311965D01*
X127762000Y-81477804D01*
X135632409Y-81477804D01*
X136525000Y-82370395D01*
X137417591Y-81477804D01*
X137332533Y-81222461D01*
X136763035Y-81014484D01*
X136157300Y-81040277D01*
X135717467Y-81222461D01*
X135632409Y-81477804D01*
X127762000Y-81477804D01*
X127762000Y-78622532D01*
X129837073Y-78622532D01*
X129935736Y-78889387D01*
X130545461Y-79115908D01*
X131195460Y-79091856D01*
X131684264Y-78889387D01*
X131782927Y-78622532D01*
X130810000Y-77649605D01*
X129837073Y-78622532D01*
X127762000Y-78622532D01*
X127762000Y-77205461D01*
X129164092Y-77205461D01*
X129188144Y-77855460D01*
X129390613Y-78344264D01*
X129657468Y-78442927D01*
X130630395Y-77470000D01*
X130989605Y-77470000D01*
X131962532Y-78442927D01*
X132229387Y-78344264D01*
X132455908Y-77734539D01*
X132434085Y-77144778D01*
X133675000Y-77144778D01*
X133675000Y-77795222D01*
X133923914Y-78396153D01*
X134383847Y-78856086D01*
X134984778Y-79105000D01*
X135635222Y-79105000D01*
X136236153Y-78856086D01*
X136696086Y-78396153D01*
X136945000Y-77795222D01*
X136945000Y-77144778D01*
X136698238Y-76549041D01*
X166883086Y-76549041D01*
X167122611Y-77055134D01*
X167537577Y-77431041D01*
X167925961Y-77591904D01*
X168148000Y-77469915D01*
X168148000Y-76327000D01*
X168402000Y-76327000D01*
X168402000Y-77469915D01*
X168624039Y-77591904D01*
X169012423Y-77431041D01*
X169427389Y-77055134D01*
X169666914Y-76549041D01*
X169545629Y-76327000D01*
X168402000Y-76327000D01*
X168148000Y-76327000D01*
X167004371Y-76327000D01*
X166883086Y-76549041D01*
X136698238Y-76549041D01*
X136696086Y-76543847D01*
X136236153Y-76083914D01*
X135635222Y-75835000D01*
X134984778Y-75835000D01*
X134383847Y-76083914D01*
X133923914Y-76543847D01*
X133675000Y-77144778D01*
X132434085Y-77144778D01*
X132431856Y-77084540D01*
X132229387Y-76595736D01*
X131962532Y-76497073D01*
X130989605Y-77470000D01*
X130630395Y-77470000D01*
X129657468Y-76497073D01*
X129390613Y-76595736D01*
X129164092Y-77205461D01*
X127762000Y-77205461D01*
X127762000Y-76317468D01*
X129837073Y-76317468D01*
X130810000Y-77290395D01*
X131782927Y-76317468D01*
X131684264Y-76050613D01*
X131074539Y-75824092D01*
X130424540Y-75848144D01*
X129935736Y-76050613D01*
X129837073Y-76317468D01*
X127762000Y-76317468D01*
X127762000Y-74624670D01*
X143325000Y-74624670D01*
X143325000Y-75235330D01*
X143558690Y-75799507D01*
X143990493Y-76231310D01*
X144554670Y-76465000D01*
X145165330Y-76465000D01*
X145729507Y-76231310D01*
X146110000Y-75850817D01*
X146490493Y-76231310D01*
X147054670Y-76465000D01*
X147665330Y-76465000D01*
X148229507Y-76231310D01*
X148450658Y-76010159D01*
X148959446Y-76010159D01*
X149045852Y-76266643D01*
X149619336Y-76476458D01*
X150229460Y-76450839D01*
X150674148Y-76266643D01*
X150760554Y-76010159D01*
X150601354Y-75850959D01*
X166883086Y-75850959D01*
X167004371Y-76073000D01*
X168148000Y-76073000D01*
X168148000Y-74930085D01*
X168402000Y-74930085D01*
X168402000Y-76073000D01*
X169545629Y-76073000D01*
X169666914Y-75850959D01*
X169427389Y-75344866D01*
X169012423Y-74968959D01*
X168624039Y-74808096D01*
X168402000Y-74930085D01*
X168148000Y-74930085D01*
X167925961Y-74808096D01*
X167537577Y-74968959D01*
X167122611Y-75344866D01*
X166883086Y-75850959D01*
X150601354Y-75850959D01*
X149860000Y-75109605D01*
X148959446Y-76010159D01*
X148450658Y-76010159D01*
X148661310Y-75799507D01*
X148664539Y-75791710D01*
X148779841Y-75830554D01*
X149680395Y-74930000D01*
X150039605Y-74930000D01*
X150940159Y-75830554D01*
X151196643Y-75744148D01*
X151406458Y-75170664D01*
X151380839Y-74560540D01*
X151196643Y-74115852D01*
X150940159Y-74029446D01*
X150039605Y-74930000D01*
X149680395Y-74930000D01*
X148779841Y-74029446D01*
X148664539Y-74068290D01*
X148661310Y-74060493D01*
X148450658Y-73849841D01*
X148959446Y-73849841D01*
X149860000Y-74750395D01*
X150760554Y-73849841D01*
X150674148Y-73593357D01*
X150139485Y-73397745D01*
X156651861Y-73397745D01*
X156725995Y-73643864D01*
X157263223Y-73836965D01*
X157833454Y-73809778D01*
X158234005Y-73643864D01*
X158308139Y-73397745D01*
X157480000Y-72569605D01*
X156651861Y-73397745D01*
X150139485Y-73397745D01*
X150100664Y-73383542D01*
X149490540Y-73409161D01*
X149045852Y-73593357D01*
X148959446Y-73849841D01*
X148450658Y-73849841D01*
X148229507Y-73628690D01*
X147665330Y-73395000D01*
X147054670Y-73395000D01*
X146490493Y-73628690D01*
X146110000Y-74009183D01*
X145729507Y-73628690D01*
X145165330Y-73395000D01*
X144554670Y-73395000D01*
X143990493Y-73628690D01*
X143558690Y-74060493D01*
X143325000Y-74624670D01*
X127762000Y-74624670D01*
X127762000Y-72122532D01*
X129837073Y-72122532D01*
X129935736Y-72389387D01*
X130545461Y-72615908D01*
X131195460Y-72591856D01*
X131684264Y-72389387D01*
X131782927Y-72122532D01*
X130810000Y-71149605D01*
X129837073Y-72122532D01*
X127762000Y-72122532D01*
X127762000Y-70705461D01*
X129164092Y-70705461D01*
X129188144Y-71355460D01*
X129390613Y-71844264D01*
X129657468Y-71942927D01*
X130630395Y-70970000D01*
X130989605Y-70970000D01*
X131962532Y-71942927D01*
X132229387Y-71844264D01*
X132455908Y-71234539D01*
X132434085Y-70644778D01*
X133675000Y-70644778D01*
X133675000Y-71295222D01*
X133923914Y-71896153D01*
X134383847Y-72356086D01*
X134984778Y-72605000D01*
X135635222Y-72605000D01*
X136236153Y-72356086D01*
X136419016Y-72173223D01*
X156033035Y-72173223D01*
X156060222Y-72743454D01*
X156226136Y-73144005D01*
X156472255Y-73218139D01*
X157300395Y-72390000D01*
X157659605Y-72390000D01*
X158487745Y-73218139D01*
X158733864Y-73144005D01*
X158926965Y-72606777D01*
X158899778Y-72036546D01*
X158733864Y-71635995D01*
X158487745Y-71561861D01*
X157659605Y-72390000D01*
X157300395Y-72390000D01*
X156472255Y-71561861D01*
X156226136Y-71635995D01*
X156033035Y-72173223D01*
X136419016Y-72173223D01*
X136696086Y-71896153D01*
X136908949Y-71382255D01*
X156651861Y-71382255D01*
X157480000Y-72210395D01*
X158308139Y-71382255D01*
X158234005Y-71136136D01*
X157696777Y-70943035D01*
X157126546Y-70970222D01*
X156725995Y-71136136D01*
X156651861Y-71382255D01*
X136908949Y-71382255D01*
X136945000Y-71295222D01*
X136945000Y-70644778D01*
X136696086Y-70043847D01*
X136236153Y-69583914D01*
X135635222Y-69335000D01*
X134984778Y-69335000D01*
X134383847Y-69583914D01*
X133923914Y-70043847D01*
X133675000Y-70644778D01*
X132434085Y-70644778D01*
X132431856Y-70584540D01*
X132229387Y-70095736D01*
X131962532Y-69997073D01*
X130989605Y-70970000D01*
X130630395Y-70970000D01*
X129657468Y-69997073D01*
X129390613Y-70095736D01*
X129164092Y-70705461D01*
X127762000Y-70705461D01*
X127762000Y-69817468D01*
X129837073Y-69817468D01*
X130810000Y-70790395D01*
X131782927Y-69817468D01*
X131684264Y-69550613D01*
X131074539Y-69324092D01*
X130424540Y-69348144D01*
X129935736Y-69550613D01*
X129837073Y-69817468D01*
X127762000Y-69817468D01*
X127762000Y-65140000D01*
X129262560Y-65140000D01*
X129262560Y-66940000D01*
X129311843Y-67187765D01*
X129452191Y-67397809D01*
X129662235Y-67538157D01*
X129910000Y-67587440D01*
X131710000Y-67587440D01*
X131957765Y-67538157D01*
X132167809Y-67397809D01*
X132300058Y-67199886D01*
X132334890Y-67234718D01*
X132449447Y-67120161D01*
X132535852Y-67376643D01*
X133109336Y-67586458D01*
X133719460Y-67560839D01*
X134164148Y-67376643D01*
X134250553Y-67120161D01*
X134365110Y-67234718D01*
X134399942Y-67199886D01*
X134532191Y-67397809D01*
X134742235Y-67538157D01*
X134990000Y-67587440D01*
X136790000Y-67587440D01*
X137037765Y-67538157D01*
X137247809Y-67397809D01*
X137388157Y-67187765D01*
X137391275Y-67172092D01*
X137560493Y-67341310D01*
X138124670Y-67575000D01*
X138735330Y-67575000D01*
X139143655Y-67405866D01*
X140325000Y-67405866D01*
X140325000Y-68454134D01*
X140726155Y-69422608D01*
X141467392Y-70163845D01*
X142435866Y-70565000D01*
X143484134Y-70565000D01*
X144452608Y-70163845D01*
X145193845Y-69422608D01*
X145595000Y-68454134D01*
X145595000Y-67405866D01*
X149125000Y-67405866D01*
X149125000Y-68454134D01*
X149526155Y-69422608D01*
X150267392Y-70163845D01*
X151235866Y-70565000D01*
X152284134Y-70565000D01*
X153252608Y-70163845D01*
X153993845Y-69422608D01*
X154395000Y-68454134D01*
X154395000Y-67405866D01*
X154237059Y-67024561D01*
X161665000Y-67024561D01*
X161665000Y-67595439D01*
X161883466Y-68122862D01*
X162287138Y-68526534D01*
X162814561Y-68745000D01*
X163385439Y-68745000D01*
X163846144Y-68554170D01*
X163940302Y-68648327D01*
X164173691Y-68745000D01*
X164814250Y-68745000D01*
X164973000Y-68586250D01*
X164973000Y-67437000D01*
X165227000Y-67437000D01*
X165227000Y-68586250D01*
X165385750Y-68745000D01*
X166026309Y-68745000D01*
X166259698Y-68648327D01*
X166438327Y-68469699D01*
X166535000Y-68236310D01*
X166535000Y-67595750D01*
X166376250Y-67437000D01*
X165227000Y-67437000D01*
X164973000Y-67437000D01*
X164953000Y-67437000D01*
X164953000Y-67183000D01*
X164973000Y-67183000D01*
X164973000Y-66033750D01*
X165227000Y-66033750D01*
X165227000Y-67183000D01*
X166376250Y-67183000D01*
X166535000Y-67024250D01*
X166535000Y-66383690D01*
X166438327Y-66150301D01*
X166259698Y-65971673D01*
X166026309Y-65875000D01*
X165385750Y-65875000D01*
X165227000Y-66033750D01*
X164973000Y-66033750D01*
X164814250Y-65875000D01*
X164173691Y-65875000D01*
X163940302Y-65971673D01*
X163846144Y-66065830D01*
X163385439Y-65875000D01*
X162814561Y-65875000D01*
X162287138Y-66093466D01*
X161883466Y-66497138D01*
X161665000Y-67024561D01*
X154237059Y-67024561D01*
X153993845Y-66437392D01*
X153252608Y-65696155D01*
X152284134Y-65295000D01*
X151235866Y-65295000D01*
X150267392Y-65696155D01*
X149526155Y-66437392D01*
X149125000Y-67405866D01*
X145595000Y-67405866D01*
X145193845Y-66437392D01*
X144452608Y-65696155D01*
X143484134Y-65295000D01*
X142435866Y-65295000D01*
X141467392Y-65696155D01*
X140726155Y-66437392D01*
X140325000Y-67405866D01*
X139143655Y-67405866D01*
X139299507Y-67341310D01*
X139731310Y-66909507D01*
X139965000Y-66345330D01*
X139965000Y-65734670D01*
X139731310Y-65170493D01*
X139450817Y-64890000D01*
X156016887Y-64890000D01*
X156128260Y-65449909D01*
X156445423Y-65924577D01*
X156920091Y-66241740D01*
X157338667Y-66325000D01*
X157621333Y-66325000D01*
X158039909Y-66241740D01*
X158514577Y-65924577D01*
X158831740Y-65449909D01*
X158943113Y-64890000D01*
X158831740Y-64330091D01*
X158514577Y-63855423D01*
X158039909Y-63538260D01*
X157621333Y-63455000D01*
X157338667Y-63455000D01*
X156920091Y-63538260D01*
X156445423Y-63855423D01*
X156128260Y-64330091D01*
X156016887Y-64890000D01*
X139450817Y-64890000D01*
X139299507Y-64738690D01*
X138735330Y-64505000D01*
X138124670Y-64505000D01*
X137560493Y-64738690D01*
X137391275Y-64907908D01*
X137388157Y-64892235D01*
X137247809Y-64682191D01*
X137037765Y-64541843D01*
X136790000Y-64492560D01*
X136650000Y-64492560D01*
X136650000Y-60928430D01*
X136702862Y-60906534D01*
X137106534Y-60502862D01*
X137325000Y-59975439D01*
X137325000Y-59404561D01*
X137106534Y-58877138D01*
X136919396Y-58690000D01*
X152070060Y-58690000D01*
X152070060Y-60690000D01*
X152119343Y-60937765D01*
X152259691Y-61147809D01*
X152469735Y-61288157D01*
X152717500Y-61337440D01*
X154622500Y-61337440D01*
X154870265Y-61288157D01*
X155080309Y-61147809D01*
X155198509Y-60970912D01*
X155590590Y-61232891D01*
X156210000Y-61356100D01*
X156829411Y-61232891D01*
X157354523Y-60882023D01*
X157489159Y-60680526D01*
X157883076Y-61065973D01*
X158377020Y-61280563D01*
X158623000Y-61160594D01*
X158623000Y-59817000D01*
X158877000Y-59817000D01*
X158877000Y-61160594D01*
X159122980Y-61280563D01*
X159616924Y-61065973D01*
X160059318Y-60633091D01*
X160302380Y-60063864D01*
X160175572Y-59817000D01*
X158877000Y-59817000D01*
X158623000Y-59817000D01*
X158603000Y-59817000D01*
X158603000Y-59563000D01*
X158623000Y-59563000D01*
X158623000Y-58219406D01*
X158877000Y-58219406D01*
X158877000Y-59563000D01*
X160175572Y-59563000D01*
X160302380Y-59316136D01*
X160059318Y-58746909D01*
X159616924Y-58314027D01*
X159122980Y-58099437D01*
X158877000Y-58219406D01*
X158623000Y-58219406D01*
X158377020Y-58099437D01*
X157883076Y-58314027D01*
X157489159Y-58699474D01*
X157354523Y-58497977D01*
X156829410Y-58147109D01*
X156210000Y-58023900D01*
X155590589Y-58147109D01*
X155198509Y-58409088D01*
X155080309Y-58232191D01*
X154870265Y-58091843D01*
X154622500Y-58042560D01*
X152717500Y-58042560D01*
X152469735Y-58091843D01*
X152259691Y-58232191D01*
X152119343Y-58442235D01*
X152070060Y-58690000D01*
X136919396Y-58690000D01*
X136702862Y-58473466D01*
X136175439Y-58255000D01*
X135604561Y-58255000D01*
X135077138Y-58473466D01*
X134673466Y-58877138D01*
X134455000Y-59404561D01*
X134455000Y-59975439D01*
X134673466Y-60502862D01*
X135077138Y-60906534D01*
X135130001Y-60928431D01*
X135130000Y-64492560D01*
X134990000Y-64492560D01*
X134742235Y-64541843D01*
X134532191Y-64682191D01*
X134399942Y-64880114D01*
X134365110Y-64845282D01*
X134250553Y-64959839D01*
X134164148Y-64703357D01*
X133590664Y-64493542D01*
X132980540Y-64519161D01*
X132535852Y-64703357D01*
X132449447Y-64959839D01*
X132334890Y-64845282D01*
X132300058Y-64880114D01*
X132167809Y-64682191D01*
X131957765Y-64541843D01*
X131710000Y-64492560D01*
X131570000Y-64492560D01*
X131570000Y-60928430D01*
X131622862Y-60906534D01*
X132026534Y-60502862D01*
X132245000Y-59975439D01*
X132245000Y-59404561D01*
X132026534Y-58877138D01*
X131622862Y-58473466D01*
X131095439Y-58255000D01*
X130524561Y-58255000D01*
X129997138Y-58473466D01*
X129593466Y-58877138D01*
X129375000Y-59404561D01*
X129375000Y-59975439D01*
X129593466Y-60502862D01*
X129997138Y-60906534D01*
X130050001Y-60928431D01*
X130050000Y-64492560D01*
X129910000Y-64492560D01*
X129662235Y-64541843D01*
X129452191Y-64682191D01*
X129311843Y-64892235D01*
X129262560Y-65140000D01*
X127762000Y-65140000D01*
X127762000Y-52070000D01*
X129346887Y-52070000D01*
X129458260Y-52629909D01*
X129775423Y-53104577D01*
X130250091Y-53421740D01*
X130668667Y-53505000D01*
X130951333Y-53505000D01*
X131369909Y-53421740D01*
X131844577Y-53104577D01*
X132161740Y-52629909D01*
X132273113Y-52070000D01*
X134426887Y-52070000D01*
X134538260Y-52629909D01*
X134855423Y-53104577D01*
X135330091Y-53421740D01*
X135748667Y-53505000D01*
X136031333Y-53505000D01*
X136449909Y-53421740D01*
X136924577Y-53104577D01*
X137241740Y-52629909D01*
X137353113Y-52070000D01*
X137241740Y-51510091D01*
X136924577Y-51035423D01*
X136449909Y-50718260D01*
X136031333Y-50635000D01*
X135748667Y-50635000D01*
X135330091Y-50718260D01*
X134855423Y-51035423D01*
X134538260Y-51510091D01*
X134426887Y-52070000D01*
X132273113Y-52070000D01*
X132161740Y-51510091D01*
X131844577Y-51035423D01*
X131369909Y-50718260D01*
X130951333Y-50635000D01*
X130668667Y-50635000D01*
X130250091Y-50718260D01*
X129775423Y-51035423D01*
X129458260Y-51510091D01*
X129346887Y-52070000D01*
X127762000Y-52070000D01*
X127762000Y-49582606D01*
X128322606Y-49022000D01*
X146778780Y-49022000D01*
X145931456Y-49869324D01*
X145931456Y-49869324D01*
G37*
X145931456Y-49869324D02*
X145340000Y-51297225D01*
X145340000Y-52842775D01*
X145931456Y-54270676D01*
X147024324Y-55363544D01*
X148452225Y-55955000D01*
X149997775Y-55955000D01*
X151425676Y-55363544D01*
X152518544Y-54270676D01*
X153110000Y-52842775D01*
X153110000Y-51297225D01*
X152518544Y-49869324D01*
X151671220Y-49022000D01*
X187418780Y-49022000D01*
X186571456Y-49869324D01*
X185980000Y-51297225D01*
X185980000Y-52842775D01*
X186571456Y-54270676D01*
X187664324Y-55363544D01*
X189092225Y-55955000D01*
X190637775Y-55955000D01*
X192065676Y-55363544D01*
X193158544Y-54270676D01*
X193750000Y-52842775D01*
X193750000Y-51297225D01*
X193158544Y-49869324D01*
X192311220Y-49022000D01*
X217117394Y-49022000D01*
X217678000Y-49582606D01*
X217678000Y-123137394D01*
X215847394Y-124968000D01*
X129578452Y-124968000D01*
X127826804Y-123800235D01*
X127804933Y-123753756D01*
X127762000Y-123528693D01*
X127762000Y-122555000D01*
X133791887Y-122555000D01*
X133903260Y-123114909D01*
X134220423Y-123589577D01*
X134695091Y-123906740D01*
X135113667Y-123990000D01*
X135396333Y-123990000D01*
X135814909Y-123906740D01*
X136289577Y-123589577D01*
X136606740Y-123114909D01*
X136718113Y-122555000D01*
X136606740Y-121995091D01*
X136289577Y-121520423D01*
X135814909Y-121203260D01*
X135396333Y-121120000D01*
X135113667Y-121120000D01*
X134695091Y-121203260D01*
X134220423Y-121520423D01*
X133903260Y-121995091D01*
X133791887Y-122555000D01*
X127762000Y-122555000D01*
X127762000Y-116830446D01*
X128151456Y-117770676D01*
X129244324Y-118863544D01*
X130672225Y-119455000D01*
X132217775Y-119455000D01*
X133645676Y-118863544D01*
X133764220Y-118745000D01*
X134546887Y-118745000D01*
X134658260Y-119304909D01*
X134975423Y-119779577D01*
X135450091Y-120096740D01*
X135868667Y-120180000D01*
X136151333Y-120180000D01*
X136569909Y-120096740D01*
X137044577Y-119779577D01*
X137361740Y-119304909D01*
X137473113Y-118745000D01*
X137361740Y-118185091D01*
X137044577Y-117710423D01*
X136569909Y-117393260D01*
X136151333Y-117310000D01*
X135868667Y-117310000D01*
X135450091Y-117393260D01*
X134975423Y-117710423D01*
X134658260Y-118185091D01*
X134546887Y-118745000D01*
X133764220Y-118745000D01*
X134738544Y-117770676D01*
X135330000Y-116342775D01*
X135330000Y-115549894D01*
X135610423Y-115969577D01*
X136085091Y-116286740D01*
X136503667Y-116370000D01*
X136786333Y-116370000D01*
X137204909Y-116286740D01*
X137679577Y-115969577D01*
X137996740Y-115494909D01*
X138108113Y-114935000D01*
X137996740Y-114375091D01*
X137679577Y-113900423D01*
X137204909Y-113583260D01*
X136786333Y-113500000D01*
X136503667Y-113500000D01*
X136085091Y-113583260D01*
X135610423Y-113900423D01*
X135293260Y-114375091D01*
X135248453Y-114600352D01*
X134738544Y-113369324D01*
X133645676Y-112276456D01*
X132217775Y-111685000D01*
X130672225Y-111685000D01*
X129244324Y-112276456D01*
X128151456Y-113369324D01*
X127762000Y-114309554D01*
X127762000Y-111125000D01*
X135061887Y-111125000D01*
X135173260Y-111684909D01*
X135490423Y-112159577D01*
X135965091Y-112476740D01*
X136383667Y-112560000D01*
X136666333Y-112560000D01*
X137084909Y-112476740D01*
X137559577Y-112159577D01*
X137876740Y-111684909D01*
X137988113Y-111125000D01*
X137876740Y-110565091D01*
X137559577Y-110090423D01*
X137084909Y-109773260D01*
X136666333Y-109690000D01*
X136383667Y-109690000D01*
X135965091Y-109773260D01*
X135490423Y-110090423D01*
X135173260Y-110565091D01*
X135061887Y-111125000D01*
X127762000Y-111125000D01*
X127762000Y-105171965D01*
X135624484Y-105171965D01*
X135650277Y-105777700D01*
X135832461Y-106217533D01*
X136087804Y-106302591D01*
X136980395Y-105410000D01*
X136087804Y-104517409D01*
X135832461Y-104602467D01*
X135624484Y-105171965D01*
X127762000Y-105171965D01*
X127762000Y-101563834D01*
X130302000Y-101563834D01*
X130302000Y-102271166D01*
X130572684Y-102924656D01*
X131072844Y-103424816D01*
X131726334Y-103695500D01*
X132433666Y-103695500D01*
X133087156Y-103424816D01*
X133587316Y-102924656D01*
X133858000Y-102271166D01*
X133858000Y-101563834D01*
X133587316Y-100910344D01*
X133087156Y-100410184D01*
X132433666Y-100139500D01*
X131726334Y-100139500D01*
X131072844Y-100410184D01*
X130572684Y-100910344D01*
X130302000Y-101563834D01*
X127762000Y-101563834D01*
X127762000Y-94946858D01*
X128016000Y-94946858D01*
X128016000Y-95553142D01*
X128248015Y-96113277D01*
X128654738Y-96520000D01*
X128248015Y-96926723D01*
X128016000Y-97486858D01*
X128016000Y-98093142D01*
X128248015Y-98653277D01*
X128676723Y-99081985D01*
X129236858Y-99314000D01*
X129843142Y-99314000D01*
X130403277Y-99081985D01*
X130831985Y-98653277D01*
X131064000Y-98093142D01*
X131064000Y-97848801D01*
X137102276Y-103887078D01*
X136792300Y-103900277D01*
X136352467Y-104082461D01*
X136267409Y-104337804D01*
X137160000Y-105230395D01*
X137174143Y-105216253D01*
X137353748Y-105395858D01*
X137339605Y-105410000D01*
X137353748Y-105424143D01*
X137174143Y-105603748D01*
X137160000Y-105589605D01*
X136267409Y-106482196D01*
X136352467Y-106737539D01*
X136921965Y-106945516D01*
X137527700Y-106919723D01*
X137967533Y-106737539D01*
X138014630Y-106596154D01*
X138526950Y-107108474D01*
X138569350Y-107171930D01*
X138632806Y-107214330D01*
X138820741Y-107339905D01*
X138868884Y-107349481D01*
X139042427Y-107384001D01*
X139042431Y-107384001D01*
X139117279Y-107398889D01*
X139192127Y-107384001D01*
X140207874Y-107384001D01*
X140282721Y-107398889D01*
X140357568Y-107384001D01*
X140357573Y-107384001D01*
X140579258Y-107339905D01*
X140830650Y-107171930D01*
X140873052Y-107108471D01*
X141328131Y-106653393D01*
X141376723Y-106701985D01*
X141936858Y-106934000D01*
X142543142Y-106934000D01*
X143103277Y-106701985D01*
X143531985Y-106273277D01*
X143764000Y-105713142D01*
X143764000Y-105106858D01*
X143531985Y-104546723D01*
X143103277Y-104118015D01*
X142820377Y-104000834D01*
X145743258Y-101077954D01*
X145542000Y-101563834D01*
X145542000Y-102271166D01*
X145812684Y-102924656D01*
X146312844Y-103424816D01*
X146966334Y-103695500D01*
X147673666Y-103695500D01*
X148327156Y-103424816D01*
X148827316Y-102924656D01*
X149098000Y-102271166D01*
X149098000Y-101563834D01*
X148827316Y-100910344D01*
X148327156Y-100410184D01*
X147673666Y-100139500D01*
X146966334Y-100139500D01*
X146480454Y-100340758D01*
X149396213Y-97424999D01*
X154184490Y-97424999D01*
X154111887Y-97790000D01*
X154176312Y-98113886D01*
X144460527Y-107829672D01*
X144397071Y-107872072D01*
X144354671Y-107935528D01*
X144354670Y-107935529D01*
X144229096Y-108123464D01*
X144170111Y-108420001D01*
X144185000Y-108494853D01*
X144184999Y-109690000D01*
X143859561Y-109690000D01*
X143332138Y-109908466D01*
X142928466Y-110312138D01*
X142710000Y-110839561D01*
X142710000Y-111410439D01*
X142928466Y-111937862D01*
X143332138Y-112341534D01*
X143859561Y-112560000D01*
X144430439Y-112560000D01*
X144957862Y-112341534D01*
X145361534Y-111937862D01*
X145580000Y-111410439D01*
X145580000Y-110839561D01*
X145555212Y-110779717D01*
X145660902Y-110621539D01*
X145660903Y-110621538D01*
X145704999Y-110399853D01*
X145704999Y-110399849D01*
X145719887Y-110325002D01*
X145704999Y-110250155D01*
X145704999Y-108734802D01*
X154112405Y-100327397D01*
X154111887Y-100330000D01*
X154223260Y-100889909D01*
X154540423Y-101364577D01*
X154892758Y-101600000D01*
X154540423Y-101835423D01*
X154223260Y-102310091D01*
X154111887Y-102870000D01*
X154223260Y-103429909D01*
X154540423Y-103904577D01*
X154924108Y-104160947D01*
X154719866Y-104257611D01*
X154343959Y-104672577D01*
X154183096Y-105060961D01*
X154305085Y-105283000D01*
X155448000Y-105283000D01*
X155448000Y-105263000D01*
X155702000Y-105263000D01*
X155702000Y-105283000D01*
X156844915Y-105283000D01*
X156966904Y-105060961D01*
X156806041Y-104672577D01*
X156430134Y-104257611D01*
X156225892Y-104160947D01*
X156609577Y-103904577D01*
X156926740Y-103429909D01*
X157038113Y-102870000D01*
X156926740Y-102310091D01*
X156609577Y-101835423D01*
X156257242Y-101600000D01*
X156609577Y-101364577D01*
X156926740Y-100889909D01*
X157038113Y-100330000D01*
X156926740Y-99770091D01*
X156609577Y-99295423D01*
X156257242Y-99060000D01*
X156609577Y-98824577D01*
X156859842Y-98450029D01*
X156943464Y-98505904D01*
X156991607Y-98515480D01*
X157165150Y-98550000D01*
X157165154Y-98550000D01*
X157240002Y-98564888D01*
X157314850Y-98550000D01*
X161976957Y-98550000D01*
X162160423Y-98824577D01*
X162512758Y-99060000D01*
X162160423Y-99295423D01*
X161843260Y-99770091D01*
X161731887Y-100330000D01*
X161843260Y-100889909D01*
X162160423Y-101364577D01*
X162512758Y-101600000D01*
X162160423Y-101835423D01*
X161843260Y-102310091D01*
X161731887Y-102870000D01*
X161843260Y-103429909D01*
X162160423Y-103904577D01*
X162512758Y-104140000D01*
X162160423Y-104375423D01*
X161843260Y-104850091D01*
X161731887Y-105410000D01*
X161843260Y-105969909D01*
X162160423Y-106444577D01*
X162512758Y-106680000D01*
X162160423Y-106915423D01*
X161843260Y-107390091D01*
X161731887Y-107950000D01*
X161833332Y-108460000D01*
X161364848Y-108460000D01*
X161290000Y-108445112D01*
X161215152Y-108460000D01*
X161215148Y-108460000D01*
X161041605Y-108494520D01*
X160993462Y-108504096D01*
X160806418Y-108629076D01*
X160742071Y-108672071D01*
X160699671Y-108735527D01*
X158900528Y-110534671D01*
X158837072Y-110577071D01*
X158794672Y-110640527D01*
X158794671Y-110640528D01*
X158697111Y-110786537D01*
X158669097Y-110828463D01*
X158637938Y-110985112D01*
X158610112Y-111125000D01*
X158625001Y-111199852D01*
X158625000Y-113739851D01*
X158625001Y-113739856D01*
X158625000Y-115100146D01*
X158625000Y-115100147D01*
X158625001Y-116525197D01*
X157037595Y-118112603D01*
X157038113Y-118110000D01*
X156926740Y-117550091D01*
X156609577Y-117075423D01*
X156257242Y-116840000D01*
X156609577Y-116604577D01*
X156926740Y-116129909D01*
X157038113Y-115570000D01*
X156926740Y-115010091D01*
X156609577Y-114535423D01*
X156257242Y-114300000D01*
X156609577Y-114064577D01*
X156926740Y-113589909D01*
X157038113Y-113030000D01*
X156926740Y-112470091D01*
X156609577Y-111995423D01*
X156257242Y-111760000D01*
X156609577Y-111524577D01*
X156926740Y-111049909D01*
X157038113Y-110490000D01*
X156926740Y-109930091D01*
X156609577Y-109455423D01*
X156257242Y-109220000D01*
X156609577Y-108984577D01*
X156926740Y-108509909D01*
X157038113Y-107950000D01*
X156926740Y-107390091D01*
X156609577Y-106915423D01*
X156225892Y-106659053D01*
X156430134Y-106562389D01*
X156806041Y-106147423D01*
X156966904Y-105759039D01*
X156844915Y-105537000D01*
X155702000Y-105537000D01*
X155702000Y-105557000D01*
X155448000Y-105557000D01*
X155448000Y-105537000D01*
X154305085Y-105537000D01*
X154183096Y-105759039D01*
X154343959Y-106147423D01*
X154719866Y-106562389D01*
X154924108Y-106659053D01*
X154540423Y-106915423D01*
X154223260Y-107390091D01*
X154111887Y-107950000D01*
X154223260Y-108509909D01*
X154540423Y-108984577D01*
X154892758Y-109220000D01*
X154540423Y-109455423D01*
X154356957Y-109730000D01*
X151679312Y-109730000D01*
X151669147Y-109705460D01*
X151279540Y-109315853D01*
X150770494Y-109105000D01*
X150219506Y-109105000D01*
X149710460Y-109315853D01*
X149320853Y-109705460D01*
X149310688Y-109730000D01*
X148664846Y-109730000D01*
X148589999Y-109715112D01*
X148515152Y-109730000D01*
X148515148Y-109730000D01*
X148293463Y-109774096D01*
X148042071Y-109942071D01*
X147999671Y-110005527D01*
X144483302Y-113521897D01*
X144430439Y-113500000D01*
X143859561Y-113500000D01*
X143332138Y-113718466D01*
X142928466Y-114122138D01*
X142710000Y-114649561D01*
X142710000Y-115220439D01*
X142928466Y-115747862D01*
X143332138Y-116151534D01*
X143859561Y-116370000D01*
X144430439Y-116370000D01*
X144957862Y-116151534D01*
X145361534Y-115747862D01*
X145580000Y-115220439D01*
X145580000Y-114649561D01*
X145558103Y-114596698D01*
X148904802Y-111250000D01*
X149310688Y-111250000D01*
X149320853Y-111274540D01*
X149710460Y-111664147D01*
X150219506Y-111875000D01*
X150770494Y-111875000D01*
X151279540Y-111664147D01*
X151669147Y-111274540D01*
X151679312Y-111250000D01*
X154356957Y-111250000D01*
X154540423Y-111524577D01*
X154892758Y-111760000D01*
X154540423Y-111995423D01*
X154356957Y-112270000D01*
X152909848Y-112270000D01*
X152835000Y-112255112D01*
X152760152Y-112270000D01*
X152760148Y-112270000D01*
X152586605Y-112304520D01*
X152538462Y-112314096D01*
X152351418Y-112439076D01*
X152287071Y-112482071D01*
X152244671Y-112545527D01*
X150795034Y-113995165D01*
X150770494Y-113985000D01*
X150219506Y-113985000D01*
X149710460Y-114195853D01*
X149320853Y-114585460D01*
X149310688Y-114610000D01*
X146959848Y-114610000D01*
X146885000Y-114595112D01*
X146810152Y-114610000D01*
X146810148Y-114610000D01*
X146636605Y-114644520D01*
X146588462Y-114654096D01*
X146497089Y-114715150D01*
X146337071Y-114822071D01*
X146294671Y-114885527D01*
X143848302Y-117331897D01*
X143795439Y-117310000D01*
X143224561Y-117310000D01*
X142697138Y-117528466D01*
X142293466Y-117932138D01*
X142075000Y-118459561D01*
X142075000Y-119030439D01*
X142293466Y-119557862D01*
X142697138Y-119961534D01*
X143224561Y-120180000D01*
X143795439Y-120180000D01*
X144322862Y-119961534D01*
X144726534Y-119557862D01*
X144945000Y-119030439D01*
X144945000Y-118459561D01*
X144923103Y-118406698D01*
X147199802Y-116130000D01*
X149310688Y-116130000D01*
X149320853Y-116154540D01*
X149710460Y-116544147D01*
X150219506Y-116755000D01*
X150770494Y-116755000D01*
X151279540Y-116544147D01*
X151669147Y-116154540D01*
X151880000Y-115645494D01*
X151880000Y-115094506D01*
X151869835Y-115069966D01*
X153149802Y-113790000D01*
X154356957Y-113790000D01*
X154540423Y-114064577D01*
X154892758Y-114300000D01*
X154540423Y-114535423D01*
X154223260Y-115010091D01*
X154111887Y-115570000D01*
X154223260Y-116129909D01*
X154540423Y-116604577D01*
X154892758Y-116840000D01*
X154540423Y-117075423D01*
X154356957Y-117350000D01*
X152474848Y-117350000D01*
X152400000Y-117335112D01*
X152325152Y-117350000D01*
X152325148Y-117350000D01*
X152151605Y-117384520D01*
X152103462Y-117394096D01*
X151952230Y-117495147D01*
X151852071Y-117562071D01*
X151809671Y-117625527D01*
X149004839Y-120430360D01*
X148895330Y-120385000D01*
X148284670Y-120385000D01*
X147720493Y-120618690D01*
X147551275Y-120787908D01*
X147548157Y-120772235D01*
X147407809Y-120562191D01*
X147197765Y-120421843D01*
X146950000Y-120372560D01*
X145150000Y-120372560D01*
X144902235Y-120421843D01*
X144692191Y-120562191D01*
X144551843Y-120772235D01*
X144502560Y-121020000D01*
X144502560Y-121795000D01*
X144113430Y-121795000D01*
X144091534Y-121742138D01*
X143687862Y-121338466D01*
X143160439Y-121120000D01*
X142589561Y-121120000D01*
X142062138Y-121338466D01*
X141658466Y-121742138D01*
X141440000Y-122269561D01*
X141440000Y-122840439D01*
X141658466Y-123367862D01*
X142062138Y-123771534D01*
X142589561Y-123990000D01*
X143160439Y-123990000D01*
X143687862Y-123771534D01*
X144091534Y-123367862D01*
X144113430Y-123315000D01*
X144747851Y-123315000D01*
X144902235Y-123418157D01*
X145150000Y-123467440D01*
X146950000Y-123467440D01*
X147197765Y-123418157D01*
X147407809Y-123277809D01*
X147548157Y-123067765D01*
X147551275Y-123052092D01*
X147720493Y-123221310D01*
X148284670Y-123455000D01*
X148895330Y-123455000D01*
X149459507Y-123221310D01*
X149891310Y-122789507D01*
X150125000Y-122225330D01*
X150125000Y-121614670D01*
X150079640Y-121505161D01*
X152714802Y-118870000D01*
X154356957Y-118870000D01*
X154540423Y-119144577D01*
X154892758Y-119380000D01*
X154540423Y-119615423D01*
X154223260Y-120090091D01*
X154111887Y-120650000D01*
X154223260Y-121209909D01*
X154540423Y-121684577D01*
X154892758Y-121920000D01*
X154540423Y-122155423D01*
X154223260Y-122630091D01*
X154111887Y-123190000D01*
X154223260Y-123749909D01*
X154540423Y-124224577D01*
X155015091Y-124541740D01*
X155433667Y-124625000D01*
X155716333Y-124625000D01*
X156134909Y-124541740D01*
X156609577Y-124224577D01*
X156793043Y-123950000D01*
X158915151Y-123950000D01*
X158989998Y-123964888D01*
X159064845Y-123950000D01*
X159064850Y-123950000D01*
X159286535Y-123905904D01*
X159537927Y-123737929D01*
X159580329Y-123674470D01*
X161924022Y-121330778D01*
X162160423Y-121684577D01*
X162512758Y-121920000D01*
X162160423Y-122155423D01*
X161843260Y-122630091D01*
X161731887Y-123190000D01*
X161843260Y-123749909D01*
X162160423Y-124224577D01*
X162635091Y-124541740D01*
X163053667Y-124625000D01*
X163336333Y-124625000D01*
X163754909Y-124541740D01*
X164229577Y-124224577D01*
X164546740Y-123749909D01*
X164658113Y-123190000D01*
X164546740Y-122630091D01*
X164229577Y-122155423D01*
X163877242Y-121920000D01*
X164229577Y-121684577D01*
X164546740Y-121209909D01*
X164585554Y-121014778D01*
X167910000Y-121014778D01*
X167910000Y-121665222D01*
X168158914Y-122266153D01*
X168618847Y-122726086D01*
X169219778Y-122975000D01*
X169870222Y-122975000D01*
X170471153Y-122726086D01*
X170931086Y-122266153D01*
X171180000Y-121665222D01*
X171180000Y-121014778D01*
X174410000Y-121014778D01*
X174410000Y-121665222D01*
X174658914Y-122266153D01*
X175118847Y-122726086D01*
X175719778Y-122975000D01*
X176370222Y-122975000D01*
X176383157Y-122969642D01*
X183910000Y-122969642D01*
X183910000Y-123570358D01*
X184139884Y-124125346D01*
X184564654Y-124550116D01*
X185119642Y-124780000D01*
X185720358Y-124780000D01*
X186275346Y-124550116D01*
X186700116Y-124125346D01*
X186930000Y-123570358D01*
X186930000Y-122969642D01*
X186890506Y-122874295D01*
X193524476Y-116240327D01*
X193587929Y-116197929D01*
X193630327Y-116134476D01*
X193630329Y-116134474D01*
X193740509Y-115969577D01*
X193755904Y-115946537D01*
X193800000Y-115724852D01*
X193800000Y-115724848D01*
X193814888Y-115650001D01*
X193800000Y-115575154D01*
X193800000Y-115518043D01*
X194074577Y-115334577D01*
X194185000Y-115169317D01*
X194185001Y-119700197D01*
X193378302Y-120506897D01*
X193325439Y-120485000D01*
X192754561Y-120485000D01*
X192227138Y-120703466D01*
X191823466Y-121107138D01*
X191605000Y-121634561D01*
X191605000Y-122205439D01*
X191823466Y-122732862D01*
X192227138Y-123136534D01*
X192754561Y-123355000D01*
X193325439Y-123355000D01*
X193852862Y-123136534D01*
X194256534Y-122732862D01*
X194456678Y-122249670D01*
X196585000Y-122249670D01*
X196585000Y-122860330D01*
X196818690Y-123424507D01*
X197250493Y-123856310D01*
X197814670Y-124090000D01*
X198425330Y-124090000D01*
X198989507Y-123856310D01*
X199158725Y-123687092D01*
X199161843Y-123702765D01*
X199302191Y-123912809D01*
X199512235Y-124053157D01*
X199760000Y-124102440D01*
X201560000Y-124102440D01*
X201807765Y-124053157D01*
X202017809Y-123912809D01*
X202158157Y-123702765D01*
X202207440Y-123455000D01*
X202207440Y-123315000D01*
X202490153Y-123315000D01*
X202565000Y-123329888D01*
X202639847Y-123315000D01*
X202639852Y-123315000D01*
X202760200Y-123291061D01*
X202914561Y-123355000D01*
X203485439Y-123355000D01*
X204012862Y-123136534D01*
X204416534Y-122732862D01*
X204635000Y-122205439D01*
X204635000Y-121634561D01*
X204416534Y-121107138D01*
X204012862Y-120703466D01*
X203485439Y-120485000D01*
X202914561Y-120485000D01*
X202387138Y-120703466D01*
X201983466Y-121107138D01*
X201961695Y-121159697D01*
X201807765Y-121056843D01*
X201560000Y-121007560D01*
X199760000Y-121007560D01*
X199512235Y-121056843D01*
X199302191Y-121197191D01*
X199161843Y-121407235D01*
X199158725Y-121422908D01*
X198989507Y-121253690D01*
X198425330Y-121020000D01*
X197814670Y-121020000D01*
X197250493Y-121253690D01*
X196818690Y-121685493D01*
X196585000Y-122249670D01*
X194456678Y-122249670D01*
X194475000Y-122205439D01*
X194475000Y-121634561D01*
X194453103Y-121581698D01*
X195429473Y-120605329D01*
X195492929Y-120562929D01*
X195632890Y-120353463D01*
X195660904Y-120311538D01*
X195689947Y-120165528D01*
X195705000Y-120089852D01*
X195705000Y-120089848D01*
X195719888Y-120015000D01*
X195705000Y-119940152D01*
X195705000Y-116534670D01*
X196585000Y-116534670D01*
X196585000Y-117145330D01*
X196818690Y-117709507D01*
X197250493Y-118141310D01*
X197814670Y-118375000D01*
X198425330Y-118375000D01*
X198989507Y-118141310D01*
X199158725Y-117972092D01*
X199161843Y-117987765D01*
X199302191Y-118197809D01*
X199512235Y-118338157D01*
X199760000Y-118387440D01*
X201560000Y-118387440D01*
X201807765Y-118338157D01*
X202017809Y-118197809D01*
X202158157Y-117987765D01*
X202184738Y-117854134D01*
X202387138Y-118056534D01*
X202914561Y-118275000D01*
X203485439Y-118275000D01*
X204012862Y-118056534D01*
X204416534Y-117652862D01*
X204635000Y-117125439D01*
X204635000Y-116840000D01*
X209356887Y-116840000D01*
X209468260Y-117399909D01*
X209785423Y-117874577D01*
X210060000Y-118058044D01*
X210060001Y-120701956D01*
X209785423Y-120885423D01*
X209468260Y-121360091D01*
X209356887Y-121920000D01*
X209468260Y-122479909D01*
X209785423Y-122954577D01*
X210260091Y-123271740D01*
X210678667Y-123355000D01*
X210961333Y-123355000D01*
X211379909Y-123271740D01*
X211854577Y-122954577D01*
X212171740Y-122479909D01*
X212283113Y-121920000D01*
X212171740Y-121360091D01*
X211854577Y-120885423D01*
X211580000Y-120701957D01*
X211580000Y-118058043D01*
X211854577Y-117874577D01*
X212171740Y-117399909D01*
X212283113Y-116840000D01*
X212171740Y-116280091D01*
X211854577Y-115805423D01*
X211379909Y-115488260D01*
X210961333Y-115405000D01*
X210678667Y-115405000D01*
X210260091Y-115488260D01*
X209785423Y-115805423D01*
X209468260Y-116280091D01*
X209356887Y-116840000D01*
X204635000Y-116840000D01*
X204635000Y-116554561D01*
X204416534Y-116027138D01*
X204012862Y-115623466D01*
X203485439Y-115405000D01*
X202914561Y-115405000D01*
X202387138Y-115623466D01*
X202184738Y-115825866D01*
X202158157Y-115692235D01*
X202017809Y-115482191D01*
X201807765Y-115341843D01*
X201560000Y-115292560D01*
X199760000Y-115292560D01*
X199512235Y-115341843D01*
X199302191Y-115482191D01*
X199161843Y-115692235D01*
X199158725Y-115707908D01*
X198989507Y-115538690D01*
X198425330Y-115305000D01*
X197814670Y-115305000D01*
X197250493Y-115538690D01*
X196818690Y-115970493D01*
X196585000Y-116534670D01*
X195705000Y-116534670D01*
X195705000Y-112864799D01*
X196572560Y-111997239D01*
X196572560Y-112660000D01*
X196621843Y-112907765D01*
X196762191Y-113117809D01*
X196972235Y-113258157D01*
X197220000Y-113307440D01*
X199020000Y-113307440D01*
X199267765Y-113258157D01*
X199477809Y-113117809D01*
X199618157Y-112907765D01*
X199621275Y-112892092D01*
X199790493Y-113061310D01*
X200354670Y-113295000D01*
X200965330Y-113295000D01*
X201529507Y-113061310D01*
X201961310Y-112629507D01*
X201997212Y-112542832D01*
X202165423Y-112794577D01*
X202640091Y-113111740D01*
X203058667Y-113195000D01*
X203341333Y-113195000D01*
X203759909Y-113111740D01*
X204234577Y-112794577D01*
X204551740Y-112319909D01*
X204663113Y-111760000D01*
X204570618Y-111294999D01*
X209280198Y-111294999D01*
X209406897Y-111421698D01*
X209385000Y-111474561D01*
X209385000Y-112045439D01*
X209603466Y-112572862D01*
X210007138Y-112976534D01*
X210534561Y-113195000D01*
X211105439Y-113195000D01*
X211632862Y-112976534D01*
X212036534Y-112572862D01*
X212255000Y-112045439D01*
X212255000Y-111760000D01*
X213750908Y-111760000D01*
X213866161Y-112339418D01*
X214194375Y-112830625D01*
X214492761Y-113030000D01*
X214194375Y-113229375D01*
X213866161Y-113720582D01*
X213750908Y-114300000D01*
X213866161Y-114879418D01*
X214194375Y-115370625D01*
X214492761Y-115570000D01*
X214194375Y-115769375D01*
X213866161Y-116260582D01*
X213750908Y-116840000D01*
X213866161Y-117419418D01*
X214194375Y-117910625D01*
X214492761Y-118110000D01*
X214194375Y-118309375D01*
X213866161Y-118800582D01*
X213750908Y-119380000D01*
X213866161Y-119959418D01*
X214194375Y-120450625D01*
X214492761Y-120650000D01*
X214194375Y-120849375D01*
X213866161Y-121340582D01*
X213750908Y-121920000D01*
X213866161Y-122499418D01*
X214194375Y-122990625D01*
X214685582Y-123318839D01*
X215118744Y-123405000D01*
X215411256Y-123405000D01*
X215844418Y-123318839D01*
X216335625Y-122990625D01*
X216663839Y-122499418D01*
X216779092Y-121920000D01*
X216663839Y-121340582D01*
X216335625Y-120849375D01*
X216037239Y-120650000D01*
X216335625Y-120450625D01*
X216663839Y-119959418D01*
X216779092Y-119380000D01*
X216663839Y-118800582D01*
X216335625Y-118309375D01*
X216037239Y-118110000D01*
X216335625Y-117910625D01*
X216663839Y-117419418D01*
X216779092Y-116840000D01*
X216663839Y-116260582D01*
X216335625Y-115769375D01*
X216037239Y-115570000D01*
X216335625Y-115370625D01*
X216663839Y-114879418D01*
X216779092Y-114300000D01*
X216663839Y-113720582D01*
X216335625Y-113229375D01*
X216037239Y-113030000D01*
X216335625Y-112830625D01*
X216663839Y-112339418D01*
X216779092Y-111760000D01*
X216663839Y-111180582D01*
X216335625Y-110689375D01*
X216317381Y-110677184D01*
X216362765Y-110668157D01*
X216572809Y-110527809D01*
X216713157Y-110317765D01*
X216762440Y-110070000D01*
X216762440Y-108370000D01*
X216713157Y-108122235D01*
X216572809Y-107912191D01*
X216362765Y-107771843D01*
X216115000Y-107722560D01*
X214415000Y-107722560D01*
X214167235Y-107771843D01*
X213957191Y-107912191D01*
X213816843Y-108122235D01*
X213767560Y-108370000D01*
X213767560Y-110070000D01*
X213816843Y-110317765D01*
X213957191Y-110527809D01*
X214167235Y-110668157D01*
X214212619Y-110677184D01*
X214194375Y-110689375D01*
X213866161Y-111180582D01*
X213750908Y-111760000D01*
X212255000Y-111760000D01*
X212255000Y-111474561D01*
X212036534Y-110947138D01*
X211632862Y-110543466D01*
X211105439Y-110325000D01*
X210534561Y-110325000D01*
X210481698Y-110346897D01*
X210185330Y-110050529D01*
X210142928Y-109987070D01*
X209891536Y-109819095D01*
X209669851Y-109774999D01*
X209669846Y-109774999D01*
X209594999Y-109760111D01*
X209520152Y-109774999D01*
X198794800Y-109774999D01*
X202087603Y-106482196D01*
X202307409Y-106482196D01*
X202392467Y-106737539D01*
X202961965Y-106945516D01*
X203567700Y-106919723D01*
X204007533Y-106737539D01*
X204092591Y-106482196D01*
X203200000Y-105589605D01*
X202307409Y-106482196D01*
X202087603Y-106482196D01*
X202160474Y-106409326D01*
X202223930Y-106366926D01*
X202391905Y-106115534D01*
X202411035Y-106019360D01*
X203020395Y-105410000D01*
X203379605Y-105410000D01*
X204272196Y-106302591D01*
X204437367Y-106247570D01*
X204448015Y-106273277D01*
X204876723Y-106701985D01*
X205436858Y-106934000D01*
X206043142Y-106934000D01*
X206603277Y-106701985D01*
X207010000Y-106295262D01*
X207416723Y-106701985D01*
X207976858Y-106934000D01*
X208583142Y-106934000D01*
X209143277Y-106701985D01*
X209571985Y-106273277D01*
X209804000Y-105713142D01*
X209804000Y-105106858D01*
X209571985Y-104546723D01*
X209143277Y-104118015D01*
X208583142Y-103886000D01*
X207976858Y-103886000D01*
X207416723Y-104118015D01*
X207010000Y-104524738D01*
X206603277Y-104118015D01*
X206043142Y-103886000D01*
X205436858Y-103886000D01*
X204876723Y-104118015D01*
X204448015Y-104546723D01*
X204437367Y-104572430D01*
X204272196Y-104517409D01*
X203379605Y-105410000D01*
X203020395Y-105410000D01*
X203006253Y-105395858D01*
X203185858Y-105216253D01*
X203200000Y-105230395D01*
X204092591Y-104337804D01*
X204007533Y-104082461D01*
X203438035Y-103874484D01*
X202832300Y-103900277D01*
X202436001Y-104064429D01*
X202436001Y-101563834D01*
X211582000Y-101563834D01*
X211582000Y-102271166D01*
X211852684Y-102924656D01*
X212352844Y-103424816D01*
X213006334Y-103695500D01*
X213713666Y-103695500D01*
X214367156Y-103424816D01*
X214867316Y-102924656D01*
X215138000Y-102271166D01*
X215138000Y-101563834D01*
X214867316Y-100910344D01*
X214367156Y-100410184D01*
X213713666Y-100139500D01*
X213006334Y-100139500D01*
X212352844Y-100410184D01*
X211852684Y-100910344D01*
X211582000Y-101563834D01*
X202436001Y-101563834D01*
X202436001Y-89154000D01*
X202868142Y-89154000D01*
X203428277Y-88921985D01*
X203856985Y-88493277D01*
X204089000Y-87933142D01*
X204089000Y-87326858D01*
X207391000Y-87326858D01*
X207391000Y-87933142D01*
X207623015Y-88493277D01*
X208051723Y-88921985D01*
X208611858Y-89154000D01*
X209218142Y-89154000D01*
X209778277Y-88921985D01*
X210206985Y-88493277D01*
X210316520Y-88228834D01*
X211582000Y-88228834D01*
X211582000Y-88936166D01*
X211852684Y-89589656D01*
X212352844Y-90089816D01*
X213006334Y-90360500D01*
X213713666Y-90360500D01*
X214367156Y-90089816D01*
X214867316Y-89589656D01*
X215138000Y-88936166D01*
X215138000Y-88228834D01*
X214867316Y-87575344D01*
X214367156Y-87075184D01*
X213713666Y-86804500D01*
X213006334Y-86804500D01*
X212352844Y-87075184D01*
X211852684Y-87575344D01*
X211582000Y-88228834D01*
X210316520Y-88228834D01*
X210439000Y-87933142D01*
X210439000Y-87326858D01*
X210206985Y-86766723D01*
X209778277Y-86338015D01*
X209218142Y-86106000D01*
X208611858Y-86106000D01*
X208051723Y-86338015D01*
X207623015Y-86766723D01*
X207391000Y-87326858D01*
X204089000Y-87326858D01*
X203856985Y-86766723D01*
X203428277Y-86338015D01*
X202868142Y-86106000D01*
X202261858Y-86106000D01*
X201701723Y-86338015D01*
X201273015Y-86766723D01*
X201041000Y-87326858D01*
X201041000Y-87933142D01*
X201084019Y-88037000D01*
X200960097Y-88222463D01*
X200916001Y-88444148D01*
X200916001Y-88444152D01*
X200901113Y-88518999D01*
X200916001Y-88593846D01*
X200916002Y-105504194D01*
X196378815Y-110041381D01*
X196925000Y-108722775D01*
X196925000Y-107177225D01*
X196333544Y-105749324D01*
X195240676Y-104656456D01*
X193812775Y-104065000D01*
X192267225Y-104065000D01*
X190839324Y-104656456D01*
X189746456Y-105749324D01*
X189155000Y-107177225D01*
X189155000Y-108722775D01*
X189746456Y-110150676D01*
X190839324Y-111243544D01*
X192267225Y-111835000D01*
X193812775Y-111835000D01*
X195131382Y-111288815D01*
X194460530Y-111959667D01*
X194397071Y-112002069D01*
X194229096Y-112253462D01*
X194185000Y-112475147D01*
X194185000Y-112475151D01*
X194170112Y-112549998D01*
X194185000Y-112624845D01*
X194185000Y-113430683D01*
X194074577Y-113265423D01*
X193599909Y-112948260D01*
X193181333Y-112865000D01*
X192898667Y-112865000D01*
X192480091Y-112948260D01*
X192005423Y-113265423D01*
X191688260Y-113740091D01*
X191576887Y-114300000D01*
X191688260Y-114859909D01*
X192005423Y-115334577D01*
X192170392Y-115444805D01*
X189855000Y-117760198D01*
X189855000Y-117525159D01*
X189552801Y-116795588D01*
X188994412Y-116237199D01*
X188264841Y-115935000D01*
X187475159Y-115935000D01*
X186745588Y-116237199D01*
X186187199Y-116795588D01*
X185885000Y-117525159D01*
X185885000Y-118314841D01*
X186187199Y-119044412D01*
X186745588Y-119602801D01*
X187475159Y-119905000D01*
X187710198Y-119905000D01*
X185815705Y-121799494D01*
X185720358Y-121760000D01*
X185119642Y-121760000D01*
X184564654Y-121989884D01*
X184139884Y-122414654D01*
X183910000Y-122969642D01*
X176383157Y-122969642D01*
X176971153Y-122726086D01*
X177431086Y-122266153D01*
X177680000Y-121665222D01*
X177680000Y-121014778D01*
X177431086Y-120413847D01*
X176971153Y-119953914D01*
X176370222Y-119705000D01*
X175719778Y-119705000D01*
X175118847Y-119953914D01*
X174658914Y-120413847D01*
X174410000Y-121014778D01*
X171180000Y-121014778D01*
X170931086Y-120413847D01*
X170471153Y-119953914D01*
X169870222Y-119705000D01*
X169219778Y-119705000D01*
X168618847Y-119953914D01*
X168158914Y-120413847D01*
X167910000Y-121014778D01*
X164585554Y-121014778D01*
X164658113Y-120650000D01*
X164546740Y-120090091D01*
X164309607Y-119735196D01*
X164804476Y-119240329D01*
X164867930Y-119197930D01*
X164910328Y-119134477D01*
X164910330Y-119134475D01*
X165035904Y-118946539D01*
X165035905Y-118946538D01*
X165079940Y-118725159D01*
X177485000Y-118725159D01*
X177485000Y-119514841D01*
X177787199Y-120244412D01*
X178345588Y-120802801D01*
X179075159Y-121105000D01*
X179864841Y-121105000D01*
X180594412Y-120802801D01*
X181152801Y-120244412D01*
X181455000Y-119514841D01*
X181455000Y-118725159D01*
X181152801Y-117995588D01*
X180594412Y-117437199D01*
X179864841Y-117135000D01*
X179075159Y-117135000D01*
X178345588Y-117437199D01*
X177787199Y-117995588D01*
X177485000Y-118725159D01*
X165079940Y-118725159D01*
X165080001Y-118724853D01*
X165080001Y-118724849D01*
X165094889Y-118650002D01*
X165080001Y-118575155D01*
X165080001Y-117992532D01*
X168572073Y-117992532D01*
X168670736Y-118259387D01*
X169280461Y-118485908D01*
X169930460Y-118461856D01*
X170419264Y-118259387D01*
X170517927Y-117992532D01*
X175072073Y-117992532D01*
X175170736Y-118259387D01*
X175780461Y-118485908D01*
X176430460Y-118461856D01*
X176919264Y-118259387D01*
X177017927Y-117992532D01*
X176045000Y-117019605D01*
X175072073Y-117992532D01*
X170517927Y-117992532D01*
X169545000Y-117019605D01*
X168572073Y-117992532D01*
X165080001Y-117992532D01*
X165080001Y-117644845D01*
X165094889Y-117569998D01*
X165080001Y-117495151D01*
X165080001Y-117495147D01*
X165035905Y-117273462D01*
X164950290Y-117145330D01*
X164910330Y-117085525D01*
X164910328Y-117085523D01*
X164867930Y-117022070D01*
X164804477Y-116979672D01*
X164309607Y-116484804D01*
X164413043Y-116330000D01*
X167570793Y-116330000D01*
X167645640Y-116344888D01*
X167720487Y-116330000D01*
X167720492Y-116330000D01*
X167942177Y-116285904D01*
X168027961Y-116228585D01*
X167899092Y-116575461D01*
X167923144Y-117225460D01*
X168125613Y-117714264D01*
X168392468Y-117812927D01*
X169365395Y-116840000D01*
X169724605Y-116840000D01*
X170697532Y-117812927D01*
X170964387Y-117714264D01*
X171190908Y-117104539D01*
X171171331Y-116575461D01*
X174399092Y-116575461D01*
X174423144Y-117225460D01*
X174625613Y-117714264D01*
X174892468Y-117812927D01*
X175865395Y-116840000D01*
X176224605Y-116840000D01*
X177197532Y-117812927D01*
X177464387Y-117714264D01*
X177690908Y-117104539D01*
X177666856Y-116454540D01*
X177464387Y-115965736D01*
X177197532Y-115867073D01*
X176224605Y-116840000D01*
X175865395Y-116840000D01*
X174892468Y-115867073D01*
X174625613Y-115965736D01*
X174399092Y-116575461D01*
X171171331Y-116575461D01*
X171166856Y-116454540D01*
X170964387Y-115965736D01*
X170697532Y-115867073D01*
X169724605Y-116840000D01*
X169365395Y-116840000D01*
X169351253Y-116825858D01*
X169530858Y-116646253D01*
X169545000Y-116660395D01*
X170517927Y-115687468D01*
X175072073Y-115687468D01*
X176045000Y-116660395D01*
X177017927Y-115687468D01*
X176919264Y-115420613D01*
X176309539Y-115194092D01*
X175659540Y-115218144D01*
X175170736Y-115420613D01*
X175072073Y-115687468D01*
X170517927Y-115687468D01*
X170419264Y-115420613D01*
X169809539Y-115194092D01*
X169159540Y-115218144D01*
X169010607Y-115279834D01*
X182726607Y-101563834D01*
X196342000Y-101563834D01*
X196342000Y-102271166D01*
X196612684Y-102924656D01*
X197112844Y-103424816D01*
X197766334Y-103695500D01*
X198473666Y-103695500D01*
X199127156Y-103424816D01*
X199627316Y-102924656D01*
X199898000Y-102271166D01*
X199898000Y-101563834D01*
X199627316Y-100910344D01*
X199127156Y-100410184D01*
X198473666Y-100139500D01*
X197766334Y-100139500D01*
X197112844Y-100410184D01*
X196612684Y-100910344D01*
X196342000Y-101563834D01*
X182726607Y-101563834D01*
X189343583Y-94946858D01*
X194056000Y-94946858D01*
X194056000Y-95553142D01*
X194288015Y-96113277D01*
X194694738Y-96520000D01*
X194288015Y-96926723D01*
X194056000Y-97486858D01*
X194056000Y-98093142D01*
X194288015Y-98653277D01*
X194716723Y-99081985D01*
X195276858Y-99314000D01*
X195883142Y-99314000D01*
X196443277Y-99081985D01*
X196871985Y-98653277D01*
X197104000Y-98093142D01*
X197104000Y-97486858D01*
X196871985Y-96926723D01*
X196465262Y-96520000D01*
X196871985Y-96113277D01*
X197104000Y-95553142D01*
X197104000Y-94946858D01*
X196871985Y-94386723D01*
X196443277Y-93958015D01*
X196417570Y-93947367D01*
X196472591Y-93782196D01*
X195580000Y-92889605D01*
X194687409Y-93782196D01*
X194742430Y-93947367D01*
X194716723Y-93958015D01*
X194288015Y-94386723D01*
X194056000Y-94946858D01*
X189343583Y-94946858D01*
X191818476Y-92471965D01*
X194044484Y-92471965D01*
X194070277Y-93077700D01*
X194252461Y-93517533D01*
X194507804Y-93602591D01*
X195400395Y-92710000D01*
X195759605Y-92710000D01*
X196652196Y-93602591D01*
X196907539Y-93517533D01*
X197115516Y-92948035D01*
X197089723Y-92342300D01*
X196907539Y-91902467D01*
X196652196Y-91817409D01*
X195759605Y-92710000D01*
X195400395Y-92710000D01*
X194507804Y-91817409D01*
X194252461Y-91902467D01*
X194044484Y-92471965D01*
X191818476Y-92471965D01*
X192652637Y-91637804D01*
X194687409Y-91637804D01*
X195580000Y-92530395D01*
X196472591Y-91637804D01*
X196387533Y-91382461D01*
X195818035Y-91174484D01*
X195212300Y-91200277D01*
X194772467Y-91382461D01*
X194687409Y-91637804D01*
X192652637Y-91637804D01*
X196540267Y-87750175D01*
X196342000Y-88228834D01*
X196342000Y-88936166D01*
X196612684Y-89589656D01*
X197112844Y-90089816D01*
X197766334Y-90360500D01*
X198473666Y-90360500D01*
X199127156Y-90089816D01*
X199627316Y-89589656D01*
X199898000Y-88936166D01*
X199898000Y-88228834D01*
X199627316Y-87575344D01*
X199127156Y-87075184D01*
X198473666Y-86804500D01*
X197766334Y-86804500D01*
X197287675Y-87002767D01*
X200668246Y-83622196D01*
X201672409Y-83622196D01*
X201757467Y-83877539D01*
X202326965Y-84085516D01*
X202932700Y-84059723D01*
X203372533Y-83877539D01*
X203457591Y-83622196D01*
X202565000Y-82729605D01*
X201672409Y-83622196D01*
X200668246Y-83622196D01*
X201148260Y-83142182D01*
X201237461Y-83357533D01*
X201492804Y-83442591D01*
X202385395Y-82550000D01*
X202744605Y-82550000D01*
X203637196Y-83442591D01*
X203892539Y-83357533D01*
X204100516Y-82788035D01*
X204074723Y-82182300D01*
X203892539Y-81742467D01*
X203637196Y-81657409D01*
X202744605Y-82550000D01*
X202385395Y-82550000D01*
X202371253Y-82535858D01*
X202550858Y-82356253D01*
X202565000Y-82370395D01*
X203457591Y-81477804D01*
X203433339Y-81405000D01*
X207904738Y-81405000D01*
X207623015Y-81686723D01*
X207391000Y-82246858D01*
X207391000Y-82853142D01*
X207623015Y-83413277D01*
X208051723Y-83841985D01*
X208611858Y-84074000D01*
X209218142Y-84074000D01*
X209778277Y-83841985D01*
X210206985Y-83413277D01*
X210439000Y-82853142D01*
X210439000Y-82246858D01*
X210206985Y-81686723D01*
X209778277Y-81258015D01*
X209497226Y-81141600D01*
X209505331Y-81129470D01*
X211780782Y-78854020D01*
X211812119Y-78867000D01*
X212367881Y-78867000D01*
X212881337Y-78654320D01*
X213274320Y-78261337D01*
X213487000Y-77747881D01*
X213487000Y-77192119D01*
X213274320Y-76678663D01*
X212881337Y-76285680D01*
X212674487Y-76200000D01*
X212881337Y-76114320D01*
X213274320Y-75721337D01*
X213487000Y-75207881D01*
X213487000Y-74652119D01*
X213274320Y-74138663D01*
X212881337Y-73745680D01*
X212367881Y-73533000D01*
X211812119Y-73533000D01*
X211298663Y-73745680D01*
X210905680Y-74138663D01*
X210820000Y-74345513D01*
X210734320Y-74138663D01*
X210341337Y-73745680D01*
X209827881Y-73533000D01*
X209272119Y-73533000D01*
X208758663Y-73745680D01*
X208365680Y-74138663D01*
X208280000Y-74345513D01*
X208194320Y-74138663D01*
X207801337Y-73745680D01*
X207287881Y-73533000D01*
X206732119Y-73533000D01*
X206218663Y-73745680D01*
X205825680Y-74138663D01*
X205740000Y-74345513D01*
X205654320Y-74138663D01*
X205261337Y-73745680D01*
X204747881Y-73533000D01*
X204192119Y-73533000D01*
X203678663Y-73745680D01*
X203285680Y-74138663D01*
X203272863Y-74169606D01*
X203199999Y-74155112D01*
X203125152Y-74170000D01*
X203125148Y-74170000D01*
X202903463Y-74214096D01*
X202903461Y-74214097D01*
X202903462Y-74214097D01*
X202715526Y-74339671D01*
X202715524Y-74339673D01*
X202652071Y-74382071D01*
X202609673Y-74445524D01*
X201074838Y-75980360D01*
X200965330Y-75935000D01*
X200354670Y-75935000D01*
X200245161Y-75980360D01*
X200025330Y-75760529D01*
X199982928Y-75697070D01*
X199731536Y-75529095D01*
X199509851Y-75484999D01*
X199509846Y-75484999D01*
X199434999Y-75470111D01*
X199360152Y-75484999D01*
X180699801Y-75484999D01*
X176701209Y-71486408D01*
X176774092Y-71120000D01*
X176658839Y-70540582D01*
X176330625Y-70049375D01*
X175839418Y-69721161D01*
X175406256Y-69635000D01*
X175113744Y-69635000D01*
X174680582Y-69721161D01*
X174189375Y-70049375D01*
X173990000Y-70347761D01*
X173790625Y-70049375D01*
X173673612Y-69971189D01*
X175119642Y-68525159D01*
X177485000Y-68525159D01*
X177485000Y-69314841D01*
X177787199Y-70044412D01*
X178345588Y-70602801D01*
X179075159Y-70905000D01*
X179864841Y-70905000D01*
X180594412Y-70602801D01*
X181152801Y-70044412D01*
X181285040Y-69725159D01*
X185885000Y-69725159D01*
X185885000Y-70514841D01*
X186187199Y-71244412D01*
X186745588Y-71802801D01*
X187475159Y-72105000D01*
X188264841Y-72105000D01*
X188994412Y-71802801D01*
X189552801Y-71244412D01*
X189855000Y-70514841D01*
X189855000Y-69725159D01*
X189552801Y-68995588D01*
X188994412Y-68437199D01*
X188264841Y-68135000D01*
X187475159Y-68135000D01*
X186745588Y-68437199D01*
X186187199Y-68995588D01*
X185885000Y-69725159D01*
X181285040Y-69725159D01*
X181455000Y-69314841D01*
X181455000Y-68525159D01*
X181152801Y-67795588D01*
X180594412Y-67237199D01*
X179864841Y-66935000D01*
X179075159Y-66935000D01*
X178345588Y-67237199D01*
X177787199Y-67795588D01*
X177485000Y-68525159D01*
X175119642Y-68525159D01*
X179175160Y-64469642D01*
X180410000Y-64469642D01*
X180410000Y-65070358D01*
X180639884Y-65625346D01*
X181064654Y-66050116D01*
X181619642Y-66280000D01*
X182220358Y-66280000D01*
X182775346Y-66050116D01*
X183200116Y-65625346D01*
X183430000Y-65070358D01*
X183430000Y-65055750D01*
X183910000Y-65055750D01*
X183910000Y-65771309D01*
X184006673Y-66004698D01*
X184185301Y-66183327D01*
X184418690Y-66280000D01*
X185134250Y-66280000D01*
X185293000Y-66121250D01*
X185293000Y-64897000D01*
X185547000Y-64897000D01*
X185547000Y-66121250D01*
X185705750Y-66280000D01*
X186421310Y-66280000D01*
X186654699Y-66183327D01*
X186833327Y-66004698D01*
X186930000Y-65771309D01*
X186930000Y-65055750D01*
X186771250Y-64897000D01*
X185547000Y-64897000D01*
X185293000Y-64897000D01*
X184068750Y-64897000D01*
X183910000Y-65055750D01*
X183430000Y-65055750D01*
X183430000Y-64469642D01*
X183200116Y-63914654D01*
X183054153Y-63768691D01*
X183910000Y-63768691D01*
X183910000Y-64484250D01*
X184068750Y-64643000D01*
X185293000Y-64643000D01*
X185293000Y-63418750D01*
X185547000Y-63418750D01*
X185547000Y-64643000D01*
X186771250Y-64643000D01*
X186930000Y-64484250D01*
X186930000Y-63768691D01*
X186833327Y-63535302D01*
X186654699Y-63356673D01*
X186421310Y-63260000D01*
X185705750Y-63260000D01*
X185547000Y-63418750D01*
X185293000Y-63418750D01*
X185134250Y-63260000D01*
X184418690Y-63260000D01*
X184185301Y-63356673D01*
X184006673Y-63535302D01*
X183910000Y-63768691D01*
X183054153Y-63768691D01*
X182775346Y-63489884D01*
X182220358Y-63260000D01*
X181619642Y-63260000D01*
X181064654Y-63489884D01*
X180639884Y-63914654D01*
X180410000Y-64469642D01*
X179175160Y-64469642D01*
X180654803Y-62990000D01*
X189202653Y-62990000D01*
X189277500Y-63004888D01*
X189352347Y-62990000D01*
X189352352Y-62990000D01*
X189574037Y-62945904D01*
X189825429Y-62777929D01*
X189867831Y-62714470D01*
X191162912Y-61419390D01*
X191222071Y-61507929D01*
X191285530Y-61550331D01*
X198037758Y-68302560D01*
X197220000Y-68302560D01*
X196972235Y-68351843D01*
X196762191Y-68492191D01*
X196621843Y-68702235D01*
X196572560Y-68950000D01*
X196572560Y-70750000D01*
X196621843Y-70997765D01*
X196762191Y-71207809D01*
X196972235Y-71348157D01*
X197220000Y-71397440D01*
X199020000Y-71397440D01*
X199267765Y-71348157D01*
X199477809Y-71207809D01*
X199618157Y-70997765D01*
X199621275Y-70982092D01*
X199790493Y-71151310D01*
X200354670Y-71385000D01*
X200965330Y-71385000D01*
X201529507Y-71151310D01*
X201961310Y-70719507D01*
X202195000Y-70155330D01*
X202195000Y-69544670D01*
X201961310Y-68980493D01*
X201529507Y-68548690D01*
X200965330Y-68315000D01*
X200354670Y-68315000D01*
X200245162Y-68360360D01*
X198089802Y-66205000D01*
X198405439Y-66205000D01*
X198932862Y-65986534D01*
X199336534Y-65582862D01*
X199555000Y-65055439D01*
X199555000Y-64484561D01*
X199336534Y-63957138D01*
X198932862Y-63553466D01*
X198405439Y-63335000D01*
X197834561Y-63335000D01*
X197307138Y-63553466D01*
X196903466Y-63957138D01*
X196685000Y-64484561D01*
X196685000Y-64800199D01*
X192825984Y-60941183D01*
X192914523Y-60882023D01*
X193265391Y-60356910D01*
X193357500Y-59893849D01*
X193357500Y-59486150D01*
X193265391Y-59023089D01*
X192914523Y-58497977D01*
X192389410Y-58147109D01*
X191770000Y-58023900D01*
X191150589Y-58147109D01*
X190625477Y-58497977D01*
X190500000Y-58685767D01*
X190374523Y-58497977D01*
X189849410Y-58147109D01*
X189230000Y-58023900D01*
X188610589Y-58147109D01*
X188218509Y-58409088D01*
X188100309Y-58232191D01*
X187890265Y-58091843D01*
X187642500Y-58042560D01*
X185737500Y-58042560D01*
X185489735Y-58091843D01*
X185279691Y-58232191D01*
X185139343Y-58442235D01*
X185090060Y-58690000D01*
X185090060Y-60690000D01*
X185139343Y-60937765D01*
X185279691Y-61147809D01*
X185489735Y-61288157D01*
X185737500Y-61337440D01*
X187642500Y-61337440D01*
X187890265Y-61288157D01*
X188100309Y-61147809D01*
X188218509Y-60970912D01*
X188610590Y-61232891D01*
X189102050Y-61330649D01*
X188962699Y-61470000D01*
X180414846Y-61470000D01*
X180339999Y-61455112D01*
X180265152Y-61470000D01*
X180265148Y-61470000D01*
X180043463Y-61514096D01*
X180043461Y-61514097D01*
X180043462Y-61514097D01*
X179855526Y-61639671D01*
X179855524Y-61639673D01*
X179792071Y-61682071D01*
X179749673Y-61745524D01*
X172235528Y-69259671D01*
X172172072Y-69302071D01*
X172129672Y-69365527D01*
X172129671Y-69365528D01*
X172093886Y-69419084D01*
X165860000Y-63185199D01*
X165860000Y-60110000D01*
X169952560Y-60110000D01*
X169952560Y-61810000D01*
X170001843Y-62057765D01*
X170142191Y-62267809D01*
X170352235Y-62408157D01*
X170600000Y-62457440D01*
X172300000Y-62457440D01*
X172547765Y-62408157D01*
X172757809Y-62267809D01*
X172898157Y-62057765D01*
X172907184Y-62012381D01*
X172919375Y-62030625D01*
X173410582Y-62358839D01*
X173843744Y-62445000D01*
X174136256Y-62445000D01*
X174569418Y-62358839D01*
X175060625Y-62030625D01*
X175388839Y-61539418D01*
X175504092Y-60960000D01*
X175388839Y-60380582D01*
X175060625Y-59889375D01*
X174569418Y-59561161D01*
X174136256Y-59475000D01*
X173843744Y-59475000D01*
X173410582Y-59561161D01*
X172919375Y-59889375D01*
X172907184Y-59907619D01*
X172898157Y-59862235D01*
X172757809Y-59652191D01*
X172547765Y-59511843D01*
X172300000Y-59462560D01*
X170600000Y-59462560D01*
X170352235Y-59511843D01*
X170142191Y-59652191D01*
X170001843Y-59862235D01*
X169952560Y-60110000D01*
X165860000Y-60110000D01*
X165860000Y-57150000D01*
X196656887Y-57150000D01*
X196768260Y-57709909D01*
X197085423Y-58184577D01*
X197560091Y-58501740D01*
X197978667Y-58585000D01*
X198261333Y-58585000D01*
X198679909Y-58501740D01*
X199154577Y-58184577D01*
X199471740Y-57709909D01*
X199583113Y-57150000D01*
X199471740Y-56590091D01*
X199154577Y-56115423D01*
X198679909Y-55798260D01*
X198261333Y-55715000D01*
X197978667Y-55715000D01*
X197560091Y-55798260D01*
X197085423Y-56115423D01*
X196768260Y-56590091D01*
X196656887Y-57150000D01*
X165860000Y-57150000D01*
X165860000Y-54787440D01*
X165900000Y-54787440D01*
X166147765Y-54738157D01*
X166339564Y-54610000D01*
X168665908Y-54610000D01*
X168781161Y-55189418D01*
X169109375Y-55680625D01*
X169600582Y-56008839D01*
X170033744Y-56095000D01*
X170326256Y-56095000D01*
X170759418Y-56008839D01*
X171250625Y-55680625D01*
X171450000Y-55382239D01*
X171649375Y-55680625D01*
X172140582Y-56008839D01*
X172573744Y-56095000D01*
X172866256Y-56095000D01*
X173299418Y-56008839D01*
X173790625Y-55680625D01*
X173802816Y-55662381D01*
X173811843Y-55707765D01*
X173952191Y-55917809D01*
X174162235Y-56058157D01*
X174410000Y-56107440D01*
X176110000Y-56107440D01*
X176357765Y-56058157D01*
X176567809Y-55917809D01*
X176708157Y-55707765D01*
X176757440Y-55460000D01*
X176757440Y-53760000D01*
X176708157Y-53512235D01*
X176567809Y-53302191D01*
X176357765Y-53161843D01*
X176110000Y-53112560D01*
X174410000Y-53112560D01*
X174162235Y-53161843D01*
X173952191Y-53302191D01*
X173811843Y-53512235D01*
X173802816Y-53557619D01*
X173790625Y-53539375D01*
X173299418Y-53211161D01*
X172866256Y-53125000D01*
X172573744Y-53125000D01*
X172140582Y-53211161D01*
X171649375Y-53539375D01*
X171450000Y-53837761D01*
X171250625Y-53539375D01*
X170759418Y-53211161D01*
X170326256Y-53125000D01*
X170033744Y-53125000D01*
X169600582Y-53211161D01*
X169109375Y-53539375D01*
X168781161Y-54030582D01*
X168665908Y-54610000D01*
X166339564Y-54610000D01*
X166357809Y-54597809D01*
X166498157Y-54387765D01*
X166547440Y-54140000D01*
X166547440Y-52540000D01*
X166498157Y-52292235D01*
X166357809Y-52082191D01*
X166147765Y-51941843D01*
X165900000Y-51892560D01*
X164300000Y-51892560D01*
X164052235Y-51941843D01*
X163842191Y-52082191D01*
X163835910Y-52091591D01*
X163385439Y-51905000D01*
X162814561Y-51905000D01*
X162287138Y-52123466D01*
X161883466Y-52527138D01*
X161665000Y-53054561D01*
X161665000Y-53625439D01*
X161883466Y-54152862D01*
X162287138Y-54556534D01*
X162814561Y-54775000D01*
X163385439Y-54775000D01*
X163835910Y-54588409D01*
X163842191Y-54597809D01*
X164052235Y-54738157D01*
X164300000Y-54787440D01*
X164340000Y-54787440D01*
X164340001Y-63425148D01*
X164325112Y-63500000D01*
X164340001Y-63574852D01*
X164384097Y-63796537D01*
X164552072Y-64047929D01*
X164615528Y-64090329D01*
X170147758Y-69622560D01*
X169330000Y-69622560D01*
X169082235Y-69671843D01*
X168872191Y-69812191D01*
X168731843Y-70022235D01*
X168682560Y-70270000D01*
X168682560Y-71970000D01*
X168731843Y-72217765D01*
X168872191Y-72427809D01*
X169082235Y-72568157D01*
X169330000Y-72617440D01*
X171030000Y-72617440D01*
X171277765Y-72568157D01*
X171487809Y-72427809D01*
X171628157Y-72217765D01*
X171637184Y-72172381D01*
X171649375Y-72190625D01*
X171960287Y-72398370D01*
X172004097Y-72618618D01*
X172172072Y-72870010D01*
X172235528Y-72912410D01*
X173374999Y-74051882D01*
X173374999Y-74911797D01*
X173279909Y-74848260D01*
X172861333Y-74765000D01*
X172578667Y-74765000D01*
X172160091Y-74848260D01*
X171685423Y-75165423D01*
X171368260Y-75640091D01*
X171256887Y-76200000D01*
X171368260Y-76759909D01*
X171685423Y-77234577D01*
X172160091Y-77551740D01*
X172578667Y-77635000D01*
X172861333Y-77635000D01*
X173279909Y-77551740D01*
X173374999Y-77488203D01*
X173374999Y-82538077D01*
X173005439Y-82385000D01*
X172434561Y-82385000D01*
X171907138Y-82603466D01*
X171503466Y-83007138D01*
X171285000Y-83534561D01*
X171285000Y-84105439D01*
X171503466Y-84632862D01*
X171907138Y-85036534D01*
X172434561Y-85255000D01*
X173005439Y-85255000D01*
X173375000Y-85101923D01*
X173375000Y-92780147D01*
X173360111Y-92854999D01*
X173419096Y-93151536D01*
X173490186Y-93257929D01*
X173587071Y-93402928D01*
X173650527Y-93445328D01*
X173846897Y-93641698D01*
X173825000Y-93694561D01*
X173825000Y-94265439D01*
X174043466Y-94792862D01*
X174447138Y-95196534D01*
X174974561Y-95415000D01*
X175545439Y-95415000D01*
X176072862Y-95196534D01*
X176476534Y-94792862D01*
X176695000Y-94265439D01*
X176695000Y-93694561D01*
X176476534Y-93167138D01*
X176072862Y-92763466D01*
X175545439Y-92545000D01*
X174974561Y-92545000D01*
X174921698Y-92566897D01*
X174894999Y-92540198D01*
X174894999Y-87870510D01*
X175118667Y-87915000D01*
X175401333Y-87915000D01*
X175819909Y-87831740D01*
X176294577Y-87514577D01*
X176611740Y-87039909D01*
X176723113Y-86480000D01*
X176611740Y-85920091D01*
X176294577Y-85445423D01*
X175819909Y-85128260D01*
X175401333Y-85045000D01*
X175118667Y-85045000D01*
X174894999Y-85089490D01*
X174894999Y-76200000D01*
X175066887Y-76200000D01*
X175178260Y-76759909D01*
X175495423Y-77234577D01*
X175970091Y-77551740D01*
X176388667Y-77635000D01*
X176671333Y-77635000D01*
X177089909Y-77551740D01*
X177564577Y-77234577D01*
X177881740Y-76759909D01*
X177993113Y-76200000D01*
X177881740Y-75640091D01*
X177564577Y-75165423D01*
X177089909Y-74848260D01*
X176671333Y-74765000D01*
X176388667Y-74765000D01*
X175970091Y-74848260D01*
X175495423Y-75165423D01*
X175178260Y-75640091D01*
X175066887Y-76200000D01*
X174894999Y-76200000D01*
X174894999Y-73811928D01*
X174909887Y-73737080D01*
X174894999Y-73662232D01*
X174894999Y-73662228D01*
X174850903Y-73440543D01*
X174850903Y-73440542D01*
X174725328Y-73252607D01*
X174682928Y-73189151D01*
X174619472Y-73146751D01*
X173714326Y-72241606D01*
X173790625Y-72190625D01*
X173990000Y-71892239D01*
X174189375Y-72190625D01*
X174680582Y-72518839D01*
X175113744Y-72605000D01*
X175406256Y-72605000D01*
X175626408Y-72561209D01*
X179794669Y-76729471D01*
X179837070Y-76792928D01*
X180088462Y-76960903D01*
X180310147Y-77004999D01*
X180310152Y-77004999D01*
X180384999Y-77019887D01*
X180459846Y-77004999D01*
X182270199Y-77004999D01*
X176868302Y-82406897D01*
X176815439Y-82385000D01*
X176244561Y-82385000D01*
X175717138Y-82603466D01*
X175313466Y-83007138D01*
X175095000Y-83534561D01*
X175095000Y-84105439D01*
X175313466Y-84632862D01*
X175717138Y-85036534D01*
X176244561Y-85255000D01*
X176815439Y-85255000D01*
X177342862Y-85036534D01*
X177746534Y-84632862D01*
X177965000Y-84105439D01*
X177965000Y-83534561D01*
X177943103Y-83481698D01*
X183194802Y-78230000D01*
X196572560Y-78230000D01*
X196572560Y-78370000D01*
X196621843Y-78617765D01*
X196762191Y-78827809D01*
X196972235Y-78968157D01*
X197220000Y-79017440D01*
X199020000Y-79017440D01*
X199267765Y-78968157D01*
X199477809Y-78827809D01*
X199618157Y-78617765D01*
X199621275Y-78602092D01*
X199790493Y-78771310D01*
X200354670Y-79005000D01*
X200590198Y-79005000D01*
X186840532Y-92754667D01*
X186840526Y-92754671D01*
X172235529Y-107359669D01*
X172235527Y-107359671D01*
X171472964Y-108122235D01*
X171135199Y-108460000D01*
X164556668Y-108460000D01*
X164658113Y-107950000D01*
X164546740Y-107390091D01*
X164229577Y-106915423D01*
X163877242Y-106680000D01*
X164229577Y-106444577D01*
X164546740Y-105969909D01*
X164658113Y-105410000D01*
X164547717Y-104855001D01*
X172598154Y-104855001D01*
X172673001Y-104869889D01*
X172747848Y-104855001D01*
X172747853Y-104855001D01*
X172969538Y-104810905D01*
X173220930Y-104642930D01*
X173263332Y-104579471D01*
X190349473Y-87493331D01*
X190412929Y-87450931D01*
X190580904Y-87199539D01*
X190625000Y-86977854D01*
X190625000Y-86977850D01*
X190639888Y-86903003D01*
X190625000Y-86828156D01*
X190625000Y-81348711D01*
X190742431Y-81231280D01*
X190900000Y-80850874D01*
X190900000Y-80439126D01*
X190742431Y-80058720D01*
X190451280Y-79767569D01*
X190070874Y-79610000D01*
X189659126Y-79610000D01*
X189278720Y-79767569D01*
X188987569Y-80058720D01*
X188830000Y-80439126D01*
X188830000Y-80850874D01*
X188987569Y-81231280D01*
X189105001Y-81348712D01*
X189105000Y-86588200D01*
X173476052Y-102217149D01*
X173386310Y-102000493D01*
X172954507Y-101568690D01*
X172390330Y-101335000D01*
X171779670Y-101335000D01*
X171670161Y-101380360D01*
X171450330Y-101160529D01*
X171407928Y-101097070D01*
X171156536Y-100929095D01*
X170934851Y-100884999D01*
X170934846Y-100884999D01*
X170859999Y-100870111D01*
X170785152Y-100884999D01*
X169904801Y-100884999D01*
X168865242Y-99845440D01*
X170445000Y-99845440D01*
X170692765Y-99796157D01*
X170902809Y-99655809D01*
X171043157Y-99445765D01*
X171046275Y-99430092D01*
X171215493Y-99599310D01*
X171779670Y-99833000D01*
X172390330Y-99833000D01*
X172954507Y-99599310D01*
X173386310Y-99167507D01*
X173620000Y-98603330D01*
X173620000Y-97992670D01*
X173386310Y-97428493D01*
X172954507Y-96996690D01*
X172390330Y-96763000D01*
X171779670Y-96763000D01*
X171580359Y-96845557D01*
X170149801Y-95415000D01*
X170465439Y-95415000D01*
X170992862Y-95196534D01*
X171396534Y-94792862D01*
X171615000Y-94265439D01*
X171615000Y-93694561D01*
X171396534Y-93167138D01*
X170992862Y-92763466D01*
X170465439Y-92545000D01*
X169894561Y-92545000D01*
X169367138Y-92763466D01*
X168963466Y-93167138D01*
X168745000Y-93694561D01*
X168745000Y-94010199D01*
X168375330Y-93640529D01*
X168332928Y-93577070D01*
X168081536Y-93409095D01*
X167859851Y-93364999D01*
X167859846Y-93364999D01*
X167784999Y-93350111D01*
X167710152Y-93364999D01*
X167658203Y-93364999D01*
X167721740Y-93269909D01*
X167833113Y-92710000D01*
X167721740Y-92150091D01*
X167404577Y-91675423D01*
X167130000Y-91491957D01*
X167130000Y-88333711D01*
X167247431Y-88216280D01*
X167405000Y-87835874D01*
X167405000Y-87424126D01*
X167247431Y-87043720D01*
X166956280Y-86752569D01*
X166575874Y-86595000D01*
X166164126Y-86595000D01*
X165783720Y-86752569D01*
X165492569Y-87043720D01*
X165335000Y-87424126D01*
X165335000Y-87835874D01*
X165492569Y-88216280D01*
X165610001Y-88333712D01*
X165610000Y-91491956D01*
X165335423Y-91675423D01*
X165018260Y-92150091D01*
X164906887Y-92710000D01*
X165018260Y-93269909D01*
X165081797Y-93364999D01*
X164483203Y-93364999D01*
X164546740Y-93269909D01*
X164658113Y-92710000D01*
X164546740Y-92150091D01*
X164229577Y-91675423D01*
X163877242Y-91440000D01*
X164229577Y-91204577D01*
X164546740Y-90729909D01*
X164658113Y-90170000D01*
X164546740Y-89610091D01*
X164229577Y-89135423D01*
X163754909Y-88818260D01*
X163336333Y-88735000D01*
X163303431Y-88735000D01*
X167232018Y-84806414D01*
X167462138Y-85036534D01*
X167989561Y-85255000D01*
X168560439Y-85255000D01*
X168613302Y-85233103D01*
X169017328Y-85637130D01*
X168828260Y-85920091D01*
X168716887Y-86480000D01*
X168828260Y-87039909D01*
X169145423Y-87514577D01*
X169620091Y-87831740D01*
X170038667Y-87915000D01*
X170321333Y-87915000D01*
X170739909Y-87831740D01*
X171214577Y-87514577D01*
X171531740Y-87039909D01*
X171643113Y-86480000D01*
X171531740Y-85920091D01*
X171214577Y-85445423D01*
X170739909Y-85128260D01*
X170637739Y-85107937D01*
X169688103Y-84158302D01*
X169710000Y-84105439D01*
X169710000Y-83534561D01*
X169491534Y-83007138D01*
X169087862Y-82603466D01*
X168560439Y-82385000D01*
X167989561Y-82385000D01*
X167462138Y-82603466D01*
X167058466Y-83007138D01*
X167033678Y-83066982D01*
X166847093Y-83104096D01*
X166595701Y-83272071D01*
X166553301Y-83335527D01*
X160478829Y-89410000D01*
X157022440Y-89410000D01*
X157022440Y-89370000D01*
X156973157Y-89122235D01*
X156832809Y-88912191D01*
X156622765Y-88771843D01*
X156375000Y-88722560D01*
X154775000Y-88722560D01*
X154527235Y-88771843D01*
X154317191Y-88912191D01*
X154176843Y-89122235D01*
X154127560Y-89370000D01*
X154127560Y-90970000D01*
X154176843Y-91217765D01*
X154317191Y-91427809D01*
X154527235Y-91568157D01*
X154661106Y-91594785D01*
X154540423Y-91675423D01*
X154223260Y-92150091D01*
X154111887Y-92710000D01*
X154223260Y-93269909D01*
X154286797Y-93364999D01*
X151059847Y-93364999D01*
X150985000Y-93350111D01*
X150910153Y-93364999D01*
X150910149Y-93364999D01*
X150688464Y-93409095D01*
X150437072Y-93577070D01*
X150394673Y-93640525D01*
X140106420Y-103928779D01*
X140003142Y-103886000D01*
X139396858Y-103886000D01*
X139131379Y-103995965D01*
X139089905Y-103787464D01*
X138921930Y-103536072D01*
X138858474Y-103493672D01*
X131021221Y-95656420D01*
X131064000Y-95553142D01*
X131064000Y-94946858D01*
X130831985Y-94386723D01*
X130403277Y-93958015D01*
X130377570Y-93947367D01*
X130432591Y-93782196D01*
X129540000Y-92889605D01*
X128647409Y-93782196D01*
X128702430Y-93947367D01*
X128676723Y-93958015D01*
X128248015Y-94386723D01*
X128016000Y-94946858D01*
X127762000Y-94946858D01*
X127762000Y-92471965D01*
X128004484Y-92471965D01*
X128030277Y-93077700D01*
X128212461Y-93517533D01*
X128467804Y-93602591D01*
X129360395Y-92710000D01*
X129719605Y-92710000D01*
X130612196Y-93602591D01*
X130867539Y-93517533D01*
X131075516Y-92948035D01*
X131049723Y-92342300D01*
X130867539Y-91902467D01*
X130612196Y-91817409D01*
X129719605Y-92710000D01*
X129360395Y-92710000D01*
X128467804Y-91817409D01*
X128212461Y-91902467D01*
X128004484Y-92471965D01*
X127762000Y-92471965D01*
X127762000Y-91637804D01*
X128647409Y-91637804D01*
X129540000Y-92530395D01*
X130432591Y-91637804D01*
X130347533Y-91382461D01*
X129778035Y-91174484D01*
X129172300Y-91200277D01*
X128732467Y-91382461D01*
X128647409Y-91637804D01*
X127762000Y-91637804D01*
X127762000Y-88228834D01*
X130302000Y-88228834D01*
X130302000Y-88936166D01*
X130572684Y-89589656D01*
X131072844Y-90089816D01*
X131726334Y-90360500D01*
X132433666Y-90360500D01*
X133087156Y-90089816D01*
X133587316Y-89589656D01*
X133858000Y-88936166D01*
X133858000Y-88228834D01*
X133587316Y-87575344D01*
X133338830Y-87326858D01*
X135001000Y-87326858D01*
X135001000Y-87933142D01*
X135233015Y-88493277D01*
X135661723Y-88921985D01*
X136221858Y-89154000D01*
X136828142Y-89154000D01*
X137388277Y-88921985D01*
X137816985Y-88493277D01*
X138049000Y-87933142D01*
X138049000Y-87326858D01*
X138006221Y-87223581D01*
X138053803Y-87175999D01*
X141413488Y-87175999D01*
X141351000Y-87326858D01*
X141351000Y-87933142D01*
X141583015Y-88493277D01*
X142011723Y-88921985D01*
X142571858Y-89154000D01*
X143178142Y-89154000D01*
X143738277Y-88921985D01*
X144166985Y-88493277D01*
X144276520Y-88228834D01*
X145542000Y-88228834D01*
X145542000Y-88936166D01*
X145812684Y-89589656D01*
X146312844Y-90089816D01*
X146966334Y-90360500D01*
X147673666Y-90360500D01*
X148327156Y-90089816D01*
X148827316Y-89589656D01*
X149098000Y-88936166D01*
X149098000Y-88228834D01*
X148827316Y-87575344D01*
X148327156Y-87075184D01*
X147673666Y-86804500D01*
X146966334Y-86804500D01*
X146312844Y-87075184D01*
X145812684Y-87575344D01*
X145542000Y-88228834D01*
X144276520Y-88228834D01*
X144399000Y-87933142D01*
X144399000Y-87326858D01*
X144166985Y-86766723D01*
X143738277Y-86338015D01*
X143178142Y-86106000D01*
X142933801Y-86106000D01*
X147616698Y-81423104D01*
X147669561Y-81445000D01*
X148240439Y-81445000D01*
X148767862Y-81226534D01*
X149171534Y-80822862D01*
X149390000Y-80295439D01*
X149390000Y-80010000D01*
X154111887Y-80010000D01*
X154223260Y-80569909D01*
X154540423Y-81044577D01*
X155015091Y-81361740D01*
X155433667Y-81445000D01*
X155716333Y-81445000D01*
X156134909Y-81361740D01*
X156609577Y-81044577D01*
X156926740Y-80569909D01*
X157038113Y-80010000D01*
X156926740Y-79450091D01*
X156609577Y-78975423D01*
X156134909Y-78658260D01*
X155716333Y-78575000D01*
X155433667Y-78575000D01*
X155015091Y-78658260D01*
X154540423Y-78975423D01*
X154223260Y-79450091D01*
X154111887Y-80010000D01*
X149390000Y-80010000D01*
X149390000Y-79724561D01*
X149171534Y-79197138D01*
X148767862Y-78793466D01*
X148240439Y-78575000D01*
X147669561Y-78575000D01*
X147142138Y-78793466D01*
X146738466Y-79197138D01*
X146520000Y-79724561D01*
X146520000Y-80295439D01*
X146541896Y-80348302D01*
X144399000Y-82491198D01*
X144399000Y-82246858D01*
X144166985Y-81686723D01*
X143738277Y-81258015D01*
X143178142Y-81026000D01*
X142571858Y-81026000D01*
X142011723Y-81258015D01*
X141583015Y-81686723D01*
X141351000Y-82246858D01*
X141351000Y-82853142D01*
X141583015Y-83413277D01*
X142011723Y-83841985D01*
X142571858Y-84074000D01*
X142816199Y-84074000D01*
X141234200Y-85655999D01*
X137813849Y-85655999D01*
X137739001Y-85641111D01*
X137664153Y-85655999D01*
X137664149Y-85655999D01*
X137490606Y-85690519D01*
X137442463Y-85700095D01*
X137255419Y-85825075D01*
X137191072Y-85868070D01*
X137148672Y-85931526D01*
X136931419Y-86148779D01*
X136828142Y-86106000D01*
X136221858Y-86106000D01*
X135661723Y-86338015D01*
X135233015Y-86766723D01*
X135001000Y-87326858D01*
X133338830Y-87326858D01*
X133087156Y-87075184D01*
X132433666Y-86804500D01*
X131726334Y-86804500D01*
X131072844Y-87075184D01*
X130572684Y-87575344D01*
X130302000Y-88228834D01*
X127762000Y-88228834D01*
X127762000Y-83622196D01*
X135632409Y-83622196D01*
X135717467Y-83877539D01*
X136286965Y-84085516D01*
X136892700Y-84059723D01*
X137332533Y-83877539D01*
X137417591Y-83622196D01*
X136525000Y-82729605D01*
X135632409Y-83622196D01*
X127762000Y-83622196D01*
X127762000Y-82311965D01*
X134989484Y-82311965D01*
X135015277Y-82917700D01*
X135197461Y-83357533D01*
X135452804Y-83442591D01*
X136345395Y-82550000D01*
X136704605Y-82550000D01*
X137597196Y-83442591D01*
X137852539Y-83357533D01*
X138060516Y-82788035D01*
X138034723Y-82182300D01*
X137852539Y-81742467D01*
X137597196Y-81657409D01*
X136704605Y-82550000D01*
X136345395Y-82550000D01*
X135452804Y-81657409D01*
X135197461Y-81742467D01*
X134989484Y-82311965D01*
X127762000Y-82311965D01*
X127762000Y-81477804D01*
X135632409Y-81477804D01*
X136525000Y-82370395D01*
X137417591Y-81477804D01*
X137332533Y-81222461D01*
X136763035Y-81014484D01*
X136157300Y-81040277D01*
X135717467Y-81222461D01*
X135632409Y-81477804D01*
X127762000Y-81477804D01*
X127762000Y-78622532D01*
X129837073Y-78622532D01*
X129935736Y-78889387D01*
X130545461Y-79115908D01*
X131195460Y-79091856D01*
X131684264Y-78889387D01*
X131782927Y-78622532D01*
X130810000Y-77649605D01*
X129837073Y-78622532D01*
X127762000Y-78622532D01*
X127762000Y-77205461D01*
X129164092Y-77205461D01*
X129188144Y-77855460D01*
X129390613Y-78344264D01*
X129657468Y-78442927D01*
X130630395Y-77470000D01*
X130989605Y-77470000D01*
X131962532Y-78442927D01*
X132229387Y-78344264D01*
X132455908Y-77734539D01*
X132434085Y-77144778D01*
X133675000Y-77144778D01*
X133675000Y-77795222D01*
X133923914Y-78396153D01*
X134383847Y-78856086D01*
X134984778Y-79105000D01*
X135635222Y-79105000D01*
X136236153Y-78856086D01*
X136696086Y-78396153D01*
X136945000Y-77795222D01*
X136945000Y-77144778D01*
X136698238Y-76549041D01*
X166883086Y-76549041D01*
X167122611Y-77055134D01*
X167537577Y-77431041D01*
X167925961Y-77591904D01*
X168148000Y-77469915D01*
X168148000Y-76327000D01*
X168402000Y-76327000D01*
X168402000Y-77469915D01*
X168624039Y-77591904D01*
X169012423Y-77431041D01*
X169427389Y-77055134D01*
X169666914Y-76549041D01*
X169545629Y-76327000D01*
X168402000Y-76327000D01*
X168148000Y-76327000D01*
X167004371Y-76327000D01*
X166883086Y-76549041D01*
X136698238Y-76549041D01*
X136696086Y-76543847D01*
X136236153Y-76083914D01*
X135635222Y-75835000D01*
X134984778Y-75835000D01*
X134383847Y-76083914D01*
X133923914Y-76543847D01*
X133675000Y-77144778D01*
X132434085Y-77144778D01*
X132431856Y-77084540D01*
X132229387Y-76595736D01*
X131962532Y-76497073D01*
X130989605Y-77470000D01*
X130630395Y-77470000D01*
X129657468Y-76497073D01*
X129390613Y-76595736D01*
X129164092Y-77205461D01*
X127762000Y-77205461D01*
X127762000Y-76317468D01*
X129837073Y-76317468D01*
X130810000Y-77290395D01*
X131782927Y-76317468D01*
X131684264Y-76050613D01*
X131074539Y-75824092D01*
X130424540Y-75848144D01*
X129935736Y-76050613D01*
X129837073Y-76317468D01*
X127762000Y-76317468D01*
X127762000Y-74624670D01*
X143325000Y-74624670D01*
X143325000Y-75235330D01*
X143558690Y-75799507D01*
X143990493Y-76231310D01*
X144554670Y-76465000D01*
X145165330Y-76465000D01*
X145729507Y-76231310D01*
X146110000Y-75850817D01*
X146490493Y-76231310D01*
X147054670Y-76465000D01*
X147665330Y-76465000D01*
X148229507Y-76231310D01*
X148450658Y-76010159D01*
X148959446Y-76010159D01*
X149045852Y-76266643D01*
X149619336Y-76476458D01*
X150229460Y-76450839D01*
X150674148Y-76266643D01*
X150760554Y-76010159D01*
X150601354Y-75850959D01*
X166883086Y-75850959D01*
X167004371Y-76073000D01*
X168148000Y-76073000D01*
X168148000Y-74930085D01*
X168402000Y-74930085D01*
X168402000Y-76073000D01*
X169545629Y-76073000D01*
X169666914Y-75850959D01*
X169427389Y-75344866D01*
X169012423Y-74968959D01*
X168624039Y-74808096D01*
X168402000Y-74930085D01*
X168148000Y-74930085D01*
X167925961Y-74808096D01*
X167537577Y-74968959D01*
X167122611Y-75344866D01*
X166883086Y-75850959D01*
X150601354Y-75850959D01*
X149860000Y-75109605D01*
X148959446Y-76010159D01*
X148450658Y-76010159D01*
X148661310Y-75799507D01*
X148664539Y-75791710D01*
X148779841Y-75830554D01*
X149680395Y-74930000D01*
X150039605Y-74930000D01*
X150940159Y-75830554D01*
X151196643Y-75744148D01*
X151406458Y-75170664D01*
X151380839Y-74560540D01*
X151196643Y-74115852D01*
X150940159Y-74029446D01*
X150039605Y-74930000D01*
X149680395Y-74930000D01*
X148779841Y-74029446D01*
X148664539Y-74068290D01*
X148661310Y-74060493D01*
X148450658Y-73849841D01*
X148959446Y-73849841D01*
X149860000Y-74750395D01*
X150760554Y-73849841D01*
X150674148Y-73593357D01*
X150139485Y-73397745D01*
X156651861Y-73397745D01*
X156725995Y-73643864D01*
X157263223Y-73836965D01*
X157833454Y-73809778D01*
X158234005Y-73643864D01*
X158308139Y-73397745D01*
X157480000Y-72569605D01*
X156651861Y-73397745D01*
X150139485Y-73397745D01*
X150100664Y-73383542D01*
X149490540Y-73409161D01*
X149045852Y-73593357D01*
X148959446Y-73849841D01*
X148450658Y-73849841D01*
X148229507Y-73628690D01*
X147665330Y-73395000D01*
X147054670Y-73395000D01*
X146490493Y-73628690D01*
X146110000Y-74009183D01*
X145729507Y-73628690D01*
X145165330Y-73395000D01*
X144554670Y-73395000D01*
X143990493Y-73628690D01*
X143558690Y-74060493D01*
X143325000Y-74624670D01*
X127762000Y-74624670D01*
X127762000Y-72122532D01*
X129837073Y-72122532D01*
X129935736Y-72389387D01*
X130545461Y-72615908D01*
X131195460Y-72591856D01*
X131684264Y-72389387D01*
X131782927Y-72122532D01*
X130810000Y-71149605D01*
X129837073Y-72122532D01*
X127762000Y-72122532D01*
X127762000Y-70705461D01*
X129164092Y-70705461D01*
X129188144Y-71355460D01*
X129390613Y-71844264D01*
X129657468Y-71942927D01*
X130630395Y-70970000D01*
X130989605Y-70970000D01*
X131962532Y-71942927D01*
X132229387Y-71844264D01*
X132455908Y-71234539D01*
X132434085Y-70644778D01*
X133675000Y-70644778D01*
X133675000Y-71295222D01*
X133923914Y-71896153D01*
X134383847Y-72356086D01*
X134984778Y-72605000D01*
X135635222Y-72605000D01*
X136236153Y-72356086D01*
X136419016Y-72173223D01*
X156033035Y-72173223D01*
X156060222Y-72743454D01*
X156226136Y-73144005D01*
X156472255Y-73218139D01*
X157300395Y-72390000D01*
X157659605Y-72390000D01*
X158487745Y-73218139D01*
X158733864Y-73144005D01*
X158926965Y-72606777D01*
X158899778Y-72036546D01*
X158733864Y-71635995D01*
X158487745Y-71561861D01*
X157659605Y-72390000D01*
X157300395Y-72390000D01*
X156472255Y-71561861D01*
X156226136Y-71635995D01*
X156033035Y-72173223D01*
X136419016Y-72173223D01*
X136696086Y-71896153D01*
X136908949Y-71382255D01*
X156651861Y-71382255D01*
X157480000Y-72210395D01*
X158308139Y-71382255D01*
X158234005Y-71136136D01*
X157696777Y-70943035D01*
X157126546Y-70970222D01*
X156725995Y-71136136D01*
X156651861Y-71382255D01*
X136908949Y-71382255D01*
X136945000Y-71295222D01*
X136945000Y-70644778D01*
X136696086Y-70043847D01*
X136236153Y-69583914D01*
X135635222Y-69335000D01*
X134984778Y-69335000D01*
X134383847Y-69583914D01*
X133923914Y-70043847D01*
X133675000Y-70644778D01*
X132434085Y-70644778D01*
X132431856Y-70584540D01*
X132229387Y-70095736D01*
X131962532Y-69997073D01*
X130989605Y-70970000D01*
X130630395Y-70970000D01*
X129657468Y-69997073D01*
X129390613Y-70095736D01*
X129164092Y-70705461D01*
X127762000Y-70705461D01*
X127762000Y-69817468D01*
X129837073Y-69817468D01*
X130810000Y-70790395D01*
X131782927Y-69817468D01*
X131684264Y-69550613D01*
X131074539Y-69324092D01*
X130424540Y-69348144D01*
X129935736Y-69550613D01*
X129837073Y-69817468D01*
X127762000Y-69817468D01*
X127762000Y-65140000D01*
X129262560Y-65140000D01*
X129262560Y-66940000D01*
X129311843Y-67187765D01*
X129452191Y-67397809D01*
X129662235Y-67538157D01*
X129910000Y-67587440D01*
X131710000Y-67587440D01*
X131957765Y-67538157D01*
X132167809Y-67397809D01*
X132300058Y-67199886D01*
X132334890Y-67234718D01*
X132449447Y-67120161D01*
X132535852Y-67376643D01*
X133109336Y-67586458D01*
X133719460Y-67560839D01*
X134164148Y-67376643D01*
X134250553Y-67120161D01*
X134365110Y-67234718D01*
X134399942Y-67199886D01*
X134532191Y-67397809D01*
X134742235Y-67538157D01*
X134990000Y-67587440D01*
X136790000Y-67587440D01*
X137037765Y-67538157D01*
X137247809Y-67397809D01*
X137388157Y-67187765D01*
X137391275Y-67172092D01*
X137560493Y-67341310D01*
X138124670Y-67575000D01*
X138735330Y-67575000D01*
X139143655Y-67405866D01*
X140325000Y-67405866D01*
X140325000Y-68454134D01*
X140726155Y-69422608D01*
X141467392Y-70163845D01*
X142435866Y-70565000D01*
X143484134Y-70565000D01*
X144452608Y-70163845D01*
X145193845Y-69422608D01*
X145595000Y-68454134D01*
X145595000Y-67405866D01*
X149125000Y-67405866D01*
X149125000Y-68454134D01*
X149526155Y-69422608D01*
X150267392Y-70163845D01*
X151235866Y-70565000D01*
X152284134Y-70565000D01*
X153252608Y-70163845D01*
X153993845Y-69422608D01*
X154395000Y-68454134D01*
X154395000Y-67405866D01*
X154237059Y-67024561D01*
X161665000Y-67024561D01*
X161665000Y-67595439D01*
X161883466Y-68122862D01*
X162287138Y-68526534D01*
X162814561Y-68745000D01*
X163385439Y-68745000D01*
X163846144Y-68554170D01*
X163940302Y-68648327D01*
X164173691Y-68745000D01*
X164814250Y-68745000D01*
X164973000Y-68586250D01*
X164973000Y-67437000D01*
X165227000Y-67437000D01*
X165227000Y-68586250D01*
X165385750Y-68745000D01*
X166026309Y-68745000D01*
X166259698Y-68648327D01*
X166438327Y-68469699D01*
X166535000Y-68236310D01*
X166535000Y-67595750D01*
X166376250Y-67437000D01*
X165227000Y-67437000D01*
X164973000Y-67437000D01*
X164953000Y-67437000D01*
X164953000Y-67183000D01*
X164973000Y-67183000D01*
X164973000Y-66033750D01*
X165227000Y-66033750D01*
X165227000Y-67183000D01*
X166376250Y-67183000D01*
X166535000Y-67024250D01*
X166535000Y-66383690D01*
X166438327Y-66150301D01*
X166259698Y-65971673D01*
X166026309Y-65875000D01*
X165385750Y-65875000D01*
X165227000Y-66033750D01*
X164973000Y-66033750D01*
X164814250Y-65875000D01*
X164173691Y-65875000D01*
X163940302Y-65971673D01*
X163846144Y-66065830D01*
X163385439Y-65875000D01*
X162814561Y-65875000D01*
X162287138Y-66093466D01*
X161883466Y-66497138D01*
X161665000Y-67024561D01*
X154237059Y-67024561D01*
X153993845Y-66437392D01*
X153252608Y-65696155D01*
X152284134Y-65295000D01*
X151235866Y-65295000D01*
X150267392Y-65696155D01*
X149526155Y-66437392D01*
X149125000Y-67405866D01*
X145595000Y-67405866D01*
X145193845Y-66437392D01*
X144452608Y-65696155D01*
X143484134Y-65295000D01*
X142435866Y-65295000D01*
X141467392Y-65696155D01*
X140726155Y-66437392D01*
X140325000Y-67405866D01*
X139143655Y-67405866D01*
X139299507Y-67341310D01*
X139731310Y-66909507D01*
X139965000Y-66345330D01*
X139965000Y-65734670D01*
X139731310Y-65170493D01*
X139450817Y-64890000D01*
X156016887Y-64890000D01*
X156128260Y-65449909D01*
X156445423Y-65924577D01*
X156920091Y-66241740D01*
X157338667Y-66325000D01*
X157621333Y-66325000D01*
X158039909Y-66241740D01*
X158514577Y-65924577D01*
X158831740Y-65449909D01*
X158943113Y-64890000D01*
X158831740Y-64330091D01*
X158514577Y-63855423D01*
X158039909Y-63538260D01*
X157621333Y-63455000D01*
X157338667Y-63455000D01*
X156920091Y-63538260D01*
X156445423Y-63855423D01*
X156128260Y-64330091D01*
X156016887Y-64890000D01*
X139450817Y-64890000D01*
X139299507Y-64738690D01*
X138735330Y-64505000D01*
X138124670Y-64505000D01*
X137560493Y-64738690D01*
X137391275Y-64907908D01*
X137388157Y-64892235D01*
X137247809Y-64682191D01*
X137037765Y-64541843D01*
X136790000Y-64492560D01*
X136650000Y-64492560D01*
X136650000Y-60928430D01*
X136702862Y-60906534D01*
X137106534Y-60502862D01*
X137325000Y-59975439D01*
X137325000Y-59404561D01*
X137106534Y-58877138D01*
X136919396Y-58690000D01*
X152070060Y-58690000D01*
X152070060Y-60690000D01*
X152119343Y-60937765D01*
X152259691Y-61147809D01*
X152469735Y-61288157D01*
X152717500Y-61337440D01*
X154622500Y-61337440D01*
X154870265Y-61288157D01*
X155080309Y-61147809D01*
X155198509Y-60970912D01*
X155590590Y-61232891D01*
X156210000Y-61356100D01*
X156829411Y-61232891D01*
X157354523Y-60882023D01*
X157489159Y-60680526D01*
X157883076Y-61065973D01*
X158377020Y-61280563D01*
X158623000Y-61160594D01*
X158623000Y-59817000D01*
X158877000Y-59817000D01*
X158877000Y-61160594D01*
X159122980Y-61280563D01*
X159616924Y-61065973D01*
X160059318Y-60633091D01*
X160302380Y-60063864D01*
X160175572Y-59817000D01*
X158877000Y-59817000D01*
X158623000Y-59817000D01*
X158603000Y-59817000D01*
X158603000Y-59563000D01*
X158623000Y-59563000D01*
X158623000Y-58219406D01*
X158877000Y-58219406D01*
X158877000Y-59563000D01*
X160175572Y-59563000D01*
X160302380Y-59316136D01*
X160059318Y-58746909D01*
X159616924Y-58314027D01*
X159122980Y-58099437D01*
X158877000Y-58219406D01*
X158623000Y-58219406D01*
X158377020Y-58099437D01*
X157883076Y-58314027D01*
X157489159Y-58699474D01*
X157354523Y-58497977D01*
X156829410Y-58147109D01*
X156210000Y-58023900D01*
X155590589Y-58147109D01*
X155198509Y-58409088D01*
X155080309Y-58232191D01*
X154870265Y-58091843D01*
X154622500Y-58042560D01*
X152717500Y-58042560D01*
X152469735Y-58091843D01*
X152259691Y-58232191D01*
X152119343Y-58442235D01*
X152070060Y-58690000D01*
X136919396Y-58690000D01*
X136702862Y-58473466D01*
X136175439Y-58255000D01*
X135604561Y-58255000D01*
X135077138Y-58473466D01*
X134673466Y-58877138D01*
X134455000Y-59404561D01*
X134455000Y-59975439D01*
X134673466Y-60502862D01*
X135077138Y-60906534D01*
X135130001Y-60928431D01*
X135130000Y-64492560D01*
X134990000Y-64492560D01*
X134742235Y-64541843D01*
X134532191Y-64682191D01*
X134399942Y-64880114D01*
X134365110Y-64845282D01*
X134250553Y-64959839D01*
X134164148Y-64703357D01*
X133590664Y-64493542D01*
X132980540Y-64519161D01*
X132535852Y-64703357D01*
X132449447Y-64959839D01*
X132334890Y-64845282D01*
X132300058Y-64880114D01*
X132167809Y-64682191D01*
X131957765Y-64541843D01*
X131710000Y-64492560D01*
X131570000Y-64492560D01*
X131570000Y-60928430D01*
X131622862Y-60906534D01*
X132026534Y-60502862D01*
X132245000Y-59975439D01*
X132245000Y-59404561D01*
X132026534Y-58877138D01*
X131622862Y-58473466D01*
X131095439Y-58255000D01*
X130524561Y-58255000D01*
X129997138Y-58473466D01*
X129593466Y-58877138D01*
X129375000Y-59404561D01*
X129375000Y-59975439D01*
X129593466Y-60502862D01*
X129997138Y-60906534D01*
X130050001Y-60928431D01*
X130050000Y-64492560D01*
X129910000Y-64492560D01*
X129662235Y-64541843D01*
X129452191Y-64682191D01*
X129311843Y-64892235D01*
X129262560Y-65140000D01*
X127762000Y-65140000D01*
X127762000Y-52070000D01*
X129346887Y-52070000D01*
X129458260Y-52629909D01*
X129775423Y-53104577D01*
X130250091Y-53421740D01*
X130668667Y-53505000D01*
X130951333Y-53505000D01*
X131369909Y-53421740D01*
X131844577Y-53104577D01*
X132161740Y-52629909D01*
X132273113Y-52070000D01*
X134426887Y-52070000D01*
X134538260Y-52629909D01*
X134855423Y-53104577D01*
X135330091Y-53421740D01*
X135748667Y-53505000D01*
X136031333Y-53505000D01*
X136449909Y-53421740D01*
X136924577Y-53104577D01*
X137241740Y-52629909D01*
X137353113Y-52070000D01*
X137241740Y-51510091D01*
X136924577Y-51035423D01*
X136449909Y-50718260D01*
X136031333Y-50635000D01*
X135748667Y-50635000D01*
X135330091Y-50718260D01*
X134855423Y-51035423D01*
X134538260Y-51510091D01*
X134426887Y-52070000D01*
X132273113Y-52070000D01*
X132161740Y-51510091D01*
X131844577Y-51035423D01*
X131369909Y-50718260D01*
X130951333Y-50635000D01*
X130668667Y-50635000D01*
X130250091Y-50718260D01*
X129775423Y-51035423D01*
X129458260Y-51510091D01*
X129346887Y-52070000D01*
X127762000Y-52070000D01*
X127762000Y-49582606D01*
X128322606Y-49022000D01*
X146778780Y-49022000D01*
X145931456Y-49869324D01*
G36*
X133543748Y-66025858D02*
X133529605Y-66040000D01*
X133543748Y-66054143D01*
X133364143Y-66233748D01*
X133350000Y-66219605D01*
X133335858Y-66233748D01*
X133156253Y-66054143D01*
X133170395Y-66040000D01*
X133156253Y-66025858D01*
X133335858Y-65846253D01*
X133350000Y-65860395D01*
X133364143Y-65846253D01*
X133543748Y-66025858D01*
X133543748Y-66025858D01*
G37*
X133543748Y-66025858D02*
X133529605Y-66040000D01*
X133543748Y-66054143D01*
X133364143Y-66233748D01*
X133350000Y-66219605D01*
X133335858Y-66233748D01*
X133156253Y-66054143D01*
X133170395Y-66040000D01*
X133156253Y-66025858D01*
X133335858Y-65846253D01*
X133350000Y-65860395D01*
X133364143Y-65846253D01*
X133543748Y-66025858D01*
G04 #@! TD*
M02*
