G04 #@! TF.GenerationSoftware,KiCad,Pcbnew,(5.0.2)-1*
G04 #@! TF.CreationDate,2019-01-29T22:31:09-07:00*
G04 #@! TF.ProjectId,Controller,436f6e74-726f-46c6-9c65-722e6b696361,rev?*
G04 #@! TF.SameCoordinates,Original*
G04 #@! TF.FileFunction,Copper,L1,Top*
G04 #@! TF.FilePolarity,Positive*
%FSLAX46Y46*%
G04 Gerber Fmt 4.6, Leading zero omitted, Abs format (unit mm)*
G04 Created by KiCad (PCBNEW (5.0.2)-1) date 1/29/2019 10:31:09 PM*
%MOMM*%
%LPD*%
G01*
G04 APERTURE LIST*
G04 #@! TA.AperFunction,ComponentPad*
%ADD10C,1.600000*%
G04 #@! TD*
G04 #@! TA.AperFunction,ComponentPad*
%ADD11O,1.600000X1.600000*%
G04 #@! TD*
G04 #@! TA.AperFunction,ComponentPad*
%ADD12C,1.778000*%
G04 #@! TD*
G04 #@! TA.AperFunction,ComponentPad*
%ADD13C,2.286000*%
G04 #@! TD*
G04 #@! TA.AperFunction,ComponentPad*
%ADD14R,1.600000X1.600000*%
G04 #@! TD*
G04 #@! TA.AperFunction,ComponentPad*
%ADD15R,1.800000X1.800000*%
G04 #@! TD*
G04 #@! TA.AperFunction,ComponentPad*
%ADD16C,1.800000*%
G04 #@! TD*
G04 #@! TA.AperFunction,ComponentPad*
%ADD17R,1.700000X1.700000*%
G04 #@! TD*
G04 #@! TA.AperFunction,ComponentPad*
%ADD18O,1.700000X1.700000*%
G04 #@! TD*
G04 #@! TA.AperFunction,ComponentPad*
%ADD19C,2.000000*%
G04 #@! TD*
G04 #@! TA.AperFunction,ComponentPad*
%ADD20O,1.905000X2.000000*%
G04 #@! TD*
G04 #@! TA.AperFunction,ComponentPad*
%ADD21R,1.905000X2.000000*%
G04 #@! TD*
G04 #@! TA.AperFunction,ComponentPad*
%ADD22R,1.750000X1.750000*%
G04 #@! TD*
G04 #@! TA.AperFunction,ComponentPad*
%ADD23C,1.750000*%
G04 #@! TD*
G04 #@! TA.AperFunction,ComponentPad*
%ADD24C,2.700000*%
G04 #@! TD*
G04 #@! TA.AperFunction,WasherPad*
%ADD25C,4.000000*%
G04 #@! TD*
G04 #@! TA.AperFunction,ComponentPad*
%ADD26C,1.524000*%
G04 #@! TD*
G04 #@! TA.AperFunction,ComponentPad*
%ADD27R,1.524000X1.524000*%
G04 #@! TD*
G04 #@! TA.AperFunction,ComponentPad*
%ADD28C,1.500000*%
G04 #@! TD*
G04 #@! TA.AperFunction,ViaPad*
%ADD29C,6.500000*%
G04 #@! TD*
G04 #@! TA.AperFunction,ViaPad*
%ADD30C,0.800000*%
G04 #@! TD*
G04 #@! TA.AperFunction,Conductor*
%ADD31C,0.250000*%
G04 #@! TD*
G04 #@! TA.AperFunction,Conductor*
%ADD32C,0.254000*%
G04 #@! TD*
G04 APERTURE END LIST*
D10*
G04 #@! TO.P,C7,1*
G04 #@! TO.N,XTAL2*
X143510000Y-118745000D03*
D11*
G04 #@! TO.P,C7,2*
G04 #@! TO.N,GND*
X136010000Y-118745000D03*
G04 #@! TD*
D12*
G04 #@! TO.P,U5,V3*
G04 #@! TO.N,GND*
X129540000Y-97790000D03*
G04 #@! TO.P,U5,V2*
G04 #@! TO.N,A2*
X129540000Y-95250000D03*
G04 #@! TO.P,U5,V1*
G04 #@! TO.N,5V*
X129540000Y-92710000D03*
D13*
G04 #@! TO.P,U5,MOUN*
G04 #@! TO.N,N/C*
X147320000Y-88582500D03*
X147320000Y-101917500D03*
X132080000Y-101917500D03*
X132080000Y-88582500D03*
D12*
G04 #@! TO.P,U5,H3*
G04 #@! TO.N,GND*
X142240000Y-105410000D03*
G04 #@! TO.P,U5,H2*
G04 #@! TO.N,A3*
X139700000Y-105410000D03*
G04 #@! TO.P,U5,H1*
G04 #@! TO.N,5V*
X137160000Y-105410000D03*
G04 #@! TO.P,U5,B2B*
G04 #@! TO.N,N/C*
X142875000Y-87630000D03*
G04 #@! TO.P,U5,B2A*
G04 #@! TO.N,D3*
X136525000Y-87630000D03*
G04 #@! TO.P,U5,B1B*
G04 #@! TO.N,N/C*
X142875000Y-82550000D03*
G04 #@! TO.P,U5,B1A*
G04 #@! TO.N,5V*
X136525000Y-82550000D03*
G04 #@! TD*
D10*
G04 #@! TO.P,R14,1*
G04 #@! TO.N,D3*
X193040000Y-115570000D03*
D11*
G04 #@! TO.P,R14,2*
G04 #@! TO.N,GND*
X193040000Y-123190000D03*
G04 #@! TD*
D12*
G04 #@! TO.P,U6,V3*
G04 #@! TO.N,GND*
X195580000Y-97790000D03*
G04 #@! TO.P,U6,V2*
G04 #@! TO.N,A4*
X195580000Y-95250000D03*
G04 #@! TO.P,U6,V1*
G04 #@! TO.N,5V*
X195580000Y-92710000D03*
D13*
G04 #@! TO.P,U6,MOUN*
G04 #@! TO.N,N/C*
X213360000Y-88582500D03*
X213360000Y-101917500D03*
X198120000Y-101917500D03*
X198120000Y-88582500D03*
D12*
G04 #@! TO.P,U6,H3*
G04 #@! TO.N,GND*
X208280000Y-105410000D03*
G04 #@! TO.P,U6,H2*
G04 #@! TO.N,A5*
X205740000Y-105410000D03*
G04 #@! TO.P,U6,H1*
G04 #@! TO.N,5V*
X203200000Y-105410000D03*
G04 #@! TO.P,U6,B2B*
G04 #@! TO.N,N/C*
X208915000Y-87630000D03*
G04 #@! TO.P,U6,B2A*
G04 #@! TO.N,D5*
X202565000Y-87630000D03*
G04 #@! TO.P,U6,B1B*
G04 #@! TO.N,N/C*
X208915000Y-82550000D03*
G04 #@! TO.P,U6,B1A*
G04 #@! TO.N,5V*
X202565000Y-82550000D03*
G04 #@! TD*
D14*
G04 #@! TO.P,C1,1*
G04 #@! TO.N,5V*
X165100000Y-67310000D03*
D10*
G04 #@! TO.P,C1,2*
G04 #@! TO.N,GND*
X163100000Y-67310000D03*
G04 #@! TD*
G04 #@! TO.P,C2,2*
G04 #@! TO.N,GND*
X163100000Y-53340000D03*
D14*
G04 #@! TO.P,C2,1*
G04 #@! TO.N,3V3*
X165100000Y-53340000D03*
G04 #@! TD*
D10*
G04 #@! TO.P,C3,1*
G04 #@! TO.N,5V*
X157480000Y-72390000D03*
D11*
G04 #@! TO.P,C3,2*
G04 #@! TO.N,GND*
X157480000Y-64890000D03*
G04 #@! TD*
D10*
G04 #@! TO.P,C4,1*
G04 #@! TO.N,3V3*
X176530000Y-93980000D03*
D11*
G04 #@! TO.P,C4,2*
G04 #@! TO.N,GND*
X176530000Y-86480000D03*
G04 #@! TD*
G04 #@! TO.P,C5,2*
G04 #@! TO.N,RST*
X172720000Y-86480000D03*
D10*
G04 #@! TO.P,C5,1*
G04 #@! TO.N,DTR*
X172720000Y-93980000D03*
G04 #@! TD*
G04 #@! TO.P,C6,1*
G04 #@! TO.N,XTAL1*
X144145000Y-114935000D03*
D11*
G04 #@! TO.P,C6,2*
G04 #@! TO.N,GND*
X136645000Y-114935000D03*
G04 #@! TD*
D15*
G04 #@! TO.P,D1,1*
G04 #@! TO.N,Net-(D1-Pad1)*
X198120000Y-77470000D03*
D16*
G04 #@! TO.P,D1,2*
G04 #@! TO.N,RF1*
X200660000Y-77470000D03*
G04 #@! TD*
G04 #@! TO.P,D2,2*
G04 #@! TO.N,RF2*
X147320000Y-77470000D03*
D15*
G04 #@! TO.P,D2,1*
G04 #@! TO.N,Net-(D2-Pad1)*
X144780000Y-77470000D03*
G04 #@! TD*
G04 #@! TO.P,D3,1*
G04 #@! TO.N,Net-(D3-Pad1)*
X198120000Y-69850000D03*
D16*
G04 #@! TO.P,D3,2*
G04 #@! TO.N,3V3*
X200660000Y-69850000D03*
G04 #@! TD*
G04 #@! TO.P,D4,2*
G04 #@! TO.N,5V*
X147320000Y-69850000D03*
D15*
G04 #@! TO.P,D4,1*
G04 #@! TO.N,Net-(D4-Pad1)*
X144780000Y-69850000D03*
G04 #@! TD*
G04 #@! TO.P,D5,1*
G04 #@! TO.N,Net-(D5-Pad1)*
X167005000Y-87630000D03*
D16*
G04 #@! TO.P,D5,2*
G04 #@! TO.N,TX*
X169545000Y-87630000D03*
G04 #@! TD*
D15*
G04 #@! TO.P,D6,1*
G04 #@! TO.N,Net-(D6-Pad1)*
X167005000Y-92710000D03*
D16*
G04 #@! TO.P,D6,2*
G04 #@! TO.N,RX*
X169545000Y-92710000D03*
G04 #@! TD*
G04 #@! TO.P,D7,2*
G04 #@! TO.N,D13*
X200660000Y-111760000D03*
D15*
G04 #@! TO.P,D7,1*
G04 #@! TO.N,Net-(D7-Pad1)*
X198120000Y-111760000D03*
G04 #@! TD*
G04 #@! TO.P,D8,1*
G04 #@! TO.N,Net-(D8-Pad1)*
X146050000Y-121920000D03*
D16*
G04 #@! TO.P,D8,2*
G04 #@! TO.N,D6*
X148590000Y-121920000D03*
G04 #@! TD*
G04 #@! TO.P,D9,2*
G04 #@! TO.N,D9*
X198120000Y-122555000D03*
D15*
G04 #@! TO.P,D9,1*
G04 #@! TO.N,Net-(D9-Pad1)*
X200660000Y-122555000D03*
G04 #@! TD*
D16*
G04 #@! TO.P,D10,2*
G04 #@! TO.N,D10*
X198120000Y-116840000D03*
D15*
G04 #@! TO.P,D10,1*
G04 #@! TO.N,Net-(D10-Pad1)*
X200660000Y-116840000D03*
G04 #@! TD*
D17*
G04 #@! TO.P,J1,1*
G04 #@! TO.N,GND*
X215265000Y-109220000D03*
D18*
G04 #@! TO.P,J1,2*
G04 #@! TO.N,Net-(J1-Pad2)*
X215265000Y-111760000D03*
G04 #@! TO.P,J1,3*
G04 #@! TO.N,VCC*
X215265000Y-114300000D03*
G04 #@! TO.P,J1,4*
G04 #@! TO.N,RX*
X215265000Y-116840000D03*
G04 #@! TO.P,J1,5*
G04 #@! TO.N,TX*
X215265000Y-119380000D03*
G04 #@! TO.P,J1,6*
G04 #@! TO.N,DTR*
X215265000Y-121920000D03*
G04 #@! TD*
D17*
G04 #@! TO.P,J2,1*
G04 #@! TO.N,BATT*
X171450000Y-60960000D03*
D18*
G04 #@! TO.P,J2,2*
G04 #@! TO.N,GND*
X173990000Y-60960000D03*
G04 #@! TD*
D10*
G04 #@! TO.P,R1,1*
G04 #@! TO.N,Net-(D1-Pad1)*
X176530000Y-83820000D03*
D11*
G04 #@! TO.P,R1,2*
G04 #@! TO.N,GND*
X176530000Y-76200000D03*
G04 #@! TD*
G04 #@! TO.P,R2,2*
G04 #@! TO.N,GND*
X151130000Y-64770000D03*
D10*
G04 #@! TO.P,R2,1*
G04 #@! TO.N,Net-(D2-Pad1)*
X151130000Y-72390000D03*
G04 #@! TD*
G04 #@! TO.P,R3,1*
G04 #@! TO.N,Net-(D3-Pad1)*
X198120000Y-64770000D03*
D11*
G04 #@! TO.P,R3,2*
G04 #@! TO.N,GND*
X198120000Y-57150000D03*
G04 #@! TD*
G04 #@! TO.P,R4,2*
G04 #@! TO.N,GND*
X147320000Y-57150000D03*
D10*
G04 #@! TO.P,R4,1*
G04 #@! TO.N,Net-(D4-Pad1)*
X147320000Y-64770000D03*
G04 #@! TD*
G04 #@! TO.P,R5,1*
G04 #@! TO.N,Net-(D5-Pad1)*
X159385000Y-83820000D03*
D11*
G04 #@! TO.P,R5,2*
G04 #@! TO.N,GND*
X159385000Y-76200000D03*
G04 #@! TD*
G04 #@! TO.P,R6,2*
G04 #@! TO.N,GND*
X163830000Y-76200000D03*
D10*
G04 #@! TO.P,R6,1*
G04 #@! TO.N,Net-(D6-Pad1)*
X163830000Y-83820000D03*
G04 #@! TD*
G04 #@! TO.P,R7,1*
G04 #@! TO.N,Net-(D7-Pad1)*
X210820000Y-111760000D03*
D11*
G04 #@! TO.P,R7,2*
G04 #@! TO.N,GND*
X203200000Y-111760000D03*
G04 #@! TD*
D10*
G04 #@! TO.P,R8,1*
G04 #@! TO.N,Net-(D8-Pad1)*
X142875000Y-122555000D03*
D11*
G04 #@! TO.P,R8,2*
G04 #@! TO.N,GND*
X135255000Y-122555000D03*
G04 #@! TD*
D10*
G04 #@! TO.P,R9,1*
G04 #@! TO.N,Net-(D9-Pad1)*
X203200000Y-121920000D03*
D11*
G04 #@! TO.P,R9,2*
G04 #@! TO.N,GND*
X210820000Y-121920000D03*
G04 #@! TD*
G04 #@! TO.P,R10,2*
G04 #@! TO.N,GND*
X210820000Y-116840000D03*
D10*
G04 #@! TO.P,R10,1*
G04 #@! TO.N,Net-(D10-Pad1)*
X203200000Y-116840000D03*
G04 #@! TD*
G04 #@! TO.P,R11,1*
G04 #@! TO.N,D2*
X144145000Y-111125000D03*
D11*
G04 #@! TO.P,R11,2*
G04 #@! TO.N,GND*
X136525000Y-111125000D03*
G04 #@! TD*
G04 #@! TO.P,R12,2*
G04 #@! TO.N,GND*
X172720000Y-76200000D03*
D10*
G04 #@! TO.P,R12,1*
G04 #@! TO.N,D4*
X172720000Y-83820000D03*
G04 #@! TD*
G04 #@! TO.P,R13,1*
G04 #@! TO.N,RST*
X168275000Y-83820000D03*
D11*
G04 #@! TO.P,R13,2*
G04 #@! TO.N,5V*
X168275000Y-76200000D03*
G04 #@! TD*
D10*
G04 #@! TO.P,R15,1*
G04 #@! TO.N,D5*
X193675000Y-80645000D03*
D11*
G04 #@! TO.P,R15,2*
G04 #@! TO.N,GND*
X193675000Y-73025000D03*
G04 #@! TD*
D19*
G04 #@! TO.P,SW1,2*
G04 #@! TO.N,D4*
X168910000Y-119435000D03*
G04 #@! TO.P,SW1,1*
G04 #@! TO.N,5V*
X168910000Y-114935000D03*
G04 #@! TO.P,SW1,2*
G04 #@! TO.N,D4*
X175410000Y-119435000D03*
G04 #@! TO.P,SW1,1*
G04 #@! TO.N,5V*
X175410000Y-114935000D03*
G04 #@! TD*
G04 #@! TO.P,SW2,1*
G04 #@! TO.N,5V*
X151130000Y-76685000D03*
G04 #@! TO.P,SW2,2*
G04 #@! TO.N,D2*
X155630000Y-76685000D03*
G04 #@! TO.P,SW2,1*
G04 #@! TO.N,5V*
X151130000Y-83185000D03*
G04 #@! TO.P,SW2,2*
G04 #@! TO.N,D2*
X155630000Y-83185000D03*
G04 #@! TD*
D18*
G04 #@! TO.P,SW3,3*
G04 #@! TO.N,BATT*
X170180000Y-54610000D03*
G04 #@! TO.P,SW3,2*
G04 #@! TO.N,+BATT*
X172720000Y-54610000D03*
D17*
G04 #@! TO.P,SW3,1*
G04 #@! TO.N,Net-(SW3-Pad1)*
X175260000Y-54610000D03*
G04 #@! TD*
G04 #@! TO.P,SW4,1*
G04 #@! TO.N,RF2*
X170180000Y-71120000D03*
D18*
G04 #@! TO.P,SW4,2*
G04 #@! TO.N,3V3*
X172720000Y-71120000D03*
G04 #@! TO.P,SW4,3*
G04 #@! TO.N,RF1*
X175260000Y-71120000D03*
G04 #@! TD*
D20*
G04 #@! TO.P,U1,3*
G04 #@! TO.N,5V*
X158750000Y-59690000D03*
G04 #@! TO.P,U1,2*
G04 #@! TO.N,GND*
X156210000Y-59690000D03*
D21*
G04 #@! TO.P,U1,1*
G04 #@! TO.N,BATT*
X153670000Y-59690000D03*
G04 #@! TD*
G04 #@! TO.P,U2,1*
G04 #@! TO.N,BATT*
X186690000Y-59690000D03*
D20*
G04 #@! TO.P,U2,2*
G04 #@! TO.N,GND*
X189230000Y-59690000D03*
G04 #@! TO.P,U2,3*
G04 #@! TO.N,3V3*
X191770000Y-59690000D03*
G04 #@! TD*
D22*
G04 #@! TO.P,U3,1*
G04 #@! TO.N,5V*
X185420000Y-64770000D03*
D23*
G04 #@! TO.P,U3,2*
G04 #@! TO.N,A0*
X181920000Y-64770000D03*
G04 #@! TO.P,U3,3*
G04 #@! TO.N,GND*
X185420000Y-123270000D03*
D24*
G04 #@! TO.P,U3,MP*
G04 #@! TO.N,N/C*
X187870000Y-70120000D03*
X187870000Y-117920000D03*
X179470000Y-68920000D03*
X179470000Y-119120000D03*
G04 #@! TD*
D16*
G04 #@! TO.P,U4,3*
G04 #@! TO.N,GND*
X173910000Y-97790000D03*
G04 #@! TO.P,U4,2*
G04 #@! TO.N,A1*
X171410000Y-97790000D03*
G04 #@! TO.P,U4,1*
G04 #@! TO.N,5V*
X168910000Y-97790000D03*
D25*
G04 #@! TO.P,U4,*
G04 #@! TO.N,*
X175810000Y-104790000D03*
X167010000Y-104790000D03*
G04 #@! TD*
D14*
G04 #@! TO.P,U7,1*
G04 #@! TO.N,RST*
X155575000Y-90170000D03*
D11*
G04 #@! TO.P,U7,15*
G04 #@! TO.N,D9*
X163195000Y-123190000D03*
G04 #@! TO.P,U7,2*
G04 #@! TO.N,RX*
X155575000Y-92710000D03*
G04 #@! TO.P,U7,16*
G04 #@! TO.N,D10*
X163195000Y-120650000D03*
G04 #@! TO.P,U7,3*
G04 #@! TO.N,TX*
X155575000Y-95250000D03*
G04 #@! TO.P,U7,17*
G04 #@! TO.N,D11*
X163195000Y-118110000D03*
G04 #@! TO.P,U7,4*
G04 #@! TO.N,D2*
X155575000Y-97790000D03*
G04 #@! TO.P,U7,18*
G04 #@! TO.N,D12*
X163195000Y-115570000D03*
G04 #@! TO.P,U7,5*
G04 #@! TO.N,D3*
X155575000Y-100330000D03*
G04 #@! TO.P,U7,19*
G04 #@! TO.N,D13*
X163195000Y-113030000D03*
G04 #@! TO.P,U7,6*
G04 #@! TO.N,D4*
X155575000Y-102870000D03*
G04 #@! TO.P,U7,20*
G04 #@! TO.N,AVCC*
X163195000Y-110490000D03*
G04 #@! TO.P,U7,7*
G04 #@! TO.N,5V*
X155575000Y-105410000D03*
G04 #@! TO.P,U7,21*
G04 #@! TO.N,AREF*
X163195000Y-107950000D03*
G04 #@! TO.P,U7,8*
G04 #@! TO.N,GND*
X155575000Y-107950000D03*
G04 #@! TO.P,U7,22*
X163195000Y-105410000D03*
G04 #@! TO.P,U7,9*
G04 #@! TO.N,XTAL1*
X155575000Y-110490000D03*
G04 #@! TO.P,U7,23*
G04 #@! TO.N,A0*
X163195000Y-102870000D03*
G04 #@! TO.P,U7,10*
G04 #@! TO.N,XTAL2*
X155575000Y-113030000D03*
G04 #@! TO.P,U7,24*
G04 #@! TO.N,A1*
X163195000Y-100330000D03*
G04 #@! TO.P,U7,11*
G04 #@! TO.N,D5*
X155575000Y-115570000D03*
G04 #@! TO.P,U7,25*
G04 #@! TO.N,A2*
X163195000Y-97790000D03*
G04 #@! TO.P,U7,12*
G04 #@! TO.N,D6*
X155575000Y-118110000D03*
G04 #@! TO.P,U7,26*
G04 #@! TO.N,A3*
X163195000Y-95250000D03*
G04 #@! TO.P,U7,13*
G04 #@! TO.N,D7*
X155575000Y-120650000D03*
G04 #@! TO.P,U7,27*
G04 #@! TO.N,A4*
X163195000Y-92710000D03*
G04 #@! TO.P,U7,14*
G04 #@! TO.N,D8*
X155575000Y-123190000D03*
G04 #@! TO.P,U7,28*
G04 #@! TO.N,A5*
X163195000Y-90170000D03*
G04 #@! TD*
D26*
G04 #@! TO.P,U24L1,8*
G04 #@! TO.N,D8*
X212090000Y-74930000D03*
G04 #@! TO.P,U24L1,7*
G04 #@! TO.N,D12*
X212090000Y-77470000D03*
G04 #@! TO.P,U24L1,6*
G04 #@! TO.N,D11*
X209550000Y-74930000D03*
G04 #@! TO.P,U24L1,5*
G04 #@! TO.N,D13*
X209550000Y-77470000D03*
G04 #@! TO.P,U24L1,4*
G04 #@! TO.N,Net-(U24L1-Pad4)*
X207010000Y-74930000D03*
G04 #@! TO.P,U24L1,3*
G04 #@! TO.N,D7*
X207010000Y-77470000D03*
G04 #@! TO.P,U24L1,2*
G04 #@! TO.N,RF1*
X204470000Y-74930000D03*
D27*
G04 #@! TO.P,U24L1,1*
G04 #@! TO.N,GND*
X204470000Y-77470000D03*
G04 #@! TD*
G04 #@! TO.P,U24L2,1*
G04 #@! TO.N,GND*
X129540000Y-77470000D03*
D26*
G04 #@! TO.P,U24L2,2*
G04 #@! TO.N,RF2*
X129540000Y-74930000D03*
G04 #@! TO.P,U24L2,3*
G04 #@! TO.N,D7*
X132080000Y-77470000D03*
G04 #@! TO.P,U24L2,4*
G04 #@! TO.N,Net-(U24L2-Pad4)*
X132080000Y-74930000D03*
G04 #@! TO.P,U24L2,5*
G04 #@! TO.N,D13*
X134620000Y-77470000D03*
G04 #@! TO.P,U24L2,6*
G04 #@! TO.N,D11*
X134620000Y-74930000D03*
G04 #@! TO.P,U24L2,7*
G04 #@! TO.N,D12*
X137160000Y-77470000D03*
G04 #@! TO.P,U24L2,8*
G04 #@! TO.N,D8*
X137160000Y-74930000D03*
G04 #@! TD*
D28*
G04 #@! TO.P,Y1,1*
G04 #@! TO.N,XTAL1*
X150495000Y-110490000D03*
G04 #@! TO.P,Y1,2*
G04 #@! TO.N,XTAL2*
X150495000Y-115370000D03*
G04 #@! TD*
D29*
G04 #@! TO.N,*
X189865000Y-52070000D03*
X193040000Y-107950000D03*
X131445000Y-115570000D03*
D30*
G04 #@! TO.N,GND*
X181610000Y-89535000D03*
X184150000Y-92075000D03*
X182880000Y-96520000D03*
G04 #@! TO.N,5V*
X158115000Y-101600000D03*
X166370000Y-95250000D03*
X142240000Y-74930000D03*
X172720000Y-99060000D03*
X170815000Y-110490000D03*
G04 #@! TO.N,GND*
X202565000Y-78740000D03*
D29*
G04 #@! TO.N,*
X149225000Y-52070000D03*
D30*
G04 #@! TO.N,GND*
X203200000Y-109220000D03*
X208915000Y-79375000D03*
X144780000Y-102235000D03*
X178435000Y-96520000D03*
X176530000Y-97790000D03*
X180340000Y-87630000D03*
X182880000Y-94615000D03*
X170180000Y-102870000D03*
G04 #@! TO.N,D13*
X172085000Y-112395000D03*
X175895000Y-112395000D03*
G04 #@! TO.N,D2*
X152400000Y-97790000D03*
X149858590Y-102870000D03*
X152400000Y-95250000D03*
X157480000Y-97790000D03*
G04 #@! TO.N,D3*
X165100000Y-107950000D03*
X168275000Y-109220000D03*
G04 #@! TO.N,D5*
X180975000Y-93980000D03*
X180975000Y-102235000D03*
G04 #@! TO.N,A0*
X179705000Y-94615000D03*
X179705000Y-100965000D03*
G04 #@! TO.N,A1*
X167640000Y-99695000D03*
X170180000Y-99060000D03*
G04 #@! TO.N,A3*
X146685000Y-99695000D03*
X147955000Y-95885000D03*
G04 #@! TO.N,A4*
X165100000Y-92710000D03*
X165100000Y-95815685D03*
X177800000Y-99695000D03*
X183515000Y-101600000D03*
X188595000Y-99695000D03*
X190500000Y-98425000D03*
G04 #@! TO.N,A5*
X167005000Y-90170000D03*
X176530000Y-90170000D03*
G04 #@! TD*
D31*
G04 #@! TO.N,5V*
X168910000Y-97790000D02*
X166370000Y-95250000D01*
X166370000Y-95250000D02*
X166370000Y-95250000D01*
X165970001Y-94850001D02*
X166370000Y-95250000D01*
X164864999Y-94850001D02*
X165970001Y-94850001D01*
X164374999Y-95340001D02*
X164864999Y-94850001D01*
X162706409Y-98915001D02*
X163735001Y-98915001D01*
X163735001Y-98915001D02*
X164374999Y-98275003D01*
X164374999Y-98275003D02*
X164374999Y-95340001D01*
X176409999Y-113935001D02*
X175410000Y-114935000D01*
X176620001Y-113724999D02*
X176409999Y-113935001D01*
X176620001Y-112046999D02*
X176620001Y-113724999D01*
X176243001Y-111669999D02*
X176620001Y-112046999D01*
X171736999Y-111669999D02*
X176243001Y-111669999D01*
X169909999Y-113496999D02*
X171736999Y-111669999D01*
X169909999Y-113935001D02*
X169909999Y-113496999D01*
X168910000Y-114935000D02*
X169909999Y-113935001D01*
X169831999Y-99785001D02*
X172629999Y-99785001D01*
X168910000Y-97790000D02*
X168910000Y-98863002D01*
X168910000Y-98863002D02*
X169831999Y-99785001D01*
X172629999Y-99785001D02*
X172720000Y-99060000D01*
X172720000Y-99060000D02*
X172629999Y-99150001D01*
X162069999Y-99551411D02*
X162706409Y-98915001D01*
G04 #@! TO.N,GND*
X203200000Y-111760000D02*
X203200000Y-109220000D01*
X204470000Y-78482000D02*
X205363000Y-79375000D01*
X205363000Y-79375000D02*
X208915000Y-79375000D01*
X208915000Y-79375000D02*
X208915000Y-79375000D01*
X143128999Y-104521001D02*
X143128999Y-103886001D01*
X142240000Y-105410000D02*
X143128999Y-104521001D01*
X143128999Y-103886001D02*
X144780000Y-102235000D01*
X144780000Y-102235000D02*
X144780000Y-102235000D01*
X173910000Y-97790000D02*
X176530000Y-97790000D01*
X180340000Y-88265000D02*
X181610000Y-89535000D01*
X180340000Y-87630000D02*
X180340000Y-88265000D01*
X178435000Y-96520000D02*
X182880000Y-96520000D01*
X184150000Y-92075000D02*
X184150000Y-93345000D01*
X184150000Y-93345000D02*
X182880000Y-94615000D01*
X182880000Y-94615000D02*
X182880000Y-94615000D01*
X204470000Y-78482000D02*
X204470000Y-77470000D01*
X204212000Y-78740000D02*
X204470000Y-78482000D01*
X202565000Y-78740000D02*
X204212000Y-78740000D01*
X162948998Y-105410000D02*
X165893999Y-102464999D01*
X169774999Y-102464999D02*
X170180000Y-102870000D01*
X170180000Y-102870000D02*
X169774999Y-102464999D01*
X165893999Y-102464999D02*
X169774999Y-102464999D01*
G04 #@! TO.N,3V3*
X200660000Y-54610000D02*
X200660000Y-69850000D01*
X200025000Y-53975000D02*
X200660000Y-54610000D01*
X197437500Y-53975000D02*
X200025000Y-53975000D01*
X191770000Y-59642500D02*
X197437500Y-53975000D01*
X172720000Y-67310000D02*
X172720000Y-71120000D01*
X177165000Y-62865000D02*
X172720000Y-67310000D01*
X188642500Y-62865000D02*
X177165000Y-62865000D01*
X191770000Y-59690000D02*
X191770000Y-59737500D01*
X191770000Y-59737500D02*
X188642500Y-62865000D01*
X166150000Y-53340000D02*
X168055000Y-51435000D01*
X165100000Y-53340000D02*
X166150000Y-53340000D01*
X168055000Y-51435000D02*
X179070000Y-51435000D01*
X191770000Y-59642500D02*
X191770000Y-59690000D01*
X183562500Y-51435000D02*
X191770000Y-59642500D01*
X179070000Y-51435000D02*
X183562500Y-51435000D01*
X172720000Y-71120000D02*
X172720000Y-72390000D01*
X172720000Y-72390000D02*
X174625000Y-74295000D01*
X174625000Y-92075000D02*
X176530000Y-93980000D01*
X174625000Y-74295000D02*
X174625000Y-92075000D01*
G04 #@! TO.N,RST*
X170935000Y-86480000D02*
X172720000Y-86480000D01*
X168275000Y-83820000D02*
X170935000Y-86480000D01*
X167475001Y-83020001D02*
X168275000Y-83820000D01*
X166699990Y-82244990D02*
X167475001Y-83020001D01*
X158658598Y-82244990D02*
X166699990Y-82244990D01*
X155575000Y-85328588D02*
X158658598Y-82244990D01*
X155575000Y-90170000D02*
X155575000Y-85328588D01*
G04 #@! TO.N,DTR*
X216890010Y-116726008D02*
X215703994Y-115539992D01*
X215265000Y-121920000D02*
X216890010Y-120294990D01*
X216890010Y-120294990D02*
X216890010Y-116726008D01*
X172720000Y-93980000D02*
X174174991Y-95434991D01*
G04 #@! TO.N,XTAL1*
X148590000Y-110490000D02*
X150495000Y-110490000D01*
X150495000Y-110490000D02*
X155575000Y-110490000D01*
X144145000Y-114935000D02*
X148590000Y-110490000D01*
G04 #@! TO.N,XTAL2*
X152835000Y-113030000D02*
X155575000Y-113030000D01*
X150495000Y-115370000D02*
X152835000Y-113030000D01*
X147520000Y-115370000D02*
X150495000Y-115370000D01*
X144145000Y-118745000D02*
X147520000Y-115370000D01*
G04 #@! TO.N,Net-(D1-Pad1)*
X182880000Y-77470000D02*
X176530000Y-83820000D01*
X198120000Y-77470000D02*
X182880000Y-77470000D01*
G04 #@! TO.N,RF1*
X203200000Y-74930000D02*
X204470000Y-74930000D01*
X200660000Y-77470000D02*
X203200000Y-74930000D01*
X186390998Y-71120000D02*
X187660998Y-72390000D01*
X175260000Y-71120000D02*
X186390998Y-71120000D01*
X187660998Y-72390000D02*
X189865000Y-72390000D01*
X199760001Y-76570001D02*
X200660000Y-77470000D01*
X194945000Y-71755000D02*
X199760001Y-76570001D01*
X190500000Y-71755000D02*
X194945000Y-71755000D01*
X189865000Y-72390000D02*
X190500000Y-71755000D01*
G04 #@! TO.N,RF2*
X137795000Y-67945000D02*
X147320000Y-77470000D01*
X133350000Y-67945000D02*
X137795000Y-67945000D01*
X129540000Y-74930000D02*
X129540000Y-71755000D01*
X129540000Y-71755000D02*
X133350000Y-67945000D01*
X169080000Y-71120000D02*
X170180000Y-71120000D01*
X165125001Y-75074999D02*
X169080000Y-71120000D01*
X149715001Y-75074999D02*
X165125001Y-75074999D01*
X147320000Y-77470000D02*
X149715001Y-75074999D01*
G04 #@! TO.N,Net-(D3-Pad1)*
X198120000Y-69850000D02*
X198120000Y-64770000D01*
G04 #@! TO.N,Net-(D4-Pad1)*
X144780000Y-67310000D02*
X147320000Y-64770000D01*
X144780000Y-69850000D02*
X144780000Y-67310000D01*
G04 #@! TO.N,Net-(D5-Pad1)*
X163195000Y-87630000D02*
X159385000Y-83820000D01*
X167005000Y-87630000D02*
X163195000Y-87630000D01*
G04 #@! TO.N,RX*
X216440001Y-118015001D02*
X216114999Y-117689999D01*
X216440001Y-119944001D02*
X216440001Y-118015001D01*
X212869999Y-120555001D02*
X215829001Y-120555001D01*
X208913590Y-116598592D02*
X212869999Y-120555001D01*
X216114999Y-117689999D02*
X215265000Y-116840000D01*
X208913590Y-113665000D02*
X208913590Y-116598592D01*
X187325000Y-113665000D02*
X208913590Y-113665000D01*
X184150000Y-110490000D02*
X187325000Y-113665000D01*
X184150000Y-104140000D02*
X184150000Y-110490000D01*
X176530000Y-96520000D02*
X184150000Y-104140000D01*
X215829001Y-120555001D02*
X216440001Y-119944001D01*
X170180000Y-96520000D02*
X176530000Y-96520000D01*
X169545000Y-95885000D02*
X170180000Y-96520000D01*
X169545000Y-92710000D02*
X169545000Y-95885000D01*
X168645001Y-93609999D02*
X169545000Y-92710000D01*
X168130001Y-94124999D02*
X168645001Y-93609999D01*
X156989999Y-94124999D02*
X168130001Y-94124999D01*
X155575000Y-92710000D02*
X156989999Y-94124999D01*
G04 #@! TO.N,Net-(D6-Pad1)*
X167005000Y-91560000D02*
X167005000Y-92710000D01*
X168230001Y-90334999D02*
X167005000Y-91560000D01*
X168230001Y-86469999D02*
X168230001Y-90334999D01*
X165580002Y-83820000D02*
X168230001Y-86469999D01*
X163830000Y-83820000D02*
X165580002Y-83820000D01*
G04 #@! TO.N,D13*
X172085000Y-112395000D02*
X175895000Y-112395000D01*
G04 #@! TO.N,Net-(D8-Pad1)*
X145415000Y-122555000D02*
X146050000Y-121920000D01*
X142875000Y-122555000D02*
X145415000Y-122555000D01*
G04 #@! TO.N,D6*
X151765000Y-121920000D02*
X155575000Y-118110000D01*
X148590000Y-121920000D02*
X151765000Y-121920000D01*
G04 #@! TO.N,D9*
X163994999Y-122390001D02*
X163195000Y-123190000D01*
X164729999Y-121655001D02*
X163994999Y-122390001D01*
X197220001Y-121655001D02*
X164729999Y-121655001D01*
X198120000Y-122555000D02*
X197220001Y-121655001D01*
G04 #@! TO.N,Net-(D9-Pad1)*
X202565000Y-122555000D02*
X203200000Y-121920000D01*
X200660000Y-122555000D02*
X202565000Y-122555000D01*
G04 #@! TO.N,D10*
X164326370Y-120650000D02*
X163195000Y-120650000D01*
X164881361Y-121204991D02*
X164326370Y-120650000D01*
X193755009Y-121204991D02*
X164881361Y-121204991D01*
X198120000Y-116840000D02*
X193755009Y-121204991D01*
G04 #@! TO.N,Net-(D10-Pad1)*
X200660000Y-116840000D02*
X203200000Y-116840000D01*
G04 #@! TO.N,BATT*
X153670000Y-59642500D02*
X156162500Y-57150000D01*
X153670000Y-59690000D02*
X153670000Y-59642500D01*
X167640000Y-57150000D02*
X170180000Y-54610000D01*
X156162500Y-57150000D02*
X167640000Y-57150000D01*
X167640000Y-57150000D02*
X171450000Y-60960000D01*
X175260000Y-59690000D02*
X170180000Y-54610000D01*
X186690000Y-59690000D02*
X175260000Y-59690000D01*
G04 #@! TO.N,D2*
X155630000Y-78099213D02*
X155630000Y-83185000D01*
X155630000Y-76685000D02*
X155630000Y-78099213D01*
X148788001Y-106481999D02*
X148788001Y-103306999D01*
X144145000Y-111125000D02*
X148788001Y-106481999D01*
X155575000Y-97790000D02*
X152400000Y-97790000D01*
X152400000Y-97790000D02*
X152400000Y-97790000D01*
X149225000Y-102870000D02*
X148788001Y-103306999D01*
X149858590Y-102870000D02*
X149225000Y-102870000D01*
X153999990Y-84815010D02*
X153999990Y-93650010D01*
X155630000Y-83185000D02*
X153999990Y-84815010D01*
X153999990Y-93650010D02*
X152400000Y-95250000D01*
X152400000Y-95250000D02*
X152400000Y-95250000D01*
X155575000Y-97790000D02*
X157480000Y-97790000D01*
X157480000Y-97790000D02*
X157480000Y-97790000D01*
G04 #@! TO.N,D4*
X168910000Y-119435000D02*
X175410000Y-119435000D01*
X163919999Y-114444999D02*
X161434999Y-114444999D01*
X168910000Y-119435000D02*
X163919999Y-114444999D01*
X161434999Y-114444999D02*
X158750000Y-111760000D01*
X158750000Y-106045000D02*
X155575000Y-102870000D01*
X158750000Y-111760000D02*
X158750000Y-106045000D01*
X156115001Y-116695001D02*
X158565010Y-114244992D01*
X154449999Y-116110001D02*
X155034999Y-116695001D01*
X155034999Y-114444999D02*
X154449999Y-115029999D01*
X157664990Y-112843600D02*
X156063591Y-114444999D01*
X157664990Y-107499990D02*
X157664990Y-112843600D01*
X158565010Y-114244992D02*
X158565010Y-105860010D01*
X156989999Y-106824999D02*
X157664990Y-107499990D01*
X155083589Y-106824999D02*
X156989999Y-106824999D01*
X156374999Y-103669999D02*
X155575000Y-102870000D01*
X144722591Y-96464001D02*
X155083589Y-106824999D01*
X128957279Y-96464001D02*
X144722591Y-96464001D01*
X128325999Y-95832721D02*
X128957279Y-96464001D01*
X128325999Y-72332591D02*
X128325999Y-95832721D01*
X133163599Y-67494991D02*
X128325999Y-72332591D01*
X155034999Y-116695001D02*
X156115001Y-116695001D01*
X137981400Y-67494990D02*
X133163599Y-67494991D01*
X156063591Y-114444999D02*
X155034999Y-114444999D01*
X145111399Y-74624989D02*
X137981400Y-67494990D01*
X154449999Y-115029999D02*
X154449999Y-116110001D01*
X149791389Y-69944999D02*
X145111399Y-74624989D01*
X158565010Y-105860010D02*
X156374999Y-103669999D01*
X171290001Y-69944999D02*
X149791389Y-69944999D01*
X171450000Y-70104998D02*
X171290001Y-69944999D01*
X171450000Y-82550000D02*
X171450000Y-70104998D01*
X172720000Y-83820000D02*
X171450000Y-82550000D01*
G04 #@! TO.N,D3*
X149225000Y-100330000D02*
X155575000Y-100330000D01*
X136525000Y-87630000D02*
X149225000Y-100330000D01*
X188593590Y-115570000D02*
X182243590Y-109220000D01*
X193040000Y-115570000D02*
X188593590Y-115570000D01*
X182243590Y-109220000D02*
X168275000Y-109220000D01*
X161780001Y-106535001D02*
X163685001Y-106535001D01*
X155575000Y-100330000D02*
X161780001Y-106535001D01*
X163685001Y-106535001D02*
X165100000Y-107950000D01*
X165100000Y-107950000D02*
X165100000Y-107950000D01*
X168275000Y-109220000D02*
X168275000Y-109220000D01*
G04 #@! TO.N,D5*
X196379999Y-81444999D02*
X202565000Y-87630000D01*
X193675000Y-80645000D02*
X194474999Y-81444999D01*
X194474999Y-81444999D02*
X196379999Y-81444999D01*
X163445003Y-111904999D02*
X161145001Y-111904999D01*
X173605003Y-101744999D02*
X163445003Y-111904999D01*
X161145001Y-106774999D02*
X155970002Y-101600000D01*
X161145001Y-111904999D02*
X161145001Y-106774999D01*
X155084999Y-104284999D02*
X156065001Y-104284999D01*
X154449999Y-103649999D02*
X155084999Y-104284999D01*
X154449999Y-102329999D02*
X154449999Y-103649999D01*
X155970002Y-101600000D02*
X155179998Y-101600000D01*
X155179998Y-101600000D02*
X154449999Y-102329999D01*
X156065001Y-104284999D02*
X158115000Y-106334998D01*
X158115000Y-113030000D02*
X155575000Y-115570000D01*
X158115000Y-106334998D02*
X158115000Y-113030000D01*
X180484999Y-101744999D02*
X180975000Y-102235000D01*
X179705000Y-101744999D02*
X180484999Y-101744999D01*
X179705000Y-101744999D02*
X173605003Y-101744999D01*
X179849999Y-101744999D02*
X179705000Y-101744999D01*
X180975000Y-93345000D02*
X193675000Y-80645000D01*
X180975000Y-93980000D02*
X180975000Y-93345000D01*
G04 #@! TO.N,A0*
X179070000Y-93980000D02*
X179070000Y-93980000D01*
X179870998Y-64770000D02*
X181920000Y-64770000D01*
X174084999Y-70555999D02*
X179870998Y-64770000D01*
X174084999Y-72089997D02*
X174084999Y-70555999D01*
X175404999Y-73409997D02*
X174084999Y-72089997D01*
X179705000Y-94615000D02*
X175404999Y-90314999D01*
X175404999Y-90314999D02*
X175404999Y-73409997D01*
X165100000Y-100965000D02*
X163195000Y-102870000D01*
X179705000Y-100965000D02*
X165100000Y-100965000D01*
G04 #@! TO.N,A1*
X163195000Y-100330000D02*
X167005000Y-100330000D01*
X167005000Y-100330000D02*
X167640000Y-99695000D01*
X167640000Y-99695000D02*
X167640000Y-99695000D01*
X170180000Y-99020000D02*
X171410000Y-97790000D01*
X170180000Y-99060000D02*
X170180000Y-99020000D01*
G04 #@! TO.N,A2*
X137107721Y-86415999D02*
X147356721Y-96664999D01*
X135942279Y-86415999D02*
X137107721Y-86415999D01*
X135310999Y-87047279D02*
X135942279Y-86415999D01*
X135310999Y-89479001D02*
X135310999Y-87047279D01*
X129540000Y-95250000D02*
X135310999Y-89479001D01*
X162395001Y-98589999D02*
X163195000Y-97790000D01*
X162069999Y-98915001D02*
X162395001Y-98589999D01*
X150060003Y-98915001D02*
X162069999Y-98915001D01*
X147810001Y-96664999D02*
X150060003Y-98915001D01*
X147356721Y-96664999D02*
X147810001Y-96664999D01*
G04 #@! TO.N,A3*
X144660501Y-100449499D02*
X145930501Y-100449499D01*
X139700000Y-105410000D02*
X144660501Y-100449499D01*
X145930501Y-100449499D02*
X146685000Y-99695000D01*
X146685000Y-99695000D02*
X146685000Y-99695000D01*
X162395001Y-96049999D02*
X163195000Y-95250000D01*
X161925000Y-96520000D02*
X162395001Y-96049999D01*
X148590000Y-96520000D02*
X161925000Y-96520000D01*
X147955000Y-95885000D02*
X148590000Y-96520000D01*
G04 #@! TO.N,TX*
X187281411Y-112985001D02*
X187095010Y-112798600D01*
X215265000Y-119380000D02*
X208870001Y-112985001D01*
X208870001Y-112985001D02*
X187281411Y-112985001D01*
X187095010Y-112798600D02*
X186690000Y-112393590D01*
X186690000Y-112393590D02*
X186691410Y-112395000D01*
X170815000Y-90805000D02*
X169545000Y-89535000D01*
X170999990Y-96069990D02*
X170815000Y-95885000D01*
X184785000Y-110488590D02*
X184785000Y-104138590D01*
X186690000Y-112393590D02*
X184785000Y-110488590D01*
X184785000Y-104138590D02*
X176531410Y-95885000D01*
X176531410Y-95885000D02*
X175260000Y-95885000D01*
X170815000Y-95885000D02*
X170815000Y-90805000D01*
X175260000Y-95885000D02*
X175075010Y-96069990D01*
X169545000Y-89535000D02*
X169545000Y-87630000D01*
X175075010Y-96069990D02*
X170999990Y-96069990D01*
X169545000Y-87148588D02*
X169545000Y-87630000D01*
X165091411Y-82694999D02*
X169545000Y-87148588D01*
X158259999Y-83279999D02*
X158844999Y-82694999D01*
X159793607Y-85893609D02*
X158259999Y-84360001D01*
X159793607Y-91295001D02*
X159793607Y-85893609D01*
X158259999Y-84360001D02*
X158259999Y-83279999D01*
X155084999Y-91295001D02*
X159793607Y-91295001D01*
X154449999Y-91930001D02*
X155084999Y-91295001D01*
X158844999Y-82694999D02*
X165091411Y-82694999D01*
X154449999Y-94124999D02*
X154449999Y-91930001D01*
X155575000Y-95250000D02*
X154449999Y-94124999D01*
G04 #@! TO.N,DTR*
X199378779Y-103385501D02*
X204578278Y-108585000D01*
X193370510Y-103385501D02*
X199378779Y-103385501D01*
X185420000Y-95434991D02*
X193370510Y-103385501D01*
X185420000Y-95434991D02*
X185604991Y-95434991D01*
X174174991Y-95434991D02*
X185420000Y-95434991D01*
X209310002Y-108585000D02*
X212725000Y-111999998D01*
X204578278Y-108585000D02*
X209310002Y-108585000D01*
X214765990Y-115539992D02*
X215703994Y-115539992D01*
X212725000Y-113499002D02*
X214765990Y-115539992D01*
X212725000Y-111999998D02*
X212725000Y-113499002D01*
G04 #@! TO.N,A4*
X163195000Y-92710000D02*
X165100000Y-92710000D01*
X165100000Y-92710000D02*
X165100000Y-92710000D01*
X183515000Y-101600000D02*
X186055000Y-101600000D01*
X186055000Y-101600000D02*
X187960000Y-99695000D01*
X187960000Y-99695000D02*
X188595000Y-99695000D01*
X195580000Y-95250000D02*
X193675000Y-95250000D01*
X193675000Y-95250000D02*
X190500000Y-98425000D01*
X188595000Y-99695000D02*
X188595000Y-99695000D01*
X190500000Y-98425000D02*
X190500000Y-98425000D01*
X177400001Y-100094999D02*
X177800000Y-99695000D01*
X177114999Y-100380001D02*
X177400001Y-100094999D01*
X169664316Y-100380001D02*
X177114999Y-100380001D01*
X165100000Y-95815685D02*
X169664316Y-100380001D01*
G04 #@! TO.N,A5*
X163195000Y-90170000D02*
X167005000Y-90170000D01*
X167005000Y-90170000D02*
X167005000Y-90170000D01*
X205740000Y-104152765D02*
X205740000Y-105410000D01*
X205740000Y-89008278D02*
X205740000Y-104152765D01*
X196251721Y-79519999D02*
X205740000Y-89008278D01*
X187180001Y-79519999D02*
X196251721Y-79519999D01*
X176530000Y-90170000D02*
X187180001Y-79519999D01*
G04 #@! TD*
D32*
G04 #@! TO.N,5V*
G36*
X217678000Y-49582606D02*
X217678000Y-123137394D01*
X215847394Y-124968000D01*
X129578452Y-124968000D01*
X127826804Y-123800235D01*
X127804933Y-123753756D01*
X127762000Y-123528693D01*
X127762000Y-122555000D01*
X133791887Y-122555000D01*
X133903260Y-123114909D01*
X134220423Y-123589577D01*
X134695091Y-123906740D01*
X135113667Y-123990000D01*
X135396333Y-123990000D01*
X135814909Y-123906740D01*
X136289577Y-123589577D01*
X136606740Y-123114909D01*
X136718113Y-122555000D01*
X136606740Y-121995091D01*
X136289577Y-121520423D01*
X135814909Y-121203260D01*
X135396333Y-121120000D01*
X135113667Y-121120000D01*
X134695091Y-121203260D01*
X134220423Y-121520423D01*
X133903260Y-121995091D01*
X133791887Y-122555000D01*
X127762000Y-122555000D01*
X127762000Y-116830446D01*
X128151456Y-117770676D01*
X129244324Y-118863544D01*
X130672225Y-119455000D01*
X132217775Y-119455000D01*
X133645676Y-118863544D01*
X133764220Y-118745000D01*
X134546887Y-118745000D01*
X134658260Y-119304909D01*
X134975423Y-119779577D01*
X135450091Y-120096740D01*
X135868667Y-120180000D01*
X136151333Y-120180000D01*
X136569909Y-120096740D01*
X137044577Y-119779577D01*
X137361740Y-119304909D01*
X137473113Y-118745000D01*
X137361740Y-118185091D01*
X137044577Y-117710423D01*
X136569909Y-117393260D01*
X136151333Y-117310000D01*
X135868667Y-117310000D01*
X135450091Y-117393260D01*
X134975423Y-117710423D01*
X134658260Y-118185091D01*
X134546887Y-118745000D01*
X133764220Y-118745000D01*
X134738544Y-117770676D01*
X135330000Y-116342775D01*
X135330000Y-115549894D01*
X135610423Y-115969577D01*
X136085091Y-116286740D01*
X136503667Y-116370000D01*
X136786333Y-116370000D01*
X137204909Y-116286740D01*
X137679577Y-115969577D01*
X137996740Y-115494909D01*
X138108113Y-114935000D01*
X137996740Y-114375091D01*
X137679577Y-113900423D01*
X137204909Y-113583260D01*
X136786333Y-113500000D01*
X136503667Y-113500000D01*
X136085091Y-113583260D01*
X135610423Y-113900423D01*
X135293260Y-114375091D01*
X135248453Y-114600352D01*
X134738544Y-113369324D01*
X133645676Y-112276456D01*
X132217775Y-111685000D01*
X130672225Y-111685000D01*
X129244324Y-112276456D01*
X128151456Y-113369324D01*
X127762000Y-114309554D01*
X127762000Y-111125000D01*
X135061887Y-111125000D01*
X135173260Y-111684909D01*
X135490423Y-112159577D01*
X135965091Y-112476740D01*
X136383667Y-112560000D01*
X136666333Y-112560000D01*
X137084909Y-112476740D01*
X137559577Y-112159577D01*
X137876740Y-111684909D01*
X137988113Y-111125000D01*
X137876740Y-110565091D01*
X137559577Y-110090423D01*
X137084909Y-109773260D01*
X136666333Y-109690000D01*
X136383667Y-109690000D01*
X135965091Y-109773260D01*
X135490423Y-110090423D01*
X135173260Y-110565091D01*
X135061887Y-111125000D01*
X127762000Y-111125000D01*
X127762000Y-106482196D01*
X136267409Y-106482196D01*
X136352467Y-106737539D01*
X136921965Y-106945516D01*
X137527700Y-106919723D01*
X137967533Y-106737539D01*
X138052591Y-106482196D01*
X137160000Y-105589605D01*
X136267409Y-106482196D01*
X127762000Y-106482196D01*
X127762000Y-105171965D01*
X135624484Y-105171965D01*
X135650277Y-105777700D01*
X135832461Y-106217533D01*
X136087804Y-106302591D01*
X136980395Y-105410000D01*
X136087804Y-104517409D01*
X135832461Y-104602467D01*
X135624484Y-105171965D01*
X127762000Y-105171965D01*
X127762000Y-104337804D01*
X136267409Y-104337804D01*
X137160000Y-105230395D01*
X138052591Y-104337804D01*
X137967533Y-104082461D01*
X137398035Y-103874484D01*
X136792300Y-103900277D01*
X136352467Y-104082461D01*
X136267409Y-104337804D01*
X127762000Y-104337804D01*
X127762000Y-101563834D01*
X130302000Y-101563834D01*
X130302000Y-102271166D01*
X130572684Y-102924656D01*
X131072844Y-103424816D01*
X131726334Y-103695500D01*
X132433666Y-103695500D01*
X133087156Y-103424816D01*
X133587316Y-102924656D01*
X133858000Y-102271166D01*
X133858000Y-101563834D01*
X133587316Y-100910344D01*
X133087156Y-100410184D01*
X132433666Y-100139500D01*
X131726334Y-100139500D01*
X131072844Y-100410184D01*
X130572684Y-100910344D01*
X130302000Y-101563834D01*
X127762000Y-101563834D01*
X127762000Y-96356598D01*
X127778071Y-96380650D01*
X127841527Y-96423050D01*
X128296607Y-96878131D01*
X128248015Y-96926723D01*
X128016000Y-97486858D01*
X128016000Y-98093142D01*
X128248015Y-98653277D01*
X128676723Y-99081985D01*
X129236858Y-99314000D01*
X129843142Y-99314000D01*
X130403277Y-99081985D01*
X130831985Y-98653277D01*
X131064000Y-98093142D01*
X131064000Y-97486858D01*
X130955121Y-97224001D01*
X144407790Y-97224001D01*
X146050039Y-98866250D01*
X145807569Y-99108720D01*
X145650000Y-99489126D01*
X145650000Y-99655199D01*
X145615700Y-99689499D01*
X144735349Y-99689499D01*
X144660501Y-99674611D01*
X144585653Y-99689499D01*
X144585649Y-99689499D01*
X144412106Y-99724019D01*
X144363963Y-99733595D01*
X144216583Y-99832072D01*
X144112572Y-99901570D01*
X144070172Y-99965026D01*
X140106420Y-103928779D01*
X140003142Y-103886000D01*
X139396858Y-103886000D01*
X138836723Y-104118015D01*
X138408015Y-104546723D01*
X138397367Y-104572430D01*
X138232196Y-104517409D01*
X137339605Y-105410000D01*
X138232196Y-106302591D01*
X138397367Y-106247570D01*
X138408015Y-106273277D01*
X138836723Y-106701985D01*
X139396858Y-106934000D01*
X140003142Y-106934000D01*
X140563277Y-106701985D01*
X140970000Y-106295262D01*
X141376723Y-106701985D01*
X141936858Y-106934000D01*
X142543142Y-106934000D01*
X143103277Y-106701985D01*
X143531985Y-106273277D01*
X143764000Y-105713142D01*
X143764000Y-105106858D01*
X143720981Y-105003001D01*
X143823152Y-104850091D01*
X143844903Y-104817538D01*
X143888999Y-104595853D01*
X143888999Y-104595849D01*
X143903887Y-104521002D01*
X143888999Y-104446155D01*
X143888999Y-104200802D01*
X144819802Y-103270000D01*
X144985874Y-103270000D01*
X145366280Y-103112431D01*
X145657431Y-102821280D01*
X145713648Y-102685561D01*
X145812684Y-102924656D01*
X146312844Y-103424816D01*
X146966334Y-103695500D01*
X147673666Y-103695500D01*
X148028002Y-103548729D01*
X148028001Y-106167197D01*
X144483302Y-109711897D01*
X144430439Y-109690000D01*
X143859561Y-109690000D01*
X143332138Y-109908466D01*
X142928466Y-110312138D01*
X142710000Y-110839561D01*
X142710000Y-111410439D01*
X142928466Y-111937862D01*
X143332138Y-112341534D01*
X143859561Y-112560000D01*
X144430439Y-112560000D01*
X144957862Y-112341534D01*
X145361534Y-111937862D01*
X145580000Y-111410439D01*
X145580000Y-110839561D01*
X145558103Y-110786698D01*
X149272474Y-107072328D01*
X149335930Y-107029928D01*
X149503905Y-106778536D01*
X149548001Y-106556851D01*
X149548001Y-106556846D01*
X149562889Y-106481999D01*
X149548001Y-106407152D01*
X149548001Y-103861626D01*
X149652716Y-103905000D01*
X150064464Y-103905000D01*
X150444870Y-103747431D01*
X150688045Y-103504256D01*
X154363698Y-107179910D01*
X154223260Y-107390091D01*
X154111887Y-107950000D01*
X154223260Y-108509909D01*
X154540423Y-108984577D01*
X154892758Y-109220000D01*
X154540423Y-109455423D01*
X154356957Y-109730000D01*
X151679312Y-109730000D01*
X151669147Y-109705460D01*
X151279540Y-109315853D01*
X150770494Y-109105000D01*
X150219506Y-109105000D01*
X149710460Y-109315853D01*
X149320853Y-109705460D01*
X149310688Y-109730000D01*
X148664846Y-109730000D01*
X148589999Y-109715112D01*
X148515152Y-109730000D01*
X148515148Y-109730000D01*
X148293463Y-109774096D01*
X148042071Y-109942071D01*
X147999671Y-110005527D01*
X144483302Y-113521897D01*
X144430439Y-113500000D01*
X143859561Y-113500000D01*
X143332138Y-113718466D01*
X142928466Y-114122138D01*
X142710000Y-114649561D01*
X142710000Y-115220439D01*
X142928466Y-115747862D01*
X143332138Y-116151534D01*
X143859561Y-116370000D01*
X144430439Y-116370000D01*
X144957862Y-116151534D01*
X145361534Y-115747862D01*
X145580000Y-115220439D01*
X145580000Y-114649561D01*
X145558103Y-114596698D01*
X148904802Y-111250000D01*
X149310688Y-111250000D01*
X149320853Y-111274540D01*
X149710460Y-111664147D01*
X150219506Y-111875000D01*
X150770494Y-111875000D01*
X151279540Y-111664147D01*
X151669147Y-111274540D01*
X151679312Y-111250000D01*
X154356957Y-111250000D01*
X154540423Y-111524577D01*
X154892758Y-111760000D01*
X154540423Y-111995423D01*
X154356957Y-112270000D01*
X152909848Y-112270000D01*
X152835000Y-112255112D01*
X152760152Y-112270000D01*
X152760148Y-112270000D01*
X152586605Y-112304520D01*
X152538462Y-112314096D01*
X152354417Y-112437072D01*
X152287071Y-112482071D01*
X152244671Y-112545527D01*
X150795034Y-113995165D01*
X150770494Y-113985000D01*
X150219506Y-113985000D01*
X149710460Y-114195853D01*
X149320853Y-114585460D01*
X149310688Y-114610000D01*
X147594848Y-114610000D01*
X147520000Y-114595112D01*
X147445152Y-114610000D01*
X147445148Y-114610000D01*
X147271605Y-114644520D01*
X147223462Y-114654096D01*
X147069250Y-114757138D01*
X146972071Y-114822071D01*
X146929671Y-114885527D01*
X144297315Y-117517884D01*
X143795439Y-117310000D01*
X143224561Y-117310000D01*
X142697138Y-117528466D01*
X142293466Y-117932138D01*
X142075000Y-118459561D01*
X142075000Y-119030439D01*
X142293466Y-119557862D01*
X142697138Y-119961534D01*
X143224561Y-120180000D01*
X143795439Y-120180000D01*
X144322862Y-119961534D01*
X144726534Y-119557862D01*
X144945000Y-119030439D01*
X144945000Y-119019801D01*
X147834802Y-116130000D01*
X149310688Y-116130000D01*
X149320853Y-116154540D01*
X149710460Y-116544147D01*
X150219506Y-116755000D01*
X150770494Y-116755000D01*
X151279540Y-116544147D01*
X151669147Y-116154540D01*
X151880000Y-115645494D01*
X151880000Y-115094506D01*
X151869835Y-115069966D01*
X153149802Y-113790000D01*
X154356957Y-113790000D01*
X154457784Y-113940899D01*
X154444670Y-113960526D01*
X153965529Y-114439668D01*
X153902070Y-114482070D01*
X153734095Y-114733463D01*
X153689999Y-114955148D01*
X153689999Y-114955152D01*
X153675111Y-115029999D01*
X153689999Y-115104846D01*
X153690000Y-116035150D01*
X153675111Y-116110001D01*
X153734096Y-116406538D01*
X153826044Y-116544147D01*
X153902071Y-116657930D01*
X153965527Y-116700330D01*
X154444670Y-117179474D01*
X154457784Y-117199101D01*
X154223260Y-117550091D01*
X154111887Y-118110000D01*
X154176312Y-118433886D01*
X151450199Y-121160000D01*
X149936669Y-121160000D01*
X149891310Y-121050493D01*
X149459507Y-120618690D01*
X148895330Y-120385000D01*
X148284670Y-120385000D01*
X147720493Y-120618690D01*
X147551275Y-120787908D01*
X147548157Y-120772235D01*
X147407809Y-120562191D01*
X147197765Y-120421843D01*
X146950000Y-120372560D01*
X145150000Y-120372560D01*
X144902235Y-120421843D01*
X144692191Y-120562191D01*
X144551843Y-120772235D01*
X144502560Y-121020000D01*
X144502560Y-121795000D01*
X144113430Y-121795000D01*
X144091534Y-121742138D01*
X143687862Y-121338466D01*
X143160439Y-121120000D01*
X142589561Y-121120000D01*
X142062138Y-121338466D01*
X141658466Y-121742138D01*
X141440000Y-122269561D01*
X141440000Y-122840439D01*
X141658466Y-123367862D01*
X142062138Y-123771534D01*
X142589561Y-123990000D01*
X143160439Y-123990000D01*
X143687862Y-123771534D01*
X144091534Y-123367862D01*
X144113430Y-123315000D01*
X144747851Y-123315000D01*
X144902235Y-123418157D01*
X145150000Y-123467440D01*
X146950000Y-123467440D01*
X147197765Y-123418157D01*
X147407809Y-123277809D01*
X147548157Y-123067765D01*
X147551275Y-123052092D01*
X147720493Y-123221310D01*
X148284670Y-123455000D01*
X148895330Y-123455000D01*
X149459507Y-123221310D01*
X149891310Y-122789507D01*
X149936669Y-122680000D01*
X151690153Y-122680000D01*
X151765000Y-122694888D01*
X151839847Y-122680000D01*
X151839852Y-122680000D01*
X152061537Y-122635904D01*
X152312929Y-122467929D01*
X152355331Y-122404470D01*
X154112405Y-120647397D01*
X154111887Y-120650000D01*
X154223260Y-121209909D01*
X154540423Y-121684577D01*
X154892758Y-121920000D01*
X154540423Y-122155423D01*
X154223260Y-122630091D01*
X154111887Y-123190000D01*
X154223260Y-123749909D01*
X154540423Y-124224577D01*
X155015091Y-124541740D01*
X155433667Y-124625000D01*
X155716333Y-124625000D01*
X156134909Y-124541740D01*
X156609577Y-124224577D01*
X156926740Y-123749909D01*
X157038113Y-123190000D01*
X156926740Y-122630091D01*
X156609577Y-122155423D01*
X156257242Y-121920000D01*
X156609577Y-121684577D01*
X156926740Y-121209909D01*
X157038113Y-120650000D01*
X156926740Y-120090091D01*
X156609577Y-119615423D01*
X156257242Y-119380000D01*
X156609577Y-119144577D01*
X156926740Y-118669909D01*
X157038113Y-118110000D01*
X156926740Y-117550091D01*
X156692216Y-117199101D01*
X156705332Y-117179471D01*
X159049483Y-114835321D01*
X159112939Y-114792921D01*
X159280914Y-114541529D01*
X159325010Y-114319844D01*
X159325010Y-114319839D01*
X159339898Y-114244992D01*
X159325010Y-114170145D01*
X159325010Y-113409811D01*
X160844669Y-114929471D01*
X160887070Y-114992928D01*
X161138462Y-115160903D01*
X161360147Y-115204999D01*
X161360151Y-115204999D01*
X161434998Y-115219887D01*
X161509845Y-115204999D01*
X161804490Y-115204999D01*
X161731887Y-115570000D01*
X161843260Y-116129909D01*
X162160423Y-116604577D01*
X162512758Y-116840000D01*
X162160423Y-117075423D01*
X161843260Y-117550091D01*
X161731887Y-118110000D01*
X161843260Y-118669909D01*
X162160423Y-119144577D01*
X162512758Y-119380000D01*
X162160423Y-119615423D01*
X161843260Y-120090091D01*
X161731887Y-120650000D01*
X161843260Y-121209909D01*
X162160423Y-121684577D01*
X162512758Y-121920000D01*
X162160423Y-122155423D01*
X161843260Y-122630091D01*
X161731887Y-123190000D01*
X161843260Y-123749909D01*
X162160423Y-124224577D01*
X162635091Y-124541740D01*
X163053667Y-124625000D01*
X163336333Y-124625000D01*
X163754909Y-124541740D01*
X164229577Y-124224577D01*
X164546740Y-123749909D01*
X164658113Y-123190000D01*
X164593688Y-122866113D01*
X165044801Y-122415001D01*
X184139740Y-122415001D01*
X183910000Y-122969642D01*
X183910000Y-123570358D01*
X184139884Y-124125346D01*
X184564654Y-124550116D01*
X185119642Y-124780000D01*
X185720358Y-124780000D01*
X186275346Y-124550116D01*
X186700116Y-124125346D01*
X186930000Y-123570358D01*
X186930000Y-122969642D01*
X186700260Y-122415001D01*
X191831979Y-122415001D01*
X191688260Y-122630091D01*
X191576887Y-123190000D01*
X191688260Y-123749909D01*
X192005423Y-124224577D01*
X192480091Y-124541740D01*
X192898667Y-124625000D01*
X193181333Y-124625000D01*
X193599909Y-124541740D01*
X194074577Y-124224577D01*
X194391740Y-123749909D01*
X194503113Y-123190000D01*
X194391740Y-122630091D01*
X194248021Y-122415001D01*
X196585000Y-122415001D01*
X196585000Y-122860330D01*
X196818690Y-123424507D01*
X197250493Y-123856310D01*
X197814670Y-124090000D01*
X198425330Y-124090000D01*
X198989507Y-123856310D01*
X199158725Y-123687092D01*
X199161843Y-123702765D01*
X199302191Y-123912809D01*
X199512235Y-124053157D01*
X199760000Y-124102440D01*
X201560000Y-124102440D01*
X201807765Y-124053157D01*
X202017809Y-123912809D01*
X202158157Y-123702765D01*
X202207440Y-123455000D01*
X202207440Y-123315000D01*
X202490153Y-123315000D01*
X202565000Y-123329888D01*
X202639847Y-123315000D01*
X202639852Y-123315000D01*
X202760200Y-123291061D01*
X202914561Y-123355000D01*
X203485439Y-123355000D01*
X204012862Y-123136534D01*
X204416534Y-122732862D01*
X204635000Y-122205439D01*
X204635000Y-121920000D01*
X209356887Y-121920000D01*
X209468260Y-122479909D01*
X209785423Y-122954577D01*
X210260091Y-123271740D01*
X210678667Y-123355000D01*
X210961333Y-123355000D01*
X211379909Y-123271740D01*
X211854577Y-122954577D01*
X212171740Y-122479909D01*
X212283113Y-121920000D01*
X212171740Y-121360091D01*
X211854577Y-120885423D01*
X211379909Y-120568260D01*
X210961333Y-120485000D01*
X210678667Y-120485000D01*
X210260091Y-120568260D01*
X209785423Y-120885423D01*
X209468260Y-121360091D01*
X209356887Y-121920000D01*
X204635000Y-121920000D01*
X204635000Y-121634561D01*
X204416534Y-121107138D01*
X204012862Y-120703466D01*
X203485439Y-120485000D01*
X202914561Y-120485000D01*
X202387138Y-120703466D01*
X201983466Y-121107138D01*
X201961695Y-121159697D01*
X201807765Y-121056843D01*
X201560000Y-121007560D01*
X199760000Y-121007560D01*
X199512235Y-121056843D01*
X199302191Y-121197191D01*
X199161843Y-121407235D01*
X199158725Y-121422908D01*
X198989507Y-121253690D01*
X198425330Y-121020000D01*
X197814670Y-121020000D01*
X197705373Y-121065272D01*
X197516538Y-120939097D01*
X197294853Y-120895001D01*
X197294848Y-120895001D01*
X197220001Y-120880113D01*
X197145154Y-120895001D01*
X195139800Y-120895001D01*
X197705162Y-118329640D01*
X197814670Y-118375000D01*
X198425330Y-118375000D01*
X198989507Y-118141310D01*
X199158725Y-117972092D01*
X199161843Y-117987765D01*
X199302191Y-118197809D01*
X199512235Y-118338157D01*
X199760000Y-118387440D01*
X201560000Y-118387440D01*
X201807765Y-118338157D01*
X202017809Y-118197809D01*
X202158157Y-117987765D01*
X202184738Y-117854134D01*
X202387138Y-118056534D01*
X202914561Y-118275000D01*
X203485439Y-118275000D01*
X204012862Y-118056534D01*
X204416534Y-117652862D01*
X204635000Y-117125439D01*
X204635000Y-116554561D01*
X204416534Y-116027138D01*
X204012862Y-115623466D01*
X203485439Y-115405000D01*
X202914561Y-115405000D01*
X202387138Y-115623466D01*
X202184738Y-115825866D01*
X202158157Y-115692235D01*
X202017809Y-115482191D01*
X201807765Y-115341843D01*
X201560000Y-115292560D01*
X199760000Y-115292560D01*
X199512235Y-115341843D01*
X199302191Y-115482191D01*
X199161843Y-115692235D01*
X199158725Y-115707908D01*
X198989507Y-115538690D01*
X198425330Y-115305000D01*
X197814670Y-115305000D01*
X197250493Y-115538690D01*
X196818690Y-115970493D01*
X196585000Y-116534670D01*
X196585000Y-117145330D01*
X196630360Y-117254838D01*
X193440208Y-120444991D01*
X180952222Y-120444991D01*
X181152801Y-120244412D01*
X181455000Y-119514841D01*
X181455000Y-118725159D01*
X181152801Y-117995588D01*
X180594412Y-117437199D01*
X179864841Y-117135000D01*
X179075159Y-117135000D01*
X178345588Y-117437199D01*
X177787199Y-117995588D01*
X177485000Y-118725159D01*
X177485000Y-119514841D01*
X177787199Y-120244412D01*
X177987778Y-120444991D01*
X176712248Y-120444991D01*
X176796086Y-120361153D01*
X177045000Y-119760222D01*
X177045000Y-119109778D01*
X176796086Y-118508847D01*
X176336153Y-118048914D01*
X175735222Y-117800000D01*
X175084778Y-117800000D01*
X174483847Y-118048914D01*
X174023914Y-118508847D01*
X173955091Y-118675000D01*
X170364909Y-118675000D01*
X170296086Y-118508847D01*
X169836153Y-118048914D01*
X169235222Y-117800000D01*
X168584778Y-117800000D01*
X168418625Y-117868823D01*
X166637334Y-116087532D01*
X167937073Y-116087532D01*
X168035736Y-116354387D01*
X168645461Y-116580908D01*
X169295460Y-116556856D01*
X169784264Y-116354387D01*
X169882927Y-116087532D01*
X174437073Y-116087532D01*
X174535736Y-116354387D01*
X175145461Y-116580908D01*
X175795460Y-116556856D01*
X176284264Y-116354387D01*
X176382927Y-116087532D01*
X175410000Y-115114605D01*
X174437073Y-116087532D01*
X169882927Y-116087532D01*
X168910000Y-115114605D01*
X167937073Y-116087532D01*
X166637334Y-116087532D01*
X165220263Y-114670461D01*
X167264092Y-114670461D01*
X167288144Y-115320460D01*
X167490613Y-115809264D01*
X167757468Y-115907927D01*
X168730395Y-114935000D01*
X169089605Y-114935000D01*
X170062532Y-115907927D01*
X170329387Y-115809264D01*
X170555908Y-115199539D01*
X170536331Y-114670461D01*
X173764092Y-114670461D01*
X173788144Y-115320460D01*
X173990613Y-115809264D01*
X174257468Y-115907927D01*
X175230395Y-114935000D01*
X175589605Y-114935000D01*
X176562532Y-115907927D01*
X176829387Y-115809264D01*
X177055908Y-115199539D01*
X177031856Y-114549540D01*
X176829387Y-114060736D01*
X176562532Y-113962073D01*
X175589605Y-114935000D01*
X175230395Y-114935000D01*
X174257468Y-113962073D01*
X173990613Y-114060736D01*
X173764092Y-114670461D01*
X170536331Y-114670461D01*
X170531856Y-114549540D01*
X170329387Y-114060736D01*
X170062532Y-113962073D01*
X169089605Y-114935000D01*
X168730395Y-114935000D01*
X167757468Y-113962073D01*
X167490613Y-114060736D01*
X167264092Y-114670461D01*
X165220263Y-114670461D01*
X164510330Y-113960529D01*
X164467928Y-113897070D01*
X164380524Y-113838669D01*
X164418076Y-113782468D01*
X167937073Y-113782468D01*
X168910000Y-114755395D01*
X169882927Y-113782468D01*
X169784264Y-113515613D01*
X169174539Y-113289092D01*
X168524540Y-113313144D01*
X168035736Y-113515613D01*
X167937073Y-113782468D01*
X164418076Y-113782468D01*
X164546740Y-113589909D01*
X164658113Y-113030000D01*
X164546740Y-112470091D01*
X164359006Y-112189126D01*
X171050000Y-112189126D01*
X171050000Y-112600874D01*
X171207569Y-112981280D01*
X171498720Y-113272431D01*
X171879126Y-113430000D01*
X172290874Y-113430000D01*
X172671280Y-113272431D01*
X172788711Y-113155000D01*
X175191289Y-113155000D01*
X175308720Y-113272431D01*
X175375645Y-113300152D01*
X175024540Y-113313144D01*
X174535736Y-113515613D01*
X174437073Y-113782468D01*
X175410000Y-114755395D01*
X176382927Y-113782468D01*
X176284264Y-113515613D01*
X176053820Y-113430000D01*
X176100874Y-113430000D01*
X176481280Y-113272431D01*
X176772431Y-112981280D01*
X176930000Y-112600874D01*
X176930000Y-112189126D01*
X176772431Y-111808720D01*
X176481280Y-111517569D01*
X176100874Y-111360000D01*
X175689126Y-111360000D01*
X175308720Y-111517569D01*
X175191289Y-111635000D01*
X172788711Y-111635000D01*
X172671280Y-111517569D01*
X172290874Y-111360000D01*
X171879126Y-111360000D01*
X171498720Y-111517569D01*
X171207569Y-111808720D01*
X171050000Y-112189126D01*
X164359006Y-112189126D01*
X164309607Y-112115196D01*
X167240000Y-109184803D01*
X167240000Y-109425874D01*
X167397569Y-109806280D01*
X167688720Y-110097431D01*
X168069126Y-110255000D01*
X168480874Y-110255000D01*
X168861280Y-110097431D01*
X168978711Y-109980000D01*
X181928789Y-109980000D01*
X187883788Y-115935000D01*
X187475159Y-115935000D01*
X186745588Y-116237199D01*
X186187199Y-116795588D01*
X185885000Y-117525159D01*
X185885000Y-118314841D01*
X186187199Y-119044412D01*
X186745588Y-119602801D01*
X187475159Y-119905000D01*
X188264841Y-119905000D01*
X188994412Y-119602801D01*
X189552801Y-119044412D01*
X189855000Y-118314841D01*
X189855000Y-117525159D01*
X189552801Y-116795588D01*
X189087213Y-116330000D01*
X191801570Y-116330000D01*
X191823466Y-116382862D01*
X192227138Y-116786534D01*
X192754561Y-117005000D01*
X193325439Y-117005000D01*
X193852862Y-116786534D01*
X194256534Y-116382862D01*
X194475000Y-115855439D01*
X194475000Y-115284561D01*
X194256534Y-114757138D01*
X193924396Y-114425000D01*
X208153590Y-114425000D01*
X208153591Y-116523740D01*
X208138702Y-116598592D01*
X208197687Y-116895129D01*
X208318156Y-117075423D01*
X208365662Y-117146521D01*
X208429118Y-117188921D01*
X212279670Y-121039474D01*
X212322070Y-121102930D01*
X212573462Y-121270905D01*
X212795147Y-121315001D01*
X212795151Y-121315001D01*
X212869998Y-121329889D01*
X212944845Y-121315001D01*
X213883254Y-121315001D01*
X213866161Y-121340582D01*
X213750908Y-121920000D01*
X213866161Y-122499418D01*
X214194375Y-122990625D01*
X214685582Y-123318839D01*
X215118744Y-123405000D01*
X215411256Y-123405000D01*
X215844418Y-123318839D01*
X216335625Y-122990625D01*
X216663839Y-122499418D01*
X216779092Y-121920000D01*
X216706209Y-121553592D01*
X217374483Y-120885319D01*
X217437939Y-120842919D01*
X217605914Y-120591527D01*
X217650010Y-120369842D01*
X217650010Y-120369838D01*
X217664898Y-120294991D01*
X217650010Y-120220144D01*
X217650010Y-116800855D01*
X217664898Y-116726008D01*
X217650010Y-116651161D01*
X217650010Y-116651156D01*
X217605914Y-116429471D01*
X217437939Y-116178079D01*
X217374483Y-116135679D01*
X216445295Y-115206492D01*
X216663839Y-114879418D01*
X216779092Y-114300000D01*
X216663839Y-113720582D01*
X216335625Y-113229375D01*
X216037239Y-113030000D01*
X216335625Y-112830625D01*
X216663839Y-112339418D01*
X216779092Y-111760000D01*
X216663839Y-111180582D01*
X216335625Y-110689375D01*
X216317381Y-110677184D01*
X216362765Y-110668157D01*
X216572809Y-110527809D01*
X216713157Y-110317765D01*
X216762440Y-110070000D01*
X216762440Y-108370000D01*
X216713157Y-108122235D01*
X216572809Y-107912191D01*
X216362765Y-107771843D01*
X216115000Y-107722560D01*
X214415000Y-107722560D01*
X214167235Y-107771843D01*
X213957191Y-107912191D01*
X213816843Y-108122235D01*
X213767560Y-108370000D01*
X213767560Y-110070000D01*
X213816843Y-110317765D01*
X213957191Y-110527809D01*
X214167235Y-110668157D01*
X214212619Y-110677184D01*
X214194375Y-110689375D01*
X213866161Y-111180582D01*
X213750908Y-111760000D01*
X213866161Y-112339418D01*
X214194375Y-112830625D01*
X214492761Y-113030000D01*
X214194375Y-113229375D01*
X213928334Y-113627534D01*
X213485000Y-113184201D01*
X213485000Y-112074844D01*
X213499888Y-111999997D01*
X213485000Y-111925150D01*
X213485000Y-111925146D01*
X213440904Y-111703461D01*
X213368433Y-111595000D01*
X213315329Y-111515524D01*
X213315327Y-111515522D01*
X213272929Y-111452069D01*
X213209476Y-111409671D01*
X209900333Y-108100530D01*
X209857931Y-108037071D01*
X209606539Y-107869096D01*
X209384854Y-107825000D01*
X209384849Y-107825000D01*
X209310002Y-107810112D01*
X209235155Y-107825000D01*
X204893080Y-107825000D01*
X203864758Y-106796678D01*
X204007533Y-106737539D01*
X204092591Y-106482196D01*
X203200000Y-105589605D01*
X203185858Y-105603748D01*
X203006253Y-105424143D01*
X203020395Y-105410000D01*
X202127804Y-104517409D01*
X201872461Y-104602467D01*
X201818448Y-104750369D01*
X201405883Y-104337804D01*
X202307409Y-104337804D01*
X203200000Y-105230395D01*
X204092591Y-104337804D01*
X204007533Y-104082461D01*
X203438035Y-103874484D01*
X202832300Y-103900277D01*
X202392467Y-104082461D01*
X202307409Y-104337804D01*
X201405883Y-104337804D01*
X199969110Y-102901031D01*
X199926708Y-102837572D01*
X199720468Y-102699767D01*
X199898000Y-102271166D01*
X199898000Y-101563834D01*
X199627316Y-100910344D01*
X199127156Y-100410184D01*
X198473666Y-100139500D01*
X197766334Y-100139500D01*
X197112844Y-100410184D01*
X196612684Y-100910344D01*
X196342000Y-101563834D01*
X196342000Y-102271166D01*
X196488770Y-102625501D01*
X193685312Y-102625501D01*
X190519811Y-99460000D01*
X190705874Y-99460000D01*
X191086280Y-99302431D01*
X191377431Y-99011280D01*
X191535000Y-98630874D01*
X191535000Y-98464801D01*
X193989802Y-96010000D01*
X194245236Y-96010000D01*
X194288015Y-96113277D01*
X194694738Y-96520000D01*
X194288015Y-96926723D01*
X194056000Y-97486858D01*
X194056000Y-98093142D01*
X194288015Y-98653277D01*
X194716723Y-99081985D01*
X195276858Y-99314000D01*
X195883142Y-99314000D01*
X196443277Y-99081985D01*
X196871985Y-98653277D01*
X197104000Y-98093142D01*
X197104000Y-97486858D01*
X196871985Y-96926723D01*
X196465262Y-96520000D01*
X196871985Y-96113277D01*
X197104000Y-95553142D01*
X197104000Y-94946858D01*
X196871985Y-94386723D01*
X196443277Y-93958015D01*
X196417570Y-93947367D01*
X196472591Y-93782196D01*
X195580000Y-92889605D01*
X194687409Y-93782196D01*
X194742430Y-93947367D01*
X194716723Y-93958015D01*
X194288015Y-94386723D01*
X194245236Y-94490000D01*
X193749846Y-94490000D01*
X193674999Y-94475112D01*
X193600152Y-94490000D01*
X193600148Y-94490000D01*
X193378463Y-94534096D01*
X193127071Y-94702071D01*
X193084671Y-94765527D01*
X190460199Y-97390000D01*
X190294126Y-97390000D01*
X189913720Y-97547569D01*
X189622569Y-97838720D01*
X189465000Y-98219126D01*
X189465000Y-98405190D01*
X186351345Y-95291535D01*
X186320895Y-95138454D01*
X186152920Y-94887062D01*
X185901528Y-94719087D01*
X185679843Y-94674991D01*
X185494847Y-94674991D01*
X185420000Y-94660103D01*
X185345153Y-94674991D01*
X183915000Y-94674991D01*
X183915000Y-94654801D01*
X184634473Y-93935329D01*
X184697929Y-93892929D01*
X184865904Y-93641537D01*
X184910000Y-93419852D01*
X184910000Y-93419848D01*
X184924888Y-93345001D01*
X184910000Y-93270154D01*
X184910000Y-92778711D01*
X185027431Y-92661280D01*
X185105847Y-92471965D01*
X194044484Y-92471965D01*
X194070277Y-93077700D01*
X194252461Y-93517533D01*
X194507804Y-93602591D01*
X195400395Y-92710000D01*
X195759605Y-92710000D01*
X196652196Y-93602591D01*
X196907539Y-93517533D01*
X197115516Y-92948035D01*
X197089723Y-92342300D01*
X196907539Y-91902467D01*
X196652196Y-91817409D01*
X195759605Y-92710000D01*
X195400395Y-92710000D01*
X194507804Y-91817409D01*
X194252461Y-91902467D01*
X194044484Y-92471965D01*
X185105847Y-92471965D01*
X185185000Y-92280874D01*
X185185000Y-91869126D01*
X185089184Y-91637804D01*
X194687409Y-91637804D01*
X195580000Y-92530395D01*
X196472591Y-91637804D01*
X196387533Y-91382461D01*
X195818035Y-91174484D01*
X195212300Y-91200277D01*
X194772467Y-91382461D01*
X194687409Y-91637804D01*
X185089184Y-91637804D01*
X185027431Y-91488720D01*
X184736280Y-91197569D01*
X184355874Y-91040000D01*
X184354801Y-91040000D01*
X187165967Y-88228834D01*
X196342000Y-88228834D01*
X196342000Y-88936166D01*
X196612684Y-89589656D01*
X197112844Y-90089816D01*
X197766334Y-90360500D01*
X198473666Y-90360500D01*
X199127156Y-90089816D01*
X199627316Y-89589656D01*
X199898000Y-88936166D01*
X199898000Y-88228834D01*
X199627316Y-87575344D01*
X199127156Y-87075184D01*
X198473666Y-86804500D01*
X197766334Y-86804500D01*
X197112844Y-87075184D01*
X196612684Y-87575344D01*
X196342000Y-88228834D01*
X187165967Y-88228834D01*
X193336698Y-82058104D01*
X193389561Y-82080000D01*
X193960439Y-82080000D01*
X194020283Y-82055212D01*
X194057382Y-82080000D01*
X194178462Y-82160903D01*
X194400147Y-82204999D01*
X194400151Y-82204999D01*
X194474998Y-82219887D01*
X194549845Y-82204999D01*
X196065198Y-82204999D01*
X201083779Y-87223581D01*
X201041000Y-87326858D01*
X201041000Y-87933142D01*
X201273015Y-88493277D01*
X201701723Y-88921985D01*
X202261858Y-89154000D01*
X202868142Y-89154000D01*
X203428277Y-88921985D01*
X203856985Y-88493277D01*
X203942865Y-88285945D01*
X204980000Y-89323080D01*
X204980001Y-104075236D01*
X204876723Y-104118015D01*
X204448015Y-104546723D01*
X204437367Y-104572430D01*
X204272196Y-104517409D01*
X203379605Y-105410000D01*
X204272196Y-106302591D01*
X204437367Y-106247570D01*
X204448015Y-106273277D01*
X204876723Y-106701985D01*
X205436858Y-106934000D01*
X206043142Y-106934000D01*
X206603277Y-106701985D01*
X207010000Y-106295262D01*
X207416723Y-106701985D01*
X207976858Y-106934000D01*
X208583142Y-106934000D01*
X209143277Y-106701985D01*
X209571985Y-106273277D01*
X209804000Y-105713142D01*
X209804000Y-105106858D01*
X209571985Y-104546723D01*
X209143277Y-104118015D01*
X208583142Y-103886000D01*
X207976858Y-103886000D01*
X207416723Y-104118015D01*
X207010000Y-104524738D01*
X206603277Y-104118015D01*
X206500000Y-104075236D01*
X206500000Y-101563834D01*
X211582000Y-101563834D01*
X211582000Y-102271166D01*
X211852684Y-102924656D01*
X212352844Y-103424816D01*
X213006334Y-103695500D01*
X213713666Y-103695500D01*
X214367156Y-103424816D01*
X214867316Y-102924656D01*
X215138000Y-102271166D01*
X215138000Y-101563834D01*
X214867316Y-100910344D01*
X214367156Y-100410184D01*
X213713666Y-100139500D01*
X213006334Y-100139500D01*
X212352844Y-100410184D01*
X211852684Y-100910344D01*
X211582000Y-101563834D01*
X206500000Y-101563834D01*
X206500000Y-89083126D01*
X206514888Y-89008278D01*
X206500000Y-88933430D01*
X206500000Y-88933426D01*
X206455904Y-88711741D01*
X206455904Y-88711740D01*
X206330329Y-88523805D01*
X206287929Y-88460349D01*
X206224473Y-88417949D01*
X205133382Y-87326858D01*
X207391000Y-87326858D01*
X207391000Y-87933142D01*
X207623015Y-88493277D01*
X208051723Y-88921985D01*
X208611858Y-89154000D01*
X209218142Y-89154000D01*
X209778277Y-88921985D01*
X210206985Y-88493277D01*
X210316520Y-88228834D01*
X211582000Y-88228834D01*
X211582000Y-88936166D01*
X211852684Y-89589656D01*
X212352844Y-90089816D01*
X213006334Y-90360500D01*
X213713666Y-90360500D01*
X214367156Y-90089816D01*
X214867316Y-89589656D01*
X215138000Y-88936166D01*
X215138000Y-88228834D01*
X214867316Y-87575344D01*
X214367156Y-87075184D01*
X213713666Y-86804500D01*
X213006334Y-86804500D01*
X212352844Y-87075184D01*
X211852684Y-87575344D01*
X211582000Y-88228834D01*
X210316520Y-88228834D01*
X210439000Y-87933142D01*
X210439000Y-87326858D01*
X210206985Y-86766723D01*
X209778277Y-86338015D01*
X209218142Y-86106000D01*
X208611858Y-86106000D01*
X208051723Y-86338015D01*
X207623015Y-86766723D01*
X207391000Y-87326858D01*
X205133382Y-87326858D01*
X201428720Y-83622196D01*
X201672409Y-83622196D01*
X201757467Y-83877539D01*
X202326965Y-84085516D01*
X202932700Y-84059723D01*
X203372533Y-83877539D01*
X203457591Y-83622196D01*
X202565000Y-82729605D01*
X201672409Y-83622196D01*
X201428720Y-83622196D01*
X200118489Y-82311965D01*
X201029484Y-82311965D01*
X201055277Y-82917700D01*
X201237461Y-83357533D01*
X201492804Y-83442591D01*
X202385395Y-82550000D01*
X202744605Y-82550000D01*
X203637196Y-83442591D01*
X203892539Y-83357533D01*
X204100516Y-82788035D01*
X204077472Y-82246858D01*
X207391000Y-82246858D01*
X207391000Y-82853142D01*
X207623015Y-83413277D01*
X208051723Y-83841985D01*
X208611858Y-84074000D01*
X209218142Y-84074000D01*
X209778277Y-83841985D01*
X210206985Y-83413277D01*
X210439000Y-82853142D01*
X210439000Y-82246858D01*
X210206985Y-81686723D01*
X209778277Y-81258015D01*
X209218142Y-81026000D01*
X208611858Y-81026000D01*
X208051723Y-81258015D01*
X207623015Y-81686723D01*
X207391000Y-82246858D01*
X204077472Y-82246858D01*
X204074723Y-82182300D01*
X203892539Y-81742467D01*
X203637196Y-81657409D01*
X202744605Y-82550000D01*
X202385395Y-82550000D01*
X201492804Y-81657409D01*
X201237461Y-81742467D01*
X201029484Y-82311965D01*
X200118489Y-82311965D01*
X199284328Y-81477804D01*
X201672409Y-81477804D01*
X202565000Y-82370395D01*
X203457591Y-81477804D01*
X203372533Y-81222461D01*
X202803035Y-81014484D01*
X202197300Y-81040277D01*
X201757467Y-81222461D01*
X201672409Y-81477804D01*
X199284328Y-81477804D01*
X196842052Y-79035529D01*
X196799650Y-78972070D01*
X196548258Y-78804095D01*
X196326573Y-78759999D01*
X196326568Y-78759999D01*
X196251721Y-78745111D01*
X196176874Y-78759999D01*
X187254849Y-78759999D01*
X187180001Y-78745111D01*
X187105153Y-78759999D01*
X187105149Y-78759999D01*
X186931606Y-78794519D01*
X186883463Y-78804095D01*
X186696419Y-78929075D01*
X186632072Y-78972070D01*
X186589672Y-79035526D01*
X176490199Y-89135000D01*
X176324126Y-89135000D01*
X176164999Y-89200912D01*
X176164999Y-87870510D01*
X176388667Y-87915000D01*
X176671333Y-87915000D01*
X177089909Y-87831740D01*
X177564577Y-87514577D01*
X177881740Y-87039909D01*
X177993113Y-86480000D01*
X177881740Y-85920091D01*
X177564577Y-85445423D01*
X177101966Y-85136316D01*
X177342862Y-85036534D01*
X177746534Y-84632862D01*
X177965000Y-84105439D01*
X177965000Y-83534561D01*
X177943103Y-83481698D01*
X183194802Y-78230000D01*
X196572560Y-78230000D01*
X196572560Y-78370000D01*
X196621843Y-78617765D01*
X196762191Y-78827809D01*
X196972235Y-78968157D01*
X197220000Y-79017440D01*
X199020000Y-79017440D01*
X199267765Y-78968157D01*
X199477809Y-78827809D01*
X199618157Y-78617765D01*
X199621275Y-78602092D01*
X199790493Y-78771310D01*
X200354670Y-79005000D01*
X200965330Y-79005000D01*
X201529507Y-78771310D01*
X201530000Y-78770817D01*
X201530000Y-78945874D01*
X201687569Y-79326280D01*
X201978720Y-79617431D01*
X202359126Y-79775000D01*
X202770874Y-79775000D01*
X203151280Y-79617431D01*
X203268711Y-79500000D01*
X204137153Y-79500000D01*
X204212000Y-79514888D01*
X204286847Y-79500000D01*
X204286852Y-79500000D01*
X204392236Y-79479038D01*
X204772671Y-79859473D01*
X204815071Y-79922929D01*
X204878527Y-79965329D01*
X205066462Y-80090904D01*
X205114605Y-80100480D01*
X205288148Y-80135000D01*
X205288152Y-80135000D01*
X205363000Y-80149888D01*
X205437848Y-80135000D01*
X208211289Y-80135000D01*
X208328720Y-80252431D01*
X208709126Y-80410000D01*
X209120874Y-80410000D01*
X209501280Y-80252431D01*
X209792431Y-79961280D01*
X209950000Y-79580874D01*
X209950000Y-79169126D01*
X209824856Y-78867000D01*
X209827881Y-78867000D01*
X210341337Y-78654320D01*
X210734320Y-78261337D01*
X210820000Y-78054487D01*
X210905680Y-78261337D01*
X211298663Y-78654320D01*
X211812119Y-78867000D01*
X212367881Y-78867000D01*
X212881337Y-78654320D01*
X213274320Y-78261337D01*
X213487000Y-77747881D01*
X213487000Y-77192119D01*
X213274320Y-76678663D01*
X212881337Y-76285680D01*
X212674487Y-76200000D01*
X212881337Y-76114320D01*
X213274320Y-75721337D01*
X213487000Y-75207881D01*
X213487000Y-74652119D01*
X213274320Y-74138663D01*
X212881337Y-73745680D01*
X212367881Y-73533000D01*
X211812119Y-73533000D01*
X211298663Y-73745680D01*
X210905680Y-74138663D01*
X210820000Y-74345513D01*
X210734320Y-74138663D01*
X210341337Y-73745680D01*
X209827881Y-73533000D01*
X209272119Y-73533000D01*
X208758663Y-73745680D01*
X208365680Y-74138663D01*
X208280000Y-74345513D01*
X208194320Y-74138663D01*
X207801337Y-73745680D01*
X207287881Y-73533000D01*
X206732119Y-73533000D01*
X206218663Y-73745680D01*
X205825680Y-74138663D01*
X205740000Y-74345513D01*
X205654320Y-74138663D01*
X205261337Y-73745680D01*
X204747881Y-73533000D01*
X204192119Y-73533000D01*
X203678663Y-73745680D01*
X203285680Y-74138663D01*
X203272863Y-74169606D01*
X203199999Y-74155112D01*
X203125152Y-74170000D01*
X203125148Y-74170000D01*
X202903463Y-74214096D01*
X202903461Y-74214097D01*
X202903462Y-74214097D01*
X202715526Y-74339671D01*
X202715524Y-74339673D01*
X202652071Y-74382071D01*
X202609673Y-74445524D01*
X201074838Y-75980360D01*
X200965330Y-75935000D01*
X200354670Y-75935000D01*
X200245162Y-75980360D01*
X195535331Y-71270530D01*
X195492929Y-71207071D01*
X195241537Y-71039096D01*
X195019852Y-70995000D01*
X195019847Y-70995000D01*
X194945000Y-70980112D01*
X194870153Y-70995000D01*
X190574848Y-70995000D01*
X190500000Y-70980112D01*
X190425152Y-70995000D01*
X190425148Y-70995000D01*
X190203463Y-71039096D01*
X189952071Y-71207071D01*
X189909671Y-71270527D01*
X189550199Y-71630000D01*
X189167213Y-71630000D01*
X189552801Y-71244412D01*
X189855000Y-70514841D01*
X189855000Y-69725159D01*
X189552801Y-68995588D01*
X188994412Y-68437199D01*
X188264841Y-68135000D01*
X187475159Y-68135000D01*
X186745588Y-68437199D01*
X186187199Y-68995588D01*
X185885000Y-69725159D01*
X185885000Y-70360000D01*
X180837213Y-70360000D01*
X181152801Y-70044412D01*
X181455000Y-69314841D01*
X181455000Y-68525159D01*
X181152801Y-67795588D01*
X180594412Y-67237199D01*
X179864841Y-66935000D01*
X179075159Y-66935000D01*
X178572655Y-67143144D01*
X180185800Y-65530000D01*
X180600390Y-65530000D01*
X180639884Y-65625346D01*
X181064654Y-66050116D01*
X181619642Y-66280000D01*
X182220358Y-66280000D01*
X182775346Y-66050116D01*
X183200116Y-65625346D01*
X183430000Y-65070358D01*
X183430000Y-65055750D01*
X183910000Y-65055750D01*
X183910000Y-65771309D01*
X184006673Y-66004698D01*
X184185301Y-66183327D01*
X184418690Y-66280000D01*
X185134250Y-66280000D01*
X185293000Y-66121250D01*
X185293000Y-64897000D01*
X185547000Y-64897000D01*
X185547000Y-66121250D01*
X185705750Y-66280000D01*
X186421310Y-66280000D01*
X186654699Y-66183327D01*
X186833327Y-66004698D01*
X186930000Y-65771309D01*
X186930000Y-65055750D01*
X186771250Y-64897000D01*
X185547000Y-64897000D01*
X185293000Y-64897000D01*
X184068750Y-64897000D01*
X183910000Y-65055750D01*
X183430000Y-65055750D01*
X183430000Y-64469642D01*
X183200116Y-63914654D01*
X182910462Y-63625000D01*
X183969519Y-63625000D01*
X183910000Y-63768691D01*
X183910000Y-64484250D01*
X184068750Y-64643000D01*
X185293000Y-64643000D01*
X185293000Y-64623000D01*
X185547000Y-64623000D01*
X185547000Y-64643000D01*
X186771250Y-64643000D01*
X186930000Y-64484250D01*
X186930000Y-63768691D01*
X186870481Y-63625000D01*
X188567653Y-63625000D01*
X188642500Y-63639888D01*
X188717347Y-63625000D01*
X188717352Y-63625000D01*
X188939037Y-63580904D01*
X189190429Y-63412929D01*
X189232831Y-63349470D01*
X191316424Y-61265878D01*
X191770000Y-61356100D01*
X192389411Y-61232891D01*
X192914523Y-60882023D01*
X193265391Y-60356910D01*
X193357500Y-59893849D01*
X193357500Y-59486150D01*
X193298378Y-59188924D01*
X195337302Y-57150000D01*
X196656887Y-57150000D01*
X196768260Y-57709909D01*
X197085423Y-58184577D01*
X197560091Y-58501740D01*
X197978667Y-58585000D01*
X198261333Y-58585000D01*
X198679909Y-58501740D01*
X199154577Y-58184577D01*
X199471740Y-57709909D01*
X199583113Y-57150000D01*
X199471740Y-56590091D01*
X199154577Y-56115423D01*
X198679909Y-55798260D01*
X198261333Y-55715000D01*
X197978667Y-55715000D01*
X197560091Y-55798260D01*
X197085423Y-56115423D01*
X196768260Y-56590091D01*
X196656887Y-57150000D01*
X195337302Y-57150000D01*
X197752303Y-54735000D01*
X199710199Y-54735000D01*
X199900000Y-54924802D01*
X199900001Y-68503330D01*
X199790493Y-68548690D01*
X199621275Y-68717908D01*
X199618157Y-68702235D01*
X199477809Y-68492191D01*
X199267765Y-68351843D01*
X199020000Y-68302560D01*
X198880000Y-68302560D01*
X198880000Y-66008430D01*
X198932862Y-65986534D01*
X199336534Y-65582862D01*
X199555000Y-65055439D01*
X199555000Y-64484561D01*
X199336534Y-63957138D01*
X198932862Y-63553466D01*
X198405439Y-63335000D01*
X197834561Y-63335000D01*
X197307138Y-63553466D01*
X196903466Y-63957138D01*
X196685000Y-64484561D01*
X196685000Y-65055439D01*
X196903466Y-65582862D01*
X197307138Y-65986534D01*
X197360001Y-66008430D01*
X197360000Y-68302560D01*
X197220000Y-68302560D01*
X196972235Y-68351843D01*
X196762191Y-68492191D01*
X196621843Y-68702235D01*
X196572560Y-68950000D01*
X196572560Y-70750000D01*
X196621843Y-70997765D01*
X196762191Y-71207809D01*
X196972235Y-71348157D01*
X197220000Y-71397440D01*
X199020000Y-71397440D01*
X199267765Y-71348157D01*
X199477809Y-71207809D01*
X199618157Y-70997765D01*
X199621275Y-70982092D01*
X199790493Y-71151310D01*
X200354670Y-71385000D01*
X200965330Y-71385000D01*
X201529507Y-71151310D01*
X201961310Y-70719507D01*
X202195000Y-70155330D01*
X202195000Y-69544670D01*
X201961310Y-68980493D01*
X201529507Y-68548690D01*
X201420000Y-68503331D01*
X201420000Y-54684848D01*
X201434888Y-54610000D01*
X201420000Y-54535152D01*
X201420000Y-54535148D01*
X201375904Y-54313463D01*
X201207929Y-54062071D01*
X201144473Y-54019671D01*
X200615331Y-53490530D01*
X200572929Y-53427071D01*
X200321537Y-53259096D01*
X200099852Y-53215000D01*
X200099847Y-53215000D01*
X200025000Y-53200112D01*
X199950153Y-53215000D01*
X197512346Y-53215000D01*
X197437499Y-53200112D01*
X197362652Y-53215000D01*
X197362648Y-53215000D01*
X197140963Y-53259096D01*
X197140961Y-53259097D01*
X197140962Y-53259097D01*
X196953026Y-53384671D01*
X196953024Y-53384673D01*
X196889571Y-53427071D01*
X196847173Y-53490524D01*
X192223576Y-58114122D01*
X191770000Y-58023900D01*
X191316424Y-58114122D01*
X189157302Y-55955000D01*
X190637775Y-55955000D01*
X192065676Y-55363544D01*
X193158544Y-54270676D01*
X193750000Y-52842775D01*
X193750000Y-51297225D01*
X193158544Y-49869324D01*
X192311220Y-49022000D01*
X217117394Y-49022000D01*
X217678000Y-49582606D01*
X217678000Y-49582606D01*
G37*
X217678000Y-49582606D02*
X217678000Y-123137394D01*
X215847394Y-124968000D01*
X129578452Y-124968000D01*
X127826804Y-123800235D01*
X127804933Y-123753756D01*
X127762000Y-123528693D01*
X127762000Y-122555000D01*
X133791887Y-122555000D01*
X133903260Y-123114909D01*
X134220423Y-123589577D01*
X134695091Y-123906740D01*
X135113667Y-123990000D01*
X135396333Y-123990000D01*
X135814909Y-123906740D01*
X136289577Y-123589577D01*
X136606740Y-123114909D01*
X136718113Y-122555000D01*
X136606740Y-121995091D01*
X136289577Y-121520423D01*
X135814909Y-121203260D01*
X135396333Y-121120000D01*
X135113667Y-121120000D01*
X134695091Y-121203260D01*
X134220423Y-121520423D01*
X133903260Y-121995091D01*
X133791887Y-122555000D01*
X127762000Y-122555000D01*
X127762000Y-116830446D01*
X128151456Y-117770676D01*
X129244324Y-118863544D01*
X130672225Y-119455000D01*
X132217775Y-119455000D01*
X133645676Y-118863544D01*
X133764220Y-118745000D01*
X134546887Y-118745000D01*
X134658260Y-119304909D01*
X134975423Y-119779577D01*
X135450091Y-120096740D01*
X135868667Y-120180000D01*
X136151333Y-120180000D01*
X136569909Y-120096740D01*
X137044577Y-119779577D01*
X137361740Y-119304909D01*
X137473113Y-118745000D01*
X137361740Y-118185091D01*
X137044577Y-117710423D01*
X136569909Y-117393260D01*
X136151333Y-117310000D01*
X135868667Y-117310000D01*
X135450091Y-117393260D01*
X134975423Y-117710423D01*
X134658260Y-118185091D01*
X134546887Y-118745000D01*
X133764220Y-118745000D01*
X134738544Y-117770676D01*
X135330000Y-116342775D01*
X135330000Y-115549894D01*
X135610423Y-115969577D01*
X136085091Y-116286740D01*
X136503667Y-116370000D01*
X136786333Y-116370000D01*
X137204909Y-116286740D01*
X137679577Y-115969577D01*
X137996740Y-115494909D01*
X138108113Y-114935000D01*
X137996740Y-114375091D01*
X137679577Y-113900423D01*
X137204909Y-113583260D01*
X136786333Y-113500000D01*
X136503667Y-113500000D01*
X136085091Y-113583260D01*
X135610423Y-113900423D01*
X135293260Y-114375091D01*
X135248453Y-114600352D01*
X134738544Y-113369324D01*
X133645676Y-112276456D01*
X132217775Y-111685000D01*
X130672225Y-111685000D01*
X129244324Y-112276456D01*
X128151456Y-113369324D01*
X127762000Y-114309554D01*
X127762000Y-111125000D01*
X135061887Y-111125000D01*
X135173260Y-111684909D01*
X135490423Y-112159577D01*
X135965091Y-112476740D01*
X136383667Y-112560000D01*
X136666333Y-112560000D01*
X137084909Y-112476740D01*
X137559577Y-112159577D01*
X137876740Y-111684909D01*
X137988113Y-111125000D01*
X137876740Y-110565091D01*
X137559577Y-110090423D01*
X137084909Y-109773260D01*
X136666333Y-109690000D01*
X136383667Y-109690000D01*
X135965091Y-109773260D01*
X135490423Y-110090423D01*
X135173260Y-110565091D01*
X135061887Y-111125000D01*
X127762000Y-111125000D01*
X127762000Y-106482196D01*
X136267409Y-106482196D01*
X136352467Y-106737539D01*
X136921965Y-106945516D01*
X137527700Y-106919723D01*
X137967533Y-106737539D01*
X138052591Y-106482196D01*
X137160000Y-105589605D01*
X136267409Y-106482196D01*
X127762000Y-106482196D01*
X127762000Y-105171965D01*
X135624484Y-105171965D01*
X135650277Y-105777700D01*
X135832461Y-106217533D01*
X136087804Y-106302591D01*
X136980395Y-105410000D01*
X136087804Y-104517409D01*
X135832461Y-104602467D01*
X135624484Y-105171965D01*
X127762000Y-105171965D01*
X127762000Y-104337804D01*
X136267409Y-104337804D01*
X137160000Y-105230395D01*
X138052591Y-104337804D01*
X137967533Y-104082461D01*
X137398035Y-103874484D01*
X136792300Y-103900277D01*
X136352467Y-104082461D01*
X136267409Y-104337804D01*
X127762000Y-104337804D01*
X127762000Y-101563834D01*
X130302000Y-101563834D01*
X130302000Y-102271166D01*
X130572684Y-102924656D01*
X131072844Y-103424816D01*
X131726334Y-103695500D01*
X132433666Y-103695500D01*
X133087156Y-103424816D01*
X133587316Y-102924656D01*
X133858000Y-102271166D01*
X133858000Y-101563834D01*
X133587316Y-100910344D01*
X133087156Y-100410184D01*
X132433666Y-100139500D01*
X131726334Y-100139500D01*
X131072844Y-100410184D01*
X130572684Y-100910344D01*
X130302000Y-101563834D01*
X127762000Y-101563834D01*
X127762000Y-96356598D01*
X127778071Y-96380650D01*
X127841527Y-96423050D01*
X128296607Y-96878131D01*
X128248015Y-96926723D01*
X128016000Y-97486858D01*
X128016000Y-98093142D01*
X128248015Y-98653277D01*
X128676723Y-99081985D01*
X129236858Y-99314000D01*
X129843142Y-99314000D01*
X130403277Y-99081985D01*
X130831985Y-98653277D01*
X131064000Y-98093142D01*
X131064000Y-97486858D01*
X130955121Y-97224001D01*
X144407790Y-97224001D01*
X146050039Y-98866250D01*
X145807569Y-99108720D01*
X145650000Y-99489126D01*
X145650000Y-99655199D01*
X145615700Y-99689499D01*
X144735349Y-99689499D01*
X144660501Y-99674611D01*
X144585653Y-99689499D01*
X144585649Y-99689499D01*
X144412106Y-99724019D01*
X144363963Y-99733595D01*
X144216583Y-99832072D01*
X144112572Y-99901570D01*
X144070172Y-99965026D01*
X140106420Y-103928779D01*
X140003142Y-103886000D01*
X139396858Y-103886000D01*
X138836723Y-104118015D01*
X138408015Y-104546723D01*
X138397367Y-104572430D01*
X138232196Y-104517409D01*
X137339605Y-105410000D01*
X138232196Y-106302591D01*
X138397367Y-106247570D01*
X138408015Y-106273277D01*
X138836723Y-106701985D01*
X139396858Y-106934000D01*
X140003142Y-106934000D01*
X140563277Y-106701985D01*
X140970000Y-106295262D01*
X141376723Y-106701985D01*
X141936858Y-106934000D01*
X142543142Y-106934000D01*
X143103277Y-106701985D01*
X143531985Y-106273277D01*
X143764000Y-105713142D01*
X143764000Y-105106858D01*
X143720981Y-105003001D01*
X143823152Y-104850091D01*
X143844903Y-104817538D01*
X143888999Y-104595853D01*
X143888999Y-104595849D01*
X143903887Y-104521002D01*
X143888999Y-104446155D01*
X143888999Y-104200802D01*
X144819802Y-103270000D01*
X144985874Y-103270000D01*
X145366280Y-103112431D01*
X145657431Y-102821280D01*
X145713648Y-102685561D01*
X145812684Y-102924656D01*
X146312844Y-103424816D01*
X146966334Y-103695500D01*
X147673666Y-103695500D01*
X148028002Y-103548729D01*
X148028001Y-106167197D01*
X144483302Y-109711897D01*
X144430439Y-109690000D01*
X143859561Y-109690000D01*
X143332138Y-109908466D01*
X142928466Y-110312138D01*
X142710000Y-110839561D01*
X142710000Y-111410439D01*
X142928466Y-111937862D01*
X143332138Y-112341534D01*
X143859561Y-112560000D01*
X144430439Y-112560000D01*
X144957862Y-112341534D01*
X145361534Y-111937862D01*
X145580000Y-111410439D01*
X145580000Y-110839561D01*
X145558103Y-110786698D01*
X149272474Y-107072328D01*
X149335930Y-107029928D01*
X149503905Y-106778536D01*
X149548001Y-106556851D01*
X149548001Y-106556846D01*
X149562889Y-106481999D01*
X149548001Y-106407152D01*
X149548001Y-103861626D01*
X149652716Y-103905000D01*
X150064464Y-103905000D01*
X150444870Y-103747431D01*
X150688045Y-103504256D01*
X154363698Y-107179910D01*
X154223260Y-107390091D01*
X154111887Y-107950000D01*
X154223260Y-108509909D01*
X154540423Y-108984577D01*
X154892758Y-109220000D01*
X154540423Y-109455423D01*
X154356957Y-109730000D01*
X151679312Y-109730000D01*
X151669147Y-109705460D01*
X151279540Y-109315853D01*
X150770494Y-109105000D01*
X150219506Y-109105000D01*
X149710460Y-109315853D01*
X149320853Y-109705460D01*
X149310688Y-109730000D01*
X148664846Y-109730000D01*
X148589999Y-109715112D01*
X148515152Y-109730000D01*
X148515148Y-109730000D01*
X148293463Y-109774096D01*
X148042071Y-109942071D01*
X147999671Y-110005527D01*
X144483302Y-113521897D01*
X144430439Y-113500000D01*
X143859561Y-113500000D01*
X143332138Y-113718466D01*
X142928466Y-114122138D01*
X142710000Y-114649561D01*
X142710000Y-115220439D01*
X142928466Y-115747862D01*
X143332138Y-116151534D01*
X143859561Y-116370000D01*
X144430439Y-116370000D01*
X144957862Y-116151534D01*
X145361534Y-115747862D01*
X145580000Y-115220439D01*
X145580000Y-114649561D01*
X145558103Y-114596698D01*
X148904802Y-111250000D01*
X149310688Y-111250000D01*
X149320853Y-111274540D01*
X149710460Y-111664147D01*
X150219506Y-111875000D01*
X150770494Y-111875000D01*
X151279540Y-111664147D01*
X151669147Y-111274540D01*
X151679312Y-111250000D01*
X154356957Y-111250000D01*
X154540423Y-111524577D01*
X154892758Y-111760000D01*
X154540423Y-111995423D01*
X154356957Y-112270000D01*
X152909848Y-112270000D01*
X152835000Y-112255112D01*
X152760152Y-112270000D01*
X152760148Y-112270000D01*
X152586605Y-112304520D01*
X152538462Y-112314096D01*
X152354417Y-112437072D01*
X152287071Y-112482071D01*
X152244671Y-112545527D01*
X150795034Y-113995165D01*
X150770494Y-113985000D01*
X150219506Y-113985000D01*
X149710460Y-114195853D01*
X149320853Y-114585460D01*
X149310688Y-114610000D01*
X147594848Y-114610000D01*
X147520000Y-114595112D01*
X147445152Y-114610000D01*
X147445148Y-114610000D01*
X147271605Y-114644520D01*
X147223462Y-114654096D01*
X147069250Y-114757138D01*
X146972071Y-114822071D01*
X146929671Y-114885527D01*
X144297315Y-117517884D01*
X143795439Y-117310000D01*
X143224561Y-117310000D01*
X142697138Y-117528466D01*
X142293466Y-117932138D01*
X142075000Y-118459561D01*
X142075000Y-119030439D01*
X142293466Y-119557862D01*
X142697138Y-119961534D01*
X143224561Y-120180000D01*
X143795439Y-120180000D01*
X144322862Y-119961534D01*
X144726534Y-119557862D01*
X144945000Y-119030439D01*
X144945000Y-119019801D01*
X147834802Y-116130000D01*
X149310688Y-116130000D01*
X149320853Y-116154540D01*
X149710460Y-116544147D01*
X150219506Y-116755000D01*
X150770494Y-116755000D01*
X151279540Y-116544147D01*
X151669147Y-116154540D01*
X151880000Y-115645494D01*
X151880000Y-115094506D01*
X151869835Y-115069966D01*
X153149802Y-113790000D01*
X154356957Y-113790000D01*
X154457784Y-113940899D01*
X154444670Y-113960526D01*
X153965529Y-114439668D01*
X153902070Y-114482070D01*
X153734095Y-114733463D01*
X153689999Y-114955148D01*
X153689999Y-114955152D01*
X153675111Y-115029999D01*
X153689999Y-115104846D01*
X153690000Y-116035150D01*
X153675111Y-116110001D01*
X153734096Y-116406538D01*
X153826044Y-116544147D01*
X153902071Y-116657930D01*
X153965527Y-116700330D01*
X154444670Y-117179474D01*
X154457784Y-117199101D01*
X154223260Y-117550091D01*
X154111887Y-118110000D01*
X154176312Y-118433886D01*
X151450199Y-121160000D01*
X149936669Y-121160000D01*
X149891310Y-121050493D01*
X149459507Y-120618690D01*
X148895330Y-120385000D01*
X148284670Y-120385000D01*
X147720493Y-120618690D01*
X147551275Y-120787908D01*
X147548157Y-120772235D01*
X147407809Y-120562191D01*
X147197765Y-120421843D01*
X146950000Y-120372560D01*
X145150000Y-120372560D01*
X144902235Y-120421843D01*
X144692191Y-120562191D01*
X144551843Y-120772235D01*
X144502560Y-121020000D01*
X144502560Y-121795000D01*
X144113430Y-121795000D01*
X144091534Y-121742138D01*
X143687862Y-121338466D01*
X143160439Y-121120000D01*
X142589561Y-121120000D01*
X142062138Y-121338466D01*
X141658466Y-121742138D01*
X141440000Y-122269561D01*
X141440000Y-122840439D01*
X141658466Y-123367862D01*
X142062138Y-123771534D01*
X142589561Y-123990000D01*
X143160439Y-123990000D01*
X143687862Y-123771534D01*
X144091534Y-123367862D01*
X144113430Y-123315000D01*
X144747851Y-123315000D01*
X144902235Y-123418157D01*
X145150000Y-123467440D01*
X146950000Y-123467440D01*
X147197765Y-123418157D01*
X147407809Y-123277809D01*
X147548157Y-123067765D01*
X147551275Y-123052092D01*
X147720493Y-123221310D01*
X148284670Y-123455000D01*
X148895330Y-123455000D01*
X149459507Y-123221310D01*
X149891310Y-122789507D01*
X149936669Y-122680000D01*
X151690153Y-122680000D01*
X151765000Y-122694888D01*
X151839847Y-122680000D01*
X151839852Y-122680000D01*
X152061537Y-122635904D01*
X152312929Y-122467929D01*
X152355331Y-122404470D01*
X154112405Y-120647397D01*
X154111887Y-120650000D01*
X154223260Y-121209909D01*
X154540423Y-121684577D01*
X154892758Y-121920000D01*
X154540423Y-122155423D01*
X154223260Y-122630091D01*
X154111887Y-123190000D01*
X154223260Y-123749909D01*
X154540423Y-124224577D01*
X155015091Y-124541740D01*
X155433667Y-124625000D01*
X155716333Y-124625000D01*
X156134909Y-124541740D01*
X156609577Y-124224577D01*
X156926740Y-123749909D01*
X157038113Y-123190000D01*
X156926740Y-122630091D01*
X156609577Y-122155423D01*
X156257242Y-121920000D01*
X156609577Y-121684577D01*
X156926740Y-121209909D01*
X157038113Y-120650000D01*
X156926740Y-120090091D01*
X156609577Y-119615423D01*
X156257242Y-119380000D01*
X156609577Y-119144577D01*
X156926740Y-118669909D01*
X157038113Y-118110000D01*
X156926740Y-117550091D01*
X156692216Y-117199101D01*
X156705332Y-117179471D01*
X159049483Y-114835321D01*
X159112939Y-114792921D01*
X159280914Y-114541529D01*
X159325010Y-114319844D01*
X159325010Y-114319839D01*
X159339898Y-114244992D01*
X159325010Y-114170145D01*
X159325010Y-113409811D01*
X160844669Y-114929471D01*
X160887070Y-114992928D01*
X161138462Y-115160903D01*
X161360147Y-115204999D01*
X161360151Y-115204999D01*
X161434998Y-115219887D01*
X161509845Y-115204999D01*
X161804490Y-115204999D01*
X161731887Y-115570000D01*
X161843260Y-116129909D01*
X162160423Y-116604577D01*
X162512758Y-116840000D01*
X162160423Y-117075423D01*
X161843260Y-117550091D01*
X161731887Y-118110000D01*
X161843260Y-118669909D01*
X162160423Y-119144577D01*
X162512758Y-119380000D01*
X162160423Y-119615423D01*
X161843260Y-120090091D01*
X161731887Y-120650000D01*
X161843260Y-121209909D01*
X162160423Y-121684577D01*
X162512758Y-121920000D01*
X162160423Y-122155423D01*
X161843260Y-122630091D01*
X161731887Y-123190000D01*
X161843260Y-123749909D01*
X162160423Y-124224577D01*
X162635091Y-124541740D01*
X163053667Y-124625000D01*
X163336333Y-124625000D01*
X163754909Y-124541740D01*
X164229577Y-124224577D01*
X164546740Y-123749909D01*
X164658113Y-123190000D01*
X164593688Y-122866113D01*
X165044801Y-122415001D01*
X184139740Y-122415001D01*
X183910000Y-122969642D01*
X183910000Y-123570358D01*
X184139884Y-124125346D01*
X184564654Y-124550116D01*
X185119642Y-124780000D01*
X185720358Y-124780000D01*
X186275346Y-124550116D01*
X186700116Y-124125346D01*
X186930000Y-123570358D01*
X186930000Y-122969642D01*
X186700260Y-122415001D01*
X191831979Y-122415001D01*
X191688260Y-122630091D01*
X191576887Y-123190000D01*
X191688260Y-123749909D01*
X192005423Y-124224577D01*
X192480091Y-124541740D01*
X192898667Y-124625000D01*
X193181333Y-124625000D01*
X193599909Y-124541740D01*
X194074577Y-124224577D01*
X194391740Y-123749909D01*
X194503113Y-123190000D01*
X194391740Y-122630091D01*
X194248021Y-122415001D01*
X196585000Y-122415001D01*
X196585000Y-122860330D01*
X196818690Y-123424507D01*
X197250493Y-123856310D01*
X197814670Y-124090000D01*
X198425330Y-124090000D01*
X198989507Y-123856310D01*
X199158725Y-123687092D01*
X199161843Y-123702765D01*
X199302191Y-123912809D01*
X199512235Y-124053157D01*
X199760000Y-124102440D01*
X201560000Y-124102440D01*
X201807765Y-124053157D01*
X202017809Y-123912809D01*
X202158157Y-123702765D01*
X202207440Y-123455000D01*
X202207440Y-123315000D01*
X202490153Y-123315000D01*
X202565000Y-123329888D01*
X202639847Y-123315000D01*
X202639852Y-123315000D01*
X202760200Y-123291061D01*
X202914561Y-123355000D01*
X203485439Y-123355000D01*
X204012862Y-123136534D01*
X204416534Y-122732862D01*
X204635000Y-122205439D01*
X204635000Y-121920000D01*
X209356887Y-121920000D01*
X209468260Y-122479909D01*
X209785423Y-122954577D01*
X210260091Y-123271740D01*
X210678667Y-123355000D01*
X210961333Y-123355000D01*
X211379909Y-123271740D01*
X211854577Y-122954577D01*
X212171740Y-122479909D01*
X212283113Y-121920000D01*
X212171740Y-121360091D01*
X211854577Y-120885423D01*
X211379909Y-120568260D01*
X210961333Y-120485000D01*
X210678667Y-120485000D01*
X210260091Y-120568260D01*
X209785423Y-120885423D01*
X209468260Y-121360091D01*
X209356887Y-121920000D01*
X204635000Y-121920000D01*
X204635000Y-121634561D01*
X204416534Y-121107138D01*
X204012862Y-120703466D01*
X203485439Y-120485000D01*
X202914561Y-120485000D01*
X202387138Y-120703466D01*
X201983466Y-121107138D01*
X201961695Y-121159697D01*
X201807765Y-121056843D01*
X201560000Y-121007560D01*
X199760000Y-121007560D01*
X199512235Y-121056843D01*
X199302191Y-121197191D01*
X199161843Y-121407235D01*
X199158725Y-121422908D01*
X198989507Y-121253690D01*
X198425330Y-121020000D01*
X197814670Y-121020000D01*
X197705373Y-121065272D01*
X197516538Y-120939097D01*
X197294853Y-120895001D01*
X197294848Y-120895001D01*
X197220001Y-120880113D01*
X197145154Y-120895001D01*
X195139800Y-120895001D01*
X197705162Y-118329640D01*
X197814670Y-118375000D01*
X198425330Y-118375000D01*
X198989507Y-118141310D01*
X199158725Y-117972092D01*
X199161843Y-117987765D01*
X199302191Y-118197809D01*
X199512235Y-118338157D01*
X199760000Y-118387440D01*
X201560000Y-118387440D01*
X201807765Y-118338157D01*
X202017809Y-118197809D01*
X202158157Y-117987765D01*
X202184738Y-117854134D01*
X202387138Y-118056534D01*
X202914561Y-118275000D01*
X203485439Y-118275000D01*
X204012862Y-118056534D01*
X204416534Y-117652862D01*
X204635000Y-117125439D01*
X204635000Y-116554561D01*
X204416534Y-116027138D01*
X204012862Y-115623466D01*
X203485439Y-115405000D01*
X202914561Y-115405000D01*
X202387138Y-115623466D01*
X202184738Y-115825866D01*
X202158157Y-115692235D01*
X202017809Y-115482191D01*
X201807765Y-115341843D01*
X201560000Y-115292560D01*
X199760000Y-115292560D01*
X199512235Y-115341843D01*
X199302191Y-115482191D01*
X199161843Y-115692235D01*
X199158725Y-115707908D01*
X198989507Y-115538690D01*
X198425330Y-115305000D01*
X197814670Y-115305000D01*
X197250493Y-115538690D01*
X196818690Y-115970493D01*
X196585000Y-116534670D01*
X196585000Y-117145330D01*
X196630360Y-117254838D01*
X193440208Y-120444991D01*
X180952222Y-120444991D01*
X181152801Y-120244412D01*
X181455000Y-119514841D01*
X181455000Y-118725159D01*
X181152801Y-117995588D01*
X180594412Y-117437199D01*
X179864841Y-117135000D01*
X179075159Y-117135000D01*
X178345588Y-117437199D01*
X177787199Y-117995588D01*
X177485000Y-118725159D01*
X177485000Y-119514841D01*
X177787199Y-120244412D01*
X177987778Y-120444991D01*
X176712248Y-120444991D01*
X176796086Y-120361153D01*
X177045000Y-119760222D01*
X177045000Y-119109778D01*
X176796086Y-118508847D01*
X176336153Y-118048914D01*
X175735222Y-117800000D01*
X175084778Y-117800000D01*
X174483847Y-118048914D01*
X174023914Y-118508847D01*
X173955091Y-118675000D01*
X170364909Y-118675000D01*
X170296086Y-118508847D01*
X169836153Y-118048914D01*
X169235222Y-117800000D01*
X168584778Y-117800000D01*
X168418625Y-117868823D01*
X166637334Y-116087532D01*
X167937073Y-116087532D01*
X168035736Y-116354387D01*
X168645461Y-116580908D01*
X169295460Y-116556856D01*
X169784264Y-116354387D01*
X169882927Y-116087532D01*
X174437073Y-116087532D01*
X174535736Y-116354387D01*
X175145461Y-116580908D01*
X175795460Y-116556856D01*
X176284264Y-116354387D01*
X176382927Y-116087532D01*
X175410000Y-115114605D01*
X174437073Y-116087532D01*
X169882927Y-116087532D01*
X168910000Y-115114605D01*
X167937073Y-116087532D01*
X166637334Y-116087532D01*
X165220263Y-114670461D01*
X167264092Y-114670461D01*
X167288144Y-115320460D01*
X167490613Y-115809264D01*
X167757468Y-115907927D01*
X168730395Y-114935000D01*
X169089605Y-114935000D01*
X170062532Y-115907927D01*
X170329387Y-115809264D01*
X170555908Y-115199539D01*
X170536331Y-114670461D01*
X173764092Y-114670461D01*
X173788144Y-115320460D01*
X173990613Y-115809264D01*
X174257468Y-115907927D01*
X175230395Y-114935000D01*
X175589605Y-114935000D01*
X176562532Y-115907927D01*
X176829387Y-115809264D01*
X177055908Y-115199539D01*
X177031856Y-114549540D01*
X176829387Y-114060736D01*
X176562532Y-113962073D01*
X175589605Y-114935000D01*
X175230395Y-114935000D01*
X174257468Y-113962073D01*
X173990613Y-114060736D01*
X173764092Y-114670461D01*
X170536331Y-114670461D01*
X170531856Y-114549540D01*
X170329387Y-114060736D01*
X170062532Y-113962073D01*
X169089605Y-114935000D01*
X168730395Y-114935000D01*
X167757468Y-113962073D01*
X167490613Y-114060736D01*
X167264092Y-114670461D01*
X165220263Y-114670461D01*
X164510330Y-113960529D01*
X164467928Y-113897070D01*
X164380524Y-113838669D01*
X164418076Y-113782468D01*
X167937073Y-113782468D01*
X168910000Y-114755395D01*
X169882927Y-113782468D01*
X169784264Y-113515613D01*
X169174539Y-113289092D01*
X168524540Y-113313144D01*
X168035736Y-113515613D01*
X167937073Y-113782468D01*
X164418076Y-113782468D01*
X164546740Y-113589909D01*
X164658113Y-113030000D01*
X164546740Y-112470091D01*
X164359006Y-112189126D01*
X171050000Y-112189126D01*
X171050000Y-112600874D01*
X171207569Y-112981280D01*
X171498720Y-113272431D01*
X171879126Y-113430000D01*
X172290874Y-113430000D01*
X172671280Y-113272431D01*
X172788711Y-113155000D01*
X175191289Y-113155000D01*
X175308720Y-113272431D01*
X175375645Y-113300152D01*
X175024540Y-113313144D01*
X174535736Y-113515613D01*
X174437073Y-113782468D01*
X175410000Y-114755395D01*
X176382927Y-113782468D01*
X176284264Y-113515613D01*
X176053820Y-113430000D01*
X176100874Y-113430000D01*
X176481280Y-113272431D01*
X176772431Y-112981280D01*
X176930000Y-112600874D01*
X176930000Y-112189126D01*
X176772431Y-111808720D01*
X176481280Y-111517569D01*
X176100874Y-111360000D01*
X175689126Y-111360000D01*
X175308720Y-111517569D01*
X175191289Y-111635000D01*
X172788711Y-111635000D01*
X172671280Y-111517569D01*
X172290874Y-111360000D01*
X171879126Y-111360000D01*
X171498720Y-111517569D01*
X171207569Y-111808720D01*
X171050000Y-112189126D01*
X164359006Y-112189126D01*
X164309607Y-112115196D01*
X167240000Y-109184803D01*
X167240000Y-109425874D01*
X167397569Y-109806280D01*
X167688720Y-110097431D01*
X168069126Y-110255000D01*
X168480874Y-110255000D01*
X168861280Y-110097431D01*
X168978711Y-109980000D01*
X181928789Y-109980000D01*
X187883788Y-115935000D01*
X187475159Y-115935000D01*
X186745588Y-116237199D01*
X186187199Y-116795588D01*
X185885000Y-117525159D01*
X185885000Y-118314841D01*
X186187199Y-119044412D01*
X186745588Y-119602801D01*
X187475159Y-119905000D01*
X188264841Y-119905000D01*
X188994412Y-119602801D01*
X189552801Y-119044412D01*
X189855000Y-118314841D01*
X189855000Y-117525159D01*
X189552801Y-116795588D01*
X189087213Y-116330000D01*
X191801570Y-116330000D01*
X191823466Y-116382862D01*
X192227138Y-116786534D01*
X192754561Y-117005000D01*
X193325439Y-117005000D01*
X193852862Y-116786534D01*
X194256534Y-116382862D01*
X194475000Y-115855439D01*
X194475000Y-115284561D01*
X194256534Y-114757138D01*
X193924396Y-114425000D01*
X208153590Y-114425000D01*
X208153591Y-116523740D01*
X208138702Y-116598592D01*
X208197687Y-116895129D01*
X208318156Y-117075423D01*
X208365662Y-117146521D01*
X208429118Y-117188921D01*
X212279670Y-121039474D01*
X212322070Y-121102930D01*
X212573462Y-121270905D01*
X212795147Y-121315001D01*
X212795151Y-121315001D01*
X212869998Y-121329889D01*
X212944845Y-121315001D01*
X213883254Y-121315001D01*
X213866161Y-121340582D01*
X213750908Y-121920000D01*
X213866161Y-122499418D01*
X214194375Y-122990625D01*
X214685582Y-123318839D01*
X215118744Y-123405000D01*
X215411256Y-123405000D01*
X215844418Y-123318839D01*
X216335625Y-122990625D01*
X216663839Y-122499418D01*
X216779092Y-121920000D01*
X216706209Y-121553592D01*
X217374483Y-120885319D01*
X217437939Y-120842919D01*
X217605914Y-120591527D01*
X217650010Y-120369842D01*
X217650010Y-120369838D01*
X217664898Y-120294991D01*
X217650010Y-120220144D01*
X217650010Y-116800855D01*
X217664898Y-116726008D01*
X217650010Y-116651161D01*
X217650010Y-116651156D01*
X217605914Y-116429471D01*
X217437939Y-116178079D01*
X217374483Y-116135679D01*
X216445295Y-115206492D01*
X216663839Y-114879418D01*
X216779092Y-114300000D01*
X216663839Y-113720582D01*
X216335625Y-113229375D01*
X216037239Y-113030000D01*
X216335625Y-112830625D01*
X216663839Y-112339418D01*
X216779092Y-111760000D01*
X216663839Y-111180582D01*
X216335625Y-110689375D01*
X216317381Y-110677184D01*
X216362765Y-110668157D01*
X216572809Y-110527809D01*
X216713157Y-110317765D01*
X216762440Y-110070000D01*
X216762440Y-108370000D01*
X216713157Y-108122235D01*
X216572809Y-107912191D01*
X216362765Y-107771843D01*
X216115000Y-107722560D01*
X214415000Y-107722560D01*
X214167235Y-107771843D01*
X213957191Y-107912191D01*
X213816843Y-108122235D01*
X213767560Y-108370000D01*
X213767560Y-110070000D01*
X213816843Y-110317765D01*
X213957191Y-110527809D01*
X214167235Y-110668157D01*
X214212619Y-110677184D01*
X214194375Y-110689375D01*
X213866161Y-111180582D01*
X213750908Y-111760000D01*
X213866161Y-112339418D01*
X214194375Y-112830625D01*
X214492761Y-113030000D01*
X214194375Y-113229375D01*
X213928334Y-113627534D01*
X213485000Y-113184201D01*
X213485000Y-112074844D01*
X213499888Y-111999997D01*
X213485000Y-111925150D01*
X213485000Y-111925146D01*
X213440904Y-111703461D01*
X213368433Y-111595000D01*
X213315329Y-111515524D01*
X213315327Y-111515522D01*
X213272929Y-111452069D01*
X213209476Y-111409671D01*
X209900333Y-108100530D01*
X209857931Y-108037071D01*
X209606539Y-107869096D01*
X209384854Y-107825000D01*
X209384849Y-107825000D01*
X209310002Y-107810112D01*
X209235155Y-107825000D01*
X204893080Y-107825000D01*
X203864758Y-106796678D01*
X204007533Y-106737539D01*
X204092591Y-106482196D01*
X203200000Y-105589605D01*
X203185858Y-105603748D01*
X203006253Y-105424143D01*
X203020395Y-105410000D01*
X202127804Y-104517409D01*
X201872461Y-104602467D01*
X201818448Y-104750369D01*
X201405883Y-104337804D01*
X202307409Y-104337804D01*
X203200000Y-105230395D01*
X204092591Y-104337804D01*
X204007533Y-104082461D01*
X203438035Y-103874484D01*
X202832300Y-103900277D01*
X202392467Y-104082461D01*
X202307409Y-104337804D01*
X201405883Y-104337804D01*
X199969110Y-102901031D01*
X199926708Y-102837572D01*
X199720468Y-102699767D01*
X199898000Y-102271166D01*
X199898000Y-101563834D01*
X199627316Y-100910344D01*
X199127156Y-100410184D01*
X198473666Y-100139500D01*
X197766334Y-100139500D01*
X197112844Y-100410184D01*
X196612684Y-100910344D01*
X196342000Y-101563834D01*
X196342000Y-102271166D01*
X196488770Y-102625501D01*
X193685312Y-102625501D01*
X190519811Y-99460000D01*
X190705874Y-99460000D01*
X191086280Y-99302431D01*
X191377431Y-99011280D01*
X191535000Y-98630874D01*
X191535000Y-98464801D01*
X193989802Y-96010000D01*
X194245236Y-96010000D01*
X194288015Y-96113277D01*
X194694738Y-96520000D01*
X194288015Y-96926723D01*
X194056000Y-97486858D01*
X194056000Y-98093142D01*
X194288015Y-98653277D01*
X194716723Y-99081985D01*
X195276858Y-99314000D01*
X195883142Y-99314000D01*
X196443277Y-99081985D01*
X196871985Y-98653277D01*
X197104000Y-98093142D01*
X197104000Y-97486858D01*
X196871985Y-96926723D01*
X196465262Y-96520000D01*
X196871985Y-96113277D01*
X197104000Y-95553142D01*
X197104000Y-94946858D01*
X196871985Y-94386723D01*
X196443277Y-93958015D01*
X196417570Y-93947367D01*
X196472591Y-93782196D01*
X195580000Y-92889605D01*
X194687409Y-93782196D01*
X194742430Y-93947367D01*
X194716723Y-93958015D01*
X194288015Y-94386723D01*
X194245236Y-94490000D01*
X193749846Y-94490000D01*
X193674999Y-94475112D01*
X193600152Y-94490000D01*
X193600148Y-94490000D01*
X193378463Y-94534096D01*
X193127071Y-94702071D01*
X193084671Y-94765527D01*
X190460199Y-97390000D01*
X190294126Y-97390000D01*
X189913720Y-97547569D01*
X189622569Y-97838720D01*
X189465000Y-98219126D01*
X189465000Y-98405190D01*
X186351345Y-95291535D01*
X186320895Y-95138454D01*
X186152920Y-94887062D01*
X185901528Y-94719087D01*
X185679843Y-94674991D01*
X185494847Y-94674991D01*
X185420000Y-94660103D01*
X185345153Y-94674991D01*
X183915000Y-94674991D01*
X183915000Y-94654801D01*
X184634473Y-93935329D01*
X184697929Y-93892929D01*
X184865904Y-93641537D01*
X184910000Y-93419852D01*
X184910000Y-93419848D01*
X184924888Y-93345001D01*
X184910000Y-93270154D01*
X184910000Y-92778711D01*
X185027431Y-92661280D01*
X185105847Y-92471965D01*
X194044484Y-92471965D01*
X194070277Y-93077700D01*
X194252461Y-93517533D01*
X194507804Y-93602591D01*
X195400395Y-92710000D01*
X195759605Y-92710000D01*
X196652196Y-93602591D01*
X196907539Y-93517533D01*
X197115516Y-92948035D01*
X197089723Y-92342300D01*
X196907539Y-91902467D01*
X196652196Y-91817409D01*
X195759605Y-92710000D01*
X195400395Y-92710000D01*
X194507804Y-91817409D01*
X194252461Y-91902467D01*
X194044484Y-92471965D01*
X185105847Y-92471965D01*
X185185000Y-92280874D01*
X185185000Y-91869126D01*
X185089184Y-91637804D01*
X194687409Y-91637804D01*
X195580000Y-92530395D01*
X196472591Y-91637804D01*
X196387533Y-91382461D01*
X195818035Y-91174484D01*
X195212300Y-91200277D01*
X194772467Y-91382461D01*
X194687409Y-91637804D01*
X185089184Y-91637804D01*
X185027431Y-91488720D01*
X184736280Y-91197569D01*
X184355874Y-91040000D01*
X184354801Y-91040000D01*
X187165967Y-88228834D01*
X196342000Y-88228834D01*
X196342000Y-88936166D01*
X196612684Y-89589656D01*
X197112844Y-90089816D01*
X197766334Y-90360500D01*
X198473666Y-90360500D01*
X199127156Y-90089816D01*
X199627316Y-89589656D01*
X199898000Y-88936166D01*
X199898000Y-88228834D01*
X199627316Y-87575344D01*
X199127156Y-87075184D01*
X198473666Y-86804500D01*
X197766334Y-86804500D01*
X197112844Y-87075184D01*
X196612684Y-87575344D01*
X196342000Y-88228834D01*
X187165967Y-88228834D01*
X193336698Y-82058104D01*
X193389561Y-82080000D01*
X193960439Y-82080000D01*
X194020283Y-82055212D01*
X194057382Y-82080000D01*
X194178462Y-82160903D01*
X194400147Y-82204999D01*
X194400151Y-82204999D01*
X194474998Y-82219887D01*
X194549845Y-82204999D01*
X196065198Y-82204999D01*
X201083779Y-87223581D01*
X201041000Y-87326858D01*
X201041000Y-87933142D01*
X201273015Y-88493277D01*
X201701723Y-88921985D01*
X202261858Y-89154000D01*
X202868142Y-89154000D01*
X203428277Y-88921985D01*
X203856985Y-88493277D01*
X203942865Y-88285945D01*
X204980000Y-89323080D01*
X204980001Y-104075236D01*
X204876723Y-104118015D01*
X204448015Y-104546723D01*
X204437367Y-104572430D01*
X204272196Y-104517409D01*
X203379605Y-105410000D01*
X204272196Y-106302591D01*
X204437367Y-106247570D01*
X204448015Y-106273277D01*
X204876723Y-106701985D01*
X205436858Y-106934000D01*
X206043142Y-106934000D01*
X206603277Y-106701985D01*
X207010000Y-106295262D01*
X207416723Y-106701985D01*
X207976858Y-106934000D01*
X208583142Y-106934000D01*
X209143277Y-106701985D01*
X209571985Y-106273277D01*
X209804000Y-105713142D01*
X209804000Y-105106858D01*
X209571985Y-104546723D01*
X209143277Y-104118015D01*
X208583142Y-103886000D01*
X207976858Y-103886000D01*
X207416723Y-104118015D01*
X207010000Y-104524738D01*
X206603277Y-104118015D01*
X206500000Y-104075236D01*
X206500000Y-101563834D01*
X211582000Y-101563834D01*
X211582000Y-102271166D01*
X211852684Y-102924656D01*
X212352844Y-103424816D01*
X213006334Y-103695500D01*
X213713666Y-103695500D01*
X214367156Y-103424816D01*
X214867316Y-102924656D01*
X215138000Y-102271166D01*
X215138000Y-101563834D01*
X214867316Y-100910344D01*
X214367156Y-100410184D01*
X213713666Y-100139500D01*
X213006334Y-100139500D01*
X212352844Y-100410184D01*
X211852684Y-100910344D01*
X211582000Y-101563834D01*
X206500000Y-101563834D01*
X206500000Y-89083126D01*
X206514888Y-89008278D01*
X206500000Y-88933430D01*
X206500000Y-88933426D01*
X206455904Y-88711741D01*
X206455904Y-88711740D01*
X206330329Y-88523805D01*
X206287929Y-88460349D01*
X206224473Y-88417949D01*
X205133382Y-87326858D01*
X207391000Y-87326858D01*
X207391000Y-87933142D01*
X207623015Y-88493277D01*
X208051723Y-88921985D01*
X208611858Y-89154000D01*
X209218142Y-89154000D01*
X209778277Y-88921985D01*
X210206985Y-88493277D01*
X210316520Y-88228834D01*
X211582000Y-88228834D01*
X211582000Y-88936166D01*
X211852684Y-89589656D01*
X212352844Y-90089816D01*
X213006334Y-90360500D01*
X213713666Y-90360500D01*
X214367156Y-90089816D01*
X214867316Y-89589656D01*
X215138000Y-88936166D01*
X215138000Y-88228834D01*
X214867316Y-87575344D01*
X214367156Y-87075184D01*
X213713666Y-86804500D01*
X213006334Y-86804500D01*
X212352844Y-87075184D01*
X211852684Y-87575344D01*
X211582000Y-88228834D01*
X210316520Y-88228834D01*
X210439000Y-87933142D01*
X210439000Y-87326858D01*
X210206985Y-86766723D01*
X209778277Y-86338015D01*
X209218142Y-86106000D01*
X208611858Y-86106000D01*
X208051723Y-86338015D01*
X207623015Y-86766723D01*
X207391000Y-87326858D01*
X205133382Y-87326858D01*
X201428720Y-83622196D01*
X201672409Y-83622196D01*
X201757467Y-83877539D01*
X202326965Y-84085516D01*
X202932700Y-84059723D01*
X203372533Y-83877539D01*
X203457591Y-83622196D01*
X202565000Y-82729605D01*
X201672409Y-83622196D01*
X201428720Y-83622196D01*
X200118489Y-82311965D01*
X201029484Y-82311965D01*
X201055277Y-82917700D01*
X201237461Y-83357533D01*
X201492804Y-83442591D01*
X202385395Y-82550000D01*
X202744605Y-82550000D01*
X203637196Y-83442591D01*
X203892539Y-83357533D01*
X204100516Y-82788035D01*
X204077472Y-82246858D01*
X207391000Y-82246858D01*
X207391000Y-82853142D01*
X207623015Y-83413277D01*
X208051723Y-83841985D01*
X208611858Y-84074000D01*
X209218142Y-84074000D01*
X209778277Y-83841985D01*
X210206985Y-83413277D01*
X210439000Y-82853142D01*
X210439000Y-82246858D01*
X210206985Y-81686723D01*
X209778277Y-81258015D01*
X209218142Y-81026000D01*
X208611858Y-81026000D01*
X208051723Y-81258015D01*
X207623015Y-81686723D01*
X207391000Y-82246858D01*
X204077472Y-82246858D01*
X204074723Y-82182300D01*
X203892539Y-81742467D01*
X203637196Y-81657409D01*
X202744605Y-82550000D01*
X202385395Y-82550000D01*
X201492804Y-81657409D01*
X201237461Y-81742467D01*
X201029484Y-82311965D01*
X200118489Y-82311965D01*
X199284328Y-81477804D01*
X201672409Y-81477804D01*
X202565000Y-82370395D01*
X203457591Y-81477804D01*
X203372533Y-81222461D01*
X202803035Y-81014484D01*
X202197300Y-81040277D01*
X201757467Y-81222461D01*
X201672409Y-81477804D01*
X199284328Y-81477804D01*
X196842052Y-79035529D01*
X196799650Y-78972070D01*
X196548258Y-78804095D01*
X196326573Y-78759999D01*
X196326568Y-78759999D01*
X196251721Y-78745111D01*
X196176874Y-78759999D01*
X187254849Y-78759999D01*
X187180001Y-78745111D01*
X187105153Y-78759999D01*
X187105149Y-78759999D01*
X186931606Y-78794519D01*
X186883463Y-78804095D01*
X186696419Y-78929075D01*
X186632072Y-78972070D01*
X186589672Y-79035526D01*
X176490199Y-89135000D01*
X176324126Y-89135000D01*
X176164999Y-89200912D01*
X176164999Y-87870510D01*
X176388667Y-87915000D01*
X176671333Y-87915000D01*
X177089909Y-87831740D01*
X177564577Y-87514577D01*
X177881740Y-87039909D01*
X177993113Y-86480000D01*
X177881740Y-85920091D01*
X177564577Y-85445423D01*
X177101966Y-85136316D01*
X177342862Y-85036534D01*
X177746534Y-84632862D01*
X177965000Y-84105439D01*
X177965000Y-83534561D01*
X177943103Y-83481698D01*
X183194802Y-78230000D01*
X196572560Y-78230000D01*
X196572560Y-78370000D01*
X196621843Y-78617765D01*
X196762191Y-78827809D01*
X196972235Y-78968157D01*
X197220000Y-79017440D01*
X199020000Y-79017440D01*
X199267765Y-78968157D01*
X199477809Y-78827809D01*
X199618157Y-78617765D01*
X199621275Y-78602092D01*
X199790493Y-78771310D01*
X200354670Y-79005000D01*
X200965330Y-79005000D01*
X201529507Y-78771310D01*
X201530000Y-78770817D01*
X201530000Y-78945874D01*
X201687569Y-79326280D01*
X201978720Y-79617431D01*
X202359126Y-79775000D01*
X202770874Y-79775000D01*
X203151280Y-79617431D01*
X203268711Y-79500000D01*
X204137153Y-79500000D01*
X204212000Y-79514888D01*
X204286847Y-79500000D01*
X204286852Y-79500000D01*
X204392236Y-79479038D01*
X204772671Y-79859473D01*
X204815071Y-79922929D01*
X204878527Y-79965329D01*
X205066462Y-80090904D01*
X205114605Y-80100480D01*
X205288148Y-80135000D01*
X205288152Y-80135000D01*
X205363000Y-80149888D01*
X205437848Y-80135000D01*
X208211289Y-80135000D01*
X208328720Y-80252431D01*
X208709126Y-80410000D01*
X209120874Y-80410000D01*
X209501280Y-80252431D01*
X209792431Y-79961280D01*
X209950000Y-79580874D01*
X209950000Y-79169126D01*
X209824856Y-78867000D01*
X209827881Y-78867000D01*
X210341337Y-78654320D01*
X210734320Y-78261337D01*
X210820000Y-78054487D01*
X210905680Y-78261337D01*
X211298663Y-78654320D01*
X211812119Y-78867000D01*
X212367881Y-78867000D01*
X212881337Y-78654320D01*
X213274320Y-78261337D01*
X213487000Y-77747881D01*
X213487000Y-77192119D01*
X213274320Y-76678663D01*
X212881337Y-76285680D01*
X212674487Y-76200000D01*
X212881337Y-76114320D01*
X213274320Y-75721337D01*
X213487000Y-75207881D01*
X213487000Y-74652119D01*
X213274320Y-74138663D01*
X212881337Y-73745680D01*
X212367881Y-73533000D01*
X211812119Y-73533000D01*
X211298663Y-73745680D01*
X210905680Y-74138663D01*
X210820000Y-74345513D01*
X210734320Y-74138663D01*
X210341337Y-73745680D01*
X209827881Y-73533000D01*
X209272119Y-73533000D01*
X208758663Y-73745680D01*
X208365680Y-74138663D01*
X208280000Y-74345513D01*
X208194320Y-74138663D01*
X207801337Y-73745680D01*
X207287881Y-73533000D01*
X206732119Y-73533000D01*
X206218663Y-73745680D01*
X205825680Y-74138663D01*
X205740000Y-74345513D01*
X205654320Y-74138663D01*
X205261337Y-73745680D01*
X204747881Y-73533000D01*
X204192119Y-73533000D01*
X203678663Y-73745680D01*
X203285680Y-74138663D01*
X203272863Y-74169606D01*
X203199999Y-74155112D01*
X203125152Y-74170000D01*
X203125148Y-74170000D01*
X202903463Y-74214096D01*
X202903461Y-74214097D01*
X202903462Y-74214097D01*
X202715526Y-74339671D01*
X202715524Y-74339673D01*
X202652071Y-74382071D01*
X202609673Y-74445524D01*
X201074838Y-75980360D01*
X200965330Y-75935000D01*
X200354670Y-75935000D01*
X200245162Y-75980360D01*
X195535331Y-71270530D01*
X195492929Y-71207071D01*
X195241537Y-71039096D01*
X195019852Y-70995000D01*
X195019847Y-70995000D01*
X194945000Y-70980112D01*
X194870153Y-70995000D01*
X190574848Y-70995000D01*
X190500000Y-70980112D01*
X190425152Y-70995000D01*
X190425148Y-70995000D01*
X190203463Y-71039096D01*
X189952071Y-71207071D01*
X189909671Y-71270527D01*
X189550199Y-71630000D01*
X189167213Y-71630000D01*
X189552801Y-71244412D01*
X189855000Y-70514841D01*
X189855000Y-69725159D01*
X189552801Y-68995588D01*
X188994412Y-68437199D01*
X188264841Y-68135000D01*
X187475159Y-68135000D01*
X186745588Y-68437199D01*
X186187199Y-68995588D01*
X185885000Y-69725159D01*
X185885000Y-70360000D01*
X180837213Y-70360000D01*
X181152801Y-70044412D01*
X181455000Y-69314841D01*
X181455000Y-68525159D01*
X181152801Y-67795588D01*
X180594412Y-67237199D01*
X179864841Y-66935000D01*
X179075159Y-66935000D01*
X178572655Y-67143144D01*
X180185800Y-65530000D01*
X180600390Y-65530000D01*
X180639884Y-65625346D01*
X181064654Y-66050116D01*
X181619642Y-66280000D01*
X182220358Y-66280000D01*
X182775346Y-66050116D01*
X183200116Y-65625346D01*
X183430000Y-65070358D01*
X183430000Y-65055750D01*
X183910000Y-65055750D01*
X183910000Y-65771309D01*
X184006673Y-66004698D01*
X184185301Y-66183327D01*
X184418690Y-66280000D01*
X185134250Y-66280000D01*
X185293000Y-66121250D01*
X185293000Y-64897000D01*
X185547000Y-64897000D01*
X185547000Y-66121250D01*
X185705750Y-66280000D01*
X186421310Y-66280000D01*
X186654699Y-66183327D01*
X186833327Y-66004698D01*
X186930000Y-65771309D01*
X186930000Y-65055750D01*
X186771250Y-64897000D01*
X185547000Y-64897000D01*
X185293000Y-64897000D01*
X184068750Y-64897000D01*
X183910000Y-65055750D01*
X183430000Y-65055750D01*
X183430000Y-64469642D01*
X183200116Y-63914654D01*
X182910462Y-63625000D01*
X183969519Y-63625000D01*
X183910000Y-63768691D01*
X183910000Y-64484250D01*
X184068750Y-64643000D01*
X185293000Y-64643000D01*
X185293000Y-64623000D01*
X185547000Y-64623000D01*
X185547000Y-64643000D01*
X186771250Y-64643000D01*
X186930000Y-64484250D01*
X186930000Y-63768691D01*
X186870481Y-63625000D01*
X188567653Y-63625000D01*
X188642500Y-63639888D01*
X188717347Y-63625000D01*
X188717352Y-63625000D01*
X188939037Y-63580904D01*
X189190429Y-63412929D01*
X189232831Y-63349470D01*
X191316424Y-61265878D01*
X191770000Y-61356100D01*
X192389411Y-61232891D01*
X192914523Y-60882023D01*
X193265391Y-60356910D01*
X193357500Y-59893849D01*
X193357500Y-59486150D01*
X193298378Y-59188924D01*
X195337302Y-57150000D01*
X196656887Y-57150000D01*
X196768260Y-57709909D01*
X197085423Y-58184577D01*
X197560091Y-58501740D01*
X197978667Y-58585000D01*
X198261333Y-58585000D01*
X198679909Y-58501740D01*
X199154577Y-58184577D01*
X199471740Y-57709909D01*
X199583113Y-57150000D01*
X199471740Y-56590091D01*
X199154577Y-56115423D01*
X198679909Y-55798260D01*
X198261333Y-55715000D01*
X197978667Y-55715000D01*
X197560091Y-55798260D01*
X197085423Y-56115423D01*
X196768260Y-56590091D01*
X196656887Y-57150000D01*
X195337302Y-57150000D01*
X197752303Y-54735000D01*
X199710199Y-54735000D01*
X199900000Y-54924802D01*
X199900001Y-68503330D01*
X199790493Y-68548690D01*
X199621275Y-68717908D01*
X199618157Y-68702235D01*
X199477809Y-68492191D01*
X199267765Y-68351843D01*
X199020000Y-68302560D01*
X198880000Y-68302560D01*
X198880000Y-66008430D01*
X198932862Y-65986534D01*
X199336534Y-65582862D01*
X199555000Y-65055439D01*
X199555000Y-64484561D01*
X199336534Y-63957138D01*
X198932862Y-63553466D01*
X198405439Y-63335000D01*
X197834561Y-63335000D01*
X197307138Y-63553466D01*
X196903466Y-63957138D01*
X196685000Y-64484561D01*
X196685000Y-65055439D01*
X196903466Y-65582862D01*
X197307138Y-65986534D01*
X197360001Y-66008430D01*
X197360000Y-68302560D01*
X197220000Y-68302560D01*
X196972235Y-68351843D01*
X196762191Y-68492191D01*
X196621843Y-68702235D01*
X196572560Y-68950000D01*
X196572560Y-70750000D01*
X196621843Y-70997765D01*
X196762191Y-71207809D01*
X196972235Y-71348157D01*
X197220000Y-71397440D01*
X199020000Y-71397440D01*
X199267765Y-71348157D01*
X199477809Y-71207809D01*
X199618157Y-70997765D01*
X199621275Y-70982092D01*
X199790493Y-71151310D01*
X200354670Y-71385000D01*
X200965330Y-71385000D01*
X201529507Y-71151310D01*
X201961310Y-70719507D01*
X202195000Y-70155330D01*
X202195000Y-69544670D01*
X201961310Y-68980493D01*
X201529507Y-68548690D01*
X201420000Y-68503331D01*
X201420000Y-54684848D01*
X201434888Y-54610000D01*
X201420000Y-54535152D01*
X201420000Y-54535148D01*
X201375904Y-54313463D01*
X201207929Y-54062071D01*
X201144473Y-54019671D01*
X200615331Y-53490530D01*
X200572929Y-53427071D01*
X200321537Y-53259096D01*
X200099852Y-53215000D01*
X200099847Y-53215000D01*
X200025000Y-53200112D01*
X199950153Y-53215000D01*
X197512346Y-53215000D01*
X197437499Y-53200112D01*
X197362652Y-53215000D01*
X197362648Y-53215000D01*
X197140963Y-53259096D01*
X197140961Y-53259097D01*
X197140962Y-53259097D01*
X196953026Y-53384671D01*
X196953024Y-53384673D01*
X196889571Y-53427071D01*
X196847173Y-53490524D01*
X192223576Y-58114122D01*
X191770000Y-58023900D01*
X191316424Y-58114122D01*
X189157302Y-55955000D01*
X190637775Y-55955000D01*
X192065676Y-55363544D01*
X193158544Y-54270676D01*
X193750000Y-52842775D01*
X193750000Y-51297225D01*
X193158544Y-49869324D01*
X192311220Y-49022000D01*
X217117394Y-49022000D01*
X217678000Y-49582606D01*
G36*
X155702000Y-105283000D02*
X155722000Y-105283000D01*
X155722000Y-105537000D01*
X155702000Y-105537000D01*
X155702000Y-105557000D01*
X155448000Y-105557000D01*
X155448000Y-105537000D01*
X155428000Y-105537000D01*
X155428000Y-105283000D01*
X155448000Y-105283000D01*
X155448000Y-105263000D01*
X155702000Y-105263000D01*
X155702000Y-105283000D01*
X155702000Y-105283000D01*
G37*
X155702000Y-105283000D02*
X155722000Y-105283000D01*
X155722000Y-105537000D01*
X155702000Y-105537000D01*
X155702000Y-105557000D01*
X155448000Y-105557000D01*
X155448000Y-105537000D01*
X155428000Y-105537000D01*
X155428000Y-105283000D01*
X155448000Y-105283000D01*
X155448000Y-105263000D01*
X155702000Y-105263000D01*
X155702000Y-105283000D01*
G36*
X161843260Y-99770091D02*
X161731887Y-100330000D01*
X161843260Y-100889909D01*
X162160423Y-101364577D01*
X162512758Y-101600000D01*
X162160423Y-101835423D01*
X161843260Y-102310091D01*
X161731887Y-102870000D01*
X161843260Y-103429909D01*
X162160423Y-103904577D01*
X162512758Y-104140000D01*
X162160423Y-104375423D01*
X161843260Y-104850091D01*
X161731887Y-105410000D01*
X161732405Y-105412603D01*
X156973688Y-100653887D01*
X157038113Y-100330000D01*
X156926740Y-99770091D01*
X156863203Y-99675001D01*
X161906797Y-99675001D01*
X161843260Y-99770091D01*
X161843260Y-99770091D01*
G37*
X161843260Y-99770091D02*
X161731887Y-100330000D01*
X161843260Y-100889909D01*
X162160423Y-101364577D01*
X162512758Y-101600000D01*
X162160423Y-101835423D01*
X161843260Y-102310091D01*
X161731887Y-102870000D01*
X161843260Y-103429909D01*
X162160423Y-103904577D01*
X162512758Y-104140000D01*
X162160423Y-104375423D01*
X161843260Y-104850091D01*
X161731887Y-105410000D01*
X161732405Y-105412603D01*
X156973688Y-100653887D01*
X157038113Y-100330000D01*
X156926740Y-99770091D01*
X156863203Y-99675001D01*
X161906797Y-99675001D01*
X161843260Y-99770091D01*
G36*
X177595199Y-98660000D02*
X177594126Y-98660000D01*
X177213720Y-98817569D01*
X176922569Y-99108720D01*
X176765000Y-99489126D01*
X176765000Y-99620001D01*
X171068316Y-99620001D01*
X171190509Y-99325000D01*
X171715330Y-99325000D01*
X172279507Y-99091310D01*
X172660000Y-98710817D01*
X173040493Y-99091310D01*
X173604670Y-99325000D01*
X174215330Y-99325000D01*
X174779507Y-99091310D01*
X175211310Y-98659507D01*
X175256669Y-98550000D01*
X175826289Y-98550000D01*
X175943720Y-98667431D01*
X176324126Y-98825000D01*
X176735874Y-98825000D01*
X177116280Y-98667431D01*
X177359455Y-98424256D01*
X177595199Y-98660000D01*
X177595199Y-98660000D01*
G37*
X177595199Y-98660000D02*
X177594126Y-98660000D01*
X177213720Y-98817569D01*
X176922569Y-99108720D01*
X176765000Y-99489126D01*
X176765000Y-99620001D01*
X171068316Y-99620001D01*
X171190509Y-99325000D01*
X171715330Y-99325000D01*
X172279507Y-99091310D01*
X172660000Y-98710817D01*
X173040493Y-99091310D01*
X173604670Y-99325000D01*
X174215330Y-99325000D01*
X174779507Y-99091310D01*
X175211310Y-98659507D01*
X175256669Y-98550000D01*
X175826289Y-98550000D01*
X175943720Y-98667431D01*
X176324126Y-98825000D01*
X176735874Y-98825000D01*
X177116280Y-98667431D01*
X177359455Y-98424256D01*
X177595199Y-98660000D01*
G36*
X164222569Y-96401965D02*
X164513720Y-96693116D01*
X164894126Y-96850685D01*
X165060199Y-96850685D01*
X167040401Y-98830888D01*
X166762569Y-99108720D01*
X166605000Y-99489126D01*
X166605000Y-99570000D01*
X164413043Y-99570000D01*
X164229577Y-99295423D01*
X163877242Y-99060000D01*
X164229577Y-98824577D01*
X164546740Y-98349909D01*
X164658113Y-97790000D01*
X164546740Y-97230091D01*
X164229577Y-96755423D01*
X163877242Y-96520000D01*
X164186005Y-96313691D01*
X164222569Y-96401965D01*
X164222569Y-96401965D01*
G37*
X164222569Y-96401965D02*
X164513720Y-96693116D01*
X164894126Y-96850685D01*
X165060199Y-96850685D01*
X167040401Y-98830888D01*
X166762569Y-99108720D01*
X166605000Y-99489126D01*
X166605000Y-99570000D01*
X164413043Y-99570000D01*
X164229577Y-99295423D01*
X163877242Y-99060000D01*
X164229577Y-98824577D01*
X164546740Y-98349909D01*
X164658113Y-97790000D01*
X164546740Y-97230091D01*
X164229577Y-96755423D01*
X163877242Y-96520000D01*
X164186005Y-96313691D01*
X164222569Y-96401965D01*
G36*
X168785001Y-95810148D02*
X168770112Y-95885000D01*
X168785001Y-95959851D01*
X168785001Y-95959852D01*
X168798023Y-96025320D01*
X168829097Y-96181537D01*
X168878173Y-96254984D01*
X168540540Y-96269161D01*
X168095852Y-96453357D01*
X168009446Y-96709841D01*
X168910000Y-97610395D01*
X168924143Y-97596253D01*
X169103748Y-97775858D01*
X169089605Y-97790000D01*
X169103748Y-97804143D01*
X168924143Y-97983748D01*
X168910000Y-97969605D01*
X168895858Y-97983748D01*
X168716253Y-97804143D01*
X168730395Y-97790000D01*
X167829841Y-96889446D01*
X167573357Y-96975852D01*
X167509502Y-97150386D01*
X166135000Y-95775884D01*
X166135000Y-95609811D01*
X165977431Y-95229405D01*
X165686280Y-94938254D01*
X165557711Y-94884999D01*
X168055154Y-94884999D01*
X168130001Y-94899887D01*
X168204848Y-94884999D01*
X168204853Y-94884999D01*
X168426538Y-94840903D01*
X168677930Y-94672928D01*
X168720332Y-94609469D01*
X168785001Y-94544801D01*
X168785001Y-95810148D01*
X168785001Y-95810148D01*
G37*
X168785001Y-95810148D02*
X168770112Y-95885000D01*
X168785001Y-95959851D01*
X168785001Y-95959852D01*
X168798023Y-96025320D01*
X168829097Y-96181537D01*
X168878173Y-96254984D01*
X168540540Y-96269161D01*
X168095852Y-96453357D01*
X168009446Y-96709841D01*
X168910000Y-97610395D01*
X168924143Y-97596253D01*
X169103748Y-97775858D01*
X169089605Y-97790000D01*
X169103748Y-97804143D01*
X168924143Y-97983748D01*
X168910000Y-97969605D01*
X168895858Y-97983748D01*
X168716253Y-97804143D01*
X168730395Y-97790000D01*
X167829841Y-96889446D01*
X167573357Y-96975852D01*
X167509502Y-97150386D01*
X166135000Y-95775884D01*
X166135000Y-95609811D01*
X165977431Y-95229405D01*
X165686280Y-94938254D01*
X165557711Y-94884999D01*
X168055154Y-94884999D01*
X168130001Y-94899887D01*
X168204848Y-94884999D01*
X168204853Y-94884999D01*
X168426538Y-94840903D01*
X168677930Y-94672928D01*
X168720332Y-94609469D01*
X168785001Y-94544801D01*
X168785001Y-95810148D01*
G36*
X144697758Y-75922560D02*
X143880000Y-75922560D01*
X143632235Y-75971843D01*
X143422191Y-76112191D01*
X143281843Y-76322235D01*
X143232560Y-76570000D01*
X143232560Y-78370000D01*
X143281843Y-78617765D01*
X143422191Y-78827809D01*
X143632235Y-78968157D01*
X143880000Y-79017440D01*
X145680000Y-79017440D01*
X145927765Y-78968157D01*
X146137809Y-78827809D01*
X146278157Y-78617765D01*
X146281275Y-78602092D01*
X146450493Y-78771310D01*
X147014670Y-79005000D01*
X147625330Y-79005000D01*
X148189507Y-78771310D01*
X148621310Y-78339507D01*
X148829235Y-77837532D01*
X150157073Y-77837532D01*
X150255736Y-78104387D01*
X150865461Y-78330908D01*
X151515460Y-78306856D01*
X152004264Y-78104387D01*
X152102927Y-77837532D01*
X151130000Y-76864605D01*
X150157073Y-77837532D01*
X148829235Y-77837532D01*
X148855000Y-77775330D01*
X148855000Y-77164670D01*
X148809640Y-77055161D01*
X149507590Y-76357212D01*
X149484092Y-76420461D01*
X149508144Y-77070460D01*
X149710613Y-77559264D01*
X149977468Y-77657927D01*
X150950395Y-76685000D01*
X150936253Y-76670858D01*
X151115858Y-76491253D01*
X151130000Y-76505395D01*
X151144143Y-76491253D01*
X151323748Y-76670858D01*
X151309605Y-76685000D01*
X152282532Y-77657927D01*
X152549387Y-77559264D01*
X152775908Y-76949539D01*
X152751856Y-76299540D01*
X152559437Y-75834999D01*
X154212371Y-75834999D01*
X153995000Y-76359778D01*
X153995000Y-77010222D01*
X154243914Y-77611153D01*
X154703847Y-78071086D01*
X154870000Y-78139909D01*
X154870001Y-81730091D01*
X154703847Y-81798914D01*
X154243914Y-82258847D01*
X153995000Y-82859778D01*
X153995000Y-83510222D01*
X154063823Y-83676376D01*
X153515520Y-84224679D01*
X153452061Y-84267081D01*
X153284086Y-84518474D01*
X153239990Y-84740159D01*
X153239990Y-84740163D01*
X153225102Y-84815010D01*
X153239990Y-84889857D01*
X153239991Y-93335207D01*
X152360199Y-94215000D01*
X152194126Y-94215000D01*
X151813720Y-94372569D01*
X151522569Y-94663720D01*
X151365000Y-95044126D01*
X151365000Y-95455874D01*
X151490973Y-95760000D01*
X148990000Y-95760000D01*
X148990000Y-95679126D01*
X148832431Y-95298720D01*
X148541280Y-95007569D01*
X148160874Y-94850000D01*
X147749126Y-94850000D01*
X147368720Y-95007569D01*
X147077569Y-95298720D01*
X147073959Y-95307435D01*
X139093382Y-87326858D01*
X141351000Y-87326858D01*
X141351000Y-87933142D01*
X141583015Y-88493277D01*
X142011723Y-88921985D01*
X142571858Y-89154000D01*
X143178142Y-89154000D01*
X143738277Y-88921985D01*
X144166985Y-88493277D01*
X144276520Y-88228834D01*
X145542000Y-88228834D01*
X145542000Y-88936166D01*
X145812684Y-89589656D01*
X146312844Y-90089816D01*
X146966334Y-90360500D01*
X147673666Y-90360500D01*
X148327156Y-90089816D01*
X148827316Y-89589656D01*
X149098000Y-88936166D01*
X149098000Y-88228834D01*
X148827316Y-87575344D01*
X148327156Y-87075184D01*
X147673666Y-86804500D01*
X146966334Y-86804500D01*
X146312844Y-87075184D01*
X145812684Y-87575344D01*
X145542000Y-88228834D01*
X144276520Y-88228834D01*
X144399000Y-87933142D01*
X144399000Y-87326858D01*
X144166985Y-86766723D01*
X143738277Y-86338015D01*
X143178142Y-86106000D01*
X142571858Y-86106000D01*
X142011723Y-86338015D01*
X141583015Y-86766723D01*
X141351000Y-87326858D01*
X139093382Y-87326858D01*
X137698052Y-85931529D01*
X137655650Y-85868070D01*
X137404258Y-85700095D01*
X137182573Y-85655999D01*
X137182568Y-85655999D01*
X137107721Y-85641111D01*
X137032874Y-85655999D01*
X136017127Y-85655999D01*
X135942279Y-85641111D01*
X135867431Y-85655999D01*
X135867427Y-85655999D01*
X135693884Y-85690519D01*
X135645741Y-85700095D01*
X135468152Y-85818757D01*
X135394350Y-85868070D01*
X135351950Y-85931526D01*
X134826527Y-86456950D01*
X134763071Y-86499350D01*
X134720671Y-86562806D01*
X134720670Y-86562807D01*
X134595096Y-86750742D01*
X134536111Y-87047279D01*
X134551000Y-87122131D01*
X134550999Y-89164199D01*
X131062922Y-92652276D01*
X131049723Y-92342300D01*
X130867539Y-91902467D01*
X130612196Y-91817409D01*
X129719605Y-92710000D01*
X129733748Y-92724143D01*
X129554143Y-92903748D01*
X129540000Y-92889605D01*
X129525858Y-92903748D01*
X129346253Y-92724143D01*
X129360395Y-92710000D01*
X129346253Y-92695858D01*
X129525858Y-92516253D01*
X129540000Y-92530395D01*
X130432591Y-91637804D01*
X130347533Y-91382461D01*
X129778035Y-91174484D01*
X129172300Y-91200277D01*
X129085999Y-91236024D01*
X129085999Y-88228834D01*
X130302000Y-88228834D01*
X130302000Y-88936166D01*
X130572684Y-89589656D01*
X131072844Y-90089816D01*
X131726334Y-90360500D01*
X132433666Y-90360500D01*
X133087156Y-90089816D01*
X133587316Y-89589656D01*
X133858000Y-88936166D01*
X133858000Y-88228834D01*
X133587316Y-87575344D01*
X133087156Y-87075184D01*
X132433666Y-86804500D01*
X131726334Y-86804500D01*
X131072844Y-87075184D01*
X130572684Y-87575344D01*
X130302000Y-88228834D01*
X129085999Y-88228834D01*
X129085999Y-84337532D01*
X150157073Y-84337532D01*
X150255736Y-84604387D01*
X150865461Y-84830908D01*
X151515460Y-84806856D01*
X152004264Y-84604387D01*
X152102927Y-84337532D01*
X151130000Y-83364605D01*
X150157073Y-84337532D01*
X129085999Y-84337532D01*
X129085999Y-83622196D01*
X135632409Y-83622196D01*
X135717467Y-83877539D01*
X136286965Y-84085516D01*
X136892700Y-84059723D01*
X137332533Y-83877539D01*
X137417591Y-83622196D01*
X136525000Y-82729605D01*
X135632409Y-83622196D01*
X129085999Y-83622196D01*
X129085999Y-82311965D01*
X134989484Y-82311965D01*
X135015277Y-82917700D01*
X135197461Y-83357533D01*
X135452804Y-83442591D01*
X136345395Y-82550000D01*
X136704605Y-82550000D01*
X137597196Y-83442591D01*
X137852539Y-83357533D01*
X138060516Y-82788035D01*
X138037472Y-82246858D01*
X141351000Y-82246858D01*
X141351000Y-82853142D01*
X141583015Y-83413277D01*
X142011723Y-83841985D01*
X142571858Y-84074000D01*
X143178142Y-84074000D01*
X143738277Y-83841985D01*
X144166985Y-83413277D01*
X144371115Y-82920461D01*
X149484092Y-82920461D01*
X149508144Y-83570460D01*
X149710613Y-84059264D01*
X149977468Y-84157927D01*
X150950395Y-83185000D01*
X151309605Y-83185000D01*
X152282532Y-84157927D01*
X152549387Y-84059264D01*
X152775908Y-83449539D01*
X152751856Y-82799540D01*
X152549387Y-82310736D01*
X152282532Y-82212073D01*
X151309605Y-83185000D01*
X150950395Y-83185000D01*
X149977468Y-82212073D01*
X149710613Y-82310736D01*
X149484092Y-82920461D01*
X144371115Y-82920461D01*
X144399000Y-82853142D01*
X144399000Y-82246858D01*
X144310197Y-82032468D01*
X150157073Y-82032468D01*
X151130000Y-83005395D01*
X152102927Y-82032468D01*
X152004264Y-81765613D01*
X151394539Y-81539092D01*
X150744540Y-81563144D01*
X150255736Y-81765613D01*
X150157073Y-82032468D01*
X144310197Y-82032468D01*
X144166985Y-81686723D01*
X143738277Y-81258015D01*
X143178142Y-81026000D01*
X142571858Y-81026000D01*
X142011723Y-81258015D01*
X141583015Y-81686723D01*
X141351000Y-82246858D01*
X138037472Y-82246858D01*
X138034723Y-82182300D01*
X137852539Y-81742467D01*
X137597196Y-81657409D01*
X136704605Y-82550000D01*
X136345395Y-82550000D01*
X135452804Y-81657409D01*
X135197461Y-81742467D01*
X134989484Y-82311965D01*
X129085999Y-82311965D01*
X129085999Y-81477804D01*
X135632409Y-81477804D01*
X136525000Y-82370395D01*
X137417591Y-81477804D01*
X137332533Y-81222461D01*
X136763035Y-81014484D01*
X136157300Y-81040277D01*
X135717467Y-81222461D01*
X135632409Y-81477804D01*
X129085999Y-81477804D01*
X129085999Y-78879440D01*
X130302000Y-78879440D01*
X130549765Y-78830157D01*
X130759809Y-78689809D01*
X130900157Y-78479765D01*
X130935653Y-78301310D01*
X131288663Y-78654320D01*
X131802119Y-78867000D01*
X132357881Y-78867000D01*
X132871337Y-78654320D01*
X133264320Y-78261337D01*
X133350000Y-78054487D01*
X133435680Y-78261337D01*
X133828663Y-78654320D01*
X134342119Y-78867000D01*
X134897881Y-78867000D01*
X135411337Y-78654320D01*
X135804320Y-78261337D01*
X135890000Y-78054487D01*
X135975680Y-78261337D01*
X136368663Y-78654320D01*
X136882119Y-78867000D01*
X137437881Y-78867000D01*
X137951337Y-78654320D01*
X138344320Y-78261337D01*
X138557000Y-77747881D01*
X138557000Y-77192119D01*
X138344320Y-76678663D01*
X137951337Y-76285680D01*
X137744487Y-76200000D01*
X137951337Y-76114320D01*
X138344320Y-75721337D01*
X138557000Y-75207881D01*
X138557000Y-74652119D01*
X138344320Y-74138663D01*
X137951337Y-73745680D01*
X137437881Y-73533000D01*
X136882119Y-73533000D01*
X136368663Y-73745680D01*
X135975680Y-74138663D01*
X135890000Y-74345513D01*
X135804320Y-74138663D01*
X135411337Y-73745680D01*
X134897881Y-73533000D01*
X134342119Y-73533000D01*
X133828663Y-73745680D01*
X133435680Y-74138663D01*
X133350000Y-74345513D01*
X133264320Y-74138663D01*
X132871337Y-73745680D01*
X132357881Y-73533000D01*
X131802119Y-73533000D01*
X131288663Y-73745680D01*
X130895680Y-74138663D01*
X130810000Y-74345513D01*
X130724320Y-74138663D01*
X130331337Y-73745680D01*
X130300000Y-73732700D01*
X130300000Y-72069801D01*
X133664802Y-68705000D01*
X137480199Y-68705000D01*
X144697758Y-75922560D01*
X144697758Y-75922560D01*
G37*
X144697758Y-75922560D02*
X143880000Y-75922560D01*
X143632235Y-75971843D01*
X143422191Y-76112191D01*
X143281843Y-76322235D01*
X143232560Y-76570000D01*
X143232560Y-78370000D01*
X143281843Y-78617765D01*
X143422191Y-78827809D01*
X143632235Y-78968157D01*
X143880000Y-79017440D01*
X145680000Y-79017440D01*
X145927765Y-78968157D01*
X146137809Y-78827809D01*
X146278157Y-78617765D01*
X146281275Y-78602092D01*
X146450493Y-78771310D01*
X147014670Y-79005000D01*
X147625330Y-79005000D01*
X148189507Y-78771310D01*
X148621310Y-78339507D01*
X148829235Y-77837532D01*
X150157073Y-77837532D01*
X150255736Y-78104387D01*
X150865461Y-78330908D01*
X151515460Y-78306856D01*
X152004264Y-78104387D01*
X152102927Y-77837532D01*
X151130000Y-76864605D01*
X150157073Y-77837532D01*
X148829235Y-77837532D01*
X148855000Y-77775330D01*
X148855000Y-77164670D01*
X148809640Y-77055161D01*
X149507590Y-76357212D01*
X149484092Y-76420461D01*
X149508144Y-77070460D01*
X149710613Y-77559264D01*
X149977468Y-77657927D01*
X150950395Y-76685000D01*
X150936253Y-76670858D01*
X151115858Y-76491253D01*
X151130000Y-76505395D01*
X151144143Y-76491253D01*
X151323748Y-76670858D01*
X151309605Y-76685000D01*
X152282532Y-77657927D01*
X152549387Y-77559264D01*
X152775908Y-76949539D01*
X152751856Y-76299540D01*
X152559437Y-75834999D01*
X154212371Y-75834999D01*
X153995000Y-76359778D01*
X153995000Y-77010222D01*
X154243914Y-77611153D01*
X154703847Y-78071086D01*
X154870000Y-78139909D01*
X154870001Y-81730091D01*
X154703847Y-81798914D01*
X154243914Y-82258847D01*
X153995000Y-82859778D01*
X153995000Y-83510222D01*
X154063823Y-83676376D01*
X153515520Y-84224679D01*
X153452061Y-84267081D01*
X153284086Y-84518474D01*
X153239990Y-84740159D01*
X153239990Y-84740163D01*
X153225102Y-84815010D01*
X153239990Y-84889857D01*
X153239991Y-93335207D01*
X152360199Y-94215000D01*
X152194126Y-94215000D01*
X151813720Y-94372569D01*
X151522569Y-94663720D01*
X151365000Y-95044126D01*
X151365000Y-95455874D01*
X151490973Y-95760000D01*
X148990000Y-95760000D01*
X148990000Y-95679126D01*
X148832431Y-95298720D01*
X148541280Y-95007569D01*
X148160874Y-94850000D01*
X147749126Y-94850000D01*
X147368720Y-95007569D01*
X147077569Y-95298720D01*
X147073959Y-95307435D01*
X139093382Y-87326858D01*
X141351000Y-87326858D01*
X141351000Y-87933142D01*
X141583015Y-88493277D01*
X142011723Y-88921985D01*
X142571858Y-89154000D01*
X143178142Y-89154000D01*
X143738277Y-88921985D01*
X144166985Y-88493277D01*
X144276520Y-88228834D01*
X145542000Y-88228834D01*
X145542000Y-88936166D01*
X145812684Y-89589656D01*
X146312844Y-90089816D01*
X146966334Y-90360500D01*
X147673666Y-90360500D01*
X148327156Y-90089816D01*
X148827316Y-89589656D01*
X149098000Y-88936166D01*
X149098000Y-88228834D01*
X148827316Y-87575344D01*
X148327156Y-87075184D01*
X147673666Y-86804500D01*
X146966334Y-86804500D01*
X146312844Y-87075184D01*
X145812684Y-87575344D01*
X145542000Y-88228834D01*
X144276520Y-88228834D01*
X144399000Y-87933142D01*
X144399000Y-87326858D01*
X144166985Y-86766723D01*
X143738277Y-86338015D01*
X143178142Y-86106000D01*
X142571858Y-86106000D01*
X142011723Y-86338015D01*
X141583015Y-86766723D01*
X141351000Y-87326858D01*
X139093382Y-87326858D01*
X137698052Y-85931529D01*
X137655650Y-85868070D01*
X137404258Y-85700095D01*
X137182573Y-85655999D01*
X137182568Y-85655999D01*
X137107721Y-85641111D01*
X137032874Y-85655999D01*
X136017127Y-85655999D01*
X135942279Y-85641111D01*
X135867431Y-85655999D01*
X135867427Y-85655999D01*
X135693884Y-85690519D01*
X135645741Y-85700095D01*
X135468152Y-85818757D01*
X135394350Y-85868070D01*
X135351950Y-85931526D01*
X134826527Y-86456950D01*
X134763071Y-86499350D01*
X134720671Y-86562806D01*
X134720670Y-86562807D01*
X134595096Y-86750742D01*
X134536111Y-87047279D01*
X134551000Y-87122131D01*
X134550999Y-89164199D01*
X131062922Y-92652276D01*
X131049723Y-92342300D01*
X130867539Y-91902467D01*
X130612196Y-91817409D01*
X129719605Y-92710000D01*
X129733748Y-92724143D01*
X129554143Y-92903748D01*
X129540000Y-92889605D01*
X129525858Y-92903748D01*
X129346253Y-92724143D01*
X129360395Y-92710000D01*
X129346253Y-92695858D01*
X129525858Y-92516253D01*
X129540000Y-92530395D01*
X130432591Y-91637804D01*
X130347533Y-91382461D01*
X129778035Y-91174484D01*
X129172300Y-91200277D01*
X129085999Y-91236024D01*
X129085999Y-88228834D01*
X130302000Y-88228834D01*
X130302000Y-88936166D01*
X130572684Y-89589656D01*
X131072844Y-90089816D01*
X131726334Y-90360500D01*
X132433666Y-90360500D01*
X133087156Y-90089816D01*
X133587316Y-89589656D01*
X133858000Y-88936166D01*
X133858000Y-88228834D01*
X133587316Y-87575344D01*
X133087156Y-87075184D01*
X132433666Y-86804500D01*
X131726334Y-86804500D01*
X131072844Y-87075184D01*
X130572684Y-87575344D01*
X130302000Y-88228834D01*
X129085999Y-88228834D01*
X129085999Y-84337532D01*
X150157073Y-84337532D01*
X150255736Y-84604387D01*
X150865461Y-84830908D01*
X151515460Y-84806856D01*
X152004264Y-84604387D01*
X152102927Y-84337532D01*
X151130000Y-83364605D01*
X150157073Y-84337532D01*
X129085999Y-84337532D01*
X129085999Y-83622196D01*
X135632409Y-83622196D01*
X135717467Y-83877539D01*
X136286965Y-84085516D01*
X136892700Y-84059723D01*
X137332533Y-83877539D01*
X137417591Y-83622196D01*
X136525000Y-82729605D01*
X135632409Y-83622196D01*
X129085999Y-83622196D01*
X129085999Y-82311965D01*
X134989484Y-82311965D01*
X135015277Y-82917700D01*
X135197461Y-83357533D01*
X135452804Y-83442591D01*
X136345395Y-82550000D01*
X136704605Y-82550000D01*
X137597196Y-83442591D01*
X137852539Y-83357533D01*
X138060516Y-82788035D01*
X138037472Y-82246858D01*
X141351000Y-82246858D01*
X141351000Y-82853142D01*
X141583015Y-83413277D01*
X142011723Y-83841985D01*
X142571858Y-84074000D01*
X143178142Y-84074000D01*
X143738277Y-83841985D01*
X144166985Y-83413277D01*
X144371115Y-82920461D01*
X149484092Y-82920461D01*
X149508144Y-83570460D01*
X149710613Y-84059264D01*
X149977468Y-84157927D01*
X150950395Y-83185000D01*
X151309605Y-83185000D01*
X152282532Y-84157927D01*
X152549387Y-84059264D01*
X152775908Y-83449539D01*
X152751856Y-82799540D01*
X152549387Y-82310736D01*
X152282532Y-82212073D01*
X151309605Y-83185000D01*
X150950395Y-83185000D01*
X149977468Y-82212073D01*
X149710613Y-82310736D01*
X149484092Y-82920461D01*
X144371115Y-82920461D01*
X144399000Y-82853142D01*
X144399000Y-82246858D01*
X144310197Y-82032468D01*
X150157073Y-82032468D01*
X151130000Y-83005395D01*
X152102927Y-82032468D01*
X152004264Y-81765613D01*
X151394539Y-81539092D01*
X150744540Y-81563144D01*
X150255736Y-81765613D01*
X150157073Y-82032468D01*
X144310197Y-82032468D01*
X144166985Y-81686723D01*
X143738277Y-81258015D01*
X143178142Y-81026000D01*
X142571858Y-81026000D01*
X142011723Y-81258015D01*
X141583015Y-81686723D01*
X141351000Y-82246858D01*
X138037472Y-82246858D01*
X138034723Y-82182300D01*
X137852539Y-81742467D01*
X137597196Y-81657409D01*
X136704605Y-82550000D01*
X136345395Y-82550000D01*
X135452804Y-81657409D01*
X135197461Y-81742467D01*
X134989484Y-82311965D01*
X129085999Y-82311965D01*
X129085999Y-81477804D01*
X135632409Y-81477804D01*
X136525000Y-82370395D01*
X137417591Y-81477804D01*
X137332533Y-81222461D01*
X136763035Y-81014484D01*
X136157300Y-81040277D01*
X135717467Y-81222461D01*
X135632409Y-81477804D01*
X129085999Y-81477804D01*
X129085999Y-78879440D01*
X130302000Y-78879440D01*
X130549765Y-78830157D01*
X130759809Y-78689809D01*
X130900157Y-78479765D01*
X130935653Y-78301310D01*
X131288663Y-78654320D01*
X131802119Y-78867000D01*
X132357881Y-78867000D01*
X132871337Y-78654320D01*
X133264320Y-78261337D01*
X133350000Y-78054487D01*
X133435680Y-78261337D01*
X133828663Y-78654320D01*
X134342119Y-78867000D01*
X134897881Y-78867000D01*
X135411337Y-78654320D01*
X135804320Y-78261337D01*
X135890000Y-78054487D01*
X135975680Y-78261337D01*
X136368663Y-78654320D01*
X136882119Y-78867000D01*
X137437881Y-78867000D01*
X137951337Y-78654320D01*
X138344320Y-78261337D01*
X138557000Y-77747881D01*
X138557000Y-77192119D01*
X138344320Y-76678663D01*
X137951337Y-76285680D01*
X137744487Y-76200000D01*
X137951337Y-76114320D01*
X138344320Y-75721337D01*
X138557000Y-75207881D01*
X138557000Y-74652119D01*
X138344320Y-74138663D01*
X137951337Y-73745680D01*
X137437881Y-73533000D01*
X136882119Y-73533000D01*
X136368663Y-73745680D01*
X135975680Y-74138663D01*
X135890000Y-74345513D01*
X135804320Y-74138663D01*
X135411337Y-73745680D01*
X134897881Y-73533000D01*
X134342119Y-73533000D01*
X133828663Y-73745680D01*
X133435680Y-74138663D01*
X133350000Y-74345513D01*
X133264320Y-74138663D01*
X132871337Y-73745680D01*
X132357881Y-73533000D01*
X131802119Y-73533000D01*
X131288663Y-73745680D01*
X130895680Y-74138663D01*
X130810000Y-74345513D01*
X130724320Y-74138663D01*
X130331337Y-73745680D01*
X130300000Y-73732700D01*
X130300000Y-72069801D01*
X133664802Y-68705000D01*
X137480199Y-68705000D01*
X144697758Y-75922560D01*
G36*
X164589832Y-94906728D02*
X164585510Y-94884999D01*
X164642289Y-94884999D01*
X164589832Y-94906728D01*
X164589832Y-94906728D01*
G37*
X164589832Y-94906728D02*
X164585510Y-94884999D01*
X164642289Y-94884999D01*
X164589832Y-94906728D01*
G36*
X168872191Y-72427809D02*
X169082235Y-72568157D01*
X169330000Y-72617440D01*
X170690001Y-72617440D01*
X170690000Y-82475153D01*
X170675112Y-82550000D01*
X170690000Y-82624847D01*
X170690000Y-82624851D01*
X170734096Y-82846536D01*
X170902071Y-83097929D01*
X170965530Y-83140331D01*
X171306897Y-83481698D01*
X171285000Y-83534561D01*
X171285000Y-84105439D01*
X171503466Y-84632862D01*
X171907138Y-85036534D01*
X172148034Y-85136316D01*
X171685423Y-85445423D01*
X171501957Y-85720000D01*
X171249802Y-85720000D01*
X169688103Y-84158302D01*
X169710000Y-84105439D01*
X169710000Y-83534561D01*
X169491534Y-83007138D01*
X169087862Y-82603466D01*
X168560439Y-82385000D01*
X167989561Y-82385000D01*
X167936698Y-82406896D01*
X167290321Y-81760520D01*
X167247919Y-81697061D01*
X166996527Y-81529086D01*
X166774842Y-81484990D01*
X166774837Y-81484990D01*
X166699990Y-81470102D01*
X166625143Y-81484990D01*
X158733444Y-81484990D01*
X158658597Y-81470102D01*
X158583750Y-81484990D01*
X158583746Y-81484990D01*
X158362061Y-81529086D01*
X158110669Y-81697061D01*
X158068269Y-81760517D01*
X157178306Y-82650480D01*
X157016086Y-82258847D01*
X156556153Y-81798914D01*
X156390000Y-81730091D01*
X156390000Y-78139909D01*
X156556153Y-78071086D01*
X157016086Y-77611153D01*
X157265000Y-77010222D01*
X157265000Y-76359778D01*
X157047629Y-75834999D01*
X157994490Y-75834999D01*
X157921887Y-76200000D01*
X158033260Y-76759909D01*
X158350423Y-77234577D01*
X158825091Y-77551740D01*
X159243667Y-77635000D01*
X159526333Y-77635000D01*
X159944909Y-77551740D01*
X160419577Y-77234577D01*
X160736740Y-76759909D01*
X160848113Y-76200000D01*
X160775510Y-75834999D01*
X162439490Y-75834999D01*
X162366887Y-76200000D01*
X162478260Y-76759909D01*
X162795423Y-77234577D01*
X163270091Y-77551740D01*
X163688667Y-77635000D01*
X163971333Y-77635000D01*
X164389909Y-77551740D01*
X164864577Y-77234577D01*
X165181740Y-76759909D01*
X165223684Y-76549041D01*
X166883086Y-76549041D01*
X167122611Y-77055134D01*
X167537577Y-77431041D01*
X167925961Y-77591904D01*
X168148000Y-77469915D01*
X168148000Y-76327000D01*
X168402000Y-76327000D01*
X168402000Y-77469915D01*
X168624039Y-77591904D01*
X169012423Y-77431041D01*
X169427389Y-77055134D01*
X169666914Y-76549041D01*
X169545629Y-76327000D01*
X168402000Y-76327000D01*
X168148000Y-76327000D01*
X167004371Y-76327000D01*
X166883086Y-76549041D01*
X165223684Y-76549041D01*
X165293113Y-76200000D01*
X165223684Y-75850959D01*
X166883086Y-75850959D01*
X167004371Y-76073000D01*
X168148000Y-76073000D01*
X168148000Y-74930085D01*
X168402000Y-74930085D01*
X168402000Y-76073000D01*
X169545629Y-76073000D01*
X169666914Y-75850959D01*
X169427389Y-75344866D01*
X169012423Y-74968959D01*
X168624039Y-74808096D01*
X168402000Y-74930085D01*
X168148000Y-74930085D01*
X167925961Y-74808096D01*
X167537577Y-74968959D01*
X167122611Y-75344866D01*
X166883086Y-75850959D01*
X165223684Y-75850959D01*
X165219723Y-75831047D01*
X165421538Y-75790903D01*
X165672930Y-75622928D01*
X165715332Y-75559469D01*
X168862098Y-72412704D01*
X168872191Y-72427809D01*
X168872191Y-72427809D01*
G37*
X168872191Y-72427809D02*
X169082235Y-72568157D01*
X169330000Y-72617440D01*
X170690001Y-72617440D01*
X170690000Y-82475153D01*
X170675112Y-82550000D01*
X170690000Y-82624847D01*
X170690000Y-82624851D01*
X170734096Y-82846536D01*
X170902071Y-83097929D01*
X170965530Y-83140331D01*
X171306897Y-83481698D01*
X171285000Y-83534561D01*
X171285000Y-84105439D01*
X171503466Y-84632862D01*
X171907138Y-85036534D01*
X172148034Y-85136316D01*
X171685423Y-85445423D01*
X171501957Y-85720000D01*
X171249802Y-85720000D01*
X169688103Y-84158302D01*
X169710000Y-84105439D01*
X169710000Y-83534561D01*
X169491534Y-83007138D01*
X169087862Y-82603466D01*
X168560439Y-82385000D01*
X167989561Y-82385000D01*
X167936698Y-82406896D01*
X167290321Y-81760520D01*
X167247919Y-81697061D01*
X166996527Y-81529086D01*
X166774842Y-81484990D01*
X166774837Y-81484990D01*
X166699990Y-81470102D01*
X166625143Y-81484990D01*
X158733444Y-81484990D01*
X158658597Y-81470102D01*
X158583750Y-81484990D01*
X158583746Y-81484990D01*
X158362061Y-81529086D01*
X158110669Y-81697061D01*
X158068269Y-81760517D01*
X157178306Y-82650480D01*
X157016086Y-82258847D01*
X156556153Y-81798914D01*
X156390000Y-81730091D01*
X156390000Y-78139909D01*
X156556153Y-78071086D01*
X157016086Y-77611153D01*
X157265000Y-77010222D01*
X157265000Y-76359778D01*
X157047629Y-75834999D01*
X157994490Y-75834999D01*
X157921887Y-76200000D01*
X158033260Y-76759909D01*
X158350423Y-77234577D01*
X158825091Y-77551740D01*
X159243667Y-77635000D01*
X159526333Y-77635000D01*
X159944909Y-77551740D01*
X160419577Y-77234577D01*
X160736740Y-76759909D01*
X160848113Y-76200000D01*
X160775510Y-75834999D01*
X162439490Y-75834999D01*
X162366887Y-76200000D01*
X162478260Y-76759909D01*
X162795423Y-77234577D01*
X163270091Y-77551740D01*
X163688667Y-77635000D01*
X163971333Y-77635000D01*
X164389909Y-77551740D01*
X164864577Y-77234577D01*
X165181740Y-76759909D01*
X165223684Y-76549041D01*
X166883086Y-76549041D01*
X167122611Y-77055134D01*
X167537577Y-77431041D01*
X167925961Y-77591904D01*
X168148000Y-77469915D01*
X168148000Y-76327000D01*
X168402000Y-76327000D01*
X168402000Y-77469915D01*
X168624039Y-77591904D01*
X169012423Y-77431041D01*
X169427389Y-77055134D01*
X169666914Y-76549041D01*
X169545629Y-76327000D01*
X168402000Y-76327000D01*
X168148000Y-76327000D01*
X167004371Y-76327000D01*
X166883086Y-76549041D01*
X165223684Y-76549041D01*
X165293113Y-76200000D01*
X165223684Y-75850959D01*
X166883086Y-75850959D01*
X167004371Y-76073000D01*
X168148000Y-76073000D01*
X168148000Y-74930085D01*
X168402000Y-74930085D01*
X168402000Y-76073000D01*
X169545629Y-76073000D01*
X169666914Y-75850959D01*
X169427389Y-75344866D01*
X169012423Y-74968959D01*
X168624039Y-74808096D01*
X168402000Y-74930085D01*
X168148000Y-74930085D01*
X167925961Y-74808096D01*
X167537577Y-74968959D01*
X167122611Y-75344866D01*
X166883086Y-75850959D01*
X165223684Y-75850959D01*
X165219723Y-75831047D01*
X165421538Y-75790903D01*
X165672930Y-75622928D01*
X165715332Y-75559469D01*
X168862098Y-72412704D01*
X168872191Y-72427809D01*
G36*
X164810200Y-74314999D02*
X149789848Y-74314999D01*
X149715001Y-74300111D01*
X149640154Y-74314999D01*
X149640149Y-74314999D01*
X149418464Y-74359095D01*
X149167072Y-74527070D01*
X149124672Y-74590526D01*
X147734839Y-75980360D01*
X147625330Y-75935000D01*
X147014670Y-75935000D01*
X146905162Y-75980360D01*
X145867995Y-74943194D01*
X148706629Y-72104561D01*
X149695000Y-72104561D01*
X149695000Y-72675439D01*
X149913466Y-73202862D01*
X150317138Y-73606534D01*
X150844561Y-73825000D01*
X151415439Y-73825000D01*
X151942862Y-73606534D01*
X152151651Y-73397745D01*
X156651861Y-73397745D01*
X156725995Y-73643864D01*
X157263223Y-73836965D01*
X157833454Y-73809778D01*
X158234005Y-73643864D01*
X158308139Y-73397745D01*
X157480000Y-72569605D01*
X156651861Y-73397745D01*
X152151651Y-73397745D01*
X152346534Y-73202862D01*
X152565000Y-72675439D01*
X152565000Y-72173223D01*
X156033035Y-72173223D01*
X156060222Y-72743454D01*
X156226136Y-73144005D01*
X156472255Y-73218139D01*
X157300395Y-72390000D01*
X157659605Y-72390000D01*
X158487745Y-73218139D01*
X158733864Y-73144005D01*
X158926965Y-72606777D01*
X158899778Y-72036546D01*
X158733864Y-71635995D01*
X158487745Y-71561861D01*
X157659605Y-72390000D01*
X157300395Y-72390000D01*
X156472255Y-71561861D01*
X156226136Y-71635995D01*
X156033035Y-72173223D01*
X152565000Y-72173223D01*
X152565000Y-72104561D01*
X152346534Y-71577138D01*
X152151651Y-71382255D01*
X156651861Y-71382255D01*
X157480000Y-72210395D01*
X158308139Y-71382255D01*
X158234005Y-71136136D01*
X157696777Y-70943035D01*
X157126546Y-70970222D01*
X156725995Y-71136136D01*
X156651861Y-71382255D01*
X152151651Y-71382255D01*
X151942862Y-71173466D01*
X151415439Y-70955000D01*
X150844561Y-70955000D01*
X150317138Y-71173466D01*
X149913466Y-71577138D01*
X149695000Y-72104561D01*
X148706629Y-72104561D01*
X150106192Y-70704999D01*
X168420199Y-70704999D01*
X164810200Y-74314999D01*
X164810200Y-74314999D01*
G37*
X164810200Y-74314999D02*
X149789848Y-74314999D01*
X149715001Y-74300111D01*
X149640154Y-74314999D01*
X149640149Y-74314999D01*
X149418464Y-74359095D01*
X149167072Y-74527070D01*
X149124672Y-74590526D01*
X147734839Y-75980360D01*
X147625330Y-75935000D01*
X147014670Y-75935000D01*
X146905162Y-75980360D01*
X145867995Y-74943194D01*
X148706629Y-72104561D01*
X149695000Y-72104561D01*
X149695000Y-72675439D01*
X149913466Y-73202862D01*
X150317138Y-73606534D01*
X150844561Y-73825000D01*
X151415439Y-73825000D01*
X151942862Y-73606534D01*
X152151651Y-73397745D01*
X156651861Y-73397745D01*
X156725995Y-73643864D01*
X157263223Y-73836965D01*
X157833454Y-73809778D01*
X158234005Y-73643864D01*
X158308139Y-73397745D01*
X157480000Y-72569605D01*
X156651861Y-73397745D01*
X152151651Y-73397745D01*
X152346534Y-73202862D01*
X152565000Y-72675439D01*
X152565000Y-72173223D01*
X156033035Y-72173223D01*
X156060222Y-72743454D01*
X156226136Y-73144005D01*
X156472255Y-73218139D01*
X157300395Y-72390000D01*
X157659605Y-72390000D01*
X158487745Y-73218139D01*
X158733864Y-73144005D01*
X158926965Y-72606777D01*
X158899778Y-72036546D01*
X158733864Y-71635995D01*
X158487745Y-71561861D01*
X157659605Y-72390000D01*
X157300395Y-72390000D01*
X156472255Y-71561861D01*
X156226136Y-71635995D01*
X156033035Y-72173223D01*
X152565000Y-72173223D01*
X152565000Y-72104561D01*
X152346534Y-71577138D01*
X152151651Y-71382255D01*
X156651861Y-71382255D01*
X157480000Y-72210395D01*
X158308139Y-71382255D01*
X158234005Y-71136136D01*
X157696777Y-70943035D01*
X157126546Y-70970222D01*
X156725995Y-71136136D01*
X156651861Y-71382255D01*
X152151651Y-71382255D01*
X151942862Y-71173466D01*
X151415439Y-70955000D01*
X150844561Y-70955000D01*
X150317138Y-71173466D01*
X149913466Y-71577138D01*
X149695000Y-72104561D01*
X148706629Y-72104561D01*
X150106192Y-70704999D01*
X168420199Y-70704999D01*
X164810200Y-74314999D01*
G36*
X145931456Y-49869324D02*
X145340000Y-51297225D01*
X145340000Y-52842775D01*
X145931456Y-54270676D01*
X147024324Y-55363544D01*
X148452225Y-55955000D01*
X149997775Y-55955000D01*
X151425676Y-55363544D01*
X152518544Y-54270676D01*
X153110000Y-52842775D01*
X153110000Y-51297225D01*
X152518544Y-49869324D01*
X151671220Y-49022000D01*
X187418780Y-49022000D01*
X186571456Y-49869324D01*
X185980000Y-51297225D01*
X185980000Y-52777699D01*
X184152831Y-50950530D01*
X184110429Y-50887071D01*
X183859037Y-50719096D01*
X183637352Y-50675000D01*
X183637347Y-50675000D01*
X183562500Y-50660112D01*
X183487653Y-50675000D01*
X168129848Y-50675000D01*
X168055000Y-50660112D01*
X167980152Y-50675000D01*
X167980148Y-50675000D01*
X167806605Y-50709520D01*
X167758462Y-50719096D01*
X167571418Y-50844076D01*
X167507071Y-50887071D01*
X167464671Y-50950527D01*
X166342942Y-52072257D01*
X166147765Y-51941843D01*
X165900000Y-51892560D01*
X164300000Y-51892560D01*
X164052235Y-51941843D01*
X163842191Y-52082191D01*
X163835910Y-52091591D01*
X163385439Y-51905000D01*
X162814561Y-51905000D01*
X162287138Y-52123466D01*
X161883466Y-52527138D01*
X161665000Y-53054561D01*
X161665000Y-53625439D01*
X161883466Y-54152862D01*
X162287138Y-54556534D01*
X162814561Y-54775000D01*
X163385439Y-54775000D01*
X163835910Y-54588409D01*
X163842191Y-54597809D01*
X164052235Y-54738157D01*
X164300000Y-54787440D01*
X165900000Y-54787440D01*
X166147765Y-54738157D01*
X166357809Y-54597809D01*
X166498157Y-54387765D01*
X166547440Y-54140000D01*
X166547440Y-53988483D01*
X166697929Y-53887929D01*
X166740331Y-53824470D01*
X168369802Y-52195000D01*
X183247699Y-52195000D01*
X189102049Y-58049351D01*
X188610589Y-58147109D01*
X188218509Y-58409088D01*
X188100309Y-58232191D01*
X187890265Y-58091843D01*
X187642500Y-58042560D01*
X185737500Y-58042560D01*
X185489735Y-58091843D01*
X185279691Y-58232191D01*
X185139343Y-58442235D01*
X185090060Y-58690000D01*
X185090060Y-58930000D01*
X175574802Y-58930000D01*
X172739801Y-56095000D01*
X172866256Y-56095000D01*
X173299418Y-56008839D01*
X173790625Y-55680625D01*
X173802816Y-55662381D01*
X173811843Y-55707765D01*
X173952191Y-55917809D01*
X174162235Y-56058157D01*
X174410000Y-56107440D01*
X176110000Y-56107440D01*
X176357765Y-56058157D01*
X176567809Y-55917809D01*
X176708157Y-55707765D01*
X176757440Y-55460000D01*
X176757440Y-53760000D01*
X176708157Y-53512235D01*
X176567809Y-53302191D01*
X176357765Y-53161843D01*
X176110000Y-53112560D01*
X174410000Y-53112560D01*
X174162235Y-53161843D01*
X173952191Y-53302191D01*
X173811843Y-53512235D01*
X173802816Y-53557619D01*
X173790625Y-53539375D01*
X173299418Y-53211161D01*
X172866256Y-53125000D01*
X172573744Y-53125000D01*
X172140582Y-53211161D01*
X171649375Y-53539375D01*
X171450000Y-53837761D01*
X171250625Y-53539375D01*
X170759418Y-53211161D01*
X170326256Y-53125000D01*
X170033744Y-53125000D01*
X169600582Y-53211161D01*
X169109375Y-53539375D01*
X168781161Y-54030582D01*
X168665908Y-54610000D01*
X168738791Y-54976407D01*
X167325199Y-56390000D01*
X156237346Y-56390000D01*
X156162499Y-56375112D01*
X156087652Y-56390000D01*
X156087648Y-56390000D01*
X155865963Y-56434096D01*
X155865961Y-56434097D01*
X155865962Y-56434097D01*
X155678026Y-56559671D01*
X155678024Y-56559673D01*
X155614571Y-56602071D01*
X155572173Y-56665524D01*
X154195138Y-58042560D01*
X152717500Y-58042560D01*
X152469735Y-58091843D01*
X152259691Y-58232191D01*
X152119343Y-58442235D01*
X152070060Y-58690000D01*
X152070060Y-60690000D01*
X152119343Y-60937765D01*
X152259691Y-61147809D01*
X152469735Y-61288157D01*
X152717500Y-61337440D01*
X154622500Y-61337440D01*
X154870265Y-61288157D01*
X155080309Y-61147809D01*
X155198509Y-60970912D01*
X155590590Y-61232891D01*
X156210000Y-61356100D01*
X156829411Y-61232891D01*
X157354523Y-60882023D01*
X157489159Y-60680526D01*
X157883076Y-61065973D01*
X158377020Y-61280563D01*
X158623000Y-61160594D01*
X158623000Y-59817000D01*
X158877000Y-59817000D01*
X158877000Y-61160594D01*
X159122980Y-61280563D01*
X159616924Y-61065973D01*
X160059318Y-60633091D01*
X160302380Y-60063864D01*
X160175572Y-59817000D01*
X158877000Y-59817000D01*
X158623000Y-59817000D01*
X158603000Y-59817000D01*
X158603000Y-59563000D01*
X158623000Y-59563000D01*
X158623000Y-58219406D01*
X158877000Y-58219406D01*
X158877000Y-59563000D01*
X160175572Y-59563000D01*
X160302380Y-59316136D01*
X160059318Y-58746909D01*
X159616924Y-58314027D01*
X159122980Y-58099437D01*
X158877000Y-58219406D01*
X158623000Y-58219406D01*
X158377020Y-58099437D01*
X157883076Y-58314027D01*
X157489159Y-58699474D01*
X157354523Y-58497977D01*
X156829410Y-58147109D01*
X156337951Y-58049351D01*
X156477303Y-57910000D01*
X167325199Y-57910000D01*
X169952560Y-60537362D01*
X169952560Y-61810000D01*
X170001843Y-62057765D01*
X170142191Y-62267809D01*
X170352235Y-62408157D01*
X170600000Y-62457440D01*
X172300000Y-62457440D01*
X172547765Y-62408157D01*
X172757809Y-62267809D01*
X172898157Y-62057765D01*
X172907184Y-62012381D01*
X172919375Y-62030625D01*
X173410582Y-62358839D01*
X173843744Y-62445000D01*
X174136256Y-62445000D01*
X174569418Y-62358839D01*
X175060625Y-62030625D01*
X175388839Y-61539418D01*
X175504092Y-60960000D01*
X175402647Y-60450000D01*
X185090060Y-60450000D01*
X185090060Y-60690000D01*
X185139343Y-60937765D01*
X185279691Y-61147809D01*
X185489735Y-61288157D01*
X185737500Y-61337440D01*
X187642500Y-61337440D01*
X187890265Y-61288157D01*
X188100309Y-61147809D01*
X188218509Y-60970912D01*
X188610590Y-61232891D01*
X189102050Y-61330649D01*
X188327699Y-62105000D01*
X177239846Y-62105000D01*
X177164999Y-62090112D01*
X177090152Y-62105000D01*
X177090148Y-62105000D01*
X176868463Y-62149096D01*
X176617071Y-62317071D01*
X176574671Y-62380527D01*
X172235530Y-66719669D01*
X172172071Y-66762071D01*
X172004096Y-67013464D01*
X171960000Y-67235149D01*
X171960000Y-67235153D01*
X171945112Y-67310000D01*
X171960000Y-67384847D01*
X171960001Y-69531726D01*
X171934470Y-69514667D01*
X171880332Y-69460529D01*
X171837930Y-69397070D01*
X171586538Y-69229095D01*
X171364853Y-69184999D01*
X171364848Y-69184999D01*
X171290001Y-69170111D01*
X171215154Y-69184999D01*
X149866235Y-69184999D01*
X149791388Y-69170111D01*
X149716541Y-69184999D01*
X149716537Y-69184999D01*
X149494852Y-69229095D01*
X149494850Y-69229096D01*
X149494851Y-69229096D01*
X149306915Y-69354670D01*
X149306913Y-69354672D01*
X149243460Y-69397070D01*
X149201062Y-69460523D01*
X148854549Y-69807037D01*
X148840839Y-69480540D01*
X148656643Y-69035852D01*
X148400159Y-68949446D01*
X147499605Y-69850000D01*
X147513748Y-69864143D01*
X147334143Y-70043748D01*
X147320000Y-70029605D01*
X147305858Y-70043748D01*
X147126253Y-69864143D01*
X147140395Y-69850000D01*
X147126253Y-69835858D01*
X147305858Y-69656253D01*
X147320000Y-69670395D01*
X148220554Y-68769841D01*
X148134148Y-68513357D01*
X147560664Y-68303542D01*
X146950540Y-68329161D01*
X146505852Y-68513357D01*
X146419447Y-68769839D01*
X146304890Y-68655282D01*
X146270058Y-68690114D01*
X146137809Y-68492191D01*
X145927765Y-68351843D01*
X145680000Y-68302560D01*
X145540000Y-68302560D01*
X145540000Y-67624801D01*
X146140240Y-67024561D01*
X161665000Y-67024561D01*
X161665000Y-67595439D01*
X161883466Y-68122862D01*
X162287138Y-68526534D01*
X162814561Y-68745000D01*
X163385439Y-68745000D01*
X163846144Y-68554170D01*
X163940302Y-68648327D01*
X164173691Y-68745000D01*
X164814250Y-68745000D01*
X164973000Y-68586250D01*
X164973000Y-67437000D01*
X165227000Y-67437000D01*
X165227000Y-68586250D01*
X165385750Y-68745000D01*
X166026309Y-68745000D01*
X166259698Y-68648327D01*
X166438327Y-68469699D01*
X166535000Y-68236310D01*
X166535000Y-67595750D01*
X166376250Y-67437000D01*
X165227000Y-67437000D01*
X164973000Y-67437000D01*
X164953000Y-67437000D01*
X164953000Y-67183000D01*
X164973000Y-67183000D01*
X164973000Y-66033750D01*
X165227000Y-66033750D01*
X165227000Y-67183000D01*
X166376250Y-67183000D01*
X166535000Y-67024250D01*
X166535000Y-66383690D01*
X166438327Y-66150301D01*
X166259698Y-65971673D01*
X166026309Y-65875000D01*
X165385750Y-65875000D01*
X165227000Y-66033750D01*
X164973000Y-66033750D01*
X164814250Y-65875000D01*
X164173691Y-65875000D01*
X163940302Y-65971673D01*
X163846144Y-66065830D01*
X163385439Y-65875000D01*
X162814561Y-65875000D01*
X162287138Y-66093466D01*
X161883466Y-66497138D01*
X161665000Y-67024561D01*
X146140240Y-67024561D01*
X146981699Y-66183104D01*
X147034561Y-66205000D01*
X147605439Y-66205000D01*
X148132862Y-65986534D01*
X148536534Y-65582862D01*
X148755000Y-65055439D01*
X148755000Y-64770000D01*
X149666887Y-64770000D01*
X149778260Y-65329909D01*
X150095423Y-65804577D01*
X150570091Y-66121740D01*
X150988667Y-66205000D01*
X151271333Y-66205000D01*
X151689909Y-66121740D01*
X152164577Y-65804577D01*
X152481740Y-65329909D01*
X152569243Y-64890000D01*
X156016887Y-64890000D01*
X156128260Y-65449909D01*
X156445423Y-65924577D01*
X156920091Y-66241740D01*
X157338667Y-66325000D01*
X157621333Y-66325000D01*
X158039909Y-66241740D01*
X158514577Y-65924577D01*
X158831740Y-65449909D01*
X158943113Y-64890000D01*
X158831740Y-64330091D01*
X158514577Y-63855423D01*
X158039909Y-63538260D01*
X157621333Y-63455000D01*
X157338667Y-63455000D01*
X156920091Y-63538260D01*
X156445423Y-63855423D01*
X156128260Y-64330091D01*
X156016887Y-64890000D01*
X152569243Y-64890000D01*
X152593113Y-64770000D01*
X152481740Y-64210091D01*
X152164577Y-63735423D01*
X151689909Y-63418260D01*
X151271333Y-63335000D01*
X150988667Y-63335000D01*
X150570091Y-63418260D01*
X150095423Y-63735423D01*
X149778260Y-64210091D01*
X149666887Y-64770000D01*
X148755000Y-64770000D01*
X148755000Y-64484561D01*
X148536534Y-63957138D01*
X148132862Y-63553466D01*
X147605439Y-63335000D01*
X147034561Y-63335000D01*
X146507138Y-63553466D01*
X146103466Y-63957138D01*
X145885000Y-64484561D01*
X145885000Y-65055439D01*
X145906896Y-65108301D01*
X144295528Y-66719671D01*
X144232072Y-66762071D01*
X144189672Y-66825527D01*
X144189671Y-66825528D01*
X144116524Y-66935000D01*
X144064097Y-67013463D01*
X144032938Y-67170112D01*
X144005112Y-67310000D01*
X144020001Y-67384852D01*
X144020001Y-68302560D01*
X143880000Y-68302560D01*
X143632235Y-68351843D01*
X143422191Y-68492191D01*
X143281843Y-68702235D01*
X143232560Y-68950000D01*
X143232560Y-70750000D01*
X143281843Y-70997765D01*
X143422191Y-71207809D01*
X143632235Y-71348157D01*
X143880000Y-71397440D01*
X145680000Y-71397440D01*
X145927765Y-71348157D01*
X146137809Y-71207809D01*
X146270058Y-71009886D01*
X146304890Y-71044718D01*
X146419447Y-70930161D01*
X146505852Y-71186643D01*
X147079336Y-71396458D01*
X147273271Y-71388315D01*
X145111399Y-73550187D01*
X138571728Y-67010517D01*
X138529328Y-66947061D01*
X138277936Y-66779086D01*
X138056251Y-66734990D01*
X138056247Y-66734990D01*
X137981400Y-66720102D01*
X137906553Y-66734990D01*
X133238452Y-66734992D01*
X133163599Y-66720103D01*
X132867062Y-66779087D01*
X132679126Y-66904662D01*
X132679123Y-66904665D01*
X132615670Y-66947063D01*
X132573272Y-67010516D01*
X127841529Y-71742260D01*
X127778070Y-71784662D01*
X127762000Y-71808712D01*
X127762000Y-57150000D01*
X145856887Y-57150000D01*
X145968260Y-57709909D01*
X146285423Y-58184577D01*
X146760091Y-58501740D01*
X147178667Y-58585000D01*
X147461333Y-58585000D01*
X147879909Y-58501740D01*
X148354577Y-58184577D01*
X148671740Y-57709909D01*
X148783113Y-57150000D01*
X148671740Y-56590091D01*
X148354577Y-56115423D01*
X147879909Y-55798260D01*
X147461333Y-55715000D01*
X147178667Y-55715000D01*
X146760091Y-55798260D01*
X146285423Y-56115423D01*
X145968260Y-56590091D01*
X145856887Y-57150000D01*
X127762000Y-57150000D01*
X127762000Y-49582606D01*
X128322606Y-49022000D01*
X146778780Y-49022000D01*
X145931456Y-49869324D01*
X145931456Y-49869324D01*
G37*
X145931456Y-49869324D02*
X145340000Y-51297225D01*
X145340000Y-52842775D01*
X145931456Y-54270676D01*
X147024324Y-55363544D01*
X148452225Y-55955000D01*
X149997775Y-55955000D01*
X151425676Y-55363544D01*
X152518544Y-54270676D01*
X153110000Y-52842775D01*
X153110000Y-51297225D01*
X152518544Y-49869324D01*
X151671220Y-49022000D01*
X187418780Y-49022000D01*
X186571456Y-49869324D01*
X185980000Y-51297225D01*
X185980000Y-52777699D01*
X184152831Y-50950530D01*
X184110429Y-50887071D01*
X183859037Y-50719096D01*
X183637352Y-50675000D01*
X183637347Y-50675000D01*
X183562500Y-50660112D01*
X183487653Y-50675000D01*
X168129848Y-50675000D01*
X168055000Y-50660112D01*
X167980152Y-50675000D01*
X167980148Y-50675000D01*
X167806605Y-50709520D01*
X167758462Y-50719096D01*
X167571418Y-50844076D01*
X167507071Y-50887071D01*
X167464671Y-50950527D01*
X166342942Y-52072257D01*
X166147765Y-51941843D01*
X165900000Y-51892560D01*
X164300000Y-51892560D01*
X164052235Y-51941843D01*
X163842191Y-52082191D01*
X163835910Y-52091591D01*
X163385439Y-51905000D01*
X162814561Y-51905000D01*
X162287138Y-52123466D01*
X161883466Y-52527138D01*
X161665000Y-53054561D01*
X161665000Y-53625439D01*
X161883466Y-54152862D01*
X162287138Y-54556534D01*
X162814561Y-54775000D01*
X163385439Y-54775000D01*
X163835910Y-54588409D01*
X163842191Y-54597809D01*
X164052235Y-54738157D01*
X164300000Y-54787440D01*
X165900000Y-54787440D01*
X166147765Y-54738157D01*
X166357809Y-54597809D01*
X166498157Y-54387765D01*
X166547440Y-54140000D01*
X166547440Y-53988483D01*
X166697929Y-53887929D01*
X166740331Y-53824470D01*
X168369802Y-52195000D01*
X183247699Y-52195000D01*
X189102049Y-58049351D01*
X188610589Y-58147109D01*
X188218509Y-58409088D01*
X188100309Y-58232191D01*
X187890265Y-58091843D01*
X187642500Y-58042560D01*
X185737500Y-58042560D01*
X185489735Y-58091843D01*
X185279691Y-58232191D01*
X185139343Y-58442235D01*
X185090060Y-58690000D01*
X185090060Y-58930000D01*
X175574802Y-58930000D01*
X172739801Y-56095000D01*
X172866256Y-56095000D01*
X173299418Y-56008839D01*
X173790625Y-55680625D01*
X173802816Y-55662381D01*
X173811843Y-55707765D01*
X173952191Y-55917809D01*
X174162235Y-56058157D01*
X174410000Y-56107440D01*
X176110000Y-56107440D01*
X176357765Y-56058157D01*
X176567809Y-55917809D01*
X176708157Y-55707765D01*
X176757440Y-55460000D01*
X176757440Y-53760000D01*
X176708157Y-53512235D01*
X176567809Y-53302191D01*
X176357765Y-53161843D01*
X176110000Y-53112560D01*
X174410000Y-53112560D01*
X174162235Y-53161843D01*
X173952191Y-53302191D01*
X173811843Y-53512235D01*
X173802816Y-53557619D01*
X173790625Y-53539375D01*
X173299418Y-53211161D01*
X172866256Y-53125000D01*
X172573744Y-53125000D01*
X172140582Y-53211161D01*
X171649375Y-53539375D01*
X171450000Y-53837761D01*
X171250625Y-53539375D01*
X170759418Y-53211161D01*
X170326256Y-53125000D01*
X170033744Y-53125000D01*
X169600582Y-53211161D01*
X169109375Y-53539375D01*
X168781161Y-54030582D01*
X168665908Y-54610000D01*
X168738791Y-54976407D01*
X167325199Y-56390000D01*
X156237346Y-56390000D01*
X156162499Y-56375112D01*
X156087652Y-56390000D01*
X156087648Y-56390000D01*
X155865963Y-56434096D01*
X155865961Y-56434097D01*
X155865962Y-56434097D01*
X155678026Y-56559671D01*
X155678024Y-56559673D01*
X155614571Y-56602071D01*
X155572173Y-56665524D01*
X154195138Y-58042560D01*
X152717500Y-58042560D01*
X152469735Y-58091843D01*
X152259691Y-58232191D01*
X152119343Y-58442235D01*
X152070060Y-58690000D01*
X152070060Y-60690000D01*
X152119343Y-60937765D01*
X152259691Y-61147809D01*
X152469735Y-61288157D01*
X152717500Y-61337440D01*
X154622500Y-61337440D01*
X154870265Y-61288157D01*
X155080309Y-61147809D01*
X155198509Y-60970912D01*
X155590590Y-61232891D01*
X156210000Y-61356100D01*
X156829411Y-61232891D01*
X157354523Y-60882023D01*
X157489159Y-60680526D01*
X157883076Y-61065973D01*
X158377020Y-61280563D01*
X158623000Y-61160594D01*
X158623000Y-59817000D01*
X158877000Y-59817000D01*
X158877000Y-61160594D01*
X159122980Y-61280563D01*
X159616924Y-61065973D01*
X160059318Y-60633091D01*
X160302380Y-60063864D01*
X160175572Y-59817000D01*
X158877000Y-59817000D01*
X158623000Y-59817000D01*
X158603000Y-59817000D01*
X158603000Y-59563000D01*
X158623000Y-59563000D01*
X158623000Y-58219406D01*
X158877000Y-58219406D01*
X158877000Y-59563000D01*
X160175572Y-59563000D01*
X160302380Y-59316136D01*
X160059318Y-58746909D01*
X159616924Y-58314027D01*
X159122980Y-58099437D01*
X158877000Y-58219406D01*
X158623000Y-58219406D01*
X158377020Y-58099437D01*
X157883076Y-58314027D01*
X157489159Y-58699474D01*
X157354523Y-58497977D01*
X156829410Y-58147109D01*
X156337951Y-58049351D01*
X156477303Y-57910000D01*
X167325199Y-57910000D01*
X169952560Y-60537362D01*
X169952560Y-61810000D01*
X170001843Y-62057765D01*
X170142191Y-62267809D01*
X170352235Y-62408157D01*
X170600000Y-62457440D01*
X172300000Y-62457440D01*
X172547765Y-62408157D01*
X172757809Y-62267809D01*
X172898157Y-62057765D01*
X172907184Y-62012381D01*
X172919375Y-62030625D01*
X173410582Y-62358839D01*
X173843744Y-62445000D01*
X174136256Y-62445000D01*
X174569418Y-62358839D01*
X175060625Y-62030625D01*
X175388839Y-61539418D01*
X175504092Y-60960000D01*
X175402647Y-60450000D01*
X185090060Y-60450000D01*
X185090060Y-60690000D01*
X185139343Y-60937765D01*
X185279691Y-61147809D01*
X185489735Y-61288157D01*
X185737500Y-61337440D01*
X187642500Y-61337440D01*
X187890265Y-61288157D01*
X188100309Y-61147809D01*
X188218509Y-60970912D01*
X188610590Y-61232891D01*
X189102050Y-61330649D01*
X188327699Y-62105000D01*
X177239846Y-62105000D01*
X177164999Y-62090112D01*
X177090152Y-62105000D01*
X177090148Y-62105000D01*
X176868463Y-62149096D01*
X176617071Y-62317071D01*
X176574671Y-62380527D01*
X172235530Y-66719669D01*
X172172071Y-66762071D01*
X172004096Y-67013464D01*
X171960000Y-67235149D01*
X171960000Y-67235153D01*
X171945112Y-67310000D01*
X171960000Y-67384847D01*
X171960001Y-69531726D01*
X171934470Y-69514667D01*
X171880332Y-69460529D01*
X171837930Y-69397070D01*
X171586538Y-69229095D01*
X171364853Y-69184999D01*
X171364848Y-69184999D01*
X171290001Y-69170111D01*
X171215154Y-69184999D01*
X149866235Y-69184999D01*
X149791388Y-69170111D01*
X149716541Y-69184999D01*
X149716537Y-69184999D01*
X149494852Y-69229095D01*
X149494850Y-69229096D01*
X149494851Y-69229096D01*
X149306915Y-69354670D01*
X149306913Y-69354672D01*
X149243460Y-69397070D01*
X149201062Y-69460523D01*
X148854549Y-69807037D01*
X148840839Y-69480540D01*
X148656643Y-69035852D01*
X148400159Y-68949446D01*
X147499605Y-69850000D01*
X147513748Y-69864143D01*
X147334143Y-70043748D01*
X147320000Y-70029605D01*
X147305858Y-70043748D01*
X147126253Y-69864143D01*
X147140395Y-69850000D01*
X147126253Y-69835858D01*
X147305858Y-69656253D01*
X147320000Y-69670395D01*
X148220554Y-68769841D01*
X148134148Y-68513357D01*
X147560664Y-68303542D01*
X146950540Y-68329161D01*
X146505852Y-68513357D01*
X146419447Y-68769839D01*
X146304890Y-68655282D01*
X146270058Y-68690114D01*
X146137809Y-68492191D01*
X145927765Y-68351843D01*
X145680000Y-68302560D01*
X145540000Y-68302560D01*
X145540000Y-67624801D01*
X146140240Y-67024561D01*
X161665000Y-67024561D01*
X161665000Y-67595439D01*
X161883466Y-68122862D01*
X162287138Y-68526534D01*
X162814561Y-68745000D01*
X163385439Y-68745000D01*
X163846144Y-68554170D01*
X163940302Y-68648327D01*
X164173691Y-68745000D01*
X164814250Y-68745000D01*
X164973000Y-68586250D01*
X164973000Y-67437000D01*
X165227000Y-67437000D01*
X165227000Y-68586250D01*
X165385750Y-68745000D01*
X166026309Y-68745000D01*
X166259698Y-68648327D01*
X166438327Y-68469699D01*
X166535000Y-68236310D01*
X166535000Y-67595750D01*
X166376250Y-67437000D01*
X165227000Y-67437000D01*
X164973000Y-67437000D01*
X164953000Y-67437000D01*
X164953000Y-67183000D01*
X164973000Y-67183000D01*
X164973000Y-66033750D01*
X165227000Y-66033750D01*
X165227000Y-67183000D01*
X166376250Y-67183000D01*
X166535000Y-67024250D01*
X166535000Y-66383690D01*
X166438327Y-66150301D01*
X166259698Y-65971673D01*
X166026309Y-65875000D01*
X165385750Y-65875000D01*
X165227000Y-66033750D01*
X164973000Y-66033750D01*
X164814250Y-65875000D01*
X164173691Y-65875000D01*
X163940302Y-65971673D01*
X163846144Y-66065830D01*
X163385439Y-65875000D01*
X162814561Y-65875000D01*
X162287138Y-66093466D01*
X161883466Y-66497138D01*
X161665000Y-67024561D01*
X146140240Y-67024561D01*
X146981699Y-66183104D01*
X147034561Y-66205000D01*
X147605439Y-66205000D01*
X148132862Y-65986534D01*
X148536534Y-65582862D01*
X148755000Y-65055439D01*
X148755000Y-64770000D01*
X149666887Y-64770000D01*
X149778260Y-65329909D01*
X150095423Y-65804577D01*
X150570091Y-66121740D01*
X150988667Y-66205000D01*
X151271333Y-66205000D01*
X151689909Y-66121740D01*
X152164577Y-65804577D01*
X152481740Y-65329909D01*
X152569243Y-64890000D01*
X156016887Y-64890000D01*
X156128260Y-65449909D01*
X156445423Y-65924577D01*
X156920091Y-66241740D01*
X157338667Y-66325000D01*
X157621333Y-66325000D01*
X158039909Y-66241740D01*
X158514577Y-65924577D01*
X158831740Y-65449909D01*
X158943113Y-64890000D01*
X158831740Y-64330091D01*
X158514577Y-63855423D01*
X158039909Y-63538260D01*
X157621333Y-63455000D01*
X157338667Y-63455000D01*
X156920091Y-63538260D01*
X156445423Y-63855423D01*
X156128260Y-64330091D01*
X156016887Y-64890000D01*
X152569243Y-64890000D01*
X152593113Y-64770000D01*
X152481740Y-64210091D01*
X152164577Y-63735423D01*
X151689909Y-63418260D01*
X151271333Y-63335000D01*
X150988667Y-63335000D01*
X150570091Y-63418260D01*
X150095423Y-63735423D01*
X149778260Y-64210091D01*
X149666887Y-64770000D01*
X148755000Y-64770000D01*
X148755000Y-64484561D01*
X148536534Y-63957138D01*
X148132862Y-63553466D01*
X147605439Y-63335000D01*
X147034561Y-63335000D01*
X146507138Y-63553466D01*
X146103466Y-63957138D01*
X145885000Y-64484561D01*
X145885000Y-65055439D01*
X145906896Y-65108301D01*
X144295528Y-66719671D01*
X144232072Y-66762071D01*
X144189672Y-66825527D01*
X144189671Y-66825528D01*
X144116524Y-66935000D01*
X144064097Y-67013463D01*
X144032938Y-67170112D01*
X144005112Y-67310000D01*
X144020001Y-67384852D01*
X144020001Y-68302560D01*
X143880000Y-68302560D01*
X143632235Y-68351843D01*
X143422191Y-68492191D01*
X143281843Y-68702235D01*
X143232560Y-68950000D01*
X143232560Y-70750000D01*
X143281843Y-70997765D01*
X143422191Y-71207809D01*
X143632235Y-71348157D01*
X143880000Y-71397440D01*
X145680000Y-71397440D01*
X145927765Y-71348157D01*
X146137809Y-71207809D01*
X146270058Y-71009886D01*
X146304890Y-71044718D01*
X146419447Y-70930161D01*
X146505852Y-71186643D01*
X147079336Y-71396458D01*
X147273271Y-71388315D01*
X145111399Y-73550187D01*
X138571728Y-67010517D01*
X138529328Y-66947061D01*
X138277936Y-66779086D01*
X138056251Y-66734990D01*
X138056247Y-66734990D01*
X137981400Y-66720102D01*
X137906553Y-66734990D01*
X133238452Y-66734992D01*
X133163599Y-66720103D01*
X132867062Y-66779087D01*
X132679126Y-66904662D01*
X132679123Y-66904665D01*
X132615670Y-66947063D01*
X132573272Y-67010516D01*
X127841529Y-71742260D01*
X127778070Y-71784662D01*
X127762000Y-71808712D01*
X127762000Y-57150000D01*
X145856887Y-57150000D01*
X145968260Y-57709909D01*
X146285423Y-58184577D01*
X146760091Y-58501740D01*
X147178667Y-58585000D01*
X147461333Y-58585000D01*
X147879909Y-58501740D01*
X148354577Y-58184577D01*
X148671740Y-57709909D01*
X148783113Y-57150000D01*
X148671740Y-56590091D01*
X148354577Y-56115423D01*
X147879909Y-55798260D01*
X147461333Y-55715000D01*
X147178667Y-55715000D01*
X146760091Y-55798260D01*
X146285423Y-56115423D01*
X145968260Y-56590091D01*
X145856887Y-57150000D01*
X127762000Y-57150000D01*
X127762000Y-49582606D01*
X128322606Y-49022000D01*
X146778780Y-49022000D01*
X145931456Y-49869324D01*
G04 #@! TD*
M02*
