G04 #@! TF.GenerationSoftware,KiCad,Pcbnew,(5.0.2)-1*
G04 #@! TF.CreationDate,2019-01-29T22:31:09-07:00*
G04 #@! TF.ProjectId,Controller,436f6e74-726f-46c6-9c65-722e6b696361,rev?*
G04 #@! TF.SameCoordinates,Original*
G04 #@! TF.FileFunction,Legend,Top*
G04 #@! TF.FilePolarity,Positive*
%FSLAX46Y46*%
G04 Gerber Fmt 4.6, Leading zero omitted, Abs format (unit mm)*
G04 Created by KiCad (PCBNEW (5.0.2)-1) date 1/29/2019 10:31:09 PM*
%MOMM*%
%LPD*%
G01*
G04 APERTURE LIST*
%ADD10C,0.120000*%
%ADD11C,0.101600*%
%ADD12C,0.203200*%
%ADD13C,0.150000*%
G04 APERTURE END LIST*
D10*
G04 #@! TO.C,C7*
X141780000Y-120165000D02*
X141780000Y-117325000D01*
X141780000Y-117325000D02*
X137740000Y-117325000D01*
X137740000Y-117325000D02*
X137740000Y-120165000D01*
X137740000Y-120165000D02*
X141780000Y-120165000D01*
X142470000Y-118745000D02*
X141780000Y-118745000D01*
X137050000Y-118745000D02*
X137740000Y-118745000D01*
D11*
G04 #@! TO.C,U5*
X148680256Y-95250000D02*
G75*
G03X148680256Y-95250000I-8980256J0D01*
G01*
D12*
X140335000Y-87630000D02*
X141605000Y-87630000D01*
X139065000Y-87630000D02*
X140335000Y-86995000D01*
X137795000Y-87630000D02*
X139065000Y-87630000D01*
D13*
X153416000Y-95250000D02*
G75*
G03X153416000Y-95250000I-13716000J0D01*
G01*
X145288000Y-82550000D02*
X145288000Y-81026000D01*
X145288000Y-81026000D02*
X134112000Y-81026000D01*
X134112000Y-82550000D02*
X134112000Y-81026000D01*
D10*
G04 #@! TO.C,R14*
X194080000Y-116110000D02*
X194410000Y-116110000D01*
X194410000Y-116110000D02*
X194410000Y-122650000D01*
X194410000Y-122650000D02*
X194080000Y-122650000D01*
X192000000Y-116110000D02*
X191670000Y-116110000D01*
X191670000Y-116110000D02*
X191670000Y-122650000D01*
X191670000Y-122650000D02*
X192000000Y-122650000D01*
D11*
G04 #@! TO.C,U6*
X214720256Y-95250000D02*
G75*
G03X214720256Y-95250000I-8980256J0D01*
G01*
D12*
X206375000Y-87630000D02*
X207645000Y-87630000D01*
X205105000Y-87630000D02*
X206375000Y-86995000D01*
X203835000Y-87630000D02*
X205105000Y-87630000D01*
D13*
X219456000Y-95250000D02*
G75*
G03X219456000Y-95250000I-13716000J0D01*
G01*
X211328000Y-82550000D02*
X211328000Y-81026000D01*
X211328000Y-81026000D02*
X200152000Y-81026000D01*
X200152000Y-82550000D02*
X200152000Y-81026000D01*
D10*
G04 #@! TO.C,C1*
X166720000Y-67310000D02*
G75*
G03X166720000Y-67310000I-2620000J0D01*
G01*
X164100000Y-66270000D02*
X164100000Y-64730000D01*
X164100000Y-69890000D02*
X164100000Y-68350000D01*
X164060000Y-66270000D02*
X164060000Y-64730000D01*
X164060000Y-69890000D02*
X164060000Y-68350000D01*
X164020000Y-69889000D02*
X164020000Y-68350000D01*
X164020000Y-66270000D02*
X164020000Y-64731000D01*
X163980000Y-69888000D02*
X163980000Y-68350000D01*
X163980000Y-66270000D02*
X163980000Y-64732000D01*
X163940000Y-69886000D02*
X163940000Y-68350000D01*
X163940000Y-66270000D02*
X163940000Y-64734000D01*
X163900000Y-69883000D02*
X163900000Y-68350000D01*
X163900000Y-66270000D02*
X163900000Y-64737000D01*
X163860000Y-69879000D02*
X163860000Y-68350000D01*
X163860000Y-66270000D02*
X163860000Y-64741000D01*
X163820000Y-69875000D02*
X163820000Y-68350000D01*
X163820000Y-66270000D02*
X163820000Y-64745000D01*
X163780000Y-69871000D02*
X163780000Y-68350000D01*
X163780000Y-66270000D02*
X163780000Y-64749000D01*
X163740000Y-69866000D02*
X163740000Y-68350000D01*
X163740000Y-66270000D02*
X163740000Y-64754000D01*
X163700000Y-69860000D02*
X163700000Y-68350000D01*
X163700000Y-66270000D02*
X163700000Y-64760000D01*
X163660000Y-69853000D02*
X163660000Y-68350000D01*
X163660000Y-66270000D02*
X163660000Y-64767000D01*
X163620000Y-69846000D02*
X163620000Y-68350000D01*
X163620000Y-66270000D02*
X163620000Y-64774000D01*
X163580000Y-69838000D02*
X163580000Y-68350000D01*
X163580000Y-66270000D02*
X163580000Y-64782000D01*
X163540000Y-69830000D02*
X163540000Y-68350000D01*
X163540000Y-66270000D02*
X163540000Y-64790000D01*
X163500000Y-69821000D02*
X163500000Y-68350000D01*
X163500000Y-66270000D02*
X163500000Y-64799000D01*
X163460000Y-69811000D02*
X163460000Y-68350000D01*
X163460000Y-66270000D02*
X163460000Y-64809000D01*
X163420000Y-69801000D02*
X163420000Y-68350000D01*
X163420000Y-66270000D02*
X163420000Y-64819000D01*
X163379000Y-69790000D02*
X163379000Y-68350000D01*
X163379000Y-66270000D02*
X163379000Y-64830000D01*
X163339000Y-69778000D02*
X163339000Y-68350000D01*
X163339000Y-66270000D02*
X163339000Y-64842000D01*
X163299000Y-69765000D02*
X163299000Y-68350000D01*
X163299000Y-66270000D02*
X163299000Y-64855000D01*
X163259000Y-69752000D02*
X163259000Y-68350000D01*
X163259000Y-66270000D02*
X163259000Y-64868000D01*
X163219000Y-69738000D02*
X163219000Y-68350000D01*
X163219000Y-66270000D02*
X163219000Y-64882000D01*
X163179000Y-69724000D02*
X163179000Y-68350000D01*
X163179000Y-66270000D02*
X163179000Y-64896000D01*
X163139000Y-69708000D02*
X163139000Y-68350000D01*
X163139000Y-66270000D02*
X163139000Y-64912000D01*
X163099000Y-69692000D02*
X163099000Y-68350000D01*
X163099000Y-66270000D02*
X163099000Y-64928000D01*
X163059000Y-69675000D02*
X163059000Y-68350000D01*
X163059000Y-66270000D02*
X163059000Y-64945000D01*
X163019000Y-69658000D02*
X163019000Y-68350000D01*
X163019000Y-66270000D02*
X163019000Y-64962000D01*
X162979000Y-69639000D02*
X162979000Y-68350000D01*
X162979000Y-66270000D02*
X162979000Y-64981000D01*
X162939000Y-69620000D02*
X162939000Y-68350000D01*
X162939000Y-66270000D02*
X162939000Y-65000000D01*
X162899000Y-69600000D02*
X162899000Y-68350000D01*
X162899000Y-66270000D02*
X162899000Y-65020000D01*
X162859000Y-69578000D02*
X162859000Y-68350000D01*
X162859000Y-66270000D02*
X162859000Y-65042000D01*
X162819000Y-69557000D02*
X162819000Y-68350000D01*
X162819000Y-66270000D02*
X162819000Y-65063000D01*
X162779000Y-69534000D02*
X162779000Y-68350000D01*
X162779000Y-66270000D02*
X162779000Y-65086000D01*
X162739000Y-69510000D02*
X162739000Y-68350000D01*
X162739000Y-66270000D02*
X162739000Y-65110000D01*
X162699000Y-69485000D02*
X162699000Y-68350000D01*
X162699000Y-66270000D02*
X162699000Y-65135000D01*
X162659000Y-69459000D02*
X162659000Y-68350000D01*
X162659000Y-66270000D02*
X162659000Y-65161000D01*
X162619000Y-69432000D02*
X162619000Y-68350000D01*
X162619000Y-66270000D02*
X162619000Y-65188000D01*
X162579000Y-69405000D02*
X162579000Y-68350000D01*
X162579000Y-66270000D02*
X162579000Y-65215000D01*
X162539000Y-69375000D02*
X162539000Y-68350000D01*
X162539000Y-66270000D02*
X162539000Y-65245000D01*
X162499000Y-69345000D02*
X162499000Y-68350000D01*
X162499000Y-66270000D02*
X162499000Y-65275000D01*
X162459000Y-69314000D02*
X162459000Y-68350000D01*
X162459000Y-66270000D02*
X162459000Y-65306000D01*
X162419000Y-69281000D02*
X162419000Y-68350000D01*
X162419000Y-66270000D02*
X162419000Y-65339000D01*
X162379000Y-69247000D02*
X162379000Y-68350000D01*
X162379000Y-66270000D02*
X162379000Y-65373000D01*
X162339000Y-69211000D02*
X162339000Y-68350000D01*
X162339000Y-66270000D02*
X162339000Y-65409000D01*
X162299000Y-69174000D02*
X162299000Y-68350000D01*
X162299000Y-66270000D02*
X162299000Y-65446000D01*
X162259000Y-69136000D02*
X162259000Y-68350000D01*
X162259000Y-66270000D02*
X162259000Y-65484000D01*
X162219000Y-69095000D02*
X162219000Y-68350000D01*
X162219000Y-66270000D02*
X162219000Y-65525000D01*
X162179000Y-69053000D02*
X162179000Y-68350000D01*
X162179000Y-66270000D02*
X162179000Y-65567000D01*
X162139000Y-69009000D02*
X162139000Y-68350000D01*
X162139000Y-66270000D02*
X162139000Y-65611000D01*
X162099000Y-68963000D02*
X162099000Y-68350000D01*
X162099000Y-66270000D02*
X162099000Y-65657000D01*
X162059000Y-68915000D02*
X162059000Y-65705000D01*
X162019000Y-68864000D02*
X162019000Y-65756000D01*
X161979000Y-68810000D02*
X161979000Y-65810000D01*
X161939000Y-68753000D02*
X161939000Y-65867000D01*
X161899000Y-68693000D02*
X161899000Y-65927000D01*
X161859000Y-68629000D02*
X161859000Y-65991000D01*
X161819000Y-68561000D02*
X161819000Y-66059000D01*
X161779000Y-68488000D02*
X161779000Y-66132000D01*
X161739000Y-68408000D02*
X161739000Y-66212000D01*
X161699000Y-68321000D02*
X161699000Y-66299000D01*
X161659000Y-68225000D02*
X161659000Y-66395000D01*
X161619000Y-68115000D02*
X161619000Y-66505000D01*
X161579000Y-67987000D02*
X161579000Y-66633000D01*
X161539000Y-67828000D02*
X161539000Y-66792000D01*
X161499000Y-67594000D02*
X161499000Y-67026000D01*
X166904775Y-68785000D02*
X166404775Y-68785000D01*
X166654775Y-69035000D02*
X166654775Y-68535000D01*
G04 #@! TO.C,C2*
X166654775Y-55065000D02*
X166654775Y-54565000D01*
X166904775Y-54815000D02*
X166404775Y-54815000D01*
X161499000Y-53624000D02*
X161499000Y-53056000D01*
X161539000Y-53858000D02*
X161539000Y-52822000D01*
X161579000Y-54017000D02*
X161579000Y-52663000D01*
X161619000Y-54145000D02*
X161619000Y-52535000D01*
X161659000Y-54255000D02*
X161659000Y-52425000D01*
X161699000Y-54351000D02*
X161699000Y-52329000D01*
X161739000Y-54438000D02*
X161739000Y-52242000D01*
X161779000Y-54518000D02*
X161779000Y-52162000D01*
X161819000Y-54591000D02*
X161819000Y-52089000D01*
X161859000Y-54659000D02*
X161859000Y-52021000D01*
X161899000Y-54723000D02*
X161899000Y-51957000D01*
X161939000Y-54783000D02*
X161939000Y-51897000D01*
X161979000Y-54840000D02*
X161979000Y-51840000D01*
X162019000Y-54894000D02*
X162019000Y-51786000D01*
X162059000Y-54945000D02*
X162059000Y-51735000D01*
X162099000Y-52300000D02*
X162099000Y-51687000D01*
X162099000Y-54993000D02*
X162099000Y-54380000D01*
X162139000Y-52300000D02*
X162139000Y-51641000D01*
X162139000Y-55039000D02*
X162139000Y-54380000D01*
X162179000Y-52300000D02*
X162179000Y-51597000D01*
X162179000Y-55083000D02*
X162179000Y-54380000D01*
X162219000Y-52300000D02*
X162219000Y-51555000D01*
X162219000Y-55125000D02*
X162219000Y-54380000D01*
X162259000Y-52300000D02*
X162259000Y-51514000D01*
X162259000Y-55166000D02*
X162259000Y-54380000D01*
X162299000Y-52300000D02*
X162299000Y-51476000D01*
X162299000Y-55204000D02*
X162299000Y-54380000D01*
X162339000Y-52300000D02*
X162339000Y-51439000D01*
X162339000Y-55241000D02*
X162339000Y-54380000D01*
X162379000Y-52300000D02*
X162379000Y-51403000D01*
X162379000Y-55277000D02*
X162379000Y-54380000D01*
X162419000Y-52300000D02*
X162419000Y-51369000D01*
X162419000Y-55311000D02*
X162419000Y-54380000D01*
X162459000Y-52300000D02*
X162459000Y-51336000D01*
X162459000Y-55344000D02*
X162459000Y-54380000D01*
X162499000Y-52300000D02*
X162499000Y-51305000D01*
X162499000Y-55375000D02*
X162499000Y-54380000D01*
X162539000Y-52300000D02*
X162539000Y-51275000D01*
X162539000Y-55405000D02*
X162539000Y-54380000D01*
X162579000Y-52300000D02*
X162579000Y-51245000D01*
X162579000Y-55435000D02*
X162579000Y-54380000D01*
X162619000Y-52300000D02*
X162619000Y-51218000D01*
X162619000Y-55462000D02*
X162619000Y-54380000D01*
X162659000Y-52300000D02*
X162659000Y-51191000D01*
X162659000Y-55489000D02*
X162659000Y-54380000D01*
X162699000Y-52300000D02*
X162699000Y-51165000D01*
X162699000Y-55515000D02*
X162699000Y-54380000D01*
X162739000Y-52300000D02*
X162739000Y-51140000D01*
X162739000Y-55540000D02*
X162739000Y-54380000D01*
X162779000Y-52300000D02*
X162779000Y-51116000D01*
X162779000Y-55564000D02*
X162779000Y-54380000D01*
X162819000Y-52300000D02*
X162819000Y-51093000D01*
X162819000Y-55587000D02*
X162819000Y-54380000D01*
X162859000Y-52300000D02*
X162859000Y-51072000D01*
X162859000Y-55608000D02*
X162859000Y-54380000D01*
X162899000Y-52300000D02*
X162899000Y-51050000D01*
X162899000Y-55630000D02*
X162899000Y-54380000D01*
X162939000Y-52300000D02*
X162939000Y-51030000D01*
X162939000Y-55650000D02*
X162939000Y-54380000D01*
X162979000Y-52300000D02*
X162979000Y-51011000D01*
X162979000Y-55669000D02*
X162979000Y-54380000D01*
X163019000Y-52300000D02*
X163019000Y-50992000D01*
X163019000Y-55688000D02*
X163019000Y-54380000D01*
X163059000Y-52300000D02*
X163059000Y-50975000D01*
X163059000Y-55705000D02*
X163059000Y-54380000D01*
X163099000Y-52300000D02*
X163099000Y-50958000D01*
X163099000Y-55722000D02*
X163099000Y-54380000D01*
X163139000Y-52300000D02*
X163139000Y-50942000D01*
X163139000Y-55738000D02*
X163139000Y-54380000D01*
X163179000Y-52300000D02*
X163179000Y-50926000D01*
X163179000Y-55754000D02*
X163179000Y-54380000D01*
X163219000Y-52300000D02*
X163219000Y-50912000D01*
X163219000Y-55768000D02*
X163219000Y-54380000D01*
X163259000Y-52300000D02*
X163259000Y-50898000D01*
X163259000Y-55782000D02*
X163259000Y-54380000D01*
X163299000Y-52300000D02*
X163299000Y-50885000D01*
X163299000Y-55795000D02*
X163299000Y-54380000D01*
X163339000Y-52300000D02*
X163339000Y-50872000D01*
X163339000Y-55808000D02*
X163339000Y-54380000D01*
X163379000Y-52300000D02*
X163379000Y-50860000D01*
X163379000Y-55820000D02*
X163379000Y-54380000D01*
X163420000Y-52300000D02*
X163420000Y-50849000D01*
X163420000Y-55831000D02*
X163420000Y-54380000D01*
X163460000Y-52300000D02*
X163460000Y-50839000D01*
X163460000Y-55841000D02*
X163460000Y-54380000D01*
X163500000Y-52300000D02*
X163500000Y-50829000D01*
X163500000Y-55851000D02*
X163500000Y-54380000D01*
X163540000Y-52300000D02*
X163540000Y-50820000D01*
X163540000Y-55860000D02*
X163540000Y-54380000D01*
X163580000Y-52300000D02*
X163580000Y-50812000D01*
X163580000Y-55868000D02*
X163580000Y-54380000D01*
X163620000Y-52300000D02*
X163620000Y-50804000D01*
X163620000Y-55876000D02*
X163620000Y-54380000D01*
X163660000Y-52300000D02*
X163660000Y-50797000D01*
X163660000Y-55883000D02*
X163660000Y-54380000D01*
X163700000Y-52300000D02*
X163700000Y-50790000D01*
X163700000Y-55890000D02*
X163700000Y-54380000D01*
X163740000Y-52300000D02*
X163740000Y-50784000D01*
X163740000Y-55896000D02*
X163740000Y-54380000D01*
X163780000Y-52300000D02*
X163780000Y-50779000D01*
X163780000Y-55901000D02*
X163780000Y-54380000D01*
X163820000Y-52300000D02*
X163820000Y-50775000D01*
X163820000Y-55905000D02*
X163820000Y-54380000D01*
X163860000Y-52300000D02*
X163860000Y-50771000D01*
X163860000Y-55909000D02*
X163860000Y-54380000D01*
X163900000Y-52300000D02*
X163900000Y-50767000D01*
X163900000Y-55913000D02*
X163900000Y-54380000D01*
X163940000Y-52300000D02*
X163940000Y-50764000D01*
X163940000Y-55916000D02*
X163940000Y-54380000D01*
X163980000Y-52300000D02*
X163980000Y-50762000D01*
X163980000Y-55918000D02*
X163980000Y-54380000D01*
X164020000Y-52300000D02*
X164020000Y-50761000D01*
X164020000Y-55919000D02*
X164020000Y-54380000D01*
X164060000Y-55920000D02*
X164060000Y-54380000D01*
X164060000Y-52300000D02*
X164060000Y-50760000D01*
X164100000Y-55920000D02*
X164100000Y-54380000D01*
X164100000Y-52300000D02*
X164100000Y-50760000D01*
X166720000Y-53340000D02*
G75*
G03X166720000Y-53340000I-2620000J0D01*
G01*
G04 #@! TO.C,C3*
X155810000Y-71310000D02*
X159150000Y-71310000D01*
X159150000Y-71310000D02*
X159150000Y-65970000D01*
X159150000Y-65970000D02*
X155810000Y-65970000D01*
X155810000Y-65970000D02*
X155810000Y-71310000D01*
X157480000Y-71350000D02*
X157480000Y-71310000D01*
X157480000Y-65930000D02*
X157480000Y-65970000D01*
G04 #@! TO.C,C4*
X174860000Y-92900000D02*
X178200000Y-92900000D01*
X178200000Y-92900000D02*
X178200000Y-87560000D01*
X178200000Y-87560000D02*
X174860000Y-87560000D01*
X174860000Y-87560000D02*
X174860000Y-92900000D01*
X176530000Y-92940000D02*
X176530000Y-92900000D01*
X176530000Y-87520000D02*
X176530000Y-87560000D01*
G04 #@! TO.C,C5*
X172720000Y-87520000D02*
X172720000Y-87560000D01*
X172720000Y-92940000D02*
X172720000Y-92900000D01*
X171050000Y-87560000D02*
X171050000Y-92900000D01*
X174390000Y-87560000D02*
X171050000Y-87560000D01*
X174390000Y-92900000D02*
X174390000Y-87560000D01*
X171050000Y-92900000D02*
X174390000Y-92900000D01*
G04 #@! TO.C,C6*
X142415000Y-116355000D02*
X142415000Y-113515000D01*
X142415000Y-113515000D02*
X138375000Y-113515000D01*
X138375000Y-113515000D02*
X138375000Y-116355000D01*
X138375000Y-116355000D02*
X142415000Y-116355000D01*
X143105000Y-114935000D02*
X142415000Y-114935000D01*
X137685000Y-114935000D02*
X138375000Y-114935000D01*
G04 #@! TO.C,D1*
X201062335Y-76391392D02*
G75*
G03X197830000Y-76234484I-1672335J-1078608D01*
G01*
X201062335Y-78548608D02*
G75*
G02X197830000Y-78705516I-1672335J1078608D01*
G01*
X200431130Y-76390163D02*
G75*
G03X198349039Y-76390000I-1041130J-1079837D01*
G01*
X200431130Y-78549837D02*
G75*
G02X198349039Y-78550000I-1041130J1079837D01*
G01*
X197830000Y-76234000D02*
X197830000Y-76390000D01*
X197830000Y-78550000D02*
X197830000Y-78706000D01*
G04 #@! TO.C,D2*
X144490000Y-78550000D02*
X144490000Y-78706000D01*
X144490000Y-76234000D02*
X144490000Y-76390000D01*
X147091130Y-78549837D02*
G75*
G02X145009039Y-78550000I-1041130J1079837D01*
G01*
X147091130Y-76390163D02*
G75*
G03X145009039Y-76390000I-1041130J-1079837D01*
G01*
X147722335Y-78548608D02*
G75*
G02X144490000Y-78705516I-1672335J1078608D01*
G01*
X147722335Y-76391392D02*
G75*
G03X144490000Y-76234484I-1672335J-1078608D01*
G01*
G04 #@! TO.C,D3*
X201062335Y-68771392D02*
G75*
G03X197830000Y-68614484I-1672335J-1078608D01*
G01*
X201062335Y-70928608D02*
G75*
G02X197830000Y-71085516I-1672335J1078608D01*
G01*
X200431130Y-68770163D02*
G75*
G03X198349039Y-68770000I-1041130J-1079837D01*
G01*
X200431130Y-70929837D02*
G75*
G02X198349039Y-70930000I-1041130J1079837D01*
G01*
X197830000Y-68614000D02*
X197830000Y-68770000D01*
X197830000Y-70930000D02*
X197830000Y-71086000D01*
G04 #@! TO.C,D4*
X144490000Y-70930000D02*
X144490000Y-71086000D01*
X144490000Y-68614000D02*
X144490000Y-68770000D01*
X147091130Y-70929837D02*
G75*
G02X145009039Y-70930000I-1041130J1079837D01*
G01*
X147091130Y-68770163D02*
G75*
G03X145009039Y-68770000I-1041130J-1079837D01*
G01*
X147722335Y-70928608D02*
G75*
G02X144490000Y-71085516I-1672335J1078608D01*
G01*
X147722335Y-68771392D02*
G75*
G03X144490000Y-68614484I-1672335J-1078608D01*
G01*
G04 #@! TO.C,D5*
X169947335Y-86551392D02*
G75*
G03X166715000Y-86394484I-1672335J-1078608D01*
G01*
X169947335Y-88708608D02*
G75*
G02X166715000Y-88865516I-1672335J1078608D01*
G01*
X169316130Y-86550163D02*
G75*
G03X167234039Y-86550000I-1041130J-1079837D01*
G01*
X169316130Y-88709837D02*
G75*
G02X167234039Y-88710000I-1041130J1079837D01*
G01*
X166715000Y-86394000D02*
X166715000Y-86550000D01*
X166715000Y-88710000D02*
X166715000Y-88866000D01*
G04 #@! TO.C,D6*
X169947335Y-91631392D02*
G75*
G03X166715000Y-91474484I-1672335J-1078608D01*
G01*
X169947335Y-93788608D02*
G75*
G02X166715000Y-93945516I-1672335J1078608D01*
G01*
X169316130Y-91630163D02*
G75*
G03X167234039Y-91630000I-1041130J-1079837D01*
G01*
X169316130Y-93789837D02*
G75*
G02X167234039Y-93790000I-1041130J1079837D01*
G01*
X166715000Y-91474000D02*
X166715000Y-91630000D01*
X166715000Y-93790000D02*
X166715000Y-93946000D01*
G04 #@! TO.C,D7*
X197830000Y-112840000D02*
X197830000Y-112996000D01*
X197830000Y-110524000D02*
X197830000Y-110680000D01*
X200431130Y-112839837D02*
G75*
G02X198349039Y-112840000I-1041130J1079837D01*
G01*
X200431130Y-110680163D02*
G75*
G03X198349039Y-110680000I-1041130J-1079837D01*
G01*
X201062335Y-112838608D02*
G75*
G02X197830000Y-112995516I-1672335J1078608D01*
G01*
X201062335Y-110681392D02*
G75*
G03X197830000Y-110524484I-1672335J-1078608D01*
G01*
G04 #@! TO.C,D8*
X148992335Y-120841392D02*
G75*
G03X145760000Y-120684484I-1672335J-1078608D01*
G01*
X148992335Y-122998608D02*
G75*
G02X145760000Y-123155516I-1672335J1078608D01*
G01*
X148361130Y-120840163D02*
G75*
G03X146279039Y-120840000I-1041130J-1079837D01*
G01*
X148361130Y-122999837D02*
G75*
G02X146279039Y-123000000I-1041130J1079837D01*
G01*
X145760000Y-120684000D02*
X145760000Y-120840000D01*
X145760000Y-123000000D02*
X145760000Y-123156000D01*
G04 #@! TO.C,D9*
X200950000Y-121475000D02*
X200950000Y-121319000D01*
X200950000Y-123791000D02*
X200950000Y-123635000D01*
X198348870Y-121475163D02*
G75*
G02X200430961Y-121475000I1041130J-1079837D01*
G01*
X198348870Y-123634837D02*
G75*
G03X200430961Y-123635000I1041130J1079837D01*
G01*
X197717665Y-121476392D02*
G75*
G02X200950000Y-121319484I1672335J-1078608D01*
G01*
X197717665Y-123633608D02*
G75*
G03X200950000Y-123790516I1672335J1078608D01*
G01*
G04 #@! TO.C,D10*
X200950000Y-115760000D02*
X200950000Y-115604000D01*
X200950000Y-118076000D02*
X200950000Y-117920000D01*
X198348870Y-115760163D02*
G75*
G02X200430961Y-115760000I1041130J-1079837D01*
G01*
X198348870Y-117919837D02*
G75*
G03X200430961Y-117920000I1041130J1079837D01*
G01*
X197717665Y-115761392D02*
G75*
G02X200950000Y-115604484I1672335J-1078608D01*
G01*
X197717665Y-117918608D02*
G75*
G03X200950000Y-118075516I1672335J1078608D01*
G01*
G04 #@! TO.C,J1*
X213935000Y-123250000D02*
X216595000Y-123250000D01*
X213935000Y-110490000D02*
X213935000Y-123250000D01*
X216595000Y-110490000D02*
X216595000Y-123250000D01*
X213935000Y-110490000D02*
X216595000Y-110490000D01*
X213935000Y-109220000D02*
X213935000Y-107890000D01*
X213935000Y-107890000D02*
X215265000Y-107890000D01*
G04 #@! TO.C,J2*
X175320000Y-62290000D02*
X175320000Y-59630000D01*
X172720000Y-62290000D02*
X175320000Y-62290000D01*
X172720000Y-59630000D02*
X175320000Y-59630000D01*
X172720000Y-62290000D02*
X172720000Y-59630000D01*
X171450000Y-62290000D02*
X170120000Y-62290000D01*
X170120000Y-62290000D02*
X170120000Y-60960000D01*
G04 #@! TO.C,R1*
X175490000Y-83280000D02*
X175160000Y-83280000D01*
X175160000Y-83280000D02*
X175160000Y-76740000D01*
X175160000Y-76740000D02*
X175490000Y-76740000D01*
X177570000Y-83280000D02*
X177900000Y-83280000D01*
X177900000Y-83280000D02*
X177900000Y-76740000D01*
X177900000Y-76740000D02*
X177570000Y-76740000D01*
G04 #@! TO.C,R2*
X152500000Y-65310000D02*
X152170000Y-65310000D01*
X152500000Y-71850000D02*
X152500000Y-65310000D01*
X152170000Y-71850000D02*
X152500000Y-71850000D01*
X149760000Y-65310000D02*
X150090000Y-65310000D01*
X149760000Y-71850000D02*
X149760000Y-65310000D01*
X150090000Y-71850000D02*
X149760000Y-71850000D01*
G04 #@! TO.C,R3*
X197080000Y-64230000D02*
X196750000Y-64230000D01*
X196750000Y-64230000D02*
X196750000Y-57690000D01*
X196750000Y-57690000D02*
X197080000Y-57690000D01*
X199160000Y-64230000D02*
X199490000Y-64230000D01*
X199490000Y-64230000D02*
X199490000Y-57690000D01*
X199490000Y-57690000D02*
X199160000Y-57690000D01*
G04 #@! TO.C,R4*
X148690000Y-57690000D02*
X148360000Y-57690000D01*
X148690000Y-64230000D02*
X148690000Y-57690000D01*
X148360000Y-64230000D02*
X148690000Y-64230000D01*
X145950000Y-57690000D02*
X146280000Y-57690000D01*
X145950000Y-64230000D02*
X145950000Y-57690000D01*
X146280000Y-64230000D02*
X145950000Y-64230000D01*
G04 #@! TO.C,R5*
X158345000Y-83280000D02*
X158015000Y-83280000D01*
X158015000Y-83280000D02*
X158015000Y-76740000D01*
X158015000Y-76740000D02*
X158345000Y-76740000D01*
X160425000Y-83280000D02*
X160755000Y-83280000D01*
X160755000Y-83280000D02*
X160755000Y-76740000D01*
X160755000Y-76740000D02*
X160425000Y-76740000D01*
G04 #@! TO.C,R6*
X165200000Y-76740000D02*
X164870000Y-76740000D01*
X165200000Y-83280000D02*
X165200000Y-76740000D01*
X164870000Y-83280000D02*
X165200000Y-83280000D01*
X162460000Y-76740000D02*
X162790000Y-76740000D01*
X162460000Y-83280000D02*
X162460000Y-76740000D01*
X162790000Y-83280000D02*
X162460000Y-83280000D01*
G04 #@! TO.C,R7*
X210280000Y-112800000D02*
X210280000Y-113130000D01*
X210280000Y-113130000D02*
X203740000Y-113130000D01*
X203740000Y-113130000D02*
X203740000Y-112800000D01*
X210280000Y-110720000D02*
X210280000Y-110390000D01*
X210280000Y-110390000D02*
X203740000Y-110390000D01*
X203740000Y-110390000D02*
X203740000Y-110720000D01*
G04 #@! TO.C,R8*
X142335000Y-123595000D02*
X142335000Y-123925000D01*
X142335000Y-123925000D02*
X135795000Y-123925000D01*
X135795000Y-123925000D02*
X135795000Y-123595000D01*
X142335000Y-121515000D02*
X142335000Y-121185000D01*
X142335000Y-121185000D02*
X135795000Y-121185000D01*
X135795000Y-121185000D02*
X135795000Y-121515000D01*
G04 #@! TO.C,R9*
X203740000Y-120880000D02*
X203740000Y-120550000D01*
X203740000Y-120550000D02*
X210280000Y-120550000D01*
X210280000Y-120550000D02*
X210280000Y-120880000D01*
X203740000Y-122960000D02*
X203740000Y-123290000D01*
X203740000Y-123290000D02*
X210280000Y-123290000D01*
X210280000Y-123290000D02*
X210280000Y-122960000D01*
G04 #@! TO.C,R10*
X210280000Y-118210000D02*
X210280000Y-117880000D01*
X203740000Y-118210000D02*
X210280000Y-118210000D01*
X203740000Y-117880000D02*
X203740000Y-118210000D01*
X210280000Y-115470000D02*
X210280000Y-115800000D01*
X203740000Y-115470000D02*
X210280000Y-115470000D01*
X203740000Y-115800000D02*
X203740000Y-115470000D01*
G04 #@! TO.C,R11*
X143605000Y-112165000D02*
X143605000Y-112495000D01*
X143605000Y-112495000D02*
X137065000Y-112495000D01*
X137065000Y-112495000D02*
X137065000Y-112165000D01*
X143605000Y-110085000D02*
X143605000Y-109755000D01*
X143605000Y-109755000D02*
X137065000Y-109755000D01*
X137065000Y-109755000D02*
X137065000Y-110085000D01*
G04 #@! TO.C,R12*
X174090000Y-76740000D02*
X173760000Y-76740000D01*
X174090000Y-83280000D02*
X174090000Y-76740000D01*
X173760000Y-83280000D02*
X174090000Y-83280000D01*
X171350000Y-76740000D02*
X171680000Y-76740000D01*
X171350000Y-83280000D02*
X171350000Y-76740000D01*
X171680000Y-83280000D02*
X171350000Y-83280000D01*
G04 #@! TO.C,R13*
X167235000Y-83280000D02*
X166905000Y-83280000D01*
X166905000Y-83280000D02*
X166905000Y-76740000D01*
X166905000Y-76740000D02*
X167235000Y-76740000D01*
X169315000Y-83280000D02*
X169645000Y-83280000D01*
X169645000Y-83280000D02*
X169645000Y-76740000D01*
X169645000Y-76740000D02*
X169315000Y-76740000D01*
G04 #@! TO.C,R15*
X192635000Y-80105000D02*
X192305000Y-80105000D01*
X192305000Y-80105000D02*
X192305000Y-73565000D01*
X192305000Y-73565000D02*
X192635000Y-73565000D01*
X194715000Y-80105000D02*
X195045000Y-80105000D01*
X195045000Y-80105000D02*
X195045000Y-73565000D01*
X195045000Y-73565000D02*
X194715000Y-73565000D01*
G04 #@! TO.C,SW1*
X169910000Y-120435000D02*
X174410000Y-120435000D01*
X168660000Y-116435000D02*
X168660000Y-117935000D01*
X174410000Y-113935000D02*
X169910000Y-113935000D01*
X175660000Y-117935000D02*
X175660000Y-116435000D01*
G04 #@! TO.C,SW2*
X154130000Y-76435000D02*
X152630000Y-76435000D01*
X150130000Y-77685000D02*
X150130000Y-82185000D01*
X152630000Y-83435000D02*
X154130000Y-83435000D01*
X156630000Y-82185000D02*
X156630000Y-77685000D01*
G04 #@! TO.C,SW3*
X176590000Y-53280000D02*
X176590000Y-54610000D01*
X175260000Y-53280000D02*
X176590000Y-53280000D01*
X173990000Y-53280000D02*
X173990000Y-55940000D01*
X173990000Y-55940000D02*
X168850000Y-55940000D01*
X173990000Y-53280000D02*
X168850000Y-53280000D01*
X168850000Y-53280000D02*
X168850000Y-55940000D01*
G04 #@! TO.C,SW4*
X176590000Y-72450000D02*
X176590000Y-69790000D01*
X171450000Y-72450000D02*
X176590000Y-72450000D01*
X171450000Y-69790000D02*
X176590000Y-69790000D01*
X171450000Y-72450000D02*
X171450000Y-69790000D01*
X170180000Y-72450000D02*
X168850000Y-72450000D01*
X168850000Y-72450000D02*
X168850000Y-71120000D01*
G04 #@! TO.C,U1*
X158061000Y-56420000D02*
X158061000Y-57930000D01*
X154360000Y-56420000D02*
X154360000Y-57930000D01*
X151090000Y-57930000D02*
X161330000Y-57930000D01*
X161330000Y-56420000D02*
X161330000Y-61061000D01*
X151090000Y-56420000D02*
X151090000Y-61061000D01*
X151090000Y-61061000D02*
X161330000Y-61061000D01*
X151090000Y-56420000D02*
X161330000Y-56420000D01*
G04 #@! TO.C,U2*
X184110000Y-56420000D02*
X194350000Y-56420000D01*
X184110000Y-61061000D02*
X194350000Y-61061000D01*
X184110000Y-56420000D02*
X184110000Y-61061000D01*
X194350000Y-56420000D02*
X194350000Y-61061000D01*
X184110000Y-57930000D02*
X194350000Y-57930000D01*
X187380000Y-56420000D02*
X187380000Y-57930000D01*
X191081000Y-56420000D02*
X191081000Y-57930000D01*
G04 #@! TO.C,U3*
X188290000Y-63900000D02*
X188290000Y-68485000D01*
X188290000Y-71756000D02*
X188290000Y-116285000D01*
X188290000Y-119556000D02*
X188290000Y-124140000D01*
X179050000Y-63900000D02*
X179050000Y-67285000D01*
X179050000Y-70556000D02*
X179050000Y-117485000D01*
X179050000Y-120756000D02*
X179050000Y-124140000D01*
X188290000Y-63900000D02*
X186595000Y-63900000D01*
X184245000Y-63900000D02*
X182742000Y-63900000D01*
X181097000Y-63900000D02*
X179050000Y-63900000D01*
X188290000Y-124140000D02*
X186243000Y-124140000D01*
X184597000Y-124140000D02*
X179050000Y-124140000D01*
X185420000Y-63595000D02*
X185920000Y-63095000D01*
X185920000Y-63095000D02*
X184920000Y-63095000D01*
X184920000Y-63095000D02*
X185420000Y-63595000D01*
X183670000Y-71520000D02*
X183670000Y-116520000D01*
X185170000Y-71520000D02*
X182170000Y-71520000D01*
X184420000Y-72270000D02*
X183670000Y-71520000D01*
X183670000Y-71520000D02*
X182920000Y-72270000D01*
X185170000Y-116520000D02*
X182170000Y-116520000D01*
X184420000Y-115770000D02*
X183670000Y-116520000D01*
X183670000Y-116520000D02*
X182920000Y-115770000D01*
G04 #@! TO.C,U4*
X176431000Y-98670000D02*
X176431000Y-102607000D01*
X176431000Y-106974000D02*
X176431000Y-110910000D01*
X166390000Y-98670000D02*
X166390000Y-102607000D01*
X166390000Y-106974000D02*
X166390000Y-110910000D01*
X176431000Y-98670000D02*
X174781000Y-98670000D01*
X173039000Y-98670000D02*
X172280000Y-98670000D01*
X170539000Y-98670000D02*
X169780000Y-98670000D01*
X168040000Y-98670000D02*
X166390000Y-98670000D01*
X176431000Y-110910000D02*
X166390000Y-110910000D01*
G04 #@! TO.C,U7*
X160385000Y-88840000D02*
G75*
G02X158385000Y-88840000I-1000000J0D01*
G01*
X158385000Y-88840000D02*
X156735000Y-88840000D01*
X156735000Y-88840000D02*
X156735000Y-124520000D01*
X156735000Y-124520000D02*
X162035000Y-124520000D01*
X162035000Y-124520000D02*
X162035000Y-88840000D01*
X162035000Y-88840000D02*
X160385000Y-88840000D01*
G04 #@! TO.C,U24L1*
X202946000Y-78740000D02*
X202946000Y-78740000D01*
X213614000Y-78740000D02*
X202946000Y-78740000D01*
X202370000Y-79070000D02*
X202370000Y-79070000D01*
X217820000Y-79070000D02*
X202370000Y-79070000D01*
X217820000Y-49870000D02*
X217820000Y-79070000D01*
X202370000Y-49870000D02*
X217820000Y-49870000D01*
X202370000Y-79070000D02*
X202370000Y-49870000D01*
X205740000Y-78486000D02*
X205740000Y-78486000D01*
X205740000Y-76200000D02*
X205740000Y-78486000D01*
X203454000Y-76200000D02*
X205740000Y-76200000D01*
X213614000Y-78740000D02*
X213614000Y-78740000D01*
X213614000Y-73406000D02*
X213614000Y-78740000D01*
X202946000Y-73406000D02*
X213614000Y-73406000D01*
X202946000Y-78740000D02*
X202946000Y-73406000D01*
G04 #@! TO.C,U24L2*
X128016000Y-78740000D02*
X128016000Y-73406000D01*
X128016000Y-73406000D02*
X138684000Y-73406000D01*
X138684000Y-73406000D02*
X138684000Y-78740000D01*
X138684000Y-78740000D02*
X138684000Y-78740000D01*
X128524000Y-76200000D02*
X130810000Y-76200000D01*
X130810000Y-76200000D02*
X130810000Y-78486000D01*
X130810000Y-78486000D02*
X130810000Y-78486000D01*
X127440000Y-79070000D02*
X127440000Y-49870000D01*
X127440000Y-49870000D02*
X142890000Y-49870000D01*
X142890000Y-49870000D02*
X142890000Y-79070000D01*
X142890000Y-79070000D02*
X127440000Y-79070000D01*
X127440000Y-79070000D02*
X127440000Y-79070000D01*
X138684000Y-78740000D02*
X128016000Y-78740000D01*
X128016000Y-78740000D02*
X128016000Y-78740000D01*
G04 #@! TO.C,Y1*
X153020000Y-109805000D02*
X153020000Y-116055000D01*
X147970000Y-109805000D02*
X147970000Y-116055000D01*
X147970000Y-109805000D02*
G75*
G02X153020000Y-109805000I2525000J0D01*
G01*
X147970000Y-116055000D02*
G75*
G03X153020000Y-116055000I2525000J0D01*
G01*
G04 #@! TO.C,U5*
D11*
X133894285Y-95824523D02*
X133894285Y-96731666D01*
X133833809Y-96913095D01*
X133712857Y-97034047D01*
X133531428Y-97094523D01*
X133410476Y-97094523D01*
X134740952Y-95824523D02*
X134982857Y-95824523D01*
X135103809Y-95885000D01*
X135224761Y-96005952D01*
X135285238Y-96247857D01*
X135285238Y-96671190D01*
X135224761Y-96913095D01*
X135103809Y-97034047D01*
X134982857Y-97094523D01*
X134740952Y-97094523D01*
X134620000Y-97034047D01*
X134499047Y-96913095D01*
X134438571Y-96671190D01*
X134438571Y-96247857D01*
X134499047Y-96005952D01*
X134620000Y-95885000D01*
X134740952Y-95824523D01*
X136071428Y-96489761D02*
X136071428Y-97094523D01*
X135648095Y-95824523D02*
X136071428Y-96489761D01*
X136494761Y-95824523D01*
X136857619Y-97034047D02*
X137039047Y-97094523D01*
X137341428Y-97094523D01*
X137462380Y-97034047D01*
X137522857Y-96973571D01*
X137583333Y-96852619D01*
X137583333Y-96731666D01*
X137522857Y-96610714D01*
X137462380Y-96550238D01*
X137341428Y-96489761D01*
X137099523Y-96429285D01*
X136978571Y-96368809D01*
X136918095Y-96308333D01*
X136857619Y-96187380D01*
X136857619Y-96066428D01*
X136918095Y-95945476D01*
X136978571Y-95885000D01*
X137099523Y-95824523D01*
X137401904Y-95824523D01*
X137583333Y-95885000D01*
X137946190Y-95824523D02*
X138671904Y-95824523D01*
X138309047Y-97094523D02*
X138309047Y-95824523D01*
X139095238Y-97094523D02*
X139095238Y-95824523D01*
X140425714Y-96973571D02*
X140365238Y-97034047D01*
X140183809Y-97094523D01*
X140062857Y-97094523D01*
X139881428Y-97034047D01*
X139760476Y-96913095D01*
X139700000Y-96792142D01*
X139639523Y-96550238D01*
X139639523Y-96368809D01*
X139700000Y-96126904D01*
X139760476Y-96005952D01*
X139881428Y-95885000D01*
X140062857Y-95824523D01*
X140183809Y-95824523D01*
X140365238Y-95885000D01*
X140425714Y-95945476D01*
X140970000Y-97094523D02*
X140970000Y-95824523D01*
X141695714Y-97094523D02*
X141151428Y-96368809D01*
X141695714Y-95824523D02*
X140970000Y-96550238D01*
X142844761Y-97094523D02*
X142240000Y-97094523D01*
X142240000Y-95824523D01*
X143268095Y-96429285D02*
X143691428Y-96429285D01*
X143872857Y-97094523D02*
X143268095Y-97094523D01*
X143268095Y-95824523D01*
X143872857Y-95824523D01*
X144840476Y-96429285D02*
X144417142Y-96429285D01*
X144417142Y-97094523D02*
X144417142Y-95824523D01*
X145021904Y-95824523D01*
X145324285Y-95824523D02*
X146050000Y-95824523D01*
X145687142Y-97094523D02*
X145687142Y-95824523D01*
G04 #@! TO.C,U6*
X199329523Y-95824523D02*
X199329523Y-96731666D01*
X199269047Y-96913095D01*
X199148095Y-97034047D01*
X198966666Y-97094523D01*
X198845714Y-97094523D01*
X200176190Y-95824523D02*
X200418095Y-95824523D01*
X200539047Y-95885000D01*
X200660000Y-96005952D01*
X200720476Y-96247857D01*
X200720476Y-96671190D01*
X200660000Y-96913095D01*
X200539047Y-97034047D01*
X200418095Y-97094523D01*
X200176190Y-97094523D01*
X200055238Y-97034047D01*
X199934285Y-96913095D01*
X199873809Y-96671190D01*
X199873809Y-96247857D01*
X199934285Y-96005952D01*
X200055238Y-95885000D01*
X200176190Y-95824523D01*
X201506666Y-96489761D02*
X201506666Y-97094523D01*
X201083333Y-95824523D02*
X201506666Y-96489761D01*
X201930000Y-95824523D01*
X202292857Y-97034047D02*
X202474285Y-97094523D01*
X202776666Y-97094523D01*
X202897619Y-97034047D01*
X202958095Y-96973571D01*
X203018571Y-96852619D01*
X203018571Y-96731666D01*
X202958095Y-96610714D01*
X202897619Y-96550238D01*
X202776666Y-96489761D01*
X202534761Y-96429285D01*
X202413809Y-96368809D01*
X202353333Y-96308333D01*
X202292857Y-96187380D01*
X202292857Y-96066428D01*
X202353333Y-95945476D01*
X202413809Y-95885000D01*
X202534761Y-95824523D01*
X202837142Y-95824523D01*
X203018571Y-95885000D01*
X203381428Y-95824523D02*
X204107142Y-95824523D01*
X203744285Y-97094523D02*
X203744285Y-95824523D01*
X204530476Y-97094523D02*
X204530476Y-95824523D01*
X205860952Y-96973571D02*
X205800476Y-97034047D01*
X205619047Y-97094523D01*
X205498095Y-97094523D01*
X205316666Y-97034047D01*
X205195714Y-96913095D01*
X205135238Y-96792142D01*
X205074761Y-96550238D01*
X205074761Y-96368809D01*
X205135238Y-96126904D01*
X205195714Y-96005952D01*
X205316666Y-95885000D01*
X205498095Y-95824523D01*
X205619047Y-95824523D01*
X205800476Y-95885000D01*
X205860952Y-95945476D01*
X206405238Y-97094523D02*
X206405238Y-95824523D01*
X207130952Y-97094523D02*
X206586666Y-96368809D01*
X207130952Y-95824523D02*
X206405238Y-96550238D01*
X208400952Y-97094523D02*
X207977619Y-96489761D01*
X207675238Y-97094523D02*
X207675238Y-95824523D01*
X208159047Y-95824523D01*
X208280000Y-95885000D01*
X208340476Y-95945476D01*
X208400952Y-96066428D01*
X208400952Y-96247857D01*
X208340476Y-96368809D01*
X208280000Y-96429285D01*
X208159047Y-96489761D01*
X207675238Y-96489761D01*
X208945238Y-97094523D02*
X208945238Y-95824523D01*
X210215238Y-95885000D02*
X210094285Y-95824523D01*
X209912857Y-95824523D01*
X209731428Y-95885000D01*
X209610476Y-96005952D01*
X209550000Y-96126904D01*
X209489523Y-96368809D01*
X209489523Y-96550238D01*
X209550000Y-96792142D01*
X209610476Y-96913095D01*
X209731428Y-97034047D01*
X209912857Y-97094523D01*
X210033809Y-97094523D01*
X210215238Y-97034047D01*
X210275714Y-96973571D01*
X210275714Y-96550238D01*
X210033809Y-96550238D01*
X210820000Y-97094523D02*
X210820000Y-95824523D01*
X210820000Y-96429285D02*
X211545714Y-96429285D01*
X211545714Y-97094523D02*
X211545714Y-95824523D01*
X211969047Y-95824523D02*
X212694761Y-95824523D01*
X212331904Y-97094523D02*
X212331904Y-95824523D01*
G04 #@! TD*
M02*
