M48
;DRILL file {KiCad (5.0.2)-1} date 1/29/2019 10:31:14 PM
;FORMAT={-:-/ absolute / inch / decimal}
FMAT,2
INCH,TZ
T1C0.0157
T2C0.0300
T3C0.0315
T4C0.0350
T5C0.0354
T6C0.0354
T7C0.0394
T8C0.0433
T9C0.0472
T10C0.0550
T11C0.0669
T12C0.1535
%
G90
G05
T1
X5.6Y-2.95
X5.7Y-4.025
X5.775Y-3.925
X5.825Y-3.775
X5.8999Y-4.05
X6.Y-3.75
X6.Y-3.85
X6.2Y-3.85
X6.225Y-4.
X6.5Y-3.65
X6.5Y-3.7723
X6.5Y-4.25
X6.55Y-3.75
X6.575Y-3.55
X6.6Y-3.925
X6.625Y-4.3
X6.7Y-3.9
X6.7Y-4.05
X6.725Y-4.35
X6.775Y-4.425
X6.8Y-3.9
X6.925Y-4.425
X6.95Y-3.55
X6.95Y-3.85
X7.Y-3.925
X7.025Y-3.8
X7.075Y-3.725
X7.075Y-3.975
X7.1Y-3.45
X7.125Y-3.7
X7.125Y-4.025
X7.15Y-3.525
X7.2Y-3.725
X7.2Y-3.8
X7.225Y-4.
X7.25Y-3.625
X7.425Y-3.925
X7.5Y-3.875
X7.975Y-3.1
X8.Y-4.3
X8.225Y-3.125
T2
X8.05Y-2.95
X8.05Y-3.05
X8.15Y-2.95
X8.15Y-3.05
X8.25Y-2.95
X8.25Y-3.05
X8.35Y-2.95
X8.35Y-3.05
X5.1Y-2.95
X5.1Y-3.05
X5.2Y-2.95
X5.2Y-3.05
X5.3Y-2.95
X5.3Y-3.05
X5.4Y-2.95
X5.4Y-3.05
T3
X8.Y-4.6
X8.3Y-4.6
X8.Y-4.4
X8.3Y-4.4
X5.8Y-2.25
X5.8Y-2.55
X6.4213Y-2.1
X6.5Y-2.1
X6.275Y-3.
X6.275Y-3.3
X5.925Y-4.35
X5.925Y-4.5421
X6.8Y-3.4047
X6.8Y-3.7
X7.6Y-4.55
X7.6Y-4.85
X6.625Y-3.
X6.625Y-3.3
X6.45Y-3.
X6.45Y-3.3
X5.3547Y-4.675
X5.65Y-4.675
X6.2Y-2.5547
X6.2Y-2.85
X6.8Y-3.
X6.8Y-3.3
X5.95Y-2.55
X5.95Y-2.85
X6.95Y-3.4047
X6.95Y-3.7
X6.125Y-3.55
X6.125Y-3.65
X6.125Y-3.75
X6.125Y-3.85
X6.125Y-3.95
X6.125Y-4.05
X6.125Y-4.15
X6.125Y-4.25
X6.125Y-4.35
X6.125Y-4.45
X6.125Y-4.55
X6.125Y-4.65
X6.125Y-4.75
X6.125Y-4.85
X6.425Y-3.55
X6.425Y-3.65
X6.425Y-3.75
X6.425Y-3.85
X6.425Y-3.95
X6.425Y-4.05
X6.425Y-4.15
X6.425Y-4.25
X6.425Y-4.35
X6.425Y-4.45
X6.425Y-4.55
X6.425Y-4.65
X6.425Y-4.75
X6.425Y-4.85
X6.4213Y-2.65
X6.5Y-2.65
X5.3797Y-4.525
X5.675Y-4.525
X5.325Y-4.825
X5.625Y-4.825
X5.375Y-4.375
X5.675Y-4.375
X6.95Y-3.
X6.95Y-3.3
X7.625Y-2.875
X7.625Y-3.175
X8.Y-4.8
X8.3Y-4.8
X7.8Y-2.25
X7.8Y-2.55
T4
X5.1Y-3.65
X5.1Y-3.75
X5.1Y-3.85
X5.4Y-4.15
X5.5Y-4.15
X5.6Y-4.15
X7.7Y-3.65
X7.7Y-3.75
X7.7Y-3.85
X8.Y-4.15
X8.1Y-4.15
X8.2Y-4.15
T5
X5.375Y-3.25
X5.375Y-3.45
X5.625Y-3.25
X5.625Y-3.45
X7.975Y-3.25
X7.975Y-3.45
X8.225Y-3.25
X8.225Y-3.45
T6
X7.8Y-4.825
X7.9Y-4.825
X7.8Y-4.6
X7.9Y-4.6
X5.75Y-4.8
X5.85Y-4.8
X7.8Y-2.75
X7.9Y-2.75
X7.8Y-4.4
X7.9Y-4.4
X7.8Y-3.05
X7.9Y-3.05
X6.575Y-3.45
X6.675Y-3.45
X6.575Y-3.65
X6.675Y-3.65
X5.7Y-3.05
X5.8Y-3.05
X5.7Y-2.75
X5.8Y-2.75
T7
X6.7Y-2.8
X6.8Y-2.8
X6.9Y-2.8
X6.75Y-2.4
X6.85Y-2.4
X6.65Y-3.85
X6.7484Y-3.85
X6.8469Y-3.85
X8.475Y-4.3
X8.475Y-4.4
X8.475Y-4.5
X8.475Y-4.6
X8.475Y-4.7
X8.475Y-4.8
X6.7Y-2.15
X6.8Y-2.15
X6.9Y-2.15
T8
X6.05Y-2.35
X6.15Y-2.35
X6.25Y-2.35
X5.95Y-3.0191
X5.95Y-3.275
X6.1272Y-3.0191
X6.1272Y-3.275
X7.35Y-2.35
X7.45Y-2.35
X7.55Y-2.35
X6.65Y-4.525
X6.65Y-4.7022
X6.9059Y-4.525
X6.9059Y-4.7022
T9
X7.1622Y-2.55
X7.3Y-2.55
X7.3Y-4.8531
T10
X5.2Y-3.4875
X5.2Y-4.0125
X5.8Y-3.4875
X5.8Y-4.0125
X7.8Y-3.4875
X7.8Y-4.0125
X8.4Y-3.4875
X8.4Y-4.0125
T11
X7.0657Y-2.7134
X7.0657Y-4.6898
X7.3965Y-2.7606
X7.3965Y-4.6425
T12
X5.175Y-4.55
X5.875Y-2.05
X7.475Y-2.05
X7.6Y-4.25
T0
M30
